<?xml version="1.0" encoding="utf-8"?>
<!-- Generator: Adobe Illustrator 22.1.0, SVG Export Plug-In . SVG Version: 6.00 Build 0)  -->
<svg version="1.1" id="レイヤー_1" xmlns="http://www.w3.org/2000/svg" xmlns:xlink="http://www.w3.org/1999/xlink" width="126px" height="81" x="0px"
	 y="0px" viewBox="0 0 126 81" style="enable-background:new 0 0 126 81;" xml:space="preserve">
<style type="text/css">
	.st0{fill:#FFFFFF;}
	.st1{fill:none;}
	.st2{fill:#F9F9F9;}
</style>
<path class="st0" d="M133.6-84.9c-0.2,0-0.4,0-0.6,0c-0.2,0-0.4,0-0.6,0c0.2,0.5,0.4,0.9,0.6,1.4C133.2-83.9,133.4-84.4,133.6-84.9z
	"/>
<g>
	<path class="st1" d="M0,12.2L0,12.2c5,0,9.3-3,11.2-7.3C9.8,3.3,8.6,1.7,7.3,0H0V12.2z"/>
	<path class="st1" d="M50.9,27.8c-3.6-0.7-7.2-1.6-10.6-2.9C31.9,38.4,17,47.4,0,47.4h0V58h0C21.9,58,41,45.7,50.9,27.8z"/>
	<path class="st1" d="M29.8,20.1c-3.6-2-7-4.3-10.1-6.9C15.4,19.5,8.2,23.7,0,23.7h0v12.2h0C12.4,35.9,23.3,29.6,29.8,20.1z"/>
	<path class="st1" d="M0,69.4L0,69.4l0,11.4h7.3c-2.6-3.6-4.8-7.4-6.7-11.4C0.4,69.4,0.2,69.4,0,69.4z"/>
	<path class="st1" d="M120,80.8h7.3V69.4c-0.2,0-0.4,0-0.6,0C124.8,73.4,122.6,77.2,120,80.8z"/>
	<path class="st1" d="M107.7,13.2c-3.1,2.6-6.5,4.9-10.1,6.9c6.5,9.5,17.4,15.8,29.8,15.8V23.7C119.2,23.7,112,19.5,107.7,13.2z"/>
	<path class="st1" d="M23.4,65.3c-3.4,1.2-7,2.2-10.6,2.9c2.5,4.6,5.7,8.9,9.4,12.6h16.9C32.7,76.9,27.4,71.6,23.4,65.3z"/>
	<path class="st1" d="M87.1,24.9c-3.4,1.2-7,2.2-10.6,2.9c9.9,18,29,30.2,50.9,30.2V47.4C110.4,47.4,95.5,38.4,87.1,24.9z"/>
	<path class="st1" d="M44,53.6c-3.1,2.6-6.5,4.9-10.1,6.9c6.5,9.5,17.4,15.8,29.8,15.8S87,70,93.4,60.5c-3.6-2-7-4.3-10.1-6.9
		c-4.3,6.3-11.5,10.5-19.7,10.5S48.3,59.9,44,53.6z"/>
	<path class="st1" d="M127.4,12.2V0H120c-1.2,1.7-2.5,3.3-3.9,4.9C118.1,9.2,122.4,12.2,127.4,12.2z"/>
	<path class="st1" d="M63.7,52.7c5,0,9.3-3,11.2-7.3c-4.2-4.9-7.8-10.4-10.6-16.4c-0.2,0-0.4,0-0.6,0s-0.4,0-0.6,0
		c-2.7,6-6.3,11.5-10.6,16.4C54.4,49.6,58.7,52.7,63.7,52.7z"/>
	<path class="st1" d="M103.9,65.3c-3.9,6.3-9.3,11.6-15.6,15.5h16.9c3.7-3.8,6.8-8,9.4-12.6C110.9,67.5,107.4,66.5,103.9,65.3z"/>
	<path class="st1" d="M63.7,17.5c16.3,0,31-6.7,41.5-17.5H88.3c-7.2,4.4-15.6,6.9-24.7,6.9S46.2,4.4,39,0H22.2
		C32.7,10.8,47.4,17.5,63.7,17.5z"/>
	<path class="st2" d="M88.3,0H39c7.2,4.4,15.6,6.9,24.7,6.9S81.1,4.4,88.3,0z"/>
	<path class="st2" d="M0,12.2L0,12.2l0,11.4h0c8.2,0,15.4-4.2,19.7-10.5c3.1,2.6,6.5,4.9,10.1,6.9C23.3,29.6,12.4,35.9,0,35.9h0
		v11.4h0c17,0,31.9-9,40.3-22.5c3.4,1.2,7,2.2,10.6,2.9C41,45.7,21.9,58,0,58h0v11.4h0c0.2,0,0.4,0,0.6,0c1.9,4,4.1,7.9,6.7,11.4
		h14.8c-3.7-3.8-6.8-8-9.4-12.6c3.6-0.7,7.2-1.6,10.6-2.9c3.9,6.3,9.3,11.6,15.6,15.5h49.2c6.3-3.9,11.7-9.2,15.6-15.5
		c3.4,1.2,7,2.2,10.6,2.9c-2.5,4.6-5.7,8.9-9.4,12.6H120c2.6-3.6,4.8-7.4,6.7-11.4c0.2,0,0.4,0,0.6,0V58c-21.9,0-41-12.2-50.9-30.2
		c3.6-0.7,7.2-1.6,10.6-2.9c8.4,13.5,23.3,22.5,40.3,22.5V35.9c-12.4,0-23.3-6.3-29.8-15.8c3.6-2,7-4.3,10.1-6.9
		c4.3,6.3,11.5,10.5,19.7,10.5V12.2c-5,0-9.3-3-11.2-7.3c1.4-1.6,2.6-3.2,3.9-4.9h-14.8C94.6,10.8,79.9,17.5,63.7,17.5
		S32.7,10.8,22.2,0H7.3c1.2,1.7,2.5,3.3,3.9,4.9C9.3,9.2,5,12.2,0,12.2z M83.3,53.6c3.1,2.6,6.5,4.9,10.1,6.9
		C87,70,76.1,76.3,63.7,76.3S40.4,70,33.9,60.5c3.6-2,7-4.3,10.1-6.9c4.3,6.3,11.5,10.5,19.7,10.5S79.1,59.9,83.3,53.6z M63,29
		c0.2,0,0.4,0,0.6,0s0.4,0,0.6,0c2.7,6,6.3,11.5,10.6,16.4c-1.9,4.3-6.2,7.3-11.2,7.3s-9.3-3-11.2-7.3C56.7,40.4,60.3,34.9,63,29z"
		/>
</g>
</svg>
