<?xml version="1.0" encoding="utf-8"?>
<!-- Generator: Adobe Illustrator 22.1.0, SVG Export Plug-In . SVG Version: 6.00 Build 0)  -->
<svg version="1.1" xmlns="http://www.w3.org/2000/svg" xmlns:xlink="http://www.w3.org/1999/xlink" width="100px" height="174px" x="0px"
	 y="0px" viewBox="0 0 100 174" style="enable-background:new 0 0 100 174;" xml:space="preserve">
<style type="text/css">
	.st0{fill:#FFFFFF;}
	.st1{fill:#f9f9f9;}
</style>
<path class="st0" d="M133.6-84.9c-0.2,0-0.4,0-0.6,0c-0.2,0-0.4,0-0.6,0c0.2,0.5,0.4,0.9,0.6,1.4C133.2-83.9,133.4-84.4,133.6-84.9z
	"/>
<path class="st1" d="M100,0H65.5v0L51,25.2V0h-2v25.2L34.5,0H0v174h34.5l0,0L49,148.8V174h2v-25.2L65.5,174H100V0z M46.3,88
	L2.7,113.2L17.2,88H46.3z M2.7,60.8L46.3,86l-29,0L2.7,60.8z M47.3,89.7l-14.5,25.2h-29L47.3,89.7z M3.7,59.1h29l14.5,25.2L3.7,59.1
	z M3.7,57.1l43.5-25.2L32.8,57.1H3.7z M2.7,55.1l14.5-25.2l29,0L2.7,55.1z M32.8,1l14.5,25.2L3.7,1L32.8,1z M46.3,27.9l-29,0
	L2.7,2.7L46.3,27.9z M1,3.7l14.5,25.2L1,54.1V3.7z M1,61.8L15.5,87L1,112.2V61.8z M46.3,144.1h-29L2.7,118.9L46.3,144.1z M1,119.9
	l14.5,25.2L1,170.3V119.9z M17.2,146.1h29L2.7,171.3L17.2,146.1z M32.8,173l-29,0l43.5-25.2L32.8,173z M3.7,116.9h29l14.5,25.2
	L3.7,116.9z M49,141.1l-14.5-25.2L49,90.7V141.1z M49,83.3L34.5,58.1L49,32.9V83.3z M53.7,88l29,0l14.5,25.2L53.7,88z M96.3,114.9
	l-29,0L52.7,89.7L96.3,114.9z M52.7,84.3l14.5-25.2h29L52.7,84.3z M53.7,86l43.5-25.2L82.8,86L53.7,86z M53.7,27.9L97.3,2.7
	L82.8,27.9H53.7z M97.3,55.1L53.7,29.9h29L97.3,55.1z M67.2,1l29,0L52.7,26.2L67.2,1z M96.3,57.1h-29L52.7,31.9L96.3,57.1z M51,32.9
	l14.5,25.2L51,83.3V32.9z M51,90.7l14.5,25.2L51,141.1V90.7z M67.2,116.9l29,0l-43.5,25.2L67.2,116.9z M97.3,118.9l-14.5,25.2h-29
	L97.3,118.9z M67.2,173l-14.5-25.2L96.3,173H67.2z M53.7,146.1h29l14.5,25.2L53.7,146.1z M99,170.3l-14.5-25.2L99,119.9V170.3z
	 M99,112.2L84.5,87L99,61.8V112.2z M99,54.1L84.5,28.9L99,3.7V54.1z"/>
</svg>
