<?xml version="1.0" encoding="utf-8"?>
<!-- Generator: Adobe Illustrator 22.1.0, SVG Export Plug-In . SVG Version: 6.00 Build 0)  -->
<svg version="1.1" id="レイヤー_1" xmlns="http://www.w3.org/2000/svg" xmlns:xlink="http://www.w3.org/1999/xlink" x="0px"
	 y="0px" viewBox="0 0 127.3 138.3" style="enable-background:new 0 0 127.3 138.3;" xml:space="preserve">
<style type="text/css">
	.st0{fill:#FFFFFF;}
	.st1{fill:#C8301F;}
</style>
<g>
	<path class="st0" d="M112.5,93.2H87.9c1-6.3,1-13.8-1-23.7c-3.5-17.3-10-28.9-13.9-35.9c-0.3-0.4-0.8-1.4-1.2-2.2
		c0.1-0.2,0.2-0.4,0.3-0.6c4.4-5.3,5.8-12.5,3.5-18.8C73.1,5.4,67.3,0.7,60.4-0.2L60-0.2c-0.5-0.1-0.9-0.1-1.4-0.1h-0.5
		c-0.9,0-2.4,0.1-14.6,1.4c-3.3,0.4-13.9,1.5-15.4,1.7l0,0c-7,0.9-12.8,5.6-15.1,12.2c-2.2,6-1,12.8,2.9,18
		c-0.1,0.1-0.2,0.3-0.2,0.4l-0.2,0.3C11.7,40.6,5.1,52.3,1.6,69.5C-1.8,86.7,0.9,96.8,4,105.7c0.1,0.2,0.2,0.5,0.2,0.7
		c2.1,5.8,4.7,9.9,6.3,12.4c0.1,0.2,0.2,0.4,0.3,0.6c2.1,6.8,7.2,12.2,14,14.6c5.3,1.9,11.5,2.8,19.5,2.8c8,0,14.2-0.9,19.4-2.8
		c4.8-1.7,8.8-5,11.5-9.3c0.9,1.2,1.8,2.3,2.9,3.3c2.1,6.4,9.9,10.3,21.1,10.3c11.2,0,19-3.9,21.1-10.3c4.4-4.1,7-9.8,7-16v-4
		C127.3,99.9,120.7,93.2,112.5,93.2z M80.6,114.5L80.6,114.5c0.8,3.8,3.3,7,6.8,8.7v0C84,121.5,81.4,118.3,80.6,114.5z M99.2,129
		c-6.8,0-12.3-2-12.3-4.5v0C86.8,127,92.4,129,99.2,129c6.8,0,12.3-2,12.3-4.5v0C111.5,127,106,129,99.2,129z M118,112
		c0,4.9-2.9,9.2-7.1,11.2v0C115.1,121.2,118,116.9,118,112L118,112z"/>
	<g>
		<path class="st1" d="M77.8,71.3c-3.2-15.8-9-26.2-12.9-33.2c-1.1-2-2.6-4.6-2.9-5.6c0-2.6,1.7-6.2,2.5-7.3
			c2.7-2.9,3.5-6.7,2.3-10.2c-1.2-3.3-4.1-5.7-7.6-6.1l-0.5-0.1h-0.5c-0.9,0-7.1,0.6-13.6,1.3c-7.4,0.8-15.1,1.6-15.2,1.6
			c-3.5,0.4-6.4,2.8-7.6,6.1c-1.3,3.5-0.4,7.4,2.4,10.3l0.2,0.2c1.2,1.3,2.1,2.3,2.1,4c-0.3,1-1.7,3.5-2.9,5.6
			c-3.9,6.9-9.8,17.4-12.9,33.2c-3,15-0.9,23.2,2.1,31.6c0,0.1,0.1,0.2,0.1,0.3c1.7,4.8,3.9,8.3,5.4,10.7c0.4,0.6,0.9,1.4,1.1,1.8
			c1,4.4,4.2,8.1,8.5,9.6c4.3,1.5,9.4,2.2,16.3,2.2c6.9,0,12.1-0.7,16.3-2.2c4.3-1.5,7.5-5.2,8.5-9.6c0.2-0.4,0.7-1.2,1.1-1.8
			c1.5-2.4,3.7-5.9,5.4-10.7C78.6,94.7,80.9,86.5,77.8,71.3z M57.9,115.4c-2.6,0.9-6.5,1.8-13.6,1.8c-7.1,0-11.1-0.9-13.6-1.8
			c-1.7-0.6-3-2.1-3.4-3.8c5.1,1.6,10.9,2.5,17,2.5c5.3,0,10.4-0.7,15-1.9c0.7-0.2,1.4-0.3,2-0.5C60.8,113.3,59.6,114.8,57.9,115.4z
			 M59.3,98.1C59.3,98.1,59.3,98.1,59.3,98.1c-0.6,1.8-2.1,3.1-3.9,3.6c-3.3,0.9-7.2,1.3-11.1,1.3c-5.2,0-10-0.8-13.9-2.2
			c-0.2-0.5-0.4-0.9-0.6-1.4c0,0,0,0,0,0l0,0c0.2-0.1,0.4-0.2,0.6-0.3c13.2-5,23.9-14.5,29.8-26.6c0,0,0,0,0,0.1c0,0,0,0,0,0
			c0.1,0.4,0.2,0.8,0.2,1.3c0.1,0.5,0.2,1,0.3,1.6C63.2,87.1,61.4,92.2,59.3,98.1z"/>
		<path class="st1" d="M112.5,102.5H85.8c-3,0-5.5,2.5-5.5,5.5v4c0,4.9,2.9,9.2,7.1,11.2c-0.3,0.4-0.6,0.8-0.6,1.3
			c0,2.5,5.5,4.5,12.3,4.5c6.8,0,12.3-2,12.3-4.5c0-0.5-0.2-0.9-0.6-1.3c4.2-2,7.1-6.3,7.1-11.2v-4C118,105,115.6,102.5,112.5,102.5
			z"/>
	</g>
</g>
</svg>
