<?xml version="1.0" encoding="utf-8"?>
<!-- Generator: Adobe Illustrator 22.1.0, SVG Export Plug-In . SVG Version: 6.00 Build 0)  -->
<svg version="1.1" id="レイヤー_1" xmlns="http://www.w3.org/2000/svg" xmlns:xlink="http://www.w3.org/1999/xlink" x="0px"
	 y="0px" viewBox="0 0 131.8 134.9" style="enable-background:new 0 0 131.8 134.9;" xml:space="preserve">
<style type="text/css">
	.st0{fill:#FFFFFF;}
	.st1{fill:#C8301F;}
</style>
<g>
	<path class="st0" d="M131.8,53.9V44c0-4.6-3.4-8.5-7.8-9.2c3.1-1.7,5.4-4.8,5.8-8.6l1.6-13.8c0.4-3.2-0.6-6.3-2.7-8.7
		c-2.1-2.4-5.2-3.7-8.3-3.7c0,0,0,0,0,0c-0.8,0-1.6,0.1-2.3,0.2C105,3,88,4.4,65.9,4.4C43.8,4.4,26.8,3,13.8,0.2
		C13,0.1,12.2,0,11.5,0C8.3,0,5.2,1.4,3.1,3.7C1,6.1,0,9.3,0.4,12.5L2,26.2c0.4,3.8,2.7,6.9,5.8,8.6C3.4,35.5,0,39.3,0,44v9.9
		c0,5.1,4.2,9.3,9.3,9.3h2.5l-1.5,30.3c-5,2.8-8.4,8.1-8.4,14.3V123c0,6.6,5.3,11.9,11.9,11.9h23.1c6.6,0,11.9-5.3,11.9-11.9v-15.3
		c0-5.4-2.5-10.1-6.5-13.1l1.1-31.5h45.3l1.1,31.5c-4,3-6.5,7.7-6.5,13.1V123c0,6.6,5.3,11.9,11.9,11.9h23.1
		c6.6,0,11.9-5.3,11.9-11.9v-15.3c0-6.1-3.4-11.5-8.4-14.3l-1.5-30.3h2.5C127.6,63.1,131.8,59,131.8,53.9z M17.7,107.1
		c-0.3,0.3-0.5,0.7-0.5,1.1v0C17.2,107.8,17.4,107.4,17.7,107.1z M11.2,25.2c0.1,0.5,0.3,0.9,0.6,1.2C11.5,26,11.2,25.6,11.2,25.2z
		 M33.2,108.3L33.2,108.3c0-0.4-0.2-0.8-0.4-1.1C33,107.4,33.2,107.8,33.2,108.3z M54.6,44c0-0.1,0-0.1,0-0.2
		C54.6,43.8,54.6,43.9,54.6,44L54.6,44z M72.6,23.5H58.3v0L72.6,23.5l0.9,0L72.6,23.5z M98.6,108.3L98.6,108.3c0-0.2,0-0.4,0.1-0.6
		C98.6,107.8,98.6,108,98.6,108.3z M114.1,107.1c0.3,0.3,0.5,0.7,0.5,1.1v0C114.6,107.8,114.4,107.4,114.1,107.1z M77.2,43.9
		c0.2-0.4,0.2-0.8,0.3-1.2C77.4,43.2,77.3,43.6,77.2,43.9L77.2,43.9z M120,26.3c0.3-0.3,0.6-0.7,0.6-1.2
		C120.6,25.6,120.3,26,120,26.3z M122,10.3c-0.1-0.2-0.2-0.3-0.3-0.4C121.8,10,121.9,10.1,122,10.3z M122.2,11.4
		c0-0.3,0-0.6-0.1-0.9C122.2,10.8,122.3,11.1,122.2,11.4z M120.3,9.3c0.1,0,0.2,0,0.3,0.1c-0.2,0-0.5-0.1-0.7,0
		C120.1,9.3,120.2,9.3,120.3,9.3z M121.4,9.7c-0.1-0.1-0.3-0.2-0.4-0.2C121.1,9.5,121.3,9.6,121.4,9.7z M11.9,9.3
		c-0.2-0.1-0.5,0-0.7,0c0.1,0,0.2-0.1,0.3-0.1C11.6,9.3,11.7,9.3,11.9,9.3z M10.8,9.4c-0.2,0.1-0.3,0.1-0.4,0.2
		C10.5,9.6,10.7,9.5,10.8,9.4z M10.1,9.8C10,10,9.9,10.1,9.8,10.3C9.9,10.1,10,10,10.1,9.8z M9.7,10.5c-0.1,0.3-0.1,0.6-0.1,0.9
		C9.6,11.1,9.6,10.8,9.7,10.5z M11.1,123c0,0.7,0.3,1.4,0.8,1.8C11.3,124.4,11.1,123.7,11.1,123z M38.6,124.8
		c0.5-0.5,0.8-1.1,0.8-1.8C39.3,123.7,39.1,124.4,38.6,124.8z M34.3,53.9l-1.7,46.9L34.3,53.9l63.3,0l1.7,46.9l-1.7-46.9H34.3z
		 M92.4,123c0,0.7,0.3,1.4,0.8,1.8C92.7,124.4,92.4,123.7,92.4,123z M120,124.8c0.5-0.5,0.8-1.1,0.8-1.8
		C120.7,123.7,120.4,124.4,120,124.8z"/>
	<g>
		<path class="st1" d="M122.5,53.9V44H111c-0.7,0-1.2-0.5-1.3-1.2l-0.7-12H97.2l-0.5,0v0h0l0.5,11.9c0,0.7-0.5,1.3-1.3,1.3H82.2
			l-5,0c0.2-0.4,0.2-0.8,0.3-1.2l0.9-13.8l0.1-1l0.1-1h18h12.3h9.8c1,0,1.8-0.7,1.9-1.7l1.6-13.8c0.1-1.3-1-2.3-2.3-2.1
			c-15.3,3.3-34,4.3-54.1,4.3c-20.1,0-38.7-1.1-54-4.3c-1.3-0.3-2.4,0.8-2.3,2.1l1.6,13.8c0.1,0.9,0.9,1.7,1.9,1.7h9.8h12.3h18
			l0.1,1l0.1,1l0.9,13.8c0,0.4,0.1,0.7,0.2,1c0,0.1,0,0.1,0,0.2H35.9c-0.7,0-1.3-0.6-1.3-1.3l0.5-11.4l0-0.5h0l0,0H22.8l-0.7,12
			c0,0.7-0.6,1.2-1.3,1.2H9.3v9.9H21l0.5,0l-2.4,46.8h-1c-3.9,0-7,3.2-7,7V123c0,1.4,1.2,2.6,2.6,2.6h23.1c1.4,0,2.6-1.2,2.6-2.6
			v-15.3c0-3.8-3-6.9-6.7-7l1.7-46.9h63.3l1.7,46.9c-3.7,0.1-6.7,3.2-6.7,7V123c0,1.4,1.2,2.6,2.6,2.6h23.1c1.4,0,2.6-1.2,2.6-2.6
			v-15.3c0-3.9-3.1-7-7-7h-1l-2.3-44.6l-0.1-2.2L122.5,53.9L122.5,53.9z M114.6,119.6h-16h-0.1v-11.4c0-0.8,0.7-1.5,1.5-1.6
			c0,0,0.1,0,0.1,0h12.1h0.7c0.9,0,1.6,0.7,1.6,1.6V119.6z M73.5,23.5l-0.2,3.4l-0.1,1h0l-0.1,1l-0.8,12.7H59.5l-0.8-12.7l-0.1-1
			l-0.1-1l-0.2-3.4h14.3L73.5,23.5z M33.2,119.6h-16h-0.1v-11.4c0-0.9,0.7-1.6,1.6-1.6h0.7h12.1c0,0,0.1,0,0.1,0
			c0.8,0,1.5,0.7,1.5,1.6L33.2,119.6L33.2,119.6z"/>
	</g>
</g>
</svg>
