<?xml version="1.0" encoding="utf-8"?>
<!-- Generator: Adobe Illustrator 22.1.0, SVG Export Plug-In . SVG Version: 6.00 Build 0)  -->
<svg version="1.1" id="レイヤー_1" xmlns="http://www.w3.org/2000/svg" xmlns:xlink="http://www.w3.org/1999/xlink" x="0px"
	 y="0px" viewBox="0 0 142.8 245.8" style="enable-background:new 0 0 142.8 245.8;" xml:space="preserve">
<style type="text/css">
	.st0{opacity:0.3;fill:#0E0E0E;}
	.st1{fill:#FFFFFF;}
	.st2{opacity:0.2;}
	.st3{fill:#161716;}
	.st4{fill:#0E0E0E;}
	.st5{fill:#D72014;}
	.st6{opacity:0.2;fill:#161716;}
	.st7{opacity:0.3;fill:#FFFFFF;}
</style>
<g>
	<path class="st0" d="M39.1,12c0,0-9.6,1.5-8.4,7.2c1.2,5.7,24.4,4.5,24.4,4.5s24.2,19.3,21.3,61.2c0,0-8.1,46.7-6.5,62.8
		c0,0.2,0,0.5,0.1,0.7c-9.2,0.8-32.5,3.6-20.9,11.2c0,0-11.8,2,15.8,16.4c-1.1,3.7-1.8,7.4-1.9,11.3c-0.7,14.1-0.7,40.1,7.6,45.4
		c11.6,7.4,20.9-3.9,20.9-3.9l13.6-21.6c3.9-6.2,6.3-13.2,7.1-20.4c0.3-2.3,0.5-4.9,0.8-7.7c0,0,31.4,4.9,29.8-13.3
		c-1.6-18.2-27.1-13.6-27.1-13.6c0.8-8.5,1.4-16,1.6-19.9c0.4-13-14.1-80.5-54.2-114.5c0,0-28.6-25.6-37.1-15.4
		C25.9,2.4,23.1,9.9,39.1,12z"/>
	<path class="st1" d="M47.8,153c0,0-38.7,2.1-24.3,11.5c0,0-12.7,2.2,19,18l3.9-12.6L47.8,153z"/>
	<path class="st1" d="M90,157.1c0,0,25.5-4.6,27.1,13.6c1.6,18.2-29.8,13.3-29.8,13.3L90,157.1z"/>
	<g class="st2">
		<path class="st3" d="M33.1,170c-5.9-5.2-12.1-2.4-12.1-2.4c-0.8-2.5,2.4-3,2.4-3c-0.4-0.3-0.8-0.6-1.2-0.8
			C30,164.1,33.1,170,33.1,170z"/>
		<path class="st3" d="M40.9,159.4c-3.7-2.5-10.2-2.9-15.7-2.8c7.9-2.8,22.5-3.6,22.5-3.6L46.4,170l-3.9,12.6
			c-1.8-0.9-3.5-1.8-5-2.6C42.4,166.4,40.9,159.4,40.9,159.4z"/>
		<path class="st3" d="M90,157.1c0,0,25.5-4.6,27.1,13.6c0.3,3.7-0.7,6.4-2.6,8.5c1.3-3.6,0.2-6,0.2-6c-8.1,4.7-13.5-2-13.5-2
			c9.2,4.1,14-3,14-3c-5.9-13.2-22.8-8.1-22.8-8.1l-1.5,24.3c-2.2-0.2-3.6-0.4-3.6-0.4L90,157.1z"/>
	</g>
	<path class="st1" d="M13.5,17c0,0-9.6,1.5-8.4,7.2c1.2,5.7,24.4,4.5,24.4,4.5s24.2,19.3,21.3,61.2c0,0-8.1,46.7-6.5,62.8
		c1,9.9-1.6,19.1-3.8,24.8c-1.8,4.8-2.9,9.7-3.1,14.8c-0.7,14.1-0.7,40.1,7.6,45.4c11.6,7.4,20.9-3.9,20.9-3.9l13.6-21.6
		c3.9-6.2,6.3-13.2,7.1-20.4c1.8-16.1,4.8-45.3,5.1-54.5c0.4-13-14.1-80.5-54.2-114.5c0,0-28.6-25.6-37.1-15.4
		C0.3,7.3-2.5,14.9,13.5,17z"/>
	<g>
		<path class="st4" d="M52,137.6c0,0,6.7-8.5,13.9-1.6c4.8,4.6,2.7,10.2,0.7,13.5c-0.8,1.3-1.2,2.9-0.7,4.4
			c0.7,1.9,0.2,5.6-7.1,11.5c0,0-7.3,6.4-2.4,10.5c4.3,3.6-3.6,11.9-18.4,10.3c0.5-3,1.3-6,2.4-8.9c2.1-5.7,4.7-14.9,3.8-24.8
			c-0.3-3.2-0.2-7.7,0.1-12.8C46.4,140.1,49,139.7,52,137.6z"/>
		<path class="st4" d="M77.2,107.2c-0.8-2.1-2.3-3.8-4-5.2c-7-6.1-4.6-12.7-3.9-18.8c0.8-6.9-2.9-8.5-2.9-8.5
			c-9.1-10.8-6-16.5-2.2-19.3c13.2,22.1,21,46.5,24.7,63.3C81.6,115.5,78.5,110.5,77.2,107.2z"/>
		<path class="st4" d="M73.6,207.5c2.8-8.6-3.9-6-3.9-6s-4.5,2.6-4.4-2.7c0.1-5.2,6.6-4.7,6.6-4.7s7.5,0.2,7.5,5.5
			c0,2.2,1.9,3.5,4,4.3c-1.1,2.9-2.4,5.6-4.1,8.3l-3.4,5.4C74,215.2,72.2,211.8,73.6,207.5z"/>
	</g>
	<path class="st4" d="M69.2,115.5c1.3,1,3.2,0.7,4.2-0.7c1-1.3,0.7-3.2-0.7-4.2c-1.3-1-3.2-0.7-4.2,0.7
		C67.5,112.6,67.8,114.5,69.2,115.5z"/>
	<path class="st4" d="M70.6,123c0,0,8.7-2.5,6.9,3.8c-1.2,4.2-7.5,2.1-11.8-0.2c-3.1-1.7-4.6-5.6-3-8.8c0.5-1,1.3-1.7,2.4-1.8
		c4-0.4,0.6,4.2,0.6,4.2S64.5,123.6,70.6,123z"/>
	<g>
		<path class="st5" d="M72.9,177.4c-7.6-3.7-7.1-9.1-7.1-9.1c-0.2-9.3,8.6-11.8,8.6-11.8s4.6-2,2.4-6.4c-2.1-4.4,0.9-7.5,0.9-7.5
			c2.8-5.8,9-4.4,13.7-2.2c-0.7,11.5-3.4,36.7-5,51.3c-0.3,2.4-0.8,4.8-1.4,7.1C69.9,192.7,72.9,177.4,72.9,177.4z"/>
		<path class="st5" d="M54,65.8c-0.3,20.3,7.2,19.8,7.2,19.8s5.6,2.5-1.5,10.6c-0.7,0.7-1,1.7-0.8,2.7c0.8,5.2,2.1,22.3-13.8,31.4
			c1.9-18.9,5.6-40.5,5.6-40.5c1-14.6-1.2-26.5-4.6-35.7C50.4,53.6,54.2,56,54,65.8z"/>
		<path class="st5" d="M37.3,193.2c2.4,0.7,5.3,2.2,8.6,5.2c0,0,4.9,2.9,8.4-2.7c3.4-5.7,8.4-2.7,6.3,1.8c-2.1,4.5,1.6,7.8,4.6,9.9
			c3.1,2.1,6.8,5.2,3.3,9c-2.9,3.2-3.6,8.8,0.4,12.3l-3.1,5c0,0-9.3,11.3-20.9,3.9C36.8,232.4,36.6,207.5,37.3,193.2z"/>
	</g>
	<polygon class="st4" points="41.1,232.7 34.5,239.4 43.8,236.2 	"/>
	<polygon class="st4" points="62.8,236.5 63.6,246.1 58.3,239.1 	"/>
	<path class="st4" d="M39.9,226.1c0.3,1.2,1.2,2,1.9,1.8c0.7-0.2,1-1.3,0.7-2.5c-0.3-1.2-1.2-2-1.9-1.8S39.5,224.9,39.9,226.1z"/>
	<path class="st4" d="M56.3,226.6c-0.6,1.1-0.5,2.3,0.2,2.6c0.7,0.4,1.7-0.2,2.2-1.3c0.6-1.1,0.5-2.3-0.2-2.6
		C57.8,225,56.8,225.6,56.3,226.6z"/>
	<path class="st4" d="M45.6,235.8c0.1,0.5,0.5,0.8,0.8,0.7s0.4-0.6,0.3-1.1c-0.1-0.5-0.5-0.8-0.8-0.7
		C45.5,234.8,45.4,235.3,45.6,235.8z"/>
	<path class="st4" d="M52.5,236c-0.2,0.5-0.2,1,0.1,1.1c0.3,0.1,0.7-0.1,1-0.6c0.2-0.5,0.2-1-0.1-1.1
		C53.2,235.3,52.7,235.6,52.5,236z"/>
	<g class="st2">
		<path class="st3" d="M80.2,196.1c0,0-0.7-5.7,2.2-57.4c2.9-51.6-45-116-45-116c40,34,54.6,101.5,54.2,114.5
			c-0.3,9.2-3.4,38.3-5.1,54.5c-0.8,7.3-3.2,14.2-7.1,20.4l-13.6,21.6c0,0-2.8,3.4-7.3,5.2C77.2,215.8,80.2,196.1,80.2,196.1z"/>
		<path class="st3" d="M29.7,24.4c0,0,9,7.4,10.6,17.6C34.9,33,29.4,28.6,29.4,28.6s-12,0.6-19.1-1.2C16.8,27.6,24.8,27.1,29.7,24.4
			z"/>
	</g>
	<path class="st6" d="M0.3,7.3c0,0-3.5,7,13.2,9.6C32,19.8,23.7,20,23.7,20s9.2,0.4-4.5-5.2c-3-1.3-6.2-1.8-9.5-2.1
		C6.9,12.5,3,11.4,0.3,7.3z"/>
	<path class="st7" d="M49.8,229.4c0,0-4.1-28.8,5.2-55.5c9.2-26.7,15.3-52.1-6.3-109.9c0,0,15.7,75.1,0.8,104.6
		c-3.3,6.6-5.9,13.6-6.3,21C42.5,198.9,43.7,212.2,49.8,229.4z"/>
</g>
</svg>
