<?xml version="1.0" encoding="utf-8"?>
<!-- Generator: Adobe Illustrator 22.1.0, SVG Export Plug-In . SVG Version: 6.00 Build 0)  -->
<svg version="1.1" id="レイヤー_1" xmlns="http://www.w3.org/2000/svg" xmlns:xlink="http://www.w3.org/1999/xlink" x="0px"
	 y="0px" viewBox="0 0 133.9 241.9" style="enable-background:new 0 0 133.9 241.9;" xml:space="preserve">
<style type="text/css">
	.st0{opacity:0.3;fill:#0E0E0E;}
	.st1{fill:#FFFFFF;}
	.st2{opacity:0.2;}
	.st3{fill:#161716;}
	.st4{fill:#0E0E0E;}
	.st5{opacity:0.2;fill:#161716;}
	.st6{opacity:0.3;fill:#FFFFFF;}
</style>
<g>
	<path class="st0" d="M22.2,69.5c1.1,18.2,26.6,14.4,26.6,14.4c-1.1,8.5-1.9,15.9-2.2,19.8c-0.8,12.9,11.7,80.6,50.5,115.6
		c0,0,27.7,26.4,36.5,16.4c0,0,3-7.4-12.8-10c0,0,9.6-1.2,8.6-6.9c-1-5.7-24.1-5.2-24.1-5.2s-23.5-19.9-19.3-61.6
		c0,0,9.4-46.3,8.3-62.3c0-0.2,0-0.5,0-0.7c9.2-0.5,32.5-2.6,21.1-10.6c0,0,11.8-1.7-15.3-16.8c1.2-3.6,2-7.4,2.3-11.2
		c1.1-14,1.9-39.9-6.2-45.5C84.8-2.7,75.2,8.3,75.2,8.3L61,29.4c-4,6-6.7,12.9-7.7,20.1c-0.3,2.3-0.7,4.9-1.1,7.6
		C52.3,57.1,21.1,51.4,22.2,69.5z"/>
	<path class="st1" d="M0,73.5c1.1,18.2,26.6,14.4,26.6,14.4c-1.1,8.5-1.9,15.9-2.2,19.8c-0.8,12.9,11.7,80.6,50.5,115.6
		c0,0,27.7,26.4,36.5,16.4c0,0,3-7.4-12.8-10c0,0,9.6-1.2,8.6-6.9c-1-5.7-24.1-5.2-24.1-5.2S59.6,197.7,63.8,156
		c0,0,9.4-46.3,8.3-62.3c0-0.2,0-0.5,0-0.7c9.2-0.5,32.5-2.6,21.1-10.6c0,0,11.8-1.7-15.3-16.8c1.2-3.6,2-7.4,2.3-11.2
		c1.1-14,1.9-39.9-6.2-45.5C62.6,1.3,53,12.2,53,12.2L38.8,33.4c-4,6-6.7,12.9-7.7,20.1c-0.3,2.3-0.7,4.9-1.1,7.6
		C30.1,61.1-1,55.3,0,73.5z"/>
	<g class="st2">
		<path class="st3" d="M83.7,76.7c5.7,5.4,12,2.8,12,2.8c0.7,2.5-2.5,3-2.5,3c0.4,0.3,0.8,0.6,1.1,0.9
			C86.6,82.7,83.7,76.7,83.7,76.7z"/>
		<path class="st3" d="M75.6,87c3.6,2.6,10,3.2,15.5,3.2c-8,2.5-22.5,2.9-22.5,2.9l1.9-16.8l4.3-12.4c1.8,1,3.4,1.9,4.9,2.7
			C74.3,80,75.6,87,75.6,87z"/>
		<path class="st3" d="M26.6,87.8c0,0-25.5,3.8-26.6-14.4c-0.2-3.7,0.9-6.4,2.8-8.4c-1.4,3.5-0.3,6-0.3,6c8.2-4.5,13.4,2.4,13.4,2.4
			c-9.1-4.3-14,2.6-14,2.6c5.5,13.3,22.4,8.8,22.4,8.8l2.2-24.2c2.2,0.2,3.6,0.5,3.6,0.5L26.6,87.8z"/>
	</g>
	<polygon class="st4" points="77.6,14 84.3,7.5 75,10.4 	"/>
	<polygon class="st4" points="56.1,9.5 55.6,0 60.7,7.1 	"/>
	<path class="st4" d="M78.6,20.6c-0.3-1.2-1.1-2-1.9-1.8C76,19,75.7,20.1,76,21.3c0.3,1.2,1.1,2,1.9,1.8
		C78.6,22.9,78.9,21.8,78.6,20.6z"/>
	<g class="st2">
		<path class="st3" d="M37.6,49.3c0,0,0.6,5.7-3.9,57.1S75,223.2,75,223.2c-38.9-35.1-51.3-102.7-50.5-115.6
			c0.6-9.2,4.5-38.1,6.7-54.1c1-7.2,3.6-14.1,7.7-20.1L53,12.2c0,0,2.9-3.3,7.4-5C41.2,29.7,37.6,49.3,37.6,49.3z"/>
		<path class="st3" d="M82.7,221.8c0,0-8.7-7.6-10-17.9c5.1,9.2,10.4,13.7,10.4,13.7s11.9-0.2,19,1.7
			C95.7,219,87.7,219.2,82.7,221.8z"/>
	</g>
	<path class="st5" d="M111.5,239.6c0,0,3.7-6.9-12.8-10c-18.3-3.4-10.1-3.3-10.1-3.3s-9.1-0.7,4.3,5.3c3,1.3,6.2,2,9.4,2.3
		C105.1,234.3,109,235.5,111.5,239.6z"/>
	<g>
		<path class="st4" d="M58.9,170c-3.8,4.8,1.3,9.4,3.8,14c2.5,4.6-0.3,4.9-0.3,4.9c-6.3-1.4-5,4.7-5,4.7c3.5,6.9,7.2,4.1,7.2,4.1
			c2.3,3.7,5.1,4.6,7.2,4.7c-5.3-10.2-10.1-25.5-8-46.3c0,0,0.6-2.7,1.4-7C50.7,157.6,58.9,170,58.9,170z"/>
		<path class="st4" d="M66,144.3c2.2-11.8,5.2-30,6-42.4c-5,3.2-11.8,9.4-12.2,19.8C59.2,132.8,63.3,140.5,66,144.3z"/>
		<path class="st4" d="M53,12.2L38.8,33.4c-4,6-6.7,12.9-7.7,20.1c-2.2,16-6.1,44.7-6.7,54c9.3,4.9,16.7-6,16.7-6
			c12.1-1.3,5.7-8.1,5.7-8.1s-3.3-3.5-1.9-6.1c2.8-5.3,6.7-3.2,6.7-3.2s4.8,4.2,9,0.8c0.1-0.1,0.2-0.1,0.3-0.2
			c3-2.6,3.4-6.9,1.7-10.5c-0.7-1.4-1.2-3.7-0.7-7.2c1-8.1,8.7-9.9,8.7-9.9s9.7-2.5,9.9-7.3c0,0,0,0,0,0c0.3-6.6-6.2-6.8-6.2-6.8
			s-5.8,0.9-5.5-2.7c0.3-3.6,4.7-3.7,4.7-3.7c4.6-2.7,1.6-6.7,1.6-6.7c-5.6-1.8-5-8.7-5-8.7c0.2-1.8,3.2-4.8,7-8.1
			c-0.9-1.7-1.9-3.1-3.2-4C62.6,1.3,53,12.2,53,12.2z M57.9,44.6c8.3,2.6-0.2,13.1-3.5,16.8c-0.7,0.7-0.8,1.8-0.4,2.7
			c1.5,3,3.5,10-7.3,10.9c0,0-4.4,6.7-7.3,0.7c-2.2-4.6,5-10.7,8.5-13.3c1-0.8,1.7-2,1.6-3.3C49.4,54.1,49.9,42.1,57.9,44.6z"/>
	</g>
	<path class="st1" d="M58,15c0.6-1.1,0.6-2.2-0.1-2.6c-0.7-0.4-1.7,0.2-2.3,1.3c-0.6,1.1-0.6,2.2,0.1,2.6C56.4,16.6,57.4,16,58,15z"
		/>
	<path class="st1" d="M73.3,10.8c-0.1-0.5-0.5-0.8-0.8-0.8s-0.5,0.6-0.3,1.1c0.1,0.5,0.5,0.8,0.8,0.8S73.4,11.3,73.3,10.8z"/>
	<path class="st1" d="M66.4,10.3c0.3-0.5,0.2-0.9,0-1.1c-0.3-0.2-0.7,0.1-1,0.5c-0.3,0.5-0.2,0.9,0,1.1C65.7,11,66.1,10.8,66.4,10.3
		z"/>
	<path class="st6" d="M68.8,17c0,0,3.2,28.8-6.8,55.2c-10,26.4-16.8,51.4,3,109.6c0,0-13.4-75.3,2.4-104.2
		c3.5-6.5,6.3-13.4,6.9-20.7C75.2,47.6,74.4,34.3,68.8,17z"/>
</g>
</svg>
