<?xml version="1.0" encoding="utf-8"?>
<!-- Generator: Adobe Illustrator 22.1.0, SVG Export Plug-In . SVG Version: 6.00 Build 0)  -->
<svg version="1.1" id="レイヤー_1" xmlns="http://www.w3.org/2000/svg" xmlns:xlink="http://www.w3.org/1999/xlink" x="0px"
	 y="0px" viewBox="0 0 168.8 179.7" style="enable-background:new 0 0 168.8 179.7;" xml:space="preserve">
<style type="text/css">
	.st0{fill:#FFFFFF;}
</style>
<g>
	<path class="st0" d="M103.6,59.3c0.4,0,0.9,0,1.3,0c4.1-0.5,8,0,11.5,2.3c0.4,0.2,0.7,0.5,1.1,0.8c2.7,2.5,2.8,4.5,0.5,7.3
		c-2,2.5-4.5,4.5-7.3,6.1c-0.5,0.3-0.9,0.6-1.4,1.2c0.4,0,0.9,0,1.3,0c5.8-0.7,11.7-1.4,17.5-2c5.6-0.6,11.2-0.4,16.7,0.4
		c4.2,0.6,8.2,1.5,11.8,3.8c2.8,1.8,4.5,4.4,6.3,7.1c1.8,2.6,2.1,5.5,2,8.5c-0.1,1.4-0.7,2.6-1.7,3.6c-0.2,0.2-0.6,0.2-0.9,0.3
		c-0.3,0.1-0.7,0.3-0.9,0.5c-1.8,1.6-3.7,3.2-6,4.2c-0.5,0.2-1,0.4-1.7,0.4c0.3-0.5,0.5-0.9,0.8-1.4c2.8-3.7,1.8-8.2-2.9-10.9
		c-2.6-1.4-5.3-1.9-8.1-2.3c-3.7-0.5-7.4-0.4-11.1-0.1c-3.2,0.3-6.5,0.3-9.7,0.7c-3.2,0.3-6.3,0.9-9.5,1.5c-6.4,1.1-12.7,2.9-19,4.8
		c-4.3,1.3-8.6,2.8-12.9,4.2c-0.8,0.3-1.6,0.7-2.2,1.2c-2.7,2.5-5.4,5.1-7.9,7.7c-0.9,1-1.8,2.1-2.1,3.8c0.7-0.3,1.3-0.5,1.8-0.7
		c3.7-1.7,7.4-3.6,11.1-5.2c6.8-2.8,13.8-4.6,21-5.7c3.1-0.5,6.1-0.6,9.1,0.4c3.9,1.3,5.7,4.2,6.4,7.9c0.3,1.7,0.3,3.5,0.3,5.3
		c0,0.9,0.6,1.1,1.3,1.3c1.4,0.3,2.8,0.5,4.2,1.1c3.8,1.5,7.4,3.2,9.8,6.8c1.6,2.3,3.4,4.6,3.5,7.5c0.1,2.2,0,4.4-0.4,6.5
		c-0.7,4.3-1.9,8.5-4,12.3c-0.7,1.3-1.5,2.5-2.3,3.6c-0.3,0.4-0.9,0.6-1.3,0.9c-0.3,0.2-0.5,0.5-0.8,0.8c-3.2,3.3-6.4,6.6-9.7,9.9
		c-0.8,0.8-2,1.4-2.9,2c-0.3-0.7-0.6-1.3-1-2.1c-0.8,0.4-1.6,0.7-2.3,1.2c-1.6,1.1-3.5,2.2-5.4,2c-2.1-0.2-3,1.1-4.4,1.9
		c-0.4,0.2-0.7,0.4-1.2,0.6c0-0.4,0-0.5,0-0.7c-2.8,0.2-4.9,1.8-7.2,3.2c0-1.7-0.9-2.2-2.4-1.6c-1.5,0.6-3.1,1-4.7,1.6
		c-1.3,0.5-2.5,1.1-3.8,1.5c-1.6,0.6-3.2,1.5-5,1.6c-0.9,0-1.8,0.8-2.6,1.3c-0.7,0.4-1.4,0.8-2.1,1.2c-0.1-0.1-0.1-0.2-0.2-0.3
		c0.1-0.2,0.1-0.4,0.2-0.5c4.3-3.7,8.7-7.4,13-11c5.5-4.6,11.2-9,16.7-13.6c4.7-3.9,8.4-8.7,11.6-13.8c1.1-1.7,2.5-3.2,2.8-5.3
		c0.2-1.2,0.2-2.5,0-3.7c-0.1-0.6-0.7-1.3-1.3-1.6c-0.9-0.5-1.8-0.9-2.8-1.2c-0.6-0.2-1.2-0.2-1.5,0.5c-2,3.7-5,6.6-8,9.4
		c-3,2.7-6.2,5.2-9.4,7.7c-0.5,0.4-1.3,0.5-1.9,0.8c0-0.6,0-1.1,0.1-1.5c-0.5,0.1-1.1,0-1.6,0.2c-2.8,1.4-5.6,2.9-8.5,4.3
		c-1.1,0.5-2.2,0.8-3.4,1.2c-2.4,0.7-4.7,1.3-7.1,1.9c-0.1,0-0.2,0.1-0.3,0.1c-1.9-0.1-3.8-0.1-5.6-0.6c-1.1-0.3-2.1-1.1-3.3-0.7
		c-0.1,0-0.4-0.2-0.5-0.4c-0.1-0.3-0.3-0.7-0.2-1c0.1-2.7,0.3-5.6,1.9-7.8c1.2-1.7,2-3.9,3.9-5.1c0.2-0.2,0.4-0.4,0.6-0.7
		c1-1.3,2-2.7,2.9-4c1.8-2.7,4.5-4.4,7.1-6.1c4.2-2.7,8.8-4.4,13.4-6.2c2.5-0.9,5-1.7,7.5-2.5c0.3-0.1,0.6-0.2,0.9-0.4
		c0-0.1,0-0.3-0.1-0.4c-1.6,0.1-3.2,0.1-4.8,0.4c-4.2,0.8-8.4,1.7-12.5,2.9c-3.5,1-6.9,2.5-10.4,3.9c-4.2,1.7-8,4.1-11.7,6.7
		c-4.7,3.3-9.7,6.1-14.6,9.2c-2.4,1.6-4.8,3.3-7.1,5.1c-0.8,0.6-1.4,1.6-2.2,2.3c-1.3,1.2-2.9,1.5-4.7,1.1c-3.1-0.9-5.2-2.8-6.1-5.9
		c-0.3-1.1-0.7-2.1-0.1-3.2c0,0,0-0.1,0-0.1c-0.6-2.4,1.4-2.7,2.7-3.6c1.4-0.9,2.6-2,3.9-3c3.1-2.4,6.3-4.7,9.3-7.3
		c3.8-3.2,7.6-6.6,11.3-10c2.8-2.5,5.4-5.2,8.1-7.8c0.3-0.3,0.5-0.6,0.8-0.9c-0.1-0.1-0.1-0.2-0.2-0.3c-0.5,0.3-1.1,0.6-1.6,0.8
		c-2.4,0.9-4.8,1.9-7.1,2.8c-4.3,1.7-8.6,3.4-12.9,5.2c-1.7,0.7-3.3,1.7-5,2.5c-2.3,1.1-4.6,2-6.9,3.1c-1.2,0.6-2.3,1.3-3.5,2
		c-4,2.2-8,3.5-12.5,1.2c-2.1-1.1-4.2-1.9-6.2-3c-1.5-0.9-2.9-2-3.6-3.8c-0.3-0.8-1.1-1.5-1.7-2.1c-2.1-2-2.4-4.4-1.9-7.1
		c0.2-0.8,0.4-1.5,0.5-2.3c0.6-2.9,2.8-3.7,5.2-3.4c3.2,0.5,6.3,0.2,9.4-0.5c2.7-0.6,5.4-1.2,8.1-1.8c4.3-0.9,8.5-2.4,12.6-3.9
		c7.8-3,15.5-6,23.4-8.9c4-1.5,8.1-2.5,12.1-3.9c1.2-0.4,2.4-1,3.5-1.7c2-1.2,3.9-2.6,5.8-3.9c0.3-0.2,0.6-0.5,1-0.8
		c0-0.1-0.1-0.2-0.1-0.2c-0.4,0-0.8,0-1.1,0c-0.7,0.1-1.5,0.1-2.2,0.4c-2.2,0.9-4.5,0.2-6.7,0.1c-2.6-0.1-3.7-1.9-3.1-4.4
		c0.5-1.9,1.6-3.5,2.9-4.9c2.4-2.4,4.8-4.6,7.3-6.9c0.9-0.8,1.4-1.4,1.1-2.7c-0.2-0.6,0-1.4,0-2c0-1.5-0.2-1.7-1.6-1.2
		c-1.7,0.6-3.5,1.1-5.1,1.8c-3.2,1.4-6.5,2.8-9.5,4.5c-4.7,2.7-5.9,7-3.5,11.8c1.3,2.7,3,5.1,5.3,7.1c0.2,0.2,0.4,0.4,0.6,0.7
		c-0.1,0.1-0.1,0.2-0.2,0.3c-0.9-0.5-1.9-0.8-2.8-1.4c-3.4-2.2-6.2-5-7.7-8.8c-1.7-4.5-2.1-9.1,1-13.2c1.3-1.7,3.3-3.1,5.2-4.2
		c5.3-3.2,10.6-6.4,16.5-8.3c0.3-0.1,0.7-0.2,0.9-0.5c0.2-0.3,0.3-0.7,0.2-1c0-0.2-0.5-0.4-0.8-0.4c-0.6,0-1.2,0-1.7,0
		c-4.5,0.6-8.8-0.3-13.1-1.8c-2.2-0.8-4.5-1.4-6.2-3.1c-1.2-1.3-2.3-2.7-3.4-4.1c-0.2-0.3-0.3-0.7-0.5-1.1c-0.3-1-0.6-2-1-3
		c-0.6-1.5,0.3-2.7,1.8-3.1c3-0.9,5.9,0.2,8.8,0.3c4.8,0.3,9.4-0.6,13.9-2c0.7-0.2,1.1-0.6,1-1.5C78,18,77.8,11.4,76.6,5
		c-0.3-1.9-0.1-3.7,1.8-4.5c1.2-0.5,2.7-0.5,4-0.4c0.8,0,1.5,0.6,2.3,1c0.2,0.1,0.3,0.2,0.4,0.3c3.3,1.5,4.5,4.5,5.4,7.6
		c0.2,0.9,0.5,1.8,0.7,2.7c0.1,0.7,0,1.4,0,2.1c-0.1,1.8-0.3,3.7-0.2,5.5c0.1,1.5,0.5,1.6,1.8,1.1c2.3-1,4.6-2.1,7-2.9
		c2-0.7,4-1.4,6.1-0.8c3.9,1.1,6.4,3.6,7.3,7.7c0,0.2,0.1,0.4,0,0.6c-0.4,2.2-0.7,4.4-1.2,6.5c-0.1,0.3-0.6,0.6-0.9,0.6
		c-3.2,0.7-6.1,2.2-9,3.7c-1,0.6-2.1,1-3.2,1.4c-1.9,0.8-3.8,1.6-5.6,2.5c-0.4,0.2-0.6,0.7-0.9,1.1c0.4,0.2,0.7,0.5,1.1,0.5
		c2.3-0.1,4.6-0.4,6.9-0.4c3.4,0.1,6.9,0.5,9.6,2.8c3,2.6,3.5,7,0.6,9.7c-0.4,0.4-0.9,0.7-1.4,0.9c-1.4,0.5-2.5,1.3-3.5,2.5
		c-0.4,0.5-1,0.8-1.5,1.3c-0.3,0.3-0.6,0.6-1,0.8C103.6,59.1,103.6,59.2,103.6,59.3z M98.1,127.9c-0.1-0.1-0.1-0.3-0.2-0.4
		c-1,0.2-2,0.3-3,0.6c-2.5,0.5-4.9,1.3-7.5,0.8c-0.6-0.1-1.2,0.1-1.8,0.3c-3.7,1-7,2.7-10.1,5c-2.9,2.1-5.7,4.2-6.4,8.1
		c-0.2,1.3-0.3,2.6,0.4,3.5c0.3,0.5,1.7,0.1,2.7,0.1c0.2,0,0.5-0.1,0.7-0.2c2.4-1.1,5-2.1,7.3-3.5c6-3.6,11.5-7.9,16.5-12.7
		C97.2,129.1,97.6,128.5,98.1,127.9z"/>
	<path class="st0" d="M133,106.7c1.3-0.4,2.6-0.8,4-1.1c5.5-1.1,10.7-0.4,15.8,1.8c3.3,1.5,6.6,2.9,9.5,5.2c2.7,2.2,5.1,4.6,6.2,8.1
		c0.3,0.9,0.5,1.7,0,2.6c-0.2,0.3-0.2,0.8-0.2,1.2c0.3,1.7-0.5,3-1.2,4.3c-0.9,1.6-2.9,2.5-4.8,2.2c-0.6-0.1-1.3,0.1-1.9,0.2
		c-1.4,0.3-2.7,0.5-4.1,0.8c0,0-0.1-0.1,0-0.1c0.1-0.5,0.2-0.9,0.2-1.4c-0.5-0.1-1.1-0.3-1.5-0.1c-2,1-4.1,0-6.1,0.4
		c-1.6,0.3-3.3,0.7-4.9,1.2c-0.5,0.1-0.9,0.4-1.3,0.6c-0.1-0.1-0.2-0.2-0.2-0.3c0.3-0.5,0.5-1,0.9-1.4c1.8-2,3.6-3.9,5.3-5.8
		c1-1.1,1.9-2.2,2.9-3.3c0.5-0.5,0.5-1,0-1.5c-1.9-1.9-3.9-3.7-5.7-5.6c-1.5-1.6-3.2-2.8-5.2-3.7c-0.8-0.4-1.5-1.1-2.3-1.5
		c-1.3-0.7-2.6-1.2-3.9-1.8c-0.5-0.2-1-0.5-1.5-0.7C133,106.9,133,106.8,133,106.7z"/>
</g>
</svg>
