<svg version="1.1" xmlns="http://www.w3.org/2000/svg" xmlns:xlink="http://www.w3.org/1999/xlink" width="45px" height="45px" x="0px"
	 y="0px" viewBox="0 0 45 45" style="enable-background:new 0 0 45 45;" xml:space="preserve">
<g>
	<g>
		<path class="st0" d="M45.5,0.2c-0.2-0.2-0.6-0.3-0.9-0.1l-7.2,3.6c-0.4,0.2-0.5,0.6-0.3,1s0.6,0.5,1,0.3l3.1-1.5L9.2,35.4l-5.4,1
			c-0.4,0.1-0.7,0.5-0.6,0.9c0.1,0.4,0.5,0.7,0.9,0.6l3.2-0.6L6,38.7l-5.4,1c-0.4,0.1-0.7,0.5-0.6,0.9c0.1,0.4,0.5,0.7,0.9,0.6
			l3.2-0.6l-1,1c-0.3,0.3-0.3,0.8,0,1.1c0.1,0.1,0.3,0.2,0.5,0.2s0.4-0.1,0.5-0.2l1-1l-0.6,3.2c-0.1,0.4,0.2,0.8,0.6,0.9
			c0,0,0.1,0,0.1,0c0.4,0,0.7-0.3,0.7-0.6l1-5.4l1.3-1.3l-0.6,3.2C7.7,42,8,42.4,8.4,42.5c0,0,0.1,0,0.1,0c0.4,0,0.7-0.3,0.7-0.6
			l1-5.4L42.2,4.6l-1.5,3.1c-0.2,0.4,0,0.8,0.3,1c0.1,0.1,0.2,0.1,0.3,0.1c0.3,0,0.5-0.2,0.7-0.4l3.6-7.2
			C45.8,0.8,45.7,0.4,45.5,0.2z"/>
		<path class="st0" d="M45.1,39.7l-5.4-1l-1.3-1.3l3.2,0.6c0.4,0.1,0.8-0.2,0.9-0.6c0.1-0.4-0.2-0.8-0.6-0.9l-5.4-1L4.6,3.5L7.6,5
			c0.4,0.2,0.8,0,1-0.3c0.2-0.4,0-0.8-0.3-1L1.1,0.1C0.8-0.1,0.4,0,0.2,0.2C0,0.4-0.1,0.8,0.1,1.1l3.6,7.2c0.1,0.3,0.4,0.4,0.7,0.4
			c0.1,0,0.2,0,0.3-0.1C5.1,8.4,5.2,8,5,7.6L3.5,4.6l31.9,31.9l1,5.4c0.1,0.4,0.4,0.6,0.7,0.6c0,0,0.1,0,0.1,0
			c0.4-0.1,0.7-0.5,0.6-0.9l-0.6-3.2l1.3,1.3l1,5.4c0.1,0.4,0.4,0.6,0.7,0.6c0,0,0.1,0,0.1,0c0.4-0.1,0.7-0.5,0.6-0.9l-0.6-3.2l1,1
			c0.1,0.1,0.3,0.2,0.5,0.2s0.4-0.1,0.5-0.2c0.3-0.3,0.3-0.8,0-1.1l-1-1l3.2,0.6c0.4,0.1,0.8-0.2,0.9-0.6
			C45.8,40.1,45.5,39.8,45.1,39.7z"/>
	</g>
	<path class="st1" d="M15,9c-4.3,0-8,3-8.8,7.2l0,0.1C6,16.7,5.9,17.3,5.9,18c0,4.3,4.4,9,8.1,12.3c3.9,3.4,7.9,5.9,8.9,6.5
		c1.1-0.5,5-3,8.9-6.5c3.7-3.2,8.1-8,8.1-12.3c0-0.7-0.1-1.3-0.2-1.9l0-0.1C38.7,12,35,9,30.8,9c-2.8,0-5.5,1.3-7.2,3.6l-0.7,0.9
		l-0.7-0.9C20.5,10.3,17.8,9,15,9z"/>
</g>
</svg>
