<?xml version="1.0" encoding="utf-8"?>
<!-- Generator: Adobe Illustrator 22.1.0, SVG Export Plug-In . SVG Version: 6.00 Build 0)  -->
<svg version="1.1" id="レイヤー_1" xmlns="http://www.w3.org/2000/svg" xmlns:xlink="http://www.w3.org/1999/xlink" width="301" height="91" x="0px"
	 y="0px" viewBox="0 0 301 91" style="enable-background:new 0 0 301 91;" xml:space="preserve">
<style type="text/css">
	.st0{fill:#F7F7F7;}
</style>
<path class="st0" d="M266.9,49c0.2,0,0.6,0,0.6,0.4s-0.3,0.5-0.4,0.5c-0.2,0-0.5-0.2-0.5-0.4C266.5,49.3,266.7,49,266.9,49
	 M246,34.1c0,0.2-0.3,0.5-0.5,0.4c-0.2,0-0.4-0.1-0.5-0.5c0-0.4,0.4-0.4,0.6-0.4C245.9,33.7,246.1,33.9,246,34.1 M282.5,42.3
	c0.1,0.5-0.2,0.7-0.5,0.8s-0.7-0.2-0.8-0.5c-0.1-0.3,0.1-0.7,0.4-0.8C281.9,41.8,282.4,41.8,282.5,42.3 M248,42.8
	c-0.1,0.3-0.4,0.6-0.8,0.5c-0.2-0.1-0.5-0.3-0.5-0.8c0.1-0.5,0.6-0.5,0.9-0.5C247.9,42.1,248.1,42.5,248,42.8 M266.6,56.6
	c0-0.2,0.1-0.5,0.4-0.5c0.2,0,0.6,0,0.6,0.4s-0.3,0.5-0.4,0.5C266.8,57.1,266.6,56.8,266.6,56.6 M247.3,34.5c-0.2,0-0.4-0.1-0.5-0.5
	c0-0.4,0.4-0.4,0.6-0.4c0.2,0,0.4,0.3,0.4,0.5S247.5,34.5,247.3,34.5 M269.2,45.6c0.2,0,0.6,0,0.6,0.4s-0.3,0.5-0.4,0.5
	c-0.2,0-0.5-0.2-0.5-0.4C268.8,45.9,269,45.7,269.2,45.6 M268.5,48.3c-0.2,0-0.5-0.2-0.5-0.4s0.1-0.5,0.4-0.5c0.2,0,0.6,0,0.6,0.4
	C268.9,48.2,268.7,48.3,268.5,48.3 M267.8,59c-0.2,0-0.5-0.2-0.5-0.4s0.1-0.5,0.4-0.5c0.2,0,0.6,0,0.6,0.4
	C268.2,58.9,267.9,59,267.8,59 M268.7,42.1c0.2,0,0.6,0,0.6,0.4S269,43,268.9,43c-0.2,0-0.5-0.2-0.5-0.4
	C268.3,42.4,268.5,42.1,268.7,42.1 M269.9,44.2c0,0.4-0.3,0.5-0.4,0.5c-0.2,0-0.5-0.2-0.5-0.4s0.1-0.5,0.4-0.5
	C269.5,43.8,269.9,43.9,269.9,44.2 M261.3,47.9c0,0.2-0.3,0.5-0.5,0.4c-0.2,0-0.4-0.1-0.5-0.5c0-0.4,0.4-0.4,0.6-0.4
	C261.2,47.4,261.3,47.7,261.3,47.9 M211.6,30.8c0.2,0,0.3,0.3,0.2,0.5s-0.3,0.4-0.5,0.3s-0.4-0.2-0.3-0.5
	C211.1,30.8,211.4,30.8,211.6,30.8 M213.3,51.1c-2-2.6-2.8-6.3-2.2-8c0.8,2,4.6,5.2,9,5.3c-0.4,1-2.1,2.2-4.4,1.6
	c1.2,2.2,5.1,4.6,7.7,4C219.9,56.2,215,53.4,213.3,51.1 M212.3,29.1c0.2,0,0.3,0.3,0.2,0.5s-0.3,0.4-0.5,0.3s-0.4-0.2-0.3-0.5
	C211.8,29,212.1,29,212.3,29.1 M261.7,59.1c-0.2,0-0.4-0.1-0.5-0.5c0-0.4,0.4-0.4,0.6-0.4s0.4,0.3,0.4,0.5
	C262.1,58.8,261.9,59.1,261.7,59.1 M243.7,33.9c-0.2,0-0.4-0.1-0.5-0.5c0-0.4,0.4-0.4,0.6-0.4c0.2,0,0.4,0.3,0.4,0.5
	S244,33.9,243.7,33.9 M260,43.9c0.2,0,0.4,0.3,0.4,0.5s-0.3,0.5-0.5,0.4c-0.2,0-0.4-0.1-0.5-0.5C259.4,43.9,259.8,43.8,260,43.9
	 M260.4,43c-0.2,0-0.4-0.1-0.5-0.5c0-0.4,0.4-0.4,0.6-0.4s0.4,0.3,0.4,0.5S260.6,43.1,260.4,43 M262.3,57c-0.2,0-0.4-0.1-0.5-0.5
	c0-0.4,0.4-0.4,0.6-0.4s0.4,0.3,0.4,0.5S262.6,57.1,262.3,57 M259.9,46.6c-0.2,0-0.4-0.1-0.5-0.5c0-0.4,0.4-0.4,0.6-0.4
	s0.4,0.3,0.4,0.5C260.4,46.4,260.2,46.6,259.9,46.6 M262.4,49c0.2,0,0.4,0.3,0.4,0.5s-0.3,0.5-0.5,0.4c-0.2,0-0.4-0.1-0.5-0.5
	C261.8,49,262.2,49,262.4,49 M271.5,27.6c0.2-0.1,0.6,0,0.7,0.3c0.1,0.4-0.2,0.5-0.4,0.6c-0.2,0.1-0.5-0.2-0.6-0.4
	C271.1,27.9,271.3,27.6,271.5,27.6 M263.7,51.5c-0.2,0-0.4-0.1-0.5-0.5c0-0.4,0.4-0.4,0.6-0.4s0.4,0.3,0.4,0.5
	C264.2,51.2,263.9,51.5,263.7,51.5 M266.4,54.8c0,0.4-0.3,0.5-0.4,0.5c-0.2,0-0.5-0.2-0.5-0.4s0.1-0.5,0.4-0.5
	C266,54.4,266.4,54.4,266.4,54.8 M250.6,53.9c-0.2-0.1-0.5-0.3-0.5-0.8c0.1-0.5,0.6-0.5,0.9-0.5c0.3,0.1,0.5,0.5,0.4,0.8
	C251.3,53.7,250.9,54,250.6,53.9 M263.8,52.8c0-1.1,1.6-1.1,1.7,0C265.5,53.8,263.8,53.8,263.8,52.8 M259.9,60.7
	c-3.4,0.7-3.7-3.3-6.3-4.8c1.3-0.8,3.2,1,3.6,0.9c-1.3-2.7,0.8-5.3,4.2-3.3c-2.5,0.6-0.5,3.3-2.7,4.9
	C259.7,59,259.9,59.5,259.9,60.7 M230.9,54.4c0.3,0.2,0.3,0.7-0.1,0.8c-0.4,0.2-0.8-0.1-0.6-0.6C230.4,54.3,230.7,54.3,230.9,54.4
	 M211,32.7c0.2,0,0.3,0.3,0.2,0.5s-0.3,0.4-0.5,0.3c-0.2-0.1-0.4-0.2-0.3-0.5C210.4,32.7,210.8,32.7,211,32.7 M244.1,41.1
	c1.2-1.5,4.1-1,3.6,0.4c-3-0.2-1.2,3,0,3.7c4.1,2.3,9.7-2.2,10.9-4.3c0.2,1.3-1.5,3-2.7,4.3c2,0.3,2.3,3.9,0.9,4.9
	c-2,1.4-9.9,2.2-7.2,4.1c1.3,1,2.3,0.1,2.4-0.4c0.5,0.3,1,1,0.7,1.8c-0.6,1.9-4.6,1.6-6,0.4c-2.6-2.1-0.4-6.6,2.2-7.7
	C244.7,47.8,241.6,44.1,244.1,41.1 M222.1,60.3c-0.6-0.6-1.7-0.3-1.9-1.2c-0.6-2.6,3.4-3.9,5.4-5.1c-5.3-1.4-3.8-4.3-2.9-5.3
	c1.2-1.4,2-3.6,3.3-3.4c-0.7,2.9,0.2,5.7,2.7,6.3c-1.4-1.9-3.8-6.9-0.5-7.9c1.8-0.6,3.9-0.5,5.6,0.2c-1.6,1.4-4.2,4.5-3.3,7.1
	c2.4-2.1,2.3-8.2,7.1-6.7c1.3,0.4,0.8,1.1,1.8,2c1,1,2.3,1.5,2.2,3.2c-2.3,1.3-7.9,0.5-7.3,3.7c2-1.7,4.9-2.8,8.2-1.7
	c0.9,1.1,1,3.1-0.2,4.4c0.7,0.7,0.6,4-1.7,4.1c-2.5-0.1-4.2-1-6.1-3c0.8,2.6,3.3,3.8,6.5,4.2c-0.1,1.5-0.9,2.2-2.4,2.4
	c0.1,1.8-2.4,2.1-4,1.4c-2.5-1.1-3.1-5.2-2.9-6.7c-2.4,1.7,0,6.7,1.6,7.1c-2,0.8-5.3-0.4-6.3-1.4c-1.7-1.8-0.2-4.7,0.6-6.5
	c-2.4,0.9-3.3,2.9-2.9,5.1C222.9,62.9,222.9,61,222.1,60.3 M229.6,54.9c0,0.6-2.7,0.9-1.9,1.9c1,1.3,1.8-1.4,2.5-1.2
	c0.8,0.2-0.8,3.1,1.5,2.2c1.2-0.5-1.2-1.9-0.4-2.4c1.1-0.7,1.7,2.5,2.6,1c0.9-1.4-2.1-0.9-2.2-1.7c-0.1-0.8,2.9-0.5,1.6-1.8
	c-0.9-1-1.5,1.6-2.3,1.2c-0.8-0.4,1.2-2.6-0.6-2.4c-1.7,0.1,0.4,2-0.4,2.3c-1,0.5-1.6-2.1-2.7-0.9C226.3,54.5,229.6,53.9,229.6,54.9
	 M283.1,33.9c0-0.2,0.1-0.5,0.4-0.5c0.2,0,0.6,0,0.6,0.4s-0.3,0.5-0.4,0.5C283.4,34.4,283.2,34.1,283.1,33.9 M263.4,55.3
	c-0.2,0-0.4-0.1-0.5-0.5c0-0.4,0.4-0.4,0.6-0.4s0.4,0.3,0.4,0.5S263.7,55.4,263.4,55.3 M268,53.5c3.4-2.1,5.6,0.5,4.3,3.2
	c0.4,0,2.4-1.7,3.6-1c-2.6,1.5-2.9,5.5-6.3,4.9c-0.1-1.1,0.2-1.7,1.1-2.2C268.5,56.8,270.5,54.1,268,53.5 M281.7,33.4
	c0.2,0,0.6,0,0.6,0.4s-0.3,0.5-0.5,0.5s-0.5-0.2-0.5-0.4C281.3,33.7,281.5,33.4,281.7,33.4 M210.5,34.5c0.2,0,0.3,0.3,0.2,0.5
	s-0.3,0.4-0.5,0.3c-0.2,0-0.4-0.2-0.3-0.5C210,34.5,210.3,34.5,210.5,34.5 M279.2,52.9c0.1,0.5-0.2,0.7-0.5,0.8s-0.7-0.2-0.8-0.5
	c-0.1-0.3,0.1-0.7,0.4-0.8C278.6,52.4,279.1,52.4,279.2,52.9 M273.3,45c-1.2-1.2-2.9-3-2.7-4.2c1.2,2.1,6.8,6.6,11,4.2
	c1.2-0.7,3-3.9,0-3.7c-0.5-1.3,2.3-1.9,3.6-0.4c2.5,3-0.5,6.7-4.6,7.1c2.6,1.1,4.8,5.6,2.3,7.7c-1.4,1.2-5.4,1.5-6-0.4
	c-0.3-0.8,0.2-1.5,0.7-1.8c0.1,0.5,1,1.3,2.4,0.4c2.6-1.9-5.3-2.6-7.3-4C271,48.9,271.3,45.3,273.3,45 M260.6,27.7
	c0.2,0,0.4,0.3,0.3,0.5s-0.4,0.4-0.6,0.4c-0.2-0.1-0.4-0.2-0.4-0.6S260.3,27.6,260.6,27.7 M257.3,28.5c-0.2-0.1-0.4-0.2-0.4-0.6
	c0.1-0.4,0.4-0.4,0.7-0.3c0.2,0,0.3,0.3,0.3,0.5C257.8,28.4,257.5,28.6,257.3,28.5 M241.3,31.2c-0.2,0-0.4-0.1-0.5-0.5
	c0-0.4,0.4-0.4,0.6-0.4c0.2,0,0.4,0.3,0.4,0.5C241.8,31,241.6,31.2,241.3,31.2 M268.5,27.6c0.2-0.1,0.6,0,0.7,0.3
	c0.1,0.4-0.2,0.5-0.4,0.6c-0.2,0.1-0.5-0.2-0.6-0.4C268.1,28,268.3,27.7,268.5,27.6 M261.6,43.3c0.4-0.9,2.2-3.5,1-4.4
	c-0.8,1.1-1.2,2.5-3.3,2.5c3.1-3,0.7-5.8,3.3-8.3c-3.5,0.4-1.8,5.5-5.5,5.7c0.9-1,1-2.2,0.2-2.4c-0.9-0.2-0.6,1.4-1.1,2
	c-0.7,0.9-3.1,0.4-3.3,1.6c-0.2,1,0.9,1.1,0.7,1.8c-2.9-0.2-4.5-3-3.2-5.1c0.9-1.4,3.8-1.1,4-2.9c-1.4,0-1.9,0.9-3.6,0.6
	c0.2-3.4,5.8-1.9,5.5-5.7c-3.5-0.4-2.5,3.2-5.8,2.9c0.9-1.1,0.8-2.1,0.4-2.6c-1.5,2.4-3.8,1.8-3.3,4.1c-0.7-0.6-1.9-2-1.8-3.6
	c0.2-2.8,4.1-2.3,6-4c-0.7,0.3-2,0.3-2.7,0c0.4-2.9,5.9-1.2,6.7-3.7c-2.2-1.3-3.5,1.5-5.1,1.2c-0.2-0.7-0.1-1.5,0.4-2
	c-1.6,0.6-2.5,3.4-4.8,1.7c-3.7-2.7,5.4-8.9,14.4-6.4c-0.3,0.3-0.6,0.5-0.7,1c2.4,0.4,2.4,3.6,4.4,3.4l0,0c2.1,0.1,2-3.1,4.4-3.5
	c0-0.5-0.4-0.7-0.7-1c9-2.6,18.2,3.5,14.5,6.2c-2.3,1.7-3.3-1.1-4.9-1.6c0.5,0.6,0.7,1.4,0.5,2c-1.6,0.3-3-2.5-5.1-1.2
	c0.8,2.5,6.3,0.7,6.7,3.6c-0.7,0.3-2,0.3-2.7,0c2,1.6,5.9,1.1,6.1,3.9c0.1,1.6-1.2,2.9-1.8,3.6c0.4-2.3-1.9-1.6-3.4-4
	c-0.3,0.5-0.5,1.5,0.5,2.6c-3.3,0.3-2.4-3.3-5.8-2.8c-0.2,3.8,5.4,2.2,5.6,5.7c-1.7,0.3-2.1-0.6-3.6-0.6c0.2,1.8,3.1,1.4,4,2.8
	c1.4,2.1-0.2,4.9-3.1,5.1c-0.2-0.7,0.8-0.9,0.7-1.8c-0.3-1.3-2.6-0.7-3.4-1.6c-0.5-0.6-0.2-2.3-1.1-2c-0.8,0.2-0.7,1.4,0.2,2.4
	c-3.7-0.2-2.1-5.2-5.6-5.6c2.6,2.5,0.2,5.3,3.4,8.3c-2.1,0.1-2.6-1.3-3.4-2.4c-1.1,0.9,0.7,3.5,1.1,4.4c1.3,3-1.8,5.6-3,6.7l0,0
	C263.5,48.9,260.4,46.3,261.6,43.3 M248.6,20.7c-0.3-0.4-1-0.8-1.7-0.3c-0.7,0.6-0.5,1.1-0.3,1.4c0.3,0.4,1.1,0.4,1.6,0.1
	C248.7,21.7,248.9,21.1,248.6,20.7 M250.7,18.6c-0.3-0.3-0.9-0.7-1.4-0.2c-0.6,0.5-0.4,1-0.2,1.2c0.3,0.4,1,0.3,1.3,0.1
	C250.7,19.5,250.9,18.9,250.7,18.6 M252.7,17.5c-0.2-0.2-0.6-0.5-1-0.2c-0.4,0.4-0.3,0.7-0.2,0.9c0.2,0.3,0.7,0.2,1,0.1
	C252.8,18.2,252.9,17.8,252.7,17.5 M254.7,16.9c-0.1-0.1-0.4-0.3-0.7-0.1c-0.3,0.2-0.2,0.5-0.1,0.6c0.1,0.2,0.5,0.2,0.6,0.1
	C254.7,17.3,254.8,17,254.7,16.9 M280.7,21.8c0.4,0.2,1.3,0.3,1.6-0.1c0.2-0.3,0.4-0.9-0.3-1.4c-0.7-0.6-1.4-0.1-1.7,0.3
	C280,20.9,280.3,21.6,280.7,21.8 M278.6,19.5c0.4,0.2,1.1,0.2,1.3-0.1c0.2-0.3,0.4-0.8-0.2-1.2c-0.6-0.5-1.2-0.1-1.4,0.3
	C278,18.7,278.2,19.3,278.6,19.5 M276.4,18.2c0.3,0.2,0.8,0.2,1-0.1c0.1-0.2,0.3-0.6-0.2-0.9c-0.4-0.3-0.9,0-1,0.2
	C276,17.6,276.2,18,276.4,18.2 M274.4,17.3c0.2,0.1,0.5,0.1,0.6-0.1c0.1-0.1,0.2-0.4-0.1-0.6c-0.3-0.2-0.6,0-0.7,0.1
	C274.1,16.9,274.2,17.2,274.4,17.3 M247,30.8c0.2-3.9,8.5-3,9.6-6.4C255.6,26.7,245.5,26.6,247,30.8 M256.6,16.7
	c-0.1-0.1-0.3-0.2-0.5-0.1c-0.2,0.2-0.1,0.3-0.1,0.4c0.1,0.1,0.3,0.1,0.4,0C256.6,17,256.7,16.8,256.6,16.7 M272.8,16.5
	c-0.2-0.2-0.4,0-0.5,0.1s0,0.3,0.1,0.4s0.4,0.1,0.4,0C273,16.9,273,16.7,272.8,16.5 M282.1,30.6c1.4-4.2-8.7-4-9.7-6.2
	C273.6,27.7,281.9,26.7,282.1,30.6 M269.4,29c0.6-0.4,0.3-1.2,0.4-1.4c1,0,0.6,1.6,1.9,1.3c0.4-0.1,1.1-0.8,1-1.2
	c-0.2-0.8-1.9-0.4-2.3-1.2c0.8-0.2,2.3-0.1,2.2-0.8c0-0.5-0.8-0.5-1.6-0.4c0.3-0.3,0.4-1,0.1-1.8c-0.6,1.9-4,2.8-4.1,0.8
	c0.2,0.5,1.3,0.4,1.8,0.2c0.7-0.4,1-1.2,0.2-1.6c-1.6,2-4.1,0.4-4.6-1.4c-0.5,1.8-3,3.5-4.6,1.5c-0.8,0.4-0.4,1.3,0.2,1.6
	c0.5,0.2,1.6,0.2,1.8-0.2c-0.1,2-3.4,1.1-4.1-0.7c-0.3,0.7-0.2,1.5,0.1,1.8c-0.7-0.1-1.5-0.1-1.6,0.4c0,0.8,1.4,0.6,2.2,0.8
	c-0.4,0.7-2.1,0.4-2.3,1.2c-0.1,0.4,0.7,1.1,1.1,1.2c1.4,0.3,0.9-1.3,1.9-1.3c0.1,0.2-0.2,1,0.4,1.4c0.7,0.5,1.2,0,1.6-0.4
	c0.6-0.8-0.3-1.3-0.9-1.6c1.7-0.8,2.6-2.4,3.8-3.7c0.5,1.3-0.5,2.2-0.2,3.7c0.1,0.6,0.6,2.1,0.6,2.2c0,0,0.5-1.5,0.6-2.2
	c0.2-1.6-0.7-2.4-0.2-3.7c1.2,1.3,2.1,2.8,3.8,3.6c-0.6,0.3-1.5,0.9-0.9,1.6C268.2,29,268.7,29.5,269.4,29 M263.5,31.4
	c1-0.1-0.1,1.3,0.2,2c0.1,0.3,0.5,0.5,0.8,0.6c0.3-0.1,0.7-0.2,0.8-0.6c0.3-0.7-0.8-2.1,0.2-2c0.6,0.1,0.8,1.1,1.8,0.8
	c0.7-0.2,1.2-1.3,0.2-2c-0.9-0.5-1.9,1.1-2.2,0.2c-0.3-0.9,2.6-0.4,2.1-1.5c-0.4-0.9-1.2-1.2-1.8-1c-0.5,0.2-0.1,1.4-1.1,1.3
	c-1.1,0.1-0.7-1.1-1.2-1.3c-0.5-0.3-1.4,0.1-1.8,1c-0.5,1.1,2.3,0.6,2.1,1.5c-0.3,1-1.3-0.7-2.2-0.1c-1,0.7-0.6,1.8,0.2,2
	C262.7,32.6,262.8,31.5,263.5,31.4 M292.4,29.6c-4.7-0.7-5.7-8,0.4-8.1c-1,1.2,0.4,2.6-1.7,3.1c1.6,0.3,1.5,1.1,2.2,1.3
	c2.1,0.7,5-4.5,7.5-4.9v5.5C297.9,27.7,297,30.3,292.4,29.6 M296.1,18.9c-2.3,0.1-3.5-2.1-5.4-1.8c0.8,1.4,3.5,1.1,3.1,3.6
	c-1.7-0.9-3,0.2-4.5-1c-1.6-1.3-0.3-3-2.1-4.1c1.9,0.3,5-0.6,3.8-3c2.4-0.9,1.2-3.9,0-4.2c1.7-0.7,3.4,0.1,4,1.4
	c0.1-1.1-1.1-2.2-2.5-2.4c-1.6-0.2-2,0.8-2.9,0.2c1-2.3,7.1-3.5,7.4,0.2c2.7,0.4,1.9,3.3,3.5,4.6v1.1c-0.5,0.2-1.3,0.2-1.7-0.1
	c0.3,0.6,0.9,0.9,1.7,1.1v1.6c-0.2,0-0.4,0-0.6,0C299,17.5,298.1,18.8,296.1,18.9 M290.6,21c0,0.4-0.3,0.5-0.4,0.5
	c-0.2,0-0.5-0.2-0.5-0.4c0-0.2,0.1-0.5,0.4-0.5C290.2,20.6,290.6,20.7,290.6,21 M298.7,40.8c1.3-1.5-0.7-1.9-0.2-3.6
	c-1.5,0.2-1.5,1.9-2.7,2.9c-2.6,2.2-7.4,2.5-10.3,0.5c-2.5-1.8-1.7-8,2.9-6.1c-1,2-2.1,0.8-2.7,1.8c-0.6,1.1,1.2,2,2.2,2
	c2,0.1,2.1-2.2,4-3.5c1.4-0.9,2.6-0.3,2.9-1.6c-2.2,1.2-2.8-0.8-4.9-0.4c0.8-2.3,3.4-2.6,6.5-2.3c1.9,0.2,3.4-0.3,4.4-1.3v1.6
	c-3.1,3.7-7.1,6.6-11,8.7c4.9-2,8.5-4.8,10.9-7.6c0,0,0.1-0.1,0.1-0.2v8.5C300.2,40.6,299.5,40.9,298.7,40.8 M299.8,54.5
	c0-0.4,0.5-0.6,1.1-0.7v1.4C300.4,55,299.8,54.8,299.8,54.5 M296.2,65.1c1.6-0.4,3.9-5.5,1.5-7.1c0.2,1.4-0.3,5.6-2.9,6.7
	c-1.6,0.7-4.1,0.4-4-1.4c-1.5-0.2-2.4-1-2.5-2.4c3.2-0.5,5.7-1.6,6.4-4.3c-1.9,2.1-3.6,3-6,3.1c-2.3-0.1-2.5-3.4-1.8-4.1
	c-1.2-1.3-1.1-3.3-0.2-4.4c3.3-1.2,6.3-0.1,8.3,1.6c0.5-3.2-5.1-2.4-7.4-3.6c-0.1-1.8,1.2-2.2,2.2-3.3c0.9-0.9,0.5-1.6,1.8-2
	c4.8-1.6,4.8,4.5,7.2,6.7c0.9-2.6-1.7-5.7-3.4-7.1c1.6-0.7,3.7-0.8,5.5-0.3v7.4c-0.1,0.2-0.2,0.4-0.4,0.5c0.1,0,0.2-0.1,0.4-0.1v1.5
	c-0.5,0.4-1,1.4-1.7,1.1c-0.8-0.4,1.3-2.2-0.4-2.3c-1.8-0.1,0.2,2-0.6,2.4c-0.7,0.4-1.4-2.1-2.3-1.2c-1.2,1.4,1.7,1,1.6,1.8
	s-3,0.4-2.2,1.8c0.9,1.5,1.5-1.7,2.6-1c0.8,0.5-1.6,1.9-0.4,2.4c2.3,0.9,0.7-2,1.5-2.2c0.6-0.1,1.1,1.3,1.8,1.5v7.8
	C299.6,65.2,297.6,65.7,296.2,65.1 M298.1-2h2.6v3c-0.6-0.1-1.1-0.3-1.5-0.6C298.4-0.3,298-1.1,298.1-2 M298.3,0.3
	c0.1,0.4-0.2,0.5-0.4,0.6c-0.2,0.1-0.5-0.2-0.6-0.4s0.1-0.5,0.3-0.5C297.8-0.1,298.2-0.1,298.3,0.3 M300.6,1.8v0.6
	c-0.1-0.1-0.1-0.1-0.1-0.2S300.5,1.9,300.6,1.8 M299.6,1.5c0.1,0.4-0.2,0.5-0.4,0.6c-0.2,0.1-0.5-0.2-0.6-0.3
	c-0.1-0.2,0.1-0.5,0.3-0.5C299.2,1.1,299.6,1.1,299.6,1.5 M300.7,9.1v0.5c-0.3-0.1-0.6-0.2-0.8-0.3C300.1,9.2,300.4,9.2,300.7,9.1
	 M298.6,54.8c-0.4-0.2-0.4-0.6-0.1-0.8c0.1-0.1,0.5-0.1,0.7,0.3C299.4,54.7,299,55,298.6,54.8 M297.3-0.9c-0.2,0.1-0.5-0.2-0.6-0.3
	c-0.1-0.2,0.1-0.5,0.3-0.5c0.2,0,0.6,0,0.7,0.3C297.7-1.1,297.4-0.9,297.3-0.9 M241.1,27.7c-0.2,0-0.4-0.1-0.5-0.5
	c0-0.4,0.4-0.4,0.6-0.4c0.2,0,0.4,0.3,0.4,0.5C241.6,27.5,241.4,27.7,241.1,27.7 M297.8,72c-0.3,2.5-4.3,4.1,0,6.3
	c-6,1-5.5-5.5-3.4-8.1c-4.7,0.7-7.9,5.9-7.5,8.2c-1.3-1.8-0.5-4.4,1.1-5.7c-1.8,0.6-3.4,1.2-5.3,1.7c1.2,5.3-9.9,5.4-7,8.8
	c0.5,0.6,1.8,0.8,2.8,0.7c-0.2,2.3-3.6,2.5-4.7,1.6c-2-1.7-0.5-5.2,1.1-6.4c-2.9,1.5-9.6,7.7-6.5,11.6c-6.2-4.9,3.4-11.8,6.9-14.4
	c-2.3,0.2-5.2-0.3-6.2,1.3c-0.5,0.7,0.1,1.4,0.9,1.7c-3.2,0.6-4-3.5-2-4.1c-1.4-0.4-2.4-1.6-3.1-2.6c-0.6,1.1-1.7,2.2-3.1,2.7
	c2,0.6,1.3,4.7-2,4.1c0.8-0.3,1.3-1,0.9-1.7c-1.1-1.6-4-1-6.3-1.2c3.6,2.6,13.3,9.3,7.1,14.3c3.1-3.9-3.7-10-6.6-11.5
	c1.6,1.2,3.1,4.7,1.2,6.4c-1.1,0.9-4.5,0.8-4.7-1.5c1,0.1,2.3-0.2,2.8-0.8c2.9-3.5-8.3-3.5-7.1-8.7c-1.9-0.4-3.6-1.1-5.4-1.6
	c1.6,1.3,2.5,3.9,1.1,5.7c0.3-2.2-2.9-7.4-7.6-8.1c2.1,2.6,2.7,9.1-3.3,8.1c4.3-2.2,0.3-3.8,0-6.3c-0.1,1.4-1.5,2.6-3.3,3.1
	c1.9-3.1-3-4.6,1.5-6.9c-6.5-2.1-11.5-5.6-15.7-9.9c0.6,1.3-0.4,3.8-2.1,4.6c0.8-2.5-3-4.8,0.4-6.6c-2.7-3.9-4.1-7.8-4.8-11.5
	c-0.7,3.7-2.1,7.6-4.7,11.6c3.4,1.8-0.4,4.1,0.5,6.6c-1.8-0.8-2.8-3.3-2.2-4.6c-4.1,4.3-9.1,7.9-15.6,10.1c4.5,2.2-0.3,3.8,1.6,6.9
	c-1.8-0.5-3.2-1.6-3.3-3c-0.3,2.5-4.3,4.1,0,6.3c-6,1-5.5-5.5-3.4-8.1c-4.7,0.7-7.9,5.9-7.5,8.2c-1.3-1.8-0.5-4.4,1.1-5.7
	c-1.8,0.6-3.4,1.2-5.3,1.7c1.2,5.3-9.9,5.4-7,8.8c0.5,0.6,1.8,0.8,2.8,0.7c-0.2,2.3-3.6,2.5-4.7,1.6c-2-1.7-0.5-5.2,1.1-6.4
	c-2.9,1.5-9.6,7.7-6.5,11.6c-6.2-4.9,3.4-11.8,6.9-14.4c-2.3,0.2-5.2-0.3-6.2,1.3c-0.5,0.7,0.1,1.4,0.9,1.7c-3.2,0.6-4-3.5-2-4.1
	c-1.4-0.4-2.4-1.6-3.1-2.6c-0.6,1.1-1.7,2.2-3.1,2.7c2,0.6,1.3,4.7-2,4.1c0.8-0.3,1.3-1,0.9-1.7c-1.1-1.6-4-1-6.3-1.2
	c3.6,2.6,13.3,9.3,7.1,14.3c3.1-3.9-3.7-10-6.6-11.5c1.6,1.2,3.1,4.7,1.1,6.4c-1.1,0.9-4.5,0.8-4.7-1.5c1,0.1,2.3-0.2,2.8-0.8
	c2.9-3.5-8.3-3.5-7.1-8.7c-1.9-0.4-3.6-1.1-5.4-1.6c1.6,1.3,2.5,3.9,1.1,5.7c0.3-2.2-2.9-7.4-7.6-8.1c2.1,2.6,2.7,9.1-3.3,8.1
	c4.3-2.2,0.3-3.8,0-6.3c-0.1,1.4-1.5,2.6-3.3,3.1c1.9-3.1-3-4.6,1.5-6.9c-6.5-2.1-11.5-5.6-15.7-9.9c0.6,1.3-0.4,3.8-2.1,4.6
	c0.8-2.5-3-4.8,0.4-6.6c-3-4.4-4.5-8.8-5-12.8c-0.5,4.1-2,8.5-4.9,12.9c3.4,1.8-0.4,4.1,0.5,6.6c-1.8-0.8-2.8-3.3-2.2-4.6
	c-4.1,4.3-9.1,7.9-15.6,10.1c4.5,2.2-0.3,3.8,1.6,6.9c-1.8-0.5-3.2-1.6-3.3-3c-0.3,2.5-4.3,4.1,0,6.3c-6,1-5.5-5.5-3.4-8.1
	c-4.7,0.7-7.9,5.9-7.5,8.2c-1.3-1.8-0.5-4.4,1.1-5.7c-1.8,0.6-3.4,1.2-5.3,1.7c1.2,5.3-9.9,5.4-7,8.8c0.5,0.6,1.8,0.8,2.8,0.7
	c-0.2,2.3-3.6,2.5-4.7,1.6c-2-1.7-0.5-5.2,1.1-6.4c-2.9,1.5-9.6,7.7-6.5,11.6c-6.7-5.5,2.9-12.4,6.4-15c-2.3,0.2-5.2-0.3-6.2,1.3
	c-0.5,0.7,0.1,1.4,0.9,1.7c-3.2,0.6-4-3.5-2-4.1c-1.4-0.4-2.4-1.6-3.1-2.6c-0.6,1.1-1.7,2.2-3.1,2.7c2,0.6,1.3,4.7-2,4.1
	c0.8-0.3,1.3-1,0.9-1.7c-1.1-1.6-4-1-6.3-1.2c3.6,2.6,13.3,9.3,7.1,14.3c3.1-3.9-3.7-10-6.6-11.5c1.6,1.2,3.1,4.7,1.2,6.4
	c-1.1,0.9-4.5,0.8-4.7-1.5c1,0.1,2.3-0.2,2.8-0.8c2.9-3.5-8.3-3.5-7.1-8.7c-1.9-0.4-3.6-1.1-5.4-1.6c1.6,1.3,2.5,3.9,1.1,5.7
	c0.3-2.2-2.9-7.4-7.6-8.1C9.2,74.4,9.8,81,3.7,80c4.3-2.2,0.3-3.8,0-6.3c-0.1,1.4-1.4,2.5-3.3,3v-0.1c0.7-1.2,0.4-2.2,0-3v-2.8
	c0.3-0.3,0.8-0.7,1.5-1c-0.5-0.2-1-0.3-1.5-0.5v-1.8c1.8,0.5,3.7,0.9,5.5,1c5.7,0.5,9.9-0.7,10.7-5.1c2.4,2.6,1,4.9-1.1,5.7
	c3.2-0.1,5.2-3.4,3.1-5.9c1.3,0,2.1,0.5,2.2,1.6c2.5-2.2-0.9-1.6-1.3-3.8c-0.4-1.8-2.5-1.1-2.3,0c-0.7-1.6,0.9-2.5,2.4-2.4
	c3.2,0.1,5.4,3.9,4.5,7.5C23,70.8,13.9,71.7,8.4,70c3.6,1.9,7.8,5.3,13.2,4.2c-0.3-2.8,3.4-2.2,2.9-4.3c2.7,0.2,2.6,4.8,0,5.1
	c5,1.4,10.5-0.4,10.7-5.1c-2.8,0.4-3.7-3.4-6.5-2.8c-0.5,0.1-0.9,0.5-1.1,1c-3.1-1.5,1.2-4.1,3.1-3.1c0.3-1.1-1.6-1.6-2.6-1.7
	c2.5-1.2,4.5,0.8,4.4,1.9c2.3-0.8-1.9-2,0.2-4.5c0.1,1,0.9,2.5,2.7,2.6c-1.6-1.3-1-3.9,1.2-6l0,0l0,0c2.3,2.1,2.9,4.7,1.3,6
	c1.8-0.2,2.6-1.6,2.7-2.7c2.1,2.4-2.1,3.7,0.2,4.5c-0.1-1.1,1.9-3,4.4-1.9c-1,0.1-2.9,0.6-2.6,1.7c1.9-1,6.2,1.5,3.1,3
	c-0.2-0.5-0.6-0.9-1.1-1c-2.8-0.5-3.6,3.2-6.5,2.9c0.2,4.7,5.8,6.5,10.7,5c-2.6-0.2-2.7-4.8,0-5.1c-0.5,2.1,3.2,1.4,2.9,4.2
	c5.4,1.1,9.6-2.4,13.1-4.3c-5.5,1.7-14.6,1-15.9-3.8c-0.9-3.6,1.2-7.4,4.5-7.5c1.5-0.1,3.1,0.8,2.4,2.4c0.2-1.1-2-1.8-2.3,0
	c-0.4,2.3-3.7,1.7-1.3,3.9c0.1-1.1,0.9-1.6,2.2-1.6c-2.1,2.5-0.1,5.8,3.2,5.9c-2.1-0.7-3.5-3.1-1.1-5.7c0.8,4.4,5.1,5.6,10.7,5
	c10.1-1,20.3-7.7,23.5-18c6.3-19.8-7.4-29.3-11.1-31.6c-2.1,1.6-6.3,1.2-6.9-0.3c1.4-0.3,3.8-1.5,3.9-2.9c1.3,0.2,1.6-0.3,1.8-1
	c0.3-1-0.5-2.1-2.2-1.8c2.8-5.7,9,3.5,2.7,4.2c5,0.6,10.4-1.8,12.7-4.9c-4.6,0.8-3.9-5-7.4-3c-0.7,0.4-0.8,1.1-0.7,2.2
	c-4.2-1.5,0.5-7,4-3.9c0.7-1-0.5-2.1-1.5-2.7c3.1-0.5,2.8,2.1,4.5,3c0.8-1.1-1.9-3.4,0-5.1c1.5,0.7,0.3,3,1.8,3.2
	c0.3-1.5-0.6-4.5,1.1-5.2l0,0l0,0l0,0l0,0c1.7,0.7,0.8,3.7,1.2,5.2c1.5-0.3,0.3-2.6,1.8-3.3c1.9,1.6-0.8,4,0,5.1
	c1.6-0.9,1.3-3.6,4.4-3.1c-1,0.7-2.2,1.8-1.8,2.9c3.5-3.2,8.2,2.3,4,3.8c0.2-1.1,0.1-1.8-0.7-2.2c-3.5-2-2.7,3.8-7.3,3.1
	c2.3,3.1,7.8,5.5,12.8,4.8c-6.3-0.6-0.2-9.9,2.7-4.3c-1.7-0.3-2.6,0.8-2.2,1.8c0.2,0.6,0.6,1.2,1.8,1c0.1,1.4,2.5,2.6,3.9,2.9
	c-0.6,1.6-4.7,2-6.9,0.4c-3.6,2.4-17.2,12-10.7,31.7C99.8,60.5,110,67.1,120.2,68c5.7,0.5,9.9-0.7,10.7-5.1c2.4,2.6,1,4.9-1.1,5.7
	c3.2-0.1,5.2-3.4,3.1-5.9c1.3,0,2.1,0.5,2.2,1.6c2.5-2.2-0.9-1.6-1.3-3.8c-0.4-1.8-2.5-1.1-2.3,0c-0.7-1.6,0.9-2.5,2.4-2.4
	c3.2,0.1,5.4,3.9,4.5,7.5c-1.2,4.7-10.3,5.6-15.8,3.9c3.6,1.9,7.8,5.3,13.2,4.2c-0.3-2.8,3.4-2.2,2.9-4.3c2.7,0.2,2.6,4.8,0,5.1
	c5,1.4,10.5-0.4,10.7-5.1c-2.8,0.4-3.7-3.4-6.5-2.8c-0.5,0.1-0.9,0.5-1.1,1c-3.1-1.5,1.2-4.1,3.1-3.1c0.3-1.1-1.6-1.6-2.6-1.7
	c2.5-1.2,4.5,0.8,4.4,1.9c2.3-0.8-1.9-2,0.2-4.5c0.1,1,0.9,2.5,2.7,2.6c-1.6-1.3-1-3.9,1.2-6l0,0l0,0c2.3,2.1,2.9,4.7,1.3,6
	c1.8-0.2,2.6-1.6,2.7-2.7c2.1,2.4-2.1,3.7,0.2,4.5c0-1.1,1.9-3,4.4-1.9c-1,0.1-2.9,0.6-2.6,1.7c1.9-1,6.2,1.5,3.1,3
	c-0.2-0.5-0.6-0.9-1.1-1c-2.8-0.5-3.6,3.2-6.5,2.9c0.2,4.7,5.8,6.5,10.7,5c-2.6-0.2-2.7-4.8,0-5.1c-0.5,2.1,3.2,1.4,2.9,4.2
	c5.4,1.1,9.6-2.4,13.1-4.3c-5.5,1.7-14.6,1-15.9-3.8c-0.9-3.6,1.2-7.4,4.5-7.5c1.5-0.1,3.1,0.8,2.4,2.4c0.2-1.1-2-1.8-2.3,0
	c-0.4,2.3-3.7,1.7-1.3,3.9c0.1-1.1,0.9-1.6,2.2-1.6c-2.1,2.5-0.1,5.8,3.2,5.9c-2.1-0.7-3.5-3.1-1.1-5.7c0.8,4.4,5.1,5.6,10.7,5
	c10.1-1,20.3-7.7,23.5-18c6.3-19.8-7.4-29.3-11.1-31.6c-2.1,1.6-6.3,1.2-6.9-0.3c1.4-0.3,3.8-1.5,3.9-2.9c1.3,0.2,1.6-0.3,1.8-1
	c0.3-1-0.5-2.1-2.2-1.8c2.8-5.7,9,3.5,2.7,4.2c5,0.6,10.4-1.8,12.7-4.9c-4.6,0.8-3.9-5-7.4-3c-0.7,0.4-0.8,1.1-0.7,2.2
	c-4.2-1.5,0.5-7,4-3.9c0.4-1.1-0.8-2.1-1.8-2.8c3.1-0.5,2.8,2.1,4.5,3c0.8-1.1-1.9-3.4,0-5.1c1.5,0.7,0.3,3,1.8,3.2
	c0.3-1.3-0.4-3.9,0.7-4.9v-0.3c0.1,0,0.1,0.1,0.2,0.1c0.1,0,0.1-0.1,0.2-0.1v0.3c1.2,1,0.4,3.6,0.8,4.9c1.5-0.3,0.3-2.6,1.8-3.3
	c1.9,1.6-0.8,4,0,5.1c1.6-0.9,1.3-3.5,4.4-3.1c-1,0.7-2.2,1.8-1.8,2.9c3.5-3.2,8.2,2.3,4,3.8c0.2-1.1,0.1-1.8-0.7-2.2
	c-3.5-2-2.7,3.8-7.3,3.1c2.3,3.1,7.8,5.5,12.8,4.8c-6.3-0.6-0.2-9.9,2.7-4.3c-1.7-0.3-2.5,0.8-2.2,1.8c0.2,0.6,0.6,1.2,1.9,1
	c0.1,1.4,2.5,2.6,3.9,2.9c-0.6,1.6-4.7,2-6.9,0.4c-3.6,2.4-17.2,12-10.7,31.7c3.4,10.2,13.6,16.8,23.7,17.7
	c5.7,0.5,9.9-0.7,10.7-5.1c2.4,2.6,1,4.9-1.1,5.7c3.2-0.1,5.2-3.4,3.1-5.9c1.3,0,2.1,0.5,2.2,1.6c2.5-2.2-0.9-1.6-1.3-3.8
	c-0.4-1.8-2.5-1.1-2.3,0c-0.7-1.6,0.9-2.5,2.4-2.4c3.2,0.1,5.4,3.9,4.6,7.5c-1.2,4.8-10.3,5.6-15.8,3.9c3.6,1.9,7.8,5.3,13.2,4.2
	c-0.3-2.8,3.4-2.2,2.9-4.3c2.7,0.2,2.6,4.8,0,5.1c5,1.4,10.5-0.4,10.7-5.1c-2.8,0.4-3.7-3.4-6.5-2.8c-0.5,0.1-0.9,0.5-1.1,1
	c-3.1-1.5,1.2-4.1,3.1-3.1c0.3-1.1-1.6-1.6-2.6-1.7c2.5-1.2,4.5,0.8,4.4,1.9c2.3-0.8-1.9-2,0.2-4.5c0.1,1,0.9,2.5,2.7,2.6
	c-1.6-1.3-1-3.9,1.2-6l0,0l0,0c2.3,2.1,2.9,4.7,1.3,6c1.8-0.2,2.6-1.6,2.7-2.7c2.1,2.4-2.1,3.7,0.2,4.5c0-1.1,1.9-3,4.4-1.9
	c-1,0.1-2.9,0.6-2.6,1.7c1.9-1,6.2,1.5,3.1,3c-0.2-0.5-0.6-0.9-1.1-1c-2.8-0.5-3.6,3.2-6.5,2.9c0.2,4.7,5.8,6.5,10.7,5
	c-2.6-0.2-2.7-4.8,0-5.1c-0.5,2.1,3.2,1.4,2.9,4.2c5.4,1.1,9.6-2.4,13.1-4.3c-5.5,1.7-14.6,1-15.9-3.8c-0.9-3.6,1.2-7.4,4.5-7.5
	c1.5-0.1,3.1,0.8,2.4,2.4c0.2-1.1-2-1.8-2.3,0c-0.4,2.3-3.7,1.7-1.2,3.9c0.1-1.1,0.9-1.6,2.2-1.6c-2.1,2.5-0.1,5.8,3.2,5.9
	c-2.1-0.7-3.5-3.1-1.1-5.7c0.8,4.4,5.1,5.6,10.7,5c1.8-0.2,3.7-0.5,5.5-1.1v1.8c-0.5,0.2-1,0.4-1.5,0.5c0.7,0.3,1.2,0.7,1.5,1V72
	c-0.4,0.9-0.7,1.8,0,3l0,0C299.2,74.5,297.9,73.4,297.8,72 M104.2,18.4c-5-0.4-8-2.6-10.8-5c-2.7,2.5-5.7,4.8-10.7,5.2
	c1.7,1,8.1,5.3,8.5,2c0.1-0.7-0.7-1.1-1.6-0.8c1.1-1.8,3.8-1,3.8,0.4c0.1-1.5,2.7-2.2,3.8-0.5c-0.9-0.2-1.6,0.1-1.6,0.8
	C96.2,23.8,102.6,19.3,104.2,18.4 M96.8,27.1c-0.8,0.8-1.8-0.3-2.6,0.4c0.5-3.4,3.9-2.4,5.2-5.1c-3,1.1-5.8,0.2-5.9-2.2
	c-0.1,2.4-2.8,3.3-5.8,2.3c1.3,2.7,4.6,1.6,5.2,5c-0.8-0.7-1.8,0.4-2.6-0.4c1,1.4,2.6,4.8,3.3,9.4C94.2,32,95.7,28.5,96.8,27.1
	 M218.1,17.7c-4.9-0.3-7.9-2.5-10.6-4.9c-2.7,2.4-5.6,4.6-10.5,5c1.7,1,8.1,5.3,8.5,2c0.1-0.7-0.7-1.1-1.6-0.8c1-1.5,3-1.2,3.6-0.2
	c0.6-1,2.7-1.4,3.6,0.1c-0.9-0.2-1.6,0.1-1.6,0.8C210,23.1,216.4,18.7,218.1,17.7 M210.6,26.4c-0.8,0.8-1.8-0.3-2.6,0.4
	c0.5-3.4,3.9-2.4,5.2-5.1c-2.5,0.9-4.9,0.4-5.6-1.3c-0.7,1.7-3.1,2.2-5.6,1.3c1.3,2.7,4.6,1.6,5.2,5c-0.8-0.7-1.8,0.4-2.6-0.4
	c0.9,1.2,2.3,4.2,3.1,8.1C208.3,30.7,209.7,27.7,210.6,26.4 M243.4-0.7c-0.1-0.3-0.2-0.7-0.2-1h3.1c0.2,1.3,1.1,1.9,2,2.2
	C246.7,2.4,243.9,0.5,243.4-0.7 M238.4,21.3c0-0.4,0.4-0.4,0.6-0.4c0.2,0,0.4,0.3,0.4,0.5s-0.3,0.5-0.5,0.4
	C238.7,21.8,238.4,21.7,238.4,21.3 M259.9,5.9c0.8,0.3,1.4-0.1,1.6-0.4c3.2,3.3-6.4,4.9-4.5,0.2c-0.8-0.6-3.5,2.2-7.1,3.5
	c4.4,5.3-5.8,6.8-6,11.6c-1.6-0.5-2.8-1.8-2.7-3.2c0.2-3.1,6.8-3.4,6.4-7.1c-1.5,2.4-7.5,6.7-9.3,4.2c-0.4-0.6-0.2-1.4,0.1-2.1
	c-0.8-0.1-1.6-0.5-1.8-1.3c-0.6-2.6,5.1-3.9,9.1-3.4c-2.8-2.1-9.8,1.2-9-4.8c2.5,1.8,10.9-1.1,11.2,3.6c4.7-0.9,7.8-3.3,10-6.6
	c-0.7,0-1.8-0.8-2.1-1.8h7C261,0.6,257.6,5,259.9,5.9 M238.8,10.2c-0.4-0.1-1-0.1-1.1,0.6c-0.1,0.6,0.3,0.9,0.6,0.9
	c0.4,0.1,0.8-0.3,1-0.6C239.4,10.7,239.1,10.2,238.8,10.2 M240.1,13c-0.4-0.1-1-0.1-1.1,0.6c-0.1,0.6,0.3,0.9,0.6,0.9
	c0.4,0.1,0.8-0.3,1-0.6C240.7,13.6,240.4,13.1,240.1,13 M248.1-0.5c-0.7-0.3-0.8-0.7-0.9-1.2h3.6c0.5,0.2,1,0.2,1.3,0.2
	C251.4-0.3,249.5,0.1,248.1-0.5 M242.5,31.8c0.2,0,0.4,0.3,0.4,0.5s-0.3,0.5-0.5,0.4c-0.2,0-0.4-0.1-0.5-0.5
	C241.9,31.8,242.3,31.8,242.5,31.8 M265.1,14.6c3.1-0.3,2.2-4,5.3-4.3c0.3,1.1,0.2,1.9-0.4,2.6c2.4-0.4,2.2-4.1,5.3-3.1
	c-0.5,3.9-3.6,6.9-8.4,5.5c0.1,0.8,1.4,0.9,1.4,1.9c-1.9-0.4-2.1,3-3.8,3.1l0,0c-1.7-0.1-2-3.5-3.8-3.1c0-1,1.3-1,1.4-1.9
	c-4.9,1.4-8-1.6-8.5-5.4c3.2-1.1,3,2.7,5.4,3c-0.7-0.7-0.8-1.5-0.5-2.6c3.1,0.2,2.3,4,5.4,4.2c-1.1-0.7-2.1-2.7-1.4-3.8
	c1.7-2.7,1.8-7,1.9-8.2l0,0l0,0l0,0c0.2,1.1,0.3,5.5,2,8.1C267.1,11.9,266.2,13.9,265.1,14.6 M240,22.4c0-0.4,0.4-0.4,0.6-0.4
	c0.2,0,0.4,0.3,0.4,0.5s-0.3,0.5-0.5,0.4C240.3,22.9,240,22.8,240,22.4 M240.5,28.9c0-0.4,0.4-0.4,0.6-0.4c0.2,0,0.4,0.3,0.4,0.5
	s-0.3,0.5-0.5,0.4C240.7,29.4,240.5,29.3,240.5,28.9 M242.1,25.7c0,0.2-0.3,0.5-0.5,0.4c-0.2,0-0.4-0.1-0.5-0.5
	c0-0.4,0.4-0.4,0.6-0.4C242,25.2,242.2,25.5,242.1,25.7 M241.5,23.4c0.2,0,0.4,0.3,0.4,0.5s-0.3,0.5-0.5,0.4c-0.2,0-0.4-0.1-0.5-0.5
	C240.9,23.4,241.3,23.4,241.5,23.4 M280.6-0.7c-1.3,0.6-3.3,0.2-4-1c0.4,0.1,0.9,0,1.3-0.2h3.6C281.4-1.5,281.3-1,280.6-0.7
	 M288.4,21.7c0.2,0,0.6,0,0.6,0.4s-0.3,0.5-0.4,0.5c-0.2,0-0.5-0.2-0.5-0.4C288,22,288.2,21.7,288.4,21.7 M288.1,29.2
	c-0.2,0-0.5-0.2-0.5-0.4c0-0.2,0.1-0.5,0.4-0.5c0.2,0,0.6,0,0.6,0.4C288.6,29,288.3,29.1,288.1,29.2 M288.4,26.9
	c0,0.4-0.3,0.5-0.4,0.5c-0.2,0-0.5-0.2-0.5-0.4c0-0.2,0.1-0.5,0.4-0.5C288,26.5,288.4,26.6,288.4,26.9 M286.9,25.4
	c0-0.2,0.1-0.5,0.4-0.5c0.2,0,0.6,0,0.6,0.4s-0.3,0.5-0.4,0.5C287.2,25.9,286.9,25.6,286.9,25.4 M287.8,30.9c-0.2,0-0.5-0.2-0.5-0.4
	c0-0.2,0.1-0.5,0.4-0.5c0.2,0,0.6,0,0.6,0.4C288.2,30.8,288,30.9,287.8,30.9 M287.1,23.6c0-0.2,0.1-0.5,0.4-0.5c0.2,0,0.6,0,0.6,0.4
	s-0.3,0.5-0.4,0.5C287.4,24.1,287.2,23.8,287.1,23.6 M282.9,7.6c4-0.5,9.8,0.7,9.1,3.3c-0.2,0.8-1,1.2-1.8,1.3
	c0.4,0.7,0.6,1.5,0.1,2.1c-1.8,2.5-7.8-1.6-9.3-4.1c-0.4,3.7,6.2,4,6.5,7.1c0.1,1.4-1,2.7-2.7,3.3c-0.2-4.8-10.4-6.2-6.1-11.5
	c-3.6-1.2-6.4-4-7.2-3.4c2,4.6-7.6,3.2-4.5-0.2c0.2,0.3,0.8,0.7,1.6,0.4c2.4-0.9-1.2-5.3-3.2-7.6h7c-0.3,1-1.4,1.8-2.1,1.8
	c2.2,3.2,5.3,5.6,10.1,6.4c0.2-4.7,8.6-1.9,11.1-3.7C292.7,8.7,285.6,5.4,282.9,7.6 M290.6,11.4c0.3-0.1,0.7-0.3,0.6-0.9
	c-0.1-0.6-0.8-0.6-1.1-0.6c-0.4,0.1-0.6,0.6-0.5,0.9C289.8,11.1,290.2,11.5,290.6,11.4 M288.3,13.6c0.1,0.3,0.6,0.7,1,0.6
	c0.3-0.1,0.7-0.3,0.6-0.9c-0.1-0.6-0.8-0.6-1.1-0.5C288.4,12.8,288.2,13.3,288.3,13.6 M286.7,32.5c-0.2,0-0.5-0.2-0.5-0.4
	c0-0.2,0.1-0.5,0.4-0.5c0.2,0,0.6,0,0.6,0.4C287.2,32.3,286.9,32.4,286.7,32.5 M280.4,0.3c1-0.2,1.8-0.9,2-2.2h3.1
	c0,0.3-0.1,0.6-0.2,1C284.9,0.3,282.1,2.2,280.4,0.3 M285.2,32.7c0.2,0,0.6,0,0.6,0.4s-0.3,0.5-0.4,0.5c-0.2,0-0.5-0.2-0.5-0.4
	C284.8,33,285,32.8,285.2,32.7 M265.1,51c0-0.2,0.1-0.5,0.4-0.5c0.2,0,0.6,0,0.6,0.4s-0.3,0.5-0.4,0.5
	C265.4,51.5,265.2,51.2,265.1,51 M146.1,44.5c0.2,0,0.4,0.3,0.4,0.5s-0.3,0.5-0.5,0.4c-0.2,0-0.4-0.1-0.5-0.5
	C145.5,44.6,145.9,44.5,146.1,44.5 M146.1,47.3c-0.2,0-0.4-0.1-0.5-0.5c0-0.4,0.4-0.4,0.6-0.4c0.2,0,0.4,0.3,0.4,0.5
	C146.6,47,146.3,47.3,146.1,47.3 M148.5,57.7c-0.2,0-0.4-0.1-0.5-0.5c0-0.4,0.4-0.4,0.6-0.4c0.2,0,0.4,0.3,0.4,0.5
	C148.9,57.5,148.7,57.7,148.5,57.7 M146.6,43.7c-0.2,0-0.4-0.1-0.5-0.5c0-0.4,0.4-0.4,0.6-0.4c0.2,0,0.4,0.3,0.4,0.5
	C147,43.5,146.8,43.7,146.6,43.7 M148.6,49.6c0.2,0,0.4,0.3,0.4,0.5s-0.3,0.5-0.5,0.4c-0.2,0-0.4-0.1-0.5-0.5
	C148,49.7,148.3,49.6,148.6,49.6 M132.2,34.8c0,0.2-0.3,0.5-0.5,0.4c-0.2,0-0.4-0.1-0.5-0.5c0-0.4,0.4-0.4,0.6-0.4
	C132,34.3,132.2,34.6,132.2,34.8 M147.8,59.7c-0.2,0-0.4-0.1-0.5-0.5c0-0.4,0.4-0.4,0.6-0.4c0.2,0,0.4,0.3,0.4,0.5
	S148.1,59.8,147.8,59.7 M153,49.6c0.2,0,0.6,0,0.6,0.4s-0.3,0.5-0.4,0.5c-0.2,0-0.5-0.2-0.5-0.4C152.6,49.9,152.8,49.6,153,49.6
	 M134.1,43.5c-0.1,0.3-0.4,0.6-0.8,0.5c-0.2-0.1-0.5-0.3-0.5-0.8c0.1-0.5,0.6-0.5,0.9-0.5C134.1,42.8,134.2,43.2,134.1,43.5
	 M133.4,35.2c-0.2,0-0.4-0.1-0.5-0.5c0-0.4,0.4-0.4,0.6-0.4c0.2,0,0.4,0.3,0.4,0.5C133.9,34.9,133.7,35.2,133.4,35.2 M147.4,48.6
	c0,0.2-0.3,0.5-0.5,0.4c-0.2,0-0.4-0.1-0.5-0.5c0-0.4,0.4-0.4,0.6-0.4C147.3,48.1,147.5,48.4,147.4,48.6 M210.3,36.3
	c0.2,0,0.3,0.3,0.2,0.5s-0.3,0.4-0.5,0.3c-0.2-0.1-0.4-0.2-0.3-0.5C209.7,36.2,210.1,36.2,210.3,36.3 M127.3,28.4
	c-0.2,0-0.4-0.1-0.5-0.5c0-0.4,0.4-0.4,0.6-0.4s0.4,0.3,0.4,0.5C127.7,28.1,127.5,28.4,127.3,28.4 M152.7,57.2
	c0-0.2,0.1-0.5,0.4-0.5c0.2,0,0.6,0,0.6,0.4s-0.3,0.5-0.4,0.5C153,57.7,152.8,57.5,152.7,57.2 M99.5,51.8c-2-2.6-2.8-6.3-2.2-8
	c0.8,2,4.6,5.2,9,5.3c-0.4,1-2.1,2.2-4.4,1.6c1.1,2.2,5.1,4.6,7.7,4C106,56.9,101.2,54,99.5,51.8 M128.3,26.3c0,0.2-0.3,0.5-0.5,0.4
	c-0.2,0-0.4-0.1-0.5-0.5c0-0.4,0.4-0.4,0.6-0.4C128.1,25.9,128.3,26.1,128.3,26.3 M127.7,24c0.2,0,0.4,0.3,0.4,0.5s-0.3,0.5-0.5,0.4
	c-0.2,0-0.4-0.1-0.5-0.5C127.1,24.1,127.4,24,127.7,24 M126.2,23.1c0-0.4,0.4-0.4,0.6-0.4s0.4,0.3,0.4,0.5s-0.3,0.5-0.5,0.4
	C126.4,23.5,126.2,23.4,126.2,23.1 M98.5,29.7c0.2,0,0.3,0.3,0.2,0.5c-0.1,0.2-0.3,0.4-0.5,0.3s-0.4-0.2-0.3-0.5
	C98,29.7,98.3,29.7,98.5,29.7 M97.8,31.5c0.2,0,0.3,0.3,0.2,0.5c-0.1,0.2-0.3,0.4-0.5,0.3c-0.2-0.1-0.4-0.2-0.3-0.5
	C97.2,31.4,97.6,31.4,97.8,31.5 M129.9,34.6c-0.2,0-0.4-0.1-0.5-0.5c0-0.4,0.4-0.4,0.6-0.4c0.2,0,0.4,0.3,0.4,0.5
	C130.4,34.3,130.1,34.6,129.9,34.6 M127.5,31.8c-0.2,0-0.4-0.1-0.5-0.5c0-0.4,0.4-0.4,0.6-0.4s0.4,0.3,0.4,0.5
	C127.9,31.6,127.7,31.9,127.5,31.8 M174.7,29.3c0,0.4-0.3,0.5-0.4,0.5c-0.2,0-0.5-0.2-0.5-0.4c0-0.2,0.1-0.5,0.4-0.5
	C174.4,28.9,174.8,28.9,174.7,29.3 M171,33.9c0-0.2,0.1-0.5,0.4-0.5c0.2,0,0.6,0,0.6,0.4s-0.3,0.5-0.4,0.5
	C171.3,34.4,171.1,34.1,171,33.9 M173.9,31.6c-0.2,0-0.5-0.2-0.5-0.4c0-0.2,0.1-0.5,0.4-0.5c0.2,0,0.6,0,0.6,0.4
	C174.4,31.4,174.1,31.5,173.9,31.6 M173.6,27.7c0-0.2,0.1-0.5,0.4-0.5c0.2,0,0.6,0,0.6,0.4s-0.3,0.5-0.4,0.5
	C173.8,28.1,173.6,27.9,173.6,27.7 M153.9,59.7c-0.2,0-0.5-0.2-0.5-0.4s0.1-0.5,0.4-0.5c0.2,0,0.6,0,0.6,0.4
	C154.4,59.6,154.1,59.7,153.9,59.7 M174.5,22.4c0.2,0,0.6,0,0.6,0.4s-0.3,0.5-0.4,0.5c-0.2,0-0.5-0.2-0.5-0.4
	C174.1,22.6,174.3,22.4,174.5,22.4 M128.7,32.4c0.2,0,0.4,0.3,0.4,0.5s-0.3,0.5-0.5,0.4c-0.2,0-0.4-0.1-0.5-0.5
	C128.1,32.5,128.4,32.4,128.7,32.4 M175.7,21.8c0-0.2,0.1-0.5,0.4-0.5c0.2,0,0.6,0,0.6,0.4s-0.3,0.5-0.4,0.5
	C176,22.2,175.8,22,175.7,21.8 M194.5,19.8c-0.1-0.2,0-0.5,0.2-0.5s0.5,0,0.6,0.3s-0.2,0.5-0.3,0.5C194.8,20.2,194.6,20,194.5,19.8
	 M172.9,33.1c-0.2,0-0.5-0.2-0.5-0.4s0.1-0.5,0.4-0.5c0.2,0,0.6,0,0.6,0.4C173.3,33,173.1,33.1,172.9,33.1 M173.4,25.6
	c0.2,0,0.6,0,0.6,0.4s-0.3,0.5-0.4,0.5c-0.2,0-0.5-0.2-0.5-0.4C173,25.9,173.2,25.6,173.4,25.6 M173.6,23.8c0.2,0,0.6,0,0.6,0.4
	s-0.3,0.5-0.5,0.5s-0.5-0.2-0.5-0.4C173.3,24.1,173.4,23.8,173.6,23.8 M168.6,43c0.1,0.5-0.2,0.7-0.5,0.8s-0.7-0.2-0.8-0.5
	s0.1-0.7,0.4-0.8C168,42.4,168.6,42.5,168.6,43 M154.7,49c-0.2,0-0.5-0.2-0.5-0.4s0.1-0.5,0.4-0.5c0.2,0,0.6,0,0.6,0.4
	C155.1,48.8,154.8,48.9,154.7,49 M155.3,46.3c0.2,0,0.6,0,0.6,0.4s-0.3,0.5-0.4,0.5c-0.2,0-0.5-0.2-0.5-0.4
	C154.9,46.6,155.1,46.3,155.3,46.3 M154.8,42.7c0.2,0,0.6,0,0.6,0.4s-0.3,0.5-0.4,0.5c-0.2,0-0.5-0.2-0.5-0.4
	C154.4,43,154.6,42.7,154.8,42.7 M156,44.9c0,0.4-0.3,0.5-0.4,0.5c-0.2,0-0.5-0.2-0.5-0.4s0.1-0.5,0.4-0.5
	C155.6,44.4,156,44.5,156,44.9 M167.9,34c0.2,0,0.6,0,0.6,0.4s-0.3,0.5-0.4,0.5c-0.2,0-0.5-0.2-0.5-0.4
	C167.5,34.3,167.6,34.1,167.9,34 M203.6,30.9c0.2,0,0.5,0,0.6,0.3s-0.2,0.5-0.3,0.5c-0.2,0.1-0.5-0.1-0.5-0.3
	C203.3,31.2,203.4,30.9,203.6,30.9 M202.9,29.1c0.2,0,0.5,0,0.6,0.3c0.1,0.4-0.2,0.5-0.3,0.5c-0.2,0.1-0.5-0.1-0.5-0.3
	C202.6,29.5,202.7,29.2,202.9,29.1 M192.1,54.1c2.6,0.5,6.5-1.9,7.6-4.1c-2.3,0.6-4-0.5-4.4-1.6c4.4-0.1,8.1-3.3,8.9-5.4
	c0.7,1.7-0.2,5.4-2.1,8.1C200.5,53.5,195.7,56.4,192.1,54.1 M169.3,34.6c0-0.2,0.1-0.5,0.4-0.5c0.2,0,0.6,0,0.6,0.4S170,35,169.9,35
	C169.5,35,169.3,34.8,169.3,34.6 M126.6,29.6c0-0.4,0.4-0.4,0.6-0.4s0.4,0.3,0.4,0.5s-0.3,0.5-0.5,0.4
	C126.9,30.1,126.6,29.9,126.6,29.6 M231.4,0.8c-0.1,0.2-0.3,0.4-0.6,0.4c-0.2-0.1-0.4-0.2-0.4-0.6c0.1-0.4,0.4-0.4,0.7-0.3
	S231.5,0.6,231.4,0.8 M229.8,1.5c0.2,0,0.3,0.3,0.3,0.5c-0.1,0.2-0.3,0.4-0.6,0.4c-0.2-0.1-0.4-0.2-0.4-0.6
	C229.2,1.5,229.6,1.5,229.8,1.5 M231.5-0.5c-0.2-0.1-0.4-0.2-0.4-0.6c0.1-0.4,0.4-0.4,0.7-0.3c0.2,0,0.3,0.3,0.3,0.5
	C232-0.7,231.7-0.4,231.5-0.5 M220.1,20c-0.2,0-0.4-0.2-0.3-0.5c0-0.4,0.4-0.4,0.6-0.3c0.2,0,0.3,0.3,0.2,0.5
	C220.5,19.8,220.3,20,220.1,20 M239,7.8c-0.8,0.6-1.3-0.4-2.9-0.2c-1.4,0.2-2.6,1.4-2.5,2.4c0.6-1.3,2.3-2.1,4-1.4
	c-1.2,0.4-2.4,3.4,0,4.2c-1.1,2.4,2,3.3,3.9,3c-1.8,1.1-0.4,2.9-2,4.1c-1.5,1.2-2.8,0.2-4.5,1c-0.4-2.5,2.3-2.2,3.1-3.7
	c-1.9-0.3-3.1,1.9-5.4,1.9c-2-0.1-2.9-1.3-4-2.8c-2.5,0.3-4-0.4-4.5-1.9c1.2,0.4,4.8,0.9,5.6-0.8c-0.8,0.4-2.3,0.2-2.5-0.6
	c2.7-1,1.1-4.6,4.2-5.1C231.9,4.5,238,5.5,239,7.8 M224,0.2c-0.2-0.1-0.4-0.2-0.4-0.6c0.1-0.4,0.4-0.4,0.7-0.3
	c0.2,0,0.3,0.3,0.3,0.5C224.5,0.1,224.3,0.3,224,0.2 M224.3,1.7c-0.2-0.1-0.4-0.2-0.4-0.6c0.1-0.4,0.4-0.4,0.7-0.3
	c0.2,0.1,0.3,0.3,0.3,0.5C224.8,1.6,224.6,1.8,224.3,1.7 M225.1-0.4c1.9,0.4,2.5-0.4,2.3-1.2h3.2c0,0.9-0.3,1.7-1.1,2.4
	C228.5,1.8,225.3,2.1,225.1-0.4 M227.8,6.5c-0.9-0.2-1.7-0.3-2,0.4c-0.7,1.8,1.6,2.4,3.1,2.8c-1.9,0.8-4.6,1.1-6,0
	c-1.5-1.1-0.7-4-2.9-4.3c-1.1-0.1-1.4,0.6-1.6,1.3c-1.6-3.3,3.6-4.9,4.7-2.1C225,3.4,227.6,4.5,227.8,6.5 M227.7,3
	c-0.2-0.1-0.4-0.2-0.4-0.6c0.1-0.4,0.4-0.4,0.7-0.3c0.2,0,0.3,0.3,0.3,0.5C228.2,2.8,227.9,3,227.7,3 M225.8,2.6
	c-0.2-0.1-0.4-0.2-0.4-0.6c0.1-0.4,0.4-0.4,0.7-0.3c0.2,0,0.3,0.3,0.3,0.5C226.3,2.4,226,2.6,225.8,2.6 M225.9,24.1
	c0.1-1.1,0.5-2,1.3-2.4c2.7-1.3,6.2,5.4,8.5,4.6c0.7-0.2,0.5-1,2.1-1.3c-2.1-0.5-0.7-1.9-1.7-3.1c6.1,0,5.2,7.4,0.5,8.1
	c-4.9,0.8-5.6-2.2-9.1-3.1c-0.4-0.1-0.6,0.2-0.5,0.5c0.7,2.4,2.7,3.8,5.6,3.4c3.1-0.4,5.7-0.1,6.5,2.2c-2.1-0.4-2.7,1.6-4.9,0.4
	c0.3,1.3,1.5,0.7,2.9,1.6c1.9,1.3,2,3.5,4,3.4c1.1-0.1,2.9-1,2.2-2c-0.6-1-1.7,0.2-2.7-1.8c4.5-2,5.5,4.2,2.9,6.1
	c-2.8,2-7.7,1.9-10.3-0.3c-1.1-1-1.2-2.7-2.7-2.8c0.4,1.7-1.5,2.2-0.2,3.7c-1.4,0.2-2.7-0.9-3.3-1.8c-1.9-3.1,0.5-7.9-2.8-9.9
	c-1.8,1.4,0.4,3.6,0,5.9c-0.4,2.7-3.7,5-6.7,3.3c0.6-0.4,0.8-1.3,0.6-1.9c-1.9,1.5-5.1-1.1-3.1-2.7c0.1,0.8,1,1.5,2.2,1.6
	c4.2,0.3,2.1-4.9,2-6.5c-0.2-2.9,1.1-4.8,4-5.1c-0.2-1.5-2.1-4.5-2.3-5.4C223,19.6,224.8,23.2,225.9,24.1 M228.4,32.3
	c2.4,2.7,6,5.5,11,7.4c-5.7-2.9-11.8-7.8-14.7-14C224.9,27.6,227.3,31,228.4,32.3 M218.8,21c-0.2,0-0.4-0.2-0.3-0.5
	c0-0.3,0.4-0.4,0.6-0.3c0.2,0,0.3,0.3,0.2,0.5C219.2,20.9,219,21.1,218.8,21 M212.9,28.2c-0.2,0-0.4-0.2-0.3-0.5
	c0-0.4,0.4-0.4,0.6-0.3c0.2,0,0.3,0.3,0.2,0.5C213.4,28.1,213.2,28.3,212.9,28.2 M210.4,41.7c0.2,0,0.3,0.3,0.2,0.5
	s-0.3,0.4-0.5,0.3c-0.2,0-0.4-0.2-0.3-0.5C209.8,41.6,210.2,41.6,210.4,41.7 M210.2,38.1c0.2,0,0.3,0.3,0.2,0.5s-0.3,0.4-0.5,0.3
	c-0.2-0.1-0.4-0.2-0.3-0.5C209.6,38.1,210,38.1,210.2,38.1 M214,26.4c-0.2-0.1-0.4-0.2-0.3-0.5c0-0.4,0.4-0.4,0.6-0.3
	c0.2,0,0.3,0.3,0.2,0.5C214.5,26.2,214.3,26.4,214,26.4 M209.6,40.2c0-0.3,0.4-0.4,0.6-0.3c0.2,0,0.3,0.3,0.2,0.5s-0.3,0.4-0.5,0.3
	C209.7,40.6,209.5,40.5,209.6,40.2 M216.3,23.4c-0.2,0-0.4-0.2-0.3-0.5c0-0.4,0.4-0.4,0.6-0.3c0.2,0,0.3,0.3,0.2,0.5
	C216.7,23.2,216.5,23.5,216.3,23.4 M217.6,22.2c-0.2,0-0.4-0.2-0.3-0.5c0-0.4,0.4-0.4,0.6-0.3c0.2,0,0.3,0.3,0.2,0.5
	C218,22,217.8,22.2,217.6,22.2 M215.1,24.9c-0.2,0-0.4-0.2-0.3-0.5c0-0.3,0.4-0.4,0.6-0.3c0.2,0,0.3,0.3,0.2,0.5
	C215.6,24.7,215.3,25,215.1,24.9 M219.1,44.3c2-0.8,1.3-2.1,0.4-2.8c1.1-0.2,5.1,1.7,2.4,4.4c-3.7,3.8-10.1-1.3-9.3-6.3
	C215.7,40.4,215.4,45.8,219.1,44.3 M189.5,2.2c0.1,0.4-0.2,0.5-0.4,0.6c-0.2,0.1-0.5-0.2-0.6-0.4s0.1-0.5,0.3-0.5
	C189,1.8,189.4,1.9,189.5,2.2 M169,8.2c4-0.5,9.8,0.7,9.2,3.3c-0.2,0.8-1,1.2-1.8,1.3c0.4,0.7,0.5,1.5,0.1,2.1
	c-1.8,2.5-7.8-1.6-9.3-4.1c-0.4,3.7,6.2,4,6.5,7.1c0.1,1.4-1,2.7-2.7,3.3c0-4.8-10.3-6.2-6-11.5c-3.6-1.2-6.4-4-7.2-3.4
	c2,4.6-7.6,3.2-4.5-0.2c0.2,0.3,0.8,0.7,1.6,0.4c2.4-0.9-1.2-5.3-3.2-7.6h7c-0.3,1-1.4,1.8-2.1,1.8c2.2,3.2,5.3,5.6,10.1,6.4
	c0.2-4.7,8.6-1.9,11.1-3.7C178.9,9.3,171.8,6.1,169,8.2 M176.7,12c0.3-0.1,0.7-0.3,0.6-0.9c-0.1-0.6-0.8-0.6-1.1-0.5
	c-0.4,0.1-0.6,0.6-0.5,0.9C175.9,11.7,176.4,12.1,176.7,12 M174.5,14.3c0.1,0.3,0.6,0.7,1,0.6c0.3-0.1,0.7-0.3,0.6-0.9
	c-0.1-0.6-0.8-0.6-1.1-0.5C174.6,13.5,174.4,14,174.5,14.3 M166.5,1c1-0.2,1.8-0.9,2-2.2h3.1c0,0.3-0.1,0.6-0.2,1
	C171,0.9,168.3,2.9,166.5,1 M183.4-0.2c-0.2,0.1-0.5-0.2-0.6-0.3c-0.1-0.2,0.1-0.5,0.3-0.5c0.2-0.1,0.6,0,0.7,0.3
	C183.8-0.4,183.6-0.3,183.4-0.2 M184.9,2.3c-0.1-0.2,0.1-0.5,0.3-0.5c0.2-0.1,0.6,0,0.7,0.3c0.1,0.4-0.2,0.5-0.4,0.6
	C185.2,2.7,184.9,2.5,184.9,2.3 M166.8-0.1c-1.3,0.6-3.3,0.2-4-1c0.4,0.1,0.9,0,1.3-0.2h3.6C167.6-0.8,167.4-0.4,166.8-0.1
	 M187.6,13.4c-0.1,0.8-1.7,1.1-2.4,0.6c0.8,1.7,4.4,1.2,5.6,0.7c-0.6,1.4-2.1,2.2-4.5,1.9c-1.1,1.5-2,2.8-4,2.9
	c-2.3,0.1-3.5-2.1-5.4-1.8c0.8,1.4,3.5,1.1,3.1,3.6c-1.7-0.9-3,0.2-4.5-1c-1.6-1.3-0.3-3-2.1-4.1c1.9,0.3,5-0.6,3.8-3
	c2.4-0.9,1.2-3.9,0-4.2c1.7-0.7,3.4,0.1,4,1.4c0.1-1.1-1.1-2.2-2.5-2.4c-1.6-0.2-2,0.8-2.8,0.2c1-2.3,7.1-3.5,7.4,0.2
	C186.4,8.8,184.9,12.4,187.6,13.4 M151.2,15.2c3.1-0.3,2.2-4,5.3-4.3c0.3,1.1,0.2,1.9-0.4,2.6c2.4-0.4,2.2-4.1,5.3-3.1
	c-0.5,3.9-3.6,6.9-8.5,5.5c0.1,0.8,1.4,0.9,1.4,1.9c-1.9-0.4-2.1,3-3.8,3.1l0,0c-1.8-0.1-2-3.5-3.8-3.1c0-1,1.3-1,1.4-1.9
	c-4.9,1.4-8-1.6-8.5-5.4c3.2-1.1,3,2.7,5.4,3c-0.7-0.7-0.8-1.5-0.5-2.6c3.1,0.2,2.3,4,5.4,4.2c-1.1-0.7-2.1-2.7-1.4-3.8
	c1.7-2.7,1.8-7,1.9-8.2l0,0l0,0l0,0c0.2,1.1,0.3,5.5,2,8.1C153.3,12.5,152.4,14.5,151.2,15.2 M218.5-1.5h2.6
	C220.2-1.2,219.3-1.1,218.5-1.5 M134.3,0.1c-0.7-0.3-0.8-0.7-0.9-1.2h3.6c0.5,0.2,1,0.2,1.3,0.2C137.5,0.3,135.6,0.7,134.3,0.1
	 M146.1,6.5c0.8,0.3,1.4-0.1,1.6-0.4c3.2,3.3-6.4,4.9-4.5,0.2c-0.8-0.6-3.5,2.2-7.1,3.5c4.4,5.3-5.8,6.8-6,11.6
	c-1.6-0.5-2.8-1.8-2.7-3.2c0.2-3.1,6.9-3.4,6.4-7.1c-1.5,2.4-7.5,6.7-9.2,4.2c-0.4-0.6-0.2-1.4,0.1-2.1c-0.8-0.1-1.6-0.5-1.8-1.3
	C122.3,9.3,128,8,132,8.5c-2.8-2.1-9.8,1.2-9-4.8c2.5,1.8,10.9-1.1,11.2,3.6c4.7-0.9,7.8-3.3,10-6.6c-0.8,0-1.8-0.8-2.1-1.8h7
	C147.2,1.2,143.7,5.7,146.1,6.5 M124.9,10.8c-0.4-0.1-1-0.1-1.1,0.6c-0.1,0.6,0.3,0.9,0.6,0.9c0.4,0.1,0.8-0.3,1-0.6
	C125.5,11.4,125.3,10.9,124.9,10.8 M126.2,13.7c-0.4-0.1-1-0.1-1.1,0.6c-0.1,0.6,0.3,0.9,0.6,0.9c0.4,0.1,0.8-0.3,1-0.6
	C126.8,14.2,126.6,13.7,126.2,13.7 M129.6-0.1c-0.1-0.3-0.2-0.7-0.2-1h3.1c0.2,1.3,1.1,1.9,2,2.2C132.8,3.1,130,1.2,129.6-0.1
	 M193.8-1.4h2.6C195.6-1,194.7-1.1,193.8-1.4 M194.9,5.6c-2.2,0.3-1.4,3.2-2.9,4.3c-1.4,1.1-4.1,0.8-6,0c1.6-0.5,3.8-1,3.1-2.9
	c-0.3-0.7-1.2-0.6-2-0.4c0.2-2,2.8-3.1,4.7-1.9c1.1-2.9,6.2-1.3,4.7,2C196.3,6.2,196,5.5,194.9,5.6 M211.2,2.4
	c1-0.5,1.8-1.6,1.8-2.8c-0.9-0.2-1.2-0.7-1.5-1.2h2.8c0.1,0.2,0.1,0.5,0.1,0.8c0.5-0.3,1.9-1.1,3.4-0.4C215.8-0.6,214.7,4,211.2,2.4
	 M190.8,0.4c-0.2,0.1-0.5-0.2-0.6-0.4s0.1-0.5,0.3-0.5s0.6,0,0.7,0.3C191.3,0.2,191,0.4,190.8,0.4 M203.7,2.5
	c-3.5,1.6-4.5-3-6.6-3.5c1.5-0.7,3,0.1,3.4,0.4c0-0.3,0-0.5,0.1-0.8h2.8c-0.3,0.5-0.7,1-1.5,1.2C201.8,0.9,202.7,2,203.7,2.5
	 M190.9,1.4c0.1,0.4-0.2,0.5-0.4,0.6c-0.2,0.1-0.5-0.2-0.6-0.4s0.1-0.5,0.3-0.5C190.5,1,190.9,1,190.9,1.4 M187.6,2.6
	c0.1,0.4-0.2,0.5-0.4,0.6s-0.5-0.2-0.6-0.4s0.1-0.5,0.3-0.5C187.2,2.3,187.6,2.3,187.6,2.6 M185.3,1c-0.8-0.7-1.1-1.5-1.1-2.4h3.2
	c-0.1,0.8,0.5,1.5,2.3,1.2C189.6,2.3,186.4,2,185.3,1 M124.6,22c0-0.4,0.4-0.4,0.6-0.4s0.4,0.3,0.4,0.5s-0.3,0.5-0.5,0.4
	S124.6,22.3,124.6,22 M184.4,0.9c0.1,0.4-0.2,0.5-0.4,0.6s-0.5-0.2-0.6-0.4s0.1-0.5,0.3-0.5C184,0.5,184.4,0.5,184.4,0.9
	 M228.1,72.5c-0.1,0.2-0.3,0.4-0.5,0.3c-0.2,0-0.4-0.2-0.3-0.5c0.1-0.3,0.4-0.4,0.6-0.3C228,72,228.1,72.3,228.1,72.5 M226.3,68.5
	c-0.2-0.1-0.4-0.2-0.3-0.5c0-0.4,0.4-0.4,0.6-0.3c0.2,0,0.3,0.3,0.2,0.5C226.8,68.4,226.6,68.6,226.3,68.5 M226.7,70.3
	c0.1-0.4,0.4-0.4,0.6-0.3c0.2,0,0.3,0.3,0.2,0.5s-0.3,0.4-0.5,0.3C226.9,70.8,226.7,70.7,226.7,70.3 M227.5,68.6
	c0-0.4,0.4-0.4,0.6-0.3c0.2,0,0.3,0.3,0.2,0.5s-0.3,0.4-0.5,0.3C227.7,69.1,227.4,69,227.5,68.6 M227.4,76.1
	c-0.2-0.1-0.4-0.2-0.3-0.5c0-0.4,0.4-0.4,0.6-0.3c0.2,0,0.3,0.3,0.2,0.5C227.8,76,227.6,76.2,227.4,76.1 M228.3,74.2
	c-0.1,0.2-0.3,0.4-0.5,0.3s-0.4-0.2-0.3-0.5c0-0.3,0.4-0.4,0.6-0.3C228.2,73.7,228.3,74,228.3,74.2 M195.8,20.8
	c-0.1-0.2,0-0.5,0.2-0.5s0.5,0,0.6,0.3c0.1,0.4-0.2,0.5-0.3,0.5C196.2,21.2,195.9,21,195.8,20.8 M86,61.9c0.1,0.4-0.2,0.5-0.3,0.5
	c-0.2,0.1-0.4-0.2-0.5-0.3c-0.1-0.2,0-0.5,0.2-0.5C85.6,61.5,85.9,61.5,86,61.9 M106.4,64.8c0.2,0,0.3,0.3,0.2,0.5
	c-0.1,0.2-0.3,0.4-0.5,0.3c-0.2,0-0.4-0.2-0.3-0.5C105.8,64.8,106.2,64.8,106.4,64.8 M84.6,63.3c0.1,0.4-0.2,0.5-0.3,0.5
	c-0.2,0.1-0.5-0.1-0.5-0.3c-0.1-0.2,0-0.5,0.2-0.5C84.2,62.9,84.5,63,84.6,63.3 M104.9,63.8c0.2,0,0.3,0.3,0.2,0.5
	c-0.1,0.2-0.3,0.4-0.5,0.3c-0.2,0-0.4-0.2-0.3-0.5C104.4,63.8,104.7,63.8,104.9,63.8 M103.5,62.9c0.2,0,0.3,0.3,0.2,0.5
	c-0.1,0.2-0.3,0.4-0.5,0.3c-0.2,0-0.4-0.2-0.3-0.5C103,62.8,103.3,62.8,103.5,62.9 M102.1,61.5c0.2,0,0.3,0.3,0.2,0.5
	c-0.1,0.2-0.3,0.4-0.5,0.3c-0.2-0.1-0.4-0.2-0.3-0.5C101.5,61.5,101.9,61.4,102.1,61.5 M77,68.2c0.1,0.3-0.2,0.5-0.3,0.5
	c-0.2,0.1-0.5-0.1-0.5-0.3c-0.1-0.2,0.1-0.5,0.2-0.5C76.6,67.9,76.9,67.9,77,68.2 M73.2,75.1c-0.1-0.2,0-0.5,0.2-0.5s0.5,0,0.6,0.3
	s-0.2,0.5-0.3,0.5C73.5,75.5,73.3,75.3,73.2,75.1 M80.3,66.4c0.1,0.4-0.2,0.5-0.3,0.5c-0.2,0.1-0.5-0.2-0.5-0.3
	c-0.1-0.2,0-0.5,0.2-0.5C79.9,66,80.3,66,80.3,66.4 M81.8,65.3c0.1,0.4-0.2,0.5-0.3,0.5c-0.2,0.1-0.5-0.1-0.5-0.3
	c-0.1-0.2,0-0.5,0.2-0.5C81.4,64.9,81.7,64.9,81.8,65.3 M83.2,64.2c0.1,0.3-0.2,0.5-0.3,0.5c-0.2,0.1-0.5-0.1-0.5-0.3
	c-0.1-0.2,0.1-0.5,0.2-0.5C82.8,63.9,83.1,63.9,83.2,64.2 M78.7,67.3c0.1,0.4-0.2,0.5-0.3,0.5c-0.2,0.1-0.5-0.2-0.5-0.3
	c-0.1-0.2,0-0.5,0.2-0.5C78.3,67,78.6,67,78.7,67.3 M113.5,76.8c-0.2-0.1-0.4-0.2-0.3-0.5c0-0.3,0.4-0.4,0.6-0.3
	c0.2,0,0.3,0.3,0.2,0.5C114,76.6,113.8,76.9,113.5,76.8 M112.9,71c0-0.4,0.4-0.4,0.6-0.3c0.2,0,0.3,0.3,0.2,0.5
	c-0.1,0.2-0.3,0.4-0.5,0.3C113.1,71.5,112.8,71.3,112.9,71 M114.4,74.9c-0.1,0.2-0.3,0.4-0.5,0.3s-0.4-0.2-0.3-0.5
	c0-0.3,0.4-0.4,0.6-0.3C114.4,74.4,114.5,74.7,114.4,74.9 M112.5,69.2c-0.2-0.1-0.4-0.2-0.3-0.5c0-0.4,0.4-0.4,0.6-0.3
	c0.2,0,0.3,0.3,0.2,0.5C112.9,69,112.7,69.2,112.5,69.2 M107.8,65.9c0.2,0,0.3,0.3,0.2,0.5c-0.1,0.2-0.3,0.4-0.5,0.3
	s-0.4-0.2-0.3-0.5C107.3,65.9,107.6,65.8,107.8,65.9 M113.6,69.3c0-0.4,0.4-0.4,0.6-0.3c0.2,0,0.3,0.3,0.2,0.5
	c-0.1,0.2-0.3,0.4-0.5,0.3C113.8,69.8,113.6,69.7,113.6,69.3 M109.5,66.8c0.2,0,0.3,0.3,0.2,0.5c-0.1,0.2-0.3,0.4-0.5,0.3
	c-0.2,0-0.4-0.2-0.3-0.5C108.9,66.8,109.3,66.8,109.5,66.8 M111.2,67.7c0.2,0,0.3,0.3,0.2,0.5c-0.1,0.2-0.3,0.4-0.5,0.3
	s-0.4-0.2-0.3-0.5C110.6,67.7,111,67.7,111.2,67.7 M114.2,73.1c-0.1,0.2-0.3,0.4-0.5,0.3c-0.2,0-0.4-0.2-0.3-0.5
	c0-0.4,0.4-0.4,0.6-0.3C114.2,72.7,114.3,73,114.2,73.1 M74.8,68.5c0.2,0,0.5,0,0.6,0.3s-0.2,0.5-0.3,0.5c-0.2,0.1-0.5-0.2-0.5-0.3
	C74.5,68.9,74.6,68.6,74.8,68.5 M74.2,73.2c0.1,0.4-0.2,0.5-0.3,0.5c-0.2,0.1-0.4-0.1-0.5-0.3c-0.1-0.2,0-0.5,0.2-0.5
	C73.8,72.8,74.2,72.8,74.2,73.2 M74.4,71.7c-0.2,0.1-0.5-0.1-0.5-0.3c-0.1-0.2,0-0.5,0.2-0.5s0.5,0,0.6,0.3
	C74.8,71.5,74.5,71.7,74.4,71.7 M74.1,77c-0.2,0.1-0.5-0.1-0.5-0.3c-0.1-0.2,0-0.5,0.2-0.5s0.5,0,0.6,0.3C74.5,76.8,74.3,77,74.1,77
	 M73.1,69.7c-0.1-0.2,0-0.5,0.2-0.5s0.5,0,0.6,0.3c0.1,0.4-0.2,0.5-0.3,0.5C73.4,70.1,73.2,69.9,73.1,69.7 M194.6,65.7
	c0.1,0.3-0.2,0.5-0.3,0.5c-0.2,0.1-0.5-0.1-0.5-0.3c-0.1-0.2,0-0.5,0.2-0.5C194.2,65.3,194.5,65.4,194.6,65.7 M187.5,74.5
	c-0.1-0.2,0-0.5,0.2-0.5s0.5,0,0.6,0.3s-0.2,0.5-0.3,0.5C187.8,74.9,187.5,74.6,187.5,74.5 M191.3,67.6c0.1,0.4-0.2,0.5-0.3,0.5
	c-0.2,0.1-0.5-0.1-0.5-0.3c-0.1-0.2,0.1-0.5,0.2-0.5C190.9,67.2,191.2,67.2,191.3,67.6 M188.5,72.5c0.1,0.4-0.2,0.5-0.3,0.5
	c-0.2,0.1-0.5-0.1-0.5-0.3c-0.1-0.2,0-0.5,0.2-0.5C188.1,72.2,188.4,72.2,188.5,72.5 M192.9,66.7c0.1,0.3-0.2,0.5-0.3,0.5
	c-0.2,0.1-0.4-0.1-0.5-0.3c-0.1-0.2,0-0.5,0.2-0.5C192.5,66.3,192.9,66.3,192.9,66.7 M187.4,69.1c-0.1-0.2,0-0.5,0.2-0.5
	s0.5,0,0.6,0.3c0.1,0.4-0.2,0.5-0.3,0.5C187.7,69.5,187.4,69.3,187.4,69.1 M188.6,71.1c-0.2,0.1-0.5-0.2-0.5-0.3
	c-0.1-0.2,0-0.5,0.2-0.5s0.5,0,0.6,0.3C189,70.9,188.8,71,188.6,71.1 M225,67.1c0.2,0,0.3,0.3,0.2,0.5s-0.3,0.4-0.5,0.3
	s-0.4-0.2-0.3-0.5C224.5,67,224.8,67,225,67.1 M189.1,67.9c0.2-0.1,0.5,0,0.6,0.3s-0.2,0.5-0.3,0.5c-0.2,0.1-0.5-0.2-0.5-0.3
	C188.8,68.2,188.9,67.9,189.1,67.9 M220.2,64.2c0.2,0,0.3,0.3,0.2,0.5s-0.3,0.4-0.5,0.3c-0.2,0-0.4-0.2-0.3-0.5
	C219.7,64.1,220,64.1,220.2,64.2 M218.8,63.2c0.2,0,0.3,0.3,0.2,0.5s-0.3,0.4-0.5,0.3c-0.2,0-0.4-0.2-0.3-0.5
	C218.2,63.1,218.6,63.1,218.8,63.2 M217.3,62.2c0.2,0,0.3,0.3,0.2,0.5s-0.3,0.4-0.5,0.3c-0.2-0.1-0.4-0.2-0.3-0.5
	C216.8,62.2,217.2,62.2,217.3,62.2 M223.3,66.2c0.2,0,0.3,0.3,0.2,0.5s-0.3,0.4-0.5,0.3c-0.2,0-0.4-0.2-0.3-0.5
	C222.8,66.2,223.1,66.1,223.3,66.2 M221.6,65.2c0.2,0,0.3,0.3,0.2,0.5s-0.3,0.4-0.5,0.3s-0.4-0.2-0.3-0.5
	C221.1,65.2,221.4,65.2,221.6,65.2 M197.4,63.6c0.1,0.3-0.2,0.5-0.3,0.5c-0.2,0.1-0.5-0.1-0.5-0.3c-0.1-0.2,0-0.5,0.2-0.5
	C197.1,63.2,197.4,63.2,197.4,63.6 M198.8,62.6c0.1,0.4-0.2,0.5-0.3,0.5c-0.2,0.1-0.4-0.1-0.5-0.3s0-0.5,0.2-0.5
	S198.8,62.3,198.8,62.6 M196,64.6c0.1,0.4-0.2,0.5-0.3,0.5c-0.2,0.1-0.5-0.1-0.5-0.3c-0.1-0.2,0-0.5,0.2-0.5
	C195.6,64.3,196,64.3,196,64.6 M215.9,60.8c0.2,0,0.3,0.3,0.2,0.5s-0.3,0.4-0.5,0.3c-0.2-0.1-0.4-0.2-0.3-0.5
	C215.4,60.8,215.7,60.8,215.9,60.8 M200.2,61.2c0.1,0.4-0.2,0.5-0.3,0.5c-0.2,0.1-0.5-0.2-0.5-0.3c-0.1-0.2,0-0.5,0.2-0.5
	C199.8,60.9,200.2,60.9,200.2,61.2 M35.3,56.7c-0.2,0-0.4-0.1-0.5-0.5c0-0.4,0.4-0.4,0.6-0.4c0.2,0,0.4,0.3,0.4,0.5
	C35.8,56.4,35.6,56.7,35.3,56.7 M96.7,35.2c0.2,0,0.3,0.3,0.2,0.5c-0.1,0.2-0.3,0.4-0.5,0.3c-0.2,0-0.4-0.2-0.3-0.5
	C96.1,35.2,96.5,35.1,96.7,35.2 M89.4,3.1c-3.5,1.6-4.5-3-6.6-3.5c1.5-0.7,3,0.1,3.4,0.4c0-0.3,0-0.5,0.1-0.8h2.8
	c-0.3,0.5-0.7,1-1.5,1.2C87.6,1.6,88.5,2.7,89.4,3.1 M97.4,3.1c1-0.5,1.8-1.6,1.8-2.8c-0.9-0.2-1.2-0.7-1.5-1.2h2.8
	c0.1,0.2,0.1,0.5,0.1,0.8c0.5-0.3,1.9-1.1,3.4-0.4C101.9,0.1,100.9,4.7,97.4,3.1 M110.5,2.4c-0.2-0.1-0.4-0.2-0.4-0.6
	c0.1-0.4,0.4-0.4,0.7-0.3c0.2,0,0.3,0.3,0.3,0.5C111,2.2,110.7,2.4,110.5,2.4 M80.7,6.3c-2.2,0.3-1.4,3.2-2.9,4.3
	c-1.4,1.1-4.1,0.8-6,0c1.6-0.5,3.9-1.1,3.1-2.9c-0.3-0.7-1.2-0.6-2-0.4c0.2-2,2.8-3.1,4.7-1.9c1.1-2.9,6.2-1.3,4.7,2
	C82.1,6.8,81.8,6.1,80.7,6.3 M110.2,0.9c-0.2-0.1-0.4-0.2-0.4-0.6c0.1-0.4,0.4-0.4,0.7-0.3c0.2,0,0.3,0.3,0.3,0.5
	C110.7,0.7,110.4,0.9,110.2,0.9 M104.6-0.9h2.6C106.4-0.6,105.5-0.5,104.6-0.9 M71,1.7c-0.7-0.7-1.1-1.5-1-2.4h3.2
	c-0.1,0.8,0.5,1.5,2.3,1.2C75.3,3,72.1,2.7,71,1.7 M75.2,2.9c0.1,0.4-0.2,0.5-0.4,0.6c-0.2,0.1-0.5-0.2-0.6-0.4s0.1-0.5,0.3-0.5
	C74.8,2.5,75.2,2.5,75.2,2.9 M79.5-0.7h2.6C81.3-0.3,80.4-0.4,79.5-0.7 M76.7,2c0.1,0.4-0.2,0.5-0.4,0.6c-0.2,0.1-0.5-0.2-0.6-0.3
	c0-0.3,0.1-0.6,0.3-0.6C76.2,1.6,76.6,1.6,76.7,2 M76.6,1.1c-0.2,0.1-0.5-0.2-0.6-0.4s0.1-0.5,0.3-0.5c0.2-0.1,0.6,0,0.7,0.3
	C77,0.9,76.8,1,76.6,1.1 M73.4,3.3c0.1,0.4-0.2,0.5-0.4,0.6c-0.2,0.1-0.5-0.2-0.6-0.4c0-0.2,0.1-0.5,0.3-0.5
	C72.9,2.9,73.3,2.9,73.4,3.3 M117.6,0.1c-0.2-0.1-0.4-0.2-0.4-0.6c0.1-0.4,0.4-0.4,0.7-0.3c0.2,0,0.3,0.3,0.3,0.5
	C118.1,0,117.9,0.2,117.6,0.1 M125.2,8.5c-0.8,0.6-1.3-0.4-2.9-0.2c-1.4,0.2-2.6,1.4-2.5,2.4c0.6-1.3,2.3-2.1,4-1.4
	c-1.2,0.4-2.4,3.4,0,4.2c-1.1,2.4,2,3.3,3.9,3c-1.8,1.1-0.4,2.9-2,4.1c-1.5,1.2-2.8,0.2-4.5,1c-0.4-2.5,2.3-2.2,3.1-3.7
	c-1.9-0.3-3.1,1.9-5.3,1.9c-2-0.1-2.9-1.3-4-2.8c-2.5,0.3-4-0.4-4.5-1.9c1.2,0.5,4.8,0.9,5.6-0.8c-0.8,0.4-2.3,0.2-2.5-0.6
	c2.7-1,1.1-4.6,4.2-5.1C118,5.1,124.2,6.2,125.2,8.5 M112.1,24.8c0.1-1.1,0.5-2,1.3-2.4c2.7-1.3,6.2,5.4,8.5,4.6
	c0.7-0.2,0.5-1,2.1-1.3c-2.1-0.5-0.7-1.9-1.7-3.1c6.1,0,5.2,7.4,0.5,8.1c-4.9,0.8-5.6-2.2-9.1-3.1c-0.4-0.1-0.6,0.2-0.5,0.5
	c0.7,2.4,2.7,3.8,5.6,3.4c3.1-0.4,5.7-0.1,6.5,2.2c-2.1-0.4-2.7,1.6-4.9,0.4c0.3,1.3,1.5,0.7,2.9,1.6c1.9,1.3,2,3.5,4,3.4
	c1.1-0.1,2.9-1,2.2-2c-0.6-1-1.7,0.2-2.7-1.8c4.5-2,5.5,4.2,2.9,6.1c-2.8,2-7.7,1.9-10.3-0.3c-1.1-1-1.2-2.7-2.7-2.8
	c0.4,1.7-1.5,2.2-0.2,3.7c-1.4,0.2-2.7-0.9-3.3-1.8c-1.9-3.1,0.5-7.9-2.8-9.9c-1.8,1.4,0.4,3.6,0,5.9c-0.4,2.7-3.7,5-6.7,3.3
	c0.6-0.4,0.8-1.3,0.6-1.9c-1.9,1.5-5.1-1.1-3.1-2.7c0.1,0.8,1,1.5,2.2,1.6c4.2,0.3,2.1-4.9,2-6.5c-0.2-2.9,1.1-4.8,4-5.1
	c-0.1-1.5-2.1-4.5-2.3-5.4C109.2,20.3,110.9,23.8,112.1,24.8 M114.6,32.9c2.4,2.7,6,5.5,11,7.4c-5.7-2.9-11.8-7.8-14.7-14
	C111.1,28.3,113.5,31.6,114.6,32.9 M106.2,20.6c-0.2,0-0.4-0.2-0.3-0.5c0-0.4,0.4-0.4,0.6-0.3c0.2,0,0.3,0.3,0.2,0.5
	C106.7,20.5,106.4,20.7,106.2,20.6 M117.6,1.5c-0.1,0.2-0.3,0.4-0.6,0.4c-0.2-0.1-0.4-0.2-0.4-0.6c0.1-0.4,0.4-0.4,0.7-0.3
	C117.5,1,117.6,1.3,117.6,1.5 M111.3,0.3c1.9,0.4,2.5-0.4,2.3-1.2h3.2c0,0.9-0.3,1.7-1.1,2.4C114.7,2.4,111.5,2.8,111.3,0.3
	 M115.9,2.2c0.2,0,0.3,0.3,0.3,0.5c-0.1,0.2-0.3,0.4-0.6,0.4c-0.2-0.1-0.4-0.2-0.4-0.6C115.3,2.1,115.7,2.1,115.9,2.2 M111.9,3.2
	c-0.2-0.1-0.4-0.2-0.4-0.6c0.1-0.4,0.4-0.4,0.7-0.3c0.2,0,0.3,0.3,0.3,0.5C112.4,3.1,112.2,3.3,111.9,3.2 M113.8,3.6
	c-0.2-0.1-0.4-0.2-0.4-0.6c0.1-0.4,0.4-0.4,0.7-0.3c0.2,0,0.3,0.3,0.3,0.5C114.3,3.5,114.1,3.7,113.8,3.6 M114,7.1
	c-0.8-0.2-1.7-0.3-2,0.4c-0.7,1.8,1.6,2.4,3.1,2.8c-1.9,0.8-4.6,1.1-6,0c-1.5-1.1-0.8-4-2.9-4.3c-1.1-0.1-1.4,0.6-1.6,1.3
	c-1.6-3.3,3.6-4.9,4.7-2.1C111.1,4.1,113.8,5.2,114,7.1 M7.7,27.6c0.7-0.2,0.5-1,2.1-1.3c-2.1-0.5-0.7-1.9-1.7-3.1
	c6.1,0,5.2,7.4,0.5,8.1C4,32,3.1,29.4,0.2,28.4v-5.5C2.7,23.2,5.6,28.3,7.7,27.6 M1.7,2.8C1.9,2.8,2,3.1,2,3.3
	C1.9,3.6,1.6,3.8,1.4,3.7C1.2,3.7,1,3.5,1,3.2C1.1,2.8,1.5,2.8,1.7,2.8 M0,2.8v-3h2.6c0,0.9-0.3,1.7-1.1,2.4C1.2,2.4,0.6,2.7,0,2.8
	 M70.2,1.6C70.3,2,70,2.1,69.8,2.2c-0.2,0.1-0.5-0.2-0.6-0.4s0.1-0.5,0.3-0.5C69.7,1.2,70.1,1.2,70.2,1.6 M3.4,0.8
	C3.2,0.7,2.9,0.6,3,0.2s0.4-0.4,0.7-0.3C3.9,0,4,0.2,3.9,0.4C3.9,0.6,3.6,0.9,3.4,0.8 M3.3,2.2C3.2,2.4,3,2.6,2.7,2.5
	C2.6,2.5,2.3,2.3,2.4,2c0-0.4,0.4-0.4,0.6-0.4C3.3,1.7,3.4,2,3.3,2.2 M10.9,9.2C10.1,9.7,9.6,8.7,8.1,9c-1.4,0.2-2.6,1.4-2.5,2.4
	c0.6-1.3,2.3-2.1,4-1.4c-1.2,0.4-2.4,3.4,0,4.2c-1.1,2.4,2,3.3,3.9,3c-1.8,1.1-0.4,2.9-2,4.1c-1.5,1.2-2.8,0.2-4.5,1
	c-0.4-2.5,2.3-2.2,3.1-3.7c-1.9-0.3-3.1,1.9-5.3,1.9c-2-0.1-2.9-1.3-4-2.8c-0.2,0-0.4,0-0.6,0v-1.6C1,15.9,1.6,15.6,1.9,15
	c-0.4,0.3-1.2,0.3-1.7,0.1V14c1.6-1.4,0.7-4.3,3.5-4.7C3.8,5.8,9.9,6.9,10.9,9.2 M0.1,11.3v-0.5C0.3,10.9,0.6,11,0.9,11
	C0.6,11.1,0.3,11.2,0.1,11.3 M14.4,33.1c0.2,0,0.4,0.3,0.4,0.5s-0.3,0.5-0.5,0.4c-0.2,0-0.4-0.1-0.5-0.5
	C13.8,33.2,14.2,33.1,14.4,33.1 M104.9,21.7c-0.2,0-0.4-0.2-0.3-0.5s0.4-0.4,0.6-0.3c0.2,0,0.3,0.3,0.2,0.5
	C105.4,21.5,105.1,21.7,104.9,21.7 M10.3,22.6c0-0.4,0.4-0.4,0.6-0.4c0.2,0,0.4,0.3,0.4,0.5s-0.3,0.5-0.5,0.4
	C10.6,23.1,10.3,23,10.3,22.6 M0.1,3.9C0.1,4,0.1,4,0,4.1V3.5C0.1,3.6,0.2,3.8,0.1,3.9 M52.3,1.6c1-0.2,1.8-0.9,2-2.2h3.1
	c0,0.3-0.1,0.6-0.2,1C56.8,1.6,54,3.5,52.3,1.6 M54.8,8.9c4-0.5,9.8,0.7,9.1,3.3c-0.2,0.8-1,1.2-1.8,1.3c0.4,0.7,0.6,1.5,0.1,2.1
	c-1.8,2.5-7.8-1.6-9.3-4.1c-0.4,3.7,6.2,4,6.5,7.1c0.1,1.4-1,2.7-2.7,3.3c-0.2-4.8-10.4-6.2-6.1-11.5c-3.6-1.2-6.4-4-7.2-3.4
	c2,4.6-7.6,3.2-4.5-0.2c0.2,0.3,0.8,0.7,1.6,0.4c2.4-0.9-1.2-5.3-3.2-7.6h7c-0.3,1-1.4,1.8-2.1,1.8c2.2,3.2,5.3,5.6,10.1,6.4
	c0.5-4.8,8.9-2,11.4-3.8C64.6,10,57.5,6.7,54.8,8.9 M62.5,12.7c0.3-0.1,0.7-0.3,0.6-0.9c-0.1-0.6-0.8-0.6-1.1-0.5
	c-0.4,0.1-0.6,0.6-0.5,0.9C61.6,12.4,62.1,12.8,62.5,12.7 M60.2,14.9c0.1,0.3,0.6,0.7,1,0.6c0.3-0.1,0.7-0.3,0.6-0.9
	C61.7,14,61.1,14,60.7,14C60.3,14.1,60.1,14.6,60.2,14.9 M73.3,14.1c-0.1,0.8-1.7,1.1-2.5,0.6c0.8,1.7,4.4,1.2,5.7,0.7
	c-0.6,1.4-2.1,2.2-4.5,1.9c-1.1,1.5-2,2.8-4,2.9c-2.3,0.1-3.5-2.1-5.4-1.8c0.8,1.4,3.5,1.1,3.1,3.6c-1.7-0.9-3,0.2-4.5-1
	c-1.6-1.3-0.3-3-2.1-4.1c1.9,0.3,5-0.6,3.8-3c2.4-0.9,1.2-3.9,0-4.2c1.7-0.7,3.4,0.1,4,1.4c0.1-1.1-1.1-2.2-2.5-2.4
	c-1.6-0.2-2,0.8-2.9,0.2c1-2.3,7.1-3.5,7.4,0.2C72.1,9.4,70.7,13.1,73.3,14.1 M69.2,0.4C69,0.5,68.7,0.2,68.6,0s0.1-0.5,0.3-0.5
	c0.2,0,0.6,0,0.7,0.3C69.6,0.2,69.3,0.4,69.2,0.4 M70.6,3c-0.1-0.2,0.1-0.5,0.3-0.5c0.2-0.1,0.6,0,0.7,0.3c0.1,0.4-0.2,0.5-0.4,0.6
	C71,3.4,70.7,3.2,70.6,3 M31.8,7.2c0.8,0.3,1.4-0.1,1.6-0.4C36.6,10.1,27,11.7,29,7c-0.8-0.6-3.5,2.2-7.1,3.5
	c4.4,5.3-5.8,6.8-6,11.6c-1.6-0.5-2.8-1.8-2.7-3.2c0.2-3.1,6.8-3.4,6.4-7.1c-1.5,2.4-7.5,6.7-9.3,4.2c-0.4-0.6-0.2-1.4,0.1-2.1
	c-0.8-0.1-1.6-0.5-1.8-1.3C8,10,13.7,8.7,17.7,9.2C15.1,7,8,10.3,8.9,4.3c2.5,1.8,10.9-1.1,11.2,3.6c4.7-0.9,7.8-3.3,10-6.6
	c-0.7,0-1.8-0.8-2.1-1.8h7C32.9,1.9,29.4,6.3,31.8,7.2 M10.7,11.5c-0.4-0.1-1-0.1-1.1,0.6C9.5,12.7,9.9,13,10.2,13
	c0.4,0.1,0.8-0.3,1-0.6C11.3,12,11,11.5,10.7,11.5 M12,14.3c-0.4-0.1-1-0.1-1.1,0.6c-0.1,0.6,0.3,0.9,0.6,0.9c0.4,0.1,0.8-0.3,1-0.6
	C12.6,14.9,12.3,14.4,12,14.3 M15.3,0.6c-0.1-0.3-0.2-0.7-0.2-1h3.1c0.2,1.3,1.1,2,2,2.2C18.6,3.7,15.8,1.8,15.3,0.6 M52.5,0.6
	c-1.3,0.6-3.3,0.2-4-1c0.4,0.1,0.9,0,1.3-0.2h3.6C53.3-0.2,53.2,0.3,52.5,0.6 M20,0.8c-0.7-0.3-0.8-0.7-0.9-1.2h3.6
	c0.5,0.2,1,0.2,1.3,0.2C23.3,1,21.4,1.4,20,0.8 M37,15.9c3.1-0.3,2.2-4,5.3-4.3c0.3,1.1,0.2,1.9-0.4,2.6c2.4-0.4,2.2-4.1,5.3-3.1
	c-0.5,3.9-3.6,6.9-8.4,5.5c0.1,0.8,1.4,0.9,1.4,1.9c-1.9-0.4-2.1,3-3.8,3.1l0,0c-1.7-0.1-2-3.5-3.8-3.1c0-1,1.3-1,1.4-1.9
	c-4.9,1.4-8-1.6-8.5-5.4c3.2-1.1,3,2.7,5.4,3c-0.7-0.7-0.8-1.5-0.5-2.6c3.1,0.2,2.3,4,5.4,4.2c-1.1-0.7-2.1-2.7-1.4-3.8
	c1.7-2.7,1.8-7,1.9-8.2l0,0l0,0l0,0c0.2,1.1,0.3,5.5,2,8.1C39,13.2,38.1,15.2,37,15.9 M165.4,53.6c0.1,0.5-0.2,0.7-0.5,0.8
	s-0.7-0.2-0.8-0.5s0.1-0.7,0.4-0.8C164.8,53.1,165.3,53.1,165.4,53.6 M204.8,36.8c-0.1-0.2,0-0.5,0.2-0.5s0.5,0,0.6,0.3
	c0.1,0.4-0.2,0.5-0.3,0.5C205.1,37.2,204.9,37,204.8,36.8 M185.3,54.9c0.2,0.4-0.2,0.7-0.6,0.6c-0.4-0.2-0.4-0.6-0.1-0.8
	C184.8,54.5,185.2,54.6,185.3,54.9 M172.9,51.8c3.3-1.2,6.3-0.1,8.3,1.6c0.5-3.2-5.1-2.4-7.4-3.6c-0.1-1.7,1.2-2.2,2.2-3.3
	c0.9-0.9,0.5-1.6,1.8-2c4.8-1.6,4.8,4.5,7.2,6.7c0.9-2.6-1.7-5.7-3.4-7.1c1.6-0.7,3.7-0.8,5.6-0.2c3.3,1,1,6-0.4,7.9
	c2.5-0.6,3.4-3.4,2.6-6.3c1.3-0.2,2.2,2,3.3,3.4c0.9,1,2.4,3.8-2.8,5.3c2.1,1.2,6,2.4,5.5,5c-0.2,1-1.2,0.6-1.9,1.2
	c-0.7,0.7-0.8,2.6-2.6,2.5c0.4-2.2-0.6-4.2-3-5.1c0.9,1.8,2.4,4.7,0.7,6.5c-1,1-4.3,2.2-6.2,1.5c1.6-0.4,3.9-5.5,1.5-7.1
	c0.2,1.4-0.3,5.6-2.9,6.7c-1.6,0.7-4.1,0.4-4-1.4c-1.5-0.2-2.4-1-2.5-2.4c3.2-0.5,5.7-1.6,6.4-4.3c-1.9,2.1-3.6,3-6.1,3.1
	c-2.3-0.1-2.5-3.4-1.8-4.1C171.9,54.9,172,53,172.9,51.8 M181.6,56.7c0.9,1.5,1.5-1.7,2.6-1c0.8,0.5-1.6,1.9-0.4,2.4
	c2.3,0.9,0.7-2,1.5-2.2s1.5,2.5,2.5,1.2c0.8-1.1-1.9-1.3-1.9-1.9c0-1,3.2-0.5,2.1-1.8c-1-1.3-1.6,1.4-2.7,0.9
	c-0.8-0.4,1.3-2.2-0.4-2.3c-1.8-0.1,0.2,2-0.6,2.4c-0.7,0.4-1.4-2.1-2.3-1.2c-1.2,1.4,1.7,1,1.6,1.8
	C183.7,55.8,180.8,55.3,181.6,56.7 M174.3,80.4c0.9-0.3,1.7,0,2.3,0.4c0.2-0.9-1.4-0.7-2.1-1c0-0.5,0.3-0.6,0.6-0.9s0.1-0.5,0.5-0.6
	c1.3-0.4,1.3,1.3,2,1.9c0.2-0.7-0.5-1.6-0.9-2c0.5-0.2,1-0.2,1.6-0.1c0.9,0.3,0.3,1.7-0.1,2.2c0.7-0.2,0.9-1,0.7-1.8
	c0.3,0,0.6,0.6,0.9,0.9c0.2,0.3,0.7,1.1-0.8,1.5c0.6,0.3,1.7,0.7,1.5,1.4c-0.1,0.3-0.3,0.2-0.5,0.3c-0.2,0.2-0.2,0.7-0.7,0.7
	c0.1-0.6-0.2-1.2-0.8-1.4c0.2,0.5,0.7,1.3,0.2,1.8c-0.3,0.3-1.2,0.6-1.7,0.4c0.5-0.1,1.1-1.5,0.4-2c0.1,0.4-0.1,1.6-0.8,1.9
	c-0.4,0.2-1.2,0.1-1.1-0.4c-0.4-0.1-0.7-0.3-0.7-0.7c0.9-0.1,1.6-0.5,1.8-1.2c-0.5,0.6-1,0.8-1.7,0.9c-0.6,0-0.7-0.9-0.5-1.1
	C174,81.2,174.1,80.7,174.3,80.4 M159.4,45.6c-1.2-1.2-2.9-3-2.7-4.2c1.2,2.1,6.8,6.6,11,4.2c1.2-0.7,3-3.9,0-3.6
	c-0.5-1.3,2.3-1.9,3.6-0.4c2.5,3-0.5,6.7-4.6,7.1c2.6,1.1,4.9,5.6,2.3,7.7c-1.4,1.2-5.4,1.5-6-0.4c-0.3-0.8,0.2-1.5,0.7-1.8
	c0.1,0.5,1,1.3,2.4,0.4c2.6-1.9-5.3-2.6-7.3-4C157.2,49.6,157.5,45.9,159.4,45.6 M205.8,38.5c0.1,0.4-0.2,0.5-0.3,0.5
	c-0.2,0.1-0.5-0.2-0.5-0.3c-0.1-0.2,0-0.5,0.2-0.5C205.4,38.1,205.7,38.1,205.8,38.5 M14,27c0,0.2-0.3,0.5-0.5,0.4
	c-0.2,0-0.4-0.1-0.5-0.5c0-0.4,0.4-0.4,0.6-0.4C13.9,26.5,14.1,26.8,14,27 M154.1,54.2c3.4-2.1,5.6,0.5,4.3,3.2c0.4,0,2.4-1.7,3.6-1
	c-2.6,1.5-2.9,5.5-6.3,4.9c-0.1-1.1,0.2-1.7,1.1-2.2C154.7,57.4,156.6,54.7,154.1,54.2 M146.7,28.3c0.2,0,0.4,0.3,0.3,0.5
	c-0.1,0.2-0.4,0.4-0.6,0.4c-0.2-0.1-0.4-0.2-0.4-0.6C146.1,28.3,146.5,28.3,146.7,28.3 M157.6,28.2c0.2,0,0.6,0,0.7,0.3
	c0.1,0.4-0.2,0.5-0.4,0.6s-0.5-0.2-0.6-0.4C157.3,28.6,157.4,28.3,157.6,28.2 M154.6,28.3c0.2-0.1,0.6,0,0.7,0.3
	c0.1,0.4-0.2,0.5-0.4,0.6s-0.5-0.2-0.6-0.4C154.3,28.6,154.4,28.3,154.6,28.3 M143.4,29.2c-0.2-0.1-0.4-0.2-0.4-0.6
	c0.1-0.4,0.4-0.4,0.7-0.3c0.2,0,0.3,0.3,0.3,0.5C143.9,29,143.7,29.3,143.4,29.2 M147.8,44c0.4-0.9,2.2-3.5,1-4.4
	c-0.8,1.1-1.2,2.5-3.3,2.5c3.1-3,0.7-5.8,3.3-8.3c-3.5,0.5-1.8,5.5-5.5,5.7c0.9-1,1-2.2,0.2-2.4c-0.9-0.2-0.6,1.4-1.1,2
	c-0.7,0.9-3.1,0.3-3.3,1.6c-0.2,1,0.9,1.1,0.7,1.8c-2.9-0.2-4.5-3-3.2-5.1c0.9-1.4,3.8-1.1,4-2.9c-1.4,0-1.9,0.9-3.6,0.6
	c0.2-3.4,5.8-1.9,5.5-5.7c-3.5-0.4-2.5,3.2-5.8,2.9c0.9-1.1,0.8-2.1,0.4-2.6c-1.5,2.4-3.8,1.8-3.3,4.1c-0.7-0.6-1.9-2-1.8-3.6
	c0.2-2.8,4.1-2.3,6-4c-0.7,0.3-2,0.3-2.7,0c0.4-2.9,5.9-1.2,6.7-3.7c-2.2-1.3-3.5,1.5-5.1,1.2c-0.2-0.7-0.1-1.5,0.4-2
	c-1.6,0.6-2.5,3.4-4.8,1.7c-3.7-2.7,5.4-8.9,14.4-6.4c-0.3,0.3-0.6,0.5-0.7,1c2.4,0.4,2.4,3.6,4.4,3.4l0,0c2.1,0.1,2-3.1,4.4-3.5
	c0-0.5-0.4-0.7-0.7-1c9-2.6,18.2,3.5,14.5,6.2c-2.3,1.7-3.3-1.1-4.9-1.6c0.5,0.6,0.7,1.4,0.5,2c-1.6,0.3-3-2.5-5.1-1.2
	c0.8,2.5,6.3,0.7,6.7,3.6c-0.7,0.3-2,0.3-2.7,0c2,1.6,5.9,1.1,6.1,3.9c0.1,1.6-1.1,2.9-1.8,3.6c0.4-2.3-1.9-1.6-3.4-4
	c-0.3,0.5-0.5,1.5,0.5,2.6c-3.3,0.3-2.4-3.3-5.8-2.8c-0.2,3.8,5.4,2.2,5.6,5.7c-1.7,0.3-2.1-0.6-3.6-0.6c0.2,1.8,3.1,1.4,4,2.8
	c1.4,2-0.2,4.9-3.1,5.1c-0.2-0.7,0.8-0.9,0.7-1.8c-0.3-1.3-2.6-0.7-3.4-1.6c-0.5-0.6-0.2-2.3-1.1-2c-0.8,0.2-0.7,1.4,0.2,2.4
	c-3.7-0.2-2.1-5.2-5.6-5.6c2.6,2.5,0.2,5.3,3.4,8.3c-2.1,0.1-2.6-1.3-3.4-2.4c-1.1,0.9,0.7,3.5,1.1,4.4c1.3,3-1.8,5.6-3,6.7l0,0
	C149.7,49.6,146.5,47,147.8,44 M134.8,21.4c-0.3-0.4-1-0.8-1.7-0.3c-0.7,0.6-0.5,1.1-0.3,1.4c0.3,0.4,1.1,0.4,1.6,0.1
	C134.9,22.4,135.1,21.7,134.8,21.4 M136.8,19.2c-0.3-0.3-0.9-0.7-1.4-0.2c-0.6,0.5-0.4,1-0.2,1.2c0.3,0.4,1,0.3,1.3,0.1
	C136.9,20.1,137.1,19.6,136.8,19.2 M138.9,18.2c-0.2-0.2-0.6-0.5-1-0.2c-0.4,0.4-0.3,0.7-0.2,0.9c0.2,0.3,0.7,0.2,1,0.1
	C138.9,18.8,139.1,18.4,138.9,18.2 M140.8,17.5c-0.1-0.1-0.4-0.3-0.7-0.1c-0.3,0.2-0.2,0.5-0.1,0.6c0.1,0.2,0.5,0.2,0.6,0.1
	C140.9,17.9,140.9,17.7,140.8,17.5 M166.9,22.5c0.4,0.2,1.3,0.3,1.6-0.1c0.2-0.3,0.4-0.9-0.3-1.4c-0.7-0.6-1.4-0.1-1.7,0.3
	C166.2,21.5,166.4,22.2,166.9,22.5 M164.8,20.2c0.4,0.2,1.1,0.2,1.3-0.1c0.2-0.3,0.4-0.8-0.2-1.2c-0.6-0.5-1.2-0.1-1.4,0.3
	C164.2,19.4,164.4,20,164.8,20.2 M162.6,18.9c0.3,0.2,0.8,0.2,1-0.1c0.1-0.2,0.3-0.6-0.2-0.9c-0.4-0.3-0.9,0-1,0.2
	C162.2,18.3,162.3,18.7,162.6,18.9 M160.6,17.9c0.2,0.1,0.5,0.1,0.6-0.1c0.1-0.1,0.2-0.4-0.1-0.6s-0.6,0-0.7,0.1
	C160.3,17.6,160.4,17.8,160.6,17.9 M133.1,31.4c0.2-3.9,8.5-3,9.6-6.4C141.7,27.3,131.7,27.3,133.1,31.4 M142.7,17.4
	c-0.1-0.1-0.3-0.2-0.5-0.1c-0.2,0.2-0.1,0.3-0.1,0.4c0.1,0.1,0.3,0.1,0.5,0C142.8,17.7,142.8,17.5,142.7,17.4 M159,17.2
	c-0.2-0.2-0.4,0-0.5,0.1s0,0.3,0.1,0.4s0.4,0.1,0.4,0C159.1,17.5,159.2,17.3,159,17.2 M168.3,31.2c1.4-4.2-8.7-4-9.7-6.2
	C159.7,28.3,168,27.4,168.3,31.2 M155.6,29.6c0.6-0.4,0.3-1.2,0.4-1.4c1,0,0.6,1.6,1.9,1.3c0.4-0.1,1.1-0.8,1-1.2
	c-0.2-0.8-1.9-0.4-2.3-1.2c0.8-0.2,2.3-0.1,2.2-0.8c0-0.5-0.8-0.5-1.6-0.4c0.3-0.3,0.4-1,0.1-1.8c-0.6,1.9-4,2.8-4.1,0.8
	c0.2,0.5,1.3,0.4,1.8,0.2c0.7-0.4,1-1.2,0.2-1.6c-1.6,2-4.1,0.4-4.6-1.4c-0.5,1.8-3,3.5-4.6,1.5c-0.8,0.4-0.4,1.3,0.2,1.6
	c0.5,0.2,1.6,0.2,1.8-0.2c-0.1,2-3.4,1.1-4.1-0.7c-0.3,0.7-0.2,1.5,0.1,1.8c-0.7-0.1-1.5-0.1-1.6,0.4c0,0.8,1.4,0.6,2.2,0.8
	c-0.4,0.7-2.1,0.4-2.3,1.2c-0.1,0.4,0.7,1.1,1.1,1.2c1.4,0.3,0.9-1.3,1.9-1.3c0.1,0.2-0.2,1,0.4,1.4c0.7,0.5,1.3,0,1.6-0.4
	c0.6-0.8-0.3-1.3-0.9-1.6c1.7-0.8,2.6-2.4,3.8-3.7c0.5,1.3-0.5,2.2-0.2,3.7c0.1,0.6,0.6,2.1,0.6,2.2c0,0,0.5-1.5,0.6-2.2
	c0.2-1.6-0.7-2.4-0.2-3.7c1.2,1.3,2.1,2.8,3.8,3.6c-0.6,0.3-1.5,0.9-0.9,1.6C154.4,29.7,154.9,30.1,155.6,29.6 M149.6,32.1
	c1-0.1-0.1,1.3,0.2,2c0.1,0.3,0.5,0.5,0.8,0.6c0.3-0.1,0.7-0.2,0.8-0.6c0.3-0.7-0.8-2.1,0.2-2c0.6,0.1,0.8,1.1,1.8,0.8
	c0.7-0.2,1.2-1.3,0.2-2c-0.9-0.6-1.9,1.1-2.2,0.2s2.6-0.4,2.1-1.5c-0.4-0.9-1.2-1.2-1.8-1c-0.5,0.2-0.1,1.4-1.2,1.3
	c-1.1,0.1-0.7-1.1-1.2-1.3c-0.5-0.3-1.4,0.1-1.8,1c-0.5,1.1,2.3,0.6,2.1,1.5c-0.3,1-1.3-0.7-2.2-0.1c-1,0.7-0.6,1.8,0.2,2
	C148.9,33.2,149,32.2,149.6,32.1 M196.9,36.8c-0.2,0.6,0,1.5,0.6,1.9c-2.9,1.7-6.3-0.5-6.7-3.2c-0.4-2.2,1.8-4.5,0-5.9
	c-3.3,2.1-0.8,6.8-2.7,10c-0.5,0.9-1.9,2-3.3,1.8c1.3-1.5-0.7-1.9-0.2-3.7c-1.5,0.2-1.5,1.9-2.7,2.9c-2.6,2.2-7.4,2.5-10.3,0.5
	c-2.5-1.8-1.7-8,2.9-6.1c-1,2-2.1,0.8-2.7,1.8c-0.6,1.1,1.2,2,2.2,2c2,0.1,2.1-2.2,4-3.5c1.4-0.9,2.6-0.3,2.9-1.6
	c-2.2,1.2-2.8-0.8-4.9-0.4c0.8-2.3,3.4-2.6,6.5-2.3c2.9,0.3,4.9-1.1,5.6-3.5c0.1-0.3-0.1-0.6-0.6-0.5c-3.4,0.9-4.1,3.9-9,3.2
	c-4.7-0.7-5.7-8,0.4-8.1c-1,1.2,0.4,2.6-1.7,3.1c1.6,0.3,1.5,1.1,2.2,1.3c2.3,0.7,5.7-6,8.5-4.7c0.8,0.4,1.3,1.3,1.4,2.4
	c1.2-1,2.9-4.5,4.7-5.6c-0.2,0.8-2.2,3.9-2.3,5.4c2.9,0.2,4.2,2.1,4,5c-0.1,1.6-2.2,6.8,2,6.5c1.3-0.1,2.2-0.8,2.2-1.6
	C202,35.6,198.9,38.3,196.9,36.8 M175.9,40c4.9-2,8.5-4.8,10.9-7.6c1.1-1.3,3.5-4.7,3.7-6.7C187.6,32.1,181.7,37.1,175.9,40
	 M201.7,27.9c-0.1-0.2,0-0.5,0.2-0.5c0.2-0.1,0.5,0,0.6,0.3c0.1,0.4-0.2,0.5-0.3,0.5C202.1,28.3,201.8,28.1,201.7,27.9 M205.5,40.7
	c-0.2,0.1-0.5-0.1-0.5-0.3c-0.1-0.2,0.1-0.5,0.2-0.5c0.2,0,0.5,0,0.6,0.3C205.8,40.5,205.6,40.7,205.5,40.7 M199.5,24.7
	c-0.1-0.2,0.1-0.5,0.2-0.5c0.2,0,0.5,0,0.6,0.3c0.1,0.4-0.2,0.5-0.3,0.5C199.9,25.1,199.6,24.8,199.5,24.7 M198.4,23.2
	c-0.1-0.2,0.1-0.5,0.2-0.5c0.2,0,0.5,0,0.6,0.3s-0.2,0.5-0.3,0.5C198.7,23.6,198.4,23.4,198.4,23.2 M201.1,26.5
	c-0.2,0.1-0.5-0.1-0.5-0.3c-0.1-0.2,0-0.5,0.2-0.5c0.2-0.1,0.5,0,0.6,0.3C201.5,26.3,201.3,26.4,201.1,26.5 M193.4,46
	c-2.7-2.7,1.3-4.6,2.4-4.4c-0.8,0.7-1.5,2.1,0.5,2.8c3.7,1.5,3.4-3.9,6.4-4.8C203.5,44.5,197.2,49.7,193.4,46 M205.3,42.5
	c-0.2,0.1-0.5-0.1-0.5-0.3c-0.1-0.2,0-0.5,0.2-0.5s0.5,0,0.6,0.3C205.6,42.4,205.4,42.5,205.3,42.5 M204.5,35.1
	c-0.1-0.2,0-0.5,0.2-0.5s0.5,0,0.6,0.3s-0.2,0.5-0.3,0.5C204.8,35.5,204.6,35.3,204.5,35.1 M204.1,33.3c-0.1-0.2,0-0.5,0.2-0.5
	s0.5,0,0.6,0.3s-0.2,0.5-0.3,0.5C204.4,33.7,204.1,33.5,204.1,33.3 M100.2,27c-0.2-0.1-0.4-0.2-0.3-0.5c0-0.4,0.4-0.4,0.6-0.3
	c0.2,0,0.3,0.3,0.2,0.5C100.7,26.9,100.4,27.1,100.2,27 M149.6,56c-0.2,0-0.4-0.1-0.5-0.5c0-0.4,0.4-0.4,0.6-0.4
	c0.2,0,0.4,0.3,0.4,0.5C150,55.8,149.8,56,149.6,56 M96.5,42.3c0.2,0,0.3,0.3,0.2,0.5c-0.1,0.2-0.3,0.4-0.5,0.3
	c-0.2,0-0.4-0.2-0.3-0.5C96,42.3,96.3,42.3,96.5,42.3 M96.3,38.8c0.2,0,0.3,0.3,0.2,0.5c-0.1,0.2-0.3,0.4-0.5,0.3
	c-0.2-0.1-0.4-0.2-0.3-0.5C95.8,38.8,96.1,38.7,96.3,38.8 M197,22c-0.1-0.2,0-0.5,0.2-0.5s0.5,0,0.6,0.3c0.1,0.4-0.2,0.5-0.3,0.5
	C197.3,22.4,197.1,22.1,197,22 M96.4,36.9c0.2,0,0.3,0.3,0.2,0.5c-0.1,0.2-0.3,0.4-0.5,0.3c-0.2-0.1-0.4-0.2-0.3-0.5
	C95.9,36.9,96.2,36.9,96.4,36.9 M99.1,28.9c-0.2,0-0.4-0.2-0.3-0.5c0-0.4,0.4-0.4,0.6-0.3c0.2,0,0.3,0.3,0.2,0.5
	C99.5,28.7,99.3,28.9,99.1,28.9 M102.4,24.1c-0.2,0-0.4-0.2-0.3-0.5c0-0.4,0.4-0.4,0.6-0.3c0.2,0,0.3,0.3,0.2,0.5
	C102.9,23.9,102.6,24.1,102.4,24.1 M101.3,25.6c-0.2,0-0.4-0.2-0.3-0.5c0-0.3,0.4-0.4,0.6-0.3c0.2,0,0.3,0.3,0.2,0.5
	C101.7,25.4,101.5,25.6,101.3,25.6 M105.3,44.9c2-0.8,1.3-2.1,0.4-2.8c1.1-0.2,5.1,1.6,2.4,4.4c-3.7,3.8-10.1-1.4-9.3-6.3
	C101.8,41,101.6,46.4,105.3,44.9 M103.7,22.8c-0.2,0-0.4-0.2-0.3-0.5c0-0.4,0.4-0.4,0.6-0.3c0.2,0,0.3,0.3,0.2,0.5
	C104.2,22.7,104,22.9,103.7,22.8 M95.7,40.8c0-0.3,0.4-0.4,0.6-0.3c0.2,0,0.3,0.3,0.2,0.5c-0.1,0.2-0.3,0.4-0.5,0.3
	C95.9,41.3,95.7,41.2,95.7,40.8 M97.1,33.4c0.2,0,0.3,0.3,0.2,0.5c-0.1,0.2-0.3,0.4-0.5,0.3c-0.2-0.1-0.4-0.2-0.3-0.5
	C96.6,33.3,96.9,33.3,97.1,33.4 M151.3,51.7c0-0.2,0.1-0.5,0.4-0.5c0.2,0,0.6,0,0.6,0.4s-0.3,0.5-0.4,0.5
	C151.5,52.1,151.3,51.9,151.3,51.7 M149.9,52.1c-0.2,0-0.4-0.1-0.5-0.5c0-0.4,0.4-0.4,0.6-0.4c0.2,0,0.4,0.3,0.4,0.5
	C150.3,51.9,150.1,52.1,149.9,52.1 M150,53.5c0-1.1,1.6-1.1,1.7,0C151.7,54.5,150,54.4,150,53.5 M146,61.3c-3.4,0.7-3.7-3.3-6.3-4.8
	c1.3-0.8,3.2,1,3.6,0.9c-1.3-2.7,0.8-5.3,4.2-3.3c-2.5,0.6-0.5,3.3-2.7,4.9C145.8,59.7,146.1,60.2,146,61.3 M152.6,55.5
	c0,0.4-0.3,0.5-0.4,0.5c-0.2,0-0.5-0.2-0.5-0.4s0.1-0.5,0.4-0.5C152.2,55,152.6,55.1,152.6,55.5 M117,55c0.3,0.2,0.3,0.7-0.1,0.8
	c-0.4,0.2-0.8-0.1-0.6-0.6C116.5,55,116.9,54.9,117,55 M108.3,60.9c-0.6-0.6-1.7-0.3-1.9-1.2c-0.6-2.6,3.4-3.9,5.4-5.1
	c-5.3-1.4-3.8-4.3-2.9-5.3c1.2-1.4,2-3.6,3.3-3.4c-0.7,2.9,0.2,5.7,2.7,6.3c-1.4-1.9-3.8-6.9-0.5-7.9c1.8-0.6,3.9-0.5,5.6,0.2
	c-1.6,1.4-4.2,4.5-3.3,7.1c2.4-2.1,2.3-8.2,7.1-6.7c1.3,0.4,0.8,1.1,1.8,2c1,1,2.3,1.5,2.2,3.2c-2.3,1.3-7.9,0.5-7.3,3.7
	c2-1.7,4.9-2.8,8.2-1.7c0.9,1.1,1,3.1-0.2,4.4c0.7,0.7,0.6,4-1.7,4.1c-2.5-0.1-4.2-1-6.1-3c0.8,2.6,3.3,3.8,6.5,4.2
	c-0.1,1.5-0.9,2.2-2.4,2.4c0.1,1.8-2.4,2.1-4,1.4c-2.5-1.1-3.1-5.2-2.9-6.7c-2.4,1.7,0,6.7,1.6,7.1c-2,0.8-5.3-0.4-6.3-1.4
	c-1.7-1.8-0.2-4.7,0.6-6.5c-2.4,0.9-3.3,2.9-2.9,5.1C109.1,63.5,109,61.7,108.3,60.9 M115.7,55.6c0,0.6-2.7,0.9-1.9,1.9
	c1,1.3,1.8-1.4,2.5-1.2c0.8,0.2-0.8,3.1,1.5,2.2c1.2-0.5-1.2-1.9-0.4-2.4c1.1-0.7,1.7,2.5,2.6,1c0.9-1.4-2.1-0.9-2.2-1.7
	s2.9-0.5,1.6-1.8c-0.9-1-1.5,1.6-2.3,1.2c-0.8-0.4,1.2-2.6-0.6-2.4c-1.7,0.1,0.4,2-0.4,2.3c-1,0.5-1.6-2.1-2.7-0.9
	C112.5,55.1,115.7,54.6,115.7,55.6 M136.8,54.6c-0.2-0.1-0.5-0.3-0.5-0.8c0.1-0.5,0.6-0.5,0.9-0.5c0.3,0.1,0.5,0.5,0.4,0.8
	C137.4,54.3,137.1,54.7,136.8,54.6 M130.3,41.7c1.2-1.5,4.1-1,3.6,0.4c-3-0.2-1.2,3,0,3.6c4.1,2.3,9.7-2.2,10.9-4.3
	c0.2,1.3-1.5,3-2.7,4.3c2,0.3,2.3,3.9,0.9,4.9c-2,1.4-9.9,2.2-7.2,4.1c1.3,1,2.3,0.1,2.3-0.4c0.5,0.3,1,1,0.7,1.8
	c-0.6,1.9-4.6,1.6-6,0.4c-2.6-2.1-0.4-6.6,2.2-7.7C130.9,48.5,127.8,44.8,130.3,41.7 M38.8,50.3c0.2,0,0.6,0,0.6,0.4
	s-0.3,0.5-0.5,0.5s-0.5-0.2-0.5-0.4C38.4,50.6,38.6,50.3,38.8,50.3 M33.5,44.6c0.4-0.9,2.2-3.5,1-4.4c-0.8,1.1-1.2,2.5-3.3,2.5
	c3.1-3,0.7-5.8,3.3-8.3c-3.5,0.5-1.8,5.5-5.5,5.7c0.9-1,1-2.2,0.2-2.4c-0.9-0.2-0.6,1.4-1.1,2c-0.7,0.9-3.1,0.4-3.3,1.6
	c-0.2,1,0.9,1.1,0.7,1.8c-2.9-0.2-4.5-3-3.2-5.1c0.9-1.4,3.8-1.1,4-2.9c-1.4,0-1.9,0.9-3.6,0.6c0.2-3.4,5.8-1.9,5.5-5.7
	c-3.5-0.4-2.5,3.2-5.8,2.9c0.9-1.1,0.8-2.1,0.4-2.6c-1.5,2.4-3.8,1.8-3.3,4.1c-0.7-0.6-1.9-2-1.8-3.6c0.2-2.8,4.1-2.3,6-4
	c-0.7,0.3-2,0.3-2.7,0c0.4-2.9,5.9-1.2,6.7-3.7c-2.2-1.3-3.5,1.5-5.1,1.2c-0.2-0.7-0.1-1.5,0.4-2c-1.6,0.6-2.5,3.4-4.8,1.7
	c-3.7-2.7,5.4-8.9,14.4-6.4c-0.3,0.3-0.6,0.5-0.7,1c2.4,0.4,2.4,3.6,4.4,3.4l0,0c2.1,0.1,2-3.1,4.4-3.5c0-0.5-0.4-0.7-0.7-1
	c9-2.6,18.2,3.5,14.5,6.2c-2.3,1.7-3.3-1.1-4.9-1.6c0.5,0.6,0.7,1.4,0.5,2c-1.6,0.3-3-2.5-5.1-1.2c0.8,2.5,6.3,0.7,6.7,3.6
	c-0.7,0.3-2,0.3-2.7,0c2,1.6,5.9,1.1,6.1,3.9c0.1,1.6-1.2,2.9-1.8,3.6c0.4-2.3-1.9-1.6-3.4-4c-0.3,0.5-0.5,1.5,0.5,2.6
	c-3.3,0.3-2.4-3.3-5.8-2.8c-0.2,3.8,5.4,2.2,5.6,5.7c-1.7,0.3-2.1-0.6-3.6-0.6c0.2,1.8,3.1,1.4,4,2.8c1.4,2-0.2,4.9-3.1,5.1
	c-0.2-0.7,0.8-0.9,0.7-1.8c-0.3-1.3-2.6-0.7-3.4-1.6c-0.5-0.6-0.2-2.3-1.1-2C43,37.8,43.1,39,44,40c-3.7-0.2-2.1-5.2-5.6-5.6
	c2.6,2.5,0.2,5.3,3.4,8.3c-2.1,0.1-2.6-1.3-3.4-2.4c-1.1,0.9,0.7,3.5,1.1,4.4c1.3,3-1.8,5.6-3,6.7l0,0
	C35.4,50.2,32.3,47.6,33.5,44.6 M20.5,22c-0.3-0.4-1-0.8-1.7-0.3c-0.7,0.6-0.5,1.1-0.3,1.4c0.3,0.4,1.1,0.4,1.6,0.1
	C20.6,23.1,20.8,22.4,20.5,22 M22.6,19.9c-0.3-0.3-0.9-0.7-1.4-0.2c-0.6,0.5-0.4,1-0.2,1.2c0.3,0.4,1,0.3,1.3,0.1
	C22.6,20.8,22.8,20.2,22.6,19.9 M24.6,18.8c-0.2-0.2-0.6-0.5-1-0.2c-0.4,0.4-0.3,0.7-0.2,0.9c0.2,0.3,0.7,0.2,1,0.1
	C24.7,19.5,24.8,19.1,24.6,18.8 M26.6,18.2c-0.1-0.1-0.4-0.3-0.7-0.1c-0.3,0.2-0.2,0.5-0.1,0.6c0.1,0.2,0.5,0.2,0.6,0.1
	C26.6,18.6,26.7,18.3,26.6,18.2 M52.6,23.1c0.4,0.2,1.3,0.3,1.6-0.1c0.2-0.3,0.4-0.9-0.3-1.4c-0.7-0.6-1.4-0.1-1.7,0.3
	C51.9,22.2,52.2,22.9,52.6,23.1 M50.5,20.8c0.4,0.2,1.1,0.2,1.3-0.1c0.2-0.3,0.4-0.8-0.2-1.2c-0.6-0.5-1.2-0.1-1.4,0.3
	C49.9,20.1,50.1,20.6,50.5,20.8 M48.3,19.5c0.3,0.2,0.8,0.2,1-0.1c0.1-0.2,0.3-0.6-0.2-0.9c-0.4-0.3-0.9,0-1,0.2
	C47.9,18.9,48.1,19.4,48.3,19.5 M46.3,18.6c0.2,0.1,0.5,0.1,0.6-0.1c0.1-0.1,0.2-0.4-0.1-0.6s-0.6,0-0.7,0.1
	C46,18.2,46.1,18.5,46.3,18.6 M18.8,32.1c0.2-3.9,8.5-3,9.6-6.4C27.5,28,17.4,27.9,18.8,32.1 M28.5,18c-0.1-0.1-0.3-0.2-0.5-0.1
	c-0.2,0.2-0.1,0.3-0.1,0.4c0.1,0.1,0.3,0.1,0.4,0C28.5,18.3,28.6,18.1,28.5,18 M44.7,17.8c-0.2-0.2-0.4,0-0.5,0.1s0,0.3,0.1,0.4
	s0.4,0.1,0.4,0C44.9,18.2,44.9,18,44.7,17.8 M54,31.9c1.4-4.2-8.7-4-9.7-6.2C45.5,29,53.8,28,54,31.9 M41.3,30.3
	c0.6-0.4,0.3-1.2,0.4-1.4c1,0,0.6,1.6,1.9,1.3c0.4-0.1,1.1-0.8,1-1.2c-0.2-0.8-1.9-0.4-2.3-1.2c0.8-0.2,2.3-0.1,2.2-0.8
	c0-0.5-0.8-0.5-1.6-0.4c0.3-0.3,0.4-1,0.1-1.8c-0.6,1.9-4,2.8-4.1,0.8c0.2,0.5,1.3,0.4,1.8,0.2c0.7-0.4,1-1.2,0.2-1.6
	c-1.6,2-4.1,0.4-4.6-1.4c-0.5,1.8-3,3.5-4.6,1.5c-0.8,0.4-0.4,1.3,0.2,1.6c0.5,0.3,1.6,0.2,1.8-0.2c-0.1,2-3.4,1.1-4.1-0.7
	c-0.3,0.7-0.2,1.5,0.1,1.8c-0.7-0.1-1.5-0.1-1.6,0.4c0,0.8,1.4,0.6,2.2,0.8c-0.4,0.7-2.1,0.4-2.3,1.2c-0.1,0.4,0.7,1.1,1.1,1.2
	c1.4,0.3,0.9-1.3,1.9-1.3c0.1,0.2-0.2,1,0.4,1.4c0.7,0.5,1.2,0,1.6-0.4c0.6-0.8-0.3-1.3-0.9-1.6c1.7-0.8,2.6-2.4,3.8-3.7
	c0.5,1.3-0.5,2.2-0.2,3.7c0.1,0.6,0.6,2.1,0.6,2.2c0,0,0.5-1.5,0.6-2.2c0.2-1.6-0.7-2.4-0.3-3.7c1.2,1.3,2.1,2.8,3.8,3.6
	c-0.6,0.3-1.5,0.9-0.9,1.6C40.1,30.3,40.6,30.8,41.3,30.3 M35.4,32.7c1-0.1-0.1,1.3,0.2,2c0.1,0.3,0.5,0.5,0.8,0.6
	c0.3-0.1,0.7-0.2,0.8-0.6c0.3-0.7-0.8-2.1,0.2-2c0.6,0.1,0.8,1.1,1.8,0.8c0.7-0.2,1.2-1.3,0.2-2c-0.9-0.5-1.9,1.1-2.2,0.2
	c-0.3-0.9,2.6-0.4,2.1-1.5c-0.4-0.9-1.2-1.2-1.8-1c-0.5,0.2-0.1,1.4-1.1,1.3c-1.1,0.1-0.7-1.1-1.2-1.3c-0.5-0.3-1.4,0.1-1.8,1
	c-0.5,1.1,2.3,0.6,2.1,1.5c-0.3,1-1.3-0.7-2.2-0.1c-1,0.7-0.6,1.8,0.2,2C34.6,33.9,34.7,32.8,35.4,32.7 M40.4,28.9
	c0.2-0.1,0.6,0,0.7,0.3c0.1,0.4-0.2,0.5-0.4,0.6s-0.5-0.2-0.6-0.4C40,29.3,40.2,29,40.4,28.9 M39.9,54.8c3.4-2.1,5.6,0.5,4.3,3.2
	c0.4,0,2.4-1.7,3.6-1c-2.6,1.5-2.9,5.5-6.3,4.9c-0.1-1.1,0.2-1.7,1.1-2.2C40.4,58.1,42.4,55.4,39.9,54.8 M51.1,54.3
	c0.1,0.5-0.2,0.7-0.5,0.8s-0.7-0.2-0.8-0.5s0.1-0.7,0.4-0.8C50.5,53.7,51,53.7,51.1,54.3 M45.2,46.3c-1.2-1.2-2.9-3-2.7-4.2
	c1.2,2.1,6.8,6.6,11,4.2c1.2-0.7,3-3.9,0-3.6c-0.5-1.3,2.3-1.9,3.6-0.4c2.5,3-0.5,6.7-4.6,7.1c2.6,1.1,4.9,5.6,2.3,7.7
	c-1.4,1.2-5.4,1.5-6-0.4c-0.3-0.8,0.2-1.5,0.7-1.8c0.1,0.5,1,1.3,2.4,0.4c2.6-1.9-5.3-2.6-7.3-4C42.9,50.2,43.2,46.6,45.2,46.3
	 M43.4,28.9c0.2,0,0.6,0,0.7,0.3c0.1,0.4-0.2,0.5-0.4,0.6s-0.5-0.2-0.6-0.4C43,29.2,43.2,28.9,43.4,28.9 M71.1,55.6
	c0.2,0.4-0.2,0.7-0.6,0.6c-0.4-0.2-0.4-0.6-0.1-0.8C70.5,55.2,70.9,55.2,71.1,55.6 M35.6,52.8c-0.2,0-0.4-0.1-0.5-0.5
	c0-0.4,0.4-0.4,0.6-0.4c0.2,0,0.4,0.3,0.4,0.5C36.1,52.5,35.8,52.8,35.6,52.8 M29.2,29.8c-0.2-0.1-0.4-0.2-0.4-0.6
	c0.1-0.4,0.4-0.4,0.7-0.3c0.2,0,0.3,0.3,0.3,0.5C29.7,29.7,29.4,29.9,29.2,29.8 M32.5,29c0.2,0.1,0.4,0.3,0.3,0.5
	c-0.1,0.2-0.4,0.4-0.6,0.4c-0.2-0.1-0.4-0.2-0.4-0.6C31.8,28.9,32.2,28.9,32.5,29 M90.3,35.7c-0.1-0.2,0-0.5,0.2-0.5s0.5,0,0.6,0.3
	S90.9,36,90.8,36C90.6,36.1,90.3,35.9,90.3,35.7 M89.8,33.9c-0.1-0.2,0-0.5,0.2-0.5s0.5,0,0.6,0.3s-0.2,0.5-0.3,0.5
	C90.1,34.3,89.9,34.1,89.8,33.9 M79.2,46.6c-2.7-2.7,1.3-4.6,2.4-4.4c-0.8,0.7-1.5,2.1,0.5,2.8c3.7,1.5,3.4-3.9,6.4-4.8
	C89.2,45.2,82.9,50.4,79.2,46.6 M35.7,54.2c0-1.1,1.6-1.1,1.7,0C37.4,55.2,35.7,55.1,35.7,54.2 M13.4,24.7c0.2,0,0.4,0.3,0.4,0.5
	s-0.3,0.5-0.5,0.4c-0.2,0-0.4-0.1-0.5-0.5C12.8,24.8,13.2,24.7,13.4,24.7 M87.5,28.6c-0.1-0.2,0-0.5,0.2-0.5s0.5,0,0.6,0.3
	c0.1,0.4-0.2,0.5-0.3,0.5C87.8,29,87.6,28.8,87.5,28.6 M90.6,37.5c-0.1-0.2,0-0.5,0.2-0.5s0.5,0,0.6,0.3s-0.2,0.5-0.3,0.5
	C90.9,37.9,90.6,37.7,90.6,37.5 M91.5,39.1c0.1,0.4-0.2,0.5-0.3,0.5c-0.2,0.1-0.5-0.1-0.5-0.3c-0.1-0.2,0-0.5,0.2-0.5
	C91.1,38.8,91.5,38.8,91.5,39.1 M58.6,52.5c3.3-1.2,6.3-0.1,8.3,1.6c0.5-3.2-5.1-2.4-7.4-3.6c-0.1-1.7,1.2-2.2,2.2-3.3
	c0.9-0.9,0.5-1.6,1.8-2c4.8-1.6,4.8,4.5,7.2,6.7c0.9-2.6-1.7-5.7-3.4-7.1c1.7-0.7,3.7-0.8,5.6-0.2c3.3,1,1,6-0.4,7.9
	c2.5-0.6,3.4-3.4,2.6-6.3c1.2-0.2,2.2,2,3.3,3.4c0.9,1,2.4,3.8-2.8,5.3c2.1,1.2,6,2.4,5.5,5c-0.2,1-1.2,0.6-1.9,1.2
	c-0.7,0.7-0.8,2.6-2.6,2.5c0.4-2.2-0.6-4.2-3-5.1c0.9,1.8,2.4,4.7,0.7,6.5c-1,1-4.3,2.2-6.2,1.5c1.6-0.4,3.9-5.5,1.5-7.1
	c0.2,1.4-0.3,5.6-2.9,6.7c-1.6,0.7-4.1,0.4-4-1.4c-1.5-0.2-2.4-1-2.5-2.4c3.2-0.5,5.7-1.6,6.5-4.3c-1.9,2.1-3.6,3-6,3.1
	c-2.3-0.1-2.5-3.4-1.8-4.1C57.6,55.6,57.8,53.6,58.6,52.5 M67.4,57.4c0.9,1.5,1.5-1.7,2.6-1c0.8,0.5-1.6,1.9-0.4,2.4
	c2.3,0.9,0.7-2,1.5-2.2s1.5,2.5,2.5,1.2c0.8-1.1-1.9-1.3-1.9-1.9c0-1,3.2-0.5,2.1-1.8c-1-1.3-1.6,1.4-2.6,0.9
	c-0.8-0.4,1.3-2.2-0.4-2.3c-1.8-0.1,0.2,2-0.6,2.4c-0.7,0.4-1.4-2.1-2.3-1.2c-1.2,1.4,1.7,1,1.6,1.8C69.5,56.4,66.5,56,67.4,57.4
	 M91.2,41.4c-0.2,0.1-0.4-0.1-0.5-0.3s0-0.5,0.2-0.5s0.5,0,0.6,0.3C91.6,41.2,91.4,41.3,91.2,41.4 M91,43.2
	c-0.2,0.1-0.5-0.1-0.5-0.3c-0.1-0.2,0-0.5,0.2-0.5c0.2-0.1,0.5,0,0.6,0.3C91.4,43,91.2,43.1,91,43.2 M86.9,27.1
	c-0.2,0.1-0.5-0.1-0.5-0.3c-0.1-0.2,0-0.5,0.2-0.5c0.2-0.1,0.5,0,0.6,0.3C87.3,26.9,87,27.1,86.9,27.1 M37,52.3
	c0-0.2,0.1-0.5,0.4-0.5c0.2,0,0.6,0,0.6,0.4s-0.3,0.5-0.4,0.5C37.3,52.8,37,52.5,37,52.3 M22.5,55.2c-0.2-0.1-0.5-0.3-0.5-0.8
	c0.1-0.5,0.6-0.5,0.9-0.5c0.3,0.1,0.5,0.5,0.4,0.8C23.2,55,22.8,55.3,22.5,55.2 M16,42.4c1.2-1.5,4.1-1,3.6,0.4c-3-0.2-1.2,3,0,3.6
	c4.1,2.3,9.7-2.2,10.9-4.3c0.2,1.3-1.5,3-2.7,4.3c2,0.3,2.3,3.9,0.9,4.9c-2,1.4-9.9,2.2-7.2,4.1c1.3,1,2.3,0.1,2.4-0.4
	c0.5,0.3,1,1,0.7,1.8c-0.6,1.9-4.6,1.6-6,0.4c-2.6-2.1-0.4-6.6,2.2-7.7C16.6,49.1,13.5,45.4,16,42.4 M2.8,55.7
	c0.3,0.2,0.3,0.7-0.1,0.8c-0.4,0.2-0.8-0.1-0.6-0.6C2.3,55.6,2.6,55.6,2.8,55.7 M31.8,62c-3.4,0.7-3.7-3.3-6.3-4.8
	c1.3-0.8,3.2,1,3.6,0.9c-1.3-2.7,0.8-5.3,4.2-3.3c-2.5,0.6-0.5,3.3-2.7,4.9C31.6,60.3,31.8,60.8,31.8,62 M38.3,56.1
	c0,0.4-0.3,0.5-0.4,0.5c-0.2,0-0.5-0.2-0.5-0.4s0.1-0.5,0.4-0.5C37.9,55.7,38.3,55.8,38.3,56.1 M5.8,45.1c-1.6,1.4-4.2,4.5-3.3,7.1
	c2.4-2.1,2.3-8.2,7.1-6.7c1.3,0.4,0.8,1.1,1.8,2c1,1,2.3,1.5,2.2,3.2c-2.3,1.2-7.9,0.5-7.3,3.7c2-1.7,4.9-2.8,8.2-1.7
	c0.9,1.1,1,3.1-0.2,4.4c0.7,0.7,0.6,4-1.7,4.1c-2.5-0.1-4.2-1-6.1-3c0.8,2.6,3.3,3.8,6.5,4.2c-0.1,1.5-0.9,2.2-2.4,2.4
	c0.1,1.8-2.4,2.1-4,1.4c-2.5-1.1-3.1-5.2-2.9-6.7c-2.4,1.7,0,6.7,1.6,7.1c-1.4,0.6-3.4,0.2-4.8-0.5v-7.8c0.7-0.2,1.2-1.6,1.8-1.5
	C3.1,57,1.5,59.9,3.8,59c1.2-0.5-1.2-1.9-0.4-2.4c1.1-0.7,1.7,2.5,2.6,1c0.9-1.4-2.1-0.9-2.2-1.7c-0.1-0.8,2.9-0.5,1.6-1.8
	c-0.9-1-1.5,1.6-2.3,1.2c-0.8-0.4,1.2-2.6-0.6-2.4c-1.7,0.1,0.4,2-0.4,2.3c-0.7,0.3-1.1-0.6-1.7-1v-1.5c0.1,0,0.2,0.1,0.4,0.1
	c-0.1-0.2-0.2-0.3-0.4-0.5v-7.4C2.1,44.3,4.1,44.5,5.8,45.1 M1.5,56.2c0,0.3-0.6,0.5-1.1,0.7v-1.4C0.9,55.7,1.5,55.8,1.5,56.2
	 M82.7,37.5c-0.2,0.6,0,1.5,0.6,1.9c-2.9,1.7-6.3-0.5-6.7-3.2c-0.4-2.2,1.8-4.5,0-5.9c-3.3,2.1-0.8,6.8-2.7,10
	c-0.5,0.9-1.9,2-3.3,1.8c1.3-1.5-0.7-1.9-0.2-3.7c-1.5,0.2-1.5,1.9-2.7,2.9c-2.6,2.2-7.4,2.5-10.3,0.5c-2.5-1.8-1.7-8,2.9-6.1
	c-1,2-2.1,0.8-2.7,1.8c-0.6,1.1,1.2,2,2.2,2c2,0.1,2.1-2.2,4-3.5c1.4-0.9,2.6-0.3,2.9-1.6c-2.2,1.2-2.8-0.8-4.9-0.4
	c0.8-2.3,3.4-2.6,6.5-2.3c2.9,0.3,4.9-1.1,5.6-3.5c0.1-0.3-0.1-0.6-0.6-0.5c-3.5,0.9-4.1,3.9-9,3.2c-4.7-0.7-5.7-8,0.4-8.1
	c-1,1.2,0.4,2.6-1.7,3.1c1.6,0.3,1.5,1.1,2.2,1.3c2.3,0.7,5.7-6,8.5-4.7c0.8,0.4,1.3,1.3,1.4,2.4c1.2-1,2.9-4.5,4.7-5.6
	c-0.2,0.8-2.1,3.9-2.3,5.4c2.9,0.2,4.3,2.1,4,5c-0.1,1.6-2.2,6.8,2,6.5c1.3-0.1,2.2-0.8,2.2-1.6C87.8,36.3,84.6,38.9,82.7,37.5
	 M61.7,40.7c4.9-2,8.5-4.8,10.9-7.6c1.1-1.3,3.5-4.7,3.7-6.7C73.4,32.8,67.4,37.8,61.7,40.7 M31.8,47.9c-0.2,0-0.4-0.1-0.5-0.5
	c0-0.4,0.4-0.4,0.6-0.4c0.2,0,0.4,0.3,0.4,0.5S32.1,48,31.8,47.9 M19.2,35.8c-0.2,0-0.4-0.1-0.5-0.5c0-0.4,0.4-0.4,0.6-0.4
	s0.4,0.3,0.4,0.5C19.6,35.6,19.4,35.8,19.2,35.8 M33.2,49.2c0,0.2-0.3,0.5-0.5,0.4c-0.2,0-0.4-0.1-0.5-0.5c0-0.4,0.4-0.4,0.6-0.4
	C33,48.7,33.2,49,33.2,49.2 M32.3,44.4c-0.2,0-0.4-0.1-0.5-0.5c0-0.4,0.4-0.4,0.6-0.4c0.2,0,0.4,0.3,0.4,0.5
	C32.8,44.1,32.5,44.4,32.3,44.4 M17.9,35.4c0,0.2-0.3,0.5-0.5,0.4c-0.2,0-0.4-0.1-0.5-0.5c0-0.4,0.4-0.4,0.6-0.4
	C17.8,35,17.9,35.2,17.9,35.4 M40.6,43.4c0.2,0,0.6,0,0.6,0.4s-0.3,0.5-0.4,0.5c-0.2,0-0.5-0.2-0.5-0.4
	C40.2,43.7,40.4,43.4,40.6,43.4 M39.7,60.4c-0.2,0-0.5-0.2-0.5-0.4s0.1-0.5,0.4-0.5c0.2,0,0.6,0,0.6,0.4
	C40.1,60.2,39.8,60.3,39.7,60.4 M41.8,45.5c0,0.4-0.3,0.5-0.4,0.5c-0.2,0-0.5-0.2-0.5-0.4s0.1-0.5,0.4-0.5
	C41.4,45.1,41.8,45.2,41.8,45.5 M38.5,57.9c0-0.2,0.1-0.5,0.4-0.5c0.2,0,0.6,0,0.6,0.4s-0.3,0.5-0.4,0.5
	C38.7,58.4,38.5,58.1,38.5,57.9 M19.9,44.1c-0.1,0.3-0.4,0.6-0.8,0.5c-0.2-0.1-0.5-0.3-0.5-0.8c0.1-0.5,0.6-0.5,0.9-0.5
	C19.8,43.4,20,43.8,19.9,44.1 M13.2,32.5c-0.2,0-0.4-0.1-0.5-0.5c0-0.4,0.4-0.4,0.6-0.4c0.2,0,0.4,0.3,0.4,0.5
	C13.7,32.3,13.5,32.5,13.2,32.5 M13,29c-0.2,0-0.4-0.1-0.5-0.5c0-0.4,0.4-0.4,0.6-0.4c0.2,0,0.4,0.3,0.4,0.5
	C13.5,28.8,13.3,29,13,29 M15.6,35.2c-0.2,0-0.4-0.1-0.5-0.5c0-0.4,0.4-0.4,0.6-0.4c0.2,0,0.4,0.3,0.4,0.5S15.9,35.2,15.6,35.2
	 M12.4,30.2c0-0.4,0.4-0.4,0.6-0.4c0.2,0,0.4,0.3,0.4,0.5s-0.3,0.5-0.5,0.4C12.6,30.7,12.4,30.6,12.4,30.2 M11.9,23.7
	c0-0.4,0.4-0.4,0.6-0.4c0.2,0,0.4,0.3,0.4,0.5s-0.3,0.5-0.5,0.4C12.2,24.2,11.9,24.1,11.9,23.7 M34.2,58.4c-0.2,0-0.4-0.1-0.5-0.5
	c0-0.4,0.4-0.4,0.6-0.4c0.2,0,0.4,0.3,0.4,0.5C34.7,58.1,34.5,58.4,34.2,58.4 M31.9,45.2c0.2,0,0.4,0.3,0.4,0.5s-0.3,0.5-0.5,0.4
	c-0.2,0-0.4-0.1-0.5-0.5C31.3,45.2,31.6,45.2,31.9,45.2 M34.3,50.3c0.2,0,0.4,0.3,0.4,0.5s-0.3,0.5-0.5,0.4c-0.2,0-0.4-0.1-0.5-0.5
	C33.7,50.4,34.1,50.3,34.3,50.3 M33.6,60.4c-0.2,0-0.4-0.1-0.5-0.5c0-0.4,0.4-0.4,0.6-0.4c0.2,0,0.4,0.3,0.4,0.5
	C34,60.2,33.8,60.4,33.6,60.4 M4.6,32.1c3.1-0.4,5.7-0.1,6.5,2.2c-2.1-0.4-2.7,1.6-4.9,0.4c0.3,1.3,1.5,0.7,2.9,1.6
	c1.9,1.3,2,3.5,4,3.4c1.1-0.1,2.9-1,2.2-2c-0.6-1-1.7,0.2-2.7-1.8c4.5-2,5.5,4.2,2.9,6.1c-2.8,2-7.7,1.9-10.3-0.3
	c-1.1-1-1.2-2.7-2.7-2.8c0.4,1.7-1.5,2.2-0.2,3.7c-0.8,0.1-1.5-0.2-2.2-0.6v-8.5c0,0.1,0.1,0.1,0.1,0.2c2.4,2.7,6,5.5,11,7.4
	c-3.9-2-8-4.9-11.1-8.5V31C1.2,31.9,2.7,32.3,4.6,32.1 M85.3,25.3c-0.1-0.2,0-0.5,0.2-0.5s0.5,0,0.6,0.3c0.1,0.4-0.2,0.5-0.3,0.5
	C85.6,25.7,85.4,25.5,85.3,25.3 M59.2,26.2c0.2,0,0.6,0,0.6,0.4s-0.3,0.5-0.4,0.5c-0.2,0-0.5-0.2-0.5-0.4
	C58.8,26.5,58.9,26.3,59.2,26.2 M58.6,33.8c-0.2,0-0.5-0.2-0.5-0.4s0.1-0.5,0.4-0.5c0.2,0,0.6,0,0.6,0.4
	C59.1,33.6,58.8,33.7,58.6,33.8 M61.5,22.4c0-0.2,0.1-0.5,0.4-0.5c0.2,0,0.6,0,0.6,0.4s-0.3,0.5-0.4,0.5
	C61.8,22.9,61.5,22.6,61.5,22.4 M60.5,30c0,0.4-0.3,0.5-0.4,0.5c-0.2,0-0.5-0.2-0.5-0.4c0-0.2,0.1-0.5,0.4-0.5
	C60.1,29.5,60.5,29.6,60.5,30 M59.3,28.3c0-0.2,0.1-0.5,0.4-0.5c0.2,0,0.6,0,0.6,0.4s-0.3,0.5-0.4,0.5
	C59.6,28.8,59.4,28.5,59.3,28.3 M84.1,23.8c-0.1-0.2,0-0.5,0.2-0.5s0.5,0,0.6,0.3c0.1,0.4-0.2,0.5-0.3,0.5
	C84.4,24.2,84.2,24,84.1,23.8 M82.8,22.6c-0.1-0.2,0-0.5,0.2-0.5s0.5,0,0.6,0.3s-0.2,0.5-0.3,0.5C83.1,23,82.8,22.8,82.8,22.6
	 M59.7,32.2c-0.2,0-0.5-0.2-0.5-0.4c0-0.2,0.1-0.5,0.4-0.5c0.2,0,0.6,0,0.6,0.4C60.1,32.1,59.9,32.2,59.7,32.2 M81.6,21.5
	c-0.1-0.2,0-0.5,0.2-0.5s0.5,0,0.6,0.3c0.1,0.4-0.2,0.5-0.3,0.5C81.9,21.9,81.7,21.6,81.6,21.5 M41.1,46.9c0.2,0,0.6,0,0.6,0.4
	s-0.3,0.5-0.4,0.5c-0.2,0-0.5-0.2-0.5-0.4C40.7,47.2,40.9,47,41.1,46.9 M80.3,20.4c-0.1-0.2,0-0.5,0.2-0.5s0.5,0,0.6,0.3
	s-0.2,0.5-0.3,0.5C80.6,20.8,80.4,20.6,80.3,20.4 M53.6,34.7c0.2,0,0.6,0,0.6,0.4s-0.3,0.5-0.4,0.5c-0.2,0-0.5-0.2-0.5-0.4
	C53.2,35,53.4,34.7,53.6,34.7 M77.9,54.8c2.6,0.5,6.5-1.9,7.6-4.1c-2.3,0.7-4-0.5-4.4-1.6c4.4-0.1,8.1-3.3,8.9-5.4
	c0.7,1.7-0.2,5.4-2.1,8C86.2,54.1,81.4,57,77.9,54.8 M55,35.2c0-0.2,0.1-0.5,0.4-0.5c0.2,0,0.6,0,0.6,0.4s-0.3,0.5-0.4,0.5
	C55.3,35.7,55,35.4,55,35.2 M40.4,49.6c-0.2,0-0.5-0.2-0.5-0.4s0.1-0.5,0.4-0.5c0.2,0,0.6,0,0.6,0.4C40.8,49.5,40.6,49.6,40.4,49.6
	 M59.4,24.4c0.2,0,0.6,0,0.6,0.4s-0.3,0.5-0.4,0.5c-0.2,0-0.5-0.2-0.5-0.4C59,24.7,59.2,24.5,59.4,24.4 M54.4,43.6
	c0.1,0.5-0.2,0.7-0.5,0.8s-0.7-0.2-0.8-0.5s0.1-0.7,0.4-0.8C53.8,43.1,54.3,43.1,54.4,43.6 M56.8,34.5c0-0.2,0.1-0.5,0.4-0.5
	c0.2,0,0.6,0,0.6,0.4s-0.3,0.5-0.4,0.5C57.1,35,56.8,34.7,56.8,34.5 M60.3,23c0.2,0,0.6,0,0.6,0.4s-0.3,0.5-0.4,0.5
	c-0.2,0-0.5-0.2-0.5-0.4C59.9,23.3,60.1,23,60.3,23 M89.4,31.5c0.2,0,0.5,0,0.6,0.3c0.1,0.3-0.2,0.5-0.3,0.5
	c-0.2,0.1-0.5-0.2-0.5-0.3C89.1,31.9,89.2,31.6,89.4,31.5 M88.6,29.8c0.2,0,0.5,0,0.6,0.3c0.1,0.4-0.2,0.5-0.3,0.5
	c-0.2,0.1-0.5-0.1-0.5-0.3C88.3,30.1,88.4,29.8,88.6,29.8"/>
</svg>
