<?xml version="1.0" encoding="utf-8"?>
<!-- Generator: Adobe Illustrator 22.1.0, SVG Export Plug-In . SVG Version: 6.00 Build 0)  -->
<svg version="1.1" xmlns="http://www.w3.org/2000/svg" xmlns:xlink="http://www.w3.org/1999/xlink" width="260" height="264" x="0px"
	 y="0px" viewBox="0 0 260 264" style="enable-background:new 0 0 260 264;" xml:space="preserve">
<style type="text/css">
	.st0{fill:#F2F2F2;}
</style>
<g>
	<polygon class="st0" points="129.9,207.5 126.1,211.6 125,216.6 126.9,219.7 129.9,221.5 132.9,219.7 134.8,216.6 133.7,211.6 	"/>
	<path class="st0" d="M129.9,200.6c-1,0-1.8,0.8-1.8,1.8s0.8,1.8,1.8,1.8s1.8-0.8,1.8-1.8C131.7,201.4,130.9,200.6,129.9,200.6z"/>
	<path class="st0" d="M129.9,193.2c-1,0-1.8,0.8-1.8,1.8s0.8,1.8,1.8,1.8s1.8-0.8,1.8-1.8C131.7,194.1,130.9,193.2,129.9,193.2z"/>
	<polygon class="st0" points="25.3,177.7 22.6,180.5 21.9,184 23.2,186.1 25.3,187.3 27.3,186.1 28.6,184 27.9,180.5 	"/>
	<path class="st0" d="M25.3,175.5c0.7,0,1.2-0.6,1.2-1.2c0-0.7-0.5-1.2-1.2-1.2s-1.2,0.6-1.2,1.2C24,174.9,24.6,175.5,25.3,175.5z"
		/>
	<path class="st0" d="M25.3,170.4c0.7,0,1.2-0.6,1.2-1.2c0-0.7-0.5-1.2-1.2-1.2s-1.2,0.6-1.2,1.2C24,169.9,24.6,170.4,25.3,170.4z"
		/>
	<polygon class="st0" points="235.1,177.7 232.5,180.5 231.8,184 233.1,186.1 235.1,187.3 237.2,186.1 238.5,184 237.8,180.5 	"/>
	<path class="st0" d="M235.1,175.5c0.7,0,1.2-0.6,1.2-1.2c0-0.7-0.5-1.2-1.2-1.2s-1.2,0.6-1.2,1.2
		C233.9,174.9,234.5,175.5,235.1,175.5z"/>
	<path class="st0" d="M235.1,170.4c0.7,0,1.2-0.6,1.2-1.2c0-0.7-0.5-1.2-1.2-1.2s-1.2,0.6-1.2,1.2
		C233.9,169.9,234.5,170.4,235.1,170.4z"/>
	<polygon class="st0" points="130.2,255.7 127.6,258.4 126.9,261.9 128.1,264 130.2,265.2 132.3,264 133.5,261.9 132.8,258.4 	"/>
	<path class="st0" d="M130.2,250.9c-0.7,0-1.2,0.6-1.2,1.2c0,0.7,0.5,1.2,1.2,1.2s1.2-0.6,1.2-1.2
		C131.4,251.4,130.9,250.9,130.2,250.9z"/>
	<path class="st0" d="M130.2,245.8c-0.7,0-1.2,0.6-1.2,1.2c0,0.7,0.5,1.2,1.2,1.2s1.2-0.6,1.2-1.2
		C131.4,246.4,130.9,245.8,130.2,245.8z"/>
	<path class="st0" d="M92.9,88.8c-0.2,0.1-0.4,0.2-0.6,0.5c-0.3,0.5-0.1,1.2,0.4,1.5s1.2,0.1,1.5-0.4c0.1-0.2,0.2-0.5,0.1-0.8
		c8.3,4.1,19.7,3.9,27.3,1.1c0,0,5.4,20.5,4.5,35.1H114c0,0-2.2-1.3-3-5.6c-1.3-2.2-3-1.3-2.6,2.2c0.4,3.4,1.3,4.3,3,6
		c-0.4,0.9,0,4.7,2.6,5.2c0-2.6,3.9-3.5,6.9-3.5s4.3,3.5,3,6c-1.3,2.6,2.2,1.7,2.6,5.6h5.6c0.4-3.9,3.9-3,2.6-5.6c-1.3-2.6,0-6,3-6
		s6.9,0.9,6.9,3.5c2.6-0.4,3-4.3,2.6-5.2c1.7-1.7,2.6-2.6,3-6c0.4-3.5-1.3-4.3-2.6-2.2c-0.9,4.3-3,5.6-3,5.6h-12.1
		c-0.9-14.7,4.5-35.1,4.5-35.1c5.8,2.1,13.7,2.7,20.8,1.1c0.2,0.1,0.4,0.1,0.6,0c0.2,0,0.3-0.1,0.4-0.2c7-1.8,13-5.8,15.2-12.7
		c1.7-5.4,6-11.2,7.3-12.9c-8.2-3.4-10.8,5.2-10.8,5.2s-3-1.7-6.5-1.7s-3.5,5.2-0.4,4.3c3-0.9,6,3.9,2.6,9.1
		c-2.4,2.2-5.3,3.5-8.4,4.1c0-0.2,0-0.3,0-0.5c-0.2-0.6-0.8-0.9-1.3-0.7c-0.6,0.2-0.9,0.8-0.7,1.3c0,0.1,0.1,0.1,0.1,0.2
		c-9.3,1.1-19.1-2.7-19.1-2.7v-7.5h-15.1v7.5c0,0-8.6,3.3-17.3,2.8c0.1-0.1,0.1-0.2,0.2-0.3c0.2-0.6-0.1-1.2-0.7-1.3
		c-0.6-0.2-1.2,0.2-1.3,0.7c-0.1,0.3,0,0.6,0.1,0.8c-2.3-0.3-4.6-0.9-6.7-1.9c-0.1-0.1-0.1-0.1-0.2-0.2s-0.2-0.1-0.3-0.1
		c-1.1-0.6-2.2-1.3-3.1-2.2C89,77.7,92,73,95,73.8c3,0.9,3-4.3-0.4-4.3C91.1,69.3,88,71,88,71s-2.6-8.6-10.8-5.2
		c1.3,1.7,5.6,7.6,7.3,12.9C86,83.3,89.1,86.6,92.9,88.8z"/>
	<polygon class="st0" points="121.9,74.9 136.9,74.9 133.7,66.9 125.1,66.9 	"/>
	<path class="st0" d="M118.4,44.7c2.8,0.1,6.7-3,6.7-3V65h8.5V41.7c0,0,3.9,3.1,6.7,3c2.3,0.2,5.1-0.9,7.6-2.6
		c0.2,0.3,0.6,0.5,1,0.4c0.6-0.1,0.9-0.7,0.8-1.3l-1,0.2c2.5-2.1,4.5-4.9,4.5-7.7c0.1-6.6-7-9.8-10.4-7.2c-3.5,2.6-3.5,6.5-1.7,7.3
		c1.7,0.9,3.5-1.7,3-3c-0.4-1.3,3.2-5.8,5.6-0.9c2.6,5.3-2.2,9.9-7.8,9.1c-5.6-0.9-8.6-12.1-8.6-18.1s10.4-10.4,10.4-14.2h-28.9
		c0,3.9,10.4,8.2,10.4,14.2s-3,17.3-8.6,18.1c-5.6,0.9-10.3-3.8-7.8-9.1c2.4-4.9,6-0.4,5.6,0.9c-0.4,1.3,1.3,3.9,3,3
		s1.7-4.7-1.7-7.3c-3.4-2.6-10.6,0.6-10.4,7.2C105.5,39.4,113.2,45.2,118.4,44.7z"/>
	<path class="st0" d="M129.5,180.9c5.3,15.2,22.4,9.8,23.7,6.8c1.3-3.1,6.6-5.7,8-5.7c1.3,0-1.3-3.1-3.1-3.1
		c1.8-4.9,6.2-6.6,6.2-6.6s8.4-2.2,0.4-4.4s-12.8,6.2-12.8,6.2s2.6,12.4-9.7,12.4c-12.4,0-10.6-43.2-10.6-43.2h-4.1
		c0,0,1.8,43.2-10.6,43.2s-9.7-12.4-9.7-12.4s-4.9-8.4-12.8-6.2c-8,2.2,0.4,4.4,0.4,4.4s4.4,1.8,6.2,6.6c-1.8,0-4.4,3.1-3.1,3.1
		s6.6,2.7,8,5.7C107,190.7,124.2,196.1,129.5,180.9z"/>
	<rect x="114.2" y="-0.7" class="st0" width="30.5" height="5.3"/>
	<path class="st0" d="M14.7,91.8c0,0.1,0,0.3,0,0.4h-1.5v25.5h6.5V92.2H18c0-0.1,0-0.2,0-0.4c0-2.3,1.1-2.1,2.6-3.8
		c3.9-4.6-2-10.5-4.3-15.7C14,77.6,8.1,83.5,12.1,88C13.6,89.7,14.7,89.5,14.7,91.8z"/>
	<polygon class="st0" points="116.3,58.7 117.2,60.3 118.7,61.2 120.2,60.3 121.2,58.7 120.6,56.2 118.7,54.2 116.8,56.2 	"/>
	<path class="st0" d="M118.7,48.8c0.5,0,0.9-0.4,0.9-0.9s-0.4-0.9-0.9-0.9s-0.9,0.4-0.9,0.9C117.8,48.4,118.2,48.8,118.7,48.8z"/>
	<path class="st0" d="M118.7,52.5c0.5,0,0.9-0.4,0.9-0.9s-0.4-0.9-0.9-0.9s-0.9,0.4-0.9,0.9C117.8,52.1,118.2,52.5,118.7,52.5z"/>
	<polygon class="st0" points="77,83.7 78.5,82.8 79.4,81.3 78.9,78.7 77,76.7 75,78.7 74.5,81.3 75.5,82.8 	"/>
	<path class="st0" d="M77,75.1c0.5,0,0.9-0.4,0.9-0.9s-0.4-0.9-0.9-0.9s-0.9,0.4-0.9,0.9S76.5,75.1,77,75.1z"/>
	<path class="st0" d="M77,71.4c0.5,0,0.9-0.4,0.9-0.9s-0.4-0.9-0.9-0.9s-0.9,0.4-0.9,0.9S76.5,71.4,77,71.4z"/>
	<polygon class="st0" points="38.5,136.7 40,135.8 41,134.3 40.4,131.8 38.5,129.8 36.6,131.8 36.1,134.3 37,135.8 	"/>
	<path class="st0" d="M38.5,124.4c0.5,0,0.9-0.4,0.9-0.9s-0.4-0.9-0.9-0.9s-0.9,0.4-0.9,0.9S38,124.4,38.5,124.4z"/>
	<path class="st0" d="M38.5,128.1c0.5,0,0.9-0.4,0.9-0.9s-0.4-0.9-0.9-0.9s-0.9,0.4-0.9,0.9C37.6,127.7,38,128.1,38.5,128.1z"/>
	<polygon class="st0" points="112.3,148 113.2,149.5 114.7,150.4 116.2,149.5 117.1,148 116.6,145.5 114.7,143.5 112.8,145.5 	"/>
	<path class="st0" d="M114.7,138.1c0.5,0,0.9-0.4,0.9-0.9s-0.4-0.9-0.9-0.9s-0.9,0.4-0.9,0.9C113.8,137.7,114.2,138.1,114.7,138.1z"
		/>
	<path class="st0" d="M114.7,141.8c0.5,0,0.9-0.4,0.9-0.9s-0.4-0.9-0.9-0.9s-0.9,0.4-0.9,0.9C113.8,141.4,114.2,141.8,114.7,141.8z"
		/>
	<polygon class="st0" points="8,167.3 6.1,169.3 5.5,171.9 6.5,173.4 8,174.3 9.5,173.4 10.4,171.9 9.9,169.3 	"/>
	<path class="st0" d="M8,165.7c0.5,0,0.9-0.4,0.9-0.9s-0.4-0.9-0.9-0.9s-0.9,0.4-0.9,0.9C7.1,165.3,7.5,165.7,8,165.7z"/>
	<path class="st0" d="M8,162c0.5,0,0.9-0.4,0.9-0.9s-0.4-0.9-0.9-0.9s-0.9,0.4-0.9,0.9C7.1,161.6,7.5,162,8,162z"/>
	<path class="st0" d="M48.2,77.9c0,0.1,0,0.3,0,0.4h-1.5v25.5h6.5V78.2h-1.8c0-0.1,0-0.2,0-0.4c0-2.3,1.1-2.1,2.6-3.8
		c3.9-4.6-2-10.5-4.3-15.7c-2.3,5.2-8.2,11.1-4.3,15.7C47.1,75.8,48.2,75.6,48.2,77.9z"/>
	<path class="st0" d="M65.4,158.3c0.1-0.1,0.2-0.2,0.3-0.4c14.3,8.5,27-1.9,30.2-11.7c1.6-3.5,4.3-9,5.5-10.2c1.8-1.8,2.2-0.4,3.5,0
		s2.6-4.6-0.7-5.3c-2-0.4-3.8,0.5-5,1.3c1.5-7.9,3.2-15.7,5.1-21.4c6.3,0.8,12.3,4.6,15.5,11.3l1.4-0.3c0.2,0.6,0.4,1.2,0.5,1.6
		c2.6,0,2.4-0.4,2.4-0.4c0-2.6-4.1-21-11.4-24.3c-5-2.3-9.1,1.3-12.1,8.3c-0.9,0-1.8,0.1-2.6,0.3c-0.1-0.3-0.3-0.6-0.7-0.7
		c-0.6-0.2-1.2,0.1-1.3,0.7c-0.1,0.2-0.1,0.3,0,0.5c-6.4,1.7-12.4,6.5-16.8,15.3c-1.3,2.6-2.8,5.8-4.5,9.3c-1.2,1.2-6.2,5.7-9.4,5.7
		c1.6,1.8,3.6,2.5,5,2.7c-1.7,3-3.4,5.9-5.3,8.6c-4.3-4-7.7-10.5-9.1-19.6c0.4-3.5,2.6-6.8,3.4-6.9c1-0.1,1.5,2.4,0.7,3.4
		c-0.7,1,0.7,3.4,2.8,1c2.1-2.4-0.6-6.8-4.3-6.2c-1.4,0.2-2.5,0.9-3.2,1.7c0-1.2,0-2.4,0-3.7c0,0-1.3-3-4.1-5v-4.2
		c2.7-0.4,4.9-2.3,5.8-4.8H43c0.9,2.5,3.1,4.4,5.8,4.8v2.9c-2.2-0.8-4.9-0.9-8.2,0.6c-3.1,1.8-4.6,5.3-2.9,7.1c4.3-4,7.4-1,7.8,3.5
		c0.2,2.2,1.5,7.8,4.1,14c-0.1,0.3,0,0.6,0.1,0.8s0.2,0.3,0.4,0.3c2.4,5.4,5.9,11.2,10.7,15.5c-3.1,3.5-6.4,6.2-9.9,7.3
		c-8.6,2.7-16.6-2.4-17.9-3.3c-1.3-0.9-2-1.8-1.1-2.4c1.5-0.9,4.9-4.9,3.5-9.7l0,0l0.4,1c0.5-0.2,0.8-0.9,0.5-1.4
		c-0.2-0.5-0.8-0.8-1.3-0.5c-1.9-3.9-7.5-4.3-8.9-1.4c-1.5,3.1,0,4.9,1.1,4.9s0.4-1.5,0.4-1.5c-1.2-0.6,0.4-3.9,3.8-2.4
		c4.4,2,0,12.1-5.7,7.7c-2.4-1.8-4.1-5-5.3-8.4c0.1-3.2,0.6-11.2,3.5-14.5c-2.6-0.8-4.8,0.1-6.1,0.9c-0.1-0.7-0.1,0.8-0.1,0.8
		l-0.2-0.1V124c2.7-0.4,4.9-2.3,5.8-4.8H9.5c0.9,2.5,3.1,4.4,5.8,4.8v5.8l-0.6-0.4c0,0-1.3-1.3-5.3-1.8c-6.2,0.4-8.8,6.6-6.6,11
		s7.5,1.8,6.2,0.4c-2.6,0.4-4.8-3.7-2.6-5.3c2.4-1.8,4.7,0,5.6,3.5c0.9,3.3,2.4,8.9,5.7,14.6c-4.4-0.5-8.8,0.1-9.8,4.9
		c6,0,14.9,4.2,20.3,7.2c5.7,4.2,12.8,6.7,21,5.1c3.6-0.7,6.9-2.2,9.8-4.3c0.5,3.4,4,7.9,6.2,6.7C63.4,169.3,64.6,162.1,65.4,158.3z
		 M111,102c4.4,0.9,6.9,7.8,8.7,13.7c-2.8-4.4-7.2-7.5-13.4-8.6c-0.1,0-0.3,0-0.4-0.1C107.4,103.6,109.1,101.6,111,102z M83.7,122.8
		c2.6-5.5,6.6-9.1,11.1-10.9c0.1,0.3,0.3,0.5,0.6,0.6c0.6,0.2,1.2-0.1,1.4-0.7c0.1-0.2,0.1-0.4,0-0.6c0.8-0.2,1.7-0.4,2.6-0.6
		c-0.8,2.4-1.5,5-2,7.8c-3,14.3-2.6,29.8-13.4,34.6c-0.2-1.5-0.7-3.5-2.1-4.6c0.1-0.1,0.1-0.1,0.2-0.2c0.3-0.5,0.1-1.2-0.5-1.4
		c-0.5-0.3-1.2,0-1.4,0.5c-0.1,0.1-0.1,0.3-0.1,0.4c-0.3,0-0.6-0.1-1,0c-5.3,0.3-2,5.3,0,4c1.1-0.8,2.2,0.8,2.9,2.2
		c-0.7,0.2-1.5,0.4-2.3,0.5c-3.2,0.5-6.7-0.1-10-1.8C75.4,143.1,79.5,131.7,83.7,122.8z"/>
	<path class="st0" d="M86.1,136.7c0.5,0.2,1.2,0,1.4-0.6c0.2-0.5,0-1.2-0.6-1.4c-0.5-0.2-1.2,0-1.4,0.6
		C85.3,135.9,85.5,136.5,86.1,136.7z"/>
	<path class="st0" d="M90.9,124.7c0.6,0.2,1.2-0.1,1.4-0.6c0.2-0.6-0.1-1.2-0.6-1.4c-0.5-0.2-1.2,0.1-1.4,0.6
		C90.1,123.8,90.4,124.5,90.9,124.7z"/>
	<path class="st0" d="M89.4,128.7c0.5,0.2,1.2-0.1,1.4-0.6c0.2-0.6-0.1-1.2-0.6-1.4c-0.5-0.2-1.2,0.1-1.4,0.6
		C88.6,127.9,88.8,128.5,89.4,128.7z"/>
	<path class="st0" d="M39,143.4c-0.5,0.3-0.7,0.9-0.5,1.4s0.9,0.7,1.4,0.5c0.5-0.3,0.8-0.9,0.5-1.4C40.1,143.4,39.5,143.1,39,143.4z
		"/>
	<path class="st0" d="M84.3,140.7c0.5,0.2,1.2,0,1.4-0.5c0.2-0.5,0-1.2-0.5-1.4s-1.2,0-1.4,0.5S83.8,140.5,84.3,140.7z"/>
	<path class="st0" d="M87.8,132.7c0.5,0.2,1.2,0,1.4-0.6c0.2-0.5,0-1.2-0.6-1.4c-0.5-0.2-1.2,0-1.4,0.6
		C87,131.9,87.2,132.5,87.8,132.7z"/>
	<path class="st0" d="M82.5,144.6c0.5,0.3,1.2,0,1.4-0.5c0.3-0.5,0-1.2-0.5-1.4s-1.2,0-1.4,0.5C81.8,143.8,82,144.4,82.5,144.6z"/>
	<path class="st0" d="M92.5,120.6c0.6,0.2,1.2-0.1,1.4-0.6c0.2-0.6-0.1-1.2-0.6-1.4c-0.5-0.2-1.2,0.1-1.4,0.6
		C91.6,119.8,91.9,120.4,92.5,120.6z"/>
	<path class="st0" d="M93.9,116.5c0.6,0.2,1.2-0.1,1.4-0.7c0.2-0.6-0.1-1.2-0.6-1.4c-0.5-0.2-1.2,0.1-1.4,0.7S93.4,116.3,93.9,116.5
		z"/>
	<path class="st0" d="M47.6,141.1c0.5-0.3,0.7-1,0.4-1.5s-1-0.7-1.5-0.4s-0.7,1-0.4,1.5C46.4,141.3,47.1,141.4,47.6,141.1z"/>
	<path class="st0" d="M43.8,143.3c0.5-0.3,0.7-0.9,0.4-1.5c-0.3-0.5-0.9-0.7-1.4-0.4s-0.7,0.9-0.4,1.4
		C42.6,143.4,43.3,143.6,43.8,143.3z"/>
	<path class="st0" d="M57.1,132c-0.5,0.4-0.5,1-0.2,1.5c0.4,0.5,1,0.5,1.5,0.2c0.5-0.4,0.6-1,0.2-1.5
		C58.2,131.8,57.5,131.7,57.1,132z"/>
	<path class="st0" d="M60.4,129.3c-0.4,0.4-0.5,1-0.1,1.5s1.1,0.5,1.5,0.1c0.5-0.4,0.5-1.1,0.1-1.5C61.5,129,60.8,129,60.4,129.3z"
		/>
	<path class="st0" d="M96.3,81.6c-0.3,0.5,0,1.2,0.5,1.4c0.5,0.3,1.2,0,1.4-0.5c0.3-0.5,0-1.2-0.5-1.4
		C97.2,80.9,96.6,81.1,96.3,81.6z"/>
	<path class="st0" d="M111.9,61.9c0.2-0.6-0.2-1.2-0.7-1.3c-0.6-0.2-1.1,0.2-1.3,0.8c-0.2,0.6,0.2,1.2,0.7,1.3
		S111.7,62.4,111.9,61.9z"/>
	<path class="st0" d="M63.5,128c0.4,0.4,1.1,0.5,1.5,0.1c0.4-0.4,0.5-1.1,0.1-1.5s-1.1-0.5-1.5-0.1C63.2,126.9,63.2,127.6,63.5,128z
		"/>
	<path class="st0" d="M113,57.7c0.2-0.6-0.2-1.2-0.8-1.3c-0.6-0.2-1.2,0.2-1.3,0.8c-0.2,0.6,0.2,1.2,0.8,1.3
		C112.2,58.6,112.8,58.3,113,57.7z"/>
	<path class="st0" d="M110.7,66.1c0.2-0.6-0.2-1.2-0.7-1.3c-0.6-0.2-1.2,0.2-1.3,0.8c-0.2,0.6,0.2,1.2,0.7,1.3
		C110,67,110.6,66.6,110.7,66.1z"/>
	<path class="st0" d="M114.1,53.5c0.2-0.6-0.2-1.2-0.8-1.3c-0.6-0.1-1.1,0.2-1.3,0.8c-0.2,0.6,0.2,1.2,0.8,1.3
		C113.4,54.4,113.9,54.1,114.1,53.5z"/>
	<path class="st0" d="M105.3,63.2c0.6,0.2,1.2-0.1,1.4-0.6c0.2-0.6-0.1-1.2-0.6-1.4s-1.2,0.1-1.4,0.6
		C104.5,62.4,104.8,63,105.3,63.2z"/>
	<path class="st0" d="M116.2,45.1l-2.1-0.5c-0.1,0.6,0.2,1.1,0.8,1.3C115.5,46,116.1,45.6,116.2,45.1z"/>
	<path class="st0" d="M115.2,49.3c0.1-0.6-0.2-1.2-0.8-1.3c-0.6-0.1-1.1,0.2-1.3,0.8c-0.1,0.6,0.2,1.2,0.8,1.3
		C114.4,50.2,115,49.8,115.2,49.3z"/>
	<path class="st0" d="M110.6,46.7c0.6,0.2,1.2-0.2,1.3-0.8c0.2-0.6-0.2-1.2-0.8-1.3c-0.6-0.1-1.1,0.2-1.3,0.8
		C109.7,46,110,46.6,110.6,46.7z"/>
	<path class="st0" d="M108.4,74.4c0.2-0.6-0.2-1.2-0.7-1.3c-0.6-0.2-1.2,0.2-1.3,0.7c-0.2,0.6,0.2,1.2,0.7,1.3
		C107.6,75.3,108.2,75,108.4,74.4z"/>
	<path class="st0" d="M105.2,81.4c-0.6-0.2-1.2,0.2-1.3,0.7c-0.2,0.6,0.2,1.2,0.7,1.3c0.6,0.2,1.2-0.2,1.3-0.7
		C106.1,82.2,105.8,81.6,105.2,81.4z"/>
	<path class="st0" d="M107.2,78.6c0.2-0.6-0.2-1.2-0.7-1.3c-0.6-0.2-1.2,0.2-1.3,0.7c-0.2,0.6,0.2,1.2,0.7,1.3
		C106.4,79.5,107,79.2,107.2,78.6z"/>
	<path class="st0" d="M107.5,53.7c-0.2,0.6,0.1,1.2,0.7,1.3c0.6,0.2,1.2-0.1,1.3-0.7c0.2-0.6-0.1-1.2-0.7-1.3
		C108.2,52.8,107.6,53.1,107.5,53.7z"/>
	<path class="st0" d="M106.1,57.8c-0.2,0.6,0.1,1.2,0.7,1.3c0.6,0.2,1.2-0.1,1.3-0.7c0.2-0.6-0.1-1.2-0.7-1.3
		C106.9,56.9,106.3,57.2,106.1,57.8z"/>
	<path class="st0" d="M108.7,49.6c-0.2,0.6,0.2,1.2,0.7,1.3c0.6,0.2,1.2-0.2,1.3-0.7c0.2-0.6-0.2-1.2-0.7-1.3
		C109.5,48.7,108.9,49,108.7,49.6z"/>
	<path class="st0" d="M103.8,67.3c0.5,0.2,1.2-0.1,1.4-0.6c0.2-0.6-0.1-1.2-0.6-1.4c-0.5-0.2-1.2,0.1-1.4,0.6S103.3,67,103.8,67.3z"
		/>
	<path class="st0" d="M109.5,70.3c0.2-0.6-0.2-1.2-0.7-1.3c-0.6-0.2-1.2,0.2-1.3,0.7c-0.2,0.6,0.2,1.2,0.7,1.3
		C108.8,71.2,109.4,70.8,109.5,70.3z"/>
	<path class="st0" d="M80.8,107.4c-0.3,0.5-0.3,1.1,0.2,1.5s1.1,0.3,1.5-0.2s0.2-1.1-0.2-1.5C81.8,106.8,81.1,106.9,80.8,107.4z"/>
	<path class="st0" d="M78.2,110.8c-0.4,0.5-0.3,1.1,0.2,1.5s1.1,0.3,1.5-0.2s0.3-1.1-0.2-1.5C79.2,110.2,78.5,110.3,78.2,110.8z"/>
	<path class="st0" d="M83.3,103.9c-0.3,0.5-0.2,1.1,0.3,1.5c0.5,0.3,1.1,0.2,1.5-0.3c0.3-0.5,0.2-1.2-0.3-1.5
		C84.3,103.3,83.6,103.4,83.3,103.9z"/>
	<path class="st0" d="M68.2,125.1c0.4-0.4,0.4-1.1,0-1.5s-1.1-0.4-1.5,0s-0.4,1.1,0,1.5S67.8,125.5,68.2,125.1z"/>
	<path class="st0" d="M85.7,100.3c-0.3,0.5-0.2,1.1,0.3,1.5c0.5,0.3,1.2,0.2,1.5-0.3s0.2-1.2-0.3-1.5S86,99.8,85.7,100.3z"/>
	<path class="st0" d="M74.3,118.8c0.4-0.4,0.4-1.1-0.1-1.5c-0.4-0.4-1.1-0.3-1.5,0.1s-0.4,1.1,0.1,1.5
		C73.2,119.3,73.9,119.2,74.3,118.8z"/>
	<path class="st0" d="M71.3,122c0.4-0.4,0.4-1.1,0-1.5s-1.1-0.4-1.5,0s-0.4,1.1,0,1.5C70.2,122.4,70.9,122.4,71.3,122z"/>
	<path class="st0" d="M88,96.7c-0.3,0.5-0.2,1.2,0.3,1.5s1.2,0.2,1.5-0.4c0.3-0.5,0.2-1.2-0.3-1.5C89,96,88.3,96.2,88,96.7z"/>
	<path class="st0" d="M100.8,99.4c0.2-0.6-0.1-1.2-0.7-1.3c-0.6-0.2-1.2,0.1-1.3,0.7c-0.2,0.6,0.1,1.2,0.7,1.3
		C100,100.3,100.6,99.9,100.8,99.4z"/>
	<path class="st0" d="M98.7,79.2c0.5,0.3,1.2,0,1.4-0.5c0.3-0.5,0-1.2-0.5-1.4c-0.5-0.2-1.2,0-1.4,0.5
		C97.9,78.3,98.1,78.9,98.7,79.2z"/>
	<path class="st0" d="M102.2,71.3c0.5,0.2,1.2,0,1.4-0.6c0.2-0.5,0-1.2-0.6-1.4c-0.5-0.2-1.2,0-1.4,0.6
		C101.4,70.4,101.6,71,102.2,71.3z"/>
	<path class="st0" d="M100.5,75.2c0.5,0.2,1.2,0,1.4-0.6c0.2-0.5,0-1.2-0.5-1.4c-0.5-0.2-1.2,0-1.4,0.6
		C99.7,74.4,99.9,75,100.5,75.2z"/>
	<path class="st0" d="M90.2,93c-0.3,0.5-0.1,1.2,0.4,1.5s1.2,0.1,1.5-0.4s0.1-1.2-0.4-1.5C91.2,92.3,90.5,92.5,90.2,93z"/>
	<path class="st0" d="M98.8,102.2c-0.6-0.2-1.2,0.1-1.3,0.7c-0.2,0.6,0.1,1.2,0.7,1.3c0.6,0.2,1.2-0.1,1.3-0.7
		C99.7,103,99.4,102.3,98.8,102.2z"/>
	<path class="st0" d="M102.1,95.2c0.2-0.6-0.1-1.2-0.7-1.3c-0.6-0.2-1.2,0.1-1.3,0.7c-0.2,0.6,0.1,1.2,0.7,1.3
		C101.4,96.1,102,95.8,102.1,95.2z"/>
	<path class="st0" d="M75.5,114.1c-0.4,0.4-0.3,1.1,0.1,1.5s1.1,0.3,1.5-0.1s0.3-1.1-0.1-1.5C76.5,113.6,75.9,113.7,75.5,114.1z"/>
	<path class="st0" d="M242.7,91.8c0,0.1,0,0.3,0,0.4H241v25.5h6.5V92.2H246c0-0.1,0-0.2,0-0.4c0-2.3,1.1-2.1,2.6-3.8
		c3.9-4.6-2-10.5-4.3-15.7c-2.3,5.2-8.2,11.1-4.3,15.7C241.6,89.7,242.7,89.5,242.7,91.8z"/>
	<polygon class="st0" points="139.5,58.7 140.4,60.3 141.9,61.2 143.4,60.3 144.4,58.7 143.9,56.2 141.9,54.2 140,56.2 	"/>
	<path class="st0" d="M141.9,48.8c0.5,0,0.9-0.4,0.9-0.9s-0.4-0.9-0.9-0.9s-0.9,0.4-0.9,0.9C141.1,48.4,141.4,48.8,141.9,48.8z"/>
	<path class="st0" d="M141.9,52.5c0.5,0,0.9-0.4,0.9-0.9s-0.4-0.9-0.9-0.9s-0.9,0.4-0.9,0.9C141.1,52.1,141.4,52.5,141.9,52.5z"/>
	<polygon class="st0" points="182.2,82.8 183.7,83.7 185.2,82.8 186.1,81.3 185.6,78.7 183.7,76.7 181.8,78.7 181.3,81.3 	"/>
	<path class="st0" d="M183.7,75.1c0.5,0,0.9-0.4,0.9-0.9s-0.4-0.9-0.9-0.9s-0.9,0.4-0.9,0.9S183.2,75.1,183.7,75.1z"/>
	<path class="st0" d="M183.7,71.4c0.5,0,0.9-0.4,0.9-0.9s-0.4-0.9-0.9-0.9s-0.9,0.4-0.9,0.9S183.2,71.4,183.7,71.4z"/>
	<polygon class="st0" points="220.2,131.8 219.7,134.3 220.7,135.8 222.2,136.7 223.6,135.8 224.6,134.3 224.1,131.8 222.2,129.8
		"/>
	<path class="st0" d="M222.2,124.4c0.5,0,0.9-0.4,0.9-0.9s-0.4-0.9-0.9-0.9s-0.9,0.4-0.9,0.9S221.7,124.4,222.2,124.4z"/>
	<path class="st0" d="M222.2,128.1c0.5,0,0.9-0.4,0.9-0.9s-0.4-0.9-0.9-0.9s-0.9,0.4-0.9,0.9C221.3,127.7,221.7,128.1,222.2,128.1z"
		/>
	<polygon class="st0" points="143.5,148 144.5,149.5 146,150.4 147.5,149.5 148.4,148 147.9,145.5 146,143.5 144,145.5 	"/>
	<path class="st0" d="M146,141.8c0.5,0,0.9-0.4,0.9-0.9s-0.4-0.9-0.9-0.9s-0.9,0.4-0.9,0.9C145.1,141.4,145.5,141.8,146,141.8z"/>
	<path class="st0" d="M146,138.1c0.5,0,0.9-0.4,0.9-0.9s-0.4-0.9-0.9-0.9s-0.9,0.4-0.9,0.9C145.1,137.7,145.5,138.1,146,138.1z"/>
	<polygon class="st0" points="252.7,167.3 250.8,169.3 250.3,171.9 251.2,173.4 252.7,174.3 254.2,173.4 255.1,171.9 254.6,169.3
		"/>
	<path class="st0" d="M252.7,162c0.5,0,0.9-0.4,0.9-0.9s-0.4-0.9-0.9-0.9s-0.9,0.4-0.9,0.9S252.2,162,252.7,162z"/>
	<path class="st0" d="M252.7,165.7c0.5,0,0.9-0.4,0.9-0.9s-0.4-0.9-0.9-0.9s-0.9,0.4-0.9,0.9S252.2,165.7,252.7,165.7z"/>
	<path class="st0" d="M209.2,77.9c0,0.1,0,0.3,0,0.4h-1.8v25.5h6.5V78.2h-1.5c0-0.1,0-0.2,0-0.4c0-2.3,1.1-2.1,2.6-3.8
		c3.9-4.6-2-10.5-4.3-15.7c-2.3,5.2-8.2,11.1-4.2,15.7C208.2,75.8,209.2,75.6,209.2,77.9z"/>
	<path class="st0" d="M251.2,127.2c-4,0.4-5.3,1.8-5.3,1.8l-0.6,0.4v-5.8c2.7-0.4,4.9-2.3,5.8-4.8h-13.9c0.9,2.5,3.1,4.4,5.8,4.8
		v7.4l-0.2,0.1c0,0,0-1.6-0.1-0.8c-1.3-0.8-3.5-1.7-6.1-0.9c3,3.3,3.5,11.3,3.5,14.5c-1.2,3.4-2.9,6.6-5.3,8.4
		c-5.7,4.3-10.2-5.7-5.7-7.7c3.3-1.5,4.9,1.8,3.8,2.4c0,0-0.7,1.5,0.4,1.5c1.1,0,2.6-1.8,1.1-4.9c-1.4-2.9-7-2.5-8.9,1.4
		c-0.5-0.2-1.1,0-1.3,0.5s0,1.2,0.5,1.4l0.4-1l0,0c-1.3,4.9,2,8.8,3.5,9.7c0.9,0.7,0.2,1.6-1.1,2.4c-1.3,0.9-9.3,6.1-17.9,3.3
		c-3.5-1.1-6.8-3.8-9.9-7.3c4.8-4.3,8.3-10.1,10.7-15.5c0.2-0.1,0.3-0.2,0.4-0.3c0.2-0.3,0.2-0.6,0.1-0.9c2.7-6.2,3.9-11.8,4.1-14
		c0.4-4.4,3.5-7.4,7.8-3.5c1.8-1.8,0.2-5.3-2.9-7.1c-3.3-1.5-6.1-1.4-8.2-0.6v-2.9c2.7-0.4,4.9-2.3,5.8-4.8h-13.9
		c0.9,2.5,3.1,4.4,5.8,4.8v4.2c-2.8,2-4.1,5-4.1,5c0,1.3,0,2.5,0,3.7c-0.8-0.8-1.8-1.5-3.2-1.7c-3.7-0.6-6.3,3.8-4.3,6.2
		c2.1,2.4,3.5,0,2.8-1s-0.3-3.5,0.7-3.4c0.8,0.1,2.9,3.4,3.4,6.9c-1.4,9.1-4.8,15.5-9.1,19.6c-1.9-2.7-3.6-5.6-5.3-8.6
		c1.4-0.2,3.4-0.9,5-2.7c-3.3,0-8.2-4.5-9.4-5.7c-1.7-3.4-3.2-6.6-4.5-9.3c-4.4-8.8-10.4-13.6-16.8-15.3c0-0.2,0-0.3,0-0.5
		c-0.2-0.6-0.8-0.9-1.3-0.7c-0.3,0.1-0.6,0.4-0.7,0.7c-0.9-0.2-1.8-0.3-2.6-0.3c-3-7-7.1-10.6-12.1-8.3
		c-7.3,3.3-11.4,21.7-11.4,24.3c0,0-0.2,0.4,2.4,0.4c0.2-0.5,0.3-1,0.5-1.6l1.4,0.3c3.1-6.7,9.1-10.6,15.5-11.3
		c2,5.7,3.6,13.6,5.1,21.4c-1.1-0.8-3-1.7-5-1.3c-3.3,0.7-2,5.7-0.7,5.3s1.8-1.8,3.5,0c1.2,1.2,3.9,6.7,5.5,10.2
		c3.2,9.8,15.9,20.2,30.2,11.7c0.1,0.1,0.2,0.2,0.3,0.4c0.8,3.9,2,11,0.3,12.9c2.1,1.2,5.7-3.3,6.2-6.7c2.9,2.1,6.1,3.6,9.8,4.3
		c8.2,1.5,15.3-1,21-5.1c5.4-2.9,14.3-7.2,20.3-7.2c-1-4.8-5.4-5.4-9.8-4.9c3.3-5.8,4.8-11.4,5.7-14.6c0.9-3.5,3.2-5.3,5.6-3.5
		c2.2,1.6,0,5.7-2.6,5.3c-1.3,1.3,4,4,6.2-0.4C260.1,133.8,257.4,127.6,251.2,127.2z M154.4,107.1c-6.2,1.1-10.6,4.3-13.4,8.7
		c1.7-6,4.3-12.8,8.7-13.7c1.9-0.4,3.6,1.6,5.1,5C154.7,107,154.6,107.1,154.4,107.1z M181.1,154.2c-0.8-0.1-1.6-0.3-2.3-0.5
		c0.7-1.4,1.7-3,2.9-2.2c2,1.3,5.3-3.6,0-4c-0.3,0-0.7,0-1,0c0-0.1,0-0.3-0.1-0.4c-0.3-0.5-0.9-0.7-1.4-0.5
		c-0.5,0.3-0.7,0.9-0.5,1.4c0,0.1,0.1,0.2,0.2,0.2c-1.3,1.1-1.9,3.1-2.1,4.6c-10.8-4.8-10.4-20.3-13.4-34.6c-0.6-2.8-1.3-5.4-2-7.8
		c0.9,0.1,1.7,0.3,2.6,0.6c0,0.2-0.1,0.4,0,0.6c0.2,0.6,0.8,0.9,1.4,0.7c0.3-0.1,0.5-0.3,0.6-0.6c4.5,1.8,8.5,5.4,11.1,10.9
		c4.2,8.9,8.3,20.3,14.1,29.6C187.8,154.1,184.3,154.7,181.1,154.2z"/>
	<path class="st0" d="M175.1,135.3c-0.2-0.5-0.9-0.8-1.4-0.6s-0.8,0.9-0.6,1.4s0.9,0.8,1.4,0.6C175.1,136.5,175.4,135.9,175.1,135.3
		z"/>
	<path class="st0" d="M152.5,58.5c0.2,0.6,0.8,0.9,1.3,0.7c0.6-0.2,0.8-0.8,0.7-1.3c-0.2-0.6-0.8-0.9-1.3-0.7
		C152.6,57.3,152.3,57.9,152.5,58.5z"/>
	<path class="st0" d="M212.7,139.7c-0.3,0.5-0.1,1.2,0.4,1.5s1.2,0.2,1.5-0.4c0.3-0.5,0.1-1.2-0.4-1.5S213,139.2,212.7,139.7z"/>
	<path class="st0" d="M216.5,141.9c-0.3,0.5-0.1,1.2,0.4,1.5s1.2,0.1,1.5-0.4s0.1-1.2-0.4-1.4C217.4,141.2,216.7,141.3,216.5,141.9z
		"/>
	<path class="st0" d="M176.9,139.3c-0.2-0.5-0.9-0.8-1.4-0.5c-0.5,0.2-0.8,0.9-0.5,1.4c0.2,0.5,0.9,0.8,1.4,0.5
		C176.9,140.5,177.1,139.8,176.9,139.3z"/>
	<path class="st0" d="M200.4,130.8c0.4-0.5,0.3-1.1-0.1-1.5c-0.4-0.4-1.1-0.3-1.5,0.1c-0.4,0.4-0.3,1.1,0.1,1.5
		C199.3,131.4,200,131.3,200.4,130.8z"/>
	<path class="st0" d="M173.5,131.3c-0.2-0.5-0.8-0.8-1.4-0.6c-0.5,0.2-0.8,0.8-0.6,1.4c0.2,0.5,0.8,0.8,1.4,0.6
		C173.4,132.5,173.7,131.9,173.5,131.3z"/>
	<path class="st0" d="M154,62.6c0.2,0.6,0.8,0.8,1.4,0.6c0.6-0.2,0.8-0.8,0.6-1.4c-0.2-0.5-0.8-0.8-1.4-0.6
		C154,61.4,153.8,62,154,62.6z"/>
	<path class="st0" d="M150.1,62.6c0.6-0.2,0.9-0.7,0.7-1.3s-0.7-0.9-1.3-0.8c-0.6,0.2-0.9,0.7-0.7,1.3
		C149,62.4,149.6,62.8,150.1,62.6z"/>
	<path class="st0" d="M152.4,71c0.6-0.2,0.9-0.7,0.7-1.3c-0.2-0.6-0.7-0.9-1.3-0.7c-0.6,0.2-0.9,0.8-0.7,1.3
		C151.3,70.8,151.9,71.2,152.4,71z"/>
	<path class="st0" d="M203.8,133.5c0.4-0.5,0.3-1.1-0.2-1.5s-1.1-0.3-1.5,0.2s-0.3,1.1,0.2,1.5C202.8,134.1,203.4,134,203.8,133.5z"
		/>
	<path class="st0" d="M153.6,75.2c0.6-0.2,0.9-0.8,0.7-1.3c-0.2-0.6-0.8-0.9-1.3-0.7c-0.6,0.2-0.9,0.8-0.7,1.3
		S153.1,75.3,153.6,75.2z"/>
	<path class="st0" d="M168.8,119.2c-0.2-0.5-0.8-0.8-1.4-0.6c-0.5,0.2-0.8,0.8-0.6,1.4s0.8,0.8,1.4,0.6
		C168.8,120.4,169,119.8,168.8,119.2z"/>
	<path class="st0" d="M154.8,79.3c0.6-0.2,0.9-0.8,0.7-1.3c-0.2-0.6-0.8-0.9-1.3-0.7c-0.6,0.2-0.9,0.8-0.7,1.3
		C153.7,79.2,154.3,79.5,154.8,79.3z"/>
	<path class="st0" d="M156.1,83.5c0.6-0.2,0.9-0.8,0.7-1.3c-0.2-0.6-0.8-0.9-1.3-0.7c-0.6,0.2-0.9,0.8-0.7,1.3
		C154.9,83.3,155.5,83.7,156.1,83.5z"/>
	<path class="st0" d="M173.5,100c-0.5,0.3-0.6,1-0.3,1.5s1,0.6,1.5,0.3c0.5-0.3,0.6-1,0.3-1.5S174,99.7,173.5,100z"/>
	<path class="st0" d="M169,92.6c-0.5,0.3-0.7,0.9-0.4,1.5c0.3,0.5,1,0.7,1.5,0.4c0.5-0.3,0.7-1,0.4-1.5S169.5,92.3,169,92.6z"/>
	<path class="st0" d="M175.9,103.6c-0.5,0.3-0.6,1-0.3,1.5s1,0.6,1.5,0.3c0.5-0.3,0.6-1,0.3-1.5C177,103.4,176.4,103.3,175.9,103.6z
		"/>
	<path class="st0" d="M171.2,96.3c-0.5,0.3-0.7,1-0.3,1.5c0.3,0.5,1,0.7,1.5,0.4c0.5-0.3,0.6-1,0.3-1.5
		C172.4,96.2,171.7,96,171.2,96.3z"/>
	<path class="st0" d="M167.4,115.2c-0.2-0.6-0.8-0.9-1.4-0.7c-0.6,0.2-0.8,0.8-0.6,1.4s0.8,0.9,1.4,0.7
		C167.3,116.3,167.6,115.7,167.4,115.2z"/>
	<path class="st0" d="M149.5,44.7c-0.6,0.1-0.9,0.7-0.8,1.3c0.2,0.6,0.7,0.9,1.3,0.8c0.6-0.2,0.9-0.7,0.8-1.3
		C150.7,44.9,150.1,44.5,149.5,44.7z"/>
	<path class="st0" d="M171.9,127.3c-0.2-0.5-0.8-0.8-1.4-0.6c-0.5,0.2-0.8,0.8-0.6,1.4c0.2,0.5,0.8,0.8,1.4,0.6
		C171.8,128.5,172.1,127.9,171.9,127.3z"/>
	<path class="st0" d="M178.4,107.1c-0.5,0.3-0.6,1-0.2,1.5c0.4,0.5,1,0.6,1.5,0.2s0.6-1,0.2-1.5
		C179.5,106.9,178.9,106.8,178.4,107.1z"/>
	<path class="st0" d="M160.6,94.6c-0.2-0.6-0.8-0.9-1.3-0.7c-0.6,0.2-0.9,0.8-0.7,1.3c0.2,0.6,0.8,0.9,1.3,0.7
		C160.4,95.8,160.7,95.2,160.6,94.6z"/>
	<path class="st0" d="M176.7,144.1c0.3,0.5,0.9,0.8,1.4,0.5s0.8-0.9,0.5-1.4s-0.9-0.8-1.4-0.5C176.7,143,176.5,143.6,176.7,144.1z"
		/>
	<path class="st0" d="M162.5,104.2c0.6-0.2,0.9-0.8,0.7-1.3c-0.2-0.6-0.8-0.9-1.3-0.7c-0.6,0.2-0.9,0.8-0.7,1.3
		C161.4,104.1,162,104.4,162.5,104.2z"/>
	<path class="st0" d="M170.3,123.3c-0.2-0.6-0.8-0.8-1.4-0.6c-0.5,0.2-0.8,0.8-0.6,1.4s0.8,0.8,1.4,0.6
		C170.3,124.5,170.6,123.8,170.3,123.3z"/>
	<path class="st0" d="M166.9,88.8c-0.5,0.3-0.7,0.9-0.4,1.5c0.3,0.5,0.9,0.7,1.4,0.4c0.5-0.3,0.7-0.9,0.4-1.5
		C168,88.8,167.4,88.6,166.9,88.8z"/>
	<path class="st0" d="M161.2,100.1c0.6-0.2,0.9-0.8,0.7-1.3c-0.2-0.6-0.8-0.9-1.3-0.7c-0.6,0.2-0.9,0.8-0.7,1.3
		C160,99.9,160.6,100.3,161.2,100.1z"/>
	<path class="st0" d="M151.3,66.8c0.6-0.2,0.9-0.7,0.7-1.3c-0.2-0.6-0.7-0.9-1.3-0.8c-0.6,0.2-0.9,0.7-0.7,1.3
		C150.1,66.6,150.7,67,151.3,66.8z"/>
	<path class="st0" d="M157.1,70.7c0.2,0.6,0.8,0.8,1.4,0.6c0.5-0.2,0.8-0.9,0.6-1.4s-0.8-0.8-1.4-0.6
		C157.1,69.5,156.9,70.1,157.1,70.7z"/>
	<path class="st0" d="M162.4,82.6c0.3,0.5,0.9,0.8,1.4,0.5s0.7-0.9,0.5-1.4c-0.3-0.5-0.9-0.7-1.4-0.5
		C162.4,81.4,162.2,82,162.4,82.6z"/>
	<path class="st0" d="M155.5,66.6c0.2,0.6,0.8,0.8,1.4,0.6c0.5-0.2,0.8-0.8,0.6-1.4c-0.2-0.5-0.8-0.8-1.4-0.6
		C155.5,65.5,155.3,66.1,155.5,66.6z"/>
	<path class="st0" d="M158.8,74.7c0.2,0.5,0.9,0.8,1.4,0.6c0.5-0.2,0.8-0.9,0.5-1.4c-0.2-0.5-0.9-0.8-1.4-0.6S158.6,74.1,158.8,74.7
		z"/>
	<path class="st0" d="M146.8,50c0.6-0.1,0.9-0.7,0.8-1.3c-0.1-0.6-0.7-0.9-1.3-0.8c-0.6,0.1-0.9,0.7-0.8,1.3
		C145.6,49.8,146.2,50.2,146.8,50z"/>
	<path class="st0" d="M151.2,54.3c0.2,0.6,0.8,0.9,1.3,0.7c0.6-0.2,0.9-0.8,0.7-1.3c-0.2-0.6-0.8-0.9-1.3-0.7
		C151.3,53.2,151,53.8,151.2,54.3z"/>
	<path class="st0" d="M150.6,48.8c-0.6,0.2-0.9,0.7-0.7,1.3s0.8,0.9,1.3,0.7c0.6-0.2,0.9-0.8,0.7-1.3
		C151.8,49,151.2,48.7,150.6,48.8z"/>
	<path class="st0" d="M146.5,44.6l-2.1,0.5c0.1,0.6,0.7,0.9,1.3,0.8C146.3,45.7,146.6,45.1,146.5,44.6z"/>
	<path class="st0" d="M149,58.4c0.6-0.2,0.9-0.7,0.8-1.3c-0.2-0.6-0.7-0.9-1.3-0.8c-0.6,0.2-0.9,0.7-0.7,1.3
		C147.8,58.3,148.4,58.6,149,58.4z"/>
	<path class="st0" d="M147.9,54.2c0.6-0.1,0.9-0.7,0.8-1.3c-0.2-0.6-0.7-0.9-1.3-0.8c-0.6,0.2-0.9,0.7-0.8,1.3
		C146.7,54.1,147.3,54.4,147.9,54.2z"/>
	<path class="st0" d="M197.1,128c0.4-0.4,0.4-1.1-0.1-1.5c-0.4-0.4-1.1-0.4-1.5,0.1c-0.4,0.4-0.4,1.1,0.1,1.5
		C196.1,128.5,196.7,128.5,197.1,128z"/>
	<path class="st0" d="M187.9,118.9c0.4-0.4,0.5-1.1,0.1-1.5s-1.1-0.5-1.5-0.1s-0.5,1.1-0.1,1.5C186.8,119.2,187.5,119.3,187.9,118.9
		z"/>
	<path class="st0" d="M221.7,143.4c-0.5-0.3-1.2,0-1.4,0.5c-0.3,0.5,0,1.2,0.5,1.4c0.5,0.3,1.2,0,1.4-0.5
		C222.4,144.3,222.2,143.7,221.7,143.4z"/>
	<path class="st0" d="M193.9,125.1c0.4-0.4,0.4-1.1,0-1.5s-1.1-0.4-1.5,0s-0.4,1.1,0,1.5C192.9,125.5,193.5,125.5,193.9,125.1z"/>
	<path class="st0" d="M190.9,122c0.4-0.4,0.4-1.1,0-1.5s-1.1-0.4-1.5,0s-0.4,1.1,0,1.5C189.8,122.4,190.5,122.4,190.9,122z"/>
	<path class="st0" d="M183.7,114c-0.5,0.4-0.5,1.1-0.1,1.5c0.4,0.5,1.1,0.5,1.5,0.1s0.5-1.1,0.1-1.5S184.2,113.6,183.7,114z"/>
	<path class="st0" d="M160.6,78.7c0.2,0.5,0.9,0.8,1.4,0.5c0.5-0.2,0.8-0.9,0.5-1.4s-0.9-0.8-1.4-0.5
		C160.6,77.5,160.3,78.1,160.6,78.7z"/>
	<path class="st0" d="M181,110.6c-0.5,0.4-0.5,1-0.2,1.5c0.4,0.5,1,0.5,1.5,0.2c0.5-0.4,0.5-1,0.2-1.5
		C182.1,110.3,181.5,110.2,181,110.6z"/>
	<path class="st0" d="M45.9,174.9c0-0.6-0.6-1-1.1-1c-0.6,0-1,0.5-1,1.1s0.6,1,1.2,1C45.6,176,46,175.5,45.9,174.9z"/>
	<path class="st0" d="M46.5,179.1c-0.1-0.6-0.6-1-1.2-0.9c-0.6,0.1-1,0.6-0.9,1.2c0.1,0.6,0.7,1,1.2,0.9
		C46.2,180.2,46.6,179.6,46.5,179.1z"/>
	<path class="st0" d="M47.3,183.2c-0.1-0.5-0.7-0.9-1.3-0.8c-0.6,0.1-0.9,0.7-0.8,1.3c0.2,0.6,0.7,0.9,1.3,0.8
		C47.2,184.3,47.5,183.7,47.3,183.2z"/>
	<path class="st0" d="M48.6,187.2c-0.2-0.5-0.8-0.8-1.3-0.6c-0.6,0.2-0.8,0.8-0.6,1.4c0.2,0.6,0.8,0.8,1.4,0.6
		C48.5,188.3,48.8,187.7,48.6,187.2z"/>
	<path class="st0" d="M48.9,190.5c-0.5,0.2-0.8,0.9-0.5,1.4s0.9,0.7,1.4,0.5c0.5-0.3,0.7-0.9,0.5-1.4
		C50,190.5,49.4,190.3,48.9,190.5z"/>
	<path class="st0" d="M51,194.3c-0.5,0.3-0.6,1-0.3,1.5c0.4,0.5,1,0.6,1.5,0.2c0.5-0.4,0.6-1,0.2-1.5C52.1,194.1,51.5,194,51,194.3z
		"/>
	<path class="st0" d="M53.6,197.7c-0.4,0.4-0.4,1.1,0,1.5s1.1,0.4,1.5,0s0.4-1.1,0-1.5C54.7,197.3,54,197.3,53.6,197.7z"/>
	<path class="st0" d="M58.2,200.3c-0.5-0.3-1.1-0.2-1.4,0.3c-0.4,0.5-0.2,1.2,0.3,1.5s1.2,0.1,1.5-0.4
		C58.9,201.2,58.7,200.6,58.2,200.3z"/>
	<path class="st0" d="M61.9,201.9c-0.5-0.1-1.1,0.2-1.3,0.7c-0.2,0.6,0.1,1.2,0.7,1.3c0.6,0.2,1.2-0.2,1.3-0.8
		C62.7,202.6,62.4,202,61.9,201.9z"/>
	<path class="st0" d="M65.8,202.3c-0.5,0-1,0.5-1,1.1s0.5,1.1,1.1,1c0.6,0,1.1-0.6,1-1.2C66.8,202.7,66.3,202.3,65.8,202.3z"/>
	<path class="st0" d="M71,201.9c-0.3-0.5-0.9-0.7-1.4-0.5s-0.8,0.8-0.6,1.3c0.2,0.5,0.8,0.9,1.4,0.6C71,203.1,71.3,202.5,71,201.9z"
		/>
	<path class="st0" d="M74.4,199.3c-0.4-0.4-1.1-0.4-1.5-0.1c-0.4,0.4-0.5,1-0.1,1.5c0.3,0.5,1.1,0.6,1.5,0.1
		C74.8,200.4,74.8,199.7,74.4,199.3z"/>
	<path class="st0" d="M77,195.9c-0.5-0.3-1.2-0.2-1.5,0.3s-0.2,1.1,0.3,1.5s1.2,0.3,1.5-0.3C77.6,196.9,77.5,196.2,77,195.9z"/>
	<path class="st0" d="M78.9,192.1c-0.6-0.2-1.1,0-1.4,0.5c-0.2,0.5,0,1.1,0.5,1.4c0.5,0.3,1.2,0,1.4-0.5
		C79.7,192.9,79.5,192.3,78.9,192.1z"/>
	<path class="st0" d="M80.4,188c-0.6-0.2-1.2,0.1-1.3,0.7c-0.2,0.5,0.1,1.1,0.7,1.3c0.5,0.2,1.2-0.1,1.3-0.7
		C81.2,188.8,80.9,188.2,80.4,188z"/>
	<path class="st0" d="M83.1,180.8c0.1-0.6-0.3-1.1-0.9-1.2c-0.6-0.1-1.1,0.3-1.2,0.9c-0.1,0.6,0.3,1.1,0.9,1.2
		C82.4,181.8,83,181.4,83.1,180.8z"/>
	<path class="st0" d="M80.2,184.6c-0.1,0.6,0.2,1.1,0.8,1.3c0.6,0.2,1.1-0.2,1.3-0.8c0.1-0.6-0.2-1.2-0.8-1.3
		C80.9,183.7,80.3,184.1,80.2,184.6z"/>
	<path class="st0" d="M82.8,175.3c-0.6-0.1-1.1,0.4-1.2,0.9c-0.1,0.6,0.3,1.1,0.9,1.2c0.6,0.1,1.1-0.3,1.2-0.9
		C83.8,175.9,83.4,175.4,82.8,175.3z"/>
	<path class="st0" d="M83.2,171c-0.6,0-1.1,0.4-1.1,1s0.4,1.1,1,1.1c0.6,0.1,1.1-0.4,1.1-1C84.2,171.6,83.8,171.1,83.2,171z"/>
	<path class="st0" d="M83.4,166.7c-0.6,0-1.1,0.4-1.1,1s0.4,1.1,1,1.1s1.1-0.4,1.1-1C84.5,167.3,84,166.8,83.4,166.7z"/>
	<path class="st0" d="M83.6,162.4c-0.6,0-1.1,0.5-1.1,1c0,0.6,0.5,1.1,1,1.1c0.6,0,1.1-0.4,1.1-1S84.1,162.4,83.6,162.4z"/>
	<path class="st0" d="M112.5,193.7c0.6,0,1.1-0.4,1.1-1s-0.4-1.1-1-1.1s-1.1,0.4-1.1,1C111.5,193.1,112,193.6,112.5,193.7z"/>
	<path class="st0" d="M110.6,201c-0.1,0.6,0.3,1.1,0.9,1.2c0.6,0.1,1.1-0.3,1.2-0.9c0.1-0.6-0.3-1.1-0.9-1.2
		C111.3,200,110.7,200.4,110.6,201z"/>
	<path class="st0" d="M112.1,198c0.6,0.1,1.1-0.3,1.2-0.9c0.1-0.6-0.4-1.1-0.9-1.2c-0.6-0.1-1.1,0.4-1.2,0.9
		C111.1,197.4,111.6,197.9,112.1,198z"/>
	<path class="st0" d="M112,205.6c0.1-0.6-0.3-1.1-0.8-1.3c-0.6-0.1-1.1,0.3-1.2,0.8c-0.1,0.6,0.2,1.1,0.8,1.2
		C111.3,206.5,111.8,206.2,112,205.6z"/>
	<path class="st0" d="M110.2,208.5c-0.6-0.1-1.1,0.2-1.3,0.8c-0.1,0.6,0.2,1.1,0.7,1.3c0.6,0.2,1.2-0.2,1.3-0.8
		C111.1,209.2,110.8,208.7,110.2,208.5z"/>
	<path class="st0" d="M107.7,216.7c-0.6-0.2-1.1,0.1-1.4,0.6c-0.2,0.5,0,1.1,0.6,1.4c0.5,0.2,1.2,0,1.4-0.6
		C108.5,217.5,108.2,216.9,107.7,216.7z"/>
	<path class="st0" d="M109.8,214c0.2-0.6-0.1-1.2-0.7-1.3c-0.6-0.2-1.2,0.1-1.3,0.7c-0.2,0.5,0.1,1.1,0.7,1.3
		C109,214.8,109.6,214.5,109.8,214z"/>
	<path class="st0" d="M105.1,222.6c0.5,0.3,1.2,0.1,1.4-0.5c0.3-0.5,0-1.2-0.5-1.4s-1.2,0-1.4,0.5
		C104.4,221.7,104.6,222.3,105.1,222.6z"/>
	<path class="st0" d="M100.2,228.2c-0.4,0.4-0.3,1.1,0.1,1.5s1.1,0.3,1.5-0.1c0.4-0.5,0.3-1.2-0.2-1.5
		C101.2,227.7,100.6,227.8,100.2,228.2z"/>
	<path class="st0" d="M104.4,225.9c0.3-0.5,0.2-1.2-0.4-1.5c-0.5-0.3-1.2-0.1-1.5,0.3c-0.3,0.5-0.1,1.1,0.3,1.5
		C103.4,226.6,104.1,226.4,104.4,225.9z"/>
	<path class="st0" d="M97.4,231.2c-0.4,0.4-0.5,1-0.1,1.5s1.1,0.5,1.5,0.1c0.5-0.4,0.5-1.1,0.1-1.5
		C98.5,230.8,97.8,230.8,97.4,231.2z"/>
	<path class="st0" d="M94.1,233.5c-0.5,0.2-0.7,0.9-0.4,1.4c0.2,0.5,0.9,0.7,1.4,0.5c0.6-0.3,0.7-1,0.4-1.5
		C95.2,233.4,94.6,233.2,94.1,233.5z"/>
	<path class="st0" d="M90.3,234.8c-0.5,0.1-0.9,0.6-0.8,1.2c0.1,0.6,0.6,1,1.3,0.9c0.6-0.2,1-0.8,0.8-1.3
		C91.4,235,90.9,234.7,90.3,234.8z"/>
	<path class="st0" d="M87.4,236.2c0-0.6-0.4-1.1-1-1.1c-0.5,0-1,0.4-1.1,1s0.3,1.1,1,1.2C86.8,237.3,87.4,236.8,87.4,236.2z"/>
	<path class="st0" d="M82.4,234.3c-0.5-0.2-1.1,0.1-1.3,0.7c-0.2,0.6,0.1,1.2,0.7,1.4s1.2-0.1,1.3-0.7
		C83.3,235.1,82.9,234.5,82.4,234.3z"/>
	<path class="st0" d="M78.7,232.7c-0.5-0.3-1.1-0.1-1.4,0.4s-0.2,1.2,0.4,1.5c0.5,0.3,1.2,0.1,1.5-0.4
		C79.4,233.6,79.2,233,78.7,232.7z"/>
	<path class="st0" d="M74,230.3c-0.4,0.4-0.4,1.1,0,1.5c0.5,0.4,1.1,0.4,1.5-0.1s0.3-1.1-0.1-1.5C75.1,229.9,74.4,229.9,74,230.3z"
		/>
	<path class="st0" d="M71.3,227c-0.5,0.3-0.6,1-0.2,1.5s1,0.6,1.5,0.2c0.4-0.4,0.5-1,0.2-1.5C72.4,226.8,71.8,226.6,71.3,227z"/>
	<path class="st0" d="M69,219.9c-0.2-0.5-0.8-0.8-1.3-0.6c-0.6,0.2-0.9,0.8-0.7,1.4c0.2,0.6,0.8,0.9,1.4,0.6
		C68.9,221,69.2,220.4,69,219.9z"/>
	<path class="st0" d="M69.2,223.2c-0.5,0.2-0.8,0.9-0.5,1.4s0.9,0.7,1.4,0.4s0.7-0.9,0.5-1.4C70.3,223.2,69.7,223,69.2,223.2z"/>
	<path class="st0" d="M67.8,215.9c-0.1-0.5-0.7-0.9-1.3-0.8c-0.6,0.1-1,0.7-0.8,1.3c0.1,0.6,0.7,0.9,1.3,0.8
		C67.6,217,68,216.4,67.8,215.9z"/>
	<path class="st0" d="M67.1,211.8c-0.1-0.6-0.6-1-1.2-0.9s-1,0.6-0.9,1.2c0.1,0.6,0.6,1,1.2,0.9C66.8,212.9,67.1,212.3,67.1,211.8z"
		/>
	<path class="st0" d="M66.7,207.6c0-0.6-0.5-1-1.1-1s-1,0.5-1,1.1s0.6,1,1.1,1C66.3,208.7,66.7,208.2,66.7,207.6z"/>
	<path class="st0" d="M216.1,173.9c-0.6,0-1.1,0.4-1.1,1s0.4,1.1,1,1.1c0.6,0.1,1.1-0.4,1.2-1C217.1,174.5,216.6,173.9,216.1,173.9z
		"/>
	<path class="st0" d="M215.6,178.2c-0.6-0.1-1.1,0.3-1.2,0.9c-0.1,0.6,0.3,1.1,0.9,1.2c0.6,0.1,1.1-0.3,1.2-0.9
		C216.6,178.8,216.2,178.3,215.6,178.2z"/>
	<path class="st0" d="M214.8,182.4c-0.6-0.1-1.1,0.2-1.3,0.8s0.2,1.1,0.7,1.3c0.6,0.2,1.1-0.2,1.3-0.8
		C215.7,183.1,215.4,182.6,214.8,182.4z"/>
	<path class="st0" d="M213.6,186.6c-0.6-0.2-1.2,0.1-1.3,0.6c-0.2,0.5,0.1,1.1,0.6,1.4c0.5,0.2,1.2-0.1,1.4-0.6
		C214.4,187.4,214.1,186.8,213.6,186.6z"/>
	<path class="st0" d="M212,190.5c-0.5-0.3-1.2,0-1.4,0.5c-0.3,0.5-0.1,1.1,0.4,1.4c0.5,0.3,1.2,0.1,1.4-0.5
		C212.7,191.4,212.5,190.8,212,190.5z"/>
	<path class="st0" d="M209.9,194.3c-0.5-0.3-1.1-0.2-1.5,0.3c-0.3,0.5-0.2,1.1,0.2,1.5c0.5,0.4,1.1,0.3,1.5-0.2
		C210.5,195.3,210.4,194.6,209.9,194.3z"/>
	<path class="st0" d="M205.8,197.7c-0.4,0.4-0.4,1,0,1.5c0.4,0.4,1.1,0.5,1.5,0c0.4-0.4,0.4-1.1,0-1.5
		C206.8,197.3,206.2,197.3,205.8,197.7z"/>
	<path class="st0" d="M202.6,200.3c-0.5,0.3-0.6,0.9-0.4,1.4c0.3,0.5,1,0.7,1.5,0.4s0.7-1,0.3-1.5
		C203.7,200.1,203.1,200,202.6,200.3z"/>
	<path class="st0" d="M199,201.9c-0.5,0.1-0.9,0.7-0.8,1.3c0.1,0.6,0.7,1,1.3,0.8s0.9-0.8,0.7-1.3
		C200.1,202.1,199.5,201.7,199,201.9z"/>
	<path class="st0" d="M196.1,203.4c0-0.6-0.5-1.1-1-1.1s-1,0.4-1.1,1s0.3,1.1,1,1.2C195.6,204.4,196.1,204,196.1,203.4z"/>
	<path class="st0" d="M191.8,202.7c0.2-0.6-0.1-1.1-0.6-1.3s-1.1,0-1.4,0.5c-0.3,0.5,0,1.2,0.5,1.4
		C191,203.6,191.6,203.3,191.8,202.7z"/>
	<path class="st0" d="M187.9,199.3c-0.4-0.4-1.1-0.3-1.5,0.1c-0.4,0.4-0.4,1.1,0.1,1.5c0.4,0.5,1.2,0.4,1.5-0.1
		C188.4,200.3,188.3,199.7,187.9,199.3z"/>
	<path class="st0" d="M185.3,196.2c-0.3-0.5-0.9-0.6-1.5-0.3c-0.5,0.3-0.6,1-0.3,1.5s1,0.6,1.5,0.3
		C185.5,197.3,185.6,196.7,185.3,196.2z"/>
	<path class="st0" d="M182.8,194c0.5-0.3,0.7-0.9,0.5-1.4s-0.8-0.8-1.4-0.5c-0.5,0.2-0.8,0.9-0.5,1.4
		C181.6,194,182.3,194.3,182.8,194z"/>
	<path class="st0" d="M181.8,188.7c-0.2-0.5-0.8-0.9-1.3-0.7c-0.6,0.2-0.9,0.8-0.7,1.3c0.2,0.6,0.8,0.9,1.3,0.7
		C181.7,189.8,182,189.2,181.8,188.7z"/>
	<path class="st0" d="M178.6,185.1c0.1,0.6,0.7,0.9,1.3,0.8c0.6-0.1,0.9-0.7,0.8-1.3c-0.1-0.6-0.7-0.9-1.3-0.8
		C178.8,184,178.5,184.5,178.6,185.1z"/>
	<path class="st0" d="M179.2,176.2c-0.1-0.6-0.6-1-1.2-0.9c-0.6,0.1-1,0.6-0.9,1.2c0.1,0.6,0.6,1,1.2,0.9
		C178.9,177.4,179.3,176.8,179.2,176.2z"/>
	<path class="st0" d="M178.6,179.6c-0.6,0.1-1,0.6-0.9,1.2c0.1,0.6,0.7,1,1.2,0.9c0.6-0.1,1-0.7,0.9-1.2
		C179.7,179.9,179.2,179.5,178.6,179.6z"/>
	<path class="st0" d="M178.8,172c0-0.6-0.6-1-1.1-1c-0.6,0-1,0.5-1,1.1s0.6,1,1.1,1C178.4,173.1,178.9,172.6,178.8,172z"/>
	<path class="st0" d="M176.4,167.8c0,0.6,0.5,1,1.1,1s1-0.5,1-1.1s-0.5-1-1.1-1C176.8,166.8,176.4,167.3,176.4,167.8z"/>
	<path class="st0" d="M177.3,162.4c-0.6,0-1.1,0.5-1,1.1c0,0.6,0.5,1.1,1.1,1c0.6,0,1.1-0.5,1-1.1
		C178.4,162.9,177.9,162.4,177.3,162.4z"/>
	<path class="st0" d="M149.3,192.6c0-0.6-0.5-1-1.1-1s-1,0.5-1,1.1s0.5,1,1.1,1C148.9,193.6,149.3,193.1,149.3,192.6z"/>
	<path class="st0" d="M148.7,198c0.6-0.1,1-0.6,0.9-1.2c-0.1-0.6-0.6-1-1.2-0.9c-0.6,0.1-1,0.6-0.9,1.2
		C147.6,197.6,148.1,198,148.7,198z"/>
	<path class="st0" d="M149.3,202.2c0.6-0.1,1-0.6,0.9-1.2c-0.1-0.6-0.6-1-1.2-0.9c-0.6,0.1-1,0.6-0.9,1.2
		C148.2,201.9,148.8,202.3,149.3,202.2z"/>
	<path class="st0" d="M151,205.2c-0.1-0.6-0.7-0.9-1.2-0.8c-0.6,0.1-0.9,0.7-0.8,1.3c0.1,0.6,0.7,0.9,1.3,0.8
		C150.7,206.3,151.1,205.7,151,205.2z"/>
	<path class="st0" d="M151.2,210.6c0.6-0.2,0.9-0.7,0.7-1.3c-0.1-0.6-0.7-0.9-1.3-0.8c-0.6,0.1-0.9,0.7-0.8,1.3
		C150,210.4,150.6,210.7,151.2,210.6z"/>
	<path class="st0" d="M153.1,213.3c-0.2-0.5-0.8-0.9-1.3-0.7c-0.6,0.2-0.9,0.8-0.7,1.3c0.2,0.6,0.8,0.9,1.3,0.7
		C153,214.5,153.3,213.9,153.1,213.3z"/>
	<path class="st0" d="M154,218.7c0.5-0.2,0.8-0.8,0.6-1.4c-0.2-0.5-0.8-0.8-1.4-0.6c-0.5,0.2-0.8,0.8-0.6,1.4
		C152.8,218.6,153.4,218.9,154,218.7z"/>
	<path class="st0" d="M154.8,220.7c-0.5,0.2-0.8,0.9-0.5,1.4s0.9,0.8,1.4,0.5s0.7-0.9,0.5-1.4C156,220.6,155.4,220.4,154.8,220.7z"
		/>
	<path class="st0" d="M156.8,224.5c-0.5,0.3-0.7,0.9-0.4,1.5c0.1,0.1,0.2,0.2,0.3,0.3c-0.5-0.2-1.1-0.1-1.4,0.4
		c-0.3,0.5-0.1,1.1,0.4,1.4c0.5,0.3,1.2,0.2,1.5-0.4c0.3-0.5,0.1-1.1-0.3-1.4c0.3,0.2,0.7,0.2,1.1,0c0.5-0.3,0.6-1,0.3-1.5
		C158,224.3,157.3,224.2,156.8,224.5z"/>
	<path class="st0" d="M159.2,228c-0.5,0.3-0.6,1-0.2,1.5c0.4,0.5,1.1,0.5,1.5,0.1s0.5-1.1,0.1-1.5
		C160.3,227.8,159.6,227.7,159.2,228z"/>
	<path class="st0" d="M162,231.2c-0.4,0.4-0.4,1.1,0.1,1.5s1.1,0.3,1.5-0.1c0.4-0.5,0.3-1.1-0.1-1.5
		C163.1,230.8,162.4,230.8,162,231.2z"/>
	<path class="st0" d="M166.8,233.5c-0.5-0.2-1.1-0.1-1.4,0.4c-0.3,0.5-0.2,1.2,0.4,1.5c0.6,0.3,1.2,0.1,1.4-0.5
		C167.5,234.3,167.3,233.7,166.8,233.5z"/>
	<path class="st0" d="M170.5,234.8c-0.5-0.1-1.1,0.2-1.2,0.8c-0.2,0.6,0.2,1.2,0.8,1.3s1.2-0.3,1.3-0.9
		C171.4,235.5,171,234.9,170.5,234.8z"/>
	<path class="st0" d="M174.5,235.1c-0.5,0-1,0.5-1,1.1s0.5,1.1,1.1,1c0.6,0,1.1-0.6,1-1.2C175.5,235.5,175,235.1,174.5,235.1z"/>
	<path class="st0" d="M178.4,234.3c-0.5,0.2-0.8,0.7-0.7,1.3s0.7,0.9,1.3,0.7s0.9-0.8,0.7-1.4C179.5,234.4,179,234.1,178.4,234.3z"
		/>
	<path class="st0" d="M182.1,232.7c-0.5,0.3-0.7,0.9-0.4,1.4s0.9,0.7,1.5,0.4c0.5-0.3,0.7-1,0.4-1.5
		C183.2,232.5,182.6,232.4,182.1,232.7z"/>
	<path class="st0" d="M185.4,230.2c-0.4,0.4-0.4,1-0.1,1.5c0.4,0.5,1.1,0.5,1.5,0.1s0.5-1.1,0-1.5
		C186.4,229.9,185.8,229.9,185.4,230.2z"/>
	<path class="st0" d="M188.1,227.2c-0.3,0.5-0.2,1.1,0.2,1.5c0.5,0.4,1.1,0.3,1.5-0.2s0.2-1.2-0.2-1.5
		C189.1,226.6,188.4,226.8,188.1,227.2z"/>
	<path class="st0" d="M191.6,223.2c-0.5-0.2-1.1,0-1.4,0.5c-0.3,0.5,0,1.1,0.5,1.4c0.5,0.3,1.2,0.1,1.4-0.4
		C192.4,224.1,192.2,223.5,191.6,223.2z"/>
	<path class="st0" d="M193.2,219.3c-0.6-0.2-1.2,0.1-1.3,0.6c-0.2,0.5,0.1,1.1,0.6,1.3s1.2-0.1,1.4-0.6
		C194.1,220,193.8,219.4,193.2,219.3z"/>
	<path class="st0" d="M194.3,215.1c-0.6-0.1-1.1,0.2-1.3,0.8c-0.1,0.5,0.2,1.1,0.8,1.3s1.1-0.2,1.3-0.8
		C195.2,215.8,194.9,215.2,194.3,215.1z"/>
	<path class="st0" d="M195,210.9c-0.6-0.1-1.1,0.3-1.2,0.9c-0.1,0.6,0.3,1.1,0.9,1.2c0.6,0.1,1.1-0.3,1.2-0.9
		C196,211.5,195.5,210.9,195,210.9z"/>
	<path class="st0" d="M195.3,206.6c-0.6,0-1.1,0.4-1.1,1s0.4,1.1,1,1.1c0.6,0.1,1.1-0.4,1.1-1S195.9,206.6,195.3,206.6z"/>
	<polygon class="st0" points="119.6,197.5 118.2,198.9 117.8,200.7 118.5,201.8 119.6,202.5 120.7,201.8 121.3,200.7 121,198.9 	"/>
	<path class="st0" d="M119.6,192.3c-0.4,0-0.6,0.3-0.6,0.7s0.3,0.6,0.6,0.6c0.4,0,0.6-0.3,0.6-0.6
		C120.2,192.6,119.9,192.3,119.6,192.3z"/>
	<path class="st0" d="M119.6,195c-0.4,0-0.6,0.3-0.6,0.7s0.3,0.6,0.6,0.6c0.4,0,0.6-0.3,0.6-0.6C120.2,195.2,119.9,195,119.6,195z"
		/>
	<polygon class="st0" points="141.2,197.5 139.9,198.9 139.5,200.7 140.2,201.8 141.2,202.5 142.3,201.8 143,200.7 142.6,198.9 	"/>
	<path class="st0" d="M141.2,192.3c-0.4,0-0.6,0.3-0.6,0.7s0.3,0.6,0.6,0.6c0.4,0,0.6-0.3,0.6-0.6
		C141.9,192.6,141.6,192.3,141.2,192.3z"/>
	<path class="st0" d="M141.2,195c-0.4,0-0.6,0.3-0.6,0.7s0.3,0.6,0.6,0.6c0.4,0,0.6-0.3,0.6-0.6C141.9,195.2,141.6,195,141.2,195z"
		/>
	<polygon class="st0" points="174.9,245.3 173.1,247.1 172.7,249.3 173.5,250.7 174.9,251.5 176.2,250.7 177,249.3 176.6,247.1 	"/>
	<path class="st0" d="M174.9,242.1c-0.4,0-0.8,0.4-0.8,0.8c0,0.4,0.4,0.8,0.8,0.8c0.4,0,0.8-0.4,0.8-0.8
		C175.6,242.5,175.3,242.1,174.9,242.1z"/>
	<path class="st0" d="M174.9,238.8c-0.4,0-0.8,0.4-0.8,0.8c0,0.4,0.4,0.8,0.8,0.8c0.4,0,0.8-0.4,0.8-0.8
		C175.6,239.2,175.3,238.8,174.9,238.8z"/>
	<polygon class="st0" points="86,245.3 84.3,247.1 83.8,249.3 84.7,250.7 86,251.5 87.4,250.7 88.2,249.3 87.7,247.1 	"/>
	<path class="st0" d="M86,238.8c-0.4,0-0.8,0.4-0.8,0.8c0,0.4,0.4,0.8,0.8,0.8s0.8-0.4,0.8-0.8S86.4,238.8,86,238.8z"/>
	<path class="st0" d="M86,242.1c-0.4,0-0.8,0.4-0.8,0.8c0,0.4,0.4,0.8,0.8,0.8s0.8-0.4,0.8-0.8S86.4,242.1,86,242.1z"/>
	<path class="st0" d="M94.6,197.9c-0.6,0.1-1,0.7-0.8,1.2c0.1,0.6,0.7,1,1.3,0.8c0.6-0.1,0.9-0.7,0.8-1.2
		C95.7,198.2,95.2,197.8,94.6,197.9z"/>
	<path class="st0" d="M101.7,223.9c0.3,0.5,0.9,0.7,1.4,0.5c0.5-0.3,0.7-0.9,0.5-1.4c-0.3-0.5-0.9-0.7-1.4-0.5
		C101.6,222.7,101.4,223.4,101.7,223.9z"/>
	<path class="st0" d="M106.4,229.9c-0.5,0.3-0.6,1-0.2,1.5c0.3,0.5,1,0.6,1.5,0.2c0.5-0.4,0.6-1,0.2-1.5
		C107.5,229.7,106.9,229.6,106.4,229.9z"/>
	<path class="st0" d="M104.1,226.3c-0.5,0.3-0.7,0.9-0.4,1.5c0.3,0.5,1,0.7,1.5,0.4s0.6-0.9,0.4-1.4
		C105.3,226.1,104.6,226,104.1,226.3z"/>
	<path class="st0" d="M112,236.4c-0.4,0.4-0.4,1.1,0.1,1.5s1.1,0.3,1.5-0.1c0.4-0.5,0.3-1.1-0.1-1.5C113,235.9,112.4,236,112,236.4z
		"/>
	<path class="st0" d="M109,233.3c-0.4,0.4-0.5,1.1-0.1,1.5s1.1,0.5,1.5,0.1s0.5-1.1,0.1-1.5C110.1,233,109.5,232.9,109,233.3z"/>
	<path class="st0" d="M132.5,242.5c-0.6,0.1-1,0.5-1,1.1s0.5,1.1,1.1,1s1-0.6,1-1.1C133.6,242.9,133.1,242.5,132.5,242.5z"/>
	<path class="st0" d="M101.2,220.5c0.5-0.2,0.8-0.9,0.6-1.4c-0.2-0.5-0.8-0.8-1.4-0.6c-0.5,0.2-0.8,0.8-0.6,1.4
		C100.1,220.5,100.7,220.7,101.2,220.5z"/>
	<path class="st0" d="M98.2,212.5c0.6-0.2,0.9-0.8,0.7-1.3c-0.2-0.5-0.8-0.9-1.3-0.7c-0.6,0.2-0.9,0.8-0.7,1.3
		C97,212.3,97.6,212.6,98.2,212.5z"/>
	<path class="st0" d="M97.7,207.1c-0.2-0.6-0.7-0.9-1.3-0.7c-0.6,0.1-0.9,0.7-0.8,1.3c0.2,0.6,0.7,0.9,1.3,0.7
		C97.5,208.2,97.9,207.6,97.7,207.1z"/>
	<path class="st0" d="M100.3,215.2c-0.2-0.5-0.8-0.8-1.4-0.6c-0.5,0.2-0.8,0.8-0.6,1.4c0.2,0.6,0.8,0.8,1.4,0.6
		C100.2,216.3,100.4,215.7,100.3,215.2z"/>
	<path class="st0" d="M168.8,176.6c-0.6,0-1.1,0.4-1.1,1s0.4,1.1,1,1.1s1.1-0.4,1.1-1C169.9,177.2,169.4,176.7,168.8,176.6z"/>
	<path class="st0" d="M167.9,173.4c0,0.6,0.5,1,1,1.1c0.6,0,1.1-0.5,1.1-1.1H167.9z"/>
	<path class="st0" d="M128.4,242.5c-0.6,0-1.1,0.4-1.1,1c-0.1,0.6,0.4,1.1,1,1.1c0.6,0.1,1.1-0.4,1.1-1
		C129.4,243.1,129,242.6,128.4,242.5z"/>
	<path class="st0" d="M116.8,238.7c-0.5-0.3-1.1-0.2-1.4,0.3s-0.2,1.2,0.3,1.5s1.2,0.2,1.5-0.4C117.4,239.7,117.3,239,116.8,238.7z"
		/>
	<path class="st0" d="M120.4,240.6c-0.5-0.2-1.1,0-1.4,0.5s0,1.2,0.5,1.4c0.6,0.2,1.2,0,1.4-0.6C121.2,241.5,121,240.8,120.4,240.6z
		"/>
	<path class="st0" d="M124.3,241.9c-0.5-0.1-1.1,0.2-1.3,0.8c-0.2,0.6,0.2,1.2,0.8,1.3c0.6,0.1,1.2-0.2,1.3-0.8
		C125.2,242.6,124.9,242,124.3,241.9z"/>
	<path class="st0" d="M157.4,222.9c-0.3,0.5-0.1,1.1,0.5,1.4c0.5,0.3,1.2,0.1,1.4-0.5c0.3-0.5,0-1.2-0.5-1.4
		C158.3,222.2,157.6,222.4,157.4,222.9z"/>
	<path class="st0" d="M167.2,199.2c0.1-0.6-0.3-1.1-0.8-1.2c-0.6-0.1-1.1,0.3-1.2,0.8c-0.1,0.6,0.3,1.1,0.8,1.2
		C166.5,200.1,167.1,199.7,167.2,199.2z"/>
	<path class="st0" d="M94.6,203.4c0.1,0.6,0.7,0.9,1.3,0.8c0.6-0.1,0.9-0.7,0.8-1.3s-0.7-0.9-1.3-0.8
		C94.9,202.3,94.5,202.8,94.6,203.4z"/>
	<path class="st0" d="M165.5,202.1c-0.6-0.1-1.1,0.2-1.3,0.8c-0.1,0.6,0.2,1.1,0.8,1.3c0.6,0.1,1.1-0.2,1.3-0.8
		S166.1,202.3,165.5,202.1z"/>
	<path class="st0" d="M95.1,194.6c-0.1-0.6-0.6-1-1.2-0.9s-1,0.6-0.9,1.2c0.1,0.6,0.6,1,1.2,0.9C94.8,195.7,95.2,195.1,95.1,194.6z"
		/>
	<path class="st0" d="M160.5,218.5c-0.5-0.2-1.2,0-1.4,0.6c-0.2,0.5,0,1.2,0.6,1.4c0.5,0.2,1.2,0,1.4-0.6
		C161.4,219.4,161.1,218.8,160.5,218.5z"/>
	<path class="st0" d="M162.7,215.9c0.2-0.6-0.1-1.2-0.6-1.4c-0.6-0.2-1.2,0.1-1.4,0.6s0.1,1.1,0.6,1.4
		C161.9,216.7,162.5,216.4,162.7,215.9z"/>
	<path class="st0" d="M163.4,210.4c-0.6-0.2-1.1,0.1-1.3,0.7c-0.2,0.5,0.1,1.1,0.7,1.3c0.6,0.2,1.2-0.1,1.3-0.7
		C164.3,211.2,163.9,210.6,163.4,210.4z"/>
	<path class="st0" d="M153.1,230.1c-0.3,0.5-0.2,1.1,0.2,1.5c0.5,0.4,1.1,0.3,1.5-0.2s0.2-1.2-0.2-1.5
		C154.1,229.6,153.4,229.7,153.1,230.1z"/>
	<path class="st0" d="M150.5,233.4c-0.4,0.4-0.3,1.1,0.1,1.5c0.4,0.4,1.1,0.4,1.5-0.1c0.4-0.4,0.4-1.1-0.1-1.5
		S150.8,233,150.5,233.4z"/>
	<path class="st0" d="M167.7,189.5c-0.6-0.1-1.1,0.3-1.2,0.9c-0.1,0.6,0.3,1.1,0.9,1.2c0.6,0.1,1.1-0.3,1.2-0.9
		C168.7,190.1,168.3,189.5,167.7,189.5z"/>
	<path class="st0" d="M168.2,185.2c-0.6-0.1-1.1,0.4-1.2,0.9c-0.1,0.6,0.4,1.1,0.9,1.2c0.6,0.1,1.1-0.4,1.2-0.9
		C169.2,185.8,168.8,185.3,168.2,185.2z"/>
	<path class="st0" d="M164.5,206.3c-0.6-0.1-1.1,0.2-1.3,0.7c-0.1,0.6,0.2,1.1,0.8,1.3s1.1-0.2,1.3-0.7
		C165.4,207,165.1,206.5,164.5,206.3z"/>
	<path class="st0" d="M167.1,193.7c-0.6-0.1-1.1,0.3-1.2,0.9c-0.1,0.6,0.3,1.1,0.9,1.2c0.6,0.1,1.1-0.3,1.2-0.9
		C168.1,194.3,167.7,193.8,167.1,193.7z"/>
	<path class="st0" d="M168.6,180.9c-0.6,0-1.1,0.4-1.1,1s0.4,1.1,1,1.1s1.1-0.4,1.1-1C169.6,181.5,169.2,181,168.6,180.9z"/>
	<path class="st0" d="M93.5,181.9c0-0.6-0.6-1-1.1-1c-0.6,0-1,0.6-1,1.1c0,0.6,0.6,1,1.2,1C93.1,183,93.6,182.5,93.5,181.9z"/>
	<path class="st0" d="M93.9,186.1c-0.1-0.6-0.6-1-1.2-0.9s-1,0.6-0.9,1.2c0.1,0.6,0.6,1,1.2,0.9S94,186.7,93.9,186.1z"/>
	<path class="st0" d="M91.1,177.8c0,0.6,0.5,1,1.1,1s1-0.5,1-1.1s-0.5-1-1.1-1S91.1,177.2,91.1,177.8z"/>
	<path class="st0" d="M94.4,190.4c-0.1-0.6-0.6-1-1.2-0.9s-1,0.6-0.9,1.2c0.1,0.6,0.6,1,1.2,0.9C94.1,191.5,94.5,190.9,94.4,190.4z"
		/>
	<path class="st0" d="M144.2,238.7c-0.5,0.3-0.6,0.9-0.3,1.4s0.9,0.7,1.5,0.4c0.5-0.3,0.6-1,0.3-1.5
		C145.3,238.6,144.6,238.5,144.2,238.7z"/>
	<path class="st0" d="M140.5,240.6c-0.5,0.2-0.8,0.8-0.6,1.4c0.2,0.5,0.8,0.8,1.4,0.6c0.6-0.2,0.8-0.9,0.6-1.4
		C141.6,240.7,141,240.4,140.5,240.6z"/>
	<path class="st0" d="M92,174.5c0.6,0,1.1-0.5,1.1-1.1H91C91,174,91.5,174.5,92,174.5z"/>
	<path class="st0" d="M147.5,236.3c-0.4,0.4-0.5,1-0.1,1.5s1,0.5,1.5,0.1s0.5-1.1,0.1-1.5C148.6,236,147.9,235.9,147.5,236.3z"/>
	<path class="st0" d="M136.6,241.9c-0.5,0.1-0.9,0.7-0.8,1.3c0.1,0.6,0.7,0.9,1.3,0.8c0.6-0.2,0.9-0.7,0.8-1.3
		C137.7,242.1,137.2,241.8,136.6,241.9z"/>
</g>
</svg>
