<?xml version="1.0" encoding="utf-8"?>
<!-- Generator: Adobe Illustrator 22.1.0, SVG Export Plug-In . SVG Version: 6.00 Build 0)  -->
<svg version="1.1" id="レイヤー_1" xmlns="http://www.w3.org/2000/svg" xmlns:xlink="http://www.w3.org/1999/xlink" x="0px"
	 y="0px" viewBox="0 0 219.2 23.8" style="enable-background:new 0 0 219.2 23.8;" xml:space="preserve">
<style type="text/css">
	.st0{fill:#C4A676;}
</style>
<g>
	<path class="st0" d="M109.8,6.3c-5.6,0-10,2.5-10,5.6c0,3.1,4.4,5.6,10,5.6s10-2.5,10-5.6C119.8,8.7,115.4,6.3,109.8,6.3z
		 M110.7,15.3c0.1-0.2,0.2-0.3,0.2-0.6V9.8c0-0.6-0.5-1.1-1.1-1.1c-0.6,0-1.1,0.5-1.1,1.1v4.9c0,0.2,0.1,0.4,0.2,0.6
		c-2.5-0.3-4.5-1.7-4.5-3.4c0-1.9,2.4-3.4,5.4-3.4c3,0,5.4,1.5,5.4,3.4C115.2,13.6,113.3,15,110.7,15.3z"/>
	<path class="st0" d="M112.4,9.1c-0.6,0-1.1,0.5-1.1,1.1v3.5c0,0.6,0.5,1.1,1.1,1.1c0.6,0,1.1-0.5,1.1-1.1v-3.5
		C113.5,9.6,113,9.1,112.4,9.1z"/>
	<path class="st0" d="M109.8,6c1.9,0,3.4-1.3,3.4-3c0-1.6-1.5-3-3.4-3s-3.4,1.3-3.4,3C106.4,4.6,107.9,6,109.8,6z M109.8,2.2
		c0.6,0,1.2,0.4,1.2,0.8c0,0.4-0.6,0.8-1.2,0.8c-0.6,0-1.2-0.4-1.2-0.8C108.6,2.6,109.2,2.2,109.8,2.2z"/>
	<path class="st0" d="M109.8,17.8c-1.9,0-3.4,1.3-3.4,3c0,1.6,1.5,3,3.4,3s3.4-1.3,3.4-3C113.2,19.1,111.7,17.8,109.8,17.8z
		 M109.8,21.6c-0.6,0-1.2-0.4-1.2-0.8c0-0.4,0.6-0.8,1.2-0.8c0.6,0,1.2,0.4,1.2,0.8C111,21.2,110.5,21.6,109.8,21.6z"/>
	<path class="st0" d="M107.3,9.1c-0.6,0-1.1,0.5-1.1,1.1v3.5c0,0.6,0.5,1.1,1.1,1.1c0.6,0,1.1-0.5,1.1-1.1v-3.5
		C108.3,9.6,107.9,9.1,107.3,9.1z"/>
	<path class="st0" d="M94.8,8c-1.4,0-2.7,0.7-3.5,2c-0.4,0.7-1.1,1-1.8,1H1.1c-0.6,0-1.1,0.5-1.1,1.1c0,0.6,0.5,1.1,1.1,1.1h88.4
		c0.7,0,1.4,0.4,1.8,1c0.8,1.2,2.1,2,3.5,2c0.2,0,0.5,0,0.7-0.1c1.6-0.3,3-1.5,3.3-3.1c0.3-1.2,0-2.5-0.8-3.5C97.2,8.6,96,8,94.8,8z
		 M94.8,10.2c1.1,0,1.9,0.9,1.9,1.9c0,1.1-0.9,1.9-1.9,1.9c-1.1,0-1.9-0.9-1.9-1.9C92.8,11.1,93.7,10.2,94.8,10.2z"/>
	<path class="st0" d="M218.1,11.1h-88.4c-0.7,0-1.4-0.4-1.8-1c-0.9-1.4-2.5-2.2-4.2-1.9c-1.6,0.3-3,1.5-3.3,3.1
		c-0.3,1.2,0,2.5,0.8,3.5c0.8,1,1.9,1.5,3.2,1.5c1.4,0,2.7-0.7,3.5-2c0.4-0.7,1.1-1,1.8-1h88.4c0.6,0,1.1-0.5,1.1-1.1
		C219.2,11.5,218.8,11.1,218.1,11.1z M124.5,14.1c-1.1,0-1.9-0.9-1.9-1.9c0-1.1,0.9-1.9,1.9-1.9c1.1,0,1.9,0.9,1.9,1.9
		C126.4,13.2,125.5,14.1,124.5,14.1z"/>
</g>
</svg>
