<?xml version="1.0" encoding="utf-8"?>
<!-- Generator: Adobe Illustrator 22.1.0, SVG Export Plug-In . SVG Version: 6.00 Build 0)  -->
<svg version="1.1" id="レイヤー_1" xmlns="http://www.w3.org/2000/svg" xmlns:xlink="http://www.w3.org/1999/xlink" x="0px"
	 y="0px" viewBox="0 0 183.2 186.3" style="enable-background:new 0 0 183.2 186.3;" xml:space="preserve">
<style type="text/css">
	.st0{fill:#FFFFFF;}
</style>
<g>
	<path class="st0" d="M24.2,90.1c12.3,1,31-13.1,35.8-18.6c7.2-8.3,3.5-18,2.2-19.9c-3-4.2-8.8-7.4-13.4-10.2s-7.4-4.7-5-13.1
		c2.4-8.4,13.1-19,19.2-21.4s9.6-0.1,8.5,5.1s-8.3,13.6-17.9,18.8c2,3.7,6.3,0.8,10.1-1.5S77.9,19,74.2,10c-3.7-9-13.3-12.6-20-8
		S38.3,15.7,36.7,27.2c-1.6,11.4,9.1,16,10.9,17.1c1.8,1.1,16,5.7,12.3,14.1c-1.8,4.1-11.5,14.2-18.5,17.8
		c-6.9,3.7-21.7,10.1-25.9,3.4c-4.2-6.7,7.8-15.4,13.2-19.1c5.4-3.8,14.4-5.2,16.7-5.3c0,0-1.9-10.1-9.6-6.7
		C28,51.8,15,58.4,12.1,70.1C10.2,77.4,15.1,89.4,24.2,90.1z"/>
	<path class="st0" d="M76.4,62.9c3.2-0.3,13-7.1,18.6-13c-0.9,10.3,3.2,15.5,8.3,14.4c6.9-1.5,11-9.2,13.1-15
		c0.1,0.7,0.1,1.4,0.2,2.1c0.7,7.6,2.9,19.9,10.3,19.4c7.4-0.5,14.7-20.6,18.1-27.8s10.5-19.4,14.7-23.2c-0.9-0.7-5.6-4-8.6,0.4
		c-3.1,4.3-7.3,11.4-10,18.8s-8.5,20.9-11.5,26.9c-3,6.1-4.7,2.3-6.1-3.3c-1.4-5.6-0.6-18.8-0.5-23.5s-3.2-7.1-5.4-7.9
		c-1.4,3.7-1.7,7.7-1.5,12c-2.1,9.2-9.8,19.2-12.9,19.5c-3.5,0.3-3.3-5.6-2.1-12.2s5.5-13.3,5.5-13.3c-2.2-1.8-5.8-0.3-8.3,2.6
		c-1.6-1.5-4.4-4-6.7-5.7c-3.5-2.6-7.1-1.9-10.2,0.8C78.1,37.7,70.1,45.3,69,51.8C68,58.4,72.3,63.2,76.4,62.9z M74.5,54
		c3-6.7,12.8-16.4,16.3-15.1c2,0.7,3.9,1.9,5.2,2.9c-2.1,2.7-9.1,11.2-14.8,14.9C74.5,61.2,71.5,60.7,74.5,54z"/>
	<path class="st0" d="M182.8,54.7c0,0-1.4,7.3-11.6,14.8c-10.2,7.5-15.2,2.1-17.6-7c-0.9-3.3-0.4-6.8,0.7-10
		c5.8-0.7,18.9-8.1,17.3-16.1c-1.1-5.8-9.7-5-16,0.4c-6.3,5.4-10.4,13-9.5,22.7c1,9.7,9.2,19.3,20.9,15.2
		c7.9-2.7,13.8-11.2,15.4-14.4C184,57.1,182.8,54.7,182.8,54.7z M167.5,39.9c-2.9,5.1-7.8,7.6-11.8,9.1c1.9-3.9,4.5-7.1,6.1-8.8
		C165,36.9,170.9,33.8,167.5,39.9z"/>
	<path class="st0" d="M109.1,107.7c1.8,1.7,4.9,4,11.2-4.9c0.1,2.2,1,4.3,3.2,5.2c4.9,2,9.6-3.4,11-5.3c1.4-1.9,0.3-2.9,0.3-2.9
		s-0.5,1.3-3.8,4.3c-3.3,3-7,2.6-6.8-0.5c0.1-0.7,0.2-1.4,0.4-2.1c5.5-0.9,10.1-6.2,7.7-9.3c-2.5-3.2-7.1-0.2-9.6,2.8
		c-0.5,0.6-1,1.5-1.4,2.5c-1.9,3.1-7.2,11.5-9.3,10c-1.8-1.3,0.7-4.6,2-7.8c1.4-3.1-1.4-5.5-4.3-3.6c-2.9,2-9.7,8.5-10.8,9.9
		s-0.6-0.5,1-3.7c1-2,4.5-9.2,7.7-15.2c5.5-0.2,9.9-0.3,11.2-0.4c4.3-0.3,5.7-0.5,5.2-3.4c-0.3,0.3-1,1.2-5.7,1.4
		c-1.5,0.1-5.2,0.2-9.7,0.3c1.4-2.7,2.6-4.9,3.3-6.1c2.4-4.1-1.8-8.3-1.8-8.3s-3.8,7.7-7.2,14.6c-3.1,0.1-6.3,0.2-9.3,0.3
		c1.6-3.1,2.9-5.4,3.6-6.6c1.4-2.5,0.8-3.6-3-7.7c0,0-3.7,6.6-7.3,14.5c-2.4,0.1-4.3,0.2-5.3,0.2c-5.3,0.2-8.3,0.2-8.6,3.4
		c1.2-0.8,1.8-0.5,4.6-1c0.8-0.1,4-0.3,8.4-0.5c-0.4,1-0.8,1.9-1.2,2.9c-4,9.8-6.7,21.6-0.6,24.3c2.1,1,4.8-0.1,6-1.2
		c1.1-1,1.2-1.8,0.6-2.3c-3.1,1.9-4,2.9-5.5,1.7c-1.5-1.2-0.5-6,3.1-15.6c1.4-3.9,2.9-7.2,4.3-10c3-0.1,6.2-0.2,9.3-0.3
		c-1.2,2.4-2.2,4.5-2.9,6c-3,6.2-4.8,12.2-5.2,14.4c-0.4,2.2-0.1,3.5,2.5,4.6c2-3.1,9.5-10.2,12.1-12.3c2.1-1.7,2-1.4,1.1,0.7
		S107.2,105.9,109.1,107.7z M130.7,95.7c-1.3,2.5-3.7,3.6-5.6,4.3c0.7-2,1.8-3.9,3-5.5C130.1,92,132.3,92.7,130.7,95.7z"/>
	<path class="st0" d="M177.6,158.2c0,0-2.3,4.9-8.6,10.8c-7.2,6.8-17.2,8.7-16.7-1.9c0.1-2,0.4-3.9,0.8-5.7
		c11.9-2.3,21.6-12.9,17.5-19.5c-4.2-6.7-14.1-2.3-20.5,6.1c-2.8,3.6-4.9,10.1-4.8,16.1c-3.4,5.4-10,15-13.8,13.7
		c-5.3-1.8,2.5-24.2,7.7-36.4c1.7-4.1,3.1-7.2,4.3-9.8c9.9,0.3,20.5,0.6,23.7,0.3c6.2-0.5,5.3-5,5.3-5s-0.4,1.6-4.5,2.3
		c-2.1,0.3-12.8,0.1-23.3-0.2c1.7-3.7,3-6.1,4.2-8.7c2.3-4.7,0.2-8.8-2.4-12.2c0,0-5.1,10.4-10,20.6c-6.5-0.2-11.9-0.4-13.7-0.4
		c-5.2-0.1-4,3.6-4,3.6c0.8-1,1.4-0.8,4.7-0.9c1.1,0,5.8,0.1,11.7,0.3c-2.6,5.6-5.1,10.8-6.4,14c-0.7,1.7-1.5,3.6-2.1,5.4
		c-5.6,7.9-13.1,17-16.7,15c-6-3.5,5-25.5,5-25.5c-1.5-1.4-4.7-2.2-8,3.3c-9.1-8.4-17.2-6.4-21.3-2c-4.3,4.7-16.1,20.6-7.4,25.5
		c7.5,4.2,20.4-9.5,25.1-14.9c-2.2,7-2.5,14.4,4,17.1c4.4,1.8,11-3.6,16.4-9.3c-1.4,5.2-2.4,10.1-2.6,13.9
		c-0.4,7.4,7.3,10.8,14.7,4.8c4-3.2,7.5-7.6,9.9-11c0.8,3.9,2.8,7.3,6.6,9c10.7,4.9,21.9-8.6,25-12.7
		C180.5,159.8,177.6,158.2,177.6,158.2z M80.5,164.5c-2.6-0.4,2.4-13.4,13-19.5c7.6-4.3,10.8-1.5,12.1,0.5
		C95.3,157.5,83,164.9,80.5,164.5z M168.4,149.3c-3.5,6.1-10.3,8.2-14.7,9.8c1.6-5.1,4.3-9.2,7.2-12.3
		C165.9,141.5,172.2,142.7,168.4,149.3z"/>
	<path class="st0" d="M76.1,121.6c-3.6-7.8-16.4-7.7-29.3-4.3c1.4-2.7,2.8-5.4,4.4-8.1c-2.9-1.6-7.9-4.1-12.3,4
		c-0.9,1.7-2.3,4.6-3.9,8.1c-5.1,2.1-9.7,4.6-13.3,7.1C6.5,139.1,4.9,141,1,146c-3.2,4,2.1,7.1,4.3,9c0,0,5-14.6,26.4-26.4
		c-5.4,12.8-11.7,29-12.9,35.5c-1.8,10,3.5,10,3.5,10s7.1-22.6,21.4-51.1c24.5-9.7,34.7-4.7,25.8,13.4
		c-9.4,19.3-23.1,37.5-35.5,43.5s-17,1.8-17,1.8s-2,3.9,3,4.3S42,188,58.3,169.4S82.3,135,76.1,121.6z"/>
</g>
</svg>
