<?xml version="1.0" encoding="utf-8"?>
<!-- Generator: Adobe Illustrator 22.1.0, SVG Export Plug-In . SVG Version: 6.00 Build 0)  -->
<svg version="1.1" id="レイヤー_1" xmlns="http://www.w3.org/2000/svg" xmlns:xlink="http://www.w3.org/1999/xlink" x="0px"
	 y="0px" viewBox="0 0 201.2 201.2" style="enable-background:new 0 0 201.2 201.2;" xml:space="preserve">
<style type="text/css">
	.st0{fill:#FFFFFF;}
</style>
<g>
	<path class="st0" d="M30.6,31.5c-0.4,0.2-0.9,0.5-1.7,0.7c-0.8,0.2-1.7,0.4-2.8,0.3c-1.1-0.1-2.3-0.3-3.6-0.8
		c-0.6-0.2-1.3-0.5-2.1-0.7c-0.8-0.1-1.7-0.1-2.5,0.2c-1.6,0.5-3,1.6-4.3,2.6c-0.1,0.1-0.2,0.1-0.3,0.2c-0.4-0.4-0.9-0.8-1.5-1.2
		c-0.8-0.5-1.7-0.8-2.7-1c-1-0.1-2,0-3,0.4c-0.5,0.2-0.9,0.5-1.3,0.8c-0.4,0.4-0.7,0.9-0.7,1.5c0,0.6,0.4,1.2,0.9,1.5
		c0.4,0.3,0.9,0.5,1.4,0.7c0.9,0.3,2,0.4,2.9,0.2c1-0.1,1.9-0.5,2.7-0.9c0.4-0.2,0.8-0.5,1.2-0.7c1,1.2,1.9,2.5,2.1,3.8
		c0.3,1.3-0.4,2.6-1,3.8c-0.6,1.2-1.1,2.3-1.3,3.4c-0.2,1.1-0.2,2-0.1,2.7c0.1,0.8,0.2,1.3,0.3,1.7c0.1,0.4,0.1,0.6,0.1,0.6
		s0-0.2-0.1-0.6c-0.1-0.4-0.1-1-0.1-1.7c0-0.7,0.1-1.7,0.3-2.7c0.3-1,0.8-2.1,1.4-3.2c0.3-0.6,0.7-1.2,1-1.8
		c0.3-0.7,0.4-1.5,0.3-2.3c-0.1-0.8-0.4-1.6-0.8-2.3c-0.4-0.7-0.8-1.3-1.3-1.9c0.1-0.1,0.2-0.1,0.2-0.2c1.3-1,2.6-2.1,4-2.5
		c0.7-0.2,1.4-0.3,2.1-0.2c0.7,0.1,1.3,0.3,2,0.5c1.3,0.4,2.6,0.6,3.8,0.6c1.2,0,2.1-0.2,2.9-0.5C29.8,32.2,30.3,31.8,30.6,31.5
		c0.4-0.2,0.5-0.4,0.5-0.4S31,31.3,30.6,31.5z M9.2,36.1c-0.8,0.1-1.7,0-2.5-0.2c-0.8-0.2-1.5-0.7-1.5-1.2c0-0.2,0.1-0.5,0.4-0.8
		c0.3-0.3,0.6-0.5,1-0.6C7.3,33,8.2,32.9,9,33c1.4,0.2,2.6,0.8,3.6,1.7C11.6,35.4,10.4,35.9,9.2,36.1z"/>
	<path class="st0" d="M14.5,41.5c0,0-4.6-1-6.8,2.6C7.7,44.1,12.1,45.4,14.5,41.5z"/>
	<path class="st0" d="M12.4,46.5c0,0-5.1,0.8-5,5.4C7.4,51.9,12.5,51,12.4,46.5z"/>
	<path class="st0" d="M13.5,51.6c0,0-2.6,3.7,1.5,6C15,57.5,16.9,54.4,13.5,51.6z"/>
	<path class="st0" d="M18.3,51.3c0,0-0.3-3.7-4.2-4.4C14.1,47,14.3,51,18.3,51.3z"/>
	<path class="st0" d="M19.6,47c0,0,0.8-3.4-3.6-4.6C16,42.3,15.6,46.3,19.6,47z"/>
	<path class="st0" d="M17.1,37c0,0,4.1,0,4.7-4.3C21.8,32.6,17.1,33,17.1,37z"/>
	<path class="st0" d="M32,9.1c0.1,1,0.5,1.9,1,2.7c0.3,0.6,0.8,1.1,1.2,1.5c-0.1,0.1-0.1,0.2-0.2,0.3c-1,1.3-2.1,2.7-2.6,4.3
		c-0.3,0.8-0.3,1.7-0.2,2.5c0.1,0.8,0.4,1.5,0.7,2.1c0.5,1.3,0.7,2.5,0.8,3.6c0.1,1.1-0.1,2.1-0.3,2.8c-0.2,0.8-0.5,1.3-0.7,1.7
		c-0.2,0.4-0.4,0.5-0.4,0.5s0.2-0.1,0.4-0.5c0.3-0.3,0.6-0.9,0.9-1.6c0.3-0.8,0.5-1.7,0.5-2.9c0-1.2-0.2-2.5-0.6-3.8
		c-0.2-0.7-0.5-1.3-0.5-2c-0.1-0.7,0-1.4,0.2-2.1c0.5-1.4,1.5-2.6,2.5-4c0.1-0.1,0.1-0.2,0.2-0.2c0.6,0.5,1.3,0.9,1.9,1.3
		c0.7,0.4,1.5,0.7,2.3,0.8c0.8,0.1,1.6,0,2.3-0.3c0.7-0.3,1.3-0.6,1.8-1c1.1-0.7,2.2-1.2,3.2-1.4c1-0.3,1.9-0.3,2.7-0.3
		c0.7,0,1.3,0.1,1.7,0.1c0.4,0.1,0.6,0.1,0.6,0.1s-0.2,0-0.6-0.1c-0.4-0.1-1-0.2-1.7-0.3c-0.8-0.1-1.7-0.1-2.7,0.1
		c-1.1,0.2-2.2,0.7-3.4,1.3c-1.2,0.6-2.4,1.3-3.8,1c-1.3-0.2-2.6-1.1-3.8-2.1c0.3-0.4,0.5-0.8,0.7-1.2c0.5-0.8,0.8-1.7,0.9-2.7
		c0.1-1,0-2-0.2-2.9c-0.1-0.5-0.3-1-0.7-1.4c-0.3-0.4-0.8-0.9-1.5-0.9c-0.6,0-1.1,0.3-1.5,0.7c-0.4,0.4-0.6,0.8-0.8,1.3
		C32,7.1,31.9,8.1,32,9.1z M33.3,6.6c0.2-0.4,0.4-0.7,0.6-1c0.2-0.3,0.5-0.4,0.8-0.4c0.5,0,1,0.7,1.2,1.5c0.2,0.8,0.3,1.7,0.2,2.5
		c-0.2,1.2-0.7,2.3-1.4,3.3c-0.9-1-1.6-2.2-1.7-3.6C32.9,8.2,33,7.3,33.3,6.6z"/>
	<path class="st0" d="M41.5,14.5c3.9-2.4,2.6-6.8,2.6-6.8C40.5,9.9,41.5,14.5,41.5,14.5z"/>
	<path class="st0" d="M46.5,12.4c4.5,0.1,5.4-5,5.4-5C47.3,7.3,46.5,12.4,46.5,12.4z"/>
	<path class="st0" d="M51.6,13.5c2.8,3.4,6,1.5,6,1.5C55.3,10.9,51.6,13.5,51.6,13.5z"/>
	<path class="st0" d="M51.3,18.3c-0.3-3.9-4.4-4.2-4.4-4.2C47.6,17.9,51.3,18.3,51.3,18.3z"/>
	<path class="st0" d="M47,19.6c-0.7-4-4.6-3.6-4.6-3.6C43.6,20.4,47,19.6,47,19.6z"/>
	<path class="st0" d="M32.7,21.8c4.3-0.7,4.3-4.7,4.3-4.7C33.1,17,32.7,21.8,32.7,21.8z"/>
	<path class="st0" d="M7.4,17.3c0,1.2-0.1,2.3-0.2,3.4C6.9,24,6.3,26.9,5.7,29c-0.3,0.9-0.5,1.7-0.7,2.2c-0.2,0.7-0.4,1.1-0.4,1.1
		C17,18,4.6,4.1,4.6,4.1c1,1.9,1.6,4,2.1,6C7.2,12.5,7.4,15,7.4,17.3z"/>
	<path class="st0" d="M196.3,33.2c-0.4-0.4-0.8-0.6-1.3-0.8c-0.9-0.4-2-0.5-3-0.4c-1,0.1-1.9,0.5-2.7,1c-0.6,0.3-1.1,0.8-1.5,1.2
		c-0.1-0.1-0.2-0.1-0.3-0.2c-1.3-1-2.7-2.1-4.3-2.6c-0.8-0.2-1.7-0.3-2.5-0.2c-0.8,0.1-1.5,0.4-2.1,0.7c-1.3,0.5-2.5,0.7-3.6,0.8
		c-1.1,0.1-2.1-0.1-2.8-0.3c-0.8-0.2-1.3-0.5-1.7-0.7c-0.4-0.2-0.5-0.4-0.5-0.4s0.1,0.2,0.5,0.4c0.3,0.3,0.9,0.6,1.6,0.9
		c0.8,0.3,1.7,0.5,2.9,0.5c1.2,0,2.5-0.2,3.8-0.6c0.7-0.2,1.3-0.5,2-0.5c0.7-0.1,1.4,0,2.1,0.2c1.4,0.5,2.6,1.5,4,2.5
		c0.1,0.1,0.2,0.1,0.2,0.2c-0.5,0.6-0.9,1.2-1.3,1.9c-0.4,0.7-0.7,1.5-0.8,2.3c-0.1,0.8,0,1.6,0.3,2.3c0.3,0.7,0.6,1.3,1,1.8
		c0.7,1.1,1.2,2.2,1.4,3.2c0.3,1,0.3,1.9,0.3,2.7c0,0.7-0.1,1.3-0.1,1.7c-0.1,0.4-0.1,0.6-0.1,0.6s0-0.2,0.1-0.6
		c0.1-0.4,0.2-1,0.3-1.7c0.1-0.8,0.1-1.7-0.1-2.7c-0.2-1.1-0.7-2.2-1.3-3.4c-0.6-1.2-1.3-2.4-1-3.8c0.2-1.3,1.1-2.6,2.1-3.8
		c0.4,0.3,0.8,0.5,1.2,0.7c0.8,0.5,1.7,0.8,2.7,0.9c1,0.1,2,0,2.9-0.2c0.5-0.1,1-0.3,1.4-0.7c0.4-0.3,0.9-0.8,0.9-1.5
		C197,34.1,196.7,33.6,196.3,33.2z M194.4,35.9c-0.8,0.2-1.7,0.3-2.5,0.2c-1.2-0.2-2.3-0.7-3.3-1.4c1-0.9,2.2-1.6,3.6-1.7
		c0.8-0.1,1.7,0,2.4,0.3c0.4,0.2,0.7,0.4,1,0.6c0.3,0.2,0.4,0.5,0.4,0.8C195.9,35.2,195.2,35.7,194.4,35.9z"/>
	<path class="st0" d="M186.6,41.5c2.4,3.9,6.8,2.6,6.8,2.6C191.2,40.5,186.6,41.5,186.6,41.5z"/>
	<path class="st0" d="M188.8,46.5c-0.1,4.5,5,5.4,5,5.4C193.8,47.3,188.8,46.5,188.8,46.5z"/>
	<path class="st0" d="M186.2,57.5c4.1-2.3,1.5-6,1.5-6C184.2,54.4,186.2,57.5,186.2,57.5z"/>
	<path class="st0" d="M182.9,51.3C186.8,51,187,47,187,47C183.2,47.6,182.9,51.3,182.9,51.3z"/>
	<path class="st0" d="M181.6,47c4-0.7,3.6-4.6,3.6-4.6C180.8,43.6,181.6,47,181.6,47z"/>
	<path class="st0" d="M179.3,32.6C180,37,184,37,184,37C184.1,33,179.3,32.6,179.3,32.6z"/>
	<path class="st0" d="M165,5c-0.3,0.4-0.5,0.9-0.7,1.4c-0.3,0.9-0.4,2-0.2,2.9c0.1,1,0.5,1.9,0.9,2.7c0.2,0.4,0.5,0.8,0.7,1.2
		c-1.2,1-2.5,1.9-3.8,2.1c-1.3,0.3-2.6-0.4-3.8-1c-1.2-0.6-2.3-1.1-3.4-1.3c-1.1-0.2-2-0.2-2.7-0.1c-0.8,0.1-1.3,0.2-1.7,0.3
		c-0.4,0.1-0.6,0.1-0.6,0.1s0.2,0,0.6-0.1c0.4-0.1,1-0.1,1.7-0.1c0.7,0,1.7,0.1,2.7,0.3c1,0.3,2.1,0.8,3.2,1.4
		c0.6,0.3,1.2,0.7,1.8,1c0.7,0.3,1.5,0.4,2.3,0.3c0.8-0.1,1.6-0.4,2.3-0.8c0.7-0.4,1.3-0.8,1.9-1.3c0.1,0.1,0.1,0.2,0.2,0.2
		c1,1.3,2.1,2.6,2.5,4c0.2,0.7,0.3,1.4,0.2,2.1c-0.1,0.7-0.3,1.3-0.5,2c-0.4,1.3-0.6,2.6-0.6,3.8c0,1.2,0.2,2.1,0.5,2.9
		c0.3,0.8,0.6,1.3,0.9,1.6c0.3,0.3,0.4,0.5,0.4,0.5s-0.2-0.2-0.4-0.5c-0.2-0.4-0.5-0.9-0.7-1.7c-0.2-0.8-0.4-1.7-0.3-2.8
		c0.1-1.1,0.3-2.3,0.8-3.6c0.2-0.6,0.5-1.3,0.7-2.1c0.1-0.8,0.1-1.7-0.2-2.5c-0.5-1.6-1.6-3-2.6-4.3c-0.1-0.1-0.1-0.2-0.2-0.3
		c0.4-0.4,0.8-0.9,1.2-1.5c0.5-0.8,0.8-1.7,1-2.7c0.1-1,0-2-0.4-3c-0.2-0.5-0.5-0.9-0.8-1.3c-0.4-0.4-0.9-0.7-1.5-0.7
		C165.8,4.2,165.3,4.6,165,5z M166.5,5.3c0.2,0,0.5,0.1,0.8,0.4c0.3,0.3,0.5,0.6,0.6,1c0.3,0.7,0.4,1.6,0.3,2.4
		c-0.2,1.4-0.8,2.6-1.7,3.6c-0.7-1-1.3-2.1-1.4-3.3c-0.1-0.8,0-1.7,0.2-2.5C165.5,6,166,5.2,166.5,5.3z"/>
	<path class="st0" d="M159.6,14.5c0,0,1-4.6-2.6-6.8C157,7.7,155.7,12.1,159.6,14.5z"/>
	<path class="st0" d="M154.7,12.4c0,0-0.8-5.1-5.4-5C149.3,7.4,150.2,12.4,154.7,12.4z"/>
	<path class="st0" d="M143.6,15c0,0,3.2,1.9,6-1.5C149.6,13.5,145.8,10.9,143.6,15z"/>
	<path class="st0" d="M149.8,18.3c0,0,3.7-0.3,4.4-4.2C154.2,14.1,150.1,14.3,149.8,18.3z"/>
	<path class="st0" d="M154.2,19.6c0,0,3.4,0.8,4.6-3.6C158.8,16,154.9,15.6,154.2,19.6z"/>
	<path class="st0" d="M164.2,17.1c0,0,0,4.1,4.3,4.7C168.5,21.8,168.1,17,164.2,17.1z"/>
	<path class="st0" d="M38.3,1.8h127.3c0.4,0,0.8-0.3,0.8-0.8c0-0.4-0.3-0.8-0.8-0.8H38.3c-0.4,0-0.8,0.3-0.8,0.8
		C37.5,1.5,37.8,1.8,38.3,1.8z"/>
	<path class="st0" d="M200.1,37.5c-0.4,0-0.8,0.3-0.8,0.8v127.3c0,0.4,0.3,0.8,0.8,0.8c0.4,0,0.8-0.3,0.8-0.8V38.3
		C200.9,37.8,200.5,37.5,200.1,37.5z"/>
	<path class="st0" d="M1.8,165.6V38.3c0-0.4-0.3-0.8-0.8-0.8c-0.4,0-0.8,0.3-0.8,0.8v127.3c0,0.4,0.3,0.8,0.8,0.8
		C1.5,166.3,1.8,166,1.8,165.6z"/>
	<path class="st0" d="M5,165c-0.4,0.3-0.9,0.8-0.9,1.5c0,0.6,0.3,1.1,0.7,1.5c0.4,0.4,0.8,0.6,1.3,0.8c0.9,0.4,2,0.5,3,0.4
		c1-0.1,1.9-0.5,2.7-1c0.6-0.3,1.1-0.8,1.5-1.2c0.1,0.1,0.2,0.1,0.3,0.2c1.3,1,2.7,2.1,4.3,2.6c0.8,0.3,1.7,0.3,2.5,0.2
		c0.8-0.1,1.5-0.4,2.1-0.7c1.3-0.5,2.5-0.7,3.6-0.8c1.1-0.1,2.1,0.1,2.8,0.3c0.8,0.2,1.3,0.5,1.7,0.7c0.4,0.2,0.5,0.4,0.5,0.4
		s-0.1-0.2-0.5-0.4c-0.3-0.3-0.9-0.6-1.6-0.9c-0.8-0.3-1.7-0.5-2.9-0.5c-1.2,0-2.5,0.2-3.8,0.6c-0.7,0.2-1.3,0.5-2,0.5
		c-0.7,0.1-1.4,0-2.1-0.2c-1.4-0.5-2.6-1.5-4-2.5c-0.1-0.1-0.2-0.1-0.2-0.2c0.5-0.6,0.9-1.2,1.3-1.9c0.4-0.7,0.7-1.5,0.8-2.3
		c0.1-0.8,0-1.6-0.3-2.3c-0.3-0.7-0.6-1.3-1-1.8c-0.7-1.1-1.2-2.2-1.4-3.2c-0.3-1-0.3-1.9-0.3-2.7c0-0.7,0.1-1.3,0.1-1.7
		c0.1-0.4,0.1-0.6,0.1-0.6s0,0.2-0.1,0.6c-0.1,0.4-0.2,1-0.3,1.7c-0.1,0.8-0.1,1.7,0.1,2.7c0.2,1.1,0.7,2.2,1.3,3.4
		c0.6,1.2,1.3,2.4,1,3.8c-0.2,1.3-1.1,2.6-2.1,3.8c-0.4-0.3-0.8-0.5-1.2-0.7c-0.8-0.5-1.7-0.8-2.7-0.9c-1-0.1-2,0-2.9,0.2
		C6,164.5,5.5,164.7,5,165z M9.2,165.1c1.2,0.2,2.3,0.7,3.3,1.4c-1,0.9-2.2,1.6-3.6,1.7c-0.8,0.1-1.7,0-2.4-0.3
		c-0.4-0.2-0.7-0.4-1-0.6c-0.3-0.2-0.4-0.5-0.4-0.8c0-0.5,0.7-1,1.5-1.2C7.6,165.1,8.4,165,9.2,165.1z"/>
	<path class="st0" d="M7.7,157c2.2,3.7,6.8,2.6,6.8,2.6C12.1,155.7,7.7,157,7.7,157z"/>
	<path class="st0" d="M12.4,154.7c0.1-4.5-5-5.4-5-5.4C7.3,153.9,12.4,154.7,12.4,154.7z"/>
	<path class="st0" d="M13.5,149.6c3.4-2.8,1.5-6,1.5-6C10.9,145.9,13.5,149.6,13.5,149.6z"/>
	<path class="st0" d="M18.3,149.8c-3.9,0.3-4.2,4.4-4.2,4.4C17.9,153.6,18.3,149.8,18.3,149.8z"/>
	<path class="st0" d="M19.6,154.2c-4,0.7-3.6,4.6-3.6,4.6C20.4,157.6,19.6,154.2,19.6,154.2z"/>
	<path class="st0" d="M21.8,168.5c-0.7-4.3-4.7-4.3-4.7-4.3C17.1,168.1,21.8,168.5,21.8,168.5z"/>
	<path class="st0" d="M36.1,189.1c-0.2-0.4-0.5-0.8-0.7-1.2c1.2-1,2.5-1.9,3.8-2.1c1.3-0.3,2.6,0.4,3.8,1c1.2,0.6,2.3,1.1,3.4,1.3
		c1.1,0.2,2,0.2,2.7,0.1c0.8-0.1,1.3-0.2,1.7-0.3c0.4-0.1,0.6-0.1,0.6-0.1s-0.2,0-0.6,0.1c-0.4,0.1-1,0.1-1.7,0.1
		c-0.7,0-1.7-0.1-2.7-0.3c-1-0.3-2.1-0.8-3.2-1.4c-0.6-0.3-1.2-0.7-1.8-1c-0.7-0.3-1.5-0.4-2.3-0.3c-0.8,0.1-1.6,0.4-2.3,0.8
		c-0.7,0.4-1.3,0.8-1.9,1.3c-0.1-0.1-0.1-0.2-0.2-0.2c-1-1.3-2.1-2.6-2.5-4c-0.2-0.7-0.3-1.4-0.2-2.1c0.1-0.7,0.3-1.3,0.5-2
		c0.4-1.3,0.6-2.6,0.6-3.8c0-1.2-0.2-2.1-0.5-2.9c-0.3-0.8-0.6-1.3-0.9-1.6c-0.3-0.3-0.4-0.5-0.4-0.5s0.2,0.2,0.4,0.5
		c0.2,0.4,0.5,0.9,0.7,1.7c0.2,0.8,0.4,1.7,0.3,2.8c-0.1,1.1-0.3,2.3-0.8,3.6c-0.2,0.6-0.5,1.3-0.7,2.1c-0.1,0.8-0.1,1.7,0.2,2.5
		c0.5,1.6,1.6,3,2.6,4.3c0.1,0.1,0.1,0.2,0.2,0.3c-0.4,0.4-0.8,0.9-1.2,1.5c-0.5,0.8-0.8,1.7-1,2.7c-0.1,1,0,2,0.4,3
		c0.2,0.5,0.5,0.9,0.8,1.3c0.4,0.4,0.9,0.7,1.5,0.7c0.6,0,1.2-0.4,1.5-0.9c0.3-0.4,0.5-0.9,0.7-1.4c0.3-0.9,0.4-2,0.2-2.9
		C36.9,190.8,36.6,189.9,36.1,189.1z M35.9,194.4c-0.2,0.8-0.7,1.5-1.2,1.5c-0.2,0-0.5-0.1-0.8-0.4c-0.3-0.3-0.5-0.6-0.6-1
		c-0.3-0.7-0.4-1.6-0.3-2.4c0.2-1.4,0.8-2.6,1.7-3.6c0.7,1,1.3,2.1,1.4,3.3C36.2,192.8,36.1,193.6,35.9,194.4z"/>
	<path class="st0" d="M41.5,186.7c0,0-1,4.6,2.6,6.8C44.2,193.4,45.4,189.1,41.5,186.7z"/>
	<path class="st0" d="M46.5,188.8c0,0,0.8,5.1,5.4,5C51.9,193.8,51,188.7,46.5,188.8z"/>
	<path class="st0" d="M57.6,186.2c0,0-3.2-1.9-6,1.5C51.6,187.7,55.3,190.3,57.6,186.2z"/>
	<path class="st0" d="M51.3,182.9c0,0-3.7,0.3-4.4,4.2C47,187.1,51.1,186.8,51.3,182.9z"/>
	<path class="st0" d="M47,181.6c0,0-3.4-0.8-4.6,3.6C42.4,185.2,46.3,185.6,47,181.6z"/>
	<path class="st0" d="M32.7,179.3c0,0,0.4,4.8,4.3,4.7C37,184.1,37,180,32.7,179.3z"/>
	<path class="st0" d="M175.1,168.2c-1.2,0-2.1,0.2-2.9,0.5c-0.8,0.3-1.3,0.6-1.6,0.9c-0.3,0.3-0.5,0.4-0.5,0.4s0.2-0.2,0.5-0.4
		c0.4-0.2,0.9-0.5,1.7-0.7c0.8-0.2,1.7-0.4,2.8-0.3c1.1,0.1,2.3,0.3,3.6,0.8c0.6,0.2,1.3,0.5,2.1,0.7c0.8,0.1,1.7,0.1,2.5-0.2
		c1.6-0.5,3-1.6,4.3-2.6c0.1-0.1,0.2-0.1,0.3-0.2c0.4,0.4,0.9,0.8,1.5,1.2c0.8,0.5,1.7,0.8,2.7,1c1,0.1,2,0,3-0.4
		c0.5-0.2,0.9-0.5,1.3-0.8c0.4-0.4,0.7-0.9,0.7-1.5c0-0.6-0.4-1.2-0.9-1.5c-0.4-0.3-0.9-0.5-1.4-0.7c-0.9-0.3-2-0.4-2.9-0.2
		c-1,0.1-1.9,0.5-2.7,0.9c-0.4,0.2-0.8,0.5-1.2,0.7c-1-1.2-1.9-2.5-2.1-3.8c-0.3-1.3,0.4-2.6,1-3.8c0.6-1.2,1.1-2.3,1.3-3.4
		c0.2-1.1,0.2-2,0.1-2.7c-0.1-0.8-0.2-1.3-0.3-1.7c-0.1-0.4-0.1-0.6-0.1-0.6s0,0.2,0.1,0.6c0.1,0.4,0.1,1,0.1,1.7
		c0,0.7-0.1,1.7-0.3,2.7c-0.3,1-0.8,2.1-1.4,3.2c-0.3,0.6-0.7,1.2-1,1.8c-0.3,0.7-0.4,1.5-0.3,2.3c0.1,0.8,0.4,1.6,0.8,2.3
		c0.4,0.7,0.8,1.3,1.3,1.9c-0.1,0.1-0.2,0.1-0.2,0.2c-1.3,1-2.6,2.1-4,2.5c-0.7,0.2-1.4,0.3-2.1,0.2c-0.7-0.1-1.3-0.3-2-0.5
		C177.5,168.3,176.2,168.1,175.1,168.2z M191.9,165.1c0.8-0.1,1.7,0,2.5,0.2c0.8,0.2,1.5,0.7,1.5,1.2c0,0.2-0.1,0.5-0.4,0.8
		c-0.3,0.3-0.6,0.5-1,0.6c-0.7,0.3-1.6,0.4-2.4,0.3c-1.4-0.2-2.6-0.8-3.6-1.7C189.6,165.8,190.7,165.2,191.9,165.1z"/>
	<path class="st0" d="M186.6,159.7c0,0,4.6,1,6.8-2.6C193.4,157,189.1,155.7,186.6,159.7z"/>
	<path class="st0" d="M188.8,154.7c0,0,5.1-0.8,5-5.4C193.8,149.3,188.7,150.2,188.8,154.7z"/>
	<path class="st0" d="M187.7,149.6c0,0,2.6-3.7-1.5-6C186.2,143.6,184.2,146.8,187.7,149.6z"/>
	<path class="st0" d="M182.9,149.8c0,0,0.3,3.7,4.2,4.4C187,154.2,186.8,150.1,182.9,149.8z"/>
	<path class="st0" d="M181.6,154.2c0,0-0.8,3.4,3.6,4.6C185.1,158.8,185.6,154.9,181.6,154.2z"/>
	<path class="st0" d="M184,164.2c0,0-4.1,0-4.7,4.3C179.3,168.5,184.1,168.1,184,164.2z"/>
	<path class="st0" d="M169.2,192c-0.1-1-0.5-1.9-1-2.7c-0.3-0.6-0.8-1.1-1.2-1.5c0.1-0.1,0.1-0.2,0.2-0.3c1-1.3,2.1-2.7,2.6-4.3
		c0.2-0.8,0.3-1.7,0.2-2.5c-0.1-0.8-0.4-1.5-0.7-2.1c-0.5-1.3-0.7-2.5-0.8-3.6c-0.1-1.1,0.1-2.1,0.3-2.8c0.2-0.8,0.5-1.3,0.7-1.7
		c0.2-0.4,0.4-0.5,0.4-0.5s-0.2,0.1-0.4,0.5c-0.3,0.3-0.6,0.9-0.9,1.6c-0.3,0.8-0.5,1.7-0.5,2.9c0,1.2,0.2,2.5,0.6,3.8
		c0.2,0.7,0.5,1.3,0.5,2c0.1,0.7,0,1.4-0.2,2.1c-0.5,1.4-1.5,2.6-2.5,4c-0.1,0.1-0.1,0.2-0.2,0.2c-0.6-0.5-1.3-0.9-1.9-1.3
		c-0.7-0.4-1.5-0.7-2.3-0.8c-0.8-0.1-1.6,0-2.3,0.3c-0.7,0.3-1.3,0.6-1.8,1c-1.1,0.7-2.2,1.2-3.2,1.4c-1,0.3-1.9,0.3-2.7,0.3
		c-0.7,0-1.3-0.1-1.7-0.1c-0.4-0.1-0.6-0.1-0.6-0.1s0.2,0,0.6,0.1c0.4,0.1,1,0.2,1.7,0.3c0.8,0.1,1.7,0.1,2.7-0.1
		c1.1-0.2,2.2-0.7,3.4-1.3c1.2-0.6,2.4-1.3,3.8-1c1.3,0.2,2.6,1.1,3.8,2.1c-0.3,0.4-0.5,0.8-0.7,1.2c-0.5,0.8-0.8,1.7-0.9,2.7
		c-0.1,1,0,2,0.2,2.9c0.1,0.5,0.3,1,0.7,1.4c0.3,0.4,0.8,0.9,1.5,0.9c0.6,0,1.1-0.3,1.5-0.7c0.4-0.4,0.6-0.8,0.8-1.3
		C169.2,194.1,169.3,193,169.2,192z M167.9,194.6c-0.2,0.4-0.4,0.7-0.6,1c-0.2,0.3-0.5,0.4-0.8,0.4c-0.5,0-1-0.7-1.2-1.5
		c-0.2-0.8-0.3-1.7-0.2-2.5c0.2-1.2,0.7-2.3,1.4-3.3c0.9,1,1.6,2.2,1.7,3.6C168.3,193,168.2,193.8,167.9,194.6z"/>
	<path class="st0" d="M159.6,186.7c-3.9,2.4-2.6,6.8-2.6,6.8C160.7,191.2,159.6,186.7,159.6,186.7z"/>
	<path class="st0" d="M154.7,188.8c-4.5-0.1-5.4,5-5.4,5C153.8,193.9,154.7,188.8,154.7,188.8z"/>
	<path class="st0" d="M143.6,186.2c2.3,4.1,6,1.5,6,1.5C146.7,184.2,143.6,186.2,143.6,186.2z"/>
	<path class="st0" d="M149.8,182.9c0.3,3.9,4.4,4.2,4.4,4.2C153.6,183.2,149.8,182.9,149.8,182.9z"/>
	<path class="st0" d="M154.2,181.6c0.7,4,4.6,3.6,4.6,3.6C157.6,180.8,154.2,181.6,154.2,181.6z"/>
	<path class="st0" d="M168.5,179.3c-4.3,0.7-4.3,4.7-4.3,4.7C168.1,184.1,168.5,179.3,168.5,179.3z"/>
	<path class="st0" d="M0.9,0.3c6.4,12.9,0,29.4,0,29.4C13.8,14.7,0.9,0.3,0.9,0.3z"/>
	<path class="st0" d="M30.2,0.3c0,0-16.4,6.4-29.4,0C0.9,0.3,15.3,13.2,30.2,0.3z"/>
	<path class="st0" d="M200.3,29.7c0,0-6.4-16.4,0-29.4C200.3,0.3,187.4,14.7,200.3,29.7z"/>
	<path class="st0" d="M200.3,0.3c-12.9,6.4-29.4,0-29.4,0C185.9,13.2,200.3,0.3,200.3,0.3z"/>
	<path class="st0" d="M0.9,171.5c0,0,6.4,16.4,0,29.4C0.9,200.9,13.8,186.4,0.9,171.5z"/>
	<path class="st0" d="M0.9,200.9c12.9-6.4,29.4,0,29.4,0C15.3,188,0.9,200.9,0.9,200.9z"/>
	<path class="st0" d="M200.3,200.9c-6.4-12.9,0-29.4,0-29.4C187.4,186.4,200.3,200.9,200.3,200.9z"/>
	<path class="st0" d="M170.9,200.9c0,0,16.4-6.4,29.4,0C200.3,200.9,185.9,188,170.9,200.9z"/>
	<path class="st0" d="M21.3,6.7c-1.1,0.1-2.2,0.2-3.4,0.2c-2.3,0-4.8-0.2-7.2-0.7c-2-0.4-4.1-1.1-6-2.1c0,0,13.9,12.4,28.3,0
		c0,0-0.4,0.2-1.1,0.4c-0.6,0.2-1.3,0.4-2.2,0.7C27.5,5.7,24.6,6.3,21.3,6.7z"/>
	<path class="st0" d="M182.4,9.6c8.2-0.2,14.1-5.5,14.1-5.5c0,0-12.4,13.9,0,28.3l0,0c0,0,0,0,0,0c0,0-6.2-15.8,0-28.3l0,0
		c0,0,0,0,0,0l0,0l0,0v0l0,0l0,0l0,0c-4.3,2.1-9,2.8-13.3,2.7c-8.2-0.1-15-2.7-15-2.7l0,0l0,0C173.2,8.3,178.1,9.7,182.4,9.6z"/>
	<path class="st0" d="M4.6,168.8c0,0,6.2,15.8,0,28.3C4.6,197.1,17,183.2,4.6,168.8z"/>
	<path class="st0" d="M4.6,197.1c12.5-6.2,28.3,0,28.3,0C18.5,184.7,4.6,197.1,4.6,197.1z"/>
	<path class="st0" d="M196.5,168.8c-12.4,14.4,0,28.3,0,28.3C190.3,184.6,196.5,168.8,196.5,168.8z"/>
	<path class="st0" d="M196.5,197.1c0,0-13.9-12.4-28.3,0C168.3,197.1,184.1,190.9,196.5,197.1z"/>
	<path class="st0" d="M165.6,199.4H38.3c-0.4,0-0.8,0.3-0.8,0.8c0,0.4,0.3,0.8,0.8,0.8h127.3c0.4,0,0.8-0.3,0.8-0.8
		C166.3,199.7,166,199.4,165.6,199.4z"/>
</g>
</svg>
