<?xml version="1.0" encoding="utf-8"?>
<!-- Generator: Adobe Illustrator 22.1.0, SVG Export Plug-In . SVG Version: 6.00 Build 0)  -->
<svg version="1.1" id="レイヤー_1" xmlns="http://www.w3.org/2000/svg" xmlns:xlink="http://www.w3.org/1999/xlink" x="0px"
	 y="0px" viewBox="0 0 219.7 16.5" style="enable-background:new 0 0 219.7 16.5;" xml:space="preserve">
<style type="text/css">
	.st0{fill:#C4A676;}
</style>
<g id="XMLID_6_">
	<path id="XMLID_7_" class="st0" d="M213.7,7.2c-1.5,0.6-2.6,0-2.9-1.4c-0.4-1.6,0.8-2.8,2.3-3.3c2.1-0.7,4.4,0.3,5.3,2.4
		c1.3,2.8-0.8,6.1-3,7.6c-4.5,3-10.4,3-15.4,1.7c-5.6-1.4-10.7-4.2-16.3-5.4c-3.4-0.7-8-1-10.5,2c-2,2.5-0.3,5.7,2.9,5.4
		c2.9-0.2,4.3-3.3,3.4-5.9c-1.5-4-6.6-5.8-10.4-6.4C164,3.3,159,4.5,154.2,6.3c-6.5,2.5-13,6.1-20.1,6.3c-3.5,0.1-8.2-0.6-9.2-4.5
		c-0.4-1.7,0-3.6,1.3-4.8c0.9-0.9,2.4-1.7,3.6-1.4c2.2,0.6,2.6,3.3,0.6,4.1c-0.7,0.3-0.7,1.5,0.2,1.5c2,0,3.6-1.3,3.6-3.5
		c-0.1-2.1-2.1-3.6-4-4c-4.8-0.8-8.3,4.1-7,8.5c1.6,5.5,8.3,6.1,13.1,5.5c7.5-0.9,14-5,21.1-7.4c3.6-1.2,7.4-2,11.2-1.6
		c3.5,0.3,10.1,2.4,9.9,6.9c-0.1,4.4-6.3,2.3-3.5-0.5c1.4-1.4,3.6-1.7,5.5-1.6c3.5,0.2,6.9,1.6,10.2,2.8c6,2.2,12.1,4.6,18.6,3.6
		c4.2-0.7,9.4-2.9,10.4-7.5c1-4.4-2.8-9-7.4-6.6c-3.4,1.8-2.4,7.1,1.6,5.4C214,7.5,213.9,7.1,213.7,7.2L213.7,7.2z"/>
</g>
<g id="XMLID_4_">
	<path id="XMLID_5_" class="st0" d="M5.9,7.6C9.1,8.9,11,5.3,8.6,3c-3-3-8-1-8.6,3c-0.6,4.3,2.4,7.5,6.2,9.1
		c5.7,2.4,11.9,1.4,17.5-0.5c5.1-1.7,16.1-8.1,21-3.1c2.8,2.8-3.3,5-3.5,0.5c-0.1-2.3,2.2-4.1,4-5.2c3.4-2,7.8-2.1,11.6-1.6
		c7.4,1.2,13.8,5.4,20.9,7.6c5.1,1.6,13.2,3,17.3-1.5c3.4-3.8,1.6-10.5-3.7-11.3c-2.3-0.3-5.2,0.9-5.7,3.4c-0.4,2.3,1.3,4.1,3.5,4
		c0.9,0,0.9-1.2,0.2-1.5c-1.6-0.7-1.3-0.9-0.7-2.5c0.2-0.5,0.4-1,0.6-1.6c1.1-0.3,2.1-0.2,3.1,0.4c1.4,0.8,2.4,2.3,2.6,3.9
		c0.3,4.3-3.8,6.1-7.4,6.3c-6.2,0.4-12-2.2-17.6-4.5c-8.3-3.4-20.4-7.8-28-0.4c-2.2,2.1-3.3,6.3,0.1,8c2.3,1.2,5.7-0.3,5.3-3.2
		c-0.6-3.7-5.4-4.5-8.4-4.2c-5.1,0.4-9.9,2.8-14.6,4.5c-6,2.1-12.8,3.4-18.8,0.3C3,11.9,1,9.7,1,6.8c0-2.4,1.7-4.5,4.3-4.5
		C6.7,2.4,8,3,8.7,4.2c1,1.9-0.1,4-2.6,3C5.9,7.1,5.7,7.5,5.9,7.6L5.9,7.6z"/>
</g>
<g id="XMLID_2_">
	<path id="XMLID_3_" class="st0" d="M110.3,13.6c-1.8-1.7-4-3.6-5-6c-0.2-0.4-0.4-1-0.4-1.5c0-0.3-0.1-0.6-0.1-0.8
		c1.4-0.8,2.3-0.7,2.8,0.3c0.9,1,1.6,2.8,2.2,4c0.2,0.5,1,0.4,1.2-0.2c0.3-1.5,0.8-4,2-5c0.6-0.1,1.2-0.2,1.7-0.3
		c0.2,0.4,0.2,0.9,0.1,1.3c-0.1,0.7-0.4,1.4-0.7,2.1c-1.1,2.2-3.4,3.6-4.3,5.8c-0.3,0.6,0.3,1.4,1,1c2.6-1.9,6.7-7.1,5.3-10.7
		c-0.5-1.1-1.8-1.9-3-1.2c-1.9,1.1-2.8,4.8-3.3,6.8c0.4-0.1,0.8-0.1,1.2-0.2c-0.9-1.9-2.1-5.1-4.1-6c-1.3-0.6-2.6,0.1-3,1.5
		c-0.9,3.7,3.3,8.1,6.2,9.8C110.3,14.5,110.7,13.9,110.3,13.6L110.3,13.6z"/>
</g>
</svg>
