<?xml version="1.0" encoding="utf-8"?>
<!-- Generator: Adobe Illustrator 22.1.0, SVG Export Plug-In . SVG Version: 6.00 Build 0)  -->
<svg version="1.1" id="レイヤー_1" xmlns="http://www.w3.org/2000/svg" xmlns:xlink="http://www.w3.org/1999/xlink" x="0px"
	 y="0px" viewBox="0 0 201.2 201.2" style="enable-background:new 0 0 201.2 201.2;" xml:space="preserve">
<g>
	<g>
		<path d="M103.4,192.5c0.6-0.3,1.1-0.5,1.8-0.7c0.6-0.2,1.2-0.4,1.9-0.5c0.6-0.2,1.3-0.3,1.9-0.4c0.3,0,0.7-0.1,1-0.1
			c0.3-0.1,0.6-0.1,1-0.2c-1.1-0.4-2.1-0.9-3-1.5c-0.9-0.6-1.8-1.3-2.5-2.1c-0.9-1.1-1.7-3.1-0.4-4.2c0.7-0.6,1.6-0.7,2.6-0.5
			c0.5,0.1,0.9,0.3,1.4,0.5c0.4,0.2,0.8,0.4,1.2,0.6c1.1,0.7,2.1,1.7,2.9,2.8c0.4,0.6,0.8,1.1,1.1,1.7c0.4,0.6,0.7,1.2,1,1.8
			c0.1,0.1,0.1,0.2,0.1,0.3l2.2-0.5c0.7-0.2,1.5-0.3,2.2-0.5l2.2-0.6l1.1-0.3c0.4-0.1,0.7-0.2,1.1-0.4c-0.4-0.1-0.8-0.3-1.2-0.5
			c-0.4-0.2-0.7-0.4-1.1-0.6c-0.7-0.4-1.3-1-1.9-1.6c-1.2-1.3-2.4-3.8-1.1-5.5c0.6-0.7,1.4-0.9,2.2-0.7c0.8,0.1,1.6,0.5,2.3,1
			c1.1,0.8,2,1.8,2.8,2.9c0.8,1.1,1.5,2.4,2.1,3.5l3-1.2c1-0.4,2-0.9,2.9-1.3l1.5-0.7l1.4-0.7l1.4-0.7c0.5-0.2,1-0.5,1.4-0.7l1-0.6
			c-0.6,0-1.1,0-1.6,0c-0.5,0-1.1-0.1-1.6-0.3c-1-0.3-2-0.7-2.9-1.3c-0.7-0.5-1.5-1.4-2.1-2.4c-0.5-1-0.7-2.1-0.1-2.9
			c0.6-0.9,1.7-0.9,2.9-0.6c1.2,0.2,2.4,0.8,3.1,1.1c1.1,0.5,2,1.2,2.9,2.1c0.8,0.8,1.6,1.7,2.1,2.8c1.7-1.1,3.4-2.1,5-3.3
			c1.7-1.1,3.2-2.3,4.8-3.6c-1,0.2-2.1,0.3-3.1,0.3c-0.5,0-1.1,0-1.6-0.1c-0.5-0.1-1-0.2-1.5-0.3c-1.8-0.6-3.1-1.7-2.9-3.8
			c0-0.4,0.2-0.8,0.4-1.1c0.2-0.3,0.5-0.6,0.8-0.8c0.6-0.4,1.5-0.6,2.3-0.5c0.7,0.1,1.4,0.3,2.1,0.6c0.7,0.3,1.4,0.7,2.1,1.1
			c1.4,0.8,2.7,1.8,3.9,2.4c0.1,0,0.1,0.1,0.1,0.1l1.2-1l1.1-1c0.7-0.7,1.5-1.4,2.2-2.1l2.2-2.2l0.5-0.5l0.5-0.6l1-1.1
			c-1,0.3-1.9,0.6-2.9,0.7c-1,0.1-2,0.1-3-0.1c-1.8-0.3-4.3-1.6-4.3-3.7c0-1.3,0.9-1.9,1.9-2.2c1-0.3,2.4-0.3,3.4-0.1
			c0.7,0.1,1.3,0.2,1.9,0.4c0.6,0.2,1.2,0.3,1.9,0.6c1.2,0.4,2.4,1,3.5,1.8c3-3.6,5.8-7.4,8.3-11.5c-1.2,0.7-2.4,1.3-3.7,1.7
			c-1.3,0.4-2.6,0.6-3.9,0.6c-2.1,0-5-1.6-4.2-4c0.2-0.6,0.6-1,1.2-1.3c0.6-0.3,1.2-0.5,2-0.5c1.5-0.2,3.2,0,4.3,0.1
			c0.5,0.1,1.6,0.1,2.7,0.3c1.1,0.2,2.2,0.5,2.5,1.2c0.1,0,0.2,0,0.3,0c3.4-5.8,6.1-11.9,8.3-18.3c-1.5,1.9-3.1,3.6-5.4,4.2
			c-2,0.6-4.7,0.3-6.2-1.4c-1-1.1-0.7-1.8,0-2.4c0.7-0.6,1.9-1,2.8-1.3c1.4-0.4,2.8-0.7,4.3-0.8c1.4-0.1,2.9-0.2,4.4,0
			c0-0.1,0.1-0.1,0.1-0.2c0.2-0.3,0.5-0.3,0.7-0.2c1.7-5.5,2.9-11.1,3.6-16.8c-0.8,0.7-1.6,1.4-2.5,1.9c-0.9,0.5-1.9,1-2.9,1.3
			c-0.8,0.3-2,0.7-3.1,0.8c-1.1,0.1-2.2-0.1-2.7-1c-0.5-0.9-0.1-1.6,0.5-2.2c0.6-0.6,1.5-1,2.2-1.3c2.7-1.1,5.7-1.6,8.7-1.5
			c0.1-0.8,0.2-1.7,0.2-2.5c0-0.1,0-0.2,0-0.3l0.2-2c0.1-0.8,1.2-0.8,1.1,0l-0.2,2.2c0.5,2,1.6,3.7,2.8,5.2c1.3,1.6,2.6,3.1,3.6,4.9
			c0.5,0.9,1.1,2.2,1.1,3.3c0.1,1.1-0.3,2.2-1.5,2.8c-2.4,1.2-3.9-0.2-4.9-2.4c-0.2-0.6-0.4-1.2-0.6-1.8c-0.1-0.3-0.2-0.6-0.2-1
			c-0.1-0.3-0.2-0.7-0.2-1c-0.3-1.3-0.5-2.7-0.7-3.9c-0.8,5.5-2,10.8-3.6,16.1c1,1,2.3,2.1,3.3,3.2c1,1.2,2,2.5,2.5,4
			c0.2,0.5,0.3,1,0.3,1.5c0,0.5,0,1.1-0.1,1.7c-0.2,1.1-0.7,2.1-1.7,2.7c-1,0.5-1.9,0.3-2.5-0.3c-0.3-0.3-0.6-0.7-0.8-1.1
			c-0.2-0.4-0.4-0.9-0.5-1.3c-0.2-0.9-0.3-1.7-0.4-2.6c0-0.4-0.1-0.9-0.1-1.3c-0.1-0.4-0.1-0.9-0.2-1.3c-0.2-0.9-0.4-1.7-0.6-2.5
			l-0.3,0.8c-2.1,5.9-4.7,11.6-7.9,17.1c0,0,0.1,0.1,0.1,0.1c0.3,0.4,1,1.1,1.7,2c0.7,0.9,1.4,2,1.8,3.1c0.5,1.1,0.7,2.2,0.5,3.1
			c-0.1,0.2-0.1,0.4-0.2,0.6c-0.1,0.2-0.3,0.4-0.5,0.5c-0.4,0.3-0.9,0.5-1.6,0.6c-2.2,0.3-3-0.9-3.3-2.5c-0.1-0.8-0.1-1.7-0.1-2.7
			c0-0.9,0.1-1.9,0.1-2.8l-0.9,1.5l-0.5,0.8c-0.2,0.2-0.3,0.5-0.5,0.7l-2,2.9l-2.1,2.8c-0.3,0.5-0.7,0.9-1.1,1.4l-1.1,1.4
			c0,0,0.1,0.1,0.1,0.1c0.3,0.4,0.8,1.1,1.3,2c0.5,0.9,1,2,1.3,3.1c0.3,1.1,0.4,2.1,0.1,3c-0.1,0.4-0.4,0.8-0.7,1
			c-0.3,0.3-0.8,0.5-1.4,0.5c-1.8,0.2-2.4-1.2-2.5-2.8c-0.1-1.7,0.2-3.8,0.4-5.2l-2.3,2.5c-0.8,0.8-1.6,1.6-2.4,2.4
			c-0.8,0.8-1.7,1.6-2.5,2.4l-1.3,1.2c-0.4,0.4-0.9,0.7-1.3,1.1l0,0c1.6,3.6,2.5,7.7,2,11.9c-0.1,0.6-0.2,1.2-0.5,1.8
			c-0.1,0.3-0.3,0.6-0.4,0.9c-0.2,0.3-0.4,0.5-0.6,0.7c-0.8,0.9-2,1.4-3.4,0.8c-1.4-0.5-2-1.7-2.1-3c-0.2-1.3,0.1-2.8,0.5-4
			c0.2-0.7,0.5-1.3,0.8-1.9c0.3-0.6,0.6-1.3,0.9-1.9c0.3-0.6,0.6-1.3,0.8-1.9c0.1-0.3,0.2-0.6,0.3-1c0.1-0.3,0.1-0.7,0.2-1l-0.6,0.5
			l-0.7,0.5l-1.3,1l-1.3,1c-0.4,0.3-0.9,0.6-1.3,0.9c-0.9,0.6-1.8,1.3-2.7,1.9l-2.8,1.8c0.2,1.4,0.1,2.9-0.2,4.3
			c-0.3,1.4-0.8,2.8-1.6,4.2c-0.6,0.9-1.4,2.2-2.4,3.1c-0.3,0.2-0.5,0.5-0.8,0.7c-0.3,0.2-0.6,0.4-0.9,0.5c-0.6,0.3-1.3,0.4-1.9,0.3
			c-2.3-0.3-2.2-2.5-1.1-4c0.6-0.8,1.2-1.5,1.9-2.2c0.7-0.7,1.4-1.5,2-2.2c0.4-0.5,0.9-1,1.3-1.5l1.2-1.6c-4.1,2.3-8.5,4.4-12.9,6
			l0,0c0.2,1.4,0.2,2.7-0.1,4.1c-0.3,1.3-0.8,2.6-1.6,3.9c-0.3,0.4-0.6,0.8-1,1.3c-0.2,0.2-0.4,0.4-0.6,0.6
			c-0.2,0.2-0.4,0.4-0.7,0.5c-1,0.7-2.1,1-3.2,0.7c-1.2-0.3-1.7-1.2-1.7-2.1c0-0.9,0.4-2,1-2.8c0.7-1,1.6-1.9,2.5-2.8
			c0.9-0.8,1.9-1.6,3-2.3l-0.5-0.1c-3.8,1.3-7.7,2.3-11.7,3.1c-0.1,0.3-0.4,0.5-0.8,0.3c0,0,0,0.1-0.1,0.1c-0.1,0.1-0.2,0.2-0.3,0.4
			c-0.3,0.3-0.6,0.7-1,1.2c-0.7,0.9-1.5,1.8-1.7,1.9c-1.1,1-2.4,1.9-3.9,2.6c-0.9,0.4-2,0.7-3,0.6c-1,0-2-0.4-2.5-1.2
			c-0.6-1-0.5-2,0-2.9C101.6,193.6,102.5,192.9,103.4,192.5z M188.3,107.1c-1.4,0-2.8,0.1-4.2,0.4c-1,0.2-2,0.5-2.9,0.9
			c-0.4,0.1-0.7,0.3-1.1,0.4c-1.1,1.7-1,2.3,0.4,2c1.4-0.1,2.8-0.6,4.2-1.2C186,109,187.2,108.1,188.3,107.1z M192.2,114.7
			c0.3,1.2,0.7,2.5,1.6,3.4c0.6,0.5,1.6,0.8,2.3,0.5c1.4-0.6,1-2.2,0.5-3.4c-0.7-1.7-1.8-3.1-2.8-4.4c-0.5-0.7-1.1-1.3-1.6-2
			c-0.5-0.7-1-1.3-1.4-2.1c0.1,0.7,0.1,1.3,0.2,2c0.1,0.7,0.2,1.3,0.3,2C191.5,112,191.8,113.4,192.2,114.7z M183.8,126.2
			c-1.7-0.1-3.4-0.1-5.1,0.2c-1,0.2-2,0.4-2.9,0.7c-0.3,0.1-1,0.2-1.1,0.4c-0.1,0.6-0.3,1.1-0.4,1.7l0.8,0.5
			c1.7,0.8,3.4,0.6,4.9-0.1C181.5,128.8,182.8,127.6,183.8,126.2z M186.5,127.4c0.4,1.4,0.7,2.7,0.9,4.2c0.2,1,0.3,2,0.4,3.1
			c0.1,0.5,0.1,1.1,0.3,1.5l0.7,1.2l1.9-0.2c0.5-0.4,0.7-1.2,0.6-1.9c0-0.8-0.2-1.6-0.4-2c-0.4-1-1-1.8-1.6-2.5
			C188.6,129.4,187.6,128.4,186.5,127.4z M175.2,145.9c0-0.1,0-0.3,0-0.4c0,0.1-1.2-0.1-2.5-0.3c-1.3-0.2-2.6-0.5-2.9-0.5
			c-0.7,0-2.6,0.1-3.9,0.4c-1.3,0.4-2.1,1.1-0.4,2.6c1.3,1.2,3.8,0.7,5.4,0.2C172.5,147.5,173.9,146.8,175.2,145.9z M177.2,153.3
			c0.1,0.5,0.4,1,0.8,1.3c0.5,0.4,1,0.4,1.4,0.2c0.2-0.1,0.4-0.3,0.6-0.6c0.2-0.3,0.3-0.6,0.4-1c0-0.6-0.5-1.5-0.8-2
			c-0.7-1.3-1.5-2.5-2.4-3.5c0,0.9-0.2,1.9-0.3,2.8c0,0.5-0.1,0.9,0,1.4C177,152.4,177,152.8,177.2,153.3z M167.6,161.3
			c-0.1,0.8-0.1,1.6-0.2,2.5c-0.1,1.2-0.5,2.7,0.2,3.7c0.3,0.9,0.9,0.8,1.8-0.3l0-1.5c-0.1-0.6-0.3-1.3-0.6-1.9
			C168.6,162.9,168.1,162.1,167.6,161.3z M166.3,159.6L166.3,159.6c-0.8-0.6-1.6-1.1-2.6-1.5c-0.9-0.4-1.9-0.7-2.8-0.9
			c-0.9-0.2-1.9-0.3-2.8-0.3c-0.4,0-0.8,0.1-1.3,0.2c-0.4,0.1-0.8,0.4-1,0.7c-0.4,0.7,0.3,1.7,0.9,2.2c1.4,1,3,1.3,4.7,1.1
			c0.8-0.1,1.7-0.3,2.5-0.6c0.4-0.1,0.8-0.3,1.2-0.4c0.2-0.1,0.4-0.2,0.6-0.2C166,159.8,166.2,159.7,166.3,159.6z M156.1,172.9
			c-0.3,1.6-1,3-1.6,4.4c-0.3,0.7-0.6,1.5-0.9,2.2c-0.3,0.7-0.5,1.5-0.7,2.3c-0.1,0.7-0.1,1.4,0,2c0.2,0.9,0.9,1.8,1.7,2
			c0.8,0.2,1.8-0.1,2.6-1.8c0.6-1.4,0.4-3.2,0.3-4.5c0-1.2-0.2-2.3-0.4-3.4C156.8,175,156.5,173.9,156.1,172.9z M154.7,170.6
			c-1.4-0.8-2.7-1.6-4-2.4c-0.7-0.4-1.3-0.8-2-1.1c-0.6-0.2-1.7-0.3-2.4,0c-0.2,0.1-0.4,0.2-0.5,0.3c-0.1,0.1-0.2,0.3-0.3,0.5
			c-0.1,0.4-0.1,0.9,0.3,1.6c0.3,0.6,0.9,1.1,1.6,1.4c0.7,0.3,1.5,0.4,2.4,0.5C151.4,171.4,153.3,171.1,154.7,170.6z M143.2,181.3
			l-1.7,2.2c-0.3,0.4-0.6,0.7-0.9,1.1l-0.9,1l-2.1,2.4c-0.3,0.3-0.7,0.6-0.9,1l-0.4,0.4c0.7,0.5,1.5,1.1,2.2,1.6
			c0.7-0.1,1.9-2,2.3-2.6c0.6-0.8,1.1-1.7,1.4-2.6C143,184.4,143.2,182.8,143.2,181.3z M142.4,179.3c-0.7-1.3-1.7-2.5-3-3.4
			c-0.8-0.6-1.6-1-2.5-1.3c-0.4-0.2-0.8-0.3-1.2-0.4c-1-0.3-0.9-0.3-1.6,0.6c-0.8,1-0.7,1.2,0.1,2.1c0.3,0.4,0.7,0.7,1.1,1
			c0.9,0.6,1.9,1,2.9,1.2C139.6,179.4,141,179.4,142.4,179.3z M127.8,188.9c-0.8,0.5-1.5,1-2.2,1.5c-0.3,0.3-0.7,0.6-1,0.9
			c-0.2,0.2-0.3,0.3-0.5,0.5c-0.2,0.1-0.3,0.3-0.5,0.5c-0.6,0.6-1.2,1.2-1.6,1.9c-0.6,0.7-0.8,1.4-0.8,2.3c0.8,1.1,1.7,1.2,2.7,0.6
			c1.4-0.7,2.4-2.1,3-3.5C127.5,192,127.8,190.4,127.8,188.9z M125.9,187.1l1.1-0.4c-0.7-1.4-2-3.5-3.3-5c-1.3-1.5-2.6-2.3-3.7-1.1
			c-0.9,0.9-0.5,1.8,0.1,2.8c0.6,0.9,1.4,1.7,2.3,2.3C123.5,186.4,124.7,186.8,125.9,187.1z M109.5,188.7c1.3,0.7,2.8,1.2,4.2,1.7
			c0,0,0,0,0,0l0.3-0.1l0,0c-0.9-1.6-1.8-3.2-3-4.5c-0.6-0.7-1.2-1.2-2-1.6c-0.4-0.3-0.9-0.4-1.4-0.6c-0.6-0.3-1,0-1.3,0.7
			c-0.9,0.4-1.1,1-0.4,1.6c0.3,0.4,0.7,0.8,1.1,1.1C107.7,187.7,108.6,188.2,109.5,188.7z M106.3,196.8c2.1-1.1,4-2.6,5.3-4.5
			c0.1-0.2,0.3-0.4,0.4-0.7c-0.6,0.1-1.1,0.2-1.7,0.3c-0.6,0.1-1.1,0.2-1.7,0.3c-1.1,0.2-2.2,0.5-3.3,0.8c-1.2,0.3-3.3,1-3.5,2.5
			c-0.2,1.4,0.5,1.9,1.5,2C104.4,197.5,105.6,197.2,106.3,196.8z"/>
	</g>
	<g>
		<path d="M8.7,103.4c0.3,0.6,0.5,1.1,0.7,1.8c0.2,0.6,0.4,1.2,0.5,1.9c0.2,0.6,0.3,1.3,0.4,1.9c0,0.3,0.1,0.7,0.1,1
			c0.1,0.3,0.1,0.6,0.2,1c0.4-1.1,0.9-2.1,1.5-3c0.6-0.9,1.3-1.8,2.1-2.5c1.1-0.9,3.1-1.7,4.2-0.4c0.6,0.7,0.7,1.6,0.5,2.6
			c-0.1,0.5-0.3,0.9-0.5,1.4c-0.2,0.4-0.4,0.8-0.6,1.2c-0.7,1.1-1.7,2.1-2.8,2.9c-0.6,0.4-1.1,0.8-1.7,1.1c-0.6,0.4-1.2,0.7-1.8,1
			c-0.1,0.1-0.2,0.1-0.3,0.1l0.5,2.2c0.2,0.7,0.3,1.5,0.5,2.2l0.6,2.2l0.3,1.1c0.1,0.4,0.2,0.7,0.4,1.1c0.1-0.4,0.3-0.8,0.5-1.2
			c0.2-0.4,0.4-0.7,0.6-1.1c0.4-0.7,1-1.3,1.6-1.9c1.3-1.2,3.8-2.4,5.5-1.1c0.7,0.6,0.9,1.4,0.7,2.2c-0.1,0.8-0.5,1.6-1,2.3
			c-0.8,1.1-1.8,2-2.9,2.8c-1.1,0.8-2.4,1.5-3.5,2.1l1.2,3c0.4,1,0.9,2,1.3,2.9l0.7,1.5l0.7,1.4l0.7,1.4c0.2,0.5,0.5,1,0.7,1.4
			l0.5,1c0-0.6,0-1.1,0-1.6c0-0.5,0.1-1.1,0.3-1.6c0.3-1,0.7-2,1.3-2.9c0.5-0.7,1.4-1.5,2.4-2.1c1-0.5,2.1-0.7,2.9-0.1
			c0.9,0.6,0.9,1.7,0.6,2.9c-0.2,1.2-0.8,2.4-1.1,3.1c-0.5,1.1-1.2,2-2.1,2.9c-0.8,0.8-1.7,1.6-2.8,2.1c1.1,1.7,2.1,3.4,3.3,5
			c1.1,1.7,2.3,3.2,3.6,4.8c-0.2-1-0.3-2.1-0.3-3.1c0-0.5,0-1.1,0.1-1.6c0.1-0.5,0.2-1,0.3-1.5c0.6-1.8,1.7-3.1,3.8-2.9
			c0.4,0,0.8,0.2,1.1,0.4c0.3,0.2,0.6,0.5,0.8,0.8c0.4,0.6,0.6,1.5,0.5,2.3c-0.1,0.7-0.3,1.4-0.6,2.1c-0.3,0.7-0.7,1.4-1.1,2.1
			c-0.8,1.4-1.8,2.7-2.4,3.9c0,0.1-0.1,0.1-0.1,0.1l1,1.2l1,1.1c0.7,0.7,1.4,1.5,2.1,2.2l2.2,2.2l0.5,0.5l0.6,0.5l1.1,1
			c-0.3-1-0.6-1.9-0.7-2.9c-0.1-1-0.1-2,0.1-3c0.3-1.8,1.6-4.3,3.7-4.3c1.3,0,1.9,0.9,2.2,1.9c0.3,1,0.3,2.4,0.1,3.4
			c-0.1,0.7-0.2,1.3-0.4,1.9c-0.2,0.6-0.3,1.2-0.6,1.9c-0.4,1.2-1,2.4-1.8,3.5c3.6,3,7.4,5.8,11.5,8.3c-0.7-1.2-1.3-2.4-1.7-3.7
			c-0.4-1.3-0.6-2.6-0.6-3.9c0-2.1,1.6-5,4-4.2c0.6,0.2,1,0.6,1.3,1.2c0.3,0.6,0.5,1.2,0.5,2c0.2,1.5,0,3.2-0.1,4.3
			c-0.1,0.5-0.1,1.6-0.3,2.7c-0.2,1.1-0.5,2.2-1.2,2.5c0,0.1,0,0.2,0,0.3c5.8,3.4,11.9,6.1,18.3,8.3c-1.9-1.5-3.6-3.1-4.2-5.4
			c-0.6-2-0.3-4.7,1.4-6.2c1.1-1,1.8-0.7,2.4,0c0.6,0.7,1,1.9,1.3,2.8c0.4,1.4,0.7,2.8,0.8,4.3c0.1,1.4,0.2,2.9,0,4.4
			c0.1,0,0.1,0.1,0.2,0.1c0.3,0.2,0.3,0.5,0.2,0.7c5.5,1.7,11.1,2.9,16.8,3.6c-0.7-0.8-1.4-1.6-1.9-2.5c-0.5-0.9-1-1.9-1.3-2.9
			c-0.3-0.8-0.7-2-0.8-3.1c-0.1-1.1,0.1-2.2,1-2.7c0.9-0.5,1.6-0.1,2.2,0.5c0.6,0.6,1,1.5,1.3,2.2c1.1,2.7,1.6,5.7,1.5,8.7
			c0.8,0.1,1.7,0.2,2.5,0.2c0.1,0,0.2,0,0.3,0l2,0.2c0.8,0.1,0.8,1.2,0,1.1l-2.2-0.2c-2,0.5-3.7,1.6-5.2,2.8
			c-1.6,1.3-3.1,2.6-4.9,3.6c-0.9,0.5-2.2,1.1-3.3,1.1c-1.1,0.1-2.2-0.3-2.8-1.5c-1.2-2.4,0.2-3.9,2.4-4.9c0.6-0.2,1.2-0.4,1.8-0.6
			c0.3-0.1,0.6-0.2,1-0.2c0.3-0.1,0.7-0.2,1-0.2c1.3-0.3,2.7-0.5,3.9-0.7c-5.5-0.8-10.8-2-16.1-3.6c-1,1-2.1,2.3-3.2,3.3
			c-1.2,1-2.5,2-4,2.5c-0.5,0.2-1,0.3-1.5,0.3c-0.5,0-1.1,0-1.7-0.1c-1.1-0.2-2.1-0.7-2.7-1.7c-0.5-1-0.3-1.9,0.3-2.5
			c0.3-0.3,0.7-0.6,1.1-0.8c0.4-0.2,0.9-0.4,1.3-0.5c0.9-0.2,1.7-0.3,2.6-0.4c0.4,0,0.9-0.1,1.3-0.1c0.4-0.1,0.9-0.1,1.3-0.2
			c0.9-0.2,1.7-0.4,2.5-0.6l-0.8-0.3c-5.9-2.1-11.6-4.7-17.1-7.9c0,0-0.1,0.1-0.1,0.1c-0.4,0.3-1.1,1-2,1.7c-0.9,0.7-2,1.4-3.1,1.8
			c-1.1,0.5-2.2,0.7-3.1,0.5c-0.2-0.1-0.4-0.1-0.6-0.2c-0.2-0.1-0.4-0.3-0.5-0.5c-0.3-0.4-0.5-0.9-0.6-1.6c-0.3-2.2,0.9-3,2.5-3.3
			c0.8-0.1,1.7-0.1,2.7-0.1c0.9,0,1.9,0.1,2.8,0.1l-1.5-0.9l-0.7-0.5c-0.2-0.2-0.5-0.3-0.7-0.5l-2.9-2l-2.8-2.1
			c-0.5-0.3-0.9-0.7-1.4-1.1l-1.4-1.1c0,0-0.1,0.1-0.1,0.1c-0.4,0.3-1.1,0.8-2,1.3c-0.9,0.5-2,1-3.1,1.3c-1.1,0.3-2.1,0.4-3,0.1
			c-0.4-0.1-0.8-0.4-1-0.7c-0.3-0.3-0.5-0.8-0.5-1.4c-0.2-1.8,1.2-2.4,2.8-2.5c1.7-0.1,3.8,0.2,5.2,0.4l-2.5-2.3
			c-0.8-0.8-1.6-1.6-2.4-2.4c-0.8-0.8-1.6-1.7-2.4-2.5l-1.2-1.3c-0.4-0.4-0.7-0.9-1.1-1.3l0,0c-3.6,1.6-7.7,2.5-11.9,2
			c-0.6-0.1-1.2-0.2-1.8-0.5c-0.3-0.1-0.6-0.3-0.9-0.4c-0.3-0.2-0.5-0.4-0.7-0.6c-0.9-0.8-1.4-2-0.8-3.4c0.5-1.4,1.7-2,3-2.1
			c1.3-0.2,2.8,0.1,4,0.5c0.7,0.2,1.3,0.5,1.9,0.8c0.6,0.3,1.3,0.6,1.9,0.9c0.6,0.3,1.3,0.6,1.9,0.8c0.3,0.1,0.6,0.2,1,0.3
			c0.3,0.1,0.7,0.1,1,0.2l-0.5-0.6l-0.5-0.7l-1-1.3l-1-1.3c-0.3-0.4-0.6-0.9-0.9-1.3c-0.6-0.9-1.3-1.8-1.9-2.7l-1.8-2.8
			c-1.4,0.2-2.9,0.1-4.3-0.2c-1.4-0.3-2.8-0.8-4.2-1.6c-0.9-0.6-2.2-1.4-3.1-2.4c-0.2-0.3-0.5-0.5-0.7-0.8c-0.2-0.3-0.4-0.6-0.5-0.9
			c-0.3-0.6-0.4-1.3-0.3-1.9c0.3-2.3,2.5-2.2,4-1.1c0.8,0.6,1.5,1.2,2.2,1.9c0.7,0.7,1.5,1.4,2.2,2c0.5,0.4,1,0.9,1.5,1.3l1.6,1.2
			c-2.3-4.1-4.4-8.5-6-12.9l0,0c-1.4,0.2-2.7,0.2-4.1-0.1c-1.3-0.3-2.6-0.8-3.9-1.6c-0.4-0.3-0.8-0.6-1.3-1
			c-0.2-0.2-0.4-0.4-0.6-0.6c-0.2-0.2-0.4-0.4-0.5-0.7c-0.7-1-1-2.1-0.7-3.2c0.3-1.2,1.2-1.7,2.1-1.7c0.9,0,2,0.4,2.8,1
			c1,0.7,1.9,1.6,2.8,2.5c0.8,0.9,1.6,1.9,2.3,3l0.1-0.5c-1.3-3.8-2.3-7.7-3.1-11.7c-0.3-0.1-0.5-0.4-0.3-0.8c0,0-0.1,0-0.1-0.1
			c-0.1-0.1-0.2-0.2-0.4-0.3c-0.3-0.3-0.7-0.6-1.2-1c-0.9-0.7-1.8-1.5-1.9-1.7c-1-1.1-1.9-2.4-2.6-3.9c-0.4-0.9-0.7-2-0.6-3
			c0-1,0.4-2,1.2-2.5c1-0.6,2-0.5,2.9,0C7.5,101.6,8.3,102.5,8.7,103.4z M94,188.3c0-1.4-0.1-2.8-0.4-4.2c-0.2-1-0.5-2-0.9-2.9
			c-0.1-0.4-0.3-0.7-0.4-1.1c-1.7-1.1-2.3-1-2,0.4c0.2,1.4,0.6,2.8,1.2,4.2C92.2,186,93,187.2,94,188.3z M86.5,192.2
			c-1.2,0.3-2.5,0.7-3.4,1.6c-0.5,0.6-0.8,1.6-0.5,2.3c0.6,1.4,2.2,1,3.4,0.5c1.7-0.7,3.1-1.8,4.4-2.8c0.7-0.5,1.3-1.1,2-1.6
			c0.7-0.5,1.3-1,2.1-1.4c-0.7,0.1-1.3,0.1-2,0.2c-0.7,0.1-1.3,0.2-2,0.3C89.1,191.5,87.8,191.8,86.5,192.2z M74.9,183.8
			c0.1-1.7,0.1-3.4-0.2-5.1c-0.2-1-0.4-2-0.7-2.9c-0.1-0.3-0.2-1-0.4-1.1c-0.6-0.1-1.1-0.3-1.7-0.4l-0.5,0.8
			c-0.8,1.7-0.6,3.4,0.1,4.9C72.3,181.5,73.6,182.8,74.9,183.8z M73.8,186.5c-1.4,0.4-2.7,0.7-4.2,0.9c-1,0.2-2,0.3-3.1,0.4
			c-0.5,0.1-1.1,0.1-1.5,0.3l-1.2,0.7l0.2,1.9c0.4,0.5,1.2,0.7,1.9,0.6c0.8,0,1.6-0.2,2-0.4c1-0.4,1.8-1,2.5-1.6
			C71.7,188.6,72.8,187.6,73.8,186.5z M55.2,175.2c0.1,0,0.3,0,0.4,0c-0.1,0,0.1-1.2,0.3-2.5c0.2-1.3,0.5-2.6,0.5-2.9
			c0-0.7-0.1-2.6-0.4-3.9c-0.4-1.3-1.1-2.1-2.6-0.4c-1.2,1.3-0.7,3.8-0.2,5.4C53.7,172.5,54.4,173.9,55.2,175.2z M47.9,177.2
			c-0.5,0.1-1,0.4-1.3,0.8c-0.4,0.5-0.4,1-0.2,1.4c0.1,0.2,0.3,0.4,0.6,0.6c0.3,0.2,0.6,0.3,1,0.4c0.6,0,1.5-0.5,2-0.8
			c1.3-0.7,2.5-1.5,3.5-2.4c-0.9,0-1.9-0.2-2.8-0.3c-0.5,0-0.9-0.1-1.4,0C48.8,177,48.3,177,47.9,177.2z M39.8,167.6
			c-0.8-0.1-1.6-0.1-2.5-0.2c-1.2-0.1-2.7-0.5-3.7,0.2c-0.9,0.3-0.8,0.9,0.3,1.8l1.5,0c0.6-0.1,1.3-0.3,1.9-0.6
			C38.3,168.6,39.1,168.1,39.8,167.6z M41.6,166.3L41.6,166.3c0.6-0.8,1.1-1.6,1.5-2.6c0.4-0.9,0.7-1.9,0.9-2.8
			c0.2-0.9,0.3-1.9,0.3-2.8c0-0.4-0.1-0.8-0.2-1.3c-0.1-0.4-0.4-0.8-0.7-1c-0.7-0.4-1.7,0.3-2.2,0.9c-1,1.4-1.3,3-1.1,4.7
			c0.1,0.8,0.3,1.7,0.6,2.5c0.1,0.4,0.3,0.8,0.4,1.2c0.1,0.2,0.2,0.4,0.2,0.6C41.4,166,41.5,166.2,41.6,166.3z M28.3,156.1
			c-1.6-0.3-3-1-4.4-1.6c-0.7-0.3-1.5-0.6-2.2-0.9c-0.7-0.3-1.5-0.5-2.3-0.7c-0.7-0.1-1.4-0.1-2,0c-0.9,0.2-1.8,0.9-2,1.7
			c-0.2,0.8,0.1,1.8,1.8,2.6c1.4,0.6,3.2,0.4,4.5,0.3c1.2,0,2.3-0.2,3.4-0.4C26.1,156.8,27.2,156.5,28.3,156.1z M30.5,154.7
			c0.8-1.4,1.6-2.7,2.4-4c0.4-0.7,0.8-1.3,1.1-2c0.2-0.6,0.3-1.7,0-2.4c-0.1-0.2-0.2-0.4-0.3-0.5c-0.1-0.1-0.3-0.2-0.5-0.3
			c-0.4-0.1-0.9-0.1-1.6,0.3c-0.6,0.3-1.1,0.9-1.4,1.6c-0.3,0.7-0.4,1.5-0.5,2.4C29.8,151.4,30.1,153.3,30.5,154.7z M19.9,143.2
			l-2.2-1.7c-0.4-0.3-0.7-0.6-1.1-0.9l-1-0.9l-2.4-2.1c-0.3-0.3-0.6-0.7-1-0.9l-0.4-0.4c-0.5,0.7-1.1,1.5-1.6,2.2
			c0.1,0.7,2,1.9,2.6,2.3c0.8,0.6,1.7,1.1,2.6,1.4C16.8,143,18.3,143.2,19.9,143.2z M21.9,142.4c1.3-0.7,2.5-1.7,3.4-3
			c0.6-0.8,1-1.6,1.3-2.5c0.2-0.4,0.3-0.8,0.4-1.2c0.3-1,0.3-0.9-0.6-1.6c-1-0.8-1.2-0.7-2.1,0.1c-0.4,0.3-0.7,0.7-1,1.1
			c-0.6,0.9-1,1.9-1.2,2.9C21.7,139.6,21.8,141,21.9,142.4z M12.2,127.8c-0.5-0.8-1-1.5-1.5-2.2c-0.3-0.3-0.6-0.7-0.9-1
			c-0.2-0.2-0.3-0.3-0.5-0.5c-0.1-0.2-0.3-0.3-0.5-0.5C8.3,123,7.7,122.4,7,122c-0.7-0.6-1.4-0.8-2.3-0.8c-1.1,0.8-1.2,1.7-0.6,2.7
			c0.7,1.4,2.1,2.4,3.5,3C9.2,127.5,10.8,127.8,12.2,127.8z M14,125.9l0.4,1.1c1.4-0.7,3.5-2,5-3.3c1.5-1.3,2.3-2.6,1.1-3.7
			c-0.9-0.9-1.8-0.5-2.8,0.1c-0.9,0.6-1.7,1.4-2.3,2.3C14.8,123.5,14.4,124.7,14,125.9z M12.4,109.5c-0.7,1.3-1.2,2.8-1.7,4.2
			c0,0,0,0,0,0l0.1,0.3l0,0c1.6-0.9,3.2-1.8,4.5-3c0.7-0.6,1.2-1.2,1.6-2c0.3-0.4,0.4-0.9,0.6-1.4c0.3-0.6,0-1-0.7-1.3
			c-0.4-0.9-1-1.1-1.6-0.4c-0.4,0.3-0.8,0.7-1.1,1.1C13.5,107.7,12.9,108.6,12.4,109.5z M4.4,106.3c1.1,2.1,2.6,4,4.5,5.3
			c0.2,0.1,0.4,0.3,0.7,0.4c-0.1-0.6-0.2-1.1-0.3-1.7c-0.1-0.6-0.2-1.1-0.3-1.7c-0.2-1.1-0.5-2.2-0.8-3.3c-0.3-1.2-1-3.3-2.5-3.5
			c-1.4-0.2-1.9,0.5-2,1.5C3.6,104.4,4,105.6,4.4,106.3z"/>
	</g>
	<g>
		<path d="M97.8,8.7c-0.6,0.3-1.1,0.5-1.8,0.7c-0.6,0.2-1.2,0.4-1.9,0.5c-0.6,0.2-1.3,0.3-1.9,0.4c-0.3,0-0.7,0.1-1,0.1
			c-0.3,0.1-0.6,0.1-1,0.2c1.1,0.4,2.1,0.9,3,1.5c0.9,0.6,1.8,1.3,2.5,2.1c0.9,1.1,1.7,3.1,0.4,4.2c-0.7,0.6-1.6,0.7-2.6,0.5
			c-0.5-0.1-0.9-0.3-1.4-0.5c-0.4-0.2-0.8-0.4-1.2-0.6C90,17,89,16,88.2,14.9c-0.4-0.6-0.8-1.1-1.1-1.7c-0.4-0.6-0.7-1.2-1-1.8
			C86,11.3,86,11.2,86,11.1l-2.2,0.5c-0.7,0.2-1.5,0.3-2.2,0.5l-2.2,0.6l-1.1,0.3c-0.4,0.1-0.7,0.2-1.1,0.4c0.4,0.1,0.8,0.3,1.2,0.5
			c0.4,0.2,0.7,0.4,1.1,0.6c0.7,0.4,1.3,1,1.9,1.6c1.2,1.3,2.4,3.8,1.1,5.5c-0.6,0.7-1.4,0.9-2.2,0.7c-0.8-0.1-1.6-0.5-2.3-1
			c-1.1-0.8-2-1.8-2.8-2.9c-0.8-1.1-1.5-2.4-2.1-3.5L70,16c-1,0.4-2,0.9-2.9,1.3l-1.5,0.7l-1.4,0.7l-1.4,0.7c-0.5,0.2-1,0.5-1.4,0.7
			l-1,0.6c0.6,0,1.1,0,1.6,0c0.5,0,1.1,0.1,1.6,0.3c1,0.3,2,0.7,2.9,1.3c0.7,0.5,1.5,1.4,2.1,2.4c0.5,1,0.7,2.1,0.1,2.9
			c-0.6,0.9-1.7,0.9-2.9,0.6c-1.2-0.2-2.4-0.8-3.1-1.1c-1.1-0.5-2-1.2-2.9-2.1c-0.8-0.8-1.6-1.7-2.1-2.8c-1.7,1.1-3.4,2.1-5,3.3
			c-1.7,1.1-3.2,2.3-4.8,3.6c1-0.2,2.1-0.3,3.1-0.3c0.5,0,1.1,0,1.6,0.1c0.5,0.1,1,0.2,1.5,0.3c1.8,0.6,3.1,1.7,2.9,3.8
			c0,0.4-0.2,0.8-0.4,1.1c-0.2,0.3-0.5,0.6-0.8,0.8c-0.6,0.4-1.5,0.6-2.3,0.5c-0.7-0.1-1.4-0.3-2.1-0.6c-0.7-0.3-1.4-0.7-2.1-1.1
			c-1.4-0.8-2.7-1.8-3.9-2.4c-0.1,0-0.1-0.1-0.1-0.1l-1.2,1l-1.1,1c-0.7,0.7-1.5,1.4-2.2,2.1l-2.2,2.2L38,38l-0.5,0.6l-1,1.1
			c1-0.3,1.9-0.6,2.9-0.7c1-0.1,2-0.1,3,0.1c1.8,0.3,4.3,1.6,4.3,3.7c0,1.3-0.9,1.9-1.9,2.2c-1,0.3-2.4,0.3-3.4,0.1
			c-0.7-0.1-1.3-0.2-1.9-0.4c-0.6-0.2-1.3-0.3-1.9-0.6c-1.2-0.4-2.4-1-3.5-1.8c-3,3.6-5.8,7.4-8.3,11.5c1.2-0.7,2.4-1.3,3.7-1.7
			c1.3-0.4,2.6-0.6,3.9-0.6c2.1,0,5,1.6,4.2,4c-0.2,0.6-0.6,1-1.2,1.3c-0.6,0.3-1.2,0.5-2,0.5c-1.5,0.2-3.2,0-4.3-0.1
			c-0.5-0.1-1.6-0.1-2.7-0.3c-1.1-0.2-2.2-0.5-2.5-1.2c-0.1,0-0.2,0-0.3,0c-3.4,5.8-6.1,11.9-8.3,18.3c1.5-1.9,3.1-3.6,5.4-4.2
			c2-0.6,4.7-0.3,6.2,1.4c1,1.1,0.7,1.8,0,2.4c-0.7,0.6-1.9,1-2.8,1.3c-1.4,0.4-2.8,0.7-4.3,0.8c-1.4,0.1-2.9,0.2-4.4,0
			c0,0.1-0.1,0.1-0.1,0.2c-0.2,0.3-0.5,0.3-0.7,0.2c-1.7,5.5-2.9,11.1-3.6,16.8c0.8-0.7,1.6-1.4,2.5-1.9c0.9-0.5,1.9-1,2.9-1.3
			c0.8-0.3,2-0.7,3.1-0.8c1.1-0.1,2.2,0.1,2.7,1c0.5,0.9,0.1,1.6-0.5,2.2c-0.6,0.6-1.5,1-2.2,1.3c-2.7,1.1-5.7,1.6-8.7,1.5
			c-0.1,0.8-0.2,1.7-0.2,2.5c0,0.1,0,0.2,0,0.3l-0.2,2c-0.1,0.8-1.2,0.8-1.1,0l0.2-2.2c-0.5-2-1.6-3.7-2.8-5.2C6.3,91,5,89.5,4,87.7
			c-0.5-0.9-1.1-2.2-1.1-3.3c-0.1-1.1,0.3-2.2,1.5-2.8c2.4-1.2,3.9,0.2,4.9,2.4c0.2,0.6,0.4,1.2,0.6,1.8c0.1,0.3,0.2,0.6,0.2,1
			c0.1,0.3,0.2,0.7,0.2,1c0.3,1.3,0.5,2.7,0.7,3.9c0.8-5.5,2-10.8,3.6-16.1c-1-1-2.3-2.1-3.3-3.2c-1-1.2-2-2.5-2.5-4
			c-0.2-0.5-0.3-1-0.3-1.5c0-0.5,0-1.1,0.1-1.7c0.2-1.1,0.7-2.1,1.7-2.7c1-0.5,1.9-0.3,2.5,0.3c0.3,0.3,0.6,0.7,0.8,1.1
			c0.2,0.4,0.4,0.9,0.5,1.3c0.2,0.9,0.3,1.7,0.4,2.6c0,0.4,0.1,0.9,0.1,1.3c0.1,0.4,0.1,0.9,0.2,1.3c0.2,0.9,0.4,1.7,0.6,2.5
			l0.3-0.8c2.1-5.9,4.7-11.6,7.9-17.1c0,0-0.1-0.1-0.1-0.1c-0.3-0.4-1-1.1-1.7-2c-0.7-0.9-1.4-2-1.8-3.1c-0.5-1.1-0.7-2.2-0.5-3.1
			c0.1-0.2,0.1-0.4,0.2-0.6c0.1-0.2,0.3-0.4,0.5-0.5c0.4-0.3,0.9-0.5,1.6-0.6c2.2-0.3,3,0.9,3.3,2.5c0.1,0.8,0.1,1.7,0.1,2.7
			c0,0.9-0.1,1.9-0.1,2.8l0.9-1.5l0.5-0.7c0.2-0.2,0.3-0.5,0.5-0.7l2-2.9l2.1-2.8c0.3-0.5,0.7-0.9,1.1-1.4l1.1-1.4
			c-0.1,0-0.1-0.1-0.1-0.1c-0.3-0.4-0.8-1.1-1.3-2c-0.5-0.9-1-2-1.3-3.1c-0.3-1.1-0.4-2.1-0.1-3c0.1-0.4,0.4-0.8,0.7-1
			c0.3-0.3,0.8-0.5,1.4-0.5c1.8-0.2,2.4,1.2,2.5,2.8c0.1,1.7-0.2,3.8-0.4,5.2l2.3-2.5c0.8-0.8,1.6-1.6,2.4-2.4
			c0.8-0.8,1.7-1.6,2.5-2.4l1.3-1.2c0.4-0.4,0.9-0.7,1.3-1.1l0,0c-1.6-3.6-2.5-7.7-2-11.9c0.1-0.6,0.2-1.2,0.5-1.8
			c0.1-0.3,0.3-0.6,0.4-0.9c0.2-0.3,0.4-0.5,0.6-0.7c0.8-0.9,2-1.4,3.4-0.8c1.4,0.5,2,1.7,2.1,3c0.2,1.3-0.1,2.8-0.5,4
			c-0.2,0.7-0.5,1.3-0.8,1.9c-0.3,0.6-0.6,1.3-0.9,1.9c-0.3,0.6-0.6,1.3-0.8,1.9c-0.1,0.3-0.2,0.6-0.3,1c-0.1,0.3-0.1,0.7-0.2,1
			l0.6-0.5l0.7-0.5l1.3-1l1.3-1c0.4-0.3,0.9-0.6,1.3-0.9c0.9-0.6,1.8-1.3,2.7-1.9l2.8-1.8c-0.2-1.4-0.1-2.9,0.2-4.3
			c0.3-1.4,0.8-2.8,1.6-4.2C59.1,12,60,10.8,61,9.8c0.3-0.2,0.5-0.5,0.8-0.7c0.3-0.2,0.6-0.4,0.9-0.5c0.6-0.3,1.3-0.4,1.9-0.3
			c2.3,0.3,2.2,2.5,1.1,4c-0.6,0.8-1.2,1.5-1.9,2.2c-0.7,0.7-1.4,1.5-2,2.2c-0.4,0.5-0.9,1-1.3,1.5l-1.2,1.6c4.1-2.3,8.5-4.4,12.9-6
			l0,0c-0.2-1.4-0.2-2.7,0.1-4.1c0.3-1.3,0.8-2.6,1.6-3.9c0.3-0.4,0.6-0.8,1-1.3c0.2-0.2,0.4-0.4,0.6-0.6c0.2-0.2,0.4-0.4,0.7-0.5
			c1-0.7,2.1-1,3.2-0.7c1.2,0.3,1.7,1.2,1.7,2.1c0,0.9-0.4,2-1,2.8c-0.7,1-1.6,1.9-2.5,2.8c-0.9,0.8-1.9,1.6-3,2.3l0.5,0.1
			c3.8-1.3,7.7-2.3,11.7-3.1c0.1-0.3,0.4-0.5,0.8-0.3c0,0,0-0.1,0.1-0.1C87.9,9.1,88,9,88.1,8.9c0.3-0.3,0.6-0.7,1-1.2
			c0.7-0.9,1.5-1.8,1.7-1.9c1.1-1,2.4-1.9,3.9-2.6c0.9-0.4,2-0.7,3-0.6c1,0,2,0.4,2.5,1.2c0.6,1,0.5,2,0,2.9
			C99.6,7.5,98.7,8.3,97.8,8.7z M12.9,94c1.4,0,2.8-0.1,4.2-0.4c1-0.2,2-0.5,2.9-0.9c0.4-0.1,0.7-0.3,1.1-0.4c1.1-1.7,1-2.3-0.4-2
			c-1.4,0.2-2.8,0.6-4.2,1.2C15.2,92.2,14,93,12.9,94z M8.9,86.5c-0.3-1.2-0.7-2.5-1.6-3.4c-0.6-0.5-1.6-0.8-2.3-0.5
			c-1.4,0.6-1,2.2-0.5,3.4c0.7,1.7,1.8,3.1,2.8,4.4c0.5,0.7,1.1,1.3,1.6,2c0.5,0.7,1,1.3,1.4,2.1c-0.1-0.7-0.1-1.3-0.2-2
			c-0.1-0.7-0.2-1.3-0.3-2C9.6,89.1,9.3,87.8,8.9,86.5z M17.3,74.9c1.7,0.1,3.4,0.1,5.1-0.2c1-0.2,2-0.4,2.9-0.7
			c0.3-0.1,1-0.2,1.1-0.4c0.1-0.6,0.3-1.1,0.4-1.7L26,71.5c-1.7-0.8-3.4-0.6-4.9,0.1C19.7,72.3,18.4,73.6,17.3,74.9z M14.6,73.8
			c-0.4-1.4-0.7-2.7-0.9-4.2c-0.2-1-0.3-2-0.4-3.1c-0.1-0.5-0.1-1.1-0.3-1.5l-0.7-1.2l-1.9,0.2c-0.5,0.4-0.7,1.2-0.6,1.9
			c0,0.8,0.2,1.6,0.4,2c0.4,1,1,1.8,1.6,2.5C12.6,71.7,13.6,72.8,14.6,73.8z M26,55.2c0,0.1,0,0.3,0,0.4c0-0.1,1.2,0.1,2.5,0.3
			c1.3,0.2,2.6,0.5,2.9,0.5c0.7,0,2.6-0.1,3.9-0.4c1.3-0.4,2.1-1.1,0.4-2.6c-1.3-1.2-3.8-0.7-5.4-0.2C28.7,53.7,27.3,54.4,26,55.2z
			 M24,47.9c-0.1-0.5-0.4-1-0.8-1.3c-0.5-0.4-1-0.4-1.4-0.2c-0.2,0.1-0.4,0.3-0.6,0.6c-0.2,0.3-0.3,0.6-0.4,1c0,0.6,0.5,1.5,0.8,2
			c0.7,1.3,1.5,2.5,2.4,3.5c0-0.9,0.2-1.9,0.3-2.8c0-0.5,0.1-0.9,0-1.4C24.2,48.8,24.1,48.3,24,47.9z M33.5,39.8
			c0.1-0.8,0.1-1.6,0.2-2.5c0.1-1.2,0.5-2.7-0.2-3.7c-0.3-0.9-0.9-0.8-1.8,0.3l0,1.5c0.1,0.6,0.3,1.3,0.6,1.9
			C32.6,38.3,33,39.1,33.5,39.8z M34.8,41.6L34.8,41.6c0.8,0.6,1.6,1.1,2.6,1.5c0.9,0.4,1.9,0.7,2.8,0.9c0.9,0.2,1.9,0.3,2.8,0.3
			c0.4,0,0.8-0.1,1.3-0.2c0.4-0.1,0.8-0.4,1-0.7c0.4-0.7-0.3-1.7-0.9-2.2c-1.4-1-3-1.3-4.7-1.1c-0.8,0.1-1.7,0.3-2.5,0.6
			c-0.4,0.1-0.8,0.3-1.2,0.4c-0.2,0.1-0.4,0.2-0.6,0.2C35.2,41.4,35,41.5,34.8,41.6z M45,28.3c0.3-1.6,1-3,1.6-4.4
			c0.3-0.7,0.6-1.5,0.9-2.2c0.3-0.7,0.5-1.5,0.7-2.3c0.1-0.7,0.1-1.4,0-2c-0.2-0.9-0.9-1.8-1.7-2c-0.8-0.2-1.8,0.1-2.6,1.8
			c-0.6,1.4-0.4,3.2-0.3,4.5c0,1.2,0.2,2.3,0.4,3.4C44.3,26.1,44.7,27.2,45,28.3z M46.5,30.5c1.4,0.8,2.7,1.6,4,2.4
			c0.7,0.4,1.3,0.8,2,1.1c0.6,0.2,1.7,0.3,2.4,0c0.2-0.1,0.4-0.2,0.5-0.3c0.1-0.1,0.2-0.3,0.3-0.5c0.1-0.4,0.1-0.9-0.3-1.6
			c-0.3-0.6-0.9-1.1-1.6-1.4c-0.7-0.3-1.5-0.4-2.4-0.5C49.8,29.8,47.8,30.1,46.5,30.5z M57.9,19.9l1.7-2.2c0.3-0.4,0.6-0.7,0.9-1.1
			l0.9-1l2.1-2.4c0.3-0.3,0.7-0.6,0.9-1l0.4-0.4c-0.7-0.5-1.5-1.1-2.2-1.6c-0.7,0.1-1.9,2-2.3,2.6c-0.6,0.8-1.1,1.7-1.4,2.6
			C58.2,16.8,57.9,18.3,57.9,19.9z M58.7,21.9c0.7,1.3,1.7,2.5,3,3.4c0.8,0.6,1.6,1,2.5,1.3c0.4,0.2,0.8,0.3,1.2,0.4
			c1,0.3,0.9,0.3,1.6-0.6c0.8-1,0.7-1.2-0.1-2.1c-0.3-0.4-0.7-0.7-1.1-1C65,22.6,64,22.2,63,22C61.6,21.7,60.2,21.8,58.7,21.9z
			 M73.4,12.2c0.8-0.5,1.5-1,2.2-1.5c0.3-0.3,0.7-0.6,1-0.9c0.2-0.2,0.3-0.3,0.5-0.5c0.2-0.1,0.3-0.3,0.5-0.5
			c0.6-0.6,1.2-1.2,1.6-1.9c0.6-0.7,0.8-1.4,0.8-2.3c-0.8-1.1-1.7-1.2-2.7-0.6c-1.4,0.7-2.4,2.1-3,3.5C73.6,9.2,73.4,10.8,73.4,12.2
			z M75.3,14l-1.1,0.4c0.7,1.4,2,3.5,3.3,5c1.3,1.5,2.6,2.3,3.7,1.1c0.9-0.9,0.5-1.8-0.1-2.8c-0.6-0.9-1.4-1.7-2.3-2.3
			C77.7,14.8,76.5,14.4,75.3,14z M91.7,12.4c-1.3-0.7-2.8-1.2-4.2-1.7c0,0,0,0,0,0l-0.3,0.1l0,0c0.9,1.6,1.8,3.2,3,4.5
			c0.6,0.7,1.2,1.2,2,1.6c0.4,0.3,0.9,0.4,1.4,0.6c0.6,0.3,1,0,1.3-0.7c0.9-0.4,1.1-1,0.4-1.6c-0.3-0.4-0.7-0.8-1.1-1.1
			C93.4,13.5,92.6,12.9,91.7,12.4z M94.9,4.4c-2.1,1.1-4,2.6-5.3,4.5c-0.1,0.2-0.3,0.4-0.4,0.7c0.6-0.1,1.1-0.2,1.7-0.3
			c0.6-0.1,1.1-0.2,1.7-0.3c1.1-0.2,2.2-0.5,3.3-0.8c1.2-0.3,3.3-1,3.5-2.5c0.2-1.4-0.5-1.9-1.5-2C96.7,3.6,95.5,4,94.9,4.4z"/>
	</g>
	<g>
		<path d="M192.5,97.8c-0.3-0.6-0.5-1.1-0.7-1.8c-0.2-0.6-0.4-1.2-0.5-1.9c-0.2-0.6-0.3-1.3-0.4-1.9c0-0.3-0.1-0.7-0.1-1
			c-0.1-0.3-0.1-0.6-0.2-1c-0.4,1.1-0.9,2.1-1.5,3c-0.6,0.9-1.3,1.8-2.1,2.5c-1.1,0.9-3.1,1.7-4.2,0.4c-0.6-0.7-0.7-1.6-0.5-2.6
			c0.1-0.5,0.3-0.9,0.5-1.4c0.2-0.4,0.4-0.8,0.6-1.2c0.7-1.1,1.7-2.1,2.8-2.9c0.6-0.4,1.1-0.8,1.7-1.1c0.6-0.4,1.2-0.7,1.8-1
			c0.1-0.1,0.2-0.1,0.3-0.1l-0.5-2.2c-0.2-0.7-0.3-1.5-0.5-2.2l-0.6-2.2l-0.3-1.1c-0.1-0.4-0.2-0.7-0.4-1.1
			c-0.1,0.4-0.3,0.8-0.5,1.2c-0.2,0.4-0.4,0.7-0.6,1.1c-0.4,0.7-1,1.3-1.6,1.9c-1.3,1.2-3.8,2.4-5.5,1.1c-0.7-0.6-0.9-1.4-0.7-2.2
			c0.1-0.8,0.5-1.6,1-2.3c0.8-1.1,1.8-2,2.9-2.8c1.1-0.8,2.4-1.5,3.5-2.1l-1.2-3c-0.4-1-0.9-2-1.3-2.9l-0.7-1.5l-0.7-1.4l-0.7-1.4
			c-0.2-0.5-0.5-1-0.7-1.4l-0.5-1c0,0.6,0,1.1,0,1.6c0,0.5-0.1,1.1-0.3,1.6c-0.3,1-0.7,2-1.3,2.9c-0.5,0.7-1.4,1.5-2.4,2.1
			c-1,0.5-2.1,0.7-2.9,0.1c-0.9-0.6-0.9-1.7-0.6-2.9c0.2-1.2,0.8-2.4,1.1-3.1c0.5-1.1,1.2-2,2.1-2.9c0.8-0.8,1.7-1.6,2.8-2.1
			c-1.1-1.7-2.1-3.4-3.3-5c-1.1-1.7-2.3-3.2-3.6-4.8c0.2,1,0.3,2.1,0.3,3.1c0,0.5,0,1.1-0.1,1.6c-0.1,0.5-0.2,1-0.3,1.5
			c-0.6,1.8-1.7,3.1-3.8,2.9c-0.4,0-0.8-0.2-1.1-0.4c-0.3-0.2-0.6-0.5-0.8-0.8c-0.4-0.6-0.6-1.5-0.5-2.3c0.1-0.7,0.3-1.4,0.6-2.1
			c0.3-0.7,0.7-1.4,1.1-2.1c0.8-1.4,1.8-2.7,2.4-3.9c0-0.1,0.1-0.1,0.1-0.1l-1-1.2l-1-1.1c-0.7-0.7-1.4-1.5-2.1-2.2l-2.2-2.2
			l-0.5-0.5l-0.6-0.5l-1.1-1c0.3,1,0.6,1.9,0.7,2.9c0.1,1,0.1,2-0.1,3c-0.3,1.8-1.6,4.3-3.7,4.3c-1.3,0-1.9-0.9-2.2-1.9
			c-0.3-1-0.3-2.4-0.1-3.4c0.1-0.7,0.2-1.3,0.4-1.9c0.2-0.6,0.3-1.2,0.6-1.9c0.4-1.2,1-2.4,1.8-3.5c-3.6-3-7.4-5.8-11.5-8.3
			c0.7,1.2,1.3,2.4,1.7,3.7c0.4,1.3,0.6,2.6,0.6,3.9c0,2.1-1.6,5-4,4.2c-0.6-0.2-1-0.6-1.3-1.2c-0.3-0.6-0.5-1.2-0.5-2
			c-0.2-1.5,0-3.2,0.1-4.3c0.1-0.5,0.1-1.6,0.3-2.7c0.2-1.1,0.5-2.2,1.2-2.5c0-0.1,0-0.2,0-0.3c-5.8-3.4-11.9-6.1-18.3-8.3
			c1.9,1.5,3.6,3.1,4.2,5.4c0.6,2,0.3,4.7-1.4,6.2c-1.1,1-1.8,0.7-2.4,0c-0.6-0.7-1-1.9-1.3-2.8c-0.4-1.4-0.7-2.8-0.8-4.3
			c-0.1-1.4-0.2-2.9,0-4.4c-0.1,0-0.1-0.1-0.2-0.1c-0.3-0.2-0.3-0.5-0.2-0.7c-5.5-1.7-11.1-2.9-16.8-3.6c0.7,0.8,1.4,1.6,1.9,2.5
			c0.5,0.9,1,1.9,1.3,2.9c0.3,0.8,0.7,2,0.8,3.1c0.1,1.1-0.1,2.2-1,2.7c-0.9,0.5-1.6,0.1-2.2-0.5c-0.6-0.6-1-1.5-1.3-2.2
			c-1.1-2.7-1.6-5.7-1.5-8.7c-0.8-0.1-1.7-0.2-2.5-0.2c-0.1,0-0.2,0-0.3,0l-2-0.2c-0.8-0.1-0.8-1.2,0-1.1l2.2,0.2
			c2-0.5,3.7-1.6,5.2-2.8c1.6-1.3,3.1-2.6,4.9-3.6c0.9-0.5,2.2-1.1,3.3-1.1c1.1-0.1,2.2,0.3,2.8,1.5c1.2,2.4-0.2,3.9-2.4,4.9
			c-0.6,0.2-1.2,0.4-1.8,0.6c-0.3,0.1-0.6,0.2-1,0.2c-0.3,0.1-0.7,0.2-1,0.2c-1.3,0.3-2.7,0.5-3.9,0.7c5.5,0.8,10.8,2,16.1,3.6
			c1-1,2.1-2.3,3.2-3.3c1.2-1,2.5-2,4-2.5c0.5-0.2,1-0.3,1.5-0.3c0.5,0,1.1,0,1.7,0.1c1.1,0.2,2.1,0.7,2.7,1.7
			c0.5,1,0.3,1.9-0.3,2.5c-0.3,0.3-0.7,0.6-1.1,0.8c-0.4,0.2-0.9,0.4-1.3,0.5c-0.9,0.2-1.7,0.3-2.6,0.4c-0.4,0-0.9,0.1-1.3,0.1
			c-0.4,0.1-0.9,0.1-1.3,0.2c-0.9,0.2-1.7,0.4-2.5,0.6l0.8,0.3c5.9,2.1,11.6,4.7,17.1,7.9c0,0,0.1-0.1,0.1-0.1c0.4-0.3,1.1-1,2-1.7
			c0.9-0.7,2-1.4,3.1-1.8c1.1-0.5,2.2-0.7,3.1-0.5c0.2,0.1,0.4,0.1,0.6,0.2c0.2,0.1,0.4,0.3,0.5,0.5c0.3,0.4,0.5,0.9,0.6,1.6
			c0.3,2.2-0.9,3-2.5,3.3c-0.8,0.1-1.7,0.1-2.7,0.1c-0.9,0-1.9-0.1-2.8-0.1l1.5,0.9l0.8,0.5c0.2,0.2,0.5,0.3,0.7,0.5l2.9,2l2.8,2.1
			c0.5,0.3,0.9,0.7,1.4,1.1l1.4,1.1c0,0,0.1-0.1,0.1-0.1c0.4-0.3,1.1-0.8,2-1.3c0.9-0.5,2-1,3.1-1.3c1.1-0.3,2.1-0.4,3-0.1
			c0.4,0.1,0.8,0.4,1,0.7c0.3,0.3,0.5,0.8,0.5,1.4c0.2,1.8-1.2,2.4-2.8,2.5c-1.7,0.1-3.8-0.2-5.2-0.4l2.5,2.3
			c0.8,0.8,1.6,1.6,2.4,2.4c0.8,0.8,1.6,1.7,2.4,2.5l1.2,1.3c0.4,0.4,0.7,0.9,1.1,1.3l0,0c3.6-1.6,7.7-2.5,11.9-2
			c0.6,0.1,1.2,0.2,1.8,0.5c0.3,0.1,0.6,0.3,0.9,0.4c0.3,0.2,0.5,0.4,0.7,0.6c0.9,0.8,1.4,2,0.8,3.4c-0.5,1.4-1.7,2-3,2.1
			c-1.3,0.2-2.8-0.1-4-0.5c-0.7-0.2-1.3-0.5-1.9-0.8c-0.6-0.3-1.3-0.6-1.9-0.9c-0.6-0.3-1.3-0.6-1.9-0.8c-0.3-0.1-0.6-0.2-1-0.3
			c-0.3-0.1-0.7-0.1-1-0.2l0.5,0.6l0.5,0.7l1,1.3l1,1.3c0.3,0.4,0.6,0.9,0.9,1.3c0.6,0.9,1.3,1.8,1.9,2.7l1.8,2.8
			c1.4-0.2,2.9-0.1,4.3,0.2c1.4,0.3,2.8,0.8,4.2,1.6c0.9,0.6,2.2,1.4,3.1,2.4c0.2,0.3,0.5,0.5,0.7,0.8c0.2,0.3,0.4,0.6,0.5,0.9
			c0.3,0.6,0.4,1.3,0.3,1.9c-0.3,2.3-2.5,2.2-4,1.1c-0.8-0.6-1.5-1.2-2.2-1.9c-0.7-0.7-1.5-1.4-2.2-2c-0.5-0.4-1-0.9-1.5-1.3
			l-1.6-1.2c2.3,4.1,4.4,8.5,6,12.9l0,0c1.4-0.2,2.7-0.2,4.1,0.1c1.3,0.3,2.6,0.8,3.9,1.6c0.4,0.3,0.8,0.6,1.3,1
			c0.2,0.2,0.4,0.4,0.6,0.6c0.2,0.2,0.4,0.4,0.5,0.7c0.7,1,1,2.1,0.7,3.2c-0.3,1.2-1.2,1.7-2.1,1.7c-0.9,0-2-0.4-2.8-1
			c-1-0.7-1.9-1.6-2.8-2.5c-0.8-0.9-1.6-1.9-2.3-3l-0.1,0.5c1.3,3.8,2.3,7.7,3.1,11.7c0.3,0.1,0.5,0.4,0.3,0.8c0,0,0.1,0,0.1,0.1
			c0.1,0.1,0.2,0.2,0.4,0.3c0.3,0.3,0.7,0.6,1.2,1c0.9,0.7,1.8,1.5,1.9,1.7c1,1.1,1.9,2.4,2.6,3.9c0.4,0.9,0.7,2,0.6,3
			c0,1-0.4,2-1.2,2.5c-1,0.6-2,0.5-2.9,0C193.6,99.6,192.9,98.7,192.5,97.8z M107.1,12.9c0,1.4,0.1,2.8,0.4,4.2c0.2,1,0.5,2,0.9,2.9
			c0.1,0.4,0.3,0.7,0.4,1.1c1.7,1.1,2.3,1,2-0.4c-0.2-1.4-0.6-2.8-1.2-4.2C109,15.2,108.1,14,107.1,12.9z M114.7,8.9
			c1.2-0.3,2.5-0.7,3.4-1.6c0.5-0.6,0.8-1.6,0.5-2.3c-0.6-1.4-2.2-1-3.4-0.5c-1.7,0.7-3.1,1.8-4.4,2.8c-0.7,0.5-1.3,1.1-2,1.6
			c-0.7,0.5-1.3,1-2.1,1.4c0.7-0.1,1.3-0.1,2-0.2c0.7-0.1,1.3-0.2,2-0.3C112,9.6,113.4,9.3,114.7,8.9z M126.2,17.3
			c-0.1,1.7-0.1,3.4,0.2,5.1c0.2,1,0.4,2,0.7,2.9c0.1,0.3,0.2,1,0.4,1.1c0.6,0.1,1.1,0.3,1.7,0.4l0.5-0.8c0.8-1.7,0.6-3.4-0.1-4.9
			C128.8,19.7,127.6,18.4,126.2,17.3z M127.4,14.6c1.4-0.4,2.7-0.7,4.2-0.9c1-0.2,2-0.3,3.1-0.4c0.5-0.1,1.1-0.1,1.5-0.3l1.2-0.7
			l-0.2-1.9c-0.4-0.5-1.2-0.7-1.9-0.6c-0.8,0-1.6,0.2-2,0.4c-1,0.4-1.8,1-2.5,1.6C129.4,12.6,128.4,13.6,127.4,14.6z M145.9,26
			c-0.1,0-0.3,0-0.4,0c0.1,0-0.1,1.2-0.3,2.5c-0.2,1.3-0.5,2.6-0.5,2.9c0,0.7,0.1,2.6,0.4,3.9c0.4,1.3,1.1,2.1,2.6,0.4
			c1.2-1.3,0.7-3.8,0.2-5.4C147.5,28.7,146.8,27.3,145.9,26z M153.3,24c0.5-0.1,1-0.4,1.3-0.8c0.4-0.5,0.4-1,0.2-1.4
			c-0.1-0.2-0.3-0.4-0.6-0.6c-0.3-0.2-0.6-0.3-1-0.4c-0.6,0-1.5,0.5-2,0.8c-1.3,0.7-2.5,1.5-3.5,2.4c0.9,0,1.9,0.2,2.8,0.3
			c0.5,0,0.9,0.1,1.4,0C152.4,24.2,152.8,24.1,153.3,24z M161.3,33.5c0.8,0.1,1.6,0.1,2.5,0.2c1.2,0.1,2.7,0.5,3.7-0.2
			c0.9-0.3,0.8-0.9-0.3-1.8l-1.5,0c-0.6,0.1-1.3,0.3-1.9,0.6C162.9,32.6,162.1,33,161.3,33.5z M159.6,34.8L159.6,34.8
			c-0.6,0.8-1.1,1.6-1.5,2.6c-0.4,0.9-0.7,1.9-0.9,2.8c-0.2,0.9-0.3,1.9-0.3,2.8c0,0.4,0.1,0.8,0.2,1.3c0.1,0.4,0.4,0.8,0.7,1
			c0.7,0.4,1.7-0.3,2.2-0.9c1-1.4,1.3-3,1.1-4.7c-0.1-0.8-0.3-1.7-0.6-2.5c-0.1-0.4-0.3-0.8-0.4-1.2c-0.1-0.2-0.2-0.4-0.2-0.6
			C159.8,35.2,159.7,35,159.6,34.8z M172.9,45c1.6,0.3,3,1,4.4,1.6c0.7,0.3,1.5,0.6,2.2,0.9c0.7,0.3,1.5,0.5,2.3,0.7
			c0.7,0.1,1.4,0.1,2,0c0.9-0.2,1.8-0.9,2-1.7c0.2-0.8-0.1-1.8-1.8-2.6c-1.4-0.6-3.2-0.4-4.5-0.3c-1.2,0-2.3,0.2-3.4,0.4
			C175,44.3,173.9,44.7,172.9,45z M170.6,46.5c-0.8,1.4-1.6,2.7-2.4,4c-0.4,0.7-0.8,1.3-1.1,2c-0.2,0.6-0.3,1.7,0,2.4
			c0.1,0.2,0.2,0.4,0.3,0.5c0.1,0.1,0.3,0.2,0.5,0.3c0.4,0.1,0.9,0.1,1.6-0.3c0.6-0.3,1.1-0.9,1.4-1.6c0.3-0.7,0.4-1.5,0.5-2.4
			C171.4,49.8,171.1,47.8,170.6,46.5z M181.3,57.9l2.2,1.7c0.4,0.3,0.7,0.6,1.1,0.9l1,0.9l2.4,2.1c0.3,0.3,0.6,0.7,1,0.9l0.4,0.4
			c0.5-0.7,1.1-1.5,1.6-2.2c-0.1-0.7-2-1.9-2.6-2.3c-0.8-0.6-1.7-1.1-2.6-1.4C184.4,58.2,182.8,57.9,181.3,57.9z M179.3,58.7
			c-1.3,0.7-2.5,1.7-3.4,3c-0.6,0.8-1,1.6-1.3,2.5c-0.2,0.4-0.3,0.8-0.4,1.2c-0.3,1-0.3,0.9,0.6,1.6c1,0.8,1.2,0.7,2.1-0.1
			c0.4-0.3,0.7-0.7,1-1.1c0.6-0.9,1-1.9,1.2-2.9C179.4,61.6,179.4,60.2,179.3,58.7z M188.9,73.4c0.5,0.8,1,1.5,1.5,2.2
			c0.3,0.3,0.6,0.7,0.9,1c0.2,0.2,0.3,0.3,0.5,0.5c0.1,0.2,0.3,0.3,0.5,0.5c0.6,0.6,1.2,1.2,1.9,1.6c0.7,0.6,1.4,0.8,2.3,0.8
			c1.1-0.8,1.2-1.7,0.6-2.7c-0.7-1.4-2.1-2.4-3.5-3C192,73.6,190.4,73.4,188.9,73.4z M187.1,75.3l-0.4-1.1c-1.4,0.7-3.5,2-5,3.3
			c-1.5,1.3-2.3,2.6-1.1,3.7c0.9,0.9,1.8,0.5,2.8-0.1c0.9-0.6,1.7-1.4,2.3-2.3C186.4,77.7,186.8,76.5,187.1,75.3z M188.7,91.7
			c0.7-1.3,1.2-2.8,1.7-4.2c0,0,0,0,0,0l-0.1-0.3l0,0c-1.6,0.9-3.2,1.8-4.5,3c-0.7,0.6-1.2,1.2-1.6,2c-0.3,0.4-0.4,0.9-0.6,1.4
			c-0.3,0.6,0,1,0.7,1.3c0.4,0.9,1,1.1,1.6,0.4c0.4-0.3,0.8-0.7,1.1-1.1C187.7,93.4,188.2,92.6,188.7,91.7z M196.8,94.9
			c-1.1-2.1-2.6-4-4.5-5.3c-0.2-0.1-0.4-0.3-0.7-0.4c0.1,0.6,0.2,1.1,0.3,1.7c0.1,0.6,0.2,1.1,0.3,1.7c0.2,1.1,0.5,2.2,0.8,3.3
			c0.3,1.2,1,3.3,2.5,3.5c1.4,0.2,1.9-0.5,2-1.5C197.5,96.7,197.2,95.5,196.8,94.9z"/>
	</g>
</g>
</svg>
