<?xml version="1.0" encoding="utf-8"?>
<!-- Generator: Adobe Illustrator 22.1.0, SVG Export Plug-In . SVG Version: 6.00 Build 0)  -->
<svg version="1.1" id="レイヤー_1" xmlns="http://www.w3.org/2000/svg" xmlns:xlink="http://www.w3.org/1999/xlink" width="189" height="31" x="0px"
	 y="0px" viewBox="0 0 189 31" style="enable-background:new 0 0 189 31;" xml:space="preserve">
<style type="text/css">
	.st0{fill:#FFFFFF;}
</style>
<g>
	<path class="st0" d="M189.2,0.3c0-0.2-0.2-0.3-0.4-0.3c0,0,0,0-0.1,0C188.2,0.1,140,10.6,100,10.6c-0.1,0-0.3,0.1-0.3,0.2
		c0,0-1.6,3.4-5.1,6.1c-3.5-2.7-5.1-6-5.1-6.1c-0.1-0.1-0.2-0.2-0.3-0.2C49.2,10.6,0.9,0.1,0.4,0C0.2,0,0.1,0.1,0,0.3
		c0,0.2,0.1,0.4,0.3,0.4c0.2,0,17.2,3.7,39.1,6.7l0.1,0l0-0.1l0,0.1c0.9,0.2,8.4,2.5,10.3,4c0.3,0.3,0.8,0.3,1.2,0.2
		c1.3-0.5,6-2,9.7-1.7c0,0,0.1,0,0.1,0c6.9,0.6,13.5,1.1,19.5,1.3c-1.5,0.7-2.4,2.1-2.4,3.9c0,1.2,0.5,2.2,1.1,3
		c-2.2-1.1-4.2-2.5-6.1-3.7c-2.7-1.8-5.1-3.4-7-3.6c-3-0.3-4.3,0.6-4.9,1.4c-0.5,0.8-0.5,1.7-0.2,2.3c0.4,0.7,1.3,0.8,1.9,0.5
		c0.6-0.3,0.8-0.8,0.5-1.4c-0.2-0.4-0.5-0.7-0.8-0.9c-0.1-0.1-0.3-0.2-0.3-0.2c0,0,0-0.2,0.5-0.7c0.8-0.3,1.8-0.4,3.1-0.2
		c1.8,0.2,4.1,1.7,6.7,3.5c2.4,1.6,5.2,3.5,8.1,4.6l0,0c0,0,0.1,0,0.1,0c0,0,0,0,0,0c2.6,1,5,1.3,7.2,0.9c2.4-0.4,4.6-1.4,6.6-2.8
		c2,1.4,4.3,2.4,6.6,2.8c0.6,0.1,1.3,0.2,1.9,0.2c1.6,0,3.4-0.4,5.2-1.1c0,0,0.1,0,0.1,0c2.9-1.2,5.7-3,8.2-4.6
		c2.7-1.8,5-3.3,6.7-3.5c1-0.1,1.9-0.1,2.6,0.1c0.4,0.1,0.7,0.3,0.9,0.6c0.1,0.2,0.1,0.2,0.1,0.2c0,0-0.2,0.2-0.3,0.2
		c-0.3,0.2-0.6,0.4-0.8,0.9c-0.2,0.6,0,1.1,0.5,1.4c0.6,0.3,1.5,0.2,1.9-0.5c0.3-0.5,0.3-1.5-0.2-2.3c-0.5-0.8-1.8-1.7-4.9-1.4
		c-1.9,0.2-4.3,1.8-7.1,3.6c-1.8,1.2-3.9,2.6-6.1,3.7c0.6-0.7,1.1-1.7,1.1-3c0-1.8-0.9-3.3-2.4-3.9c6.1-0.2,12.6-0.6,19.5-1.3l0.1,0
		l0,0c3.8-0.3,8.4,1.2,9.7,1.7c0.4,0.1,0.8,0.1,1.2-0.2c1.9-1.5,9.5-3.7,10.3-4c0,0,0,0,0.1,0c21.7-3,38.4-6.6,39.1-6.7
		c0.1,0,0.2-0.1,0.2-0.2C189.2,0.5,189.2,0.4,189.2,0.3z M145.5,8c-2.6,0.9-5.4,1.9-6.6,2.8c-0.1,0.1-0.3,0.1-0.5,0.1
		c-0.9-0.3-3-1-5.5-1.5C137,9.1,141.2,8.6,145.5,8z M104,12L104,12c0,0-0.4,0.3-0.8,0.3l-0.1,0c-0.6,0-1,0-1.5,0.8l0,0.1
		c-0.4,0.7-0.6,1.1-0.7,1.9c0,0.3-0.1,0.5-0.3,0.6c-0.1,0.1-0.3,0.1-0.4,0.1c-0.3-0.1-0.4-0.5-0.4-0.5c0-0.1-0.1-0.2-0.1-0.2
		c-0.1-0.1-0.2-0.1-0.3-0.1c-0.1,0-0.2,0.1-0.2,0.1c-0.1,0.1-0.1,0.2-0.1,0.3c0,0.3,0.2,0.9,0.9,1.1c0.4,0.1,0.7,0.1,1-0.1
		c0.2-0.2,0.5-0.5,0.6-1.1c0.1-0.5,0.8-0.7,1.1-0.7c0.1,0,0.2,0.1,0.3,0.2c0,0.9,0.6,1.9,1.5,2.5c0.7,0.4,1.4,0.6,2.1,0.4l0,0
		c0.1,0,0.2-0.1,0.3-0.1c1.2-0.5,1.6-1.6,1.4-2.3c-0.1-0.7-0.6-1.1-1.3-1.2c-0.7-0.1-1.3,0.2-1.5,0.7c-0.2,0.5-0.1,1.1,0.4,1.5
		c0.2,0.2,0.5,0.3,0.7,0.4c-0.3,0.3-0.7,0.4-1.2,0.3c-0.3-0.1-0.5-0.2-0.7-0.3c-0.7-0.5-1.2-1.2-1.2-1.9c0-1.4,1.4-3,3.2-3
		c1.8,0,3.6,1.1,3.6,3.6c0,2.2-2,3.6-2.3,3.9c-2.5,1-4.7,1.3-6.8,0.9c-2.2-0.4-4.3-1.3-6.2-2.6c3.1-2.4,4.7-5.3,5.1-6
		c1.5,0,3,0,4.6,0C104.6,11.5,104.3,11.7,104,12z M84.3,16.4c-0.1,0.1-0.4,0.2-0.7,0.3c-0.4,0.1-0.9,0-1.1-0.3
		c0.2-0.1,0.5-0.2,0.7-0.4c0.4-0.4,0.6-1,0.4-1.5c-0.2-0.5-0.8-0.8-1.5-0.7c-0.7,0.1-1.1,0.5-1.3,1.2c-0.1,0.8,0.3,1.8,1.4,2.3
		c0.1,0,0.2,0.1,0.4,0.1c0.7,0.2,1.5,0.1,2.1-0.4c0.9-0.6,1.5-1.6,1.5-2.5c0-0.1,0.1-0.2,0.3-0.2c0.3,0,1,0.2,1.1,0.7
		c0.1,0.7,0.4,1,0.6,1.1c0.3,0.2,0.7,0.3,1,0.1c0.7-0.2,0.9-1,0.9-1.1c0-0.2-0.1-0.4-0.3-0.4c-0.2,0-0.4,0.1-0.4,0.3
		c0,0-0.1,0.4-0.4,0.5c-0.2,0-0.3,0-0.4-0.1c-0.2-0.1-0.3-0.3-0.3-0.6l0-0.1l0,0c-0.1-0.7-0.3-1.2-0.7-1.8l0-0.1
		c-0.4-0.8-0.8-0.8-1.5-0.8l-0.1,0c-0.4,0-0.7-0.2-0.8-0.2l0,0c-0.3-0.3-0.6-0.5-0.9-0.7c1.6,0,3.2,0,4.6,0c0.4,0.7,2,3.6,5.1,6
		c-1.9,1.3-4,2.2-6.2,2.6C85.7,20.3,83.5,20,81,19c-0.4-0.3-2.3-1.7-2.3-3.9c0-2.5,1.8-3.6,3.6-3.6c1.8,0,3.2,1.6,3.2,3
		C85.5,15.2,85,16,84.3,16.4z M56.2,9.5c-2.4,0.4-4.6,1.1-5.4,1.5c-0.2,0.1-0.3,0-0.5-0.1c-1.2-0.9-4-2-6.6-2.8
		C47.9,8.6,52.1,9.1,56.2,9.5z M39.5,7.4C39.5,7.4,39.5,7.4,39.5,7.4L39.5,7.4L39.5,7.4z M108.4,19.6
		C108.4,19.6,108.4,19.6,108.4,19.6C108.4,19.6,108.4,19.6,108.4,19.6L108.4,19.6L108.4,19.6z"/>
	<path class="st0" d="M53.9,1.6c9.4,1.3,20.7,1.9,33.7,2c0,0,0.1,0,0.1,0c2.1,0,5.4,1.7,6.4,2.2C94.3,5.9,94.4,6,94.6,6
		c0.2,0,0.3,0,0.5-0.1c0.8-0.5,3.3-1.3,4.8-1.8l0.1,0c0.6-0.2,0.9-0.3,1.1-0.4c0.2-0.1,0.5-0.1,0.8-0.2c14.8-0.4,27.4-1.3,33.5-1.8
		l0.2,0c0.3,0,0.4,0,0.5,0c0.2,0,0.4-0.2,0.4-0.4c0-0.2-0.2-0.4-0.4-0.4c0,0-0.1,0-0.7,0.1c-6.6,0.6-20,1.6-35.6,1.9
		c-1.6-0.3-3.8-1.2-4.6-1.5c-0.3-0.1-0.7-0.1-0.9,0.1c-1.7,1.2-5,1.5-6,1.5C75,2.9,63.5,2.2,54.1,0.9l-0.1,0c-0.2,0-0.3,0.1-0.4,0.3
		c0,0.1,0,0.2,0.1,0.3C53.8,1.6,53.9,1.6,53.9,1.6z M93.8,3.5c0-0.5,0.4-0.8,0.8-0.8c0.5,0,0.8,0.4,0.8,0.8c0,0.5-0.4,0.8-0.8,0.8
		C94.2,4.3,93.8,3.9,93.8,3.5z"/>
	<path class="st0" d="M91.8,21.4c-0.1-0.2-0.3-0.2-0.5-0.1c-0.3,0.2-3.3,2.2-6.1,2.5C85,23.3,84.5,23,83.9,23
		c-0.7,0-1.3,0.6-1.3,1.3s0.6,1.3,1.3,1.3c0.6,0,1.1-0.4,1.3-1c3.1-0.3,6.2-2.4,6.5-2.7C91.9,21.8,91.9,21.6,91.8,21.4z M84.5,24.3
		c0,0.3-0.3,0.6-0.6,0.6c-0.3,0-0.6-0.3-0.6-0.6c0-0.3,0.3-0.6,0.6-0.6C84.2,23.7,84.5,24,84.5,24.3z"/>
	<path class="st0" d="M93.4,23.3c0.1-0.1,0.1-0.2,0.1-0.3c0-0.1,0-0.2-0.1-0.3c-0.1-0.1-0.4-0.1-0.5,0l-2.7,2.7
		c-0.2-0.1-0.5-0.2-0.8-0.2c-0.9,0-1.5,0.7-1.5,1.5c0,0.9,0.7,1.5,1.5,1.5c0.9,0,1.5-0.7,1.5-1.5c0-0.3-0.1-0.6-0.2-0.8L93.4,23.3z
		 M90.2,26.8c0,0.4-0.4,0.8-0.8,0.8c-0.4,0-0.8-0.4-0.8-0.8c0-0.4,0.4-0.8,0.8-0.8C89.9,26,90.2,26.4,90.2,26.8z"/>
	<path class="st0" d="M95.5,10.8L95.5,10.8c-0.5,0-1.3,0-1.8,0c-0.3,0-0.5,0.1-0.6,0.3c-0.1,0.2-0.2,0.5-0.1,0.7
		c0.8,2,1.2,2.4,1.6,2.4c0.1,0,0.1,0,0.2,0c0.2-0.1,0.5-0.2,1.5-2.4c0.1-0.2,0.1-0.5-0.1-0.7C96,10.9,95.8,10.8,95.5,10.8z"/>
	<path class="st0" d="M95,26.5v-2.2c0-0.2-0.2-0.4-0.4-0.4c-0.2,0-0.4,0.2-0.4,0.4v2.2c-0.2,0.1-0.5,0.2-0.8,0.4
		C93.2,27.2,93,27.5,93,28c0,0.5,0.1,0.8,0.4,1.1c0.2,0.2,0.5,0.3,0.8,0.4V31c0,0.2,0.2,0.4,0.4,0.4c0.2,0,0.4-0.2,0.4-0.4v-1.5
		c0.3-0.1,0.6-0.2,0.8-0.4c0.3-0.3,0.4-0.6,0.4-1.1c0-0.5-0.1-0.8-0.4-1.1C95.5,26.6,95.2,26.5,95,26.5z M95.5,28
		c0,0.3-0.1,0.5-0.2,0.6c-0.2,0.2-0.6,0.2-0.6,0.2l0,0l0,0l0,0c0,0-0.4,0-0.6-0.2l0,0c-0.1-0.1-0.2-0.3-0.2-0.6
		c0-0.8,0.7-0.9,0.9-0.9c0,0,0.3,0,0.5,0.1C95.3,27.4,95.5,27.7,95.5,28z"/>
	<path class="st0" d="M92.1,21.4c0.8,0.2,1.6,1.2,1.9,1.6c0.1,0.1,0.3,0.2,0.4,0.2c0,0,0,0,0.1,0c0.2,0,0.3-0.1,0.4-0.3
		c0.2-0.4,1-1.1,2.2-1.7c0.2-0.1,0.3-0.3,0.3-0.5c0-0.2-0.2-0.4-0.4-0.4h0c-0.9-0.2-1.7-1-2-1.4c-0.1-0.1-0.2-0.2-0.4-0.2
		c0,0,0,0,0,0c-0.2,0-0.3,0.1-0.4,0.2c-0.2,0.3-1,0.9-2.1,1.5c-0.2,0.1-0.3,0.3-0.3,0.5C91.8,21.2,91.9,21.3,92.1,21.4z M94.4,20.6
		c0-0.1,0.1-0.3,0.3-0.3s0.3,0.1,0.3,0.3s-0.1,0.3-0.3,0.3S94.4,20.7,94.4,20.6z"/>
	<path class="st0" d="M99.8,25.3c-0.3,0-0.6,0.1-0.8,0.2l-2.7-2.7c-0.1-0.1-0.4-0.1-0.5,0c-0.1,0.1-0.1,0.2-0.1,0.3
		c0,0.1,0,0.2,0.1,0.3l2.7,2.7c-0.1,0.2-0.2,0.5-0.2,0.8c0,0.9,0.7,1.5,1.5,1.5c0.9,0,1.5-0.7,1.5-1.5
		C101.4,26,100.7,25.3,99.8,25.3z M100.6,26.8c0,0.4-0.4,0.8-0.8,0.8c-0.4,0-0.8-0.4-0.8-0.8c0-0.4,0.4-0.8,0.8-0.8
		C100.3,26,100.6,26.4,100.6,26.8z"/>
	<path class="st0" d="M105.3,23c-0.6,0-1.1,0.4-1.3,0.9c-2.9-0.3-6-2.4-6.1-2.5c-0.2-0.1-0.4-0.1-0.5,0.1c-0.1,0.1-0.1,0.2-0.1,0.3
		c0,0.1,0.1,0.2,0.2,0.2c0.3,0.2,3.5,2.3,6.5,2.7c0.2,0.6,0.7,1,1.3,1c0.7,0,1.3-0.6,1.3-1.3C106.6,23.5,106.1,23,105.3,23z
		 M105.9,24.3c0,0.3-0.3,0.6-0.6,0.6c-0.3,0-0.6-0.3-0.6-0.6c0-0.3,0.3-0.6,0.6-0.6C105.6,23.7,105.9,24,105.9,24.3z"/>
</g>
</svg>
