<?xml version="1.0" encoding="utf-8"?>
<!-- Generator: Adobe Illustrator 22.1.0, SVG Export Plug-In . SVG Version: 6.00 Build 0)  -->
<svg version="1.1" id="レイヤー_1" xmlns="http://www.w3.org/2000/svg" xmlns:xlink="http://www.w3.org/1999/xlink" width="13px" height="54px" x="0px"
	 y="0px" viewBox="0 0 13 54" style="enable-background:new 0 0 13 54;" xml:space="preserve">
<style type="text/css">
	.st0{fill:#F4F0EB;}
</style>
<g>
	<path class="st0" d="M7.8,16c0-0.1-0.1-0.1-0.2-0.1c-0.1,0-0.1,0.1-0.1,0.2c0,0.1,0.1,0.1,0.2,0.1C7.8,16.2,7.9,16.1,7.8,16z"/>
	<path class="st0" d="M6,2.4c0.1,0,0.2-0.2,0.1-0.3C6.1,2,6,1.9,5.9,2C5.7,2,5.7,2.2,5.7,2.3C5.8,2.4,5.9,2.5,6,2.4z"/>
	<path class="st0" d="M4.9,2.3C4.9,2.2,5,2.1,4.9,2c0-0.1-0.1-0.1-0.2-0.1C4.6,2,4.6,2.1,4.6,2.2C4.7,2.2,4.8,2.3,4.9,2.3z"/>
	<path class="st0" d="M7.9,17.1C8,17.1,8,17,8,17c0-0.1-0.1-0.1-0.1-0.1c-0.1,0-0.1,0.1-0.1,0.1C7.8,17.1,7.8,17.2,7.9,17.1z"/>
	<path class="st0" d="M6.9,16.2c-0.1,0-0.1,0.1-0.1,0.1c0,0.1,0.1,0.1,0.1,0.1c0.1,0,0.1-0.1,0.1-0.1C7.1,16.2,7,16.2,6.9,16.2z"/>
	<path class="st0" d="M4.8,3.2c0.1,0,0.1-0.1,0.1-0.1C4.8,3,4.7,2.9,4.7,3C4.6,3,4.6,3,4.6,3.1C4.6,3.2,4.7,3.2,4.8,3.2z"/>
	<path class="st0" d="M5.4,45.2c0.1,0,0.2-0.2,0.1-0.3c0-0.1-0.2-0.2-0.3-0.1c-0.1,0-0.2,0.2-0.1,0.3C5.1,45.2,5.2,45.3,5.4,45.2z"
		/>
	<path class="st0" d="M1.3,50.2c-0.1,0-0.2,0.2-0.1,0.3c0,0.1,0.2,0.2,0.3,0.1c0.1,0,0.2-0.2,0.1-0.3C1.6,50.3,1.5,50.2,1.3,50.2z"
		/>
	<path class="st0" d="M4.2,45.1c0.1,0,0.1-0.1,0.1-0.2c0-0.1-0.1-0.1-0.2-0.1C4,44.8,3.9,44.9,4,45C4,45,4.1,45.1,4.2,45.1z"/>
	<path class="st0" d="M0.1,50.6C0,50.6,0,50.7,0,50.8c0,0.1,0.1,0.1,0.2,0.1c0.1,0,0.1-0.1,0.1-0.2C0.3,50.6,0.2,50.5,0.1,50.6z"/>
	<path class="st0" d="M3.9,45.9C4,46,4,46,4.1,46c0.1,0,0.1-0.1,0.1-0.1c0-0.1-0.1-0.1-0.1-0.1C4,45.8,3.9,45.8,3.9,45.9z"/>
	<path class="st0" d="M0.7,49.7c-0.1,0-0.1,0.1-0.1,0.1c0,0.1,0.1,0.1,0.1,0.1c0.1,0,0.1-0.1,0.1-0.1C0.8,49.7,0.8,49.7,0.7,49.7z"
		/>
	<path class="st0" d="M4,39.1c0,0,0.1-0.1,0-0.1C4.1,39,4,39,4,39c0,0-0.1,0.1,0,0.1C3.9,39.1,4,39.2,4,39.1z"/>
	<path class="st0" d="M5.9,37.8c0,0,0.1,0.1,0.1,0c0,0,0.1-0.1,0-0.1c0,0-0.1-0.1-0.1,0C5.9,37.7,5.9,37.7,5.9,37.8z"/>
	<path class="st0" d="M5.6,37.6c0.1,0,0.1-0.1,0.1-0.2c0-0.1-0.1-0.1-0.2-0.1c-0.1,0-0.1,0.1-0.1,0.2C5.5,37.6,5.5,37.6,5.6,37.6z"
		/>
	<path class="st0" d="M5.9,37.3c0,0-0.1,0.1,0,0.1c0,0,0.1,0.1,0.1,0c0,0,0.1-0.1,0-0.1C6,37.3,6,37.3,5.9,37.3z"/>
	<path class="st0" d="M3.6,39.3c0,0,0.1-0.1,0-0.1c0,0-0.1-0.1-0.1,0c0,0-0.1,0.1,0,0.1C3.6,39.3,3.6,39.3,3.6,39.3z"/>
	<path class="st0" d="M4.7,38.2C4.7,38.1,4.7,38.1,4.7,38.2c-0.1-0.1-0.1,0-0.1,0C4.6,38.2,4.6,38.2,4.7,38.2
		C4.7,38.2,4.7,38.2,4.7,38.2z"/>
	<path class="st0" d="M8.7,7C8.6,7,8.5,7,8.5,7.1c0,0.1,0,0.2,0.1,0.2c0.1,0,0.2,0,0.2-0.1C8.9,7.1,8.8,7,8.7,7z"/>
	<path class="st0" d="M8.9,6.1C8.9,6,8.8,6,8.7,6C8.7,6,8.6,6.1,8.7,6.2c0,0.1,0.1,0.1,0.2,0.1C8.9,6.2,8.9,6.1,8.9,6.1z"/>
	<path class="st0" d="M9.4,6.7c-0.1,0-0.1,0.1-0.1,0.1c0,0.1,0.1,0.1,0.1,0.1c0.1,0,0.1-0.1,0.1-0.1C9.5,6.7,9.4,6.7,9.4,6.7z"/>
	<path class="st0" d="M5.5,6C5.6,6,5.7,6.1,5.7,6.1c0.1,0,0.2,0,0.3,0.1c0.1,0,0.1,0,0.2,0c0.2,0.3,0.4,0.6,0.4,0.9
		c0.1,0.3,0.2,0.7,0.2,1c0,0.1,0,0.2,0,0.2c0,0.1-0.1,0.3-0.1,0.4C6.7,8.6,6.7,8.5,6.6,8.3c0-0.1-0.1-0.1-0.2-0.2
		C6.3,8.1,6.2,8,6,8.1C5.9,8.1,5.9,8.2,5.8,8.3c0,0.1,0,0.2,0,0.3C5.9,8.7,5.9,8.9,6,9c0,0.1,0.1,0.3,0.3,0.4
		c0.1,0.1,0.2,0.1,0.4,0.2c-0.1,0.2-0.1,0.5-0.1,0.7c-0.1,0.4,0,0.9,0.1,1.3c0,0.4,0.1,0.9,0.2,1.3c0.1,0.4,0.3,0.8,0.6,1.1
		c0,0,0,0,0.1,0.1c-0.1,0-0.2,0-0.4,0c-0.2,0-0.3,0-0.5,0c-0.1,0-0.2,0-0.3,0.1c0,0-0.1,0-0.1,0.1c0,0-0.1,0.1-0.1,0.1
		c0,0,0,0.1,0,0.1c0,0,0,0.1,0,0.1c0,0,0,0.1,0.1,0.1c0,0,0.1,0.1,0.1,0.1c0.1,0,0.2,0.1,0.2,0.1c0.2,0,0.3,0,0.5,0.1
		c0.2,0,0.3,0,0.5-0.1c0.1-0.1,0.2-0.1,0.3-0.2c0,0,0,0,0,0c0,0,0,0,0,0C7.9,14.8,8,14.9,8.1,15c0.3,0.3,0.6,0.6,1,0.8
		c0,0,0,0,0.1,0c0,0,0,0.1-0.1,0.1C9.1,16.2,9,16.4,9,16.7c0,0.4,0,0.9,0.1,1.3c0.1,0.4,0.3,0.8,0.5,1.2c0.2,0.4,0.4,0.8,0.6,1.1
		c0.5,0.7,1.1,1.4,1.7,1.9c0,0,0.1,0,0.1,0c0,0,0-0.1,0-0.1l0,0c-0.6-0.6-1.1-1.2-1.6-1.9c-0.2-0.3-0.5-0.7-0.6-1.1
		c-0.2-0.4-0.2-0.8-0.3-1.2c-0.1-0.4-0.2-0.8-0.2-1.2c0-0.2,0-0.4,0.1-0.6c0,0,0,0,0-0.1c0.6,0.4,1.3,0.7,2,0.9c0,0,0.1,0,0.1,0
		c0,0,0-0.1,0-0.1c-0.7-0.3-1.4-0.6-2-1c0-0.1,0.1-0.2,0.1-0.3c0.1-0.3,0.1-0.6,0.2-1l0,0c0,0,0,0,0.1,0l0.1,0c0.1,0,0.1,0,0.2,0
		c0.1,0,0.3-0.1,0.4-0.1c0.3-0.1,0.4-0.3,0.7-0.5c0.2-0.2,0.5-0.3,0.6-0.6c0.1-0.1,0.1-0.3,0.1-0.4c0-0.1,0.1-0.3,0.1-0.4
		c0,0,0,0,0-0.1c0-0.1-0.1-0.1-0.2-0.1l0,0c-0.3,0.1-0.5,0.3-0.7,0.4c-0.1,0.1-0.2,0.1-0.3,0.2L10.7,13c0,0.1-0.1,0.1-0.1,0.1
		c-0.2,0.2-0.4,0.3-0.6,0.6c0,0.1-0.1,0.1-0.1,0.2c0-0.1,0-0.2,0-0.3c0-0.2-0.1-0.4-0.2-0.5c0,0,0.1,0,0.1,0c0.1,0,0.3-0.1,0.4-0.2
		c0.3-0.1,0.4-0.4,0.6-0.7c0.2-0.2,0.3-0.5,0.4-0.8c0-0.1,0-0.3,0-0.5c0,0,0-0.1,0-0.1c0.1-0.2,0.1-0.5,0-0.7
		C11,9.8,11,9.7,10.8,9.6c-0.1-0.1-0.3-0.1-0.4-0.1c-0.1,0-0.1,0-0.1,0l-0.1-0.1c0,0,0-0.1-0.1-0.1c-0.1-0.1-0.3-0.1-0.4-0.1
		c-0.1,0-0.3,0-0.4,0.1c-0.1,0-0.2,0-0.3,0c-0.1,0-0.2-0.1-0.4,0c-0.1,0-0.1,0-0.2,0.1c-0.1,0-0.1,0.1-0.2,0.1
		C8.2,9.5,8.1,9.6,8.1,9.7C8,9.8,7.9,9.8,7.8,9.8c-0.1,0-0.3,0-0.4,0.1c-0.1,0.1-0.2,0.2-0.2,0.4c0,0.2,0,0.5,0.1,0.7c0,0,0,0,0,0.1
		c0,0.1,0,0.2,0,0.2c0,0.1,0,0.1,0.1,0.2c0,0.1,0.1,0.1,0.1,0.1c0.1,0.1,0.1,0.2,0.2,0.3c0.2,0.2,0.3,0.3,0.5,0.5
		c0.2,0.1,0.3,0.3,0.5,0.4C8.9,12.9,9.1,13,9.3,13c0,0,0,0,0,0c0,0,0,0,0.1,0c0,0,0,0,0,0c0,0.2,0,0.4,0,0.6c0,0.1,0,0.2,0,0.3
		c0,0.1,0,0.2,0,0.3c0,0.4-0.2,0.8-0.3,1.2c0,0.1,0,0.2,0,0.3c-0.3-0.2-0.7-0.5-1-0.8c-0.1-0.1-0.2-0.2-0.3-0.3
		c0.1-0.1,0.2-0.3,0.3-0.4c0.1-0.2,0.1-0.4,0.1-0.6c0-0.2,0-0.4-0.1-0.6c0-0.1-0.1-0.2-0.1-0.3c-0.1-0.1-0.2-0.2-0.3-0.2
		c-0.1,0-0.2,0-0.2,0.1c-0.1,0-0.1,0.1-0.1,0.2c-0.1,0.1-0.1,0.2-0.1,0.3c0,0.2,0,0.4,0,0.6c0,0,0,0,0,0c-0.1-0.3-0.3-0.6-0.4-0.9
		c-0.2-0.4-0.3-0.8-0.3-1.2c-0.1-0.4,0.1-0.8,0.1-1.2c0-0.3,0.1-0.6,0.1-0.9c0,0,0-0.1,0-0.1c0,0,0,0,0,0c0-0.1,0-0.1,0-0.2
		c0.2,0,0.3,0,0.5-0.1C7.6,9.1,7.8,9.1,8,9c0.2,0,0.4-0.1,0.5-0.3c0.2-0.2,0.2-0.3,0.3-0.5c0,0,0-0.1,0-0.2C8.8,8,8.8,8,8.8,8
		c-0.1,0-0.1,0-0.2,0c-0.1,0-0.2,0-0.3,0C8,7.9,7.8,8,7.7,8.2C7.5,8.2,7.4,8.3,7.3,8.4C7.3,8.3,7.4,8.2,7.4,8
		c0.2-0.4,0.3-0.8,0.5-1.1c0.2-0.4,0.3-0.8,0.6-1.1c0.2-0.3,0.4-0.6,0.6-1c0.2,0,0.3,0,0.5,0c0.2,0,0.3,0,0.5,0
		c0.2,0,0.4-0.1,0.5-0.2c0.1-0.1,0.2-0.3,0.3-0.5c0,0,0-0.1,0-0.1c0-0.1-0.1-0.1-0.1-0.1c-0.1,0-0.1,0-0.2-0.1c-0.1,0-0.2,0-0.3,0
		c-0.2,0-0.4,0.1-0.5,0.2C9.8,4,9.8,4,9.7,4c0.1-0.1,0.1-0.2,0.2-0.4c0.2-0.4,0.4-0.8,0.5-1.2c0.3-0.8,0.6-1.6,0.8-2.4
		c0,0,0-0.1-0.1-0.1c0,0-0.1,0-0.1,0.1l0,0c-0.2,0.8-0.6,1.6-0.9,2.3C10,2.8,9.8,3.1,9.6,3.5c-0.2,0.3-0.3,0.7-0.5,1
		c0,0-0.1,0.1-0.1,0.1l0,0c0,0,0,0,0,0.1c0,0,0,0,0,0C8.9,4.8,8.8,4.9,8.8,5c0-0.1,0-0.2,0-0.3c0-0.2-0.1-0.3-0.1-0.5
		c0-0.1,0-0.2-0.1-0.2c0,0-0.1-0.1-0.1-0.1c0,0-0.1,0-0.1-0.1c0,0-0.1,0-0.1,0c0,0-0.1,0-0.1,0c0,0-0.1,0-0.1,0.1C8,4,8,4.1,8,4.1
		c0,0.1,0,0.2,0,0.3c0,0.2,0,0.3,0,0.5c0,0.2,0,0.3,0.1,0.5c0.1,0.1,0.2,0.2,0.3,0.3c0,0,0,0,0,0C8.2,6.1,7.9,6.4,7.7,6.7
		C7.4,7.1,7.2,7.4,7.1,7.8C7,7.5,7,7.3,6.9,7C6.8,6.9,6.7,6.8,6.7,6.6c0-0.1,0-0.1,0.1-0.2c0-0.1,0-0.1,0-0.2c0-0.1,0-0.1,0.1-0.2
		c0-0.1,0.1-0.1,0.1-0.2l0,0c0,0,0,0,0,0c0,0,0,0,0,0C6.8,5.8,6.7,5.9,6.7,6c0,0.1-0.1,0.1-0.1,0.2c0,0,0,0.1,0,0.1
		c0-0.1-0.1-0.1-0.1-0.2c0-0.1-0.1-0.1-0.1-0.2c0-0.1,0-0.2,0-0.3c0-0.2,0-0.3,0-0.5l0,0c0,0,0,0,0,0c0,0,0,0,0,0
		C6.2,5.2,6.1,5.4,6.1,5.5c0,0,0,0.1,0,0.1C6,5.5,5.9,5.4,5.7,5.3c0,0,0,0,0,0c0,0,0,0,0,0l0,0C5.8,5.6,5.9,5.8,6.1,6
		C6,6,5.9,6,5.8,5.9c-0.1,0-0.1-0.1-0.2-0.1c-0.1,0-0.2-0.1-0.2-0.1l0,0c0,0,0,0,0,0c0,0,0,0,0,0C5.4,5.8,5.4,5.9,5.5,6z M11.7,12.6
		C11.7,12.7,11.7,12.7,11.7,12.6c0,0.1-0.1,0.2-0.1,0.2c0,0,0-0.1,0-0.1C11.7,12.7,11.7,12.7,11.7,12.6c-0.1,0.1-0.1,0.1-0.1,0.1
		C11.7,12.7,11.7,12.6,11.7,12.6z M11.3,13.3C11.3,13.3,11.3,13.3,11.3,13.3c-0.1,0.1-0.1,0.2-0.2,0.2c-0.1,0.1-0.3,0.2-0.5,0.2
		c0,0,0.1-0.1,0.1-0.1C10.9,13.6,11.1,13.5,11.3,13.3z M10.7,13.3c0.1-0.1,0.2-0.1,0.3-0.2c0,0,0,0,0.1,0c0,0,0,0,0,0
		c-0.1,0.1-0.1,0.2-0.2,0.2c-0.1,0.1-0.2,0.1-0.3,0.1c0,0-0.1,0-0.1,0C10.5,13.4,10.6,13.3,10.7,13.3z M10.9,10.1
		c0.1,0.1,0.1,0.3,0.1,0.5c0,0-0.1-0.1-0.1-0.1c-0.1,0-0.1-0.1-0.2-0.1c0,0,0-0.1,0.1-0.1C10.8,10.2,10.9,10.2,10.9,10.1z M10.3,9.9
		c0.1,0,0.1-0.1,0.1-0.2c0,0,0.1,0,0.1,0c0.1,0,0.2,0,0.3,0.1c0,0,0.1,0.1,0.1,0.1c-0.1,0.1-0.1,0.1-0.2,0.2c0,0-0.1,0.1-0.1,0.1
		c0,0-0.1,0.1-0.1,0.1c-0.1-0.1-0.2-0.1-0.3-0.1c0,0-0.1,0-0.1,0c0,0,0,0,0-0.1c0-0.1,0.1-0.1,0.1-0.2C10.2,10,10.2,9.9,10.3,9.9z
		 M10,11.2c0,0-0.1,0-0.1,0c0,0-0.1,0-0.1,0c-0.1,0-0.1,0-0.1,0.1c-0.1,0.1-0.1,0.2-0.1,0.3c0-0.1-0.1-0.1-0.1-0.2
		c-0.1-0.1-0.2-0.2-0.3-0.2c-0.1,0-0.1,0-0.2,0l-0.2,0c-0.1,0-0.2,0.1-0.3,0c-0.1,0-0.2-0.1-0.2-0.2c0,0,0,0,0,0
		c0-0.1,0.1-0.1,0.2-0.2c0.1-0.1,0.1-0.1,0.3-0.2c0,0,0.1,0,0.1,0c0,0,0,0,0.1,0c0,0,0.1,0,0.1,0c0.1,0,0.1-0.1,0.1-0.1
		c0.1-0.1,0.1-0.2,0.2-0.2c0,0,0.1-0.1,0.1,0c0.1,0,0.1,0.1,0.1,0.1c0.1,0,0.2,0.1,0.3,0.1c0,0,0.1,0,0.1,0c0,0,0.1,0,0.1,0
		c0.1,0,0.1,0,0.2,0c0.1,0,0.1,0,0.2,0c-0.1,0.1-0.1,0.2-0.2,0.3C10.1,10.9,10.1,11,10,11.2L10,11.2C10,11.2,10,11.2,10,11.2z
		 M9.5,11.7c0,0.1,0,0.3,0,0.4c0,0.1,0,0.2,0,0.2c0,0-0.1-0.1-0.1-0.1c-0.1-0.1-0.1-0.2-0.2-0.3c0-0.1-0.1-0.2-0.1-0.3
		c0-0.1-0.1-0.2-0.1-0.2c0,0,0.1,0,0.1,0c0.1,0,0.2,0.1,0.2,0.1C9.3,11.6,9.4,11.6,9.5,11.7z M9.5,10c0-0.1,0-0.2,0.1-0.2
		c0-0.1,0-0.1,0.1-0.2c0,0,0-0.1,0-0.2c0,0,0.1,0,0.1,0c0.1,0,0.2,0,0.3,0.1c0,0,0,0,0.1,0l0,0.1c-0.1,0-0.1,0.1-0.1,0.1
		c0,0.1-0.1,0.1-0.1,0.2c0,0.1,0,0.2-0.1,0.2c0,0-0.1,0.1-0.1,0.1c-0.1,0-0.2-0.1-0.3-0.2c0,0,0,0,0,0C9.5,10.1,9.5,10.1,9.5,10z
		 M9.1,9.5c0.1,0,0.3,0,0.4-0.1c0,0,0,0,0,0c0,0,0,0.1,0,0.1c0,0.1,0,0.2,0,0.2c0,0.1,0,0.2,0,0.2c0,0.1,0,0.1,0,0.2c0,0,0,0,0,0
		c-0.1,0-0.1,0-0.2,0c0,0,0,0,0,0C9,10.1,9,9.9,8.9,9.8C8.8,9.8,8.8,9.7,8.8,9.6c0,0,0-0.1-0.1-0.1C8.8,9.4,8.9,9.5,9.1,9.5z
		 M8.5,9.6C8.5,9.6,8.5,9.5,8.5,9.6c0.1,0,0.1,0,0.1,0.1c0,0.1,0.1,0.2,0.1,0.3c0,0.1,0,0.2,0.1,0.3c0,0.1,0.1,0.1,0.1,0.2
		c0,0-0.1,0-0.1,0.1c-0.1,0-0.1,0.1-0.1,0.1c0,0,0,0,0,0c0,0,0,0,0,0c0,0,0,0-0.1,0c0-0.1,0-0.1-0.1-0.2c-0.1,0-0.1-0.1-0.1-0.2
		c0-0.1-0.1-0.1-0.1-0.2c0,0,0-0.1-0.1-0.1C8.4,9.8,8.4,9.7,8.5,9.6z M7.4,10.9c0-0.2-0.1-0.4,0-0.6c0-0.1,0.1-0.2,0.1-0.3
		C7.6,10,7.7,10,7.8,10c0.1,0,0.1,0,0.2,0c0,0.1,0,0.1,0.1,0.1c0.1,0.1,0.1,0.1,0.1,0.2c0,0.1,0.1,0.1,0.1,0.2c0,0.1,0,0.1,0.1,0.1
		c-0.1,0-0.1,0.1-0.2,0.1c0,0,0,0,0,0c0,0-0.1-0.1-0.1-0.1c0-0.1-0.1-0.1-0.1-0.1c-0.1-0.1-0.2-0.2-0.3-0.3l0,0c0,0,0,0-0.1,0
		c0,0,0,0,0,0.1c0.1,0.1,0.2,0.2,0.2,0.3c0,0,0.1,0.1,0.1,0.2c0,0,0.1,0.1,0.1,0.1c0,0,0,0.1-0.1,0.1C8,11,8,11,7.9,10.9
		c0,0-0.1,0-0.1,0l0,0l-0.1,0C7.6,10.9,7.6,10.9,7.4,10.9C7.5,10.9,7.4,10.9,7.4,10.9z M9.3,12.8L9.3,12.8c-0.2,0-0.4-0.1-0.5-0.2
		c-0.2-0.1-0.4-0.2-0.5-0.4c-0.2-0.1-0.3-0.3-0.4-0.5c-0.1-0.1-0.2-0.1-0.2-0.2c0,0-0.1-0.1-0.1-0.1c0,0,0-0.1,0-0.1
		c0,0,0-0.1,0-0.1c0,0,0,0,0,0c0.1,0.2,0.2,0.3,0.3,0.5c0.2,0.2,0.3,0.3,0.5,0.5c0.2,0.1,0.4,0.3,0.5,0.4
		C8.9,12.7,9.1,12.8,9.3,12.8L9.3,12.8z M9.4,12.7c-0.2-0.1-0.3-0.2-0.5-0.3c-0.2-0.1-0.3-0.3-0.5-0.4c-0.1-0.2-0.3-0.3-0.4-0.5
		c-0.1-0.1-0.2-0.2-0.3-0.3c0,0,0,0,0,0l0,0c0,0,0,0,0,0c0.1,0,0.2,0.1,0.3,0.2l0.3,0.1c0.1,0,0.1,0,0.2,0l0.1,0
		c0,0.1,0,0.2,0.1,0.3C8.9,11.8,8.9,11.9,9,12c0.1,0.1,0.2,0.2,0.2,0.3C9.2,12.4,9.3,12.5,9.4,12.7C9.4,12.6,9.4,12.6,9.4,12.7z
		 M9.4,12.9C9.4,12.9,9.4,12.9,9.4,12.9L9.4,12.9c0-0.1,0-0.1,0-0.1c0-0.1,0.1-0.1,0.1-0.2c0-0.1,0.1-0.3,0.1-0.4c0-0.1,0-0.3,0-0.4
		c0-0.1,0-0.3,0.1-0.3c0,0,0.1,0,0.1,0c0,0,0.1,0,0.1,0c0,0,0.1,0,0.2,0c0.1,0,0.1-0.1,0.1-0.1c0-0.1,0-0.1,0-0.1l0-0.2
		c0-0.3,0.2-0.4,0.4-0.3c0.1,0,0.2,0.2,0.2,0.3c0,0.1,0,0.3-0.1,0.4c0,0.2-0.1,0.5-0.3,0.7c0,0,0-0.1,0-0.1c0-0.2,0-0.3,0.1-0.5
		c0-0.2,0-0.3-0.1-0.5c0,0,0,0,0,0c0,0,0,0,0,0l0,0c-0.1,0.2-0.1,0.3-0.1,0.4c0,0.1,0,0.1,0,0.2c0,0.1,0,0.1-0.1,0.2
		c-0.1,0.1-0.1,0.3-0.2,0.4c-0.1,0.1-0.1,0.2-0.2,0.4c0,0-0.1,0-0.1,0.1c0-0.1,0-0.2,0.1-0.3c0-0.1,0-0.1,0-0.2c0-0.1,0-0.1,0-0.2
		c0-0.1,0-0.2-0.1-0.3c0,0,0,0,0,0c0,0,0,0,0,0l0,0c-0.1,0.1-0.1,0.2,0,0.3c0,0.1,0,0.2,0,0.3c0,0.1-0.1,0.2-0.1,0.3
		c0,0.1-0.1,0.2-0.1,0.3l0,0c0,0,0,0,0,0C9.6,12.8,9.6,12.8,9.4,12.9C9.5,12.9,9.5,12.9,9.4,12.9z M7.7,13.1c0-0.1,0-0.2,0.1-0.2
		c0-0.1,0-0.1,0.1-0.1c0,0,0.2,0.1,0.2,0.2c0.1,0.1,0.1,0.3,0,0.5C8.1,13.7,8,13.9,8,14c0,0.1-0.1,0.2-0.1,0.4c0,0,0,0,0,0
		c0,0,0,0,0,0c0-0.1,0-0.2,0-0.2c0-0.2-0.1-0.3-0.1-0.5C7.7,13.4,7.7,13.3,7.7,13.1z M6.3,14.5C6.3,14.5,6.3,14.5,6.3,14.5
		C6.3,14.5,6.3,14.5,6.3,14.5z M7.4,14.5C7.4,14.5,7.4,14.5,7.4,14.5C7.4,14.5,7.4,14.5,7.4,14.5c-0.2,0-0.3,0.1-0.5,0.1
		c-0.1,0-0.3,0-0.4,0c-0.1,0-0.1-0.1-0.2-0.1c0,0,0,0,0,0c0,0,0,0,0,0c0.1,0,0.1,0,0.2,0c0.1,0,0.3,0,0.4,0
		C7.1,14.5,7.2,14.5,7.4,14.5z M6.5,9.2C6.4,9.1,6.3,9,6.2,8.9C6.1,8.8,6.1,8.7,6.1,8.6c0-0.1,0-0.1,0-0.2c0,0,0-0.1,0-0.1
		c0,0,0,0,0,0c0,0,0.1,0.1,0.1,0.1c0.1,0.1,0.1,0.2,0.1,0.4C6.5,9,6.5,9.1,6.5,9.2c0.1,0.1,0.1,0.1,0.2,0.2C6.5,9.3,6.5,9.3,6.5,9.2
		z M10,4.3c0.2,0,0.3-0.1,0.4-0.1c0.1,0,0.1-0.1,0.2-0.1c0,0,0,0,0.1,0c-0.1,0.1-0.2,0.2-0.3,0.3c-0.1,0.1-0.2,0.1-0.4,0.2
		C9.9,4.6,9.8,4.6,9.6,4.6c-0.1,0-0.1,0-0.2,0C9.6,4.5,9.8,4.4,10,4.3z M8.2,4.2C8.2,4.2,8.2,4.2,8.2,4.2C8.3,4.1,8.3,4.1,8.2,4.2z
		 M8.3,5.2c0-0.1-0.1-0.3-0.2-0.4c-0.1-0.1-0.1-0.3,0-0.4c0-0.1,0-0.1,0.1-0.2c0,0,0,0,0,0c0,0,0,0,0,0c0,0,0,0.1,0.1,0.2
		c0,0.1,0,0.3,0,0.4C8.4,4.9,8.3,5.1,8.3,5.2c0,0.1,0,0.1,0,0.1C8.4,5.2,8.3,5.2,8.3,5.2z M7.8,8.5C8,8.4,8.2,8.4,8.3,8.3
		c0.1,0,0.2-0.1,0.2-0.1c0,0,0.1,0,0.1,0C8.6,8.3,8.5,8.4,8.4,8.5C8.2,8.6,8.1,8.7,7.9,8.8C7.8,8.9,7.6,8.9,7.4,8.9
		c-0.1,0-0.1,0-0.2,0C7.4,8.8,7.6,8.6,7.8,8.5z"/>
	<path class="st0" d="M5.6,5.2c0.2-0.1,0-0.3-0.1-0.2C5.4,5,5.4,5.3,5.6,5.2z"/>
	<path class="st0" d="M6.4,4.9c0.2,0,0.1-0.2-0.1-0.2C6.3,4.8,6.1,4.9,6.4,4.9z"/>
	<path class="st0" d="M5.3,5.7c0.1-0.1-0.1-0.3-0.2-0.1C5,5.7,5.2,5.7,5.3,5.7z"/>
	<path class="st0" d="M6.9,5.7C7,5.8,7.1,5.7,7,5.6C6.9,5.5,6.8,5.7,6.9,5.7z"/>
	<path class="st0" d="M5,21.2C5,21.2,5,21.2,5,21.2C5,21.2,5,21.3,5,21.2c0.2,0.3,0.4,0.4,0.6,0.5c0.2,0.1,0.5,0.1,0.7,0.3
		c0.2,0.1,0.4,0.2,0.6,0.3c0.2,0.1,0.4,0.2,0.7,0.2l0,0c0,0,0,0,0,0c0,0,0,0,0-0.1c-0.1-0.2-0.3-0.4-0.5-0.5
		c-0.1-0.1-0.2-0.1-0.3-0.2c-0.1,0-0.2-0.1-0.4-0.1c-0.2-0.1-0.5-0.2-0.7-0.3C5.5,21.2,5.3,21.1,5,21.2z"/>
	<path class="st0" d="M12.7,28.2L12.7,28.2c-0.3,0-0.5-0.2-0.8-0.3c-0.1-0.1-0.2-0.2-0.4-0.3c-0.1-0.1-0.3-0.2-0.4-0.3
		c-0.2-0.2-0.4-0.5-0.5-0.7c-0.1-0.1-0.2-0.2-0.3-0.3c-0.1-0.1-0.1-0.3-0.2-0.4C10,25.5,9.9,25.3,9.8,25c0-0.1,0-0.2-0.1-0.3
		c0,0,0,0,0,0c0,0,0,0,0,0l0.1,0c0,0,0-0.1,0.1-0.1c0-0.1,0.1-0.1,0.1-0.2c0.1-0.1,0.1-0.2,0.2-0.3c0.1-0.2,0.2-0.5,0.2-0.7
		c0.1-0.2,0.1-0.5,0.1-0.7c0-0.2,0-0.5,0-0.7c-0.1-0.5-0.3-0.9-0.6-1.3l-0.7-1.2l0,0c0,0,0,0-0.1-0.1c-0.1,0-0.1,0-0.2,0.1
		c-0.1,0.3-0.1,0.5,0,0.7c0,0.2,0.1,0.5,0.1,0.7c0.1,0.4,0.3,0.9,0.4,1.3c0.1,0.2,0.1,0.4,0.2,0.6c0.1,0.2,0.1,0.4,0.1,0.6
		c0,0.2,0,0.4,0,0.7l0,0.3l0,0.2l0,0c-0.1-0.1-0.2-0.2-0.2-0.4c-0.1-0.3-0.3-0.6-0.4-0.8c-0.2-0.3-0.4-0.5-0.6-0.7
		c0,0,0-0.1,0.1-0.1c0,0,0,0,0-0.1c0,0,0,0,0,0c0-0.1,0.1-0.2,0.1-0.3c0.1-0.4,0.1-0.7,0-1.1c-0.1-0.7-0.4-1.3-0.6-2
		c-0.2-0.3-0.3-0.6-0.5-0.9c-0.1-0.2-0.2-0.3-0.3-0.4c-0.1-0.1-0.3-0.3-0.6-0.3c-0.1,0-0.1,0-0.2,0l-0.1,0c0,0,0,0-0.1,0l-0.1,0.1
		c0,0-0.1,0.1-0.1,0.1c-0.2,0.1-0.3,0.3-0.3,0.6c0,0.1,0,0.1,0,0.2c0,0-0.1,0-0.1,0c-0.2-0.1-0.3-0.2-0.4-0.3
		c-0.1-0.1-0.2-0.1-0.4-0.1c0-0.1-0.1-0.1-0.1-0.1c-0.1,0-0.2,0-0.2,0.1c0,0.1,0,0.2,0.1,0.2c0,0,0.1,0,0.1,0
		c0.1,0.1,0.2,0.2,0.3,0.2c0.2,0,0.3,0.1,0.4,0.2c0,0,0,0,0,0c-0.1,0-0.2,0-0.3,0c-0.2,0-0.3,0.2-0.4,0.3c-0.1,0.3-0.2,0.5-0.2,0.8
		c0,0,0,0.1,0,0.1c-0.1,0-0.2-0.1-0.3-0.1c-0.2,0-0.3-0.1-0.4-0.2c-0.1,0-0.2-0.1-0.3,0c0,0-0.1-0.1-0.1-0.1c-0.1,0-0.2,0-0.2,0.1
		c0,0.1,0,0.2,0.1,0.2c0,0,0.1,0,0.1,0C3.5,19.9,3.6,20,3.7,20c0.1,0,0.3,0,0.4,0.1c0.1,0,0.1,0.1,0.2,0.1c0,0,0.1,0,0.1,0.1
		c-0.1,0-0.3,0.1-0.3,0.2c-0.2,0.3-0.2,0.6-0.1,0.9c0,0.3,0.2,0.5,0.4,0.8c0.2,0.2,0.4,0.4,0.6,0.6c0.5,0.3,1,0.4,1.5,0.5
		c0.5,0,1.1-0.1,1.6-0.3c0.1,0,0.1-0.1,0.2-0.2c0,0,0,0,0.1-0.1c0,0,0,0,0,0c0.2,0.2,0.3,0.5,0.5,0.7c0.2,0.3,0.3,0.5,0.5,0.8
		c0.1,0.1,0.1,0.3,0.1,0.5c0,0.1,0.1,0.2,0.1,0.3c-0.1-0.1-0.3-0.2-0.4-0.2c0-0.1-0.1-0.1-0.1-0.2c-0.2-0.3-0.5-0.4-0.8-0.5
		c-0.3-0.1-0.6-0.1-0.9,0c-0.3,0.1-0.6,0.2-0.8,0.4c-0.1,0.1-0.2,0.2-0.3,0.4C6.1,25,6,25.1,5.9,25.3c0,0,0,0.1,0,0.1c0,0,0,0,0,0
		c0,0,0,0,0,0l0,0c0,0,0,0,0.1,0c0,0,0.1,0,0.1,0l0.2,0.1c0.1,0,0.3,0.1,0.4,0.1c0.3,0,0.6,0,0.9,0c0.3,0,0.6-0.1,0.9-0.2
		c0.1,0,0.1-0.1,0.2-0.1c0.1,0,0.1-0.1,0.2-0.2c0,0,0.1,0,0.1,0c0.1,0,0.1,0,0.2,0.1c0.1,0.1,0.3,0.1,0.4,0.2
		c0.1,0.1,0.1,0.3,0.2,0.4c0.1,0.1,0.2,0.3,0.3,0.4c0,0.1,0.1,0.2,0.1,0.2c0,0.1,0.1,0.1,0.1,0.2c0.2,0.2,0.4,0.5,0.6,0.7
		c0.1,0.1,0.2,0.2,0.3,0.4c0.1,0.1,0.2,0.2,0.4,0.3c0.1,0,0.1,0.1,0.2,0.1c0.1,0,0.2,0.1,0.2,0.1c0.2,0,0.4,0,0.5,0
		C12.7,28.4,12.8,28.3,12.7,28.2C12.8,28.2,12.7,28.2,12.7,28.2z M8.4,21.6c0-0.1-0.1-0.2-0.1-0.2C8.1,21,8,20.7,7.9,20.4
		c-0.1-0.3-0.3-0.6-0.5-0.9c-0.1-0.3-0.4-0.6-0.7-0.8c0,0-0.1,0-0.1,0c-0.1,0-0.1,0.1-0.1,0.1l0,0c0.1,0.3,0.3,0.6,0.5,0.9
		c0.2,0.3,0.3,0.6,0.5,0.8C7.8,20.8,8,21.1,8,21.4c0.1,0.3,0.1,0.6,0.3,0.9l0,0c0,0,0,0,0,0.1c0,0,0,0,0,0c0,0,0,0,0-0.1
		c0-0.1-0.1-0.2-0.1-0.2C8,22,7.9,21.8,7.8,21.7c-0.3-0.2-0.4-0.5-0.7-0.8c-0.2-0.2-0.5-0.4-0.7-0.7c-0.2-0.2-0.5-0.4-0.9-0.5
		c0,0-0.1,0-0.1,0c0,0-0.1,0.1,0,0.2l0,0c0.2,0.3,0.4,0.5,0.7,0.6c0.3,0.2,0.5,0.4,0.8,0.6c0.2,0.2,0.5,0.4,0.7,0.7
		c0.1,0.3,0.3,0.5,0.5,0.8c0,0-0.1,0.1-0.1,0.1C7.5,23,7,23,6.5,22.9c-0.5-0.1-0.9-0.3-1.4-0.5c-0.2-0.1-0.4-0.2-0.6-0.4
		c-0.2-0.2-0.3-0.4-0.3-0.6c0-0.2,0-0.5,0.1-0.6c0.1-0.1,0.1-0.1,0.2-0.1c0.1,0,0.2,0,0.3,0c0,0,0.1,0,0.1,0c0.1,0,0.1-0.1,0.1-0.2
		l0,0c-0.1-0.2-0.2-0.5-0.2-0.7c0-0.2-0.1-0.5,0.1-0.7C5,18.9,5,18.8,5.1,18.8c0.1,0,0.2,0,0.3,0c0.2,0.1,0.4,0.2,0.6,0.4
		c0.1,0,0.1,0,0.2,0c0.1-0.1,0.1-0.2,0-0.2l0,0C6.1,18.7,6,18.4,6,18.2c0-0.1,0.1-0.2,0.2-0.3c0,0,0.1,0,0.1-0.1l0.1,0l0,0
		c0,0,0,0,0,0c0,0,0,0,0.1,0c0.1,0,0.2,0.1,0.3,0.2C7,18,7.1,18.1,7.2,18.2c0.2,0.2,0.4,0.5,0.5,0.8C8,19.7,8.2,20.3,8.3,21
		C8.3,21.2,8.4,21.4,8.4,21.6C8.4,21.6,8.4,21.6,8.4,21.6z M8.4,25.2c-0.2,0.1-0.5,0.1-0.8,0.1c-0.3,0-0.5,0-0.8,0
		c-0.1,0-0.3,0-0.4,0c-0.1,0-0.1,0-0.2,0c0,0,0,0-0.1,0c0.1-0.1,0.1-0.2,0.2-0.2c0.1-0.1,0.2-0.2,0.3-0.3c0.2-0.2,0.4-0.3,0.6-0.4
		c0.4-0.2,1,0,1.3,0.4c-0.3,0-0.5,0-0.8-0.1c-0.3,0-0.6,0-0.8,0.2c0,0,0,0,0,0c0,0,0,0.1,0,0.1l0,0C7.3,25,7.5,25,7.8,25
		c0.3,0,0.5,0,0.8,0c0,0,0.1,0,0.1,0C8.6,25.1,8.5,25.1,8.4,25.2z"/>
	<path class="st0" d="M7,32.8c0.1-0.1,0-0.2-0.1-0.1C6.8,32.6,6.9,32.8,7,32.8z"/>
	<path class="st0" d="M7.5,32.6c0.1,0,0-0.2-0.1-0.2C7.3,32.5,7.4,32.7,7.5,32.6z"/>
	<path class="st0" d="M8.2,32.9c0.1-0.1-0.1-0.2-0.1-0.1C8,32.8,8.1,33,8.2,32.9z"/>
	<path class="st0" d="M6,33.2c-0.2,0-0.2,0.3,0,0.3S6.2,33.2,6,33.2z"/>
	<path class="st0" d="M12.5,47.7l-0.2-0.5c-0.1-0.4-0.2-0.7-0.3-1.1c-0.1-0.4-0.3-0.7-0.5-1c-0.1-0.2-0.2-0.3-0.3-0.5
		c-0.1-0.1-0.1-0.2-0.2-0.2c0,0,0-0.1,0-0.1c0.2,0.1,0.3,0.2,0.5,0.4c0.2,0.2,0.4,0.4,0.5,0.6l0,0c0,0,0,0,0.1,0c0,0,0,0,0-0.1
		c-0.2-0.5-0.7-0.9-1.2-1.3c0,0,0,0-0.1,0c-0.3-0.9-0.5-1.8-0.5-2.7c-0.1-0.6-0.1-1.1,0.1-1.7c0.1-0.6,0.3-1.1,0.3-1.7
		c0-0.3,0.1-0.6,0.2-0.9c0-0.3,0-0.6,0.1-0.9c0-0.3,0-0.6,0-0.9c-0.1-0.3-0.2-0.6-0.3-0.9c0,0,0,0,0-0.1c0-0.3,0-0.5-0.1-0.7
		c0-0.1,0-0.3,0-0.4c0-0.1,0-0.1-0.1-0.2c0,0,0,0,0,0c0,0,0.1,0,0.1,0c0.2,0,0.3-0.1,0.4-0.3c0.2-0.3,0.2-0.6,0.2-0.9l0-0.5
		c0-0.1,0-0.2,0-0.2l-0.1-0.2c0-0.1,0-0.3,0-0.4c0-0.1,0-0.1,0-0.2l0-0.1l0-0.1l0,0l0,0l0,0c0,0,0-0.1,0-0.1c0,0,0,0-0.1,0l0,0l0,0
		l0,0l-0.1,0c0,0-0.1,0-0.1,0c-0.1,0-0.1,0.1-0.2,0.1c-0.1,0.1-0.3,0.2-0.4,0.3c-0.2,0.2-0.4,0.5-0.6,0.7c-0.1,0.1-0.1,0.3-0.2,0.4
		c0,0.2,0,0.3,0,0.5c0.1,0.3,0.2,0.7,0.5,0.8c0.1,0,0.1,0.1,0.2,0.1c0,0,0,0,0,0c0,0.1,0,0.2,0,0.2c0,0.2,0.1,0.3,0.1,0.4
		c0,0,0,0.1,0,0.1c-0.4-0.8-1-1.6-1.7-2.2C8.8,31.2,9,31,9.2,30.8c0.2-0.3,0.4-0.6,0.4-0.9c0.1-0.3,0.1-0.6,0.2-0.9c0-0.3,0-0.6,0-1
		c0-0.2-0.1-0.3-0.2-0.5c-0.1-0.2-0.1-0.3-0.2-0.5c-0.1-0.2-0.1-0.3-0.3-0.4c-0.1-0.1-0.1-0.1-0.2-0.2c-0.1,0-0.2-0.1-0.3-0.1
		c-0.1,0-0.2,0.1-0.2,0.1c-0.1,0-0.2-0.1-0.2-0.1c-0.1,0-0.3,0-0.4,0c-0.1,0-0.3,0.1-0.4,0.1c-0.1,0.1-0.2,0.1-0.3,0.2
		c-0.2-0.1-0.4-0.1-0.7-0.1c-0.2,0-0.5,0-0.7,0.1c-0.2,0.2-0.4,0.3-0.6,0.5c-0.1,0.2-0.2,0.4-0.2,0.6c-0.3,0-0.5,0.1-0.7,0.3
		C4,28.3,4,28.4,3.9,28.5c-0.1,0.1-0.1,0.2-0.2,0.4c-0.1,0.2-0.1,0.5-0.1,0.8c0,0.2,0,0.5,0.1,0.7c0,0.1,0,0.2,0,0.2
		c0,0.2,0,0.4,0.1,0.6c0.1,0.2,0.2,0.3,0.4,0.4c0.1,0.1,0.3,0.2,0.5,0.2c0.3,0.1,0.7,0.2,1,0.2L6.1,32c0.2,0,0.3,0,0.5,0.1
		c0.3,0,0.7-0.1,1-0.1c0.2,0,0.3-0.1,0.5-0.2c0.1,0,0.2-0.1,0.2-0.1c0,0,0.1-0.1,0.2-0.1c0.4,0.4,0.7,0.9,1,1.3
		c0.3,0.5,0.7,0.9,0.9,1.5c0.1,0.1,0.1,0.3,0.1,0.5c-0.2-0.2-0.4-0.3-0.6-0.4c-0.2-0.1-0.4-0.2-0.6-0.3c0,0-0.1,0-0.1,0
		c-0.1-0.1-0.2-0.2-0.4-0.3c0,0-0.1-0.1-0.1-0.1c0,0,0-0.1,0-0.1c0-0.1-0.1-0.2-0.1-0.2c0-0.1-0.1-0.1-0.1-0.2
		c0-0.1-0.1-0.1-0.2-0.1c0,0,0,0,0,0c0,0,0,0,0,0l0,0c0,0.1,0,0.2,0.1,0.2c0.1,0,0.1,0.1,0.1,0.2c0,0.1,0,0.1,0,0.2
		c-0.1,0-0.2-0.1-0.3-0.1l-0.1,0c0,0-0.1-0.1-0.1-0.1c0-0.1-0.1-0.1-0.2-0.2C7.7,33,7.7,33,7.6,32.9c0-0.1-0.1-0.1-0.2-0.2
		c0,0,0,0,0,0c0,0,0,0,0,0c0,0.1,0,0.2,0.1,0.3c0.1,0.1,0.1,0.1,0.1,0.2c0,0,0,0.1,0.1,0.1c-0.1,0-0.1-0.1-0.2-0.1
		c-0.2-0.1-0.3-0.2-0.4-0.4l0,0c0,0,0,0,0,0c0,0,0,0,0,0c0,0.3,0.2,0.5,0.4,0.6c0.1,0.1,0.2,0.1,0.3,0.1c0.1,0,0.2,0.1,0.3,0.1
		c0.2,0.1,0.4,0.2,0.6,0.3L8.8,34c0,0-0.1,0-0.2,0c-0.2,0-0.4,0-0.6,0c-0.1,0-0.2,0-0.3,0c-0.1,0-0.2,0-0.3,0
		c-0.2,0-0.4-0.1-0.6-0.2c-0.2-0.1-0.4-0.2-0.5-0.3l0,0c0,0,0,0-0.1,0c0,0,0,0,0,0.1c0.1,0.2,0.3,0.3,0.5,0.4
		c0.2,0.1,0.4,0.1,0.6,0.1c0.1,0,0.2,0.1,0.3,0.1c0.1,0,0.2,0,0.3,0c0.2,0,0.4,0,0.6-0.1c0.1,0,0.2,0,0.3,0c0,0,0.1,0,0.1,0.1
		c0,0,0.1,0,0.1,0c0.2,0,0.4,0.1,0.6,0.2c0.2,0.1,0.3,0.3,0.5,0.4c0.1,0.1,0.2,0.2,0.3,0.3c0,0,0,0,0,0l0,0.4c0,0.1,0,0.3,0,0.4
		c0,0.3,0,0.6,0,0.9c0,0.3,0,0.6-0.1,0.9c-0.2,0.5-0.2,1.1-0.3,1.7l0,0.1c-0.1-0.4-0.2-0.8-0.4-1.2c-0.3-0.8-0.7-1.6-1.3-2.2
		c-0.6-0.6-1.4-1-2.2-1.4c-0.4-0.2-0.8-0.3-1.2-0.5c-0.4-0.2-0.8-0.4-1.1-0.6c0,0,0,0-0.1,0c-0.1,0-0.1,0.1-0.1,0.1l0,0
		c0.1,0.4,0.4,0.7,0.6,1c0.3,0.3,0.6,0.6,0.8,0.8c0.6,0.6,1.3,0.9,1.9,1.4c0.3,0.2,0.6,0.5,0.9,0.8c0.3,0.3,0.5,0.6,0.7,0.9
		c0.2,0.3,0.4,0.6,0.6,1c0.1,0.2,0.2,0.3,0.3,0.5l0.1,0.3l0.1,0.1c0,0.2,0,0.4,0,0.5c0.1,0.8,0.3,1.7,0.6,2.4
		c-0.4-0.2-0.8-0.4-1.2-0.5c-0.5-0.2-1-0.4-1.5-0.7c-0.4-0.3-0.8-0.6-1.1-1.1l0,0l0,0C7,41.2,7.1,41,7.1,40.9c0-0.2,0.1-0.3,0.1-0.5
		c0-0.2,0-0.3,0-0.5c0-0.2-0.1-0.3-0.1-0.5c0-0.3-0.1-0.6-0.2-1c0-0.2-0.1-0.3-0.2-0.5c0-0.1-0.1-0.1-0.1-0.2
		c-0.1-0.1-0.1-0.1-0.2-0.1c-0.1,0-0.2,0.1-0.2,0.2c0,0.1-0.1,0.2-0.1,0.2C6,38.2,6,38.3,6,38.5c0-0.1-0.1-0.1-0.1-0.2
		c-0.1-0.1-0.2-0.3-0.4-0.4c-0.1-0.1-0.2-0.1-0.3-0.1c-0.1,0-0.1,0-0.2,0.1C5,37.9,5,38,5,38c0,0.2,0.1,0.4,0.1,0.5
		c0.1,0.1,0.1,0.3,0.2,0.4c-0.1-0.1-0.1-0.1-0.2-0.2c-0.1-0.2-0.3-0.3-0.5-0.5c-0.1,0-0.1-0.1-0.2-0.1c0,0-0.1,0-0.1,0
		c0,0-0.1,0-0.1,0c-0.1,0-0.1,0.1-0.1,0.1c0,0,0,0.1,0,0.1c0,0.1,0,0.1,0,0.2c0.1,0.3,0.2,0.6,0.5,0.9c-0.1,0-0.3-0.1-0.4-0.1
		c-0.1,0-0.2,0-0.2,0c-0.1,0-0.2,0-0.2,0.1c0,0.1,0,0.2,0,0.3c0,0.1,0.1,0.2,0.1,0.2c0.1,0.1,0.2,0.3,0.3,0.4
		c0.2,0.2,0.5,0.3,0.8,0.4c0.3,0.1,0.6,0.2,0.8,0.3c0.1,0.1,0.3,0.1,0.5,0.1l0.2,0c0,0,0.1,0,0.1,0c0,0,0.1,0,0.2,0c0,0,0,0,0,0
		C6.8,41.6,7,41.8,7.1,42c0.1,0.1,0.2,0.2,0.3,0.3c-0.1,0-0.2,0-0.4-0.1c-0.3,0-0.5,0-0.8,0c-0.1,0-0.3,0.1-0.4,0.1
		c-0.1,0-0.1,0.1-0.2,0.1c0,0-0.1,0.1-0.1,0.2c0,0.2,0.2,0.3,0.3,0.3c0.1,0.1,0.2,0.1,0.4,0.2c0.3,0.1,0.5,0.1,0.8,0.1
		c0.3,0,0.5,0,0.8-0.1c0.2-0.1,0.4-0.1,0.6-0.3c0,0,0.1,0,0.1,0c0.2,0.1,0.5,0.2,0.7,0.3c0.3,0.1,0.5,0.2,0.8,0.3
		c0.2,0.1,0.4,0.2,0.6,0.3c0,0,0,0,0,0.1c0,0,0,0-0.1,0c-0.1,0-0.1,0-0.2,0c-0.1,0-0.2,0-0.3,0.1c0,0-0.1,0-0.1,0
		C9.9,44,9.6,44,9.4,44c-0.1,0-0.3,0-0.4,0C9,44,8.9,44,8.8,44l-0.2,0l-0.4,0.1c-0.1,0-0.3,0.1-0.4,0.1c-0.1,0-0.1,0-0.2,0.1
		c-0.1,0-0.1,0.1-0.2,0.1c-0.1,0.1-0.2,0.1-0.3,0.2C7,44.8,6.8,45,6.6,45.2c-0.1,0.1-0.2,0.2-0.2,0.3c0,0,0,0,0,0
		c-0.2,0-0.4,0-0.7,0.1c-0.1,0.1-0.2,0.1-0.3,0.2c-0.1,0.1-0.2,0.2-0.2,0.3c-0.1,0.1-0.2,0.2-0.3,0.3c0,0-0.1,0.1-0.1,0.1
		c0,0-0.1,0-0.1,0c-0.1,0-0.1,0-0.2,0c-0.1,0-0.1,0.1-0.2,0.1c-0.1,0-0.3,0-0.4,0.1c-0.3,0-0.5,0.2-0.7,0.3
		c-0.1,0.1-0.2,0.2-0.3,0.3c-0.1,0.1-0.1,0.3-0.1,0.4c-0.1,0.2-0.2,0.5-0.2,0.7c0,0.2,0,0.5,0,0.7c-0.1,0-0.2,0.1-0.3,0.2
		c0,0-0.1,0.1-0.1,0.1c0,0-0.1,0.1-0.1,0.2c-0.1,0.1,0,0.3,0,0.4c0,0.1,0.1,0.2,0.1,0.3c0.1,0.2,0.3,0.4,0.4,0.5
		c0.6,0.7,1.3,1.1,2,1.6c1.5,0.9,3.2,1.6,4.9,1.3c0.1,0,0.1,0,0.2-0.1c0.1,0,0.1-0.1,0.2-0.1c0,0,0,0,0,0c0.3-0.1,0.7-0.2,1-0.3
		c0.2-0.1,0.3-0.2,0.5-0.3c0.1-0.1,0.1-0.1,0.2-0.2l0.1-0.1l0.1-0.1c0.3-0.3,0.5-0.6,0.6-1c0.1-0.4,0.2-0.7,0.2-1.1
		c0.1-0.7,0.1-1.5,0-2.3C12.6,48,12.6,47.9,12.5,47.7z M3.8,29.6c0-0.2,0-0.5,0.1-0.7c0-0.1,0.1-0.2,0.1-0.3
		c0.1-0.1,0.2-0.2,0.3-0.2c0.1-0.1,0.2-0.1,0.3-0.1c0,0,0.1,0,0.1-0.1c0,0,0.1,0,0.1,0l0,0c0,0,0,0,0,0c0.1,0,0.1,0,0.1-0.1
		c0-0.2,0.1-0.4,0.2-0.6C5.3,27.2,5.5,27,5.7,27c0.2-0.1,0.4-0.1,0.7-0.2c0.2,0,0.5,0,0.7,0.1c0,0,0.1,0,0.1,0l0,0
		c0.1-0.1,0.2-0.1,0.3-0.2c0.1-0.1,0.2-0.1,0.3-0.1c0.1,0,0.2,0,0.4,0c0,0,0.1,0,0.1,0c-0.2,0.2-0.3,0.4-0.3,0.6c0,0.2,0,0.3,0,0.5
		c0,0.1,0,0.2,0,0.3c0,0,0,0,0,0c0,0,0,0,0,0c-0.1-0.2-0.4-0.3-0.6-0.3c-0.2,0-0.4,0.1-0.6,0.2c-0.2,0.1-0.4,0.3-0.5,0.4
		c-0.1,0.1-0.1,0.2-0.1,0.3c0,0.1-0.1,0.1-0.1,0.2c-0.2,0-0.3,0-0.5,0c-0.1,0-0.2,0-0.3,0C5.3,29,5.2,29,5.1,29
		c-0.2,0.1-0.4,0.2-0.5,0.3c-0.1,0.1-0.2,0.2-0.2,0.4c-0.2,0-0.3,0.1-0.4,0.2c0,0-0.1,0.1-0.1,0.1C3.8,29.9,3.8,29.7,3.8,29.6z
		 M7.1,29.7C7.1,29.7,7,29.7,7.1,29.7c-0.3,0-0.4,0-0.6,0c-0.2,0-0.3,0.1-0.5,0.2C6,29.9,5.9,30,5.8,30.1C5.5,30,5.3,29.9,5,29.8
		c-0.2,0-0.3-0.1-0.5-0.1c0-0.1,0.1-0.2,0.2-0.3c0.1-0.1,0.3-0.3,0.4-0.3c0.1,0,0.2,0,0.3,0c0.1,0,0.2,0,0.3,0c0.2,0,0.4,0,0.6,0
		l0,0c0,0,0.1,0,0.1-0.1c0-0.1,0-0.2,0.1-0.3c0-0.1,0.1-0.2,0.2-0.2c0.1-0.2,0.2-0.3,0.3-0.4C7.1,28,7.3,28,7.4,28
		c0.1,0,0.3,0,0.4,0.1c-0.1,0-0.2,0-0.3,0.1c-0.1,0-0.2,0.1-0.2,0.2c-0.1,0.1-0.1,0.2-0.2,0.3c-0.1,0.2-0.1,0.4-0.1,0.6
		C7.1,29.4,7.1,29.5,7.1,29.7z M8.4,31.4c-0.1-0.1-0.2-0.2-0.3-0.3c-0.2-0.1-0.3-0.2-0.4-0.2c-0.1-0.1-0.3-0.1-0.4-0.2
		c-0.1-0.1-0.3-0.1-0.5-0.1c0,0,0,0-0.1,0c0,0,0,0.1,0,0.1c0.1,0.1,0.3,0.2,0.4,0.2c0.2,0.1,0.3,0.1,0.4,0.2
		c0.1,0.1,0.3,0.1,0.4,0.2c0.1,0.1,0.1,0.1,0.2,0.2c-0.1,0-0.1,0-0.2,0c-0.1,0-0.1,0-0.2,0c-0.2,0-0.4,0-0.6,0
		c-0.2,0-0.5-0.1-0.7-0.2c-0.2-0.1-0.5-0.1-0.7-0.3c-0.2-0.1-0.4-0.2-0.7-0.3l0,0c0,0,0,0-0.1,0c0,0,0,0.1,0,0.1
		c0.2,0.2,0.4,0.3,0.7,0.4c0.2,0.1,0.5,0.2,0.7,0.2c0.2,0,0.4,0.1,0.6,0.1c-0.2,0-0.4,0-0.5,0c-0.6,0.1-1.3,0-1.9-0.3
		c-0.3-0.1-0.5-0.3-0.7-0.5c-0.1-0.1-0.1-0.3-0.1-0.4c0-0.1,0.1-0.3,0.2-0.3c0.2-0.1,0.5-0.1,0.8,0c0.3,0.1,0.6,0.3,0.9,0.4l0.1,0
		c0,0,0,0,0,0c0.1,0,0.2-0.1,0.2-0.1c0,0,0-0.1,0.1-0.2c0-0.1,0.1-0.1,0.1-0.2c0.1-0.1,0.2-0.2,0.4-0.2c0.1,0,0.3,0,0.4,0
		c0.1,0,0.3,0.1,0.4,0.1c0.2,0.1,0.4,0.4,0.6,0.6c0.1,0.1,0.2,0.3,0.2,0.4l0.1,0.2L8.4,31.4L8.4,31.4C8.4,31.4,8.4,31.4,8.4,31.4
		C8.4,31.4,8.4,31.4,8.4,31.4z M7.9,29c0,0.2,0.1,0.4,0.2,0.5c0.1,0.2,0.2,0.4,0.2,0.5c0.1,0.2,0.2,0.4,0.1,0.6c0,0.2,0,0.4,0,0.5
		l0-0.1c0-0.1-0.1-0.1-0.1-0.2c-0.1-0.1-0.1-0.3-0.2-0.4C8,30.2,7.8,30,7.5,29.8c-0.1,0-0.2-0.1-0.2-0.1c0-0.2,0-0.3,0-0.5
		c0-0.2,0-0.3,0.1-0.5c0-0.1,0.1-0.1,0.1-0.2c0.1-0.1,0.1-0.1,0.2-0.2c0.1-0.1,0.3-0.1,0.4-0.1l0,0c0,0,0,0,0,0
		c0.1,0,0.1-0.1,0.1-0.1c0-0.1,0-0.3,0-0.4c0-0.1,0.1-0.3,0.1-0.4c0-0.1,0.1-0.3,0.1-0.4c0.1-0.1,0.2-0.2,0.3-0.2
		c0.1,0,0.2,0,0.3,0.1c0.1,0.1,0.2,0.2,0.3,0.3c0.1,0.1,0.1,0.3,0.2,0.4c0,0.1,0,0.3,0,0.4c0.1,0.6,0.1,1.2-0.1,1.8
		C9.2,30,9.1,30.2,9,30.4c0,0,0,0,0,0c0-0.3,0.1-0.5,0.1-0.8c0-0.3,0-0.5,0-0.8c0-0.3,0-0.5-0.2-0.8c0,0,0,0-0.1,0
		c0,0-0.1,0-0.1,0.1l0,0c0,0.3,0,0.5,0,0.8c0,0.2,0,0.5,0.1,0.7c0,0.2,0,0.5,0,0.7c-0.1,0.2-0.1,0.4-0.1,0.6c0,0,0,0,0,0.1
		c0-0.1,0-0.2,0-0.3c-0.1-0.2-0.1-0.4-0.1-0.6c0-0.2-0.1-0.4-0.2-0.6c-0.1-0.2-0.2-0.4-0.3-0.5C8,28.9,8,28.9,7.9,29
		C7.9,28.9,7.9,29,7.9,29L7.9,29z M10.3,31.1c0,0.2,0,0.3,0,0.5c0,0.1,0,0.1-0.1,0.2c0,0.1,0,0.2,0,0.2c0,0.2,0,0.3,0,0.5
		c0,0,0,0,0,0c0,0-0.1,0-0.1-0.1c-0.2-0.2-0.3-0.4-0.3-0.7c0-0.1,0-0.3,0-0.4c0-0.1,0-0.3,0.1-0.4c0.1-0.3,0.3-0.5,0.5-0.7
		c0.1-0.1,0.2-0.2,0.4-0.3c0.1,0,0.1-0.1,0.2-0.1l0,0l0,0.1c0,0.1-0.1,0.1-0.1,0.2c0,0.2-0.1,0.3,0,0.5c0,0.2,0,0.3,0.1,0.4
		c0,0.1,0.1,0.3,0,0.4c0,0.3-0.1,0.6-0.2,0.8c-0.1,0.1-0.1,0.2-0.3,0.3c0,0-0.1,0-0.1,0c0,0,0,0,0-0.1c0-0.1,0-0.3,0-0.4
		c0-0.1,0-0.1,0-0.2c0-0.1,0-0.2,0-0.2c0-0.1,0-0.3,0.1-0.4c0-0.1,0-0.3,0-0.4l0,0c0,0,0,0,0,0c0,0-0.1,0-0.1,0
		C10.3,30.8,10.3,31,10.3,31.1z M5,34.4c0.4,0.2,0.7,0.4,1.1,0.6c0.8,0.3,1.5,0.7,2.1,1.3c0.6,0.6,0.9,1.4,1.2,2.1
		c0,0,0,0.1,0.1,0.1c0,0,0-0.1-0.1-0.1C9.4,38,9.2,37.6,9,37.2c-0.1-0.2-0.3-0.3-0.4-0.5c-0.1-0.2-0.3-0.3-0.4-0.5
		c-0.3-0.3-0.6-0.5-1-0.7c-0.2-0.1-0.4-0.2-0.6-0.3c-0.2-0.1-0.4-0.1-0.6-0.2C5.7,34.9,5.3,34.6,5,34.4c-0.2,0-0.3-0.1-0.3-0.2
		C4.8,34.3,4.9,34.3,5,34.4z M9.5,39.1c-0.1-0.3-0.3-0.5-0.5-0.8C9,38.2,8.9,38.1,8.9,38C9,38.1,9,38.2,9.1,38.3
		c0.1,0.2,0.2,0.3,0.3,0.5C9.5,39,9.5,39,9.5,39.1z M4.3,34.2c0.2,0.1,0.4,0.3,0.6,0.4c0.3,0.2,0.7,0.4,1.1,0.6
		c0.2,0.1,0.3,0.2,0.5,0.3c0.2,0.1,0.4,0.2,0.5,0.3c0.4,0.2,0.7,0.4,1,0.7c0.2,0.1,0.3,0.3,0.4,0.4c0.1,0.2,0.2,0.3,0.3,0.5
		c0,0,0.1,0.1,0.1,0.1c-0.2-0.3-0.5-0.6-0.8-0.8c-0.2-0.1-0.4-0.2-0.5-0.4C7.4,36.2,7.2,36,7,35.9c-0.4-0.2-0.7-0.4-1.1-0.6
		c-0.4-0.2-0.7-0.5-1.1-0.7C4.7,34.5,4.5,34.3,4.3,34.2z M8.6,37.5c0-0.1-0.1-0.1-0.1-0.2c-0.3-0.3-0.6-0.5-0.9-0.7
		c-0.2-0.1-0.3-0.2-0.5-0.3c-0.1-0.1-0.3-0.2-0.4-0.3c-0.3-0.2-0.6-0.4-0.9-0.6c-0.1-0.1-0.2-0.2-0.4-0.3c0.1,0.1,0.3,0.1,0.4,0.2
		c0.4,0.2,0.7,0.5,1.1,0.7c0.1,0.1,0.2,0.1,0.3,0.2c0.1,0.1,0.2,0.1,0.3,0.2c0.2,0.1,0.3,0.3,0.5,0.4C8.2,37.1,8.4,37.3,8.6,37.5z
		 M9.6,39.7c-0.2-0.3-0.4-0.7-0.6-1c-0.2-0.3-0.5-0.6-0.8-0.9c-0.3-0.3-0.6-0.5-0.9-0.8c-0.6-0.5-1.2-1-1.8-1.5
		c-0.1-0.1-0.1-0.1-0.2-0.2c0.1,0.1,0.3,0.2,0.4,0.3l0.9,0.6c0.1,0.1,0.3,0.2,0.5,0.3c0.2,0.1,0.3,0.2,0.4,0.3
		c0.3,0.2,0.6,0.4,0.8,0.7c0.1,0.1,0.2,0.3,0.3,0.4c0.1,0.1,0.2,0.3,0.3,0.4c0.2,0.3,0.3,0.6,0.5,0.9c0.1,0.2,0.2,0.4,0.4,0.7
		C9.7,39.9,9.7,39.8,9.6,39.7z M5.2,38.5c0-0.2-0.1-0.3-0.1-0.5c0-0.1,0-0.1,0.1-0.1c0,0,0.1,0,0.1,0.1c0.1,0.1,0.2,0.2,0.3,0.4
		C5.8,38.7,6,39,6.1,39.3c0,0.1,0,0.1,0,0.2c0,0.3,0.1,0.6,0.2,1c0,0,0,0.1,0,0.1c0,0,0-0.1-0.1-0.1C6.2,40.2,6,40,5.9,39.9l0,0
		c-0.1-0.3-0.3-0.6-0.4-0.8C5.4,38.9,5.3,38.7,5.2,38.5z M4.5,39.2c-0.1-0.2-0.2-0.4-0.3-0.6c0,0,0-0.1,0-0.1c0,0,0-0.1,0,0
		c0,0,0,0,0,0c0,0,0,0,0.1,0c0,0,0.1,0,0.1,0c0.2,0.1,0.3,0.2,0.5,0.4C5,39,5.1,39.1,5.2,39.2c0.1,0.1,0.1,0.2,0.2,0.3
		c0.1,0.2,0.3,0.3,0.4,0.5c0.1,0.1,0.1,0.2,0.2,0.3c0,0-0.1,0-0.1-0.1c-0.1-0.1-0.3-0.1-0.4-0.2c-0.2-0.1-0.4-0.2-0.6-0.3
		C4.8,39.6,4.6,39.4,4.5,39.2z M6.5,41.2c-0.1,0-0.1,0-0.2,0C6.1,41.1,6,41,5.8,41c-0.3-0.1-0.6-0.2-0.9-0.3
		c-0.3-0.1-0.5-0.3-0.7-0.5C4.1,40.2,4,40.1,3.9,40c-0.1-0.1-0.2-0.2-0.1-0.3c0,0,0.1-0.1,0.1-0.1c0.1,0,0.1,0,0.2,0
		c0.1,0,0.3,0.1,0.4,0.1c0.3,0.1,0.6,0.2,0.8,0.4c0.1,0.1,0.2,0.2,0.3,0.3c0.1,0.1,0.2,0.2,0.3,0.3c0.1,0.1,0.2,0.2,0.3,0.3
		C6.4,41.1,6.5,41.1,6.5,41.2L6.5,41.2C6.5,41.2,6.5,41.2,6.5,41.2z M6.7,41.1c0-0.1-0.1-0.1-0.1-0.2c0-0.2,0-0.3-0.1-0.5
		c-0.1-0.3-0.2-0.6-0.2-0.9c-0.1-0.3,0-0.6-0.1-0.9c0-0.2,0-0.3,0-0.5c0-0.1,0.1-0.3,0.2-0.3c0,0,0.1,0,0.1,0.1
		c0,0.1,0.1,0.1,0.1,0.2c0.1,0.1,0.1,0.3,0.1,0.4C6.9,38.8,7,39.1,7,39.4c0,0.2,0,0.3,0,0.5c0,0.2,0,0.3,0,0.5c0,0.2,0,0.3-0.1,0.5
		C6.9,40.9,6.8,41.1,6.7,41.1C6.7,41.1,6.7,41.1,6.7,41.1z M7.8,43.2c-0.2,0.1-0.5,0.1-0.7,0.1c-0.3,0-0.5-0.1-0.7-0.1
		c-0.1,0-0.2-0.1-0.3-0.1c-0.1-0.1-0.2-0.1-0.2-0.2c0,0,0-0.1,0.1-0.1c0,0,0.1,0,0.2-0.1c0.1,0,0.2,0,0.3-0.1c0.2,0,0.5,0,0.7,0
		c0.2,0,0.5,0.1,0.7,0.1c-0.1,0-0.2,0-0.3,0c-0.2,0-0.5,0-0.7,0c-0.2,0-0.5,0-0.7,0.1c0,0,0,0,0,0.1c0,0,0,0.1,0.1,0.1l0,0
		c0.2,0,0.5,0,0.7,0c0.2,0,0.5,0,0.7,0c0.2,0,0.5,0,0.7,0.1c0,0,0,0,0,0C8.1,43.1,8,43.1,7.8,43.2z M11.8,46.2
		c0.1,0.1,0.1,0.2,0.2,0.4c-0.2,0.5-0.4,1-0.6,1.5c-0.2,0.6-0.4,1.1-0.5,1.7c-0.2,0.6-0.3,1.2-0.5,1.7c-0.1,0.2-0.1,0.5-0.2,0.7
		c0.1-0.5,0.2-1,0.2-1.5c0.1-0.6,0.2-1.2,0.4-1.8c0.1-0.6,0.3-1.2,0.4-1.8c0.1-0.5,0.2-1,0.3-1.5C11.6,45.7,11.7,45.9,11.8,46.2z
		 M8.8,44.3c0.1,0,0.2,0,0.2,0c0.1,0,0.2,0,0.4,0c0.1,0,0.2,0,0.3,0c0,0-0.1,0.1-0.1,0.1c-0.3,0.3-0.5,0.6-0.7,0.9
		c-0.1,0.2-0.2,0.3-0.3,0.5c-0.2,0-0.4,0-0.5,0c0-0.1,0-0.2,0-0.2c0-0.2,0.1-0.3,0.2-0.4c0.1-0.1,0.2-0.3,0.3-0.4
		C8.7,44.6,8.8,44.5,8.8,44.3z M6.5,48.4C6.5,48.5,6.5,48.5,6.5,48.4C6.5,48.5,6.5,48.4,6.5,48.4c-0.1-0.1-0.1-0.2-0.1-0.3
		C6.5,48.2,6.5,48.3,6.5,48.4z M6.5,48.6C6.5,48.6,6.5,48.6,6.5,48.6C6.5,48.6,6.5,48.6,6.5,48.6C6.5,48.6,6.5,48.6,6.5,48.6z
		 M6.8,49c0.2,0.1,0.4,0.2,0.6,0.3c0.1,0.3,0.3,0.6,0.4,0.8c0.2,0.3,0.4,0.6,0.6,0.9c0.2,0.3,0.4,0.6,0.6,0.9
		c0.1,0.2,0.2,0.3,0.3,0.4c0.1,0.1,0.2,0.2,0.3,0.3c0,0,0,0.1,0,0.1c-0.4-0.2-0.7-0.4-1-0.6c-0.4-0.3-0.7-0.7-1-1.1
		c-0.3-0.4-0.6-0.8-0.8-1.2c-0.2-0.3-0.4-0.6-0.6-1C6.6,49,6.7,49,6.8,49z M6.8,47.9C6.8,47.9,6.8,48,6.8,47.9
		C6.9,48.1,7,48.3,7,48.5c0,0,0,0,0,0c0,0,0,0,0-0.1c-0.1-0.1-0.1-0.3-0.1-0.4C6.8,48,6.8,48,6.8,47.9z M7.1,48.1
		c0,0.1,0,0.2,0.1,0.3C7.1,48.3,7.1,48.2,7.1,48.1z M7.4,47c0,0.3,0,0.5,0.1,0.8c0,0.3,0.1,0.5,0,0.8c0,0.2,0,0.3,0,0.5c0,0,0,0,0,0
		c0-0.2,0-0.4-0.1-0.5c-0.1-0.2,0-0.4,0-0.7c0-0.2,0-0.4,0-0.7c0-0.2,0-0.4-0.1-0.6c0,0,0.1-0.1,0.1-0.1c0,0,0,0,0,0
		C7.4,46.6,7.4,46.8,7.4,47z M7.6,46.3C7.6,46.3,7.6,46.3,7.6,46.3C7.6,46.3,7.6,46.3,7.6,46.3C7.6,46.3,7.6,46.3,7.6,46.3z M7.6,48
		c0,0.1,0,0.3,0,0.4C7.6,48.3,7.6,48.1,7.6,48z M8.4,49.6c-0.1,0-0.1-0.1-0.2-0.1c0-0.7,0-1.4,0.1-2.1c0.1-0.4,0.1-0.7,0.3-1
		c0.1-0.2,0.2-0.4,0.3-0.6c0,0.1-0.1,0.3-0.1,0.4c-0.1,0.4-0.2,0.8-0.3,1.2c-0.1,0.4-0.1,0.8-0.2,1.2C8.3,48.9,8.3,49.3,8.4,49.6z
		 M8.4,46.3c-0.1,0.3-0.3,0.7-0.3,1.1C8,47.8,8,48.3,8,48.7c0-0.1,0-0.1,0-0.2c0-0.3,0-0.6,0.1-0.9c0-0.3,0-0.6,0.1-0.8
		c0-0.2,0.1-0.5,0.1-0.7c0.1,0,0.2-0.1,0.4-0.1C8.5,46.1,8.4,46.2,8.4,46.3z M8,49.4C8,49.3,8,49.3,8,49.4c0-0.2,0-0.4,0-0.6
		C8,49,8,49.2,8,49.4z M7.9,46.8c0,0.2,0,0.3,0,0.5c0-0.1,0-0.2,0-0.4c0-0.2,0-0.4,0-0.7c0.1,0,0.1,0,0.1-0.1
		C7.9,46.4,7.9,46.6,7.9,46.8z M7.8,47.9c0,0.2,0,0.3,0,0.5C7.8,48.2,7.8,48,7.8,47.9z M9.2,51.9C9,51.6,8.8,51.3,8.6,51
		c-0.2-0.3-0.4-0.6-0.5-0.9c-0.1-0.2-0.2-0.3-0.3-0.5c0,0,0.1,0,0.1,0.1c0.4,0.2,0.7,0.5,1,0.8c0.1,0.2,0.2,0.3,0.3,0.5
		c0.1,0.2,0.2,0.4,0.3,0.6c0.1,0.3,0.2,0.6,0.3,0.9C9.6,52.2,9.4,52,9.2,51.9z M9.1,47.6c0,0.5,0,1.1-0.1,1.6c0,0.4,0,0.8,0,1.1
		c0,0-0.1-0.1-0.1-0.1c-0.2-0.2-0.3-0.3-0.5-0.5c0-0.4,0-0.8,0-1.2c0-0.4,0.1-0.8,0.2-1.2c0.1-0.4,0.2-0.8,0.3-1.2
		c0.1-0.3,0.2-0.7,0.3-1C9.4,45.1,9.5,45,9.5,45c-0.1,0.3-0.2,0.7-0.2,1.1C9.2,46.6,9.2,47.1,9.1,47.6z M7.6,45.4
		c0-0.1,0.1-0.3,0.1-0.4c0-0.1,0.1-0.2,0.1-0.3c0.1,0,0.2,0,0.3-0.1c0.2-0.1,0.3-0.1,0.5-0.2c0,0-0.1,0.1-0.1,0.2
		c-0.1,0.2-0.2,0.3-0.2,0.5c-0.1,0.2-0.1,0.3-0.2,0.5c-0.1,0.1-0.1,0.2-0.1,0.3c-0.1,0-0.3,0.1-0.4,0.2c0,0-0.1,0-0.1,0.1
		c0-0.1,0-0.1,0-0.2C7.4,45.7,7.5,45.6,7.6,45.4z M6.8,46.2c0-0.2,0.1-0.3,0.1-0.5C7,45.6,7,45.4,7,45.3c0.1-0.2,0.2-0.3,0.4-0.4
		c0,0,0.1-0.1,0.1-0.1c0,0,0,0.1,0,0.1c0,0.2-0.1,0.3-0.1,0.5c0,0.2,0,0.3-0.1,0.5c0,0.1-0.1,0.2,0,0.4c0,0,0,0,0,0
		c-0.1,0.1-0.2,0.2-0.3,0.3c-0.1,0.1-0.1,0.1-0.2,0.2c0,0,0,0,0-0.1C6.7,46.5,6.8,46.3,6.8,46.2z M6.7,47.3
		C6.7,47.3,6.7,47.3,6.7,47.3C6.7,47.3,6.7,47.3,6.7,47.3C6.7,47.3,6.7,47.3,6.7,47.3z M6.7,48.1c0,0.1,0.1,0.3,0.1,0.4
		c0,0.1,0,0.1,0,0.2c0,0,0,0-0.1,0c0-0.1,0-0.2,0-0.3C6.6,48.3,6.6,48.2,6.7,48.1C6.6,48.1,6.6,48.1,6.7,48.1z M6.5,46
		c0-0.1,0.1-0.1,0.1-0.2c0,0.1,0,0.2,0,0.3c0,0.2,0,0.4,0,0.5c0,0.1,0,0.3,0,0.4c0,0,0,0.1-0.1,0.1c-0.1,0.1-0.2,0.1-0.3,0.1
		c0,0,0,0-0.1,0l0.1-0.6C6.3,46.5,6.4,46.3,6.5,46z M6.3,48.5C6.3,48.5,6.3,48.5,6.3,48.5c-0.1-0.1-0.1-0.1-0.1-0.1
		c0-0.1,0-0.2,0-0.3c0,0,0,0,0,0c0,0,0,0,0,0c0,0.1,0.1,0.2,0.1,0.3C6.3,48.4,6.3,48.5,6.3,48.5z M5.9,46c0.1-0.1,0.3-0.1,0.4-0.2
		c0,0,0,0.1,0,0.1c-0.1,0.2-0.2,0.5-0.3,0.7c0,0.2-0.1,0.3-0.1,0.5c0,0,0,0,0,0c-0.1-0.1-0.1-0.2-0.1-0.4c0-0.1-0.1-0.2-0.1-0.4
		c0-0.1,0-0.1-0.1-0.2C5.7,46.1,5.8,46.1,5.9,46z M6,48.4C6,48.4,6,48.4,6,48.4C6,48.4,6,48.4,6,48.4c0-0.1,0-0.1,0-0.2
		C6.1,48.2,6.1,48.3,6,48.4z M5.9,47.7C5.9,47.7,5.9,47.7,5.9,47.7C5.9,47.7,5.9,47.7,5.9,47.7C5.9,47.7,5.9,47.7,5.9,47.7z
		 M5.9,48.3C5.9,48.3,5.8,48.4,5.9,48.3C5.8,48.4,5.8,48.4,5.9,48.3c-0.1-0.1,0-0.1,0-0.2c0-0.1,0-0.2,0-0.3c0,0,0,0,0,0
		c0,0.1,0,0.1,0,0.2C5.9,48.1,5.9,48.2,5.9,48.3z M5.1,46.7c0.1-0.1,0.2-0.2,0.2-0.3c0,0,0,0,0.1-0.1c0,0,0,0.1,0.1,0.1
		c0.1,0.1,0.1,0.2,0.1,0.3c0.1,0.1,0.1,0.2,0.1,0.3c0,0.1,0,0.1,0,0.2c-0.2,0-0.3,0.1-0.5,0.1c0,0,0,0,0-0.1
		c-0.1-0.1-0.1-0.1-0.1-0.2c0-0.1-0.1-0.1-0.1-0.2C5.1,46.9,5.1,46.9,5.1,46.7C5.1,46.8,5.1,46.8,5.1,46.7z M5.6,47.9
		C5.6,47.8,5.6,47.8,5.6,47.9C5.6,47.8,5.6,47.8,5.6,47.9c0,0.1,0,0.1,0,0.2c0,0.1,0,0.2,0,0.3c0,0,0,0.1,0,0.1c0,0,0,0,0,0
		c0,0,0,0,0,0c0,0,0,0,0,0c0-0.1,0-0.2,0-0.3C5.6,48,5.6,47.9,5.6,47.9z M5.4,48.1C5.4,48.1,5.4,48.1,5.4,48.1c0,0.1,0,0.2-0.1,0.3
		c0,0,0,0.1,0,0.1c0,0,0,0,0,0C5.3,48.3,5.3,48.2,5.4,48.1C5.4,48.1,5.4,48.1,5.4,48.1z M4,47c0.1-0.1,0.2-0.1,0.3-0.1
		c0.1,0,0.3,0.1,0.4,0c0,0,0.1,0,0.1,0c0,0,0,0.1,0.1,0.1c0,0.1,0.1,0.1,0.1,0.2c0,0.1,0.1,0.1,0.1,0.2c0,0,0,0,0,0.1
		c-0.1,0.1-0.3,0.1-0.4,0.3c-0.1,0-0.1,0.1-0.2,0.1c0-0.1-0.1-0.1-0.2-0.2c-0.1-0.1-0.2-0.2-0.2-0.3c-0.1-0.1-0.2-0.2-0.2-0.3
		c0,0-0.1-0.1-0.1-0.1C3.8,47.1,3.9,47.1,4,47z M4.9,48.5C4.9,48.5,4.9,48.5,4.9,48.5C4.9,48.5,4.9,48.5,4.9,48.5
		c-0.1,0-0.1-0.1,0-0.2c0-0.1,0-0.1,0-0.2c0,0,0,0.1,0,0.1C4.9,48.3,4.9,48.4,4.9,48.5z M4.6,48.2C4.6,48.2,4.6,48.2,4.6,48.2
		c0.1,0,0.1,0.1,0.1,0.1c0,0.1,0.1,0.1,0,0.2c0,0,0,0,0,0c-0.1,0-0.1,0.1-0.2,0.1c0,0,0-0.1,0-0.1c0-0.1,0-0.1,0-0.2
		C4.6,48.3,4.6,48.3,4.6,48.2z M3,47.9c0-0.1,0.1-0.2,0.2-0.3c0,0,0.1-0.1,0.1-0.1c0,0,0.1-0.1,0.1-0.1c0,0,0.1-0.1,0.1-0.1
		c0,0.1,0.1,0.1,0.1,0.1c0.1,0.1,0.2,0.2,0.3,0.2c0.1,0.1,0.2,0.1,0.3,0.2c0,0.1,0.1,0.1,0.2,0.2c-0.1,0.1-0.2,0.2-0.3,0.4
		c0,0,0,0.1,0,0.1c-0.1,0-0.2-0.1-0.2-0.1c-0.1,0-0.2-0.1-0.4-0.1c-0.1,0-0.2-0.1-0.4-0.1c-0.1,0-0.2,0-0.3,0
		C2.9,48.1,2.9,48,3,47.9z M2.8,48.6c0,0,0-0.1,0-0.1c0.1,0,0.2,0.1,0.2,0.1c0.1,0,0.3,0,0.4,0.1c0.1,0,0.3,0,0.4,0.1
		c0.1,0,0.1,0.1,0.2,0.1c0,0.1,0,0.2,0,0.4c-0.1,0-0.1,0.1-0.2,0.1c-0.1,0.1-0.4,0.1-0.6,0c-0.2,0-0.4,0-0.5,0
		C2.8,49,2.8,48.8,2.8,48.6z M7,53.3c-0.4-0.1-0.8-0.2-1.2-0.4c-0.4-0.1-0.8-0.3-1.1-0.5c-0.3-0.2-0.7-0.5-1-0.8
		c-0.3-0.3-0.6-0.6-0.9-0.9c-0.1-0.2-0.3-0.3-0.4-0.5c-0.1-0.2-0.2-0.4-0.1-0.5c0-0.1,0.1-0.2,0.2-0.3c0.4,0.6,0.8,1.1,1.4,1.6
		c0.5,0.5,1.1,0.9,1.7,1.3c0.6,0.4,1.2,0.7,1.9,1c0.1,0,0.1,0,0.2,0.1C7.4,53.4,7.2,53.4,7,53.3z M9.2,53.7
		c-0.6-0.1-1.2-0.2-1.7-0.4c-0.7-0.2-1.3-0.6-1.8-1c-0.6-0.4-1.1-0.8-1.6-1.3c-0.5-0.5-1-1-1.4-1.5c0,0,0,0,0.1,0
		c0.2-0.1,0.4,0,0.6,0c0.2,0,0.3,0.1,0.5,0.1c0.3,0.6,0.6,1,1.1,1.5c0.5,0.4,0.9,0.9,1.4,1.2c0.5,0.4,1.1,0.7,1.6,0.9
		C8.3,53.4,8.8,53.5,9.2,53.7C9.2,53.7,9.2,53.7,9.2,53.7z M9.7,53.5c0,0-0.1,0.1-0.1,0.1c-0.3-0.1-0.5-0.2-0.8-0.3
		c-0.3-0.1-0.6-0.2-0.9-0.4c-0.6-0.2-1.1-0.6-1.6-1c-0.5-0.4-1-0.8-1.4-1.2c-0.4-0.4-0.7-0.9-1.1-1.3c0,0,0,0,0,0
		c0.2-0.1,0.4-0.2,0.6-0.3c0.1,0,0.1-0.1,0.2-0.1c0.3,0.5,0.6,0.9,0.9,1.3c0.4,0.5,0.8,0.9,1.2,1.4c0.4,0.4,0.9,0.8,1.4,1.2
		C8.6,53.2,9.2,53.4,9.7,53.5C9.7,53.5,9.7,53.5,9.7,53.5z M9.8,53.3C9.8,53.3,9.8,53.3,9.8,53.3c-0.5-0.1-1-0.4-1.5-0.6
		c-0.5-0.3-0.9-0.7-1.4-1.1c-0.4-0.4-0.8-0.8-1.2-1.3c-0.3-0.4-0.6-0.8-0.9-1.3c0.1,0,0.1-0.1,0.2-0.1c0.2-0.1,0.4-0.1,0.6-0.1
		c0.2,0,0.4,0,0.6,0.1c0.1,0.4,0.3,0.8,0.6,1.2c0.3,0.4,0.5,0.8,0.8,1.2c0.3,0.4,0.7,0.7,1,1.1c0.3,0.3,0.7,0.6,1.1,0.7
		C9.8,53,9.8,53.2,9.8,53.3z M9.8,48.1c-0.1,0.7-0.1,1.3-0.1,2c0,0.3,0,0.7,0,1c-0.1-0.1-0.1-0.2-0.2-0.3l-0.2-0.2
		c0-0.4,0-0.9-0.1-1.3c0-0.5,0-1.1,0.1-1.6c0.1-0.5,0.1-1,0.2-1.6c0.1-0.4,0.2-0.9,0.2-1.3c0,0,0.1-0.1,0.1-0.1
		c0.1-0.1,0.3-0.2,0.4-0.3c0,0,0.1,0,0.1,0c-0.2,0.6-0.3,1.1-0.4,1.7C10,46.8,9.9,47.4,9.8,48.1z M9.9,51.6c0-0.5,0-1,0-1.5
		c0-0.7,0.1-1.3,0.2-2c0.1-0.7,0.2-1.3,0.3-1.9c0.1-0.6,0.2-1.2,0.3-1.8c0,0,0,0,0.1,0c0.1,0.1,0.2,0.2,0.3,0.3
		c0.1,0.1,0.2,0.3,0.3,0.4c0,0,0,0,0,0.1c-0.2,0.6-0.3,1.1-0.5,1.7c-0.1,0.6-0.3,1.2-0.4,1.8c-0.1,0.6-0.2,1.2-0.3,1.8
		C10,51,10,51.4,9.9,51.8C9.9,51.7,9.9,51.7,9.9,51.6z M12.4,50.4c0,0.4-0.1,0.7-0.3,1c-0.2,0.3-0.3,0.6-0.5,0.9
		c-0.4,0.5-0.9,0.8-1.6,1.1c0,0,0-0.1,0-0.1c0-0.1,0-0.2,0-0.4c0.1-0.5,0.3-0.9,0.4-1.4c0.1-0.6,0.3-1.1,0.5-1.7
		c0.2-0.6,0.4-1.1,0.6-1.7c0.2-0.4,0.3-0.9,0.4-1.4c0,0.1,0.1,0.3,0.1,0.4c0.1,0.4,0.1,0.7,0.2,1.1C12.4,49,12.5,49.7,12.4,50.4z"/>
</g>
</svg>
