<?xml version="1.0" encoding="utf-8"?>
<!-- Generator: Adobe Illustrator 22.1.0, SVG Export Plug-In . SVG Version: 6.00 Build 0)  -->
<svg version="1.1" id="レイヤー_1" xmlns="http://www.w3.org/2000/svg" xmlns:xlink="http://www.w3.org/1999/xlink" x="0px"
	 y="0px" viewBox="0 0 180.7 14.9" style="enable-background:new 0 0 180.7 14.9;" xml:space="preserve">
<style type="text/css">
	.st0{fill:#FFFFFF;}
</style>
<g>
	<path class="st0" d="M10.9,1C9.9-0.9,7.5,0.5,7.5,0.5S5-0.9,4,1C2.8,3.1,7.5,5.9,7.5,5.9S12.1,3.1,10.9,1z"/>
	<path class="st0" d="M4,13.9c1.1,1.9,3.5,0.5,3.5,0.5s2.4,1.4,3.5-0.5C12.1,11.8,7.5,9,7.5,9S2.8,11.8,4,13.9z"/>
	<path class="st0" d="M1,4C-0.9,5,0.5,7.5,0.5,7.5S-0.9,9.9,1,10.9c2.1,1.2,4.9-3.5,4.9-3.5S3.1,2.8,1,4z"/>
	<path class="st0" d="M169.7,13.9c1.1,1.9,3.5,0.5,3.5,0.5s2.4,1.4,3.5-0.5c1.2-2.1-3.5-4.9-3.5-4.9S168.6,11.8,169.7,13.9z"/>
	<path class="st0" d="M176.7,1c-1.1-1.9-3.5-0.5-3.5-0.5s-2.4-1.4-3.5,0.5c-1.2,2.1,3.5,4.9,3.5,4.9S177.9,3.1,176.7,1z"/>
	<path class="st0" d="M179.7,4c-2.1-1.2-4.9,3.5-4.9,3.5s2.8,4.6,4.9,3.5c1.9-1.1,0.5-3.5,0.5-3.5S181.6,5,179.7,4z"/>
	<path class="st0" d="M173.2,5.9c-0.6,0-1.2,0.4-1.4,0.9H8.9C8.6,6.3,8.1,5.9,7.5,5.9c-0.9,0-1.5,0.7-1.5,1.5S6.6,9,7.5,9
		c0.6,0,1.2-0.4,1.4-0.9h162.9c0.2,0.5,0.8,0.9,1.4,0.9c0.9,0,1.5-0.7,1.5-1.5S174.1,5.9,173.2,5.9z"/>
</g>
</svg>
