<?xml version="1.0" encoding="utf-8"?>
<!-- Generator: Adobe Illustrator 22.1.0, SVG Export Plug-In . SVG Version: 6.00 Build 0)  -->
<svg version="1.1" id="レイヤー_1" xmlns="http://www.w3.org/2000/svg" xmlns:xlink="http://www.w3.org/1999/xlink" x="0px"
	 y="0px" viewBox="0 0 800 116.4" style="enable-background:new 0 0 800 116.4;" xml:space="preserve">
<style type="text/css">
	.st0{fill:#FFFFFF;}
</style>
<path class="st0" d="M112.1,32.4c-4.4,2-9.9-1.6-13-4.4c-2.9-2.7-5.4-5.7-8.2-8.5c3.2,0.9,6.4,1.3,9.3,0.4c3.9-1.2,6.7-5,6-9.2
	c-0.6-3.7-3.2-7.1-6.9-8c-4.1-1-6.5,2.8-7.4,6.1c-0.6,2.2,2.8,3.1,3.4,0.9c2.4-8,10,0.3,6.5,4.9c-3.4,4.5-12.2,0.7-16.3-0.8
	c0,0-0.1,0-0.1,0C80.2,9.2,71.2,8.9,65,12.1c-2.2,1.1-4.2,2.3-6.1,3.5c1.4-3.8,1.3-8-1.3-11.8c-2.1-3.1-6-4.6-9.6-3.4
	c-4.1,1.4-5.3,5.9-4.9,9.8c0.2,2.2,3.8,2.3,3.5,0c-0.3-2.5,0.1-6.7,3.6-6.7c3,0,5.2,2.4,5.7,5.3c0.7,4.1-0.8,8-3.6,10.7
	c-6,3.4-11.8,5.4-18.9,2.9c0.9-0.5,1.7-1.1,2.4-1.9c1.5-1.8,1.7-4.5,0.2-6.4c-2.8-3.7-6.8-3.7-10.1-1.7c-0.2-4.2-1.6-8.7-6.2-8.2
	C15,4.8,14,9.4,14.4,13.6c-1.7-0.8-3.6-1.3-5.3-0.6c-2.1,0.9-3.4,2.8-3.5,5.1c-0.1,4.6,3.3,7.3,7.2,7.7c-1.4,3.6-1.7,8.2,2.6,9.7
	c3.9,1.4,6.2-1.8,7.3-5.2c0.2,0.3,0.5,0.6,0.7,0.9c1.8,5.6,1.6,11-1.5,16.5c-2.9,4.3-8.2,7.5-13.4,5.8c-6.8-2.1-6.2-10.6,1.6-9.3
	c2.2,0.4,3.2-3,0.9-3.4c-4-0.7-8.7,0-10.4,4.3c-1.5,3.7,0.1,8.1,3.5,10.2c3.6,2.3,7.5,2.5,11.1,1.4c-1.6,2-3.1,4.1-4.2,6.4
	c-3.1,6.1-3.3,14.6,1,20c0,0.1,0,0.1,0,0.2c1.1,4,5.1,15.2-1.4,16.8c-2.4,0.6-5-0.3-6.3-2.5c-1.8-2.9,0.3-4.2,3.1-4.9
	c2.2-0.5,1.3-3.9-0.9-3.4c-3.5,0.8-7.5,3.2-6.4,7.5c0.9,3.6,4.1,6.2,7.6,7c3.9,0.8,8.3-1.7,9.4-5.6c0.8-3.1,0.6-6.2,0-9.4
	c3,3.3,6.4,6.2,8.9,9.9c2.1,3,5.2,8.7,2.6,12.4c-3.1,4.4-11.5,0.2-6.5-5.1c1.6-1.7-0.9-4.2-2.5-2.5c-2.7,2.9-4.4,7.5-0.9,10.6
	c2.7,2.3,6.8,3.2,10.1,1.5c4.8-2.5,4.9-8.9,3.1-13.4c-2.3-5.7-6.6-9.7-10.7-14c7.5,0.8,16.8-3.6,13.4-12.6C32,68,18.8,63.3,17.3,74
	c-0.3,2.2,3.1,3.2,3.4,0.9c1.1-7.8,13.2-1.4,10.8,5.2c-1,2.9-3.7,4.8-6.8,4.8c-5.7,0.1-10.8-3.1-12.1-8.9
	c-1.8-7.7,2.8-13.5,7.3-19.3c1.5-2,2.9-3.9,4-5.9c0.2-0.3,0.5-0.6,0.7-0.9c0.5,4.1,1.7,8.3,3.8,11.2c2.4,3.4,7.7,5.6,11.3,2.5
	c6-5.1,1.8-16.9-6.6-12.7c-2.1,1-0.3,4.1,1.8,3.1c5.5-2.7,5.3,7.9,0.6,7.5C28.1,61,27.5,47,28.1,41.5c0.1-0.5-0.1-0.9-0.3-1.1
	c0.3-2.1,0.3-4.2-0.1-6.3c1.3,0.3,2.7,0,4.1-1.1c2.6-2,2-4.7,0.5-7.1c3.3,1.2,6.4,1.6,9.6,1.3c0.3,0.3,0.7,0.4,1.2,0.4
	c4.5-0.2,21.8,1.6,19.5,9.3c-1.2,4.1-10.2,3.2-7.3-1.8c1.1-2-1.9-3.8-3.1-1.8c-4.8,8.4,8,13.3,12.8,6.7c3-4.1,0.3-9.6-3.7-11.8
	c-2.9-1.6-6.3-2.8-9.7-3.5c0.4-0.3,0.8-0.5,1.2-0.8c2.1-1.1,4.2-2.4,6.4-3.9c5.5-3.8,12.3-8.6,19.3-5.8c5.5,2.2,10.6,8.7,6.9,14.8
	c-6.3,10.4-17.2-4.4-8.4-6.8c2.2-0.6,1.3-4-0.9-3.4c-10.1,2.7-6.9,16.1,2.3,17.7C86,37.7,89.8,30,89.6,23.3
	c4.4,4.8,8.6,10.2,14.9,12.2c4.1,1.3,10.3,1.7,12.4-3c1.5-3.2,1.3-7.6-1.3-10.2c-3.2-3.2-7.2-2-10.4,0.6c-1.8,1.5,0.8,4,2.5,2.5
	C113.6,20.5,116.9,30.3,112.1,32.4z M21.8,18.6c2.9,1.8,0.9,3-1.4,3.8C19.3,20,18.2,16.4,21.8,18.6z M26.6,29.7
	c-0.6-1.8-1.4-3.7-2.5-5.6c0.3-0.2,0.5-0.4,0.7-0.6c0.1,0.1,0.2,0.3,0.4,0.4c0.8,0.5,6.7,5.1,4.2,6.5C28.4,30.8,27.5,30.5,26.6,29.7
	z M17.4,24.7c0-0.1,0.1-0.1,0.1-0.2c0.2,0.3,0.3,0.6,0.5,0.9c0,0.1,0.1,0.1,0.1,0.1c0.4,0.6,1,0.9,1.9,0.7c0,0,0,0,0,0
	c-0.3,2.2-1.4,7.1-3.5,6C13.8,30.7,16.2,26.3,17.4,24.7z M15.8,18.6c0,1.1,0.3,2.3,0.7,3.5c-0.3-0.1-0.7-0.2-1.1-0.1
	c-2.9,0.8-6.5-0.3-6.3-3.9c0-0.8,0.4-1.8,1.3-1.8C12.4,16.2,14.2,17.4,15.8,18.6z M22.4,14.9c-1.9-0.7-3.3-0.8-4.3-0.4
	c-0.5-2.7-0.7-6.2,1.9-6.7C22.6,7.3,22.6,12.4,22.4,14.9z M28.6,20.2c-0.4-0.3-0.9-0.5-1.3-0.8c-0.2-0.1-0.3-0.2-0.5-0.2
	c-0.1-0.8-0.4-1.5-1.1-2.2c1.8-2,5.5-3.8,7.3-0.9C34.6,18.6,31.4,19.7,28.6,20.2z"/>
<path class="st0" d="M692.3,25.4c1.7,1.5,4.3-1,2.5-2.5c-3.1-2.6-7.2-3.9-10.4-0.6c-2.6,2.6-2.8,7-1.3,10.2c2.2,4.8,8.3,4.4,12.4,3
	c6.3-2,10.5-7.4,14.9-12.2c-0.3,6.8,3.6,14.4,11.4,13.1c9.1-1.6,12.4-14.9,2.3-17.7c-2.2-0.6-3.1,2.8-0.9,3.4
	c8.7,2.4-2.1,17.2-8.4,6.8c-3.7-6,1.4-12.6,6.9-14.8c7-2.8,13.8,2.1,19.3,5.8c2.2,1.5,4.3,2.8,6.4,3.9c0.4,0.3,0.8,0.6,1.2,0.8
	c-3.4,0.7-6.8,1.9-9.7,3.5c-4,2.2-6.7,7.7-3.7,11.8c4.8,6.6,17.6,1.7,12.8-6.7c-1.1-2-4.2-0.2-3.1,1.8c2.9,5-6.1,5.9-7.3,1.8
	c-2.3-7.7,14.9-9.5,19.5-9.3c0.5,0,0.9-0.2,1.2-0.4c3.1,0.2,6.3-0.1,9.6-1.3c-1.6,2.4-2.1,5.1,0.5,7.1c1.4,1.1,2.8,1.3,4.1,1.1
	c-0.3,2.2-0.3,4.3-0.1,6.3c-0.2,0.3-0.4,0.6-0.3,1.1c0.6,5.5,0,19.5-7.5,20.1c-4.6,0.3-4.9-10.3,0.6-7.5c2,1,3.8-2.1,1.8-3.1
	c-8.4-4.2-12.6,7.6-6.6,12.7c3.6,3.1,8.9,0.8,11.3-2.5c2.1-2.9,3.3-7.1,3.8-11.2c0.2,0.3,0.5,0.6,0.7,0.9c1.1,1.9,2.5,3.9,4,5.9
	c4.5,5.7,9,11.6,7.3,19.3c-1.3,5.8-6.5,9-12.1,8.9c-3.1,0-5.8-1.9-6.8-4.8c-2.4-6.7,9.7-13,10.8-5.2c0.3,2.3,3.8,1.3,3.4-0.9
	c-1.6-10.7-14.7-5.9-17.5,1.5c-3.4,9.1,5.9,13.4,13.4,12.6c-4.1,4.3-8.4,8.4-10.7,14c-1.9,4.5-1.7,10.8,3.1,13.4
	c3.3,1.7,7.4,0.8,10.1-1.5c3.6-3,1.8-7.7-0.9-10.6c-1.6-1.7-4.1,0.8-2.5,2.5c5,5.3-3.5,9.5-6.5,5.1c-2.5-3.6,0.6-9.4,2.6-12.4
	c2.5-3.7,5.9-6.6,8.9-9.9c-0.6,3.1-0.9,6.3,0,9.4c1.1,3.9,5.5,6.4,9.4,5.6c3.6-0.7,6.7-3.4,7.6-7c1.1-4.2-2.9-6.7-6.4-7.5
	c-2.2-0.5-3.2,2.9-0.9,3.4c2.8,0.6,4.9,2,3.1,4.9c-1.3,2.2-4,3-6.3,2.5c-6.5-1.6-2.5-12.8-1.4-16.8c0-0.1,0-0.1,0-0.2
	c4.3-5.4,4.1-13.9,1-20c-1.1-2.3-2.6-4.4-4.2-6.4c3.6,1.1,7.5,0.8,11.1-1.4c3.4-2.1,5-6.5,3.5-10.2c-1.7-4.3-6.4-5-10.4-4.3
	c-2.3,0.4-1.3,3.8,0.9,3.4c7.7-1.3,8.3,7.2,1.6,9.3c-5.2,1.6-10.5-1.5-13.4-5.8c-3-5.5-3.3-10.9-1.5-16.5c0.3-0.3,0.5-0.6,0.7-0.9
	c1.2,3.4,3.4,6.6,7.3,5.2c4.2-1.5,4-6.1,2.6-9.7c3.9-0.3,7.3-3.1,7.2-7.7c0-2.3-1.3-4.2-3.5-5.1c-1.7-0.7-3.6-0.3-5.3,0.6
	c0.4-4.2-0.7-8.8-5.3-9.3c-4.7-0.6-6.1,4-6.2,8.2c-3.3-1.9-7.4-2-10.1,1.7c-1.5,1.9-1.2,4.6,0.2,6.4c0.7,0.8,1.5,1.4,2.4,1.9
	c-7.2,2.5-13,0.4-18.9-2.9c-2.8-2.8-4.4-6.6-3.6-10.7c0.5-2.9,2.7-5.3,5.7-5.3c3.5,0,3.9,4.2,3.6,6.7c-0.3,2.3,3.3,2.2,3.5,0
	c0.4-3.9-0.8-8.4-4.9-9.8c-3.6-1.2-7.5,0.3-9.6,3.4c-2.6,3.8-2.7,8-1.3,11.8c-2-1.2-4-2.4-6.1-3.5c-6.2-3.2-15.1-2.9-20.4,1.9
	c0,0-0.1,0-0.1,0c-4.1,1.5-12.9,5.3-16.3,0.8c-3.5-4.7,4.2-13,6.5-4.9c0.6,2.2,4.1,1.3,3.4-0.9c-1-3.3-3.4-7.1-7.4-6.1
	c-3.7,0.9-6.4,4.3-6.9,8c-0.6,4.2,2.1,7.9,6,9.2c2.9,0.9,6.2,0.4,9.3-0.4c-2.8,2.8-5.3,5.8-8.2,8.5c-3.1,2.9-8.6,6.4-13,4.4
	C683.1,30.3,686.4,20.5,692.3,25.4z M779.6,22.4c-2.2-0.8-4.3-2-1.4-3.8C781.8,16.4,780.7,20,779.6,22.4z M770.6,30.3
	c-2.6-1.4,3.3-5.9,4.2-6.5c0.2-0.1,0.3-0.2,0.4-0.4c0.2,0.2,0.5,0.4,0.7,0.6c-1.1,1.9-1.9,3.8-2.5,5.6
	C772.5,30.5,771.6,30.8,770.6,30.3z M783.5,32.2c-2.1,1.1-3.2-3.8-3.5-6c0,0,0,0,0,0c0.8,0.3,1.5-0.1,1.9-0.7c0-0.1,0.1-0.1,0.1-0.1
	c0.2-0.3,0.4-0.6,0.5-0.9c0,0.1,0.1,0.1,0.1,0.2C783.8,26.3,786.2,30.7,783.5,32.2z M789.6,16.3c0.9,0.1,1.2,1,1.3,1.8
	c0.2,3.6-3.4,4.7-6.3,3.9c-0.4-0.1-0.8-0.1-1.1,0.1c0.4-1.2,0.7-2.4,0.7-3.5C785.8,17.4,787.6,16.2,789.6,16.3z M780.1,7.8
	c2.6,0.5,2.5,4.1,1.9,6.7c-1-0.3-2.4-0.2-4.3,0.4C777.4,12.4,777.4,7.3,780.1,7.8z M766.9,16.1c1.8-3,5.6-1.1,7.3,0.9
	c-0.7,0.7-1,1.5-1.1,2.2c-0.1,0-0.3,0.1-0.5,0.2c-0.5,0.3-0.9,0.6-1.3,0.8C768.6,19.7,765.4,18.6,766.9,16.1z"/>
</svg>
