<?xml version="1.0" encoding="utf-8"?>
<!-- Generator: Adobe Illustrator 22.1.0, SVG Export Plug-In . SVG Version: 6.00 Build 0)  -->
<svg version="1.1" id="レイヤー_1" xmlns="http://www.w3.org/2000/svg" xmlns:xlink="http://www.w3.org/1999/xlink" x="0px"
	 y="0px" viewBox="0 0 169.6 188.8" style="enable-background:new 0 0 169.6 188.8;" xml:space="preserve">
<style type="text/css">
	.st0{fill:#F99622;}
	.st1{fill:#5FB1B5;}
	.st2{fill:#F53955;}
	.st3{fill:#E7C890;}
	.st4{fill:#231F20;}
</style>
<g>
	<g>
		<path class="st0" d="M57.5,170.9L6.3,157.2l-2.3,8.7c-1.1,4.1,1.7,8.5,6.3,9.7l17.3,4.6l17.3,4.6c4.6,1.2,9.2-1.1,10.3-5.2
			L57.5,170.9z"/>
		<path class="st1" d="M6.3,157.2l51.2,13.7l14.6-54.4l-51.2-13.7L6.3,157.2L6.3,157.2z M49,139.4c-1.5,5.4-7.1,8.7-12.5,7.2
			c-5.5-1.5-8.7-7.1-7.2-12.5c1.5-5.4,7.1-8.7,12.5-7.2C47.2,128.4,50.5,134,49,139.4z"/>
		<circle class="st2" cx="39.2" cy="136.8" r="10.2"/>
		<path class="st0" d="M20.8,102.7l51.2,13.7c2.5-9.5-2-20.8-6.5-23.5c1.2-7.6,2.5-16.4,3.4-24.3h-24c-2.4,5.7-4.7,11.6-6.7,16.9
			C33,85.7,23.4,93.2,20.8,102.7z"/>
		<g>
			<path class="st3" d="M44.9,68.7h24c0.5-4.3,0.9-8.4,1.1-11.9c1.4,0.4,2.9-0.5,3.3-1.9l2.2-8c0.4-1.4-0.5-2.8-1.8-3.2l-17.8-4.8
				c-1.4-0.4-3.2,0.4-3.2,1.8l-2.2,8c-0.7,1.3,0.5,2.9,1.9,3.3C50.1,56.6,47.5,62.5,44.9,68.7z"/>
			<path class="st3" d="M99.6,56.8c0.2,3.5,0.6,7.5,1.1,11.9h24c-2.6-6.2-5.2-12.1-7.5-16.6c1.4-0.4,2.6-2,1.9-3.3l-2.2-8
				c0-1.4-1.8-2.2-3.2-1.8L96,43.7c-1.4,0.4-2.2,1.8-1.8,3.2l2.1,8C96.7,56.3,98.2,57.2,99.6,56.8z"/>
		</g>
		<path class="st0" d="M124.7,68.7h-24c0.9,7.9,2.1,16.7,3.4,24.3c-4.5,2.7-9,14-6.5,23.5l51.2-13.7c-2.5-9.5-12.1-17-17.4-17.1
			C129.4,80.2,127.1,74.3,124.7,68.7z"/>
		<path class="st1" d="M148.8,102.7l-51.2,13.7l14.6,54.4l51.2-13.7L148.8,102.7L148.8,102.7z M120.6,139.4
			c-1.5-5.4,1.8-11.1,7.2-12.5c5.4-1.5,11.1,1.8,12.5,7.2c1.5,5.5-1.8,11.1-7.2,12.5C127.7,148.1,122.1,144.9,120.6,139.4z"/>
		<circle class="st2" cx="130.5" cy="136.8" r="10.2"/>
		<path class="st0" d="M163.4,157.2l-51.2,13.7l2.3,8.7c1.1,4.1,5.7,6.5,10.3,5.2l17.3-4.6l17.3-4.6c4.6-1.2,7.4-5.6,6.3-9.7
			L163.4,157.2z"/>
	</g>
	<path class="st4" d="M74.6,40.1l-17.8-4.8c-1.9-0.5-4.1-0.1-5.7,1.1c-1.2,0.9-1.9,2.2-2.1,3.7l-2,7.3c-0.6,1.3-0.6,2.9,0,4.3
		c0.2,0.5,0.4,0.9,0.7,1.3c-1.9,3.9-4,8.7-6.3,14.1c0,0,0,0,0,0c-2,4.7-4,9.8-6,15.1c-6.9,1.9-15.7,9.9-18.2,19.5L0.4,164.9
		c-1.6,6.1,2.4,12.4,8.9,14.2l34.6,9.3c0,0,0,0,0,0l0,0c1.1,0.3,2.3,0.5,3.4,0.5c2,0,3.9-0.5,5.7-1.3c2.9-1.5,4.9-3.9,5.7-6.9
		l2.3-8.7c0,0,0,0,0,0c0,0,0,0,0,0l14.6-54.4c2.6-9.5-1-20.9-6.1-26c1.3-8,2.3-15.7,3.1-22.4c0,0,0,0,0-0.1c0.4-3.3,0.7-6.4,0.9-9.1
		c1.6-0.8,2.9-2.2,3.4-4.1l2.2-8C79.9,44.5,77.9,41,74.6,40.1z M56,42.8L71.6,47L70,53.1c0,0-0.1,0-0.1,0c0,0-0.1,0-0.1,0
		c-0.1,0-0.2,0-0.3,0c0,0-0.1,0-0.1,0c-0.1,0-0.2,0-0.3,0.1c0,0-0.1,0-0.1,0c-0.1,0-0.2,0.1-0.3,0.1c0,0-0.1,0-0.1,0
		c-0.1,0-0.1,0.1-0.2,0.1c0,0-0.1,0-0.1,0.1c-0.1,0-0.1,0.1-0.2,0.1c0,0-0.1,0-0.1,0.1c-0.1,0-0.1,0.1-0.2,0.1c0,0-0.1,0-0.1,0.1
		c-0.1,0.1-0.1,0.1-0.2,0.2c0,0,0,0,0,0c-0.1,0.1-0.2,0.2-0.2,0.2c0,0,0,0,0,0.1c-0.1,0.1-0.1,0.1-0.2,0.2c0,0,0,0.1-0.1,0.1
		c0,0.1-0.1,0.1-0.1,0.2c0,0,0,0.1-0.1,0.1c0,0.1-0.1,0.1-0.1,0.2c0,0,0,0.1-0.1,0.1c0,0.1-0.1,0.1-0.1,0.2c0,0,0,0.1-0.1,0.1
		c0,0.1-0.1,0.2-0.1,0.3c0,0.1-0.1,0.2-0.1,0.3c0,0,0,0,0,0.1c0,0,0,0,0,0c0,0.1,0,0.2,0,0.3C66.2,59,66,61.8,65.7,65H50.5
		c1.9-4.4,3.7-8.2,5.2-11.2c0-0.1,0.1-0.2,0.1-0.3c0,0,0,0,0-0.1c0,0,0,0,0-0.1c0-0.1,0.1-0.2,0.1-0.3c0-0.1,0-0.2,0.1-0.3
		c0,0,0-0.1,0-0.1c0-0.1,0-0.1,0-0.2c0,0,0-0.1,0-0.1c0-0.1,0-0.1,0-0.2c0,0,0-0.1,0-0.1c0-0.1,0-0.2,0-0.2c0,0,0-0.1,0-0.1
		c0-0.1,0-0.2,0-0.3c0,0,0,0,0,0c0-0.1-0.1-0.2-0.1-0.3c0,0,0,0,0,0c0-0.1-0.1-0.2-0.1-0.3c0,0,0-0.1,0-0.1c0-0.1-0.1-0.1-0.1-0.2
		c0,0,0-0.1-0.1-0.1c0-0.1-0.1-0.1-0.1-0.2c0,0-0.1-0.1-0.1-0.1c0-0.1-0.1-0.1-0.1-0.2c0,0,0-0.1-0.1-0.1c-0.1-0.1-0.1-0.2-0.2-0.2
		c0,0,0,0-0.1-0.1c-0.1-0.1-0.1-0.1-0.2-0.2c0,0-0.1,0-0.1-0.1c-0.1-0.1-0.1-0.1-0.2-0.1c0,0-0.1,0-0.1,0c0,0,0,0-0.1,0L56,42.8z
		 M38.3,89.3c1.5,0,2.8-1,3.4-2.4c1.9-5.1,3.9-10,5.7-14.5h17.4c-0.6,5-1.4,10.4-2.2,16l-0.9-0.2c-2-0.5-4,0.6-4.5,2.6
		c-0.5,2,0.6,4,2.6,4.5l4.2,1.1c2.4,1.9,5.4,8.8,5,15.5l-43.3-11.6C28.9,93.9,35.4,89.3,38.3,89.3z M54.9,166.4l-44.1-11.8
		l12.7-47.3l44.1,11.8L54.9,166.4z M49.6,180.9c-1.1,0.6-2.5,0.7-3.8,0.3L11.2,172c0,0,0,0,0,0l0,0c-2.6-0.7-4.3-3.1-3.7-5.2
		l1.4-5.1L53,173.5l-1.4,5.1C51.3,179.6,50.6,180.4,49.6,180.9z"/>
	<path class="st4" d="M49.2,92.3L49.2,92.3c0.4,0.1,0.7,0.1,1,0.1c1.6,0,3.1-1.1,3.6-2.7c0.5-2-0.6-4-2.6-4.5l-0.1,0
		c-2-0.5-4,0.6-4.5,2.6C46.1,89.8,47.2,91.8,49.2,92.3z"/>
	<path class="st4" d="M51.2,129.8c-1.9-3.2-4.9-5.5-8.4-6.5c-1.2-0.3-2.4-0.5-3.6-0.5c-6.3,0-11.8,4.2-13.4,10.3
		c-1,3.6-0.5,7.3,1.4,10.6c1.9,3.2,4.9,5.5,8.4,6.5c1.2,0.3,2.4,0.5,3.6,0.5c6.3,0,11.8-4.2,13.4-10.3
		C53.5,136.8,53.1,133.1,51.2,129.8z M45.5,138.5c-0.8,2.9-3.4,4.8-6.3,4.8c-0.6,0-1.1-0.1-1.7-0.2c-1.7-0.5-3.1-1.5-4-3
		c-0.9-1.5-1.1-3.3-0.7-5c0.8-2.9,3.4-4.8,6.3-4.8c0.6,0,1.1,0.1,1.7,0.2c1.7,0.5,3.1,1.5,4,3C45.7,135,45.9,136.8,45.5,138.5z"/>
	<path class="st4" d="M169.3,164.9l-16.9-63.1c-2.6-9.5-11.3-17.6-18.2-19.5c-2-5.3-4.1-10.4-6-15.1c0,0,0,0,0,0
		c-2.3-5.4-4.4-10.2-6.3-14.1c0.3-0.4,0.6-0.9,0.7-1.3c0.6-1.4,0.6-3,0-4.3l-2-7.3c-0.2-1.4-0.9-2.7-2.1-3.7
		c-1.6-1.2-3.7-1.6-5.7-1.1L95,40.1c-1.6,0.4-3,1.5-3.8,2.9c-0.8,1.5-1.1,3.1-0.6,4.8l2.1,8c0.5,1.8,1.8,3.3,3.4,4.1
		c0.2,2.7,0.5,5.8,0.9,9.1c0,0,0,0,0,0.1c0.7,6.7,1.8,14.4,3.1,22.4c-5,5.1-8.6,16.4-6.1,26l16.9,63.1c0.8,3,2.8,5.5,5.7,6.9
		c1.8,0.9,3.7,1.3,5.7,1.3c1.1,0,2.3-0.1,3.4-0.5l34.6-9.3l0,0c3.1-0.8,5.7-2.7,7.4-5.3C169.5,171,170.1,167.9,169.3,164.9z
		 M102.1,119.1l44.1-11.8l12.7,47.3l-44.1,11.8L102.1,119.1z M131.3,89.3c2.9,0.1,9.4,4.6,12.6,11l-43.3,11.6
		c-0.4-6.7,2.6-13.6,5-15.5l4.2-1.1c2-0.5,3.1-2.5,2.6-4.5c-0.5-2-2.5-3.1-4.5-2.6l-0.9,0.2c-0.9-5.6-1.6-11-2.2-16h17.4
		c1.9,4.6,3.8,9.5,5.7,14.5C128.5,88.3,129.8,89.2,131.3,89.3z M113.7,42.8l1.6,6.1c0,0,0,0-0.1,0c0,0-0.1,0-0.1,0.1
		c-0.1,0-0.1,0.1-0.2,0.1c0,0-0.1,0-0.1,0.1c-0.1,0.1-0.1,0.1-0.2,0.2c0,0-0.1,0-0.1,0.1c-0.1,0.1-0.1,0.2-0.2,0.2
		c0,0-0.1,0.1-0.1,0.1c0,0.1-0.1,0.1-0.1,0.2c0,0-0.1,0.1-0.1,0.1c0,0.1-0.1,0.1-0.1,0.2c0,0,0,0.1-0.1,0.1c0,0.1-0.1,0.1-0.1,0.2
		c0,0,0,0.1,0,0.1c0,0.1-0.1,0.2-0.1,0.3c0,0,0,0,0,0c0,0.1-0.1,0.2-0.1,0.3c0,0,0,0,0,0.1c0,0.1,0,0.2,0,0.3c0,0,0,0.1,0,0.1
		c0,0.1,0,0.2,0,0.2c0,0,0,0.1,0,0.1c0,0.1,0,0.1,0,0.2c0,0,0,0.1,0,0.1c0,0.1,0,0.1,0,0.2c0,0,0,0.1,0,0.1c0,0.1,0,0.2,0.1,0.3
		c0,0.1,0.1,0.2,0.1,0.3c0,0,0,0.1,0,0.1c0,0,0,0,0,0c0,0.1,0.1,0.2,0.1,0.3c1.5,3,3.3,6.9,5.2,11.2H104c-0.3-3.1-0.6-6-0.7-8.4
		c0-0.1,0-0.2,0-0.3c0,0,0,0,0,0c0,0,0,0,0-0.1c0-0.1,0-0.2-0.1-0.3c0-0.1-0.1-0.2-0.1-0.3c0,0,0-0.1-0.1-0.1c0-0.1-0.1-0.1-0.1-0.2
		c0,0,0-0.1-0.1-0.1c0-0.1-0.1-0.1-0.1-0.2c0,0,0-0.1-0.1-0.1c0-0.1-0.1-0.1-0.1-0.2c0,0,0-0.1-0.1-0.1c-0.1-0.1-0.1-0.1-0.2-0.2
		c0,0,0,0-0.1-0.1c-0.1-0.1-0.2-0.2-0.2-0.2c0,0-0.1,0-0.1-0.1c-0.1,0-0.1-0.1-0.2-0.1c0,0-0.1-0.1-0.1-0.1c0,0-0.1-0.1-0.1-0.1
		c-0.1,0-0.1-0.1-0.2-0.1c0,0-0.1,0-0.1-0.1c-0.1,0-0.1-0.1-0.2-0.1c0,0,0,0-0.1,0c-0.2-0.1-0.5-0.2-0.7-0.2c0,0-0.1,0-0.1,0
		c-0.1,0-0.1,0-0.2,0c-0.1,0-0.1,0-0.2,0c0,0-0.1,0-0.1,0c0,0,0,0-0.1,0L98,47L113.7,42.8z M161.6,169.7c-0.7,1.1-1.8,1.9-3.1,2.2
		l0,0l-34.6,9.3c-1.3,0.4-2.7,0.2-3.8-0.3c-1-0.5-1.7-1.3-2-2.3l-1.4-5.1l44.1-11.8l1.4,5.1C162.4,167.7,162.2,168.8,161.6,169.7z"
		/>
	<path class="st4" d="M118.5,85.2L118.5,85.2c-2.1,0.6-3.2,2.6-2.7,4.5c0.4,1.6,1.9,2.7,3.6,2.7c0.3,0,0.6,0,1-0.1l0.1,0
		c2-0.5,3.1-2.5,2.6-4.5C122.5,85.9,120.5,84.7,118.5,85.2z"/>
	<path class="st4" d="M143.9,133.2c-1.6-6.1-7.1-10.3-13.4-10.3c-1.2,0-2.4,0.2-3.6,0.5c-3.6,1-6.6,3.3-8.4,6.5
		c-1.9,3.2-2.4,7-1.4,10.6c1.6,6.1,7.1,10.3,13.4,10.3c0,0,0,0,0,0c1.2,0,2.4-0.2,3.6-0.5c3.6-1,6.6-3.3,8.4-6.5
		C144.4,140.5,144.9,136.8,143.9,133.2z M136.1,140.1c-0.9,1.5-2.3,2.6-4,3c-0.6,0.1-1.1,0.2-1.7,0.2c0,0,0,0,0,0
		c-2.9,0-5.5-2-6.3-4.8c-0.5-1.7-0.2-3.4,0.7-5c0.9-1.5,2.3-2.6,4-3c0.6-0.1,1.1-0.2,1.7-0.2c2.9,0,5.5,2,6.3,4.8
		C137.2,136.8,137,138.6,136.1,140.1z"/>
	<path class="st4" d="M84.8,0c-2,0-3.7,1.7-3.7,3.7v9.9c0,2,1.7,3.7,3.7,3.7c2,0,3.7-1.7,3.7-3.7V3.7C88.5,1.7,86.9,0,84.8,0z"/>
	<path class="st4" d="M66.1,22.2c0.7,1.2,1.9,1.8,3.2,1.8c0.6,0,1.3-0.2,1.9-0.5c1.8-1,2.3-3.3,1.3-5l-5-8.5c-1-1.8-3.3-2.3-5-1.3
		c-1.8,1-2.3,3.3-1.3,5L66.1,22.2z"/>
	<path class="st4" d="M98.5,23.6c0.6,0.3,1.2,0.5,1.9,0.5c1.3,0,2.5-0.7,3.2-1.8l5-8.5c1-1.8,0.4-4-1.3-5c-1.8-1-4-0.4-5,1.3l-5,8.5
		C96.1,20.3,96.7,22.5,98.5,23.6z"/>
</g>
</svg>
