<?xml version="1.0" encoding="utf-8"?>
<!-- Generator: Adobe Illustrator 22.1.0, SVG Export Plug-In . SVG Version: 6.00 Build 0)  -->
<svg version="1.1" id="レイヤー_1" xmlns="http://www.w3.org/2000/svg" xmlns:xlink="http://www.w3.org/1999/xlink" x="0px"
	 y="0px" viewBox="0 0 201.2 201.2" style="enable-background:new 0 0 201.2 201.2;" xml:space="preserve">
<style type="text/css">
	.st0{fill:#36533D;}
	.st1{fill:#EB7768;}
	.st2{fill:#C74E4F;}
	.st3{fill:#FFFFFF;}
	.st4{fill:#A62F37;}
	.st5{fill:#6FC1BF;}
	.st6{fill:#38321F;}
	.st7{fill:#ED8F89;}
	.st8{fill:#CE7A75;}
	.st9{fill:#3A717C;}
</style>
<g>
	<g>
		<g>
			<g>
				<g>
					<path class="st0" d="M18.3,96.1c-4.7-4.8-6.7-10.1-6.2-15.7c1.2-12.3,14.7-21.7,15.3-22.1l1.1,1.5C28.4,60,15.1,69.2,14,80.6
						c-0.5,5,1.4,9.8,5.7,14.2L18.3,96.1z"/>
					<path class="st0" d="M17.3,67.3c2.1-0.2,3.5-2,3.5-2s-1.8-1.3-3.9-1.1c-2.1,0.2-3.5,2-3.5,2S15.3,67.6,17.3,67.3z"/>
					<path class="st0" d="M13.3,72c2.4-0.5,4.1-2.4,4.1-2.4s-2.3-1.2-4.7-0.8c-2.4,0.5-4.1,2.4-4.1,2.4S10.9,72.5,13.3,72z"/>
					<path class="st0" d="M9.9,80c3.1-1.9,4.4-5.2,4.4-5.2s-3.6-0.1-6.6,1.8c-3.1,1.9-4.4,5.2-4.4,5.2S6.9,82,9.9,80z"/>
					<path class="st0" d="M10.4,86.1c2-1.5,2.7-4.1,2.7-4.1s-2.7-0.3-4.7,1.2c-2,1.5-2.7,4.1-2.7,4.1S8.4,87.6,10.4,86.1z"/>
					<path class="st0" d="M13.6,92.1c0.7-2.3,0-4.6,0-4.6s-1.9,1.5-2.7,3.8c-0.7,2.3,0,4.6,0,4.6S12.8,94.4,13.6,92.1z"/>
					<path class="st0" d="M20.5,93.2c-2.3-2.2-5.4-2.7-5.4-2.7s0.6,3.1,2.9,5.3c2.3,2.2,5.4,2.7,5.4,2.7S22.8,95.4,20.5,93.2z"/>
					<path class="st0" d="M17.5,86.6c-2-1.4-4.4-1.5-4.4-1.5s0.8,2.3,2.8,3.7c2,1.4,4.4,1.5,4.4,1.5S19.5,88,17.5,86.6z"/>
					<path class="st0" d="M18,80.3c-1.8-2-4.7-2.4-4.7-2.4s0.1,2.9,1.9,4.9c1.8,2,4.7,2.4,4.7,2.4S19.8,82.3,18,80.3z"/>
					<path class="st0" d="M24.4,66.9c-0.3-1.9-1.6-3.3-1.6-3.3s-0.8,1.7-0.5,3.6s1.6,3.3,1.6,3.3S24.7,68.8,24.4,66.9z"/>
				</g>
				<g>
					<path class="st0" d="M24.9,79.7c-4.2-3-6-7.9-5.1-14.2l1.8,0.3c-0.6,3.9-0.3,9.2,4.3,12.4L24.9,79.7z"/>
					<path class="st0" d="M19.4,73c1-1.6,1-3.5,1-3.5s-1.8,0.7-2.8,2.4c-1,1.6-1,3.5-1,3.5S18.4,74.6,19.4,73z"/>
					<path class="st0" d="M20.8,77.6c0.9-1.6,0.7-3.3,0.7-3.3S20,75,19.1,76.6c-0.9,1.6-0.7,3.3-0.7,3.3S19.9,79.1,20.8,77.6z"/>
					<path class="st0" d="M24.3,72.4c-1.7-0.8-3.5-0.6-3.5-0.6s0.9,1.6,2.5,2.5c1.7,0.8,3.5,0.6,3.5,0.6S25.9,73.2,24.3,72.4z"/>
				</g>
				<path class="st0" d="M22.7,82.3c-1.4-2.7-0.5-5.7-0.4-5.8l1.8,0.6l-0.9-0.3l0.9,0.3c0,0-0.7,2.3,0.3,4.4L22.7,82.3z"/>
				<g>
					
						<ellipse transform="matrix(5.663162e-02 -0.9984 0.9984 5.663162e-02 -54.4218 99.9154)" class="st1" cx="25.7" cy="78.8" rx="1.1" ry="1.1"/>
				</g>
				<g>
					<path class="st1" d="M24.5,83.5c0.5-0.3,0.7-1,0.4-1.6c-0.3-0.5-1-0.7-1.6-0.4c-0.5,0.3-0.7,1-0.4,1.6
						C23.2,83.6,23.9,83.8,24.5,83.5z"/>
				</g>
			</g>
			<g>
				<g>
					<path class="st0" d="M30.6,56.3l-1.9-0.1c0.1-0.7,1.4-17.1,11.5-24.3c4.6-3.3,10.2-4.1,16.7-2.5l-0.5,1.8
						c-5.9-1.5-11-0.8-15.1,2.2C32,40.1,30.6,56.1,30.6,56.3z"/>
					<path class="st0" d="M31.4,42.9c0.8,1.9,0.1,4,0.1,4s-2.1-0.9-2.9-2.8c-0.8-1.9-0.1-4-0.1-4S30.6,41,31.4,42.9z"/>
					<path class="st0" d="M33.5,37.1c0.8,2.3,0,4.8,0,4.8s-2.2-1.4-3-3.7c-0.8-2.3,0-4.8,0-4.8S32.7,34.8,33.5,37.1z"/>
					<path class="st0" d="M38.7,30.1c-0.2,3.6-2.3,6.5-2.3,6.5s-1.9-3-1.8-6.6c0.2-3.6,2.3-6.5,2.3-6.5S38.9,26.5,38.7,30.1z"/>
					<path class="st0" d="M44.3,27.5c-0.2,2.5-2.2,4.3-2.2,4.3s-1.6-2.2-1.3-4.7c0.2-2.5,2.2-4.3,2.2-4.3S44.5,25,44.3,27.5z"/>
					<path class="st0" d="M51,27.3c-1.6,1.8-4,2.4-4,2.4s0.3-2.4,2-4.2c1.6-1.8,4-2.4,4-2.4S52.6,25.5,51,27.3z"/>
					<path class="st0" d="M55.4,32.7c-3.1-0.9-5.1-3.3-5.1-3.3s3-1,6.1-0.2c3.1,0.9,5.1,3.3,5.1,3.3S58.5,33.6,55.4,32.7z"/>
					<path class="st0" d="M48.2,33.5c-2.2-1-3.5-3-3.5-3s2.4-0.5,4.6,0.5c2.2,1,3.5,3,3.5,3S50.4,34.4,48.2,33.5z"/>
					<path class="st0" d="M43,37c-2.6-0.6-4.4-2.8-4.4-2.8s2.5-1.4,5.2-0.8c2.6,0.6,4.4,2.8,4.4,2.8S45.6,37.6,43,37z"/>
					<path class="st0" d="M34.6,49.3c-1.8,0.7-3.7,0.2-3.7,0.2s1.1-1.6,2.9-2.3c1.8-0.7,3.7-0.2,3.7-0.2S36.4,48.6,34.6,49.3z"/>
				</g>
				<g>
					<path class="st0" d="M32.2,47.5L31,46c5-4,10.2-4.9,14.9-2.7L45.1,45C40.1,42.6,35.3,45,32.2,47.5z"/>
					<path class="st0" d="M37.4,41.9c-0.9,1.7-2.6,2.6-2.6,2.6s-0.2-1.9,0.6-3.6c0.9-1.7,2.6-2.6,2.6-2.6S38.3,40.2,37.4,41.9z"/>
					<path class="st0" d="M42,40.8c-0.9,1.6-2.5,2.3-2.5,2.3s-0.1-1.8,0.8-3.3c0.9-1.6,2.5-2.3,2.5-2.3S42.9,39.2,42,40.8z"/>
					<path class="st0" d="M39.3,46.4c-1.6-1-2.2-2.7-2.2-2.7s1.8-0.1,3.4,1c1.6,1,2.2,2.7,2.2,2.7S40.8,47.4,39.3,46.4z"/>
				</g>
				<path class="st0" d="M43.2,43.8l-1.4-1.2c0.1-0.1,2.2-2.4,5.2-2.5l0.1,1.9C44.9,42,43.2,43.8,43.2,43.8z"/>
				<g>
					<path class="st1" d="M46.6,44.4c0,0.6-0.5,1.1-1.2,1.1c-0.6,0-1.1-0.5-1.1-1.2c0-0.6,0.5-1.1,1.2-1.1
						C46.1,43.3,46.6,43.8,46.6,44.4z"/>
				</g>
				<g>
					<path class="st1" d="M49,41c0,0.6-0.5,1.1-1.2,1.1c-0.6,0-1.1-0.5-1.1-1.2c0-0.6,0.5-1.1,1.2-1.1C48.5,39.9,49,40.4,49,41z"/>
				</g>
			</g>
			<g>
				<g>
					<path class="st1" d="M36.8,64.2c-2-2.3-6.1-4.3-7.8-2.8c-1.8,1.5-0.5,5.9,1.4,8.2l0.1-1.9l1.9,0.6l-0.2-1.9l1.7,0.7l-0.1-1.9
						l1.5,0.7l-0.4-1.7L36.8,64.2z"/>
				</g>
				<path class="st0" d="M28.2,62.7c0.5,0.2,1.2,0.1,1.7-0.3c0.5-0.4,0.7-1,0.6-1.6c-0.6,0-1.1,0.2-1.5,0.5
					C28.6,61.7,28.3,62.2,28.2,62.7z"/>
			</g>
			<g>
				<g>
					<path class="st1" d="M16.4,48.6c2.6,3.2,8.2,6.1,10.7,4.1c2.5-2,0.8-8.1-1.8-11.3l-0.2,2.6L22.5,43l0.3,2.6l-2.3-0.9l0,2.6
						l-2.1-1l0.5,2.4L16.4,48.6z"/>
				</g>
				<path class="st0" d="M28.2,50.8c-0.7-0.3-1.6-0.1-2.3,0.4c-0.7,0.5-0.9,1.4-0.8,2.1c0.8,0,1.5-0.2,2.1-0.7
					C27.7,52.2,28,51.6,28.2,50.8z"/>
			</g>
			<g>
				<g>
					<path class="st1" d="M57.7,36.3c-2.2-1.2-5.9-1.4-6.8,0.3c-0.9,1.7,1.4,4.6,3.6,5.8L54,40.9l1.6-0.1l-0.7-1.3l1.5,0L55.8,38
						l1.4,0l-0.8-1.2L57.7,36.3z"/>
				</g>
				<path class="st0" d="M50.8,37.9c0.5,0,0.9-0.3,1.2-0.7c0.2-0.5,0.2-1,0-1.4c-0.4,0.2-0.8,0.5-1,0.8C50.7,37,50.7,37.4,50.8,37.9
					z"/>
			</g>
			<g>
				<g>
					<path class="st1" d="M7.7,96.1c1.7-1.9,2.8-5.4,1.4-6.7c-1.4-1.3-4.8,0.3-6.5,2.2l1.5-0.1l-0.3,1.6l1.5-0.4l-0.3,1.4l1.5-0.3
						l-0.4,1.3l1.3-0.5L7.7,96.1z"/>
				</g>
				<path class="st0" d="M7.8,89c-0.1,0.5,0.1,1,0.4,1.3c0.4,0.3,0.9,0.4,1.3,0.3c-0.1-0.5-0.3-0.9-0.6-1.1C8.7,89.1,8.3,89,7.8,89z
					"/>
			</g>
			<g>
				<g>
					<g>
						<path class="st2" d="M35.6,60.1c-2.4-0.3-4.1-2.2-3.9-4.4c0.2-2.2,2.4-3.8,4.7-3.5c2.4,0.3,4.1,2.2,3.9,4.4
							C40.1,58.7,37.9,60.3,35.6,60.1z"/>
					</g>
					<path class="st2" d="M38.7,57.4c0,0,1.6,0,3.3,1.8c0,0,0.1-1.4-0.8-2.3c0,0,1.2,0.4,2.2-0.5c0,0-0.5-0.6-1.1-0.8
						c-0.5-0.1-1-0.1-1-0.1s1.1-1,0.8-2.2c0,0-2,2-3.3,1.7"/>
				</g>
				<path class="st3" d="M34.8,58.7c-1.1-0.4-1.7-1.3-1.5-2c0.3-0.7,1.3-0.9,2.4-0.4c1.1,0.4,1.7,1.3,1.5,2
					C36.9,58.9,35.8,59.1,34.8,58.7z"/>
			</g>
			<g>
				<g>
					<g>
						<path class="st2" d="M22.9,55.1c1.4-0.1,2.7,1,2.7,2.3c0.1,1.3-1.1,2.4-2.5,2.5c-1.4,0.1-2.7-1-2.7-2.3
							C20.4,56.3,21.5,55.2,22.9,55.1z"/>
					</g>
					<path class="st2" d="M21.3,57c0,0-0.9,0.1-2.1-0.8c0,0,0,0.9,0.7,1.3c0,0-0.8-0.1-1.3,0.5c0,0,0.4,0.3,0.8,0.3
						c0.3,0,0.6,0,0.6,0s-0.6,0.7-0.3,1.3c0,0,1-1.4,1.8-1.3"/>
				</g>
				<path class="st3" d="M23.5,55.8c0.7,0.2,1.2,0.6,1.1,1c-0.1,0.4-0.7,0.6-1.4,0.5c-0.7-0.2-1.2-0.6-1.1-1
					C22.2,55.9,22.8,55.7,23.5,55.8z"/>
			</g>
			<g>
				<path class="st1" d="M18.8,60.5c0.3,0.2,0.4,0.6,0.3,0.9c-0.2,0.3-0.6,0.4-0.9,0.3c-0.3-0.2-0.4-0.6-0.3-0.9
					C18,60.4,18.5,60.3,18.8,60.5z"/>
			</g>
			<g>
				<path class="st2" d="M9.2,62.5c0.5,0.3,0.7,0.9,0.4,1.4c-0.3,0.5-0.9,0.7-1.4,0.4c-0.5-0.3-0.7-0.9-0.4-1.4
					C8,62.3,8.7,62.2,9.2,62.5z"/>
			</g>
			<g>
				<path class="st1" d="M40.4,51c0.3,0.2,0.4,0.6,0.3,0.9c-0.2,0.3-0.6,0.4-0.9,0.3c-0.3-0.2-0.4-0.6-0.3-0.9
					C39.6,50.9,40,50.8,40.4,51z"/>
			</g>
			<g>
				<path class="st2" d="M46.7,22.1c0.5,0.3,0.7,0.9,0.4,1.4c-0.3,0.5-0.9,0.7-1.4,0.4c-0.5-0.3-0.7-0.9-0.4-1.4
					C45.6,22,46.2,21.8,46.7,22.1z"/>
			</g>
			<g>
				<path class="st1" d="M57.4,23.2c0.5,0.3,0.7,0.9,0.4,1.4c-0.3,0.5-0.9,0.7-1.4,0.4c-0.5-0.3-0.7-0.9-0.4-1.4
					C56.3,23.1,56.9,22.9,57.4,23.2z"/>
			</g>
			<g>
				<path class="st2" d="M6.1,96.7c0.5,0.3,0.7,0.9,0.4,1.4c-0.3,0.5-0.9,0.7-1.4,0.4c-0.5-0.3-0.7-0.9-0.4-1.4
					C4.9,96.6,5.5,96.4,6.1,96.7z"/>
			</g>
			<g>
				<path class="st2" d="M23.1,87.1c0.3,0.2,0.4,0.6,0.3,0.9c-0.2,0.3-0.6,0.4-0.9,0.3c-0.3-0.2-0.4-0.6-0.3-0.9
					C22.4,87,22.8,86.9,23.1,87.1z"/>
			</g>
			<g>
				<path class="st1" d="M15.6,93.9c0.3,0.2,0.4,0.6,0.3,0.9c-0.2,0.3-0.6,0.4-0.9,0.3c-0.3-0.2-0.4-0.6-0.3-0.9
					C14.8,93.8,15.3,93.7,15.6,93.9z"/>
			</g>
			<g>
				<path class="st1" d="M7.4,73.5c0.3,0.2,0.4,0.6,0.3,0.9c-0.2,0.3-0.6,0.4-0.9,0.3c-0.3-0.2-0.4-0.6-0.3-0.9
					C6.6,73.4,7,73.3,7.4,73.5z"/>
			</g>
			<g>
				<path class="st2" d="M30.6,72.4c0.5,0.3,0.7,0.9,0.4,1.4c-0.3,0.5-0.9,0.7-1.4,0.4c-0.5-0.3-0.7-0.9-0.4-1.4
					C29.5,72.3,30.1,72.1,30.6,72.4z"/>
			</g>
			<g>
				<path class="st1" d="M29.9,81.7c0.3,0.2,0.4,0.6,0.3,0.9c-0.2,0.3-0.6,0.4-0.9,0.3c-0.3-0.2-0.4-0.6-0.3-0.9
					C29.1,81.6,29.5,81.5,29.9,81.7z"/>
			</g>
			<g>
				<path class="st1" d="M16,55.6c0.3,0.2,0.4,0.6,0.3,0.9c-0.2,0.3-0.6,0.4-0.9,0.3c-0.3-0.2-0.4-0.6-0.3-0.9
					C15.3,55.5,15.7,55.4,16,55.6z"/>
			</g>
			<g>
				<path class="st2" d="M47.8,49.3c0.3,0.2,0.4,0.6,0.3,0.9c-0.2,0.3-0.6,0.4-0.9,0.3c-0.3-0.2-0.4-0.6-0.3-0.9
					C47,49.2,47.4,49.1,47.8,49.3z"/>
			</g>
			<g>
				<path class="st1" d="M24,35.5c0.3,0.2,0.4,0.6,0.3,0.9c-0.2,0.3-0.6,0.4-0.9,0.3c-0.3-0.2-0.4-0.6-0.3-0.9
					C23.2,35.4,23.6,35.3,24,35.5z"/>
			</g>
		</g>
		<g>
			<g>
				<g>
					<path class="st0" d="M49.4,170.4c-3.9,0-7.5-1.1-10.5-3.3c-10-7.2-11.4-23.6-11.5-24.3l1.9-0.1c0,0.2,1.4,16.2,10.7,22.9
						c4.1,2.9,9.2,3.7,15.1,2.2l0.5,1.8C53.4,170.2,51.4,170.4,49.4,170.4z"/>
					<path class="st0" d="M30.2,156.1c0.8-1.9,0.1-4,0.1-4s-2.1,0.9-2.9,2.8s-0.1,4-0.1,4S29.3,158,30.2,156.1z"/>
					<path class="st0" d="M32.2,161.9c0.8-2.3,0-4.8,0-4.8s-2.2,1.4-3,3.7c-0.8,2.3,0,4.8,0,4.8S31.4,164.2,32.2,161.9z"/>
					<path class="st0" d="M37.5,168.8c-0.2-3.6-2.3-6.5-2.3-6.5s-1.9,3-1.8,6.6c0.2,3.6,2.3,6.5,2.3,6.5S37.6,172.5,37.5,168.8z"/>
					<path class="st0" d="M43,171.5c-0.2-2.5-2.2-4.3-2.2-4.3s-1.6,2.2-1.3,4.7c0.2,2.5,2.2,4.3,2.2,4.3S43.2,174,43,171.5z"/>
					<path class="st0" d="M49.7,171.7c-1.6-1.8-4-2.4-4-2.4s0.3,2.4,2,4.2c1.6,1.8,4,2.4,4,2.4S51.4,173.5,49.7,171.7z"/>
					<path class="st0" d="M54.1,166.3c-3.1,0.9-5.1,3.3-5.1,3.3s3,1,6.1,0.2c3.1-0.9,5.1-3.3,5.1-3.3S57.2,165.4,54.1,166.3z"/>
					<path class="st0" d="M46.9,165.5c-2.2,1-3.5,3-3.5,3s2.4,0.5,4.6-0.5c2.2-1,3.5-3,3.5-3S49.1,164.5,46.9,165.5z"/>
					<path class="st0" d="M41.7,162c-2.6,0.6-4.4,2.8-4.4,2.8s2.5,1.4,5.2,0.8c2.6-0.6,4.4-2.8,4.4-2.8S44.3,161.4,41.7,162z"/>
					<path class="st0" d="M33.3,149.7c-1.8-0.7-3.7-0.2-3.7-0.2s1.1,1.6,2.9,2.3c1.8,0.7,3.7,0.2,3.7,0.2S35.1,150.4,33.3,149.7z"/>
				</g>
				<g>
					<path class="st0" d="M39.5,156.8c-3.2,0-6.5-1.3-9.8-3.9l1.2-1.5c3.1,2.5,7.9,4.9,12.9,2.5l0.8,1.7
						C43,156.5,41.3,156.8,39.5,156.8z"/>
					<path class="st0" d="M36.1,157.1c-0.9-1.7-2.6-2.6-2.6-2.6s-0.2,1.9,0.6,3.6c0.9,1.7,2.6,2.6,2.6,2.6S37,158.8,36.1,157.1z"/>
					<path class="st0" d="M40.7,158.2c-0.9-1.6-2.5-2.3-2.5-2.3s-0.1,1.8,0.8,3.3c0.9,1.6,2.5,2.3,2.5,2.3S41.7,159.7,40.7,158.2z"
						/>
					<path class="st0" d="M38,152.6c-1.6,1-2.2,2.7-2.2,2.7s1.8,0.1,3.4-1c1.6-1,2.2-2.7,2.2-2.7S39.5,151.6,38,152.6z"/>
				</g>
				<path class="st0" d="M45.8,158.9c-3.1-0.1-5.1-2.4-5.2-2.5l1.4-1.2c0,0,1.7,1.8,3.9,1.9L45.8,158.9z"/>
				<g>
					<path class="st1" d="M45.3,154.5c0-0.6-0.5-1.1-1.2-1.1c-0.6,0-1.1,0.5-1.1,1.2s0.5,1.1,1.2,1.1
						C44.9,155.7,45.4,155.2,45.3,154.5z"/>
				</g>
				<g>
					<path class="st1" d="M47.7,158c0-0.6-0.5-1.1-1.2-1.1c-0.6,0-1.1,0.5-1.1,1.2c0,0.6,0.5,1.1,1.2,1.1
						C47.2,159.1,47.7,158.6,47.7,158z"/>
				</g>
			</g>
			<g>
				<g>
					<path class="st0" d="M26.2,140.6c-0.6-0.4-14.1-9.8-15.3-22.1c-0.6-5.6,1.5-10.9,6.2-15.7l1.3,1.3c-4.3,4.4-6.2,9.2-5.7,14.2
						c1.2,11.5,14.4,20.6,14.5,20.7L26.2,140.6z"/>
					<path class="st0" d="M16,131.6c2.1,0.2,3.5,2,3.5,2s-1.8,1.3-3.9,1.1c-2.1-0.2-3.5-2-3.5-2S14,131.4,16,131.6z"/>
					<path class="st0" d="M12.1,127c2.4,0.5,4.1,2.4,4.1,2.4s-2.3,1.2-4.7,0.8c-2.4-0.5-4.1-2.4-4.1-2.4S9.6,126.5,12.1,127z"/>
					<path class="st0" d="M8.6,118.9c3.1,1.9,4.4,5.2,4.4,5.2s-3.6,0.1-6.6-1.8c-3.1-1.9-4.4-5.2-4.4-5.2S5.6,117,8.6,118.9z"/>
					<path class="st0" d="M9.1,112.8c2,1.5,2.7,4.1,2.7,4.1s-2.7,0.3-4.7-1.2c-2-1.5-2.7-4.1-2.7-4.1S7.1,111.4,9.1,112.8z"/>
					<path class="st0" d="M12.3,106.9c0.7,2.3,0,4.6,0,4.6s-1.9-1.5-2.7-3.8c-0.7-2.3,0-4.6,0-4.6S11.6,104.6,12.3,106.9z"/>
					<path class="st0" d="M19.2,105.8c-2.3,2.2-5.4,2.7-5.4,2.7s0.6-3.1,2.9-5.3c2.3-2.2,5.4-2.7,5.4-2.7S21.5,103.6,19.2,105.8z"/>
					<path class="st0" d="M16.3,112.4c-2,1.4-4.4,1.5-4.4,1.5s0.8-2.3,2.8-3.7c2-1.4,4.4-1.5,4.4-1.5S18.2,111,16.3,112.4z"/>
					<path class="st0" d="M16.7,118.7c-1.8,2-4.7,2.4-4.7,2.4s0.1-2.9,1.9-4.9c1.8-2,4.7-2.4,4.7-2.4S18.5,116.7,16.7,118.7z"/>
					<path class="st0" d="M23.1,132.1c-0.3,1.9-1.6,3.3-1.6,3.3s-0.8-1.7-0.5-3.6c0.3-1.9,1.6-3.3,1.6-3.3S23.5,130.2,23.1,132.1z"
						/>
				</g>
				<g>
					<path class="st0" d="M18.5,133.6c-0.9-6.4,0.8-11.3,5.1-14.2l1.1,1.5c-4.6,3.2-4.9,8.5-4.3,12.4L18.5,133.6z"/>
					<path class="st0" d="M18.2,126c1,1.6,1,3.5,1,3.5s-1.8-0.7-2.8-2.4c-1-1.6-1-3.5-1-3.5S17.1,124.4,18.2,126z"/>
					<path class="st0" d="M19.5,121.4c0.9,1.6,0.7,3.3,0.7,3.3s-1.6-0.8-2.5-2.4c-0.9-1.6-0.7-3.3-0.7-3.3S18.6,119.9,19.5,121.4z"
						/>
					<path class="st0" d="M23,126.6c-1.7,0.8-3.5,0.6-3.5,0.6s0.9-1.6,2.5-2.5c1.7-0.8,3.5-0.6,3.5-0.6S24.6,125.8,23,126.6z"/>
				</g>
				<path class="st0" d="M20.9,122.5c0-0.1-1-3.1,0.4-5.8l1.7,0.9c-1,2-0.3,4.3-0.3,4.4L20.9,122.5z"/>
				<g>
					<circle class="st1" cx="24.4" cy="120.2" r="1.1"/>
				</g>
				<g>
					<path class="st1" d="M23.2,115.5c0.5,0.3,0.7,1,0.4,1.6c-0.3,0.5-1,0.7-1.6,0.4c-0.5-0.3-0.7-1-0.4-1.6
						C22,115.4,22.7,115.2,23.2,115.5z"/>
				</g>
			</g>
			<g>
				<g>
					<path class="st1" d="M37.2,137.7c-3,0.5-6.8,3.1-6.4,5.4c0.4,2.3,4.8,3.4,7.8,2.9l-1.6-1l1.5-1.3l-1.7-0.7l1.4-1.1l-1.7-0.9
						l1.4-1l-1.7-0.5L37.2,137.7z"/>
				</g>
				<path class="st0" d="M31.6,144.4c0.4-0.4,0.7-1,0.6-1.6c-0.1-0.6-0.5-1.1-1.1-1.3c-0.3,0.5-0.4,1-0.3,1.5
					C30.9,143.5,31.2,144,31.6,144.4z"/>
			</g>
			<g>
				<g>
					<path class="st1" d="M13.5,147.5c4.1-0.7,9.4-4.1,8.9-7.2c-0.5-3.1-6.6-4.8-10.7-4.1l2.1,1.5l-2.1,1.8l2.4,1l-1.9,1.5l2.3,1.3
						l-1.9,1.3l2.3,0.7L13.5,147.5z"/>
				</g>
				<path class="st0" d="M21.2,138.4c-0.6,0.5-0.9,1.3-0.8,2.2c0.1,0.8,0.7,1.5,1.4,1.8c0.4-0.7,0.6-1.4,0.5-2.1
					C22.2,139.6,21.8,139,21.2,138.4z"/>
			</g>
			<g>
				<g>
					<path class="st1" d="M23.5,105.6c-2.1,1.3-4.2,4.4-3.2,6.1c1,1.6,4.7,1.1,6.8-0.2l-1.5-0.3l0.7-1.5l-1.5,0l0.7-1.3l-1.6-0.2
						l0.7-1.2l-1.4,0.1L23.5,105.6z"/>
				</g>
				<path class="st0" d="M21.3,112.4c0.2-0.4,0.2-0.9-0.1-1.4c-0.3-0.4-0.7-0.7-1.2-0.7c0,0.5,0,0.9,0.2,1.3
					C20.5,112,20.9,112.2,21.3,112.4z"/>
			</g>
			<g>
				<g>
					<path class="st1" d="M50.2,178.9c-0.8-2.4-3.3-5.1-5.1-4.5c-1.8,0.6-2.2,4.3-1.4,6.7l0.7-1.4l1.3,1.1l0.4-1.5l1.1,1l0.5-1.5
						l1,1l0.2-1.4L50.2,178.9z"/>
				</g>
				<path class="st0" d="M44.1,175.2c0.4,0.3,0.9,0.4,1.4,0.3c0.5-0.2,0.8-0.6,0.9-1c-0.4-0.2-0.9-0.2-1.3-0.1
					C44.7,174.5,44.4,174.8,44.1,175.2z"/>
			</g>
			<g>
				<g>
					<g>
						<path class="st2" d="M33,136.7c-1.4,1.9-4,2.5-5.8,1.2c-1.8-1.3-2.1-3.9-0.7-5.9s4-2.5,5.8-1.2
							C34.1,132.1,34.4,134.7,33,136.7z"/>
					</g>
					<path class="st2" d="M32.3,132.6c0,0,0.8-1.4,3.2-2c0,0-1.2-0.8-2.3-0.5c0,0,0.9-0.9,0.6-2.2c0,0-0.8,0.2-1.2,0.6
						c-0.4,0.4-0.6,0.8-0.6,0.8s-0.3-1.5-1.5-1.7c0,0,0.7,2.7-0.2,3.8"/>
				</g>
				<path class="st3" d="M31.4,136.7c-0.9,0.7-2,0.9-2.4,0.3c-0.4-0.6-0.1-1.6,0.8-2.3c0.9-0.7,2-0.9,2.4-0.3
					C32.7,134.9,32.3,136,31.4,136.7z"/>
			</g>
			<g>
				<g>
					<g>
						<path class="st2" d="M22.4,145.1c0.7-1.3,2.2-1.8,3.3-1.2c1.2,0.6,1.6,2.1,0.9,3.4c-0.7,1.3-2.2,1.8-3.3,1.2
							C22.1,147.9,21.7,146.4,22.4,145.1z"/>
					</g>
					<path class="st2" d="M23.2,147.5c0,0-0.4,0.9-1.7,1.5c0,0,0.8,0.4,1.4,0.1c0,0-0.5,0.6-0.2,1.4c0,0,0.5-0.2,0.7-0.5
						c0.2-0.3,0.3-0.5,0.3-0.5s0.3,0.9,1,0.9c0,0-0.7-1.6-0.2-2.3"/>
				</g>
				<path class="st3" d="M23.3,145c0.5-0.5,1.1-0.7,1.4-0.4c0.3,0.3,0.2,0.9-0.3,1.5c-0.5,0.5-1.1,0.7-1.4,0.4
					C22.7,146.1,22.8,145.5,23.3,145z"/>
			</g>
			<g>
				<path class="st1" d="M25,151.4c0.3-0.2,0.8-0.1,0.9,0.3c0.2,0.3,0.1,0.8-0.3,0.9c-0.3,0.2-0.8,0.1-0.9-0.3
					C24.5,152,24.6,151.6,25,151.4z"/>
			</g>
			<g>
				<path class="st2" d="M21.9,160.7c0.5-0.3,1.2-0.1,1.4,0.4c0.3,0.5,0.1,1.2-0.4,1.4c-0.5,0.3-1.2,0.1-1.4-0.4
					C21.2,161.6,21.4,161,21.9,160.7z"/>
			</g>
			<g>
				<path class="st1" d="M27.5,128c0.3-0.2,0.8-0.1,0.9,0.3c0.2,0.3,0.1,0.8-0.3,0.9c-0.3,0.2-0.8,0.1-0.9-0.3
					C27.1,128.6,27.2,128.2,27.5,128z"/>
			</g>
			<g>
				<path class="st2" d="M5.7,108c0.5-0.3,1.2-0.1,1.4,0.4s0.1,1.2-0.4,1.4c-0.5,0.3-1.2,0.1-1.4-0.4C5,108.9,5.2,108.3,5.7,108z"/>
			</g>
			<g>
				<path class="st1" d="M12,99.3c0.5-0.3,1.2-0.1,1.4,0.4c0.3,0.5,0.1,1.2-0.4,1.4c-0.5,0.3-1.2,0.1-1.4-0.4
					C11.3,100.2,11.5,99.6,12,99.3z"/>
			</g>
			<g>
				<path class="st2" d="M50,180.5c0.5-0.3,1.2-0.1,1.4,0.4c0.3,0.5,0.1,1.2-0.4,1.4c-0.5,0.3-1.2,0.1-1.4-0.4
					C49.3,181.5,49.4,180.8,50,180.5z"/>
			</g>
			<g>
				<path class="st2" d="M50.2,160.9c0.3-0.2,0.8-0.1,0.9,0.3c0.2,0.3,0.1,0.8-0.3,0.9c-0.3,0.2-0.8,0.1-0.9-0.3
					C49.7,161.5,49.8,161.1,50.2,160.9z"/>
			</g>
			<g>
				<path class="st1" d="M52.3,170.9c0.3-0.2,0.8-0.1,0.9,0.3c0.2,0.3,0.1,0.8-0.3,0.9c-0.3,0.2-0.8,0.1-0.9-0.3
					S52,171.1,52.3,170.9z"/>
			</g>
			<g>
				<path class="st1" d="M30.5,167.8c0.3-0.2,0.8-0.1,0.9,0.3c0.2,0.3,0.1,0.8-0.3,0.9c-0.3,0.2-0.8,0.1-0.9-0.3
					C30,168.4,30.1,168,30.5,167.8z"/>
			</g>
			<g>
				<path class="st2" d="M41.2,147.1c0.5-0.3,1.2-0.1,1.4,0.4c0.3,0.5,0.1,1.2-0.4,1.4c-0.5,0.3-1.2,0.1-1.4-0.4
					C40.5,148,40.7,147.4,41.2,147.1z"/>
			</g>
			<g>
				<path class="st1" d="M48.9,152.4c0.3-0.2,0.8-0.1,0.9,0.3c0.2,0.3,0.1,0.8-0.3,0.9c-0.3,0.2-0.8,0.1-0.9-0.3
					C48.4,153,48.5,152.6,48.9,152.4z"/>
			</g>
			<g>
				<path class="st1" d="M19.4,151.3c0.3-0.2,0.8-0.1,0.9,0.3c0.2,0.3,0.1,0.8-0.3,0.9c-0.3,0.2-0.8,0.1-0.9-0.3
					C18.9,152,19,151.5,19.4,151.3z"/>
			</g>
			<g>
				<path class="st2" d="M29.8,120.7c0.3-0.2,0.8-0.1,0.9,0.3c0.2,0.3,0.1,0.8-0.3,0.9c-0.3,0.2-0.8,0.1-0.9-0.3
					C29.3,121.3,29.4,120.9,29.8,120.7z"/>
			</g>
			<g>
				<path class="st1" d="M5.9,134.4c0.3-0.2,0.8-0.1,0.9,0.3c0.2,0.3,0.1,0.8-0.3,0.9c-0.3,0.2-0.8,0.1-0.9-0.3
					C5.5,135.1,5.6,134.6,5.9,134.4z"/>
			</g>
		</g>
		<g>
			<g>
				<g>
					<path class="st0" d="M118,189.1c-8.8,0-16.9-3.8-17.4-4.1l0.8-1.7c0.1,0.1,14.7,6.9,25.2,2.2c4.6-2.1,7.8-6.1,9.5-12l1.8,0.5
						c-1.8,6.4-5.4,10.9-10.5,13.2C124.4,188.6,121.2,189.1,118,189.1z"/>
					<path class="st0" d="M113.4,189.4c-1.2-1.7-3.5-2.1-3.5-2.1s-0.2,2.3,1,3.9c1.2,1.7,3.5,2.1,3.5,2.1S114.7,191,113.4,189.4z"/>
					<path class="st0" d="M119.5,190.5c-1.6-1.9-4.2-2.4-4.2-2.4s0.1,2.6,1.7,4.5c1.6,1.9,4.2,2.4,4.2,2.4S121.1,192.3,119.5,190.5z
						"/>
					<path class="st0" d="M128.1,189.4c-3.2-1.7-6.8-1.2-6.8-1.2s1.7,3.2,4.9,4.8c3.2,1.7,6.8,1.2,6.8,1.2S131.3,191.1,128.1,189.4z
						"/>
					<path class="st0" d="M133.2,185.9c-2.3-1-4.9-0.3-4.9-0.3s1.1,2.5,3.4,3.5c2.3,1,4.9,0.3,4.9,0.3S135.5,187,133.2,185.9z"/>
					<path class="st0" d="M136.7,180.2c-2.4,0.5-4,2.3-4,2.3s2.2,0.9,4.6,0.4c2.4-0.5,4-2.3,4-2.3S139.1,179.7,136.7,180.2z"/>
					<path class="st0" d="M134.2,173.7c-0.8,3.1,0.3,6.1,0.3,6.1s2.4-2.1,3.2-5.2c0.8-3.1-0.3-6.1-0.3-6.1S135,170.6,134.2,173.7z"
						/>
					<path class="st0" d="M130,179.6c-0.3,2.4,0.9,4.6,0.9,4.6s1.6-1.8,1.9-4.3c0.3-2.4-0.9-4.6-0.9-4.6S130.2,177.1,130,179.6z"/>
					<path class="st0" d="M124.3,182.3c-0.8,2.6,0.3,5.2,0.3,5.2s2.4-1.5,3.3-4.1c0.8-2.6-0.3-5.2-0.3-5.2S125.1,179.7,124.3,182.3z
						"/>
					<path class="st0" d="M109.5,183.4c-1.5,1.2-2,3.1-2,3.1s1.9-0.1,3.4-1.4c1.5-1.2,2-3.1,2-3.1S111,182.2,109.5,183.4z"/>
				</g>
				<g>
					<path class="st0" d="M110.5,188.1l-0.7-1.7c3.7-1.5,8.2-4.4,8.6-9.9l1.9,0.2C119.9,181.8,116.5,185.8,110.5,188.1z"/>
					<path class="st0" d="M117.3,184.7c-1.9-0.1-3.6,0.9-3.6,0.9s1.5,1.2,3.4,1.3c1.9,0.1,3.6-0.9,3.6-0.9S119.2,184.8,117.3,184.7z
						"/>
					<path class="st0" d="M120.5,181.2c-1.8,0-3.3,1-3.3,1s1.5,1,3.3,1c1.8,0,3.3-1,3.3-1S122.3,181.2,120.5,181.2z"/>
					<path class="st0" d="M114.3,180.8c0.1,1.9,1.2,3.3,1.2,3.3s1-1.6,0.9-3.4c-0.1-1.9-1.2-3.3-1.2-3.3S114.2,179,114.3,180.8z"/>
				</g>
				<path class="st0" d="M118.9,180.5l-0.4-1.8c0,0,2.4-0.5,3.6-2.5l1.6,1C122,179.8,119,180.5,118.9,180.5z"/>
				<g>
					<path class="st1" d="M119.7,175.4c-0.5-0.3-1.2-0.1-1.5,0.5c-0.3,0.5-0.1,1.2,0.5,1.5c0.5,0.3,1.2,0.1,1.5-0.5
						C120.4,176.4,120.2,175.7,119.7,175.4z"/>
				</g>
				<g>
					<circle class="st1" cx="123.3" cy="176.1" r="1.1"/>
				</g>
			</g>
			<g>
				<g>
					<path class="st0" d="M80.6,189.1c-3.2,0-6.4-0.5-9.4-1.8c-5.1-2.3-8.6-6.7-10.5-13.2l1.8-0.5c1.7,5.9,4.9,9.9,9.5,12
						c10.5,4.7,25.1-2.1,25.2-2.2l0.8,1.7C97.6,185.3,89.4,189.1,80.6,189.1z"/>
					<path class="st0" d="M85.2,189.4c1.2-1.7,3.5-2.1,3.5-2.1s0.2,2.3-1,3.9c-1.2,1.7-3.5,2.1-3.5,2.1S83.9,191,85.2,189.4z"/>
					<path class="st0" d="M79.2,190.5c1.6-1.9,4.2-2.4,4.2-2.4s-0.1,2.6-1.7,4.5c-1.6,1.9-4.2,2.4-4.2,2.4S77.5,192.3,79.2,190.5z"
						/>
					<path class="st0" d="M70.5,189.4c3.2-1.7,6.8-1.2,6.8-1.2s-1.7,3.2-4.9,4.8c-3.2,1.7-6.8,1.2-6.8,1.2S67.3,191.1,70.5,189.4z"
						/>
					<path class="st0" d="M65.5,185.9c2.3-1,4.9-0.3,4.9-0.3s-1.1,2.5-3.4,3.5c-2.3,1-4.9,0.3-4.9,0.3S63.2,187,65.5,185.9z"/>
					<path class="st0" d="M61.9,180.2c2.4,0.5,4,2.3,4,2.3s-2.2,0.9-4.6,0.4c-2.4-0.5-4-2.3-4-2.3S59.5,179.7,61.9,180.2z"/>
					<path class="st0" d="M64.4,173.7c0.8,3.1-0.3,6.1-0.3,6.1s-2.4-2.1-3.2-5.2c-0.8-3.1,0.3-6.1,0.3-6.1S63.6,170.6,64.4,173.7z"
						/>
					<path class="st0" d="M68.7,179.6c0.3,2.4-0.9,4.6-0.9,4.6s-1.6-1.8-1.9-4.3c-0.3-2.4,0.9-4.6,0.9-4.6S68.4,177.1,68.7,179.6z"
						/>
					<path class="st0" d="M74.3,182.3c0.8,2.6-0.3,5.2-0.3,5.2s-2.4-1.5-3.3-4.1c-0.8-2.6,0.3-5.2,0.3-5.2S73.5,179.7,74.3,182.3z"
						/>
					<path class="st0" d="M89.2,183.4c1.5,1.2,2,3.1,2,3.1s-1.9-0.1-3.4-1.4c-1.5-1.2-2-3.1-2-3.1S87.7,182.2,89.2,183.4z"/>
				</g>
				<g>
					<path class="st0" d="M88.1,188.1c-6-2.4-9.4-6.4-9.8-11.5l1.9-0.2c0.5,5.6,4.9,8.5,8.6,9.9L88.1,188.1z"/>
					<path class="st0" d="M81.4,184.7c1.9-0.1,3.6,0.9,3.6,0.9s-1.5,1.2-3.4,1.3c-1.9,0.1-3.6-0.9-3.6-0.9S79.4,184.8,81.4,184.7z"
						/>
					<path class="st0" d="M78.1,181.2c1.8,0,3.3,1,3.3,1s-1.5,1-3.3,1c-1.8,0-3.3-1-3.3-1S76.3,181.2,78.1,181.2z"/>
					<path class="st0" d="M84.3,180.8c-0.1,1.9-1.2,3.3-1.2,3.3s-1-1.6-0.9-3.4c0.1-1.9,1.2-3.3,1.2-3.3S84.4,179,84.3,180.8z"/>
				</g>
				<path class="st0" d="M79.7,180.5c-0.1,0-3.2-0.7-4.8-3.3l1.6-1c1.2,1.9,3.6,2.4,3.6,2.4L79.7,180.5z"/>
				<g>
					<path class="st1" d="M78.9,175.4c0.5-0.3,1.2-0.1,1.5,0.5c0.3,0.5,0.1,1.2-0.5,1.5c-0.5,0.3-1.2,0.1-1.5-0.5
						C78.2,176.4,78.4,175.7,78.9,175.4z"/>
				</g>
				<g>
					<path class="st1" d="M74.8,175.1c0.5-0.3,1.2-0.1,1.5,0.5c0.3,0.5,0.1,1.2-0.5,1.5c-0.5,0.3-1.2,0.1-1.5-0.5
						C74.1,176.1,74.3,175.4,74.8,175.1z"/>
				</g>
			</g>
			<g>
				<g>
					<path class="st1" d="M101,174.1c-1,2.9-0.7,7.4,1.5,8.2s5.4-2.5,6.4-5.3l-1.7,0.8l-0.4-2l-1.5,1.1l-0.3-1.8l-1.6,1l-0.2-1.7
						l-1.3,1.2L101,174.1z"/>
				</g>
				<path class="st0" d="M104,182.2c-0.1-0.6-0.5-1.1-1.1-1.3c-0.6-0.2-1.2-0.1-1.7,0.3c0.3,0.5,0.7,0.9,1.2,1
					C102.9,182.4,103.5,182.4,104,182.2z"/>
			</g>
			<g>
				<g>
					<path class="st1" d="M97.7,199.5c1.5-3.9,1.1-10.2-1.8-11.3c-3-1.1-7.4,3.3-8.9,7.2l2.3-1.1l0.5,2.7l2.1-1.5l0.3,2.4l2.2-1.3
						l0.2,2.3l1.8-1.6L97.7,199.5z"/>
				</g>
				<path class="st0" d="M93.7,188.2c0.1,0.8,0.7,1.5,1.5,1.8c0.8,0.3,1.7,0.1,2.3-0.3c-0.4-0.7-0.9-1.2-1.6-1.5
					C95.2,188,94.4,188,93.7,188.2z"/>
			</g>
			<g>
				<g>
					<path class="st1" d="M66.4,169.9c0.1,2.5,1.8,5.9,3.6,5.8c1.9-0.1,3.3-3.6,3.2-6l-1,1.2l-0.9-1.4l-0.8,1.3l-0.7-1.3l-0.9,1.3
						l-0.6-1.2l-0.6,1.3L66.4,169.9z"/>
				</g>
				<path class="st0" d="M71.2,175.1c-0.3-0.4-0.7-0.7-1.2-0.6c-0.5,0-0.9,0.3-1.2,0.7c0.4,0.3,0.8,0.4,1.2,0.4
					C70.4,175.6,70.8,175.4,71.2,175.1z"/>
			</g>
			<g>
				<g>
					<path class="st1" d="M143.2,183.3c-2.4-0.5-6.1,0.3-6.5,2.2c-0.4,1.9,2.7,4,5.1,4.5l-0.9-1.3l1.5-0.6l-1.1-1.1l1.4-0.4l-1-1.2
						l1.3-0.3l-1.1-0.9L143.2,183.3z"/>
				</g>
				<path class="st0" d="M136.9,186.8c0.4-0.2,0.8-0.5,0.9-1c0.1-0.5-0.1-1-0.4-1.3c-0.4,0.3-0.6,0.7-0.7,1.1
					C136.6,185.9,136.7,186.4,136.9,186.8z"/>
			</g>
			<g>
				<g>
					<g>
						<path class="st2" d="M98,177.2c1,2.2,0.1,4.7-1.9,5.6c-2,0.9-4.4-0.2-5.4-2.4c-1-2.2-0.1-4.7,1.9-5.6
							C94.6,174,97,175,98,177.2z"/>
					</g>
					<path class="st2" d="M94.1,175.8c0,0-0.8-1.4-0.1-3.8c0,0-1.3,0.6-1.6,1.8c0,0-0.3-1.3-1.6-1.6c0,0-0.2,0.8-0.1,1.4
						c0.1,0.5,0.4,0.9,0.4,0.9s-1.5-0.5-2.2,0.4c0,0,2.7,0.7,3.2,2"/>
				</g>
				<path class="st3" d="M97.2,178.6c0.2,1.1-0.3,2.2-1,2.3c-0.7,0.1-1.4-0.7-1.6-1.9c-0.2-1.1,0.3-2.2,1-2.3
					C96.4,176.6,97.1,177.4,97.2,178.6z"/>
			</g>
			<g>
				<g>
					<g>
						<path class="st2" d="M100.1,190.6c-0.8-1.2-0.5-2.8,0.6-3.5c1.1-0.7,2.6-0.3,3.4,0.9c0.8,1.2,0.5,2.8-0.6,3.5
							C102.4,192.2,100.8,191.8,100.1,190.6z"/>
					</g>
					<path class="st2" d="M102.5,191.1c0,0,0.6,0.7,0.4,2.2c0,0,0.7-0.5,0.8-1.2c0,0,0.3,0.7,1.1,0.8c0,0,0.1-0.5-0.1-0.8
						c-0.1-0.3-0.3-0.5-0.3-0.5s0.9,0.1,1.3-0.5c0,0-1.7-0.2-2.1-0.9"/>
				</g>
				<path class="st3" d="M100.4,189.7c-0.2-0.7,0-1.3,0.4-1.4c0.4-0.1,0.9,0.3,1.1,1c0.2,0.7,0,1.3-0.4,1.4
					C101.1,190.8,100.6,190.4,100.4,189.7z"/>
			</g>
			<g>
				<path class="st1" d="M106.7,191.5c0-0.4,0.3-0.7,0.7-0.7s0.7,0.3,0.7,0.7c0,0.4-0.3,0.7-0.7,0.7S106.7,191.9,106.7,191.5z"/>
			</g>
			<g>
				<path class="st2" d="M113.3,198.8c0-0.6,0.5-1.1,1.1-1.1c0.6,0,1.1,0.5,1.1,1.1c0,0.6-0.5,1.1-1.1,1.1
					C113.7,199.9,113.3,199.4,113.3,198.8z"/>
			</g>
			<g>
				<path class="st1" d="M87.8,177.6c0-0.4,0.3-0.7,0.7-0.7s0.7,0.3,0.7,0.7c0,0.4-0.3,0.7-0.7,0.7S87.8,177.9,87.8,177.6z"/>
			</g>
			<g>
				<path class="st2" d="M59.6,186.5c0-0.6,0.5-1.1,1.1-1.1c0.6,0,1.1,0.5,1.1,1.1c0,0.6-0.5,1.1-1.1,1.1
					C60,187.6,59.6,187.1,59.6,186.5z"/>
			</g>
			<g>
				<path class="st1" d="M55.2,176.7c0-0.6,0.5-1.1,1.1-1.1s1.1,0.5,1.1,1.1c0,0.6-0.5,1.1-1.1,1.1S55.2,177.3,55.2,176.7z"/>
			</g>
			<g>
				<path class="st2" d="M144.5,184.4c0-0.6,0.5-1.1,1.1-1.1c0.6,0,1.1,0.5,1.1,1.1c0,0.6-0.5,1.1-1.1,1.1
					C145,185.5,144.5,185,144.5,184.4z"/>
			</g>
			<g>
				<path class="st2" d="M127.6,174.4c0-0.4,0.3-0.7,0.7-0.7c0.4,0,0.7,0.3,0.7,0.7c0,0.4-0.3,0.7-0.7,0.7
					C127.9,175.1,127.6,174.8,127.6,174.4z"/>
			</g>
			<g>
				<path class="st1" d="M137.3,177.6c0-0.4,0.3-0.7,0.7-0.7c0.4,0,0.7,0.3,0.7,0.7c0,0.4-0.3,0.7-0.7,0.7
					C137.6,178.2,137.3,177.9,137.3,177.6z"/>
			</g>
			<g>
				<path class="st1" d="M123.7,194.9c0-0.4,0.3-0.7,0.7-0.7c0.4,0,0.7,0.3,0.7,0.7c0,0.4-0.3,0.7-0.7,0.7
					C124,195.6,123.7,195.3,123.7,194.9z"/>
			</g>
			<g>
				<path class="st2" d="M111.2,175.3c0-0.6,0.5-1.1,1.1-1.1c0.6,0,1.1,0.5,1.1,1.1c0,0.6-0.5,1.1-1.1,1.1
					C111.6,176.4,111.2,175.9,111.2,175.3z"/>
			</g>
			<g>
				<path class="st1" d="M119.6,171.3c0-0.4,0.3-0.7,0.7-0.7s0.7,0.3,0.7,0.7c0,0.4-0.3,0.7-0.7,0.7S119.6,171.7,119.6,171.3z"/>
			</g>
			<g>
				<circle class="st1" cx="104.6" cy="196.3" r="0.7"/>
			</g>
			<g>
				<path class="st2" d="M82.6,172c0-0.4,0.3-0.7,0.7-0.7c0.4,0,0.7,0.3,0.7,0.7c0,0.4-0.3,0.7-0.7,0.7
					C82.9,172.7,82.6,172.4,82.6,172z"/>
			</g>
			<g>
				<path class="st1" d="M82.6,199.5c0-0.4,0.3-0.7,0.7-0.7s0.7,0.3,0.7,0.7c0,0.4-0.3,0.7-0.7,0.7S82.6,199.9,82.6,199.5z"/>
			</g>
		</g>
		<g>
			<g>
				<g>
					<path class="st0" d="M173.8,142.8l-1.1-1.5c0.1-0.1,13.4-9.3,14.5-20.7c0.5-5-1.4-9.8-5.7-14.2l1.3-1.3
						c4.7,4.8,6.7,10.1,6.2,15.7C187.8,133.1,174.3,142.4,173.8,142.8z"/>
					<path class="st0" d="M183.9,133.9c-2.1,0.2-3.5,2-3.5,2s1.8,1.3,3.9,1.1c2.1-0.2,3.5-2,3.5-2S185.9,133.6,183.9,133.9z"/>
					<path class="st0" d="M187.9,129.2c-2.4,0.5-4.1,2.4-4.1,2.4s2.3,1.2,4.7,0.8c2.4-0.5,4.1-2.4,4.1-2.4S190.3,128.7,187.9,129.2z
						"/>
					<path class="st0" d="M191.3,121.2c-3.1,1.9-4.4,5.2-4.4,5.2s3.6,0.1,6.6-1.8c3.1-1.9,4.4-5.2,4.4-5.2S194.3,119.2,191.3,121.2z
						"/>
					<path class="st0" d="M190.8,115.1c-2,1.5-2.7,4.1-2.7,4.1s2.7,0.3,4.7-1.2c2-1.5,2.7-4.1,2.7-4.1S192.8,113.6,190.8,115.1z"/>
					<path class="st0" d="M187.6,109.1c-0.7,2.3,0,4.6,0,4.6s1.9-1.5,2.7-3.8s0-4.6,0-4.6S188.4,106.8,187.6,109.1z"/>
					<path class="st0" d="M180.7,108c2.3,2.2,5.4,2.7,5.4,2.7s-0.6-3.1-2.9-5.3c-2.3-2.2-5.4-2.7-5.4-2.7S178.4,105.8,180.7,108z"/>
					<path class="st0" d="M183.7,114.6c2,1.4,4.4,1.5,4.4,1.5s-0.8-2.3-2.8-3.7c-2-1.4-4.4-1.5-4.4-1.5S181.7,113.2,183.7,114.6z"/>
					<path class="st0" d="M183.2,120.9c1.8,2,4.7,2.4,4.7,2.4s-0.1-2.9-1.9-4.9c-1.8-2-4.7-2.4-4.7-2.4S181.4,118.9,183.2,120.9z"/>
					<path class="st0" d="M176.8,134.3c0.3,1.9,1.6,3.3,1.6,3.3s0.8-1.7,0.5-3.6c-0.3-1.9-1.6-3.3-1.6-3.3S176.5,132.4,176.8,134.3z
						"/>
				</g>
				<g>
					<path class="st0" d="M181.4,135.8l-1.8-0.3c0.6-3.9,0.3-9.3-4.3-12.4l1.1-1.5C180.5,124.5,182.3,129.4,181.4,135.8z"/>
					<path class="st0" d="M181.8,128.2c-1,1.6-1,3.5-1,3.5s1.8-0.7,2.8-2.4c1-1.6,1-3.5,1-3.5S182.8,126.6,181.8,128.2z"/>
					<path class="st0" d="M180.4,123.6c-0.9,1.6-0.7,3.3-0.7,3.3s1.6-0.8,2.5-2.4c0.9-1.6,0.7-3.3,0.7-3.3S181.3,122.1,180.4,123.6z
						"/>
					<path class="st0" d="M176.9,128.8c1.7,0.8,3.5,0.6,3.5,0.6s-0.9-1.6-2.5-2.5c-1.7-0.8-3.5-0.6-3.5-0.6S175.3,128,176.9,128.8z"
						/>
				</g>
				<path class="st0" d="M179,124.7l-1.8-0.6l0.9,0.3l-0.9-0.3c0,0,0.7-2.3-0.3-4.4l1.7-0.9C180,121.7,179,124.6,179,124.7z"/>
				<g>
					<path class="st1" d="M174.9,121.5c-0.5,0.3-0.7,1-0.4,1.6c0.3,0.5,1,0.7,1.6,0.4c0.5-0.3,0.7-1,0.4-1.6
						C176.2,121.3,175.5,121.2,174.9,121.5z"/>
				</g>
				<g>
					<path class="st1" d="M176.7,117.7c-0.5,0.3-0.7,1-0.4,1.6c0.3,0.5,1,0.7,1.6,0.4c0.5-0.3,0.7-1,0.4-1.6
						C178,117.6,177.3,117.4,176.7,117.7z"/>
				</g>
			</g>
			<g>
				<g>
					<path class="st0" d="M150.5,172.7c-1.9,0-4-0.3-6.1-0.8l0.5-1.8c5.9,1.5,11,0.8,15.1-2.2c9.3-6.7,10.7-22.8,10.7-22.9l1.9,0.1
						c-0.1,0.7-1.4,17.1-11.5,24.3C158,171.6,154.4,172.7,150.5,172.7z"/>
					<path class="st0" d="M169.8,158.3c-0.8-1.9-0.1-4-0.1-4s2.1,0.9,2.9,2.8c0.8,1.9,0.1,4,0.1,4S170.6,160.2,169.8,158.3z"/>
					<path class="st0" d="M167.7,164.1c-0.8-2.3,0-4.8,0-4.8s2.2,1.4,3,3.7c0.8,2.3,0,4.8,0,4.8S168.5,166.4,167.7,164.1z"/>
					<path class="st0" d="M162.5,171.1c0.2-3.6,2.3-6.5,2.3-6.5s1.9,3,1.8,6.6c-0.2,3.6-2.3,6.5-2.3,6.5S162.3,174.7,162.5,171.1z"
						/>
					<path class="st0" d="M156.9,173.7c0.2-2.5,2.2-4.3,2.2-4.3s1.6,2.2,1.3,4.7c-0.2,2.5-2.2,4.3-2.2,4.3S156.7,176.2,156.9,173.7z
						"/>
					<path class="st0" d="M150.2,173.9c1.6-1.8,4-2.4,4-2.4s-0.3,2.4-2,4.2c-1.6,1.8-4,2.4-4,2.4S148.6,175.7,150.2,173.9z"/>
					<path class="st0" d="M145.8,168.5c3.1,0.9,5.1,3.3,5.1,3.3s-3,1-6.1,0.2c-3.1-0.9-5.1-3.3-5.1-3.3S142.7,167.6,145.8,168.5z"/>
					<path class="st0" d="M153,167.7c2.2,1,3.5,3,3.5,3s-2.4,0.5-4.6-0.5c-2.2-1-3.5-3-3.5-3S150.8,166.8,153,167.7z"/>
					<path class="st0" d="M158.2,164.2c2.6,0.6,4.4,2.8,4.4,2.8s-2.5,1.4-5.2,0.8c-2.6-0.6-4.4-2.8-4.4-2.8S155.6,163.6,158.2,164.2
						z"/>
					<path class="st0" d="M166.6,151.9c1.8-0.7,3.7-0.2,3.7-0.2s-1.1,1.6-2.9,2.3c-1.8,0.7-3.7,0.2-3.7,0.2S164.8,152.6,166.6,151.9
						z"/>
				</g>
				<g>
					<path class="st0" d="M160.4,159.1c-1.7,0-3.4-0.4-5.1-1.2l0.8-1.7c5,2.4,9.8-0.1,12.9-2.5l1.2,1.5
						C166.9,157.8,163.6,159.1,160.4,159.1z"/>
					<path class="st0" d="M163.8,159.3c0.9-1.7,2.6-2.6,2.6-2.6s0.2,1.9-0.6,3.6c-0.9,1.7-2.6,2.6-2.6,2.6S162.9,161,163.8,159.3z"
						/>
					<path class="st0" d="M159.2,160.4c0.9-1.6,2.5-2.3,2.5-2.3s0.1,1.8-0.8,3.3c-0.9,1.6-2.5,2.3-2.5,2.3S158.3,162,159.2,160.4z"
						/>
					<path class="st0" d="M161.9,154.8c1.6,1,2.2,2.7,2.2,2.7s-1.8,0.1-3.4-1c-1.6-1-2.2-2.7-2.2-2.7S160.4,153.8,161.9,154.8z"/>
				</g>
				<path class="st0" d="M154.2,161.2l-0.1-1.9c2.3-0.1,3.9-1.9,3.9-1.9l1.4,1.2C159.3,158.7,157.2,161,154.2,161.2z"/>
				<g>
					<path class="st1" d="M154.6,156.8c0-0.6,0.5-1.1,1.2-1.1c0.6,0,1.1,0.5,1.1,1.2c0,0.6-0.5,1.1-1.2,1.1
						C155.1,157.9,154.6,157.4,154.6,156.8z"/>
				</g>
				<g>
					<path class="st1" d="M152.2,160.2c0-0.6,0.5-1.1,1.2-1.1c0.6,0,1.1,0.5,1.1,1.2c0,0.6-0.5,1.1-1.2,1.1
						C152.7,161.3,152.2,160.8,152.2,160.2z"/>
				</g>
			</g>
			<g>
				<g>
					<path class="st1" d="M164.4,137c2,2.3,6.1,4.3,7.8,2.8c1.8-1.5,0.5-5.9-1.4-8.2l-0.1,1.9l-1.9-0.6l0.2,1.9l-1.7-0.7l0.1,1.9
						l-1.5-0.7l0.4,1.7L164.4,137z"/>
				</g>
				<path class="st0" d="M173,138.5c-0.5-0.2-1.2-0.1-1.7,0.3c-0.5,0.4-0.7,1-0.6,1.6c0.6,0,1.1-0.2,1.5-0.5
					C172.6,139.5,172.9,139,173,138.5z"/>
			</g>
			<g>
				<g>
					<path class="st1" d="M184.8,152.6c-2.6-3.2-8.2-6.1-10.7-4.1c-2.5,2-0.8,8.1,1.8,11.3l0.2-2.6l2.6,0.9l-0.3-2.6l2.3,0.9l0-2.6
						l2.1,1l-0.5-2.4L184.8,152.6z"/>
				</g>
				<path class="st0" d="M173,150.4c0.7,0.3,1.6,0.1,2.3-0.4c0.7-0.5,0.9-1.4,0.8-2.1c-0.8,0-1.5,0.2-2.1,0.7
					C173.5,149,173.2,149.6,173,150.4z"/>
			</g>
			<g>
				<g>
					<path class="st1" d="M143.5,164.9c2.2,1.2,5.9,1.4,6.8-0.3c0.9-1.7-1.4-4.6-3.6-5.8l0.5,1.5l-1.6,0.1l0.7,1.3l-1.5,0l0.6,1.4
						l-1.4,0l0.8,1.2L143.5,164.9z"/>
				</g>
				<path class="st0" d="M150.4,163.3c-0.5,0-0.9,0.3-1.2,0.7c-0.2,0.5-0.2,1,0,1.4c0.4-0.2,0.8-0.5,1-0.8
					C150.5,164.2,150.5,163.8,150.4,163.3z"/>
			</g>
			<g>
				<g>
					<path class="st1" d="M193.5,105.1c-1.7,1.9-2.8,5.4-1.4,6.7c1.4,1.3,4.8-0.3,6.5-2.2l-1.5,0.1l0.3-1.6l-1.5,0.4l0.3-1.4
						l-1.5,0.3l0.4-1.3l-1.3,0.5L193.5,105.1z"/>
				</g>
				<path class="st0" d="M193.4,112.2c0.1-0.5-0.1-1-0.4-1.3c-0.4-0.3-0.9-0.4-1.3-0.3c0.1,0.5,0.3,0.9,0.6,1.1
					C192.5,112.1,192.9,112.2,193.4,112.2z"/>
			</g>
			<g>
				<g>
					<g>
						<path class="st2" d="M165.6,141.1c2.4,0.3,4.1,2.2,3.9,4.4c-0.2,2.2-2.4,3.8-4.7,3.5c-2.4-0.3-4.1-2.2-3.9-4.4
							C161.1,142.5,163.3,140.9,165.6,141.1z"/>
					</g>
					<path class="st2" d="M162.5,143.8c0,0-1.6,0-3.3-1.8c0,0-0.1,1.4,0.8,2.3c0,0-1.2-0.4-2.2,0.5c0,0,0.5,0.6,1.1,0.8
						c0.5,0.1,1,0.1,1,0.1s-1.1,1-0.8,2.2c0,0,2-2,3.3-1.7"/>
				</g>
				<path class="st3" d="M166.4,142.5c1.1,0.4,1.7,1.3,1.5,2c-0.3,0.7-1.3,0.9-2.4,0.4c-1.1-0.4-1.7-1.3-1.5-2
					C164.3,142.3,165.4,142.1,166.4,142.5z"/>
			</g>
			<g>
				<g>
					<g>
						<path class="st2" d="M178.3,146.1c-1.4,0.1-2.7-1-2.7-2.3c-0.1-1.3,1.1-2.4,2.5-2.5c1.4-0.1,2.7,1,2.7,2.3
							C180.8,144.9,179.7,146,178.3,146.1z"/>
					</g>
					<path class="st2" d="M179.9,144.2c0,0,0.9-0.1,2.1,0.8c0,0,0-0.9-0.7-1.3c0,0,0.8,0.1,1.3-0.5c0,0-0.4-0.3-0.8-0.3
						c-0.3,0-0.6,0-0.6,0s0.6-0.7,0.3-1.3c0,0-1,1.4-1.8,1.3"/>
				</g>
				<path class="st3" d="M177.7,145.4c-0.7-0.2-1.2-0.6-1.1-1c0.1-0.4,0.7-0.6,1.4-0.5c0.7,0.2,1.2,0.6,1.1,1
					C179,145.3,178.4,145.5,177.7,145.4z"/>
			</g>
			<g>
				<path class="st1" d="M182.4,140.7c-0.3-0.2-0.4-0.6-0.3-0.9c0.2-0.3,0.6-0.4,0.9-0.3c0.3,0.2,0.4,0.6,0.3,0.9
					C183.2,140.8,182.7,140.9,182.4,140.7z"/>
			</g>
			<g>
				<path class="st2" d="M192,138.7c-0.5-0.3-0.7-0.9-0.4-1.4c0.3-0.5,0.9-0.7,1.4-0.4c0.5,0.3,0.7,0.9,0.4,1.4
					C193.2,138.9,192.5,139,192,138.7z"/>
			</g>
			<g>
				<path class="st1" d="M160.8,150.2c-0.3-0.2-0.4-0.6-0.3-0.9c0.2-0.3,0.6-0.4,0.9-0.3c0.3,0.2,0.4,0.6,0.3,0.9
					C161.6,150.3,161.2,150.4,160.8,150.2z"/>
			</g>
			<g>
				<path class="st2" d="M154.5,179.1c-0.5-0.3-0.7-0.9-0.4-1.4c0.3-0.5,0.9-0.7,1.4-0.4c0.5,0.3,0.7,0.9,0.4,1.4
					C155.6,179.2,155,179.4,154.5,179.1z"/>
			</g>
			<g>
				<path class="st1" d="M143.8,178c-0.5-0.3-0.7-0.9-0.4-1.4c0.3-0.5,0.9-0.7,1.4-0.4c0.5,0.3,0.7,0.9,0.4,1.4
					C144.9,178.1,144.3,178.3,143.8,178z"/>
			</g>
			<g>
				<path class="st2" d="M195.1,104.5c-0.5-0.3-0.7-0.9-0.4-1.4c0.3-0.5,0.9-0.7,1.4-0.4c0.5,0.3,0.7,0.9,0.4,1.4
					C196.3,104.6,195.7,104.8,195.1,104.5z"/>
			</g>
			<g>
				<path class="st2" d="M178.1,114.1c-0.3-0.2-0.4-0.6-0.3-0.9c0.2-0.3,0.6-0.4,0.9-0.3c0.3,0.2,0.4,0.6,0.3,0.9
					C178.8,114.2,178.4,114.3,178.1,114.1z"/>
			</g>
			<g>
				<path class="st1" d="M185.6,107.3c-0.3-0.2-0.4-0.6-0.3-0.9c0.2-0.3,0.6-0.4,0.9-0.3c0.3,0.2,0.4,0.6,0.3,0.9
					C186.4,107.4,185.9,107.5,185.6,107.3z"/>
			</g>
			<g>
				<path class="st1" d="M193.8,127.7c-0.3-0.2-0.4-0.6-0.3-0.9c0.2-0.3,0.6-0.4,0.9-0.3c0.3,0.2,0.4,0.6,0.3,0.9
					C194.6,127.8,194.2,127.9,193.8,127.7z"/>
			</g>
			<g>
				<path class="st2" d="M170.6,128.8c-0.5-0.3-0.7-0.9-0.4-1.4c0.3-0.5,0.9-0.7,1.4-0.4c0.5,0.3,0.7,0.9,0.4,1.4
					C171.7,128.9,171.1,129.1,170.6,128.8z"/>
			</g>
			<g>
				<path class="st1" d="M171.3,119.5c-0.3-0.2-0.4-0.6-0.3-0.9c0.2-0.3,0.6-0.4,0.9-0.3c0.3,0.2,0.4,0.6,0.3,0.9
					C172.1,119.6,171.7,119.7,171.3,119.5z"/>
			</g>
			<g>
				<path class="st1" d="M185.2,145.6c-0.3-0.2-0.4-0.6-0.3-0.9c0.2-0.3,0.6-0.4,0.9-0.3c0.3,0.2,0.4,0.6,0.3,0.9
					C185.9,145.7,185.5,145.8,185.2,145.6z"/>
			</g>
			<g>
				<path class="st2" d="M153.4,151.9c-0.3-0.2-0.4-0.6-0.3-0.9c0.2-0.3,0.6-0.4,0.9-0.3c0.3,0.2,0.4,0.6,0.3,0.9
					S153.8,152.1,153.4,151.9z"/>
			</g>
			<g>
				<path class="st1" d="M177.2,165.7c-0.3-0.2-0.4-0.6-0.3-0.9c0.2-0.3,0.6-0.4,0.9-0.3c0.3,0.2,0.4,0.6,0.3,0.9
					C178,165.8,177.6,165.9,177.2,165.7z"/>
			</g>
		</g>
		<g>
			<g>
				<g>
					<path class="st0" d="M171.9,58.5c0-0.2-1.4-16.2-10.7-22.9c-4.1-2.9-9.2-3.7-15.1-2.2l-0.5-1.8c6.5-1.6,12.1-0.8,16.7,2.5
						c10,7.2,11.4,23.6,11.5,24.3L171.9,58.5z"/>
					<path class="st0" d="M171,45.1c-0.8,1.9-0.1,4-0.1,4s2.1-0.9,2.9-2.8c0.8-1.9,0.1-4,0.1-4S171.9,43.2,171,45.1z"/>
					<path class="st0" d="M169,39.3c-0.8,2.3,0,4.8,0,4.8s2.2-1.4,3-3.7c0.8-2.3,0-4.8,0-4.8S169.8,37,169,39.3z"/>
					<path class="st0" d="M163.7,32.4c0.2,3.6,2.3,6.5,2.3,6.5s1.9-3,1.8-6.6c-0.2-3.6-2.3-6.5-2.3-6.5S163.6,28.7,163.7,32.4z"/>
					<path class="st0" d="M158.2,29.7c0.2,2.5,2.2,4.3,2.2,4.3s1.6-2.2,1.3-4.7c-0.2-2.5-2.2-4.3-2.2-4.3S158,27.2,158.2,29.7z"/>
					<path class="st0" d="M151.5,29.5c1.6,1.8,4,2.4,4,2.4s-0.3-2.4-2-4.2c-1.6-1.8-4-2.4-4-2.4S149.8,27.7,151.5,29.5z"/>
					<path class="st0" d="M147.1,34.9c3.1-0.9,5.1-3.3,5.1-3.3s-3-1-6.1-0.2c-3.1,0.9-5.1,3.3-5.1,3.3S144,35.8,147.1,34.9z"/>
					<path class="st0" d="M154.3,35.7c2.2-1,3.5-3,3.5-3s-2.4-0.5-4.6,0.5c-2.2,1-3.5,3-3.5,3S152.1,36.7,154.3,35.7z"/>
					<path class="st0" d="M159.5,39.2c2.6-0.6,4.4-2.8,4.4-2.8s-2.5-1.4-5.2-0.8c-2.6,0.6-4.4,2.8-4.4,2.8S156.9,39.8,159.5,39.2z"
						/>
					<path class="st0" d="M167.9,51.5c1.8,0.7,3.7,0.2,3.7,0.2s-1.1-1.6-2.9-2.3c-1.8-0.7-3.7-0.2-3.7-0.2S166.1,50.8,167.9,51.5z"
						/>
				</g>
				<g>
					<path class="st0" d="M170.3,49.7c-3.1-2.5-7.9-4.9-12.9-2.5l-0.8-1.7c4.7-2.2,9.8-1.3,14.9,2.7L170.3,49.7z"/>
					<path class="st0" d="M165.1,44.1c0.9,1.7,2.6,2.6,2.6,2.6s0.2-1.9-0.6-3.6c-0.9-1.7-2.6-2.6-2.6-2.6S164.2,42.4,165.1,44.1z"/>
					<path class="st0" d="M160.5,43c0.9,1.6,2.5,2.3,2.5,2.3s0.1-1.8-0.8-3.3c-0.9-1.6-2.5-2.3-2.5-2.3S159.5,41.5,160.5,43z"/>
					<path class="st0" d="M163.2,48.6c1.6-1,2.2-2.7,2.2-2.7s-1.8-0.1-3.4,1c-1.6,1-2.2,2.7-2.2,2.7S161.7,49.6,163.2,48.6z"/>
				</g>
				<path class="st0" d="M159.3,46c0,0-1.7-1.8-3.9-1.9l0.1-1.9c3.1,0.1,5.1,2.4,5.2,2.5L159.3,46z"/>
				<g>
					<path class="st1" d="M155.9,46.7c0,0.6,0.5,1.1,1.2,1.1c0.6,0,1.1-0.5,1.1-1.2c0-0.6-0.5-1.1-1.2-1.1
						C156.3,45.5,155.8,46,155.9,46.7z"/>
				</g>
				<g>
					<path class="st1" d="M153.5,43.2c0,0.6,0.5,1.1,1.2,1.1c0.6,0,1.1-0.5,1.1-1.2c0-0.6-0.5-1.1-1.2-1.1
						C154,42.1,153.5,42.6,153.5,43.2z"/>
				</g>
			</g>
			<g>
				<g>
					<path class="st0" d="M184.2,98.3l-1.3-1.3c4.3-4.4,6.2-9.2,5.7-14.2c-1.2-11.5-14.4-20.6-14.5-20.7l1.1-1.5
						c0.6,0.4,14.1,9.8,15.3,22.1C190.9,88.3,188.8,93.5,184.2,98.3z"/>
					<path class="st0" d="M185.2,69.6c-2.1-0.2-3.5-2-3.5-2s1.8-1.3,3.9-1.1c2.1,0.2,3.5,2,3.5,2S187.2,69.8,185.2,69.6z"/>
					<path class="st0" d="M189.1,74.2c-2.4-0.5-4.1-2.4-4.1-2.4s2.3-1.2,4.7-0.8c2.4,0.5,4.1,2.4,4.1,2.4S191.6,74.7,189.1,74.2z"/>
					<path class="st0" d="M192.6,82.3c-3.1-1.9-4.4-5.2-4.4-5.2s3.6-0.1,6.6,1.8c3.1,1.9,4.4,5.2,4.4,5.2S195.6,84.2,192.6,82.3z"/>
					<path class="st0" d="M192.1,88.4c-2-1.5-2.7-4.1-2.7-4.1s2.7-0.3,4.7,1.2c2,1.5,2.7,4.1,2.7,4.1S194.1,89.8,192.1,88.4z"/>
					<path class="st0" d="M188.9,94.3c-0.7-2.3,0-4.6,0-4.6s1.9,1.5,2.7,3.8c0.7,2.3,0,4.6,0,4.6S189.6,96.6,188.9,94.3z"/>
					<path class="st0" d="M182,95.4c2.3-2.2,5.4-2.7,5.4-2.7s-0.6,3.1-2.9,5.3c-2.3,2.2-5.4,2.7-5.4,2.7S179.7,97.6,182,95.4z"/>
					<path class="st0" d="M184.9,88.8c2-1.4,4.4-1.5,4.4-1.5s-0.8,2.3-2.8,3.7c-2,1.4-4.4,1.5-4.4,1.5S183,90.2,184.9,88.8z"/>
					<path class="st0" d="M184.5,82.5c1.8-2,4.7-2.4,4.7-2.4s-0.1,2.9-1.9,4.9c-1.8,2-4.7,2.4-4.7,2.4S182.7,84.5,184.5,82.5z"/>
					<path class="st0" d="M178.1,69.1c0.3-1.9,1.6-3.3,1.6-3.3s0.8,1.7,0.5,3.6c-0.3,1.9-1.6,3.3-1.6,3.3S177.7,71,178.1,69.1z"/>
				</g>
				<g>
					<path class="st0" d="M177.6,81.9l-1.1-1.5c4.6-3.2,4.9-8.5,4.3-12.4l1.8-0.3C183.6,74,181.8,78.9,177.6,81.9z"/>
					<path class="st0" d="M183,75.2c-1-1.6-1-3.5-1-3.5s1.8,0.7,2.8,2.4c1,1.6,1,3.5,1,3.5S184.1,76.8,183,75.2z"/>
					<path class="st0" d="M181.7,79.8c-0.9-1.6-0.7-3.3-0.7-3.3s1.6,0.8,2.5,2.4c0.9,1.6,0.7,3.3,0.7,3.3S182.6,81.3,181.7,79.8z"/>
					<path class="st0" d="M178.2,74.6c1.7-0.8,3.5-0.6,3.5-0.6s-0.9,1.6-2.5,2.5c-1.7,0.8-3.5,0.6-3.5,0.6S176.6,75.4,178.2,74.6z"
						/>
				</g>
				<path class="st0" d="M179.8,84.5l-1.7-0.9c1-2,0.3-4.3,0.3-4.4l1.8-0.6C180.3,78.8,181.2,81.8,179.8,84.5z"/>
				<g>
					<path class="st1" d="M176.2,81.9c-0.5-0.3-0.7-1-0.4-1.6c0.3-0.5,1-0.7,1.6-0.4c0.5,0.3,0.7,1,0.4,1.6
						C177.5,82.1,176.8,82.3,176.2,81.9z"/>
				</g>
				<g>
					<path class="st1" d="M178,85.7c-0.5-0.3-0.7-1-0.4-1.6c0.3-0.5,1-0.7,1.6-0.4c0.5,0.3,0.7,1,0.4,1.6
						C179.2,85.8,178.5,86,178,85.7z"/>
				</g>
			</g>
			<g>
				<g>
					<path class="st1" d="M164,63.5c3-0.5,6.8-3.1,6.4-5.4c-0.4-2.3-4.8-3.4-7.8-2.9l1.6,1l-1.5,1.3l1.7,0.7l-1.4,1.1l1.7,0.9
						l-1.4,1l1.7,0.5L164,63.5z"/>
				</g>
				<path class="st0" d="M169.6,56.8c-0.4,0.4-0.7,1-0.6,1.6c0.1,0.6,0.5,1.1,1.1,1.3c0.3-0.5,0.4-1,0.3-1.5
					C170.3,57.7,170,57.2,169.6,56.8z"/>
			</g>
			<g>
				<g>
					<path class="st1" d="M187.7,53.7c-4.1,0.7-9.4,4.1-8.9,7.2c0.5,3.1,6.6,4.8,10.7,4.1l-2.1-1.5l2.1-1.8l-2.4-1l1.9-1.5l-2.3-1.3
						l1.9-1.3l-2.3-0.7L187.7,53.7z"/>
				</g>
				<path class="st0" d="M180,62.8c0.6-0.5,0.9-1.3,0.8-2.2c-0.1-0.8-0.7-1.5-1.4-1.8c-0.4,0.7-0.6,1.4-0.5,2.1
					C179,61.6,179.4,62.2,180,62.8z"/>
			</g>
			<g>
				<g>
					<path class="st1" d="M177.7,95.6c2.1-1.3,4.2-4.4,3.2-6.1c-1-1.6-4.7-1.1-6.8,0.2l1.5,0.3l-0.7,1.5l1.5,0l-0.7,1.3l1.6,0.2
						l-0.7,1.2l1.4-0.1L177.7,95.6z"/>
				</g>
				<path class="st0" d="M179.9,88.8c-0.2,0.4-0.2,0.9,0.1,1.4c0.3,0.4,0.7,0.7,1.2,0.7c0-0.5,0-0.9-0.2-1.3
					C180.7,89.2,180.3,89,179.9,88.8z"/>
			</g>
			<g>
				<g>
					<path class="st1" d="M151,22.3c0.8,2.4,3.3,5.1,5.1,4.5c1.8-0.6,2.2-4.3,1.4-6.7l-0.7,1.4l-1.3-1.1l-0.4,1.5l-1.1-1l-0.5,1.5
						l-1-1l-0.2,1.4L151,22.3z"/>
				</g>
				<path class="st0" d="M157.1,26c-0.4-0.3-0.9-0.4-1.4-0.3c-0.5,0.2-0.8,0.6-0.9,1c0.4,0.2,0.9,0.2,1.3,0.1
					C156.5,26.7,156.8,26.4,157.1,26z"/>
			</g>
			<g>
				<g>
					<g>
						<path class="st2" d="M168.2,64.5c1.4-1.9,4-2.5,5.8-1.2c1.8,1.3,2.1,3.9,0.7,5.9c-1.4,1.9-4,2.5-5.8,1.2
							C167.1,69.1,166.8,66.5,168.2,64.5z"/>
					</g>
					<path class="st2" d="M168.9,68.6c0,0-0.8,1.4-3.2,2c0,0,1.2,0.8,2.3,0.5c0,0-0.9,0.9-0.6,2.2c0,0,0.8-0.2,1.2-0.6
						c0.4-0.4,0.6-0.8,0.6-0.8s0.3,1.5,1.5,1.7c0,0-0.7-2.7,0.2-3.8"/>
				</g>
				<path class="st3" d="M169.8,64.5c0.9-0.7,2-0.9,2.4-0.3c0.4,0.6,0.1,1.6-0.8,2.3c-0.9,0.7-2,0.9-2.4,0.3
					C168.5,66.3,168.9,65.2,169.8,64.5z"/>
			</g>
			<g>
				<g>
					<g>
						<path class="st2" d="M178.8,56.1c-0.7,1.3-2.2,1.8-3.3,1.2c-1.2-0.6-1.6-2.1-0.9-3.4c0.7-1.3,2.2-1.8,3.3-1.2
							C179.1,53.3,179.5,54.8,178.8,56.1z"/>
					</g>
					<path class="st2" d="M178,53.7c0,0,0.4-0.9,1.7-1.5c0,0-0.8-0.4-1.4-0.1c0,0,0.5-0.6,0.2-1.4c0,0-0.5,0.2-0.7,0.5
						c-0.2,0.3-0.3,0.5-0.3,0.5s-0.3-0.9-1-0.9c0,0,0.7,1.6,0.2,2.3"/>
				</g>
				<path class="st3" d="M177.9,56.2c-0.5,0.5-1.1,0.7-1.4,0.4c-0.3-0.3-0.2-0.9,0.3-1.5c0.5-0.5,1.1-0.7,1.4-0.4
					C178.5,55.1,178.4,55.7,177.9,56.2z"/>
			</g>
			<g>
				<path class="st1" d="M176.2,49.8c-0.3,0.2-0.8,0.1-0.9-0.3c-0.2-0.3-0.1-0.8,0.3-0.9c0.3-0.2,0.8-0.1,0.9,0.3
					C176.7,49.2,176.6,49.6,176.2,49.8z"/>
			</g>
			<g>
				<path class="st2" d="M179.3,40.5c-0.5,0.3-1.2,0.1-1.4-0.4c-0.3-0.5-0.1-1.2,0.4-1.4s1.2-0.1,1.4,0.4S179.8,40.2,179.3,40.5z"/>
			</g>
			<g>
				<path class="st1" d="M173.7,73.2c-0.3,0.2-0.8,0.1-0.9-0.3c-0.2-0.3-0.1-0.8,0.3-0.9c0.3-0.2,0.8-0.1,0.9,0.3
					C174.1,72.6,174,73,173.7,73.2z"/>
			</g>
			<g>
				<path class="st2" d="M195.5,93.2c-0.5,0.3-1.2,0.1-1.4-0.4c-0.3-0.5-0.1-1.2,0.4-1.4c0.5-0.3,1.2-0.1,1.4,0.4
					C196.2,92.3,196,92.9,195.5,93.2z"/>
			</g>
			<g>
				<path class="st1" d="M189.2,101.9c-0.5,0.3-1.2,0.1-1.4-0.4c-0.3-0.5-0.1-1.2,0.4-1.4c0.5-0.3,1.2-0.1,1.4,0.4
					C189.9,101,189.7,101.6,189.2,101.9z"/>
			</g>
			<g>
				<path class="st2" d="M151.2,20.7c-0.5,0.3-1.2,0.1-1.4-0.4c-0.3-0.5-0.1-1.2,0.4-1.4c0.5-0.3,1.2-0.1,1.4,0.4
					C151.9,19.7,151.8,20.4,151.2,20.7z"/>
			</g>
			<g>
				<path class="st2" d="M151,40.3c-0.3,0.2-0.8,0.1-0.9-0.3c-0.2-0.3-0.1-0.8,0.3-0.9c0.3-0.2,0.8-0.1,0.9,0.3
					C151.5,39.7,151.4,40.1,151,40.3z"/>
			</g>
			<g>
				<path class="st1" d="M148.9,30.3c-0.3,0.2-0.8,0.1-0.9-0.3c-0.2-0.3-0.1-0.8,0.3-0.9c0.3-0.2,0.8-0.1,0.9,0.3
					C149.3,29.7,149.2,30.1,148.9,30.3z"/>
			</g>
			<g>
				<path class="st1" d="M170.7,33.4c-0.3,0.2-0.8,0.1-0.9-0.3c-0.2-0.3-0.1-0.8,0.3-0.9c0.3-0.2,0.8-0.1,0.9,0.3
					C171.2,32.8,171.1,33.2,170.7,33.4z"/>
			</g>
			<g>
				<path class="st2" d="M160,54.1c-0.5,0.3-1.2,0.1-1.4-0.4c-0.3-0.5-0.1-1.2,0.4-1.4c0.5-0.3,1.2-0.1,1.4,0.4
					C160.7,53.2,160.5,53.8,160,54.1z"/>
			</g>
			<g>
				<path class="st1" d="M152.3,48.8c-0.3,0.2-0.8,0.1-0.9-0.3c-0.2-0.3-0.1-0.8,0.3-0.9c0.3-0.2,0.8-0.1,0.9,0.3
					C152.8,48.2,152.7,48.6,152.3,48.8z"/>
			</g>
			<g>
				<path class="st1" d="M181.8,49.9c-0.3,0.2-0.8,0.1-0.9-0.3c-0.2-0.3-0.1-0.8,0.3-0.9c0.3-0.2,0.8-0.1,0.9,0.3
					C182.3,49.2,182.2,49.7,181.8,49.9z"/>
			</g>
			<g>
				<path class="st2" d="M171.4,80.5c-0.3,0.2-0.8,0.1-0.9-0.3c-0.2-0.3-0.1-0.8,0.3-0.9c0.3-0.2,0.8-0.1,0.9,0.3
					C171.9,79.9,171.8,80.3,171.4,80.5z"/>
			</g>
			<g>
				<path class="st1" d="M195.3,66.8c-0.3,0.2-0.8,0.1-0.9-0.3c-0.2-0.3-0.1-0.8,0.3-0.9c0.3-0.2,0.8-0.1,0.9,0.3
					C195.7,66.1,195.6,66.6,195.3,66.8z"/>
			</g>
		</g>
		<g>
			<g>
				<g>
					<path class="st0" d="M65.1,27.6l-1.8-0.5c1.8-6.4,5.4-10.9,10.5-13.2c11.3-5.1,26.2,1.9,26.8,2.2l-0.8,1.7
						c-0.1-0.1-14.7-6.9-25.2-2.2C70,17.7,66.8,21.7,65.1,27.6z"/>
					<path class="st0" d="M87.8,11.8c1.2,1.7,3.5,2.1,3.5,2.1s0.2-2.3-1-3.9c-1.2-1.7-3.5-2.1-3.5-2.1S86.5,10.2,87.8,11.8z"/>
					<path class="st0" d="M81.7,10.7c1.6,1.9,4.2,2.4,4.2,2.4s-0.1-2.6-1.7-4.5C82.6,6.8,80,6.3,80,6.3S80.1,8.9,81.7,10.7z"/>
					<path class="st0" d="M73.1,11.8c3.2,1.7,6.8,1.2,6.8,1.2S78.2,9.8,75,8.2C71.7,6.5,68.2,7,68.2,7S69.9,10.1,73.1,11.8z"/>
					<path class="st0" d="M68,15.3c2.3,1,4.9,0.3,4.9,0.3s-1.1-2.5-3.4-3.5s-4.9-0.3-4.9-0.3S65.7,14.2,68,15.3z"/>
					<path class="st0" d="M64.5,21c2.4-0.5,4-2.3,4-2.3s-2.2-0.9-4.6-0.4s-4,2.3-4,2.3S62.1,21.5,64.5,21z"/>
					<path class="st0" d="M67,27.5c0.8-3.1-0.3-6.1-0.3-6.1s-2.4,2.1-3.2,5.2c-0.8,3.1,0.3,6.1,0.3,6.1S66.2,30.6,67,27.5z"/>
					<path class="st0" d="M71.2,21.6c0.3-2.4-0.9-4.6-0.9-4.6s-1.6,1.8-1.9,4.3c-0.3,2.4,0.9,4.6,0.9,4.6S71,24.1,71.2,21.6z"/>
					<path class="st0" d="M76.9,18.9c0.8-2.6-0.3-5.2-0.3-5.2s-2.4,1.5-3.3,4.1c-0.8,2.6,0.3,5.2,0.3,5.2S76.1,21.5,76.9,18.9z"/>
					<path class="st0" d="M91.7,17.8c1.5-1.2,2-3.1,2-3.1s-1.9,0.1-3.4,1.4c-1.5,1.2-2,3.1-2,3.1S90.2,19,91.7,17.8z"/>
				</g>
				<g>
					<path class="st0" d="M82.7,24.7l-1.9-0.2c0.4-5.1,3.8-9.1,9.8-11.5l0.7,1.7C87.7,16.3,83.2,19.2,82.7,24.7z"/>
					<path class="st0" d="M83.9,16.5c1.9,0.1,3.6-0.9,3.6-0.9S86,14.4,84,14.3c-1.9-0.1-3.6,0.9-3.6,0.9S82,16.4,83.9,16.5z"/>
					<path class="st0" d="M80.7,20c1.8,0,3.3-1,3.3-1s-1.5-1-3.3-1s-3.3,1-3.3,1S78.8,20,80.7,20z"/>
					<path class="st0" d="M86.9,20.4c-0.1-1.9-1.2-3.3-1.2-3.3s-1,1.6-0.9,3.4c0.1,1.9,1.2,3.3,1.2,3.3S87,22.2,86.9,20.4z"/>
				</g>
				<path class="st0" d="M79.1,24.9l-1.6-1c1.7-2.6,4.7-3.2,4.8-3.3l0.4,1.8l-0.2-0.9l0.2,0.9C82.7,22.5,80.3,23,79.1,24.9z"/>
				<g>
					<path class="st1" d="M81.5,25.8c0.5,0.3,1.2,0.1,1.5-0.5c0.3-0.5,0.1-1.2-0.5-1.5c-0.5-0.3-1.2-0.1-1.5,0.5
						C80.8,24.8,81,25.5,81.5,25.8z"/>
				</g>
				<g>
					<path class="st1" d="M77.4,26.1c0.5,0.3,1.2,0.1,1.5-0.5c0.3-0.5,0.1-1.2-0.5-1.5c-0.5-0.3-1.2-0.1-1.5,0.5
						C76.6,25.1,76.8,25.8,77.4,26.1z"/>
				</g>
			</g>
			<g>
				<g>
					<path class="st0" d="M138.6,27.6c-1.7-5.9-4.9-9.9-9.5-12c-10.5-4.7-25.1,2.1-25.2,2.2l-0.8-1.7c0.6-0.3,15.5-7.3,26.8-2.2
						c5.1,2.3,8.6,6.7,10.5,13.2L138.6,27.6z"/>
					<path class="st0" d="M116,11.8c-1.2,1.7-3.5,2.1-3.5,2.1s-0.2-2.3,1-3.9c1.2-1.7,3.5-2.1,3.5-2.1S117.3,10.2,116,11.8z"/>
					<path class="st0" d="M122,10.7c-1.6,1.9-4.2,2.4-4.2,2.4s0.1-2.6,1.7-4.5c1.6-1.9,4.2-2.4,4.2-2.4S123.7,8.9,122,10.7z"/>
					<path class="st0" d="M130.7,11.8c-3.2,1.7-6.8,1.2-6.8,1.2s1.7-3.2,4.9-4.8s6.8-1.2,6.8-1.2S133.9,10.1,130.7,11.8z"/>
					<path class="st0" d="M135.7,15.3c-2.3,1-4.9,0.3-4.9,0.3s1.1-2.5,3.4-3.5c2.3-1,4.9-0.3,4.9-0.3S138,14.2,135.7,15.3z"/>
					<path class="st0" d="M139.3,21c-2.4-0.5-4-2.3-4-2.3s2.2-0.9,4.6-0.4c2.4,0.5,4,2.3,4,2.3S141.7,21.5,139.3,21z"/>
					<path class="st0" d="M136.8,27.5c-0.8-3.1,0.3-6.1,0.3-6.1s2.4,2.1,3.2,5.2c0.8,3.1-0.3,6.1-0.3,6.1S137.6,30.6,136.8,27.5z"/>
					<path class="st0" d="M132.5,21.6c-0.3-2.4,0.9-4.6,0.9-4.6s1.6,1.8,1.9,4.3c0.3,2.4-0.9,4.6-0.9,4.6S132.8,24.1,132.5,21.6z"/>
					<path class="st0" d="M126.9,18.9c-0.8-2.6,0.3-5.2,0.3-5.2s2.4,1.5,3.3,4.1c0.8,2.6-0.3,5.2-0.3,5.2S127.7,21.5,126.9,18.9z"/>
					<path class="st0" d="M112,17.8c-1.5-1.2-2-3.1-2-3.1s1.9,0.1,3.4,1.4c1.5,1.2,2,3.1,2,3.1S113.5,19,112,17.8z"/>
				</g>
				<g>
					<path class="st0" d="M121,24.7c-0.5-5.6-4.9-8.5-8.6-9.9l0.7-1.7c6,2.4,9.4,6.4,9.8,11.5L121,24.7z"/>
					<path class="st0" d="M119.8,16.5c-1.9,0.1-3.6-0.9-3.6-0.9s1.5-1.2,3.4-1.3c1.9-0.1,3.6,0.9,3.6,0.9S121.8,16.4,119.8,16.5z"/>
					<path class="st0" d="M123.1,20c-1.8,0-3.3-1-3.3-1s1.5-1,3.3-1s3.3,1,3.3,1S124.9,20,123.1,20z"/>
					<path class="st0" d="M116.9,20.4c0.1-1.9,1.2-3.3,1.2-3.3s1,1.6,0.9,3.4c-0.1,1.9-1.2,3.3-1.2,3.3S116.8,22.2,116.9,20.4z"/>
				</g>
				<path class="st0" d="M124.7,24.9c-1.2-1.9-3.6-2.4-3.6-2.5l0.4-1.8c0.1,0,3.2,0.7,4.8,3.3L124.7,24.9z"/>
				<g>
					<path class="st1" d="M122.3,25.8c-0.5,0.3-1.2,0.1-1.5-0.5c-0.3-0.5-0.1-1.2,0.5-1.5c0.5-0.3,1.2-0.1,1.5,0.5
						C123,24.8,122.8,25.5,122.3,25.8z"/>
				</g>
				<g>
					<path class="st1" d="M126.4,26.1c-0.5,0.3-1.2,0.1-1.5-0.5c-0.3-0.5-0.1-1.2,0.5-1.5c0.5-0.3,1.2-0.1,1.5,0.5
						C127.1,25.1,126.9,25.8,126.4,26.1z"/>
				</g>
			</g>
			<g>
				<g>
					<path class="st1" d="M100.2,27.1c1-2.9,0.7-7.4-1.5-8.2s-5.4,2.5-6.4,5.3l1.7-0.8l0.4,2l1.5-1.1l0.3,1.8l1.6-1l0.2,1.7l1.3-1.2
						L100.2,27.1z"/>
				</g>
				<path class="st0" d="M97.2,19c0.1,0.6,0.5,1.1,1.1,1.3c0.6,0.2,1.2,0.1,1.7-0.3c-0.3-0.5-0.7-0.9-1.2-1
					C98.3,18.8,97.7,18.8,97.2,19z"/>
			</g>
			<g>
				<g>
					<path class="st1" d="M103.5,1.7c-1.5,3.9-1.1,10.2,1.8,11.3s7.4-3.3,8.9-7.2l-2.3,1.1l-0.5-2.7l-2.1,1.5L109,3.3l-2.2,1.3
						l-0.2-2.3L104.8,4L103.5,1.7z"/>
				</g>
				<path class="st0" d="M107.5,13c-0.1-0.8-0.7-1.5-1.5-1.8c-0.8-0.3-1.7-0.1-2.3,0.3c0.4,0.7,0.9,1.2,1.6,1.5
					C106,13.2,106.8,13.2,107.5,13z"/>
			</g>
			<g>
				<g>
					<path class="st1" d="M134.8,31.3c-0.1-2.5-1.8-5.9-3.6-5.8c-1.9,0.1-3.3,3.6-3.2,6l1-1.2l0.9,1.4l0.8-1.3l0.7,1.3l0.9-1.3
						l0.6,1.2l0.6-1.3L134.8,31.3z"/>
				</g>
				<path class="st0" d="M130,26.1c0.3,0.4,0.7,0.7,1.2,0.6c0.5,0,0.9-0.3,1.2-0.7c-0.4-0.3-0.8-0.4-1.2-0.4
					C130.8,25.6,130.4,25.8,130,26.1z"/>
			</g>
			<g>
				<g>
					<path class="st1" d="M58,17.9c2.4,0.5,6.1-0.3,6.5-2.2c0.4-1.9-2.7-4-5.1-4.5l0.9,1.3L58.7,13l1.1,1.1l-1.4,0.4l1,1.2L58.1,16
						l1.1,0.9L58,17.9z"/>
				</g>
				<path class="st0" d="M64.3,14.4c-0.4,0.2-0.8,0.5-0.9,1c-0.1,0.5,0.1,1,0.4,1.3c0.4-0.3,0.6-0.7,0.7-1.1
					C64.6,15.3,64.5,14.8,64.3,14.4z"/>
			</g>
			<g>
				<g>
					<g>
						<path class="st2" d="M103.2,24c-1-2.2-0.1-4.7,1.9-5.6c2-0.9,4.4,0.2,5.4,2.4c1,2.2,0.1,4.7-1.9,5.6
							C106.6,27.2,104.2,26.2,103.2,24z"/>
					</g>
					<path class="st2" d="M107.1,25.4c0,0,0.8,1.4,0.1,3.8c0,0,1.3-0.6,1.6-1.8c0,0,0.3,1.3,1.6,1.6c0,0,0.2-0.8,0.1-1.4
						c-0.1-0.5-0.4-0.9-0.4-0.9s1.5,0.5,2.2-0.4c0,0-2.7-0.7-3.2-2"/>
				</g>
				<path class="st3" d="M104,22.6c-0.2-1.1,0.3-2.2,1-2.3c0.7-0.1,1.4,0.7,1.6,1.9c0.2,1.1-0.3,2.2-1,2.3
					C104.8,24.6,104.1,23.8,104,22.6z"/>
			</g>
			<g>
				<g>
					<g>
						<path class="st2" d="M101.1,10.6c0.8,1.2,0.5,2.8-0.6,3.5c-1.1,0.7-2.6,0.3-3.4-0.9c-0.8-1.2-0.5-2.8,0.6-3.5
							C98.8,9,100.4,9.4,101.1,10.6z"/>
					</g>
					<path class="st2" d="M98.7,10.1c0,0-0.6-0.7-0.4-2.2c0,0-0.7,0.5-0.8,1.2c0,0-0.3-0.7-1.1-0.8c0,0-0.1,0.5,0.1,0.8
						c0.1,0.3,0.3,0.5,0.3,0.5s-0.9-0.1-1.3,0.5c0,0,1.7,0.2,2.1,0.9"/>
				</g>
				<path class="st3" d="M100.8,11.5c0.2,0.7,0,1.3-0.4,1.4c-0.4,0.1-0.9-0.3-1.1-1c-0.2-0.7,0-1.3,0.4-1.4
					C100.1,10.4,100.6,10.8,100.8,11.5z"/>
			</g>
			<g>
				<circle class="st1" cx="93.8" cy="9.7" r="0.7"/>
			</g>
			<g>
				<path class="st2" d="M87.9,2.4c0,0.6-0.5,1.1-1.1,1.1c-0.6,0-1.1-0.5-1.1-1.1c0-0.6,0.5-1.1,1.1-1.1C87.5,1.3,87.9,1.8,87.9,2.4
					z"/>
			</g>
			<g>
				<path class="st1" d="M113.4,23.6c0,0.4-0.3,0.7-0.7,0.7c-0.4,0-0.7-0.3-0.7-0.7s0.3-0.7,0.7-0.7C113.1,23,113.4,23.3,113.4,23.6
					z"/>
			</g>
			<g>
				<path class="st2" d="M141.6,14.7c0,0.6-0.5,1.1-1.1,1.1c-0.6,0-1.1-0.5-1.1-1.1s0.5-1.1,1.1-1.1
					C141.2,13.6,141.6,14.1,141.6,14.7z"/>
			</g>
			<g>
				<path class="st1" d="M146,24.5c0,0.6-0.5,1.1-1.1,1.1c-0.6,0-1.1-0.5-1.1-1.1c0-0.6,0.5-1.1,1.1-1.1
					C145.6,23.5,146,23.9,146,24.5z"/>
			</g>
			<g>
				<path class="st2" d="M56.7,16.8c0,0.6-0.5,1.1-1.1,1.1c-0.6,0-1.1-0.5-1.1-1.1c0-0.6,0.5-1.1,1.1-1.1
					C56.2,15.7,56.7,16.2,56.7,16.8z"/>
			</g>
			<g>
				<circle class="st2" cx="72.9" cy="26.8" r="0.7"/>
			</g>
			<g>
				<path class="st1" d="M63.9,23.6c0,0.4-0.3,0.7-0.7,0.7c-0.4,0-0.7-0.3-0.7-0.7s0.3-0.7,0.7-0.7C63.6,23,63.9,23.3,63.9,23.6z"/>
			</g>
			<g>
				<path class="st1" d="M77.5,6.3c0,0.4-0.3,0.7-0.7,0.7s-0.7-0.3-0.7-0.7c0-0.4,0.3-0.7,0.7-0.7S77.5,5.9,77.5,6.3z"/>
			</g>
			<g>
				<path class="st2" d="M90,25.9c0,0.6-0.5,1.1-1.1,1.1c-0.6,0-1.1-0.5-1.1-1.1c0-0.6,0.5-1.1,1.1-1.1C89.6,24.8,90,25.3,90,25.9z"
					/>
			</g>
			<g>
				<path class="st1" d="M81.6,29.9c0,0.4-0.3,0.7-0.7,0.7s-0.7-0.3-0.7-0.7c0-0.4,0.3-0.7,0.7-0.7S81.6,29.5,81.6,29.9z"/>
			</g>
			<g>
				<path class="st1" d="M97.3,4.9c0,0.4-0.3,0.7-0.7,0.7c-0.4,0-0.7-0.3-0.7-0.7c0-0.4,0.3-0.7,0.7-0.7C97,4.2,97.3,4.5,97.3,4.9z"
					/>
			</g>
			<g>
				<path class="st2" d="M118.6,29.2c0,0.4-0.3,0.7-0.7,0.7s-0.7-0.3-0.7-0.7c0-0.4,0.3-0.7,0.7-0.7S118.6,28.8,118.6,29.2z"/>
			</g>
			<g>
				<path class="st1" d="M118.6,1.7c0,0.4-0.3,0.7-0.7,0.7c-0.4,0-0.7-0.3-0.7-0.7s0.3-0.7,0.7-0.7C118.3,1,118.6,1.3,118.6,1.7z"/>
			</g>
		</g>
	</g>
	<g>
		<g>
			<path class="st4" d="M50.1,162.1c0.1,0.4,0.2,0.9,0.3,1.3c0.1,0.4,0.1,0.9,0.2,1.3c0.1,0.9,0.2,1.8,0.3,2.7
				c0.1,0.9,0.2,1.8,0.2,2.7c0,0.4,0.1,0.9,0.1,1.3c0,0.4,0,0.9,0.1,1.3l-0.9-0.4c0.2-0.1,0.3-0.2,0.4-0.3c0.1-0.1,0.3-0.1,0.4-0.2
				c0.1-0.1,0.3-0.1,0.4-0.2c0.1,0,0.3-0.1,0.4-0.1c0.1,0,0.3-0.1,0.4-0.1l0.4-0.1l0.4,0c0.1,0,0.3,0,0.4,0c0.1,0,0.3,0,0.4,0
				c0.1,0,0.3,0,0.4,0c0.1,0,0.3,0,0.4,0.1c0.1,0,0.3,0.1,0.4,0.1c0.1,0,0.3,0.1,0.4,0.1l0.4,0.2c0.1,0,0.3,0.1,0.4,0.2
				c0.1,0.1,0.3,0.1,0.4,0.2l-0.4-0.1c-0.1,0-0.3-0.1-0.4-0.1l-0.4-0.1c-0.1,0-0.3,0-0.4,0c-0.1,0-0.3,0-0.4,0c-0.1,0-0.3,0-0.4,0
				c-0.1,0-0.3,0-0.4,0c-0.1,0-0.3,0-0.4,0.1c-0.1,0-0.3,0-0.4,0.1l-0.4,0.1l-0.4,0.1c-0.1,0-0.2,0.1-0.4,0.1
				c-0.2,0.1-0.5,0.2-0.7,0.3c-0.1,0.1-0.2,0.1-0.3,0.2c-0.1,0.1-0.2,0.1-0.3,0.2l-0.8,0.6l-0.1-1c0-0.4-0.1-0.9-0.1-1.3
				c0-0.4-0.1-0.9-0.1-1.3c0-0.9-0.1-1.8-0.1-2.7c0-0.9,0-1.8,0-2.7c0-0.4,0-0.9,0.1-1.3C50,163,50.1,162.5,50.1,162.1z"/>
			<path class="st4" d="M50.2,173.8C50.2,173.8,50.2,173.7,50.2,173.8C50.2,173.7,50.2,173.7,50.2,173.8c-0.1,0-0.1,0-0.2,0
				c0,0-0.1,0-0.2,0c0,0-0.1,0-0.1,0c0,0-0.1,0-0.1,0c0,0-0.1,0-0.1,0c0,0-0.1,0-0.1,0.1c0,0-0.1,0.1-0.1,0.1l-0.1,0.1
				c-0.1,0.1-0.1,0.2-0.2,0.3c-0.1,0.1-0.1,0.2-0.1,0.3c0,0.1-0.1,0.2-0.1,0.3c0,0.1-0.1,0.2-0.1,0.3c0,0.1,0,0.2-0.1,0.3
				c0,0.4-0.1,0.6-0.1,0.6s0-0.2-0.1-0.6c0-0.1,0-0.2,0-0.3c0-0.1,0-0.2,0-0.3c0-0.1,0-0.2,0-0.4c0-0.1,0-0.3,0.1-0.4
				c0-0.1,0.1-0.3,0.1-0.4c0-0.1,0.1-0.1,0.1-0.2c0-0.1,0.1-0.1,0.1-0.2c0-0.1,0.1-0.1,0.1-0.2c0.1-0.1,0.1-0.1,0.2-0.2
				c0.1,0,0.1-0.1,0.2-0.1c0.1,0,0.1-0.1,0.2-0.1c0.1-0.1,0.2-0.1,0.3-0.1c0.1,0,0.2,0,0.3-0.1c0.1,0,0.1,0,0.2,0c0,0,0.1,0,0.1,0
				L50.2,173.8z"/>
			<path class="st4" d="M50.3,172.5C50.3,172.5,50.3,172.4,50.3,172.5c0-0.1,0-0.2,0.1-0.2c0-0.1,0.1-0.3,0.2-0.5
				c0.1-0.1,0.1-0.2,0.2-0.3c0.1-0.1,0.2-0.2,0.2-0.3c0.2-0.2,0.4-0.4,0.6-0.6c0.1-0.1,0.2-0.2,0.4-0.3c0.1-0.1,0.3-0.1,0.4-0.2
				c0.1-0.1,0.3-0.1,0.4-0.1c0.1,0,0.2-0.1,0.3-0.1c0.1,0,0.2-0.1,0.3-0.1c0.1,0,0.2,0,0.2,0c0.1,0,0.2,0,0.2,0s-0.1,0-0.2,0.1
				c-0.1,0-0.1,0.1-0.2,0.1c-0.1,0-0.2,0.1-0.2,0.1c-0.1,0.1-0.2,0.1-0.3,0.2c-0.1,0.1-0.2,0.1-0.3,0.2c-0.1,0.1-0.2,0.2-0.3,0.3
				c-0.1,0.1-0.2,0.2-0.3,0.3c-0.2,0.2-0.3,0.4-0.4,0.6c0,0.1-0.1,0.2-0.1,0.3c0,0.1-0.1,0.2-0.1,0.3c0,0.2-0.1,0.3-0.1,0.4
				c0,0.1,0,0.1,0,0.1c0,0,0,0,0,0L50.3,172.5z"/>
		</g>
		<g>
			<path class="st4" d="M41.5,161.9c0.1,0.4,0.2,0.9,0.3,1.3c0.1,0.4,0.1,0.9,0.2,1.3c0.1,0.9,0.2,1.8,0.3,2.7
				c0.1,0.9,0.2,1.8,0.2,2.7c0,0.4,0.1,0.9,0.1,1.3c0,0.4,0,0.9,0.1,1.3l-0.9-0.4c0.2-0.1,0.3-0.2,0.4-0.3c0.1-0.1,0.3-0.1,0.4-0.2
				c0.1-0.1,0.3-0.1,0.4-0.2c0.1,0,0.3-0.1,0.4-0.1c0.1,0,0.3-0.1,0.4-0.1l0.4-0.1l0.4,0c0.1,0,0.3,0,0.4,0c0.1,0,0.3,0,0.4,0
				c0.1,0,0.3,0,0.4,0c0.1,0,0.3,0,0.4,0.1c0.1,0,0.3,0.1,0.4,0.1c0.1,0,0.3,0.1,0.4,0.1l0.4,0.2c0.1,0,0.3,0.1,0.4,0.2
				c0.1,0.1,0.3,0.1,0.4,0.2l-0.4-0.1c-0.1,0-0.3-0.1-0.4-0.1l-0.4-0.1c-0.1,0-0.3,0-0.4,0c-0.1,0-0.3,0-0.4,0c-0.1,0-0.3,0-0.4,0
				c-0.1,0-0.3,0-0.4,0c-0.1,0-0.3,0-0.4,0.1c-0.1,0-0.3,0-0.4,0.1l-0.4,0.1l-0.4,0.1c-0.1,0-0.2,0.1-0.4,0.1
				c-0.2,0.1-0.5,0.2-0.7,0.3c-0.1,0.1-0.2,0.1-0.3,0.2c-0.1,0.1-0.2,0.1-0.3,0.2l-0.8,0.6l-0.1-1c0-0.4-0.1-0.9-0.1-1.3
				c0-0.4-0.1-0.9-0.1-1.3c0-0.9-0.1-1.8-0.1-2.7c0-0.9,0-1.8,0-2.7c0-0.4,0-0.9,0.1-1.3C41.4,162.8,41.5,162.4,41.5,161.9z"/>
			<path class="st4" d="M41.6,173.6C41.6,173.6,41.6,173.6,41.6,173.6C41.6,173.6,41.6,173.6,41.6,173.6c-0.1,0-0.1,0-0.2,0
				c0,0-0.1,0-0.2,0c0,0-0.1,0-0.1,0c0,0-0.1,0-0.1,0c0,0-0.1,0-0.1,0c0,0-0.1,0-0.1,0.1c0,0-0.1,0.1-0.1,0.1l-0.1,0.1
				c-0.1,0.1-0.1,0.2-0.2,0.3c-0.1,0.1-0.1,0.2-0.1,0.3c0,0.1-0.1,0.2-0.1,0.3c0,0.1-0.1,0.2-0.1,0.3c0,0.1,0,0.2-0.1,0.3
				c0,0.4-0.1,0.6-0.1,0.6s0-0.2-0.1-0.6c0-0.1,0-0.2,0-0.3c0-0.1,0-0.2,0-0.3c0-0.1,0-0.2,0-0.4c0-0.1,0-0.3,0.1-0.4
				c0-0.1,0.1-0.3,0.1-0.4c0-0.1,0.1-0.1,0.1-0.2c0-0.1,0.1-0.1,0.1-0.2c0-0.1,0.1-0.1,0.1-0.2c0.1-0.1,0.1-0.1,0.2-0.2
				c0.1,0,0.1-0.1,0.2-0.1c0.1,0,0.1-0.1,0.2-0.1c0.1-0.1,0.2-0.1,0.3-0.1c0.1,0,0.2,0,0.3-0.1c0.1,0,0.1,0,0.2,0c0,0,0.1,0,0.1,0
				L41.6,173.6z"/>
			<path class="st4" d="M41.7,172.3C41.7,172.3,41.7,172.3,41.7,172.3c0-0.1,0-0.2,0.1-0.2c0-0.1,0.1-0.3,0.2-0.5
				c0.1-0.1,0.1-0.2,0.2-0.3c0.1-0.1,0.2-0.2,0.2-0.3c0.2-0.2,0.4-0.4,0.6-0.6c0.1-0.1,0.2-0.2,0.4-0.3c0.1-0.1,0.3-0.1,0.4-0.2
				c0.1-0.1,0.3-0.1,0.4-0.1c0.1,0,0.2-0.1,0.3-0.1c0.1,0,0.2-0.1,0.3-0.1c0.1,0,0.2,0,0.2,0c0.1,0,0.2,0,0.2,0s-0.1,0-0.2,0.1
				c-0.1,0-0.1,0.1-0.2,0.1c-0.1,0-0.2,0.1-0.2,0.1c-0.1,0.1-0.2,0.1-0.3,0.2c-0.1,0.1-0.2,0.1-0.3,0.2c-0.1,0.1-0.2,0.2-0.3,0.3
				c-0.1,0.1-0.2,0.2-0.3,0.3c-0.2,0.2-0.3,0.4-0.4,0.6c0,0.1-0.1,0.2-0.1,0.3c0,0.1-0.1,0.2-0.1,0.3c0,0.2-0.1,0.3-0.1,0.4
				c0,0.1,0,0.1,0,0.1c0,0,0,0,0,0L41.7,172.3z"/>
		</g>
		<polygon class="st4" points="52.1,119.4 60.8,116.4 55.8,125 		"/>
		<path class="st5" d="M60.1,134.6c0,0,0-0.1-0.1-0.1c-1.7-3.5-1.9-7.6-3.5-11.1c-0.3-0.7-0.7-1.4-1.3-2c-2.8-3.3-6.8-5.1-11.2-4.2
			c-7.3,1.6-10,10.7-14,14.7c-4,4-13,17.8-6.1,29.9c1.4,2.4,3.3,4.2,5.6,5.4c-3.4,5.4-7.9,12.9-8,14.7c-0.1,2.4,2.4,5.2,5.5,2.1
			c-0.1,0.3-0.1,0.6-0.1,0.8c0.3,2.7,4,5.4,6.7-0.3c0,0.2,0.1,0.3,0.1,0.4c1,2.7,5.9,4.7,6.6-3.2c0.3-3.3,0.3-8.2,0.2-12.5
			c7.2-0.4,14.6-3.5,18.8-7.6c4.8-4.7,5.2-12.1,4-18.3C62.7,140.1,61.5,137.5,60.1,134.6z"/>
		<path class="st3" d="M44.2,124.2c-3.5,1.9-6.1,5.5-4,9c1.6,2.7,4.1,1.2,5.9-0.3c1.6-1.4,3-3.1,4.6-4.5c0.8-0.7,6.5-3.1,5.5-4.7
			C54.2,120.3,47.4,122.4,44.2,124.2z"/>
		<g>
			<path class="st3" d="M53,125.1c0.1,1.6-1.1,3-2.7,3.1c-1.6,0.1-3-1.1-3.1-2.7c-0.1-1.6,1.1-3,2.7-3.1
				C51.6,122.2,52.9,123.5,53,125.1z"/>
			<path class="st6" d="M52.2,125.1c0.1,1.2-0.8,2.2-2,2.2c-1.2,0.1-2.2-0.8-2.2-2c-0.1-1.2,0.8-2.2,2-2.2
				C51.2,123.1,52.2,124,52.2,125.1z"/>
		</g>
		<path class="st7" d="M33,144.6c1.6-5.9-0.7-10.6-2.5-13.1c-0.1,0.1-0.3,0.3-0.4,0.4c-4,4-13,17.8-6.1,29.9c1.2,2.2,2.9,3.8,4.9,5
			C27.8,160.8,30.7,153.3,33,144.6z"/>
		<path class="st7" d="M63.3,143.3c-0.6-3.2-1.8-5.8-3.2-8.7c0,0,0-0.1-0.1-0.1c-0.1-0.2-0.2-0.4-0.2-0.5
			c-4.5,0.1-14.6,1.6-17.6,13.2c-2.4,9.1-1.9,17.1-1.2,22c7-0.5,14.2-3.6,18.3-7.6C64.1,156.9,64.5,149.5,63.3,143.3z"/>
		<path class="st8" d="M25.1,160.3c-5.8-10.1-0.4-21.4,3.8-27.1c-4.3,5.1-11.2,17.6-4.9,28.6c1.2,2.2,2.9,3.8,4.9,5
			c-0.1-0.8-0.2-1.5-0.2-2.3C27.3,163.3,26,162,25.1,160.3z"/>
		<path class="st8" d="M63.3,143.3c-0.6-3.2-1.8-5.8-3.2-8.7c0,0,0-0.1-0.1-0.1c-0.1-0.2-0.2-0.4-0.2-0.5c-0.1,0-0.1,0-0.2,0
			c1.3,2.7,2.4,5.2,2.9,8.2c1.2,6.2,0.8,13.6-4,18.3c-4,3.9-10.9,6.9-17.7,7.5c0.1,0.4,0.1,0.8,0.2,1.2c7-0.5,14.2-3.6,18.3-7.6
			C64.1,156.9,64.5,149.5,63.3,143.3z"/>
		<path class="st4" d="M47.6,141.6c-0.2,0.3-0.4,0.7-0.5,1.1c-0.2,0.4-0.3,0.7-0.4,1.1c-0.1,0.4-0.1,0.7,0,1.1
			c0,0.2,0.1,0.3,0.2,0.4c0.1,0.1,0.2,0.2,0.4,0.2l0.1,0.1l0.1,0c0.1,0,0.1,0,0.2,0c0.2,0,0.3,0,0.5-0.1c0.3-0.1,0.6-0.3,0.9-0.5
			c0.3-0.2,0.5-0.5,0.8-0.8c0.1-0.1,0.2-0.3,0.4-0.4c0.1-0.1,0.2-0.3,0.3-0.4l1-1.6l-0.1,1.9c0,0.2,0,0.4,0,0.5c0,0.2,0,0.4,0,0.6
			c0,0.4,0.1,0.7,0.2,1c0.1,0.3,0.3,0.6,0.5,0.8c0.1,0.1,0.2,0.2,0.3,0.2c0.1,0.1,0.3,0.1,0.4,0.1c0,0,0.1,0,0.1,0c0,0,0.1,0,0.1,0
			c0.1,0,0.1,0,0.2,0c0.1,0,0.3-0.1,0.4-0.1c0.3-0.1,0.5-0.4,0.8-0.6c0.2-0.3,0.5-0.6,0.7-0.9c0.1-0.2,0.2-0.3,0.3-0.5
			c0.1-0.2,0.2-0.3,0.2-0.5l0.7-1.6l0.3,1.7c0,0.2,0.1,0.4,0.1,0.5c0,0.2,0.1,0.4,0.1,0.5c0.1,0.4,0.2,0.7,0.4,1
			c0.3,0.6,0.8,1.2,1.4,1.3c0.1,0,0.2,0,0.2,0l0.1,0c0,0,0.1,0,0.1,0c0.1,0,0.3-0.1,0.4-0.2c0.3-0.2,0.4-0.5,0.6-0.8
			c0.1-0.4,0.2-0.7,0.2-1.1c0-0.4,0.1-0.8,0-1.2c0.1,0.4,0.2,0.8,0.2,1.2c0,0.4,0,0.8-0.1,1.2c-0.1,0.4-0.2,0.8-0.6,1.2
			c-0.2,0.2-0.4,0.3-0.6,0.4c-0.1,0-0.1,0-0.2,0l-0.1,0c-0.1,0-0.1,0-0.2,0c-0.1,0-0.1,0-0.2,0c-0.2,0-0.5-0.1-0.7-0.2
			c-0.2-0.1-0.4-0.2-0.6-0.4c-0.3-0.3-0.6-0.7-0.8-1c-0.2-0.4-0.4-0.7-0.5-1.1c-0.1-0.2-0.1-0.4-0.2-0.6c-0.1-0.2-0.1-0.4-0.2-0.6
			l1,0.1c-0.1,0.2-0.2,0.4-0.3,0.6c-0.1,0.2-0.2,0.4-0.3,0.6c-0.2,0.4-0.5,0.7-0.8,1.1c-0.3,0.3-0.7,0.6-1.1,0.9
			c-0.2,0.1-0.5,0.2-0.7,0.3c-0.1,0-0.2,0-0.4,0.1l-0.2,0c-0.1,0-0.1,0-0.2,0c-0.3,0-0.5-0.1-0.8-0.2c-0.2-0.1-0.5-0.3-0.7-0.4
			c-0.4-0.4-0.6-0.8-0.7-1.2c-0.1-0.4-0.2-0.9-0.2-1.3c0-0.2,0-0.4,0-0.6c0-0.2,0-0.4,0-0.7l0.9,0.3c-0.1,0.2-0.3,0.3-0.4,0.5
			c-0.1,0.2-0.3,0.3-0.4,0.5c-0.1,0.2-0.3,0.3-0.5,0.4c-0.2,0.1-0.3,0.3-0.5,0.4c-0.4,0.2-0.8,0.5-1.2,0.6c-0.2,0.1-0.5,0.1-0.7,0
			c-0.1,0-0.2,0-0.4-0.1l-0.2-0.1l-0.1-0.1c-0.2-0.1-0.4-0.3-0.6-0.5c-0.2-0.2-0.2-0.4-0.3-0.7c-0.1-0.5,0.1-0.9,0.2-1.3
			c0.1-0.4,0.3-0.7,0.6-1.1C47.1,142.2,47.3,141.9,47.6,141.6z"/>
		<path class="st4" d="M46.8,150.7c-0.1,0.4-0.1,0.8-0.1,1.2c0,0.4,0,0.8,0.1,1.1c0.1,0.3,0.3,0.6,0.5,0.7c0.1,0.1,0.3,0.1,0.4,0.2
			c0.1,0,0.3,0,0.5,0l0,0l0,0l0,0c0,0,0,0,0,0l0,0l0,0l0.1,0l0.1,0c0.1,0,0.2,0,0.3,0l0.2,0l0.1,0l0.1,0l0.2-0.1l0.2-0.1
			c0.1,0,0.2-0.1,0.2-0.1c0.1,0,0.2-0.1,0.2-0.1l0.2-0.1l0.2-0.1c0.1-0.1,0.3-0.2,0.4-0.3c0.1-0.1,0.2-0.2,0.3-0.4
			c0-0.1,0.1-0.1,0.1-0.2c0-0.1,0.1-0.1,0.1-0.2l0.7-1.3l0.4,1.4c0,0.1,0.1,0.3,0.1,0.4c0.1,0.2,0.1,0.3,0.2,0.4
			c0.1,0.1,0.1,0.3,0.2,0.4c0.1,0.1,0.2,0.3,0.3,0.4c0.1,0.1,0.2,0.2,0.3,0.4c0,0.1,0.1,0.1,0.2,0.2l0.1,0.1l0.1,0.1
			c0.1,0,0.1,0.1,0.2,0.1l0.2,0.1c0.1,0,0.1,0,0.2,0.1c0.1,0,0.1,0.1,0.2,0.1l0.2,0l0,0l0,0l0,0c0,0,0,0,0,0l0,0h0l0.1,0l0.1,0
			l0.1,0c0,0,0.1,0,0.1,0c0.1,0,0.1,0,0.2,0l0.2-0.1c0.1,0,0.1-0.1,0.2-0.1c0.1-0.1,0.2-0.2,0.3-0.3c0.1-0.1,0.1-0.1,0.2-0.2
			c0-0.1,0.1-0.1,0.1-0.2c0.1-0.1,0.2-0.3,0.2-0.5c0.1-0.2,0.1-0.3,0.2-0.5c0.1-0.2,0.1-0.3,0.1-0.5c0,0.2,0,0.4,0,0.5
			c0,0.2,0,0.4,0,0.5c0,0.2-0.1,0.4-0.1,0.5c0,0.1-0.1,0.2-0.1,0.3c0,0.1-0.1,0.2-0.1,0.3c-0.1,0.2-0.2,0.3-0.4,0.5
			c-0.1,0.1-0.2,0.1-0.2,0.2l-0.3,0.2c-0.1,0.1-0.2,0.1-0.3,0.1c-0.1,0-0.1,0-0.2,0l-0.1,0l-0.1,0l-0.1,0l0,0l0,0h0h0h0l-0.3,0
			c-0.1,0-0.2,0-0.3,0c-0.1,0-0.2,0-0.3-0.1l-0.3-0.1c-0.1,0-0.2-0.1-0.3-0.2l-0.1-0.1l-0.1-0.1c-0.1-0.1-0.2-0.1-0.2-0.2
			c-0.1-0.1-0.3-0.3-0.4-0.4c-0.1-0.2-0.2-0.3-0.3-0.5c-0.1-0.2-0.2-0.3-0.3-0.5c-0.1-0.2-0.2-0.3-0.2-0.5c-0.1-0.2-0.1-0.4-0.2-0.6
			l1.1,0.1c-0.1,0.1-0.1,0.2-0.2,0.3c-0.1,0.1-0.1,0.2-0.2,0.3c-0.1,0.2-0.3,0.3-0.4,0.5c-0.2,0.2-0.3,0.3-0.5,0.4l-0.3,0.2
			c-0.1,0.1-0.2,0.1-0.3,0.2c-0.1,0.1-0.2,0.1-0.3,0.1c-0.1,0-0.2,0.1-0.3,0.1l-0.3,0.1l-0.3,0.1l-0.2,0l-0.2,0l-0.3,0
			c-0.1,0-0.2,0-0.3,0l-0.1,0l-0.1,0l-0.1,0l0,0c-0.2,0-0.4-0.1-0.7-0.1c-0.2-0.1-0.4-0.2-0.6-0.4c-0.2-0.2-0.3-0.4-0.4-0.6
			c-0.1-0.2-0.2-0.4-0.2-0.7c0-0.2,0-0.4,0-0.6c0-0.2,0.1-0.4,0.1-0.6C46.5,151.5,46.6,151.1,46.8,150.7z"/>
		<path class="st4" d="M48.6,158.2c0,0,0,0.1,0.1,0.4c0.1,0.3,0.2,0.6,0.3,1c0.1,0.4,0.4,0.8,0.7,1.1c0.2,0.2,0.3,0.3,0.5,0.4
			c0.1,0,0.2,0.1,0.3,0.1c0.1,0,0.1,0,0.2,0l0.1,0l0,0l0,0c0,0-0.1,0,0,0h0l0,0l0.1,0l0.2,0c0.1,0,0.2,0,0.2,0c0.1,0,0.2,0,0.3-0.1
			c0.1,0,0.2-0.1,0.3-0.1c0,0,0.1,0,0.1-0.1c0,0,0.1-0.1,0.1-0.1c0.2-0.1,0.4-0.3,0.5-0.5c0.2-0.2,0.3-0.4,0.4-0.5
			c0.1-0.2,0.2-0.3,0.3-0.5c0.1-0.2,0.2-0.3,0.2-0.4c0.1-0.2,0.2-0.4,0.2-0.4s0,0,0,0.1c0,0.1,0,0.2,0,0.3c0,0.3,0,0.7-0.2,1.1
			c-0.1,0.2-0.2,0.5-0.3,0.7c-0.1,0.2-0.3,0.5-0.5,0.7c-0.1,0.1-0.1,0.1-0.2,0.2c-0.1,0.1-0.1,0.1-0.2,0.2c-0.1,0-0.1,0.1-0.2,0.1
			l-0.2,0.1c-0.2,0.1-0.4,0.1-0.6,0.2c-0.1,0-0.2,0-0.3,0l-0.2,0l-0.1,0h0l-0.1,0l0,0l0,0l-0.1,0c-0.1,0-0.2,0-0.3,0
			c-0.2,0-0.4-0.1-0.5-0.2c-0.3-0.2-0.6-0.4-0.8-0.7c-0.2-0.3-0.3-0.6-0.4-0.9c-0.1-0.3-0.1-0.5-0.1-0.8c0-0.5,0-0.9,0.1-1.1
			C48.5,158.3,48.6,158.2,48.6,158.2z"/>
		<path class="st4" d="M25.4,139.6c-0.2,0.4-0.3,0.7-0.5,1.1c-0.1,0.4-0.2,0.8-0.3,1.2c-0.1,0.4-0.1,0.8,0,1.1
			c0,0.2,0.1,0.3,0.2,0.5c0.1,0.1,0.2,0.2,0.4,0.3c0.1,0,0.2,0.1,0.2,0.1c0,0,0,0,0.1,0l0,0l0,0l0,0c0,0,0,0,0,0l0,0l0,0l0.1,0
			c0,0,0.1,0,0.1,0l0.1,0l0.1,0l0.1,0c0.3-0.1,0.6-0.4,0.8-0.6c0.2-0.3,0.4-0.6,0.6-1c0.1-0.2,0.2-0.3,0.3-0.5
			c0.1-0.2,0.2-0.4,0.2-0.5l0.8-2l0,2.2c0,0.2,0,0.4,0,0.6c0,0.2,0,0.4,0.1,0.6c0,0.4,0.1,0.8,0.2,1.1c0.1,0.4,0.3,0.7,0.5,0.8
			c0.1,0.1,0.2,0.1,0.4,0.1c0.1,0,0.3-0.1,0.5-0.2l0.1,0l0,0c0,0,0,0,0,0l0,0l0.1-0.1c0.1-0.1,0.1-0.1,0.2-0.2
			c0.1-0.1,0.3-0.3,0.4-0.4c0.2-0.3,0.4-0.7,0.5-1.1c0.1-0.4,0.2-0.8,0.2-1.2c0-0.4,0.1-0.8,0.1-1.2c0.2,0.8,0.2,1.6,0,2.5
			c-0.1,0.4-0.2,0.8-0.4,1.2c-0.1,0.2-0.2,0.4-0.4,0.6c-0.1,0.1-0.2,0.2-0.2,0.3l-0.1,0.1l0,0l0,0l-0.1,0.1
			c-0.2,0.1-0.4,0.3-0.6,0.3c-0.3,0.1-0.6,0-0.8-0.1c-0.2-0.1-0.4-0.4-0.5-0.6c-0.1-0.2-0.2-0.4-0.3-0.6c-0.1-0.4-0.2-0.8-0.3-1.3
			c0-0.2,0-0.4-0.1-0.6c0-0.2,0-0.4,0-0.6l0.7,0.1c-0.1,0.2-0.2,0.4-0.3,0.6c-0.1,0.2-0.2,0.4-0.3,0.6c-0.2,0.4-0.4,0.7-0.7,1.1
			c-0.3,0.3-0.7,0.6-1.1,0.8l-0.2,0l-0.2,0l-0.2,0c-0.1,0-0.1,0-0.2,0l-0.1,0l0,0l0,0l0,0c0,0-0.1,0-0.1,0c-0.1,0-0.2-0.1-0.3-0.2
			c-0.2-0.1-0.4-0.3-0.5-0.5c-0.1-0.2-0.2-0.4-0.3-0.7c-0.1-0.5,0-0.9,0.1-1.3c0.1-0.4,0.3-0.8,0.5-1.2
			C24.9,140.3,25.1,139.9,25.4,139.6z"/>
		<path class="st4" d="M24,147.2c0,0,0,0.2,0,0.4c0,0.3-0.1,0.7-0.1,1.1c0,0.2,0,0.5,0.1,0.7c0,0.2,0.1,0.5,0.3,0.7
			c0.1,0.2,0.3,0.3,0.5,0.4c0.1,0,0.1,0,0.2,0l0.1,0c0,0,0.1,0,0.1,0c0.1,0,0.2,0,0.4,0c0.5-0.1,0.9-0.5,1.3-0.9
			c0.4-0.4,0.7-0.9,0.9-1.3c0.2-0.4,0.4-0.7,0.6-1c0.1-0.2,0.2-0.4,0.2-0.4s0,0.2-0.1,0.4c-0.1,0.3-0.2,0.7-0.3,1.1
			c-0.1,0.2-0.2,0.5-0.3,0.7c-0.1,0.3-0.3,0.5-0.5,0.8c-0.2,0.3-0.4,0.5-0.7,0.7c-0.3,0.2-0.6,0.4-1,0.5c-0.2,0-0.4,0.1-0.6,0.1
			c-0.1,0-0.1,0-0.1,0c-0.1,0-0.1,0-0.2,0c-0.1,0-0.2,0-0.3-0.1c-0.4-0.1-0.7-0.4-0.9-0.7c-0.2-0.3-0.2-0.7-0.2-1
			c0-0.3,0-0.6,0.1-0.8c0.1-0.5,0.2-0.9,0.3-1.1C23.9,147.4,24,147.2,24,147.2z"/>
		<path class="st4" d="M25.3,153c0,0,0,0.4,0,0.9c0,0.3,0,0.6-0.1,0.9c0,0.3-0.1,0.7-0.3,1.1c-0.1,0.2-0.1,0.4-0.2,0.5
			c-0.1,0.2-0.2,0.4-0.3,0.5c-0.1,0.1-0.3,0.3-0.4,0.4c-0.2,0.1-0.3,0.2-0.5,0.2c-0.2,0-0.3,0-0.4,0c-0.1,0-0.2-0.1-0.3-0.1
			c-0.2-0.1-0.2-0.1-0.2-0.1l0-0.1c0,0,0.1,0,0.2-0.1c0.1,0,0.2,0,0.2-0.1c0.1,0,0.2-0.1,0.3-0.1c0.1-0.1,0.2-0.1,0.3-0.2
			c0.1-0.1,0.2-0.2,0.3-0.3c0.1-0.1,0.2-0.2,0.3-0.3c0.1-0.1,0.2-0.3,0.3-0.4c0.3-0.6,0.5-1.3,0.6-1.8C25.2,153.4,25.3,153,25.3,153
			L25.3,153z"/>
		<path class="st9" d="M32.6,167.2c0,0,0,0.3-0.1,0.7c-0.1,0.4-0.2,1.1-0.4,1.8c-0.2,0.8-0.4,1.6-0.7,2.5c-0.1,0.5-0.3,0.9-0.4,1.4
			c-0.2,0.5-0.3,1-0.5,1.5c-0.2,0.5-0.3,1-0.5,1.4c-0.2,0.5-0.4,0.9-0.5,1.4c-0.4,0.9-0.7,1.7-1,2.4c-0.3,0.7-0.6,1.3-0.8,1.7
			c-0.2,0.4-0.3,0.6-0.3,0.6s0-0.3,0.1-0.7c0.1-0.4,0.2-1.1,0.4-1.8c0.2-0.8,0.4-1.6,0.7-2.5c0.1-0.5,0.3-0.9,0.4-1.4
			c0.2-0.5,0.3-1,0.5-1.5c0.2-0.5,0.3-1,0.5-1.4c0.2-0.5,0.4-0.9,0.5-1.4c0.4-0.9,0.7-1.7,1-2.4c0.3-0.7,0.6-1.3,0.8-1.7
			C32.4,167.5,32.6,167.2,32.6,167.2z"/>
		<path class="st9" d="M33.8,183.8c0,0,0-0.3-0.1-0.7c0-0.4,0-1.1,0-1.8c0-0.8,0-1.6,0.1-2.6c0-0.5,0.1-0.9,0.1-1.4
			c0-0.5,0.1-1,0.1-1.5c0.1-0.5,0.1-1,0.2-1.5c0.1-0.5,0.1-1,0.2-1.4c0.1-0.9,0.3-1.8,0.5-2.5c0.2-0.7,0.3-1.3,0.4-1.8
			c0.1-0.4,0.2-0.7,0.2-0.7s0,0.3,0.1,0.7c0,0.4,0,1.1,0,1.8c0,0.8,0,1.6-0.1,2.6c0,0.5-0.1,0.9-0.1,1.4c0,0.5-0.1,1-0.1,1.5
			c-0.1,0.5-0.1,1-0.2,1.5c-0.1,0.5-0.1,1-0.2,1.4c-0.1,0.9-0.3,1.8-0.5,2.5c-0.2,0.7-0.3,1.3-0.4,1.8
			C33.9,183.6,33.8,183.8,33.8,183.8z"/>
	</g>
</g>
</svg>
