<?xml version="1.0" encoding="utf-8"?>
<!-- Generator: Adobe Illustrator 22.1.0, SVG Export Plug-In . SVG Version: 6.00 Build 0)  -->
<svg version="1.1" id="レイヤー_1" xmlns="http://www.w3.org/2000/svg" xmlns:xlink="http://www.w3.org/1999/xlink" x="0px"
	 y="0px" viewBox="0 0 125.9 41.8" style="enable-background:new 0 0 125.9 41.8;" xml:space="preserve">
<style type="text/css">
	.st0{fill:#36533D;}
	.st1{fill:#EB7768;}
	.st2{fill:#C74E4F;}
</style>
<g>
	<g>
		<g>
			<path class="st0" d="M59.8,40.3l-0.8-0.6c0.2-0.3,19.8-28.7,49.3-24.8c4.4,0.6,7.9,2.9,8.9,5.8c0.7,2.2,0.1,4.4-1.9,6.4l-0.7-0.7
				c1.7-1.7,2.3-3.6,1.6-5.4c-0.9-2.6-4.1-4.6-8.1-5.1C79.3,12.1,60,40,59.8,40.3z"/>
			<path class="st0" d="M81.3,34.8c-0.8-2.5-2.2-4.2-4.1-4.9c-4-1.6-9.1,1-9.1,1L67.6,30c0.2-0.1,5.5-2.9,10-1.1
				c2.2,0.9,3.8,2.8,4.7,5.6L81.3,34.8z"/>
			<path class="st0" d="M90.8,28.3c-0.6-2.6-1.9-4.4-3.7-5.3c-3.8-2-9,0.1-9,0.2l-0.4-0.9c0.2-0.1,5.6-2.3,9.9-0.1
				c2.1,1.1,3.6,3.1,4.3,6L90.8,28.3z"/>
			<path class="st0" d="M103.2,25.6l-1,0c0.1-2.6-0.7-4.6-2.2-6c-3.3-3-9.2-2.3-9.3-2.3l-0.1-1c0.3,0,6.5-0.8,10.1,2.5
				C102.5,20.4,103.3,22.7,103.2,25.6z"/>
			<g>
				<g>
					<g>
						<path class="st1" d="M87.5,38.6c-1.2-2.7-4.4-5.6-6.5-4.7c-2,0.9-2.1,5.3-0.9,8l0.6-1.7l1.6,1.1l0.3-1.8l1.3,1.1l0.5-1.8
							l1.2,1l0.1-1.7L87.5,38.6z"/>
					</g>
					<path class="st1" d="M80,34.9c0.5,0.3,1.1,0.4,1.6,0.2c0.5-0.2,0.9-0.7,1-1.3c-0.5-0.1-1.1-0.1-1.5,0.1S80.3,34.4,80,34.9z"/>
				</g>
			</g>
			<g>
				<g>
					<g>
						<path class="st1" d="M94.6,34.7c0.4-2.9-0.8-7.1-2.9-7.5c-2.2-0.3-4.6,3.4-5,6.3l1.4-1.1l0.8,1.8l1.2-1.3l0.6,1.6l1.3-1.3
							l0.5,1.5l1-1.4L94.6,34.7z"/>
					</g>
					<path class="st1" d="M90.2,27.6c0.2,0.5,0.7,0.9,1.3,1c0.6,0.1,1.2-0.2,1.5-0.6c-0.4-0.4-0.8-0.7-1.3-0.8
						C91.1,27.2,90.6,27.3,90.2,27.6z"/>
				</g>
			</g>
			<g>
				<g>
					<g>
						<path class="st1" d="M107.5,30.6c-0.3-2.9-2.6-6.7-4.8-6.4c-2.2,0.3-3.5,4.5-3.2,7.4l1.1-1.4l1.2,1.5l0.8-1.6l1,1.4l1-1.6
							l0.9,1.4l0.6-1.6L107.5,30.6z"/>
					</g>
					<path class="st1" d="M101.4,24.9c0.3,0.4,0.9,0.7,1.5,0.6c0.6-0.1,1.1-0.4,1.3-1c-0.5-0.3-1-0.4-1.5-0.4S101.8,24.5,101.4,24.9
						z"/>
				</g>
			</g>
			<g>
				<g>
					<g>
						<path class="st1" d="M118.2,31c1-2.7,0.7-7.1-1.4-7.9c-2.1-0.8-5.2,2.4-6.2,5.1l1.6-0.8l0.4,1.9l1.4-1.1l0.2,1.7l1.6-1
							l0.2,1.6l1.2-1.2L118.2,31z"/>
					</g>
					<path class="st1" d="M115.3,23.1c0.1,0.5,0.5,1,1,1.2c0.6,0.2,1.2,0.1,1.6-0.3c-0.3-0.5-0.7-0.8-1.1-1
						C116.3,22.9,115.8,22.9,115.3,23.1z"/>
				</g>
			</g>
			<g>
				<path class="st0" d="M88.8,17.9L88,17.2c0.5-0.5,11.3-11.6,22.9-10.9c5.2,0.3,9.8,3.1,13.5,8.1l-0.8,0.6
					c-3.5-4.8-7.8-7.4-12.8-7.7C99.7,6.6,88.9,17.8,88.8,17.9z"/>
				<path class="st0" d="M97.2,8.1c-0.9,3-3.4,5-3.4,5s-1.1-3-0.2-6C94.5,4,97,2,97,2S98.1,5,97.2,8.1z"/>
				<path class="st0" d="M102.8,5.8C102,8,99.9,9.3,99.9,9.3s-0.8-2.3,0-4.6c0.8-2.2,2.9-3.5,2.9-3.5S103.6,3.5,102.8,5.8z"/>
				<path class="st0" d="M109.9,4.7c-1.8,2-4.4,2.6-4.4,2.6s0.3-2.7,2.2-4.7c1.8-2,4.4-2.6,4.4-2.6S111.7,2.7,109.9,4.7z"/>
				<path class="st0" d="M116.8,5.5c-1.4,1.4-3.5,1.5-3.5,1.5s0.1-2.1,1.5-3.5c1.4-1.4,3.5-1.5,3.5-1.5S118.2,4.1,116.8,5.5z"/>
				<path class="st0" d="M121.9,9.4c-2.3,0.3-4.4-0.7-4.4-0.7s1.7-1.6,4-1.9c2.3-0.3,4.4,0.7,4.4,0.7S124.2,9,121.9,9.4z"/>
				<path class="st0" d="M121.1,14.6c-1.3-1.9-1.3-4.2-1.3-4.2s2.2,0.8,3.5,2.7c1.3,1.9,1.3,4.2,1.3,4.2S122.4,16.5,121.1,14.6z"/>
				<path class="st0" d="M115.8,12c-1.1-2.1-0.7-4.4-0.7-4.4s2,1.1,3.1,3.2c1.1,2.1,0.7,4.4,0.7,4.4S116.9,14.1,115.8,12z"/>
				<path class="st0" d="M110.2,10.3c-1.2-1.6-1.4-3.5-1.4-3.5s1.9,0.6,3.1,2.1c1.2,1.6,1.4,3.5,1.4,3.5S111.4,11.8,110.2,10.3z"/>
				<path class="st0" d="M105.3,11.7c-1.8-1.5-2.5-3.7-2.5-3.7s2.3,0.1,4.1,1.6c1.8,1.5,2.5,3.7,2.5,3.7S107.1,13.2,105.3,11.7z"/>
				<path class="st0" d="M100,12.6c-1.8-0.6-2.8-2.1-2.8-2.1s1.8-0.5,3.5,0.1c1.8,0.6,2.8,2.1,2.8,2.1S101.7,13.2,100,12.6z"/>
			</g>
		</g>
		<g>
			<path class="st0" d="M66.1,40.3C65.9,40,46.6,12.1,17.8,15.9c-4,0.5-7.2,2.5-8.1,5.1c-0.6,1.8-0.1,3.7,1.6,5.4l-0.7,0.7
				c-1.9-2-2.6-4.3-1.9-6.4c1-2.9,4.5-5.2,8.9-5.8C47.1,11,66.8,39.4,67,39.7L66.1,40.3z"/>
			<path class="st0" d="M44.6,34.8l-1-0.3c0.9-2.8,2.5-4.7,4.7-5.6c4.4-1.8,9.7,1,10,1.1l-0.5,0.9c-0.1,0-5.1-2.7-9.1-1
				C46.8,30.6,45.4,32.3,44.6,34.8z"/>
			<path class="st0" d="M35.1,28.3l-1-0.2c0.7-2.9,2.1-4.9,4.3-6c4.2-2.2,9.6,0,9.9,0.1l-0.4,0.9c-0.1,0-5.2-2.1-9-0.2
				C37,23.9,35.7,25.7,35.1,28.3z"/>
			<path class="st0" d="M22.7,25.6c-0.1-2.9,0.8-5.2,2.5-6.8c3.6-3.3,9.8-2.6,10.1-2.5l-0.1,1c-0.1,0-6-0.7-9.3,2.3
				c-1.5,1.4-2.3,3.4-2.2,6L22.7,25.6z"/>
			<g>
				<path class="st1" d="M38.4,38.6c1.2-2.7,4.4-5.6,6.5-4.7c2,0.9,2.1,5.3,0.9,8l-0.6-1.7l-1.6,1.1l-0.3-1.8l-1.3,1.1l-0.5-1.8
					l-1.2,1l-0.1-1.7L38.4,38.6z"/>
				<path class="st1" d="M45.9,34.9c-0.5,0.3-1.1,0.4-1.6,0.2c-0.5-0.2-0.9-0.7-1-1.3c0.5-0.1,1.1-0.1,1.5,0.1S45.6,34.4,45.9,34.9z
					"/>
			</g>
			<g>
				<path class="st1" d="M31.3,34.7c-0.4-2.9,0.8-7.1,2.9-7.5c2.2-0.3,4.6,3.4,5,6.3l-1.4-1.1l-0.8,1.8l-1.2-1.3l-0.6,1.6L34,33.2
					l-0.5,1.5l-1-1.4L31.3,34.7z"/>
				<path class="st1" d="M35.7,27.6c-0.2,0.5-0.7,0.9-1.3,1c-0.6,0.1-1.2-0.2-1.5-0.6c0.4-0.4,0.8-0.7,1.3-0.8
					C34.8,27.2,35.3,27.3,35.7,27.6z"/>
			</g>
			<g>
				<path class="st1" d="M18.4,30.6c0.3-2.9,2.6-6.7,4.8-6.4c2.2,0.3,3.5,4.5,3.2,7.4l-1.1-1.4l-1.2,1.5L23.3,30l-1,1.4l-1-1.6
					l-0.9,1.4l-0.6-1.6L18.4,30.6z"/>
				<path class="st1" d="M24.5,24.9c-0.3,0.4-0.9,0.7-1.5,0.6c-0.6-0.1-1.1-0.4-1.3-1c0.5-0.3,1-0.4,1.5-0.4
					C23.7,24.2,24.1,24.5,24.5,24.9z"/>
			</g>
			<g>
				<path class="st1" d="M7.7,31c-1-2.7-0.7-7.1,1.4-7.9c2.1-0.8,5.2,2.4,6.2,5.1l-1.6-0.8l-0.4,1.9l-1.4-1.1l-0.2,1.7L10,29
					l-0.2,1.6l-1.2-1.2L7.7,31z"/>
				<path class="st1" d="M10.6,23.1c-0.1,0.5-0.5,1-1,1.2C9,24.5,8.4,24.4,8,24.1c0.3-0.5,0.7-0.8,1.1-1
					C9.6,22.9,10.1,22.9,10.6,23.1z"/>
			</g>
			<path class="st0" d="M37.1,17.9C37,17.8,26.2,6.6,15.1,7.3C10.2,7.6,5.9,10.2,2.3,15l-0.8-0.6c3.7-5,8.3-7.8,13.5-8.1
				c11.6-0.7,22.4,10.4,22.9,10.9L37.1,17.9z"/>
			<path class="st0" d="M28.7,8.1c0.9,3,3.4,5,3.4,5s1.1-3,0.2-6c-0.9-3-3.4-5-3.4-5S27.8,5,28.7,8.1z"/>
			<path class="st0" d="M23.1,5.8C23.9,8,26,9.3,26,9.3s0.8-2.3,0-4.6c-0.8-2.2-2.9-3.5-2.9-3.5S22.3,3.5,23.1,5.8z"/>
			<path class="st0" d="M16,4.7c1.8,2,4.4,2.6,4.4,2.6s-0.3-2.7-2.2-4.7c-1.8-2-4.4-2.6-4.4-2.6S14.2,2.7,16,4.7z"/>
			<path class="st0" d="M9.1,5.5c1.4,1.4,3.5,1.5,3.5,1.5S12.4,5,11,3.6C9.6,2.2,7.5,2,7.5,2S7.7,4.1,9.1,5.5z"/>
			<path class="st0" d="M4,9.4c2.3,0.3,4.4-0.7,4.4-0.7s-1.7-1.6-4-1.9C2.1,6.4,0,7.4,0,7.4S1.7,9,4,9.4z"/>
			<path class="st0" d="M4.8,14.6c1.3-1.9,1.3-4.2,1.3-4.2S4,11.2,2.6,13.1c-1.3,1.9-1.3,4.2-1.3,4.2S3.5,16.5,4.8,14.6z"/>
			<path class="st0" d="M10.1,12c1.1-2.1,0.7-4.4,0.7-4.4s-2,1.1-3.1,3.2C6.7,12.9,7,15.1,7,15.1S9,14.1,10.1,12z"/>
			<path class="st0" d="M15.7,10.3c1.2-1.6,1.4-3.5,1.4-3.5S15.2,7.3,14,8.9c-1.2,1.6-1.4,3.5-1.4,3.5S14.5,11.8,15.7,10.3z"/>
			<path class="st0" d="M20.6,11.7c1.8-1.5,2.5-3.7,2.5-3.7S20.8,8.2,19,9.6c-1.8,1.5-2.5,3.7-2.5,3.7S18.8,13.2,20.6,11.7z"/>
			<path class="st0" d="M25.9,12.6c1.8-0.6,2.8-2.1,2.8-2.1s-1.8-0.5-3.5,0.1c-1.8,0.6-2.8,2.1-2.8,2.1S24.2,13.2,25.9,12.6z"/>
		</g>
	</g>
	<path class="st2" d="M69.2,4.6c-2.8,0-5.2,1.7-6.2,4.2c-1-2.5-3.4-4.2-6.2-4.2c-3.7,0-6.8,3-6.8,6.8c0,1.8,0.7,3.5,1.9,4.7l0,0
		c0,0,0.1,0.1,0.1,0.1L63,27.1l10.9-10.9c0,0,0.1-0.1,0.1-0.1l0,0c1.2-1.2,1.9-2.9,1.9-4.7C76,7.6,72.9,4.6,69.2,4.6z"/>
</g>
</svg>
