<?xml version="1.0" encoding="utf-8"?>
<!-- Generator: Adobe Illustrator 22.1.0, SVG Export Plug-In . SVG Version: 6.00 Build 0)  -->
<svg version="1.1" id="レイヤー_1" xmlns="http://www.w3.org/2000/svg" xmlns:xlink="http://www.w3.org/1999/xlink" x="0px"
	 y="0px" viewBox="0 0 800 84.3" style="enable-background:new 0 0 800 84.3;" xml:space="preserve">
<style type="text/css">
	.st0{fill:#C4A676;}
</style>
<g>
	<g>
		<path class="st0" d="M125.2,4.3c-1.5,0-2.7,1.2-3.3,1.8c-5.3,0.2-58.8,0.1-110.9,0c-0.5,0-1,0.2-1.3,0.5C9.3,7,9.1,7.5,9.1,8
			l0,65.9c-0.2,3,0.8,9.1,6.4,10.3c0.5,0.1,1,0.2,1.5,0.2c2.3,0,3.5-1.2,4-1.8c1.2-1.5,1.5-3.7,0.7-5.6c-0.8-1.8-2.4-3-4.4-3.2
			c-2.1-0.2-3.5,0.5-4.5,1.3c0-0.4,0-0.8,0-0.9v-2.2c0.6-1.7,5.5-15.7,21.8-29.7c0.6-0.5,0.8-1.3,0.5-2c-0.3-0.7-1-1.2-1.8-1.2h-9.1
			l4.5-4.5c1.5-1.5,1.9-3.6,1.1-5.5l-3.3-7.8l7.3,3.9c1.9,1,4.3,1,6.2-0.2l5.6-3.4l-1.9,10c-0.2,0.8,0.2,1.6,0.9,1.9
			c0.5,0.3,1.1,0.4,1.6,0.2c0.3-0.1,0.4-0.2,0.6-0.4c1.4-1.1,6.6-5.1,13.6-9.4C70.3,17.5,84.5,10.1,96,10c0.3,0,0.5,0,0.7,0
			c3.8,0,6.9,0.4,9.3,1c-1.1,0.7-2.6,1.8-3.3,4.1c-0.6,1.9,0,3.8,1.6,5c2.1,1.6,5.7,1.7,7.8,0.3c1.8-1.2,3.3-4.3,2.4-7.2
			c-0.4-1.3-1.1-2.3-2.3-3.3c6,0,8.6-0.1,9.7-0.2c0.6,1.1,1.8,1.8,3.1,1.8c2,0,3.6-1.6,3.6-3.6C128.8,6,127.2,4.3,125.2,4.3z
			 M50.1,18c0.2-0.7-0.2-1.5-0.8-1.9c-0.6-0.4-1.4-0.4-2-0.1l-9.2,5.5c-0.8,0.5-1.7,0.5-2.5,0.1l-12-6.4c-0.7-0.4-1.6-0.3-2.1,0.3
			c-0.6,0.6-0.8,1.4-0.4,2.1l5.5,12.7c0.2,0.5,0.1,1-0.3,1.4l-7.7,7.6c-0.5,0.5-0.7,1.3-0.4,2c0.3,0.7,1,1.2,1.7,1.2h8.8
			c-8,7.6-12.9,15-15.7,20.2V9.8C41.8,9.9,63.1,10,78.8,10c-12.3,4.7-24.1,12.6-30.5,17.3L50.1,18z"/>
		<path class="st0" d="M39.2,40.3c-0.5,0.2-0.8,0.6-1,1c-0.2,0.5-0.2,1,0.1,1.5c0.8,1.7,2.7,7.4,1,10.8c-0.4,0.7-0.9,1.4-1.4,2
			c-0.1-0.2-0.3-0.5-0.5-0.9l-0.2-0.4c-1.2-2.3-4.3-2.9-6.4-1.9c-1.9,0.8-3.3,3-2.2,5.9c0.7,2,2.4,3.2,4.5,3.3c0.1,0,0.2,0,0.3,0
			c2,0,4.2-0.9,6-2.5c0.2-0.1,0.3-0.2,0.4-0.3c1.1-1,2-2.3,2.7-3.5c2.9-5.8-0.9-14-1-14.1C41.3,40.4,40.3,39.9,39.2,40.3z"/>
		<path class="st0" d="M42.3,34c0-2.1-1.7-3.9-3.9-3.9s-3.9,1.7-3.9,3.9s1.7,3.9,3.9,3.9S42.3,36.2,42.3,34z"/>
		<path class="st0" d="M60.7,46.2c0.3-0.7,0.2-1.4-0.2-1.9c-0.4-0.6-1.2-0.8-1.9-0.7C51.7,45.2,46,39.1,45,37.9
			c-0.1-0.1-0.1-0.2-0.2-0.3L44,38.3l0,0v0l0,0l0.6-0.8c-0.6-0.7-1.8-0.9-2.6-0.3c-0.4,0.3-0.6,0.8-0.7,1.3c-0.1,0.5,0.1,1,0.3,1.2
			c0,0.1,0.2,0.3,0.5,0.7c7.3,9,4.2,14.2,4,14.4c-0.5,0.7-0.4,1.5,0.1,2.2c0.5,0.6,1.3,0.9,2.1,0.6c6.1-2,11.1,1.4,11.7,1.8
			c0.3,0.3,0.7,0.4,1.1,0.4c0.5,0,1-0.2,1.3-0.6c0.7-0.7,0.7-1.8,0.1-2.5C58.3,51.4,60.7,46.3,60.7,46.2z"/>
		<path class="st0" d="M63.3,25.1c-0.7-0.3-1.4-0.4-2-0.4c-2,0-3.4,1.3-3.9,2.6c-0.9,2.1-0.5,5.1,1.9,6.4l0.4,0.2
			c0.2,0.1,0.5,0.3,0.9,0.5c-0.6,0.6-1.3,1-2,1.4c-4,2-10.8-1-10.9-1c-1.1-0.5-2.1,0.1-2.4,0.9C45,36,45,36.5,45.2,37
			c0.2,0.5,0.5,0.9,1,1.1c0.2,0.1,4.5,2.1,9,2.1c1.7,0,3.5-0.3,5.1-1.1c1.3-0.7,2.5-1.6,3.5-2.7c0.1-0.1,0.2-0.2,0.3-0.3
			c1.8-2,2.7-4.4,2.6-6.4C66.5,27.5,65.3,25.8,63.3,25.1z"/>
		<path class="st0" d="M133.5,0c-2.3,0-3.4,4.1-3.4,8c0,3.8,1.1,8,3.4,8s3.4-4.1,3.4-8C136.9,4.1,135.8,0,133.5,0z"/>
		<path class="st0" d="M142.1,4.1c-2.1,0-3.8,1.7-3.8,3.8c0,2.1,1.7,3.8,3.8,3.8c2.1,0,3.8-1.7,3.8-3.8
			C145.9,5.8,144.2,4.1,142.1,4.1z"/>
	</g>
	<g>
		<path class="st0" d="M671.2,8c0,2,1.6,3.6,3.6,3.6c1.3,0,2.5-0.7,3.1-1.8c1.2,0.1,3.7,0.1,9.7,0.2c-1.1,0.9-1.9,2-2.3,3.3
			c-0.9,2.9,0.6,6,2.4,7.2c2.1,1.4,5.7,1.2,7.8-0.3c1.6-1.2,2.2-3.1,1.6-5c-0.7-2.2-2.2-3.4-3.3-4.1c2.4-0.6,5.5-1,9.3-1
			c0.2,0,0.4,0,0.7,0c11.5,0.1,25.7,7.5,35.6,13.7c6.9,4.3,12.1,8.3,13.6,9.4c0.1,0.1,0.3,0.3,0.6,0.4c0.5,0.2,1.1,0.1,1.6-0.2
			c0.7-0.4,1-1.2,0.9-1.9l-1.9-10l5.6,3.4c1.9,1.1,4.3,1.2,6.2,0.2l7.3-3.9l-3.3,7.8c-0.8,1.9-0.4,4.1,1.1,5.5l4.5,4.5h-9.1
			c-0.8,0-1.5,0.5-1.8,1.2c-0.3,0.7-0.1,1.5,0.5,2c16.3,14,21.3,28,21.8,29.7V74c0,0.2,0,0.5,0,0.9c-0.9-0.7-2.4-1.4-4.5-1.3
			c-2,0.2-3.6,1.4-4.4,3.2c-0.8,1.9-0.5,4.1,0.7,5.6c0.5,0.6,1.7,1.8,4,1.8c0.4,0,0.9,0,1.5-0.2c5.6-1.2,6.6-7.2,6.4-10.3l0-65.9
			c0-0.5-0.2-1-0.5-1.3c-0.4-0.4-0.8-0.5-1.3-0.5c-52.2,0.2-105.6,0.3-110.9,0c-0.6-0.6-1.8-1.8-3.3-1.8C672.8,4.3,671.2,6,671.2,8z
			 M751.7,27.3c-6.4-4.7-18.2-12.6-30.5-17.3c15.7,0,37-0.1,65.9-0.2v52.9c-2.8-5.2-7.7-12.6-15.7-20.2h8.8c0.8,0,1.4-0.5,1.7-1.2
			c0.3-0.7,0.1-1.5-0.4-2l-7.7-7.6c-0.4-0.4-0.5-0.9-0.3-1.4l5.5-12.7c0.3-0.7,0.2-1.6-0.4-2.1c-0.6-0.5-1.4-0.7-2.1-0.3l-12,6.4
			c-0.8,0.4-1.8,0.4-2.5-0.1l-9.2-5.5c-0.6-0.4-1.4-0.3-2,0.1c-0.6,0.4-0.9,1.2-0.8,1.9L751.7,27.3z"/>
		<path class="st0" d="M760.8,40.3c0.5,0.2,0.8,0.6,1,1c0.2,0.5,0.2,1-0.1,1.5c-0.8,1.7-2.7,7.4-1,10.8c0.4,0.7,0.9,1.4,1.4,2
			c0.1-0.2,0.3-0.5,0.5-0.9l0.2-0.4c1.2-2.3,4.3-2.9,6.4-1.9c1.9,0.8,3.3,3,2.2,5.9c-0.7,2-2.4,3.2-4.5,3.3c-0.1,0-0.2,0-0.3,0
			c-2,0-4.2-0.9-6-2.5c-0.2-0.1-0.3-0.2-0.4-0.3c-1.1-1-2-2.3-2.7-3.5c-2.9-5.8,0.9-14,1-14.1C758.7,40.4,759.7,39.9,760.8,40.3z"/>
		<path class="st0" d="M757.7,34c0-2.1,1.7-3.9,3.9-3.9c2.1,0,3.9,1.7,3.9,3.9s-1.7,3.9-3.9,3.9C759.5,37.9,757.7,36.2,757.7,34z"/>
		<path class="st0" d="M739.3,46.2c-0.3-0.7-0.2-1.4,0.2-1.9c0.4-0.6,1.2-0.8,1.9-0.7c6.9,1.6,12.6-4.5,13.6-5.7
			c0.1-0.1,0.1-0.2,0.2-0.3l0.8,0.7l0,0v0l0,0l-0.6-0.8c0.6-0.7,1.8-0.9,2.6-0.3c0.4,0.3,0.6,0.8,0.7,1.3c0.1,0.5-0.1,1-0.3,1.2
			c0,0.1-0.2,0.3-0.5,0.7c-7.3,9-4.2,14.2-4,14.4c0.5,0.7,0.4,1.5-0.1,2.2c-0.5,0.6-1.3,0.9-2.1,0.6c-6.1-2-11.1,1.4-11.7,1.8
			c-0.3,0.3-0.7,0.4-1.1,0.4c-0.5,0-1-0.2-1.3-0.6c-0.7-0.7-0.7-1.8-0.1-2.5C741.7,51.4,739.3,46.3,739.3,46.2z"/>
		<path class="st0" d="M736.7,25.1c0.7-0.3,1.4-0.4,2-0.4c2,0,3.4,1.3,3.9,2.6c0.9,2.1,0.5,5.1-1.9,6.4l-0.4,0.2
			c-0.2,0.1-0.5,0.3-0.9,0.5c0.6,0.6,1.3,1,2,1.4c4,2,10.8-1,10.9-1c1.1-0.5,2.1,0.1,2.4,0.9c0.2,0.4,0.2,0.9,0.1,1.4
			c-0.2,0.5-0.5,0.9-1,1.1c-0.2,0.1-4.5,2.1-9,2.1c-1.7,0-3.5-0.3-5.1-1.1c-1.3-0.7-2.5-1.6-3.5-2.7c-0.1-0.1-0.2-0.2-0.3-0.3
			c-1.8-2-2.7-4.4-2.6-6.4C733.5,27.5,734.7,25.8,736.7,25.1z"/>
		<path class="st0" d="M666.5,0c2.3,0,3.4,4.1,3.4,8c0,3.8-1.1,8-3.4,8c-2.3,0-3.4-4.1-3.4-8C663.1,4.1,664.2,0,666.5,0z"/>
		<path class="st0" d="M657.9,4.1c2.1,0,3.8,1.7,3.8,3.8c0,2.1-1.7,3.8-3.8,3.8c-2.1,0-3.8-1.7-3.8-3.8
			C654.1,5.8,655.8,4.1,657.9,4.1z"/>
	</g>
</g>
</svg>
