<?xml version="1.0" encoding="utf-8"?>
<!-- Generator: Adobe Illustrator 22.1.0, SVG Export Plug-In . SVG Version: 6.00 Build 0)  -->
<svg version="1.1" id="レイヤー_1" xmlns="http://www.w3.org/2000/svg" xmlns:xlink="http://www.w3.org/1999/xlink" x="0px"
	 y="0px" viewBox="0 0 201.2 201.2" style="enable-background:new 0 0 201.2 201.2;" xml:space="preserve">
<g>
	<g>
		<path d="M131.2,185.9c0.4-0.3,0.7-0.6,1.1-0.9c0.4-0.3,0.8-0.6,1.3-0.8c0.4-0.3,0.9-0.5,1.4-0.7c0.5-0.2,0.9-0.4,1.4-0.6
			c-0.4,0-0.9-0.1-1.3-0.2c-0.4-0.1-0.9-0.2-1.3-0.3c-0.8-0.2-1.6-0.6-2.4-1c-0.5-0.3-1-0.8-1.3-1.3c-0.3-0.6-0.4-1.2,0-1.8
			c0.4-0.7,1.1-0.9,1.8-1c0.8-0.1,1.6,0.1,2.2,0.3c2.1,0.6,3.7,2.2,5.3,3.7c0.1,0.1,0.1,0.1,0.1,0.2c2.1-1.2,4.2-2.3,6.1-3.6
			c-1.3-0.1-2.6-0.5-3.7-1.2c-1.2-0.8-2.6-2.5-2-4c0.5-1.4,2.3-1.2,3.5-0.7c1,0.4,1.9,1,2.7,1.7c0.8,0.7,1.6,1.5,2.3,2.3l2-1.4
			c0.7-0.5,1.3-1,2-1.5l1-0.8l0.5-0.4l0.5-0.4l1.9-1.6l0.7-0.6c-1.7,0.4-3.4,0.5-5-0.2c-0.6-0.3-1.5-0.8-2-1.5
			c-0.6-0.7-0.9-1.5-0.6-2.3c0.3-0.8,1.2-1,2.1-1c1,0,2,0.2,2.7,0.4c1.8,0.5,3.5,1.5,4.7,2.9l0.9-0.8c0.3-0.3,0.6-0.5,0.8-0.8
			l1.6-1.7l0.8-0.8c0.3-0.3,0.5-0.6,0.8-0.9l1.5-1.7c-0.7,0.3-1.6,0.5-2.4,0.7c-0.4,0.1-0.8,0.1-1.2,0.2c-0.4,0-0.8,0-1.2,0
			c-1.5-0.2-2.7-0.9-2.9-2.5c-0.2-1.4,1.1-2.3,2.3-2.4c2.1-0.1,4.9,1.4,6.9,2.1c0,0,0.1,0,0.1,0.1l1.5-1.9l1.4-1.9l0.7-1l0.4-0.5
			c0.1-0.2,0.2-0.3,0.3-0.5l1.3-2c-0.7,0.4-1.5,0.7-2.2,0.9c-0.4,0.1-0.8,0.2-1.1,0.2c-0.4,0-0.8,0.1-1.2,0
			c-1.5-0.1-3.6-0.7-3.8-2.4c-0.1-0.5,0-0.9,0.3-1.3c0.2-0.3,0.6-0.6,0.9-0.8c0.8-0.4,1.8-0.5,2.6-0.5c1.1,0,2.1,0.1,3.1,0.3
			c1,0.2,2,0.6,3,1c0.5-0.8,1-1.6,1.4-2.4l1.3-2.4c0.2-0.4,0.5-0.8,0.7-1.2l0.6-1.2c0.4-0.8,0.8-1.6,1.2-2.5
			c-0.8,0.7-1.8,1.2-2.7,1.7c-1,0.4-2,0.7-3,0.8c-1.7,0.2-4.1-0.8-3.7-2.8c0.2-1,1.2-1.5,2.3-1.8c0.6-0.1,1.2-0.2,1.8-0.2
			c0.6,0,1.1-0.1,1.6-0.1c0.4,0,1.3,0,2.2,0c0.9,0.1,1.8,0.3,2.1,0.7c0.1,0,0.2-0.1,0.3,0c2.1-4.8,3.9-9.8,5.2-14.8
			c-0.5,0.8-1.1,1.5-1.8,2.1c-0.7,0.6-1.4,1.1-2.3,1.4c-0.4,0.1-0.8,0.2-1.3,0.3c-0.5,0.1-0.9,0.1-1.4,0c-0.9-0.1-1.8-0.4-2.4-1
			c-0.8-0.8-0.7-1.4-0.2-1.9c0.5-0.5,1.5-0.9,2.2-1.1c1.1-0.4,2.2-0.7,3.4-0.9c1.1-0.2,2.3-0.2,3.5-0.2c0-0.1,0.1-0.1,0.1-0.2
			c0.1-0.2,0.4-0.3,0.6-0.2c1-4.3,1.9-8.7,2.4-13.2c-1.2,1.2-2.7,2.1-4.2,2.7c-0.6,0.2-1.6,0.6-2.5,0.7c-0.9,0.1-1.8,0-2.2-0.8
			c-0.4-0.7-0.2-1.3,0.3-1.8c0.5-0.5,1.2-0.8,1.8-1.1c2.2-0.9,4.6-1.3,7-1.3c0.1-0.7,0.1-1.3,0.2-2c0-0.1,0-0.2,0-0.2
			c0-0.5,0.1-1,0.1-1.6c0-0.6,1-0.6,0.9,0c0,0.6-0.1,1.1-0.1,1.7c0.2,0.8,0.5,1.5,0.9,2.2c0.4,0.7,0.9,1.3,1.4,1.9
			c1,1.2,2.2,2.4,3,3.7c0.4,0.7,0.9,1.6,1,2.5c0.1,0.9-0.1,1.7-1.1,2.2c-1,0.5-1.8,0.5-2.4,0.1c-0.7-0.3-1.1-1-1.6-1.9
			c-0.9-1.7-1.3-4.1-1.7-6l-0.2,1.6c0,0.3-0.1,0.5-0.1,0.8l-0.1,0.8l-0.5,3.2c-0.5,2.1-0.8,4.2-1.4,6.3c1.8,1.5,4,3.1,5,5.3
			c0.3,0.7,0.5,1.6,0.4,2.5c0,0.9-0.4,1.7-1.2,2.1c-1.5,0.9-2.8-0.5-3.2-1.9c-0.1-0.3-0.2-0.7-0.3-1c-0.1-0.3-0.2-0.7-0.2-1
			c-0.1-0.7-0.3-1.4-0.5-2c-0.2-0.7-0.4-1.3-0.6-1.9c-0.1,0.2-0.1,0.4-0.2,0.6l-1,3.5l-1.2,3.5c-0.2,0.6-0.4,1.1-0.6,1.7l-0.7,1.7
			c-0.4,1.2-1,2.3-1.4,3.4c0,0,0.1,0,0.1,0.1c0.6,0.5,2.3,2.1,3.3,3.7c1,1.6,1.2,3.3-0.8,3.9c-0.8,0.2-1.5,0.1-1.9-0.2
			c-0.4-0.3-0.7-0.8-0.9-1.4c-0.4-1.2-0.4-2.9-0.5-4.2l-1.2,2.5l-0.6,1.2l-0.7,1.2l-1.3,2.4l-1.4,2.4c0,0,0.1,0,0.1,0.1
			c0.5,0.5,1.9,2.1,2.7,3.7c0.7,1.6,0.8,3.2-0.9,3.7c-1.4,0.3-2-0.6-2.4-1.9c-0.3-1.3-0.4-2.9-0.4-4.1l-1.5,2.2l-0.7,1.1l-0.8,1.1
			l-1.6,2.1c-0.6,0.7-1.1,1.4-1.7,2.1l0,0c0.9,1.3,1.7,2.7,2.3,4.2c0.6,1.5,1,3.1,1.1,4.7c0.1,0.9,0,2-0.5,2.8
			c-0.5,0.8-1.3,1.3-2.5,1.1c-1.1-0.2-1.8-1-2.1-2c-0.3-1-0.4-2.2-0.3-3.1c0.2-1.1,0.4-2.2,0.7-3.3c0.2-1.1,0.4-2.1,0.3-3.2
			l-1.7,1.9c-0.6,0.6-1.1,1.3-1.7,1.9c-1.2,1.2-2.4,2.5-3.6,3.6c0.4,1.1,0.6,2.2,0.6,3.3c0,0.6,0,1.2-0.1,1.7
			c-0.1,0.6-0.2,1.1-0.4,1.7c-0.2,0.8-0.6,1.9-1.2,2.8c-0.6,0.9-1.4,1.6-2.5,1.7c-1.8,0.1-2.1-1.5-1.6-2.9c0.3-0.7,0.6-1.4,1-2.1
			c0.4-0.7,0.7-1.4,1.1-2c0.5-0.9,0.9-1.9,1.3-2.8c-2.8,2.4-5.6,4.8-8.7,6.9c0,0,0,0,0,0c0.4,1,0.7,2.1,0.8,3.2c0,0.5,0,1.1,0,1.7
			c-0.1,0.5-0.2,1.1-0.4,1.6c-0.2,0.7-0.6,1.6-1.2,2.3c-0.3,0.4-0.6,0.7-1,0.9c-0.4,0.2-0.8,0.3-1.3,0.3c-2,0-2.1-2.2-1.6-3.6
			c0.2-0.5,0.4-0.9,0.6-1.3c0.2-0.4,0.4-0.9,0.7-1.3c0.5-0.8,1.1-1.6,1.8-2.3c-0.1,0-0.3,0-0.4,0l-2,1.3l-1,0.6
			c-0.3,0.2-0.7,0.4-1,0.6l-2,1.2c-0.3,0.2-0.7,0.4-1,0.6l-1.1,0.5c0,0.2-0.2,0.5-0.5,0.4c0,0,0,0.1,0,0.1c0,0.1-0.1,0.2-0.1,0.4
			c-0.1,0.3-0.3,0.7-0.4,1.1c-0.3,0.8-0.7,1.7-0.8,1.8c-0.6,1-1.3,2-2.2,2.8c-0.3,0.2-0.6,0.5-0.9,0.7c-0.3,0.2-0.7,0.4-1.1,0.5
			c-0.8,0.2-1.5,0.2-2.2-0.4C129.3,189,130.1,187,131.2,185.9z"/>
	</g>
	<g>
		<path d="M30.7,155.9c0.9,0.5,1.7,1.1,2.4,1.7c0.4,0.4,0.8,0.7,1.1,1c0.4,0.4,0.7,0.7,1.1,1.1c-0.2-0.9-0.4-1.7-0.4-2.6
			c-0.1-0.9,0-1.8,0.3-2.6c0.3-1.1,1.2-2.5,2.5-2.2c0.4,0.1,0.7,0.3,0.9,0.5c0.1,0.1,0.2,0.3,0.3,0.4c0.1,0.2,0.2,0.3,0.3,0.5
			c0.3,0.7,0.4,1.5,0.4,2.2c0,2.2-1,4.2-1.9,6.2c0,0.1-0.1,0.1-0.1,0.2c1.7,1.7,3.5,3.2,5.3,4.7c-0.2-0.6-0.2-1.3-0.2-2
			c0-0.7,0.1-1.3,0.3-1.9c0.4-1.3,1.5-3.3,3.2-3.1c0.7,0.1,1.2,0.5,1.4,1.1c0.3,0.6,0.4,1.3,0.3,1.9c-0.1,2.1-1.2,4.2-2.3,6.1
			c0.7,0.5,1.4,1,2,1.5l1,0.7c0.3,0.2,0.7,0.5,1,0.7l2.1,1.4l1,0.7l1.1,0.6l0.8,0.4c-0.4-0.7-0.8-1.5-1.1-2.3
			c-0.2-0.8-0.4-1.7-0.3-2.5c0.1-1.4,1.1-3.8,2.8-3.7c0.8,0.1,1.3,0.9,1.6,1.7c0.3,0.9,0.4,2,0.5,2.6c0,0.9-0.1,1.9-0.3,2.8
			c-0.2,0.9-0.6,1.8-1.1,2.6l2.1,1.1c0.7,0.4,1.4,0.7,2.1,1l2.1,1c0.4,0.2,0.7,0.3,1.1,0.5l1.1,0.4c-0.2-0.3-0.5-0.6-0.7-1
			c-0.2-0.3-0.4-0.7-0.7-1.1c-0.4-0.8-0.7-1.5-0.9-2.3c-0.3-1.5,0-2.8,1.5-3.5c0.6-0.3,1.3-0.2,1.8,0.1c0.5,0.3,1,0.9,1.2,1.4
			c0.8,1.9,0.2,5.1,0.1,7.2c0,0,0,0.1,0,0.1c0.4,0.2,0.7,0.3,1.1,0.4l1.1,0.4c0.8,0.3,1.5,0.5,2.3,0.8l2.3,0.7
			c0.8,0.2,1.5,0.5,2.3,0.7c-0.6-0.5-1.1-1.2-1.5-1.8c-0.4-0.7-0.8-1.4-1-2.1c-0.4-1.4-0.4-3.6,1.1-4.4c1-0.5,1.7-0.1,2.3,0.5
			c0.6,0.7,1,1.6,1.3,2.3c0.7,2,0.9,4.1,0.6,6.2c0.2,0.1,0.4,0.1,0.7,0.2l0.7,0.1l1.4,0.3l1.4,0.3l0.7,0.1l0.7,0.1
			c1.8,0.3,3.6,0.6,5.5,0.8c-1.8-1.1-3.3-2.8-4.2-4.7c-0.7-1.5-0.5-4.1,1.5-4.4c0.5-0.1,1,0.1,1.4,0.4c0.4,0.3,0.7,0.8,1.1,1.3
			c0.6,1,1.1,2.3,1.4,3.1c0.1,0.4,0.4,1.2,0.6,2.1c0.2,0.9,0.3,1.8,0,2.2c0.1,0.1,0.1,0.1,0.1,0.2c5.2,0.5,10.5,0.6,15.7,0.4
			c-1.8-0.5-3.5-1.3-4.6-2.8c-1-1.3-1.6-3.4-0.9-5c0.5-1.1,1.1-1.1,1.8-0.7c0.6,0.4,1.3,1.1,1.8,1.7c1.4,1.8,2.5,3.9,3.1,6.2
			c0.1,0,0.1,0,0.2,0c0.3,0.1,0.4,0.3,0.4,0.5l0.8,0l0.8-0.1l1.7-0.2l1.7-0.2c0.6-0.1,1.1-0.2,1.7-0.2l1.7-0.2
			c0.6-0.1,1.1-0.1,1.7-0.3l3.3-0.6c-1.5-0.8-2.8-1.9-3.8-3.3c-0.4-0.5-1-1.3-1.4-2.1c-0.2-0.4-0.3-0.8-0.3-1.2
			c0-0.4,0.1-0.8,0.4-1.1c1.1-1.2,2.5,0.2,3.3,1.1c0.8,0.9,1.4,1.9,2,2.9c0.6,1,1,2.1,1.3,3.3c0.6-0.1,1.3-0.3,1.9-0.4
			c0.1,0,0.2-0.1,0.2-0.1c0.5-0.1,1-0.2,1.5-0.4c0.6-0.2,0.9,0.7,0.3,0.9c-0.6,0.2-1.1,0.3-1.7,0.4c-0.7,0.4-1.3,1-1.8,1.5
			c-0.5,0.6-0.9,1.3-1.4,1.9c-0.8,1.3-1.6,2.8-2.6,4c-0.3,0.3-0.6,0.7-0.9,1c-0.4,0.3-0.7,0.6-1.1,0.7c-0.8,0.3-1.7,0.4-2.5-0.4
			c-1.5-1.5-0.9-3,0.4-4.4c0.7-0.7,1.5-1.3,2.5-1.8c0.9-0.6,1.9-1.1,2.7-1.6c-4.2,0.9-8.5,1.3-12.7,1.6c-0.4,1.1-0.9,2.3-1.4,3.4
			c-0.3,0.6-0.6,1.1-0.9,1.6c-0.2,0.3-0.4,0.5-0.6,0.7c-0.2,0.2-0.4,0.4-0.6,0.7c-0.6,0.5-1.4,1-2.2,1.1c-0.4,0.1-0.8,0.1-1.3,0.1
			c-0.2,0-0.4-0.1-0.6-0.2c-0.2-0.1-0.4-0.2-0.5-0.4c-1.3-1.2-0.3-2.8,0.8-3.6c1.1-0.8,2.4-1.4,3.5-2.2c0.3-0.2,0.6-0.4,0.8-0.6
			c0.3-0.2,0.6-0.4,0.8-0.6c-0.2,0-0.4,0-0.6,0c-4.9,0.2-9.8,0-14.7-0.5c0,0,0,0.1,0,0.1c-0.3,0.7-1.3,2.8-2.5,4.2
			c-0.6,0.7-1.3,1.3-2,1.4c-0.7,0.1-1.4-0.1-1.9-1c-0.9-1.5-0.4-2.5,0.7-3.2c0.5-0.4,1.2-0.7,1.9-1c0.3-0.1,0.7-0.3,1-0.4
			c0.3-0.1,0.7-0.3,1-0.4l-1.4-0.2c-0.5-0.1-0.9-0.1-1.4-0.2l-2.7-0.4c-0.9-0.2-1.8-0.4-2.7-0.6c-0.9-0.2-1.8-0.4-2.7-0.6
			c0,0,0,0.1,0,0.1c-0.3,0.7-1.4,2.4-2.7,3.6c-0.6,0.6-1.3,1.1-2,1.2c-0.7,0.1-1.3-0.1-1.8-0.9c-0.7-1.2,0-2.1,1.1-2.8
			c0.6-0.4,1.2-0.6,1.9-0.9c0.7-0.3,1.3-0.5,1.9-0.7c-1.7-0.4-3.4-1-5.1-1.5l-0.6-0.2l-0.6-0.2l-1.3-0.5l-1.3-0.5
			c-0.4-0.2-0.8-0.3-1.3-0.5l0,0c-1.9,2.5-4.4,4.7-7.5,6c-0.8,0.4-1.9,0.5-2.8,0.3c-0.5-0.1-0.9-0.3-1.2-0.6
			c-0.3-0.3-0.6-0.8-0.6-1.4c-0.1-1.2,0.4-2,1.3-2.7c0.8-0.6,2-1,2.9-1.2c1.1-0.2,2.2-0.3,3.3-0.4c1.1-0.1,2.2-0.3,3.2-0.7
			c-0.8-0.3-1.6-0.6-2.4-1l-2.3-1.1l-1.2-0.5c-0.4-0.2-0.8-0.4-1.1-0.6l-2.3-1.2c-0.9,0.7-1.9,1.2-3,1.6c-1.1,0.4-2.2,0.6-3.4,0.7
			c-0.9,0-2,0-3.1-0.3c-1-0.3-2-0.8-2.4-1.8c-0.7-1.7,0.8-2.5,2.3-2.4c1.5,0.1,3.1,0.5,4.5,0.7c1,0.1,2.1,0.3,3.1,0.4
			c-0.8-0.5-1.6-0.9-2.4-1.4l-2.3-1.5c-0.4-0.3-0.8-0.5-1.2-0.8l-1.1-0.8l-2.3-1.6c0,0,0,0,0,0c-1.6,1.4-3.7,2.3-6,2.3
			c-1.5,0-3.8-0.4-4.4-2.2c-0.6-1.9,1.5-2.7,3-2.7c1,0,1.9,0.2,2.9,0.4c0.2,0.1,0.5,0.1,0.7,0.2c0.2,0.1,0.5,0.1,0.7,0.2
			c0.5,0.2,0.9,0.3,1.4,0.5c0-0.1-0.1-0.2-0.1-0.4l-0.9-0.7l-0.5-0.4l-0.4-0.4l-1.8-1.5l-0.9-0.8c-0.3-0.3-0.6-0.5-0.9-0.8l-1.7-1.6
			c-0.2,0.1-0.5,0-0.6-0.3c0,0-0.1,0-0.2,0c-0.1,0-0.2,0-0.4,0c-0.3,0-0.7-0.1-1.2-0.1c-0.9-0.1-1.8-0.2-2-0.2
			c-1.2-0.2-2.4-0.6-3.4-1.2c-0.6-0.4-1.3-0.9-1.7-1.6c-0.2-0.3-0.4-0.7-0.5-1c-0.1-0.4,0-0.7,0.1-1.1c0.4-0.9,1.1-1.3,1.9-1.3
			c0.4,0,0.8,0,1.2,0.1C29.9,155.6,30.3,155.7,30.7,155.9z"/>
	</g>
	<g>
		<path d="M28.1,51.1c-0.2,0.9-0.5,1.9-0.9,2.8c-0.2,0.5-0.4,0.9-0.7,1.4c-0.1,0.2-0.2,0.4-0.4,0.7c-0.1,0.2-0.2,0.4-0.4,0.7
			c0.7-0.5,1.6-0.9,2.4-1.2c0.8-0.3,1.7-0.5,2.5-0.6c1.1-0.1,2.8,0.3,2.9,1.7c0.1,0.8-0.3,1.4-0.9,1.9c-0.6,0.5-1.4,0.9-1.9,1.1
			c-2,0.7-4.3,0.4-6.5,0.1c-0.1,0-0.2,0-0.2-0.1c-0.5,1.1-1,2.2-1.5,3.2l-0.4,0.8l-0.3,0.8l-0.7,1.7c1.2-0.7,2.4-1.1,3.7-1.2
			c1.4,0,3.6,0.5,3.9,2c0.4,1.4-1.2,2.3-2.4,2.6c-0.3,0.1-0.5,0.1-0.8,0.2c-0.3,0-0.5,0.1-0.8,0.1c-0.5,0-1.1,0-1.6,0
			c-1.1-0.1-2.2-0.3-3.2-0.5l-0.8,2.4L18.6,74l-0.3,1.2c-0.1,0.2-0.1,0.4-0.2,0.6l-0.1,0.6l-0.6,2.4l-0.2,0.8
			c1.2-1.3,2.5-2.4,4.2-2.8c0.7-0.2,1.7-0.2,2.5,0c0.9,0.2,1.6,0.7,1.8,1.5c0.2,0.8-0.3,1.5-1.1,2.1c-0.8,0.6-1.8,1-2.4,1.3
			c-1.7,0.7-3.7,0.8-5.5,0.4c-0.1,0.8-0.3,1.5-0.4,2.3l-0.3,2.3l-0.2,1.2l-0.1,0.6l-0.1,0.6l-0.2,2.3c0.9-1.3,2-2.7,3.4-3.5
			c1.3-0.8,2.7-0.9,3.8,0.3c0.5,0.5,0.6,1.1,0.5,1.7c-0.1,0.6-0.5,1.2-1,1.6c-0.8,0.7-2,1.1-3.3,1.5c-1.3,0.3-2.5,0.6-3.5,0.9
			c0,0-0.1,0-0.1,0l-0.1,2.4c0,0.4,0,0.8,0,1.2l0,1.2l0,2.4l0,0.6l0,0.6l0.1,1.2c0.4-0.7,0.8-1.4,1.3-2c0.5-0.6,1.1-1.2,1.7-1.6
			c1.2-0.8,3.4-1.6,4.5-0.3c0.7,0.8,0.6,1.6,0.2,2.4c-0.4,0.8-1.2,1.5-1.8,2c-1.7,1.3-3.6,2.1-5.7,2.5l0.3,2.8l0.1,1.4L16,112
			l0.4,2.7c0.2,0.9,0.3,1.8,0.5,2.7c0.3-1,0.7-2,1.2-2.9c0.6-0.9,1.2-1.8,2-2.5c1.2-1.1,3.8-1.8,4.7,0c0.2,0.5,0.2,1,0,1.4
			c-0.2,0.5-0.5,0.9-0.9,1.4c-0.8,0.9-1.9,1.7-2.6,2.3c-0.3,0.2-1,0.8-1.8,1.3c-0.8,0.5-1.6,0.8-2.1,0.6c0,0.1-0.1,0.1-0.2,0.2
			c1.1,5.1,2.6,10.2,4.5,15.1c0-0.9,0-1.9,0.2-2.7c0-0.2,0.1-0.4,0.1-0.7c0.1-0.2,0.1-0.4,0.2-0.6c0.2-0.4,0.4-0.8,0.7-1.2
			c0.9-1.4,2.8-2.6,4.5-2.4c1.2,0.1,1.4,0.7,1.2,1.5c-0.2,0.7-0.6,1.6-1,2.2c-1.3,1.9-3,3.6-5,4.9c0,0.1,0,0.1,0,0.2
			c0,0.3-0.1,0.4-0.3,0.5l1.3,3.1c0.5,1,1,2,1.4,3c0.5,1,1,2,1.5,3l0.8,1.5c0.3,0.5,0.6,1,0.8,1.5c0.2-0.8,0.4-1.6,0.7-2.4
			c0.3-0.8,0.7-1.5,1.2-2.2c0.4-0.5,0.9-1.4,1.6-2c0.7-0.6,1.5-1,2.2-0.6c0.7,0.3,0.9,1,0.7,1.6c-0.1,0.7-0.5,1.4-0.8,1.9
			c-1.2,2-2.9,3.7-4.9,5.1l0.5,0.9c0.2,0.3,0.3,0.6,0.5,0.8c0.1,0.1,0.1,0.1,0.1,0.2c0.3,0.4,0.6,0.9,0.8,1.3c0.3,0.5-0.4,1-0.7,0.5
			c-0.3-0.5-0.6-1-0.9-1.5c-0.3-0.3-0.7-0.5-1-0.7c-0.3-0.2-0.7-0.4-1-0.5c-0.7-0.3-1.5-0.5-2.2-0.7c-0.8-0.2-1.6-0.3-2.3-0.5
			c-0.8-0.2-1.5-0.4-2.3-0.7c-0.8-0.3-1.7-0.8-2.3-1.4c-0.6-0.7-0.8-1.5-0.4-2.5c1-1.9,2.6-1.8,4.2-1c0.4,0.2,0.8,0.5,1.2,0.8
			c0.4,0.3,0.9,0.6,1.3,1c0.8,0.7,1.6,1.4,2.3,2.1c-2.1-3.8-3.9-7.6-5.5-11.6c-2.3-0.2-5-0.1-7.2-1.4c-0.7-0.4-1.3-1-1.8-1.7
			c-0.4-0.7-0.6-1.6-0.3-2.4c0.7-1.6,2.6-1.2,3.7-0.4c0.6,0.4,1.1,0.9,1.6,1.3c0.5,0.5,1,0.9,1.5,1.4c0.5,0.4,1.1,0.8,1.7,1.2
			c-0.1-0.2-0.2-0.4-0.2-0.6c-1.7-4.6-3.1-9.3-4.1-14.1c0,0-0.1,0-0.1,0c-0.8-0.1-3.1-0.4-4.8-1.1c-1.7-0.7-3-2-1.6-3.6
			c1.2-1.3,2.3-1.1,3.3-0.3c0.5,0.4,1,0.9,1.5,1.5c0.5,0.6,1,1.1,1.4,1.6c-0.7-3.6-1.1-7.3-1.4-11c0,0-0.1,0-0.1,0
			c-0.7-0.1-2.7-0.6-4.3-1.4c-0.8-0.4-1.4-1-1.7-1.6c-0.2-0.3-0.2-0.6-0.2-0.9c0-0.3,0.2-0.7,0.5-1c0.9-1.1,2-0.7,3,0.2
			c1,0.9,2,2.2,2.8,3.1l-0.1-2.7c0-0.9,0-1.8,0-2.7l0-1.3l0-0.7l0-0.7l0.1-2.7l0,0c-0.7-0.3-1.5-0.6-2.2-0.9
			c-0.7-0.3-1.4-0.7-2.1-1.2c-1.3-0.9-2.6-1.9-3.7-3.1C5.7,88,5.1,87,5.1,86.1c-0.1-0.9,0.3-1.8,1.4-2.3c1-0.5,2.1-0.2,2.9,0.4
			c0.9,0.6,1.6,1.5,2.1,2.4c0.3,0.5,0.5,1,0.7,1.5c0.2,0.5,0.5,1,0.7,1.5c0.5,1,0.9,2,1.6,2.8c0.3-3.4,0.7-6.8,1.3-10.1
			c-0.9-0.7-1.8-1.4-2.5-2.3c-0.7-0.9-1.3-1.9-1.7-3c-0.3-0.8-0.6-1.9-0.7-3c-0.1-1.1,0.2-2.2,1-2.8c1.4-1.2,2.6,0,3,1.4
			c0.2,0.7,0.3,1.5,0.4,2.3c0.1,0.8,0.2,1.5,0.3,2.3c0.2,1,0.4,2,0.6,3c0.8-3.6,1.7-7.2,3-10.7c0,0,0,0,0,0
			c-0.9-0.6-1.8-1.3-2.5-2.1c-0.7-0.8-1.3-1.8-1.6-2.9c-0.2-0.7-0.4-1.6-0.4-2.5c0-0.4,0.1-0.9,0.3-1.3c0.2-0.4,0.5-0.7,0.8-1
			c1.7-1.1,3,0.6,3.4,2c0.3,0.9,0.5,1.9,0.5,2.9c0.1,1,0,2-0.1,2.9c0.1-0.1,0.2-0.1,0.3-0.2l0.9-2.2c0.3-0.7,0.6-1.5,0.9-2.2l1-2.1
			l0.5-1.1c0.2-0.4,0.4-0.7,0.5-1.1c-0.1-0.2-0.1-0.5,0.2-0.6c0,0,0-0.1,0-0.1c0-0.1-0.1-0.2-0.1-0.4c-0.1-0.3-0.2-0.7-0.3-1.2
			C23.2,55.1,23,54.2,23,54c-0.1-1.2-0.1-2.4,0.2-3.6c0.1-0.4,0.2-0.7,0.3-1.1c0.2-0.4,0.4-0.7,0.6-1c0.5-0.6,1.1-1,2-1
			C27.9,47.4,28.4,49.5,28.1,51.1z"/>
	</g>
	<g>
		<path d="M127.1,16.2c-1,0.1-2,0.1-3,0c-0.5-0.1-1-0.1-1.5-0.2c-0.5-0.1-1-0.2-1.5-0.3c0.7,0.6,1.3,1.2,1.9,1.9
			c0.6,0.7,1,1.4,1.3,2.2c0.4,1.1,0.5,2.8-0.7,3.3c-0.3,0.1-0.7,0.2-1,0.1c-0.3-0.1-0.7-0.2-1-0.4c-0.7-0.4-1.2-1-1.6-1.5
			c-0.7-0.9-1.1-1.9-1.4-2.9c-0.3-1-0.5-2.1-0.7-3.2c0-0.1,0-0.2,0-0.2l-1.8-0.2l-0.9-0.1c-0.3,0-0.6-0.1-0.9-0.1l-3.5-0.3
			c1,0.9,1.8,1.9,2.3,3.2c0.5,1.3,0.7,3.5-0.7,4.4c-1.2,0.8-2.5-0.5-3.2-1.5c-1.1-1.7-1.5-4.1-1.7-6.2l-1.3,0l-1.3,0l-2.5,0.1
			c-0.8,0-1.7,0.1-2.5,0.1l-2.5,0.2c-0.3,0-0.6,0.1-0.9,0.1c0.8,0.3,1.6,0.8,2.2,1.3c0.7,0.5,1.3,1.1,1.7,1.9
			c0.7,1.2,1.4,3.7-0.1,4.6c-0.7,0.4-1.6,0.1-2.3-0.4c-0.2-0.1-0.4-0.3-0.6-0.5c-0.2-0.2-0.4-0.3-0.5-0.5c-0.3-0.3-0.6-0.6-0.8-0.9
			c-1.2-1.5-1.9-3.3-2.1-5.2c-3.1,0.4-6.2,1-9.2,1.7c0.7,0.2,1.6,0.5,2.3,0.9c0.8,0.4,1.5,0.8,2,1.3c1.1,1,1.7,2.3,0.9,3.7
			c-0.2,0.3-0.4,0.5-0.7,0.7c-0.3,0.2-0.5,0.3-0.8,0.3c-0.6,0.1-1.3-0.1-1.8-0.4c-1.8-1.2-3.1-4-4.3-5.7c0,0,0-0.1-0.1-0.1L80,17.8
			l-2.3,0.7l-1.1,0.4c-0.4,0.1-0.8,0.2-1.1,0.4l-2.2,0.8c0.8,0.1,1.6,0.3,2.3,0.6c0.4,0.1,0.7,0.3,1.1,0.5c0.3,0.2,0.7,0.4,1,0.7
			c1.1,0.9,2.5,2.7,1.7,4.2c-0.3,0.5-0.6,0.7-1,0.9c-0.4,0.1-0.8,0.1-1.2,0.1c-0.9-0.2-1.8-0.7-2.4-1.1c-0.4-0.3-0.8-0.6-1.2-1
			c-0.4-0.3-0.8-0.7-1.1-1.1c-0.7-0.8-1.3-1.6-1.8-2.6l-2.6,1.1l-2.5,1.2L64.2,24l-1.2,0.6L60.5,26c1.1,0,2.2,0.1,3.2,0.3
			c1,0.2,2,0.6,2.9,1.1c1.5,0.8,2.9,3.1,1.4,4.4c-0.7,0.7-1.8,0.6-2.9,0.1c-0.6-0.2-1.1-0.6-1.6-0.9c-0.5-0.3-1-0.6-1.3-0.9
			c-0.3-0.2-1.1-0.7-1.7-1.3c-0.7-0.6-1.3-1.3-1.3-1.8C59,27,59,27,58.9,26.9c-4.5,2.6-8.9,5.6-12.9,8.9c0.4-0.2,0.9-0.3,1.3-0.4
			c0.5-0.1,0.9-0.2,1.4-0.3c0.9-0.1,1.8-0.1,2.7,0.2c0.8,0.2,1.6,0.7,2.3,1.3c0.7,0.6,1.2,1.4,1.3,2.3c0.2,1.1-0.3,1.6-1,1.7
			c-0.7,0.1-1.7-0.1-2.4-0.3c-1.1-0.3-2.2-0.7-3.2-1.3c-1-0.5-2-1.2-3-1.9c-0.1,0-0.1,0-0.2,0.1c-0.2,0.1-0.5,0-0.6-0.2
			c-0.4,0.4-0.9,0.7-1.3,1.1l-1.2,1.1c-0.8,0.8-1.7,1.5-2.5,2.3c-0.8,0.8-1.6,1.6-2.4,2.4L35,46.2c1.7-0.2,3.4-0.1,5,0.4
			c0.6,0.2,1.6,0.4,2.4,0.9c0.8,0.5,1.4,1.1,1.3,1.9c-0.2,1.6-2.1,1.3-3.4,1c-1.2-0.3-2.3-0.7-3.3-1.2c-1.1-0.5-2.1-1.1-3-1.9
			c-0.4,0.5-0.9,1-1.3,1.5c0,0.1-0.1,0.1-0.2,0.2L32,49.6c-0.2,0.2-0.3,0.4-0.5,0.6c-0.4,0.5-1.1-0.1-0.7-0.5
			c0.4-0.5,0.7-0.9,1.1-1.3c0.3-0.8,0.5-1.5,0.5-2.3c0-0.4,0-0.8,0-1.2c0-0.4,0-0.8,0-1.2c-0.1-1.6-0.3-3.2-0.2-4.8
			c0.1-1.7,0.8-4,2.9-3.7c1.1,0.2,1.7,0.7,2,1.3c0.2,0.3,0.2,0.7,0.3,1.1c0,0.4,0,0.9-0.1,1.3c-0.2,0.9-0.5,1.9-0.9,2.9
			c-0.2,0.5-0.4,1-0.6,1.5c-0.2,0.5-0.4,0.9-0.7,1.4l1.1-1.2c0.4-0.4,0.7-0.8,1.1-1.2l2.3-2.2c0.8-0.7,1.6-1.4,2.4-2.2
			c0.4-0.4,0.8-0.7,1.2-1.1l1.2-1c-0.5-2.3-1.5-4.9-0.9-7.3c0.2-0.7,0.5-1.6,1.1-2.2c0.1-0.2,0.3-0.3,0.5-0.5
			c0.2-0.1,0.3-0.2,0.5-0.3c0.4-0.2,0.8-0.3,1.2-0.2c1.7,0.2,1.9,2.1,1.5,3.4c-0.1,0.3-0.2,0.6-0.4,1c-0.1,0.3-0.3,0.6-0.4,1
			c-0.3,0.6-0.6,1.3-0.8,1.9c-0.2,0.6-0.5,1.3-0.7,1.9c0.2-0.1,0.3-0.3,0.5-0.4l2.9-2.2l3-2.1c2-1.4,4.1-2.7,6.2-3.9
			c0,0,0-0.1-0.1-0.1c-0.1-0.4-0.2-1.1-0.4-2.1c-0.1-0.9-0.2-2-0.1-2.9c0.2-1.9,1-3.4,2.9-2.6c0.8,0.3,1.2,0.8,1.4,1.3
			c0.2,0.5,0.1,1.1-0.1,1.7c-0.4,1.2-1.4,2.6-2.1,3.7l2.4-1.3c0.4-0.2,0.8-0.4,1.2-0.6l1.2-0.6c0.8-0.4,1.7-0.8,2.5-1.2l2.6-1.1
			c0,0,0-0.1-0.1-0.1c-0.2-0.7-0.3-2.8,0-4.5c0.3-1.7,1.2-3.1,2.9-2.4c1.3,0.5,1.3,1.7,0.8,2.9c-0.5,1.3-1.4,2.6-2.1,3.5l2.5-0.9
			c0.4-0.2,0.8-0.3,1.3-0.5l1.3-0.4l2.5-0.8c0.9-0.2,1.7-0.5,2.6-0.7l0,0c0-1.6,0.2-3.2,0.7-4.8c0.4-1.6,1-3.1,1.9-4.5
			c0.5-0.8,1.2-1.6,2.1-2c0.9-0.3,1.8-0.3,2.7,0.6c0.8,0.8,0.8,1.9,0.5,2.9c-0.3,1-1,2-1.6,2.7c-0.2,0.2-0.4,0.4-0.6,0.6
			c-0.2,0.2-0.4,0.4-0.6,0.6c-0.4,0.4-0.8,0.7-1.2,1.1c-0.8,0.7-1.6,1.5-2.2,2.4c0.8-0.2,1.7-0.4,2.5-0.6l1.2-0.3
			c0.4-0.1,0.8-0.2,1.3-0.3l2.5-0.4l1.3-0.2c0.4-0.1,0.8-0.1,1.3-0.2C94,13,94.5,12,95.2,11c0.3-0.5,0.7-0.9,1.1-1.4
			c0.2-0.2,0.4-0.4,0.6-0.6c0.2-0.2,0.4-0.4,0.7-0.6c0.7-0.5,1.6-1.2,2.6-1.6c0.5-0.2,1-0.3,1.5-0.4c0.5,0,1,0.1,1.5,0.4
			c1.6,1,0.8,2.5-0.4,3.3c-0.3,0.2-0.6,0.4-1,0.6c-0.3,0.2-0.7,0.4-1,0.5c-0.7,0.3-1.4,0.7-2.1,1L97.3,13c-0.5,0.2-0.9,0.5-1.3,0.8
			c0.5,0,0.9-0.1,1.4-0.1l1.4-0.1l2.8-0.2l2.8-0.1c0.9,0,1.9-0.1,2.8,0c0,0,0,0,0,0c0.5-2.1,1.6-4.1,3.5-5.5
			c0.6-0.5,1.4-0.9,2.3-1.2c0.9-0.2,1.8-0.2,2.5,0.3c0.8,0.6,0.9,1.4,0.6,2.1c-0.3,0.7-0.9,1.4-1.5,1.8c-0.8,0.6-1.7,1-2.6,1.4
			c-0.5,0.2-0.9,0.3-1.4,0.5c-0.5,0.2-0.9,0.3-1.4,0.4c0.1,0.1,0.2,0.1,0.3,0.2l1.2,0l1.2,0.1l2.3,0.2c0.4,0,0.8,0.1,1.2,0.1
			l1.2,0.2l2.3,0.3c0.1-0.2,0.4-0.3,0.7-0.1c0,0,0.2-0.1,0.4-0.3c0.3-0.2,0.6-0.4,1-0.6c0.8-0.5,1.6-0.9,1.7-1
			c1.1-0.5,2.3-0.9,3.5-1c0.7-0.1,1.6,0,2.3,0.2c0.4,0.1,0.7,0.3,1,0.6c0.3,0.3,0.5,0.6,0.6,1c0.2,0.9-0.1,1.6-0.7,2.2
			c-0.3,0.3-0.7,0.5-1,0.6C127.9,16,127.5,16.2,127.1,16.2z"/>
	</g>
	<g>
		<path d="M190.8,99.6c-0.2-0.4-0.4-0.9-0.5-1.4c-0.2-0.5-0.3-1-0.4-1.5c-0.2-1-0.4-2-0.5-3c-0.4,0.8-0.8,1.6-1.2,2.4
			c-0.5,0.7-1,1.4-1.7,1.9c-0.9,0.7-2.5,1.4-3.4,0.3c-0.2-0.3-0.4-0.6-0.4-1c-0.1-0.4,0-0.7,0.1-1.1c0.2-0.7,0.6-1.5,0.9-2
			c0.3-0.4,0.7-0.8,1.1-1.2c0.4-0.4,0.8-0.7,1.3-1c0.9-0.6,1.9-1.1,2.8-1.6c0.1,0,0.2-0.1,0.2-0.1l-0.3-1.8
			c-0.1-0.6-0.3-1.2-0.4-1.7l-0.4-1.7c-0.1-0.6-0.3-1.2-0.4-1.7c-0.3,0.6-0.6,1.2-1,1.7c-0.4,0.5-0.8,1-1.4,1.4
			c-1.1,0.9-3.2,1.7-4.4,0.7c-0.6-0.5-0.6-1.1-0.5-1.8c0.1-0.6,0.5-1.3,0.9-1.8c1.3-1.6,3.5-2.7,5.4-3.5c-0.2-0.8-0.5-1.6-0.8-2.4
			c-0.3-0.8-0.5-1.6-0.8-2.4l-0.9-2.3l-0.5-1.2c-0.2-0.4-0.3-0.8-0.5-1.1l-0.4-0.8c-0.1,0.9-0.2,1.7-0.5,2.5
			c-0.3,0.8-0.7,1.6-1.3,2.2c-0.9,1-3.1,2.5-4.4,1.3c-0.6-0.6-0.6-1.5-0.3-2.4c0.3-0.9,0.8-1.8,1.2-2.4c1-1.6,2.5-2.9,4.3-3.6
			l-1-2.1l-0.5-1L180,64l-0.3-0.5l-1.1-2l-0.6-1c-0.2-0.3-0.4-0.7-0.6-1c0,0.4,0,0.8,0,1.2c0,0.4-0.1,0.8-0.1,1.3
			c-0.1,0.8-0.3,1.7-0.6,2.4c-0.6,1.4-1.6,2.3-3.3,2c-1.4-0.2-1.9-1.7-1.6-3c0.5-2.1,2.8-4.2,4.1-5.9c0,0,0.1-0.1,0.1-0.1l-0.3-0.5
			l-0.3-0.5l-0.7-1l-1.4-2l-1.4-1.9l-0.7-1c-0.1-0.2-0.2-0.3-0.4-0.5l-0.4-0.5c0.1,0.8,0.2,1.6,0.1,2.4c0,0.8-0.2,1.6-0.4,2.3
			c-0.5,1.4-1.8,3.2-3.5,2.9c-1.1-0.2-1.5-0.9-1.5-1.8c-0.1-0.9,0.1-1.9,0.3-2.7c0.6-2,1.7-3.8,3.1-5.4c-2.4-2.8-4.9-5.5-7.7-8
			c0.2,0.5,0.3,1,0.5,1.5c0.1,0.5,0.2,1,0.3,1.6c0.1,1.1,0.1,2.1-0.2,3.2c-0.3,1.6-2,3.7-3.8,2.7c-0.9-0.5-1.1-1.6-1-2.8
			c0.1-1.2,0.5-2.5,0.7-3.3c0.1-0.4,0.4-1.2,0.7-2.1c0.4-0.8,0.8-1.6,1.3-1.8c0-0.1,0-0.2,0-0.3c-3.9-3.5-8.1-6.7-12.5-9.5
			c1.1,1.5,2.1,3.1,2.1,5c0,1.7-0.7,3.7-2.3,4.6c-1,0.6-1.6,0.2-1.9-0.5c-0.3-0.7-0.4-1.6-0.4-2.4c-0.1-2.3,0.3-4.7,1.1-6.9
			l-0.1-0.1c-0.2-0.2-0.2-0.4,0-0.6l-2.9-1.7l-2.9-1.6l-0.7-0.4l-0.8-0.4l-1.5-0.7l-1.5-0.8l-1.5-0.7c0.4,0.8,0.7,1.5,0.9,2.4
			c0.2,0.8,0.3,1.7,0.3,2.5c0,0.6,0.1,1.7-0.1,2.6c-0.2,0.9-0.6,1.7-1.4,1.8c-0.8,0.2-1.3-0.3-1.6-0.9c-0.3-0.6-0.4-1.4-0.5-2
			c-0.2-2.4,0.2-4.7,1-7c-0.3-0.1-0.6-0.3-0.9-0.4l-0.9-0.4c-0.1,0-0.2,0-0.2-0.1c-0.5-0.2-1-0.4-1.5-0.6c-0.5-0.2-0.3-1.1,0.3-0.9
			c0.5,0.2,1.1,0.4,1.6,0.6c0.4,0,0.8,0,1.2,0c0.4,0,0.8-0.1,1.1-0.2c0.8-0.2,1.5-0.4,2.2-0.7c0.7-0.3,1.5-0.6,2.2-0.9
			c0.7-0.3,1.5-0.6,2.3-0.8c0.8-0.2,1.8-0.3,2.7-0.2c0.9,0.2,1.6,0.7,1.7,1.8c0.3,2.1-1,3-2.9,3.3c-0.9,0.1-2,0.1-3.1,0.1
			c-0.5,0-1.1-0.1-1.6-0.2c-0.5-0.1-1-0.2-1.5-0.2c3.9,1.9,7.7,3.9,11.3,6.2c2-1.2,4.1-2.8,6.6-3.1c0.4,0,0.8-0.1,1.2,0
			c0.4,0.1,0.8,0.2,1.2,0.4c0.8,0.3,1.5,0.9,1.7,1.8c0.4,1.7-1.4,2.5-2.8,2.5c-0.7,0-1.4-0.1-2.1-0.2c-0.7-0.1-1.4-0.2-2-0.2
			c-0.7,0-1.4,0-2.1,0c0.2,0.1,0.4,0.2,0.5,0.4c4.1,2.7,7.9,5.7,11.6,9c0,0,0.1-0.1,0.1-0.1c0.7-0.4,2.7-1.5,4.5-1.9
			c0.9-0.2,1.8-0.3,2.5,0c0.6,0.3,1,0.9,0.9,2c-0.1,1.7-1.2,2.2-2.5,2.2c-0.6,0-1.4-0.2-2.1-0.3c-0.7-0.2-1.5-0.3-2.1-0.5
			c1.4,1.2,2.6,2.6,3.9,3.9c0.3,0.3,0.6,0.7,0.9,1l0.9,1c0.6,0.7,1.3,1.4,1.8,2.1c0,0,0.1-0.1,0.1-0.1c0.6-0.4,2.5-1.2,4.3-1.4
			c0.9-0.1,1.7-0.1,2.3,0.2c0.6,0.3,1,0.9,0.9,1.8c-0.1,1.4-1.2,1.7-2.5,1.7c-0.7,0-1.4-0.2-2.1-0.4c-0.7-0.2-1.4-0.4-1.9-0.5
			c1.2,1.3,2.2,2.8,3.3,4.2c0.3,0.4,0.5,0.7,0.8,1.1l0.8,1.1l0.8,1.1l0.4,0.6c0.1,0.2,0.2,0.4,0.4,0.6l0,0c1.5-0.4,3.1-0.7,4.7-0.8
			c0.8,0,1.6-0.1,2.4,0c0.8,0.1,1.6,0.2,2.4,0.4c0.9,0.2,1.9,0.7,2.5,1.4c0.6,0.7,0.9,1.6,0.3,2.7c-0.6,1-1.5,1.4-2.6,1.4
			c-0.5,0-1.1-0.1-1.6-0.2c-0.5-0.1-1-0.3-1.5-0.5c-1-0.5-1.9-1.1-2.9-1.6c-0.5-0.3-1-0.5-1.5-0.8c-0.5-0.2-1-0.4-1.5-0.5l0.7,1.1
			c0.2,0.4,0.5,0.7,0.7,1.1l1.2,2.2l0.6,1.1l0.6,1.1l1.1,2.3c1.2,0,2.3,0.1,3.4,0.4c1.1,0.3,2.1,0.8,3.2,1.5
			c0.2,0.1,0.4,0.3,0.6,0.4c0.2,0.1,0.4,0.3,0.6,0.5c0.4,0.3,0.8,0.7,1.1,1.2c0.3,0.4,0.6,0.9,0.8,1.4c0.2,0.5,0.2,1,0.1,1.5
			c-0.5,1.8-2.2,1.6-3.3,0.6c-1.2-0.9-2.2-2.2-3.2-3.3c-0.7-0.7-1.5-1.4-2.3-2.1c0.4,0.8,0.8,1.7,1.1,2.5l1,2.6
			c0.2,0.4,0.3,0.9,0.5,1.3l0.4,1.3l0.9,2.6c0,0,0,0,0,0c2.2-0.2,4.3,0.3,6.2,1.7c0.3,0.2,0.6,0.5,1,0.8c0.2,0.2,0.3,0.3,0.5,0.5
			c0.1,0.2,0.3,0.4,0.4,0.5c0.5,0.8,0.7,1.6,0.4,2.5c-0.6,1.9-2.8,1.3-4,0.4c-0.8-0.6-1.5-1.3-2.1-2c-0.3-0.4-0.6-0.8-0.9-1.2
			c-0.3-0.4-0.6-0.8-0.8-1.2c0,0.1-0.1,0.2-0.1,0.4l0.3,1.1c0.1,0.4,0.2,0.8,0.3,1.1l0.5,2.3l0.3,1.1l0.1,0.6l0.1,0.6l0.4,2.3
			c0.2,0.1,0.4,0.3,0.3,0.6c0,0,0.1,0,0.1,0.1c0.1,0.1,0.2,0.1,0.3,0.2c0.3,0.2,0.6,0.5,0.9,0.8c0.7,0.6,1.3,1.2,1.4,1.3
			c0.8,0.9,1.5,1.9,2,3c0.6,1.3,0.9,3.3-0.5,4.2C193.1,102.4,191.5,101,190.8,99.6z"/>
	</g>
</g>
</svg>
