<?xml version="1.0" encoding="utf-8"?>
<!-- Generator: Adobe Illustrator 22.1.0, SVG Export Plug-In . SVG Version: 6.00 Build 0)  -->
<svg version="1.1" id="レイヤー_1" xmlns="http://www.w3.org/2000/svg" xmlns:xlink="http://www.w3.org/1999/xlink" x="0px"
	 y="0px" viewBox="0 0 300 300" style="enable-background:new 0 0 300 300;" xml:space="preserve">
<style type="text/css">
	.st0{fill:#D9472B;}
</style>
<path class="st0" d="M292.2,54.4l-64.3-28.9c-3.7-1.7-8-0.8-10.8,2l-51.1,51.1l-31.8-31.8c-1.8-1.8-4.3-2.8-6.8-2.8H11.8
	c-3.9,0-7.4,2.4-8.9,6c-1.5,3.6-0.7,7.8,2.1,10.5L98.6,154v47.6L39.9,228c-3.5,1.6-5.7,5-5.7,8.8c0,3.8,2.2,7.2,5.7,8.8l64.3,28.9
	c3.7,1.6,8,0.8,10.8-2c5.1-5.1,110.7-110.7,115.7-115.7c1.8-1.8,2.8-4.3,2.8-6.8V98.4L292.2,72C299.8,68.6,299.8,57.8,292.2,54.4z
	 M214.3,57.5v34.6v34.6l-34.6-34.6L214.3,57.5z M98.6,222.8v28l-31.2-14L98.6,222.8z M117.9,242.5v-34.6v-34.6l34.6,34.6
	L117.9,242.5z M166.1,194.2L35,63.2h88.5l86.8,86.8L166.1,194.2z M233.6,77.2v-28l31.2,14L233.6,77.2z"/>
</svg>
