<?xml version="1.0" encoding="utf-8"?>
<!-- Generator: Adobe Illustrator 22.1.0, SVG Export Plug-In . SVG Version: 6.00 Build 0)  -->
<svg version="1.1" id="レイヤー_1" xmlns="http://www.w3.org/2000/svg" xmlns:xlink="http://www.w3.org/1999/xlink" x="0px"
	 y="0px" viewBox="0 0 300 300" style="enable-background:new 0 0 300 300;" xml:space="preserve">
<style type="text/css">
	.st0{fill:#4E4E4E;}
	.st1{fill:#C74E4F;}
</style>
<g>
	<g>
		<path class="st0" d="M293.1,6.9c-1.5-1.4-3.7-1.8-5.5-0.9l-45.6,22.8c-2.3,1.2-3.3,4-2.1,6.4c1.2,2.3,4,3.3,6.4,2.1l19.4-9.7
			L63.8,229.5L29.7,236c-2.6,0.5-4.3,3-3.8,5.5c0.5,2.6,3,4.2,5.5,3.8l20.5-3.9l-8.4,8.4l-34.2,6.5c-2.6,0.5-4.3,3-3.8,5.5
			c0.5,2.6,3,4.2,5.5,3.8l20.5-3.9l-6.2,6.2c-1.9,1.9-1.9,4.9,0,6.7c0.9,0.9,2.1,1.4,3.4,1.4s2.4-0.5,3.4-1.4l6.2-6.2l-3.9,20.5
			c-0.5,2.6,1.2,5.1,3.8,5.5c0.3,0.1,0.6,0.1,0.9,0.1c2.2,0,4.2-1.6,4.7-3.9l6.5-34.2l8.4-8.4l-3.9,20.5c-0.5,2.6,1.2,5.1,3.8,5.5
			c0.3,0.1,0.6,0.1,0.9,0.1c2.2,0,4.2-1.6,4.7-3.9l6.5-34.2L272.4,34.3l-9.7,19.4c-1.2,2.3-0.2,5.2,2.1,6.4c0.7,0.3,1.4,0.5,2.1,0.5
			c1.7,0,3.4-1,4.2-2.6L294,12.3C294.9,10.5,294.6,8.3,293.1,6.9z"/>
		<path class="st0" d="M290.7,256.3l-34.2-6.5l-8.4-8.4l20.5,3.9c2.6,0.5,5.1-1.2,5.5-3.8c0.5-2.6-1.2-5.1-3.8-5.5l-34.2-6.5
			L34.3,27.6l19.4,9.7c2.3,1.2,5.2,0.2,6.4-2.1c1.2-2.3,0.2-5.2-2.1-6.4L12.3,6c-1.8-0.9-4-0.6-5.5,0.9C5.4,8.3,5.1,10.5,6,12.3
			l22.8,45.6c0.8,1.7,2.5,2.6,4.2,2.6c0.7,0,1.4-0.2,2.1-0.5c2.3-1.2,3.3-4,2.1-6.4l-9.7-19.4l201.9,201.9l6.5,34.2
			c0.4,2.3,2.4,3.9,4.7,3.9c0.3,0,0.6,0,0.9-0.1c2.6-0.5,4.3-3,3.8-5.5l-3.9-20.5l8.4,8.4l6.5,34.2c0.4,2.3,2.4,3.9,4.7,3.9
			c0.3,0,0.6,0,0.9-0.1c2.6-0.5,4.3-3,3.8-5.5l-3.9-20.5l6.2,6.2c0.9,0.9,2.1,1.4,3.4,1.4c1.2,0,2.4-0.5,3.4-1.4
			c1.9-1.9,1.9-4.9,0-6.7l-6.2-6.2l20.5,3.9c2.6,0.5,5.1-1.2,5.5-3.8C294.9,259.3,293.2,256.8,290.7,256.3z"/>
	</g>
	<path class="st1" d="M100.1,62.1c-26.9,0-50.4,19.1-55.9,45.3l-0.1,0.4c-1,3.3-1.5,7.3-1.5,11.7c0,27.1,27.7,57.2,50.9,77.6
		c24.7,21.7,49.8,37.4,56.5,40.8c6.7-3.4,31.8-19.1,56.5-40.8c23.2-20.4,50.9-50.4,50.9-77.6c0-4.4-0.5-8.4-1.5-11.7l-0.1-0.4
		c-5.5-26.3-29.1-45.3-55.9-45.3c-17.8,0-34.9,8.5-45.7,22.8l-4.2,5.6l-4.2-5.6C135,70.6,118,62.1,100.1,62.1z"/>
</g>
</svg>
