<?xml version="1.0" encoding="utf-8"?>
<!-- Generator: Adobe Illustrator 22.1.0, SVG Export Plug-In . SVG Version: 6.00 Build 0)  -->
<svg version="1.1" id="レイヤー_1" xmlns="http://www.w3.org/2000/svg" xmlns:xlink="http://www.w3.org/1999/xlink" x="0px"
	 y="0px" viewBox="0 0 190.7 38.1" style="enable-background:new 0 0 190.7 38.1;" xml:space="preserve">
<style type="text/css">
	.st0{fill-rule:evenodd;clip-rule:evenodd;fill:#FFFFFF;}
</style>
<path class="st0" d="M0,0v33.7h0.1c0.5,2.6,2.8,4.5,5.5,4.5c2.7,0,5-2,5.5-4.5h0.2c0.5,2.6,2.8,4.5,5.5,4.5c2.7,0,5-2,5.5-4.5h0.2
	c0.5,2.6,2.8,4.5,5.5,4.5c2.7,0,5-2,5.5-4.5h0.2c0.5,2.6,2.8,4.5,5.5,4.5c2.7,0,5-2,5.5-4.5H45c0.5,2.6,2.8,4.5,5.5,4.5
	c2.7,0,5-2,5.5-4.5h0.2c0.5,2.6,2.8,4.5,5.5,4.5c2.7,0,5-2,5.5-4.5h0.2c0.5,2.6,2.8,4.5,5.5,4.5c2.7,0,5-2,5.5-4.5h0.2
	c0.5,2.6,2.8,4.5,5.5,4.5c2.7,0,5-2,5.5-4.5h0.2c0.5,2.6,2.8,4.5,5.5,4.5c2.7,0,5-2,5.5-4.5h0.2c0.5,2.6,2.8,4.5,5.5,4.5
	c2.7,0,5-2,5.5-4.5h0.2c0.5,2.6,2.8,4.5,5.5,4.5c2.7,0,5-2,5.5-4.5h0.2c0.5,2.6,2.8,4.5,5.5,4.5c2.7,0,5-2,5.5-4.5h0.2
	c0.5,2.6,2.8,4.5,5.5,4.5c2.7,0,5-2,5.5-4.5h0.2c0.5,2.6,2.8,4.5,5.5,4.5c2.7,0,5-2,5.5-4.5h0.2c0.5,2.6,2.8,4.5,5.5,4.5
	c2.7,0,5-2,5.5-4.5h0.2c0.5,2.6,2.8,4.5,5.5,4.5c2.7,0,5-2,5.5-4.5h0.2c0.5,2.6,2.8,4.5,5.5,4.5c2.7,0,5-2,5.5-4.5h0.1V0H0z
	 M5.6,36.3c-2,0-3.7-1.6-3.7-3.7c0-2,1.6-3.7,3.7-3.7c2,0,3.7,1.6,3.7,3.7C9.3,34.6,7.6,36.3,5.6,36.3z M16.8,36.3
	c-2,0-3.7-1.6-3.7-3.7c0-2,1.6-3.7,3.7-3.7c2,0,3.7,1.6,3.7,3.7C20.5,34.6,18.9,36.3,16.8,36.3z M28,36.3c-2,0-3.7-1.6-3.7-3.7
	c0-2,1.6-3.7,3.7-3.7c2,0,3.7,1.6,3.7,3.7C31.7,34.6,30.1,36.3,28,36.3z M39.3,36.3c-2,0-3.7-1.6-3.7-3.7c0-2,1.6-3.7,3.7-3.7
	c2,0,3.7,1.6,3.7,3.7C42.9,34.6,41.3,36.3,39.3,36.3z M50.5,36.3c-2,0-3.7-1.6-3.7-3.7c0-2,1.6-3.7,3.7-3.7c2,0,3.7,1.6,3.7,3.7
	C54.1,34.6,52.5,36.3,50.5,36.3z M61.7,36.3c-2,0-3.7-1.6-3.7-3.7c0-2,1.6-3.7,3.7-3.7c2,0,3.7,1.6,3.7,3.7
	C65.4,34.6,63.7,36.3,61.7,36.3z M72.9,36.3c-2,0-3.7-1.6-3.7-3.7c0-2,1.6-3.7,3.7-3.7c2,0,3.7,1.6,3.7,3.7
	C76.6,34.6,74.9,36.3,72.9,36.3z M84.1,36.3c-2,0-3.7-1.6-3.7-3.7c0-2,1.6-3.7,3.7-3.7c2,0,3.7,1.6,3.7,3.7
	C87.8,34.6,86.1,36.3,84.1,36.3z M95.3,36.3c-2,0-3.7-1.6-3.7-3.7c0-2,1.6-3.7,3.7-3.7c2,0,3.7,1.6,3.7,3.7
	C99,34.6,97.4,36.3,95.3,36.3z M106.5,36.3c-2,0-3.7-1.6-3.7-3.7c0-2,1.6-3.7,3.7-3.7c2,0,3.7,1.6,3.7,3.7
	C110.2,34.6,108.6,36.3,106.5,36.3z M117.8,36.3c-2,0-3.7-1.6-3.7-3.7c0-2,1.6-3.7,3.7-3.7c2,0,3.7,1.6,3.7,3.7
	C121.4,34.6,119.8,36.3,117.8,36.3z M129,36.3c-2,0-3.7-1.6-3.7-3.7c0-2,1.6-3.7,3.7-3.7c2,0,3.7,1.6,3.7,3.7
	C132.7,34.6,131,36.3,129,36.3z M140.2,36.3c-2,0-3.7-1.6-3.7-3.7c0-2,1.6-3.7,3.7-3.7c2,0,3.7,1.6,3.7,3.7
	C143.9,34.6,142.2,36.3,140.2,36.3z M151.4,36.3c-2,0-3.7-1.6-3.7-3.7c0-2,1.6-3.7,3.7-3.7c2,0,3.7,1.6,3.7,3.7
	C155.1,34.6,153.4,36.3,151.4,36.3z M162.6,36.3c-2,0-3.7-1.6-3.7-3.7c0-2,1.6-3.7,3.7-3.7c2,0,3.7,1.6,3.7,3.7
	C166.3,34.6,164.7,36.3,162.6,36.3z M173.8,36.3c-2,0-3.7-1.6-3.7-3.7c0-2,1.6-3.7,3.7-3.7s3.7,1.6,3.7,3.7
	C177.5,34.6,175.9,36.3,173.8,36.3z M185.1,36.3c-2,0-3.7-1.6-3.7-3.7c0-2,1.6-3.7,3.7-3.7s3.7,1.6,3.7,3.7
	C188.7,34.6,187.1,36.3,185.1,36.3z"/>
</svg>
