<?xml version="1.0" encoding="utf-8"?>
<!-- Generator: Adobe Illustrator 22.1.0, SVG Export Plug-In . SVG Version: 6.00 Build 0)  -->
<svg version="1.1" xmlns="http://www.w3.org/2000/svg" xmlns:xlink="http://www.w3.org/1999/xlink" width="13px" height="54px" x="0px"
	 y="0px" viewBox="0 0 13 54" style="enable-background:new 0 0 13 54;" xml:space="preserve">
<style type="text/css">
	.st0{fill:#F4F0EB;}
</style>
<g>
	<path class="st0" d="M1,44c0.2-0.2,0.3-0.4,0.5-0.6c0.2-0.2,0.3-0.4,0.4-0.7c0.2-0.5,0.4-1,0.6-1.4c0.1-0.2,0.2-0.5,0.3-0.7
		c0.1-0.2,0.1-0.5,0.2-0.7C3,39.5,3,39.3,3.1,39c0-0.1,0-0.3,0.1-0.4l0-0.2l0-0.1l0,0l0,0l0,0c0,0,0,0,0-0.1c0,0-0.1,0-0.1,0l0,0
		l0,0l0,0c0,0-0.1,0-0.1,0c-0.1,0-0.1,0.1-0.2,0.1c-0.1,0.1-0.2,0.2-0.3,0.3C2.2,38.8,2,39,1.9,39.3c-0.3,0.5-0.5,1-0.7,1.5
		C1.1,41,1,41.3,0.9,41.5c-0.1,0.3-0.1,0.5-0.1,0.8c0,0.5,0,1.1,0,1.6l0,0c0,0,0,0,0,0C0.9,44,1,44,1,44z M2.8,38.8
		C2.8,38.8,2.8,38.8,2.8,38.8c-0.2,0.2-0.3,0.3-0.4,0.5c-0.1,0.1-0.1,0.2-0.1,0.3c0,0.1-0.1,0.2-0.1,0.3l-0.3,0.6
		c-0.1,0.1-0.1,0.2-0.1,0.3c0,0.1-0.1,0.2-0.1,0.3c-0.1,0.2-0.2,0.4-0.3,0.6c-0.1,0.1-0.1,0.2-0.1,0.3c0,0.1,0,0.2,0,0.3
		c0,0.1-0.1,0.3-0.1,0.4c0-0.1,0-0.2,0-0.3c0-0.3,0.1-0.5,0.1-0.8c0-0.3,0.1-0.5,0.1-0.8c0.2-0.5,0.4-1,0.7-1.4
		c0.1-0.2,0.3-0.4,0.5-0.6c0.1-0.1,0.2-0.2,0.3-0.3c0.1,0,0.1-0.1,0.2-0.1c0,0,0.1,0,0.1,0l0,0.1l0,0.2L2.9,39l-0.2,0.7
		c-0.1,0.2-0.1,0.5-0.2,0.7c-0.1,0.2-0.1,0.5-0.2,0.7c-0.2,0.5-0.4,0.9-0.6,1.4c-0.1,0.2-0.2,0.4-0.3,0.7c-0.1,0.2-0.2,0.3-0.3,0.4
		c0-0.1,0-0.3,0-0.4c0-0.1,0.1-0.3,0.1-0.4c0.1-0.2,0.1-0.4,0.2-0.6c0-0.1,0.1-0.2,0.1-0.3c0.1-0.1,0.1-0.2,0.1-0.3
		c0.1-0.2,0.1-0.4,0.2-0.6c0-0.1,0.1-0.2,0.1-0.3C1.9,40.7,2,40.7,2,40.6c0.1-0.2,0.1-0.4,0.2-0.6c0.1-0.2,0.3-0.3,0.3-0.5
		C2.7,39.2,2.8,39.1,2.8,38.8L2.8,38.8C2.8,38.8,2.8,38.8,2.8,38.8z"/>
	<path class="st0" d="M0.7,8.4c0.2-0.1,0.4-0.2,0.6-0.3C1.4,8,1.6,7.9,1.8,7.7c0,0,0,0,0,0c0.1,0.1,0.2,0.1,0.4,0.2
		C2.4,7.9,2.5,8,2.7,8.1c0.2,0.1,0.4,0.1,0.6,0C3.5,8,3.6,7.9,3.7,7.7c0,0,0.1-0.1,0.1-0.1c0-0.1,0-0.1,0-0.1c0-0.1-0.1-0.1-0.1-0.1
		C3.5,7.3,3.4,7.2,3.3,7.2C3.2,7.2,3,7.2,2.8,7.2c-0.1,0-0.3,0-0.4,0C2.5,7.1,2.6,7,2.7,6.9C2.9,6.7,3,6.6,3.2,6.5l0.2-0.2
		c0.1,0,0.2,0,0.3,0c0,0,0,0,0,0c0,0,0.1,0,0.1,0c0.1,0,0.1,0,0.2,0c0.1,0,0.2,0,0.3,0c0.2,0,0.4,0,0.6,0c0.4,0,0.8-0.1,1.2-0.2
		c0.8-0.2,1.6-0.5,2.3-1C9,4.6,9.5,3.9,10,3.2c0.2-0.4,0.4-0.7,0.6-1.1c0.2-0.4,0.5-0.7,0.7-1c0,0,0,0,0-0.1c0-0.1-0.1-0.1-0.1-0.1
		l0,0c-0.4,0.1-0.8,0.3-1.1,0.5C9.8,1.6,9.5,1.9,9.2,2.1C8.5,2.6,8.1,3.3,7.5,3.8C7.3,4.1,7,4.3,6.7,4.6C6.4,4.8,6,5,5.7,5.2
		C5.4,5.4,5,5.5,4.7,5.7C4.5,5.8,4.3,5.8,4.1,5.9L3.9,6L3.7,6.1c-0.1,0-0.2,0-0.2,0L3.6,6c0.1-0.1,0.1-0.2,0.2-0.3
		c0-0.1,0.1-0.2,0.1-0.3C4.1,5.3,4.2,5.1,4.3,5c0.1-0.2,0.2-0.3,0.4-0.5C4.8,4.3,4.9,4.1,5,3.9c0,0,0.1-0.1,0.1-0.1
		c0.1,0,0.2,0,0.3,0c0.2,0,0.3,0,0.5,0c0.2,0,0.4-0.1,0.5-0.2C6.6,3.3,6.7,3.1,6.7,3c0,0,0-0.1,0-0.1c0-0.1-0.1-0.1-0.1-0.1
		c-0.1,0-0.1,0-0.2-0.1c-0.1,0-0.2,0-0.3,0C6,2.7,5.8,2.7,5.7,2.8C5.6,2.9,5.4,3,5.3,3c0-0.1,0-0.2,0.1-0.3c0.1-0.4,0.3-0.8,0.4-1.2
		c0.1-0.4,0.1-0.8,0.1-1.3c0,0,0-0.1-0.1-0.1c0,0-0.1,0-0.1,0.1l0,0C5.6,0.6,5.6,1,5.5,1.4C5.4,1.8,5.3,2.2,5.2,2.6
		c0,0.1-0.1,0.1-0.1,0.2c0,0,0,0,0,0c0-0.2-0.1-0.3-0.1-0.5c0-0.1,0-0.2-0.1-0.2c0,0-0.1-0.1-0.1-0.1c0,0-0.1,0-0.1-0.1
		c0,0-0.1,0-0.1,0c0,0-0.1,0-0.1,0c0,0-0.1,0-0.1,0.1c0,0-0.1,0.1-0.1,0.1c0,0.1,0,0.2,0,0.3c0,0.2,0,0.3,0,0.5c0,0.2,0,0.3,0.1,0.5
		c0.1,0.1,0.2,0.2,0.2,0.3c0,0,0,0.1,0,0.1C4.6,3.9,4.5,4.1,4.4,4.3C4.3,4.4,4.2,4.6,4.1,4.8C4,5,3.9,5.2,3.8,5.3
		C3.6,5.5,3.5,5.6,3.3,5.8L3,6.2C2.9,6.3,2.8,6.4,2.7,6.5c0,0,0,0,0,0c0-0.2,0-0.4,0-0.6c0-0.2-0.1-0.4-0.1-0.6
		c0-0.1-0.1-0.2-0.1-0.3c0-0.1-0.1-0.1-0.1-0.2c0,0-0.1-0.1-0.1-0.1c0,0-0.1,0-0.1,0c0,0-0.1,0-0.1,0c0,0-0.1,0.1-0.1,0.1
		c0,0.1-0.1,0.1-0.1,0.2c0,0.1-0.1,0.2-0.1,0.3c0,0.2,0,0.4,0,0.7c0,0.2,0.1,0.4,0.2,0.6C2,6.7,2.1,6.8,2.2,7
		C1.7,7.4,1.1,7.8,0.6,8.2l0,0c0,0,0,0.1,0,0.1C0.6,8.4,0.7,8.4,0.7,8.4z M5.3,5.8c0.3-0.1,0.6-0.2,0.8-0.3c0.1,0,0.2-0.1,0.3-0.1
		c-0.1,0-0.2,0.1-0.3,0.1C5.9,5.6,5.7,5.7,5.6,5.7C5.5,5.8,5.4,5.8,5.3,5.8z M10.5,2.1c-0.2,0.4-0.5,0.7-0.7,1
		C9.3,3.8,8.9,4.5,8.3,5C7.6,5.5,6.8,5.7,6,5.9c0,0-0.1,0-0.1,0c0,0,0.1,0,0.1,0c0.4-0.1,0.8-0.2,1.2-0.4c0.2-0.1,0.4-0.2,0.5-0.3
		C7.9,5.1,8,5,8.2,4.8C8.5,4.6,8.8,4.3,9.1,4c0.1-0.2,0.3-0.3,0.3-0.5c0.1-0.2,0.2-0.4,0.3-0.5C9.9,2.6,10.2,2.3,10.5,2.1
		c0-0.1,0.1-0.2,0.2-0.3C10.6,1.9,10.5,2,10.5,2.1z M10.3,1.9c0.1-0.2,0.3-0.3,0.5-0.5C10.6,1.5,10.5,1.7,10.3,1.9
		c-0.2,0.3-0.5,0.6-0.7,1C9.5,3,9.3,3.1,9.2,3.3C9.1,3.5,9,3.6,8.9,3.8C8.7,4.1,8.4,4.4,8.1,4.7C8,4.8,7.8,5,7.6,5.1
		C7.5,5.2,7.3,5.2,7.1,5.3c0,0-0.1,0-0.1,0.1C7.3,5.2,7.6,5,7.8,4.7C8,4.6,8.1,4.4,8.3,4.2C8.4,4.1,8.6,4,8.7,3.8
		c0.3-0.3,0.5-0.7,0.8-1C9.7,2.5,10.1,2.2,10.3,1.9z M9.4,2.7C9.1,3,8.8,3.3,8.5,3.7C8.5,3.7,8.4,3.8,8.3,3.9C8.3,4,8.2,4.1,8.2,4.1
		C8,4.3,7.9,4.4,7.7,4.6C7.5,4.8,7.2,5,7,5.1C7,5.1,7.1,5,7.1,5c0.3-0.2,0.5-0.5,0.8-0.8C8,4.1,8.1,4,8.2,3.8
		c0.1-0.1,0.3-0.2,0.4-0.4C8.8,3.2,9.1,2.9,9.4,2.7c0-0.2,0.2-0.3,0.3-0.3C9.5,2.5,9.4,2.6,9.4,2.7z M4.7,5.8
		c0.4-0.1,0.7-0.3,1.1-0.5c0.3-0.2,0.7-0.4,1-0.6c0.3-0.3,0.6-0.5,0.9-0.8c0.5-0.6,1.2-1,1.7-1.6c0.1,0,0.1-0.1,0.2-0.1
		C9.4,2.3,9.3,2.4,9.2,2.5L8.4,3.3C8.3,3.4,8.2,3.6,8.1,3.7C8,3.9,7.9,4,7.7,4.1C7.5,4.4,7.3,4.6,7,4.8C6.8,4.9,6.7,5,6.5,5.1
		C6.4,5.2,6.2,5.3,6.1,5.3c-0.3,0.2-0.7,0.3-1,0.4C4.9,5.8,4.8,5.8,4.6,5.9C4.6,5.9,4.7,5.8,4.7,5.8z M5.8,3.2C6,3.1,6.1,3.1,6.3,3
		C6.3,3,6.4,3,6.5,2.9c0,0,0,0,0.1,0C6.5,3.1,6.4,3.2,6.3,3.2C6.2,3.3,6,3.4,5.9,3.4C5.7,3.5,5.6,3.5,5.4,3.5c-0.1,0-0.1,0-0.2,0
		C5.4,3.4,5.6,3.2,5.8,3.2z M4.6,2.2C4.6,2.2,4.6,2.2,4.6,2.2C4.6,2.2,4.6,2.2,4.6,2.2z M4.6,2.8c-0.1-0.1-0.1-0.3,0-0.4
		c0-0.1,0-0.1,0.1-0.2c0,0,0,0,0,0c0,0,0,0,0,0c0,0,0,0.1,0.1,0.2c0,0.1,0,0.3,0,0.4c0,0.1,0,0.3,0,0.4c0,0,0,0,0,0.1
		c0,0,0-0.1,0-0.1C4.7,3.1,4.6,2.9,4.6,2.8z M2.1,6.4C2.1,6.2,2,6.1,1.9,5.9C1.9,5.7,1.9,5.5,1.9,5.3c0-0.1,0-0.2,0.1-0.3
		C2,5,2.1,4.9,2.1,4.9c0,0,0,0,0,0c0,0,0,0,0.1,0.1c0,0.1,0.1,0.2,0.1,0.3c0,0.2,0.1,0.4,0.1,0.6c0,0.2,0,0.4,0,0.6
		c0,0.1,0,0.2,0,0.3c0,0,0,0,0,0.1c0,0,0,0,0,0C2.3,6.7,2.2,6.6,2.1,6.4z M2.8,7.5c0.2,0,0.3,0,0.5,0.1c0.1,0,0.2,0,0.2,0
		c0,0,0,0,0.1,0C3.4,7.7,3.3,7.8,3.2,7.8c-0.1,0-0.3,0-0.4,0c-0.2,0-0.3-0.1-0.5-0.1c0,0-0.1-0.1-0.1-0.1C2.4,7.5,2.6,7.5,2.8,7.5z"
		/>
	<path class="st0" d="M3.4,6.8C3.3,6.9,3.3,7,3.5,7C3.6,7,3.5,6.8,3.4,6.8z"/>
	<path class="st0" d="M8.5,1.5c0.1,0,0.1-0.2-0.1-0.2C8.3,1.4,8.4,1.5,8.5,1.5z"/>
	<path class="st0" d="M8.5,1.8c0.1,0,0-0.1,0-0.1C8.4,1.7,8.4,1.8,8.5,1.8z"/>
	<path class="st0" d="M3.8,7.3C4,7.3,4.2,7,3.9,6.9C3.8,6.9,3.7,7.2,3.8,7.3z"/>
	<path class="st0" d="M7.2,9.3c0-0.1,0-0.2-0.1-0.2C7,9,6.9,9.1,6.8,9.2c0,0.1,0,0.2,0.1,0.2C7.1,9.4,7.2,9.4,7.2,9.3z"/>
	<path class="st0" d="M7.5,10.1c0.1,0,0.1-0.1,0.1-0.2c0-0.1-0.1-0.1-0.2-0.1c-0.1,0-0.1,0.1-0.1,0.2C7.3,10,7.4,10.1,7.5,10.1z"/>
	<path class="st0" d="M7.3,18.2c0.1,0,0.1-0.1,0.1-0.2c0-0.1-0.1-0.1-0.2-0.1c-0.1,0-0.1,0.1-0.1,0.2C7.1,18.2,7.2,18.2,7.3,18.2z"
		/>
	<path class="st0" d="M8.2,9.1c-0.1,0-0.1,0.1-0.1,0.1c0,0.1,0.1,0.1,0.1,0.1c0.1,0,0.1-0.1,0.1-0.1C8.3,9.1,8.3,9.1,8.2,9.1z"/>
	<path class="st0" d="M6.9,18.6c-0.1,0-0.1,0.1-0.1,0.1c0,0.1,0.1,0.1,0.1,0.1C7,18.8,7,18.7,7,18.6C7,18.6,6.9,18.6,6.9,18.6z"/>
	<path class="st0" d="M7.7,18.5c-0.1,0-0.1,0.1-0.1,0.1c0,0.1,0.1,0.1,0.1,0.1c0.1,0,0.1-0.1,0.1-0.1C7.9,18.5,7.8,18.5,7.7,18.5z"
		/>
	<path class="st0" d="M4.1,6.6c-0.1,0-0.2,0.2,0,0.2C4.2,6.8,4.2,6.6,4.1,6.6z"/>
	<path class="st0" d="M8.8,1.7c0.1,0,0.2-0.2,0-0.2C8.8,1.4,8.7,1.6,8.8,1.7z"/>
	<path class="st0" d="M2.6,45.3c-0.2,0-0.2,0.4,0,0.3C2.7,45.6,2.8,45.3,2.6,45.3z"/>
	<path class="st0" d="M1.9,45.4c0.4,0,0.2-0.5,0-0.5C1.6,44.9,1.4,45.4,1.9,45.4z"/>
	<path class="st0" d="M5.5,48.3c-0.2,0.2,0,0.4,0.2,0.3C5.8,48.5,5.6,48.2,5.5,48.3z"/>
	<path class="st0" d="M6.2,48.1c0.2,0,0.2-0.5,0-0.5C6,47.7,6,48.1,6.2,48.1z"/>
	<path class="st0" d="M5.4,50.3c-0.3-1-1.1-1.2-1.4-1.2c-0.1-0.3-0.3-0.6-0.6-0.7c-0.8-0.3-1.5,0.1-1.5,0.1c0,0,0,0,0,0
		c-0.1,0-0.3,0.1-0.4,0.2C1.1,48.9,1,49.2,1,49.5c-0.1,0.7-0.1,2.1,0.4,2.9c0,0,0,0,0,0c0,0,0,0,0,0c0.4,0.5,1.4,0.8,2.4,0.8
		c0.4,0,0.8-0.1,1.1-0.1C5,53,5.1,52.9,5.2,52.7c0.3-0.2,0.5-0.5,0.5-0.9c0-0.4-0.2-0.8-0.3-0.9C5.4,50.8,5.4,50.6,5.4,50.3z
		 M4,50.7L4,50.7c0.2,0.2,0.6,0.5,0.6,0.8c0,0.1,0,0.1-0.1,0.2c0,0-0.1,0-0.1,0c-0.1-0.6-0.6-0.8-0.9-0.9c0-0.2,0-0.4-0.1-0.5
		c-0.2-0.2-0.4-0.3-0.6-0.4c0-0.1,0-0.2,0-0.2c0.3,0,0.7,0,0.9,0.1c0.1,0.1,0.1,0.3,0.2,0.4C3.8,50.4,3.8,50.5,4,50.7z M3.2,48.7
		c0.2,0.1,0.4,0.3,0.5,0.6c0,0,0,0,0,0c0,0,0,0.1,0.1,0.1c0,0.1,0,0.1,0,0.2c-0.3-0.2-0.8-0.2-1.1-0.1c-0.1-0.3-0.3-0.6-0.5-0.8
		C2.4,48.6,2.8,48.5,3.2,48.7z M2,52.4c0.8-0.5,1.2-1.2,1.2-1.3c0-0.1,0-0.1-0.1-0.2C3.1,50.9,3,51,3,51c0,0-0.4,0.8-1.2,1.3
		C1.8,51.5,2.4,50,2.4,50c0-0.1,0-0.1-0.1-0.2c-0.1,0-0.1,0-0.2,0.1c0,0.1-0.4,1-0.6,1.7c0-1.1,0.3-2.4,0.3-2.4c0-0.1,0-0.1-0.1-0.2
		c-0.1,0-0.1,0-0.2,0.1c0,0.1-0.3,1.3-0.4,2.4c-0.2-0.6-0.2-1.4-0.1-2c0.1-0.4,0.2-0.6,0.2-0.6c0.1-0.1,0.2-0.1,0.3-0.1
		c0.1,0,0.2,0,0.3,0.1c0.2,0.1,0.3,0.3,0.4,0.6c0,0,0,0.1,0,0.1c0,0,0,0.1,0,0.1c0,0.1,0,0.2,0,0.4c0,0.1,0,0.1,0.1,0.1
		c0,0,0.4,0,0.5,0.3c0.1,0.1,0.1,0.2,0.1,0.4c0,0,0,0.1,0,0.1c0,0,0.1,0.1,0.1,0.1c0,0,0.8,0.1,0.8,0.8c0,0,0,0,0,0.1
		c0,0-0.1,0-0.1,0C4,51.9,3.4,52.5,2,52.4z M4.7,52.8C4.2,53,3.1,53,2.3,52.7c1.3,0,1.9-0.5,1.9-0.6c0,0,0.1-0.1,0-0.2c0,0,0,0,0,0
		c0,0,0.3,0,0.5,0.2c0,0,0,0,0,0c0.1,0.1,0.2,0.2,0.2,0.4C5,52.7,4.8,52.8,4.7,52.8z M4.9,51.8C4.9,51.9,4.9,51.9,4.9,51.8
		c-0.1,0-0.1,0-0.2,0c0.1-0.1,0.1-0.2,0.1-0.3c0-0.4-0.4-0.8-0.6-1l0,0c0,0-0.1-0.1-0.1-0.1c0-0.1,0-0.5-0.1-0.9
		c0.3,0,0.9,0.2,1.1,1C5.2,50.9,5,51.3,5,51.3c0,0,0,0.1,0,0.1C5,51.6,5,51.8,4.9,51.8z M5.4,51.9c0,0.2-0.1,0.3-0.2,0.5
		c0-0.1-0.1-0.2-0.1-0.3c0,0,0.1,0,0.1-0.1c0.1-0.1,0.1-0.4,0.1-0.6c0,0,0-0.1,0-0.1C5.4,51.4,5.5,51.6,5.4,51.9z"/>
	<path class="st0" d="M3.2,40.6c0.1-0.1-0.1-0.3-0.2-0.2C3,40.5,3.1,40.7,3.2,40.6z"/>
	<path class="st0" d="M3.9,40.1c0.2-0.1,0-0.3-0.1-0.1C3.8,40,3.7,40.2,3.9,40.1z"/>
	<path class="st0" d="M2.9,41.1c0,0.1,0.2,0.1,0.2,0C3.1,41,2.9,40.9,2.9,41.1z"/>
	<path class="st0" d="M4.7,40.6c-0.1,0-0.2,0.1,0,0.2C4.8,40.8,4.8,40.6,4.7,40.6z"/>
	<path class="st0" d="M10.2,46.6l0-0.1l0-0.1l0,0c0,0,0,0,0,0c0,0,0,0,0,0c0,0-0.1,0-0.1,0l0,0l0,0l0,0L10,46.5l-0.1,0.2
		c-0.1,0.1-0.2,0.2-0.3,0.3c-0.2,0.2-0.4,0.4-0.6,0.6c-0.2,0.2-0.4,0.4-0.7,0.6c-0.2,0.2-0.4,0.4-0.6,0.6c-0.2,0.2-0.3,0.5-0.5,0.8
		c-0.1,0.3-0.2,0.6-0.2,0.9c0,0.3,0,0.6,0.1,0.9c0.1,0.3,0.2,0.6,0.3,0.8l0,0c0,0,0,0,0,0c0,0.1,0,0.1,0,0.2c0,0,0,0,0,0.1
		c0,0,0.1,0,0.1,0l0,0c0-0.1,0-0.1,0.1-0.2c0.3-0.1,0.5-0.2,0.8-0.4c0.3-0.1,0.5-0.3,0.7-0.5c0.2-0.2,0.4-0.5,0.5-0.7
		c0.1-0.3,0.3-0.5,0.3-0.8c0.2-0.6,0.3-1.1,0.4-1.7c0-0.3,0-0.6,0-0.9c0-0.1,0-0.3,0-0.4L10.2,46.6z M9.5,47.4
		C9.5,47.4,9.6,47.4,9.5,47.4c0.1,0.1,0,0.2,0,0.2c0,0,0,0,0,0c0,0,0,0.1-0.1,0.1c-0.1,0.1-0.1,0.2-0.2,0.2c0,0,0,0,0,0
		c0-0.1,0-0.1-0.1-0.2c0,0,0,0,0-0.1C9.3,47.6,9.4,47.5,9.5,47.4z M9.1,47.8C9.1,47.8,9.1,47.8,9.1,47.8c0,0.1,0.1,0.1,0.1,0.2
		c0,0,0,0.1,0,0.1c0,0.1,0,0.1,0,0.1l0,0l0,0c0,0,0,0.1-0.1,0.1l-0.2,0.4c0-0.1,0-0.1-0.1-0.2c0-0.1,0-0.2-0.1-0.3
		c0-0.1,0-0.1-0.1-0.2C8.9,48,9,47.9,9.1,47.8z M8.5,48.3c0.1,0,0.1-0.1,0.2-0.1c0,0,0,0.1,0,0.1c0,0.1,0.1,0.2,0.1,0.2
		c0,0.1,0,0.2,0,0.2c0,0.1,0,0.2,0,0.2l0,0c0,0,0,0,0,0c0,0,0,0.1,0,0.1c0,0.1,0,0.1-0.1,0.2c0,0,0,0,0,0c0-0.1-0.1-0.1-0.1-0.1
		c0,0,0-0.1-0.1-0.1c0-0.1-0.1-0.2-0.1-0.3c0-0.1-0.1-0.1-0.1-0.2C8.3,48.5,8.4,48.4,8.5,48.3z M7.9,48.9c0.1-0.1,0.1-0.2,0.2-0.3
		c0,0.1,0.1,0.1,0.1,0.2c0,0.1,0.1,0.2,0.1,0.3c0,0,0,0.1,0,0.1c0,0.1,0,0.1,0,0.2c0,0,0,0.1,0,0.1c0,0,0,0.1,0,0.1l0,0c0,0,0,0,0,0
		c-0.1,0.1-0.1,0.2-0.2,0.3c0-0.1-0.1-0.1-0.1-0.1c0,0-0.1-0.1-0.1-0.2c0-0.1-0.1-0.2-0.1-0.3c-0.1-0.1-0.1-0.2-0.2-0.2
		C7.8,49.1,7.8,49,7.9,48.9z M7.5,49.7c0-0.1,0.1-0.3,0.1-0.4c0,0.1,0.1,0.1,0.1,0.2c0.1,0.1,0.1,0.2,0.2,0.3c0,0.1,0,0.1,0,0.2
		c0,0.1,0,0.1,0,0.2c0,0.1,0,0.1,0.1,0.2c0,0,0,0.1,0,0.1C8,50.5,8,50.5,8,50.6c0,0.1,0,0.1,0,0.2c0-0.1,0-0.1,0-0.2
		c0-0.1-0.1-0.1-0.1-0.2c-0.1-0.1-0.1-0.3-0.1-0.4C7.6,49.9,7.6,49.8,7.5,49.7C7.5,49.7,7.5,49.7,7.5,49.7z M7.3,50.5
		c0-0.2,0.1-0.4,0.1-0.6c0,0,0,0.1,0,0.1c0.1,0.1,0.1,0.3,0.2,0.4c0,0.1,0,0.1,0,0.2c0,0.1,0,0.1,0,0.2c0,0.1,0,0.3,0,0.4l0,0
		c0,0,0,0,0,0c0,0,0,0,0,0.1c0,0,0,0,0,0c0-0.1,0-0.1,0-0.2c0-0.1-0.1-0.1-0.1-0.1c-0.1-0.1-0.1-0.2-0.1-0.3
		C7.4,50.6,7.3,50.6,7.3,50.5C7.3,50.5,7.3,50.5,7.3,50.5z M7.5,51.9c-0.1-0.2-0.1-0.4-0.2-0.6c0-0.2,0-0.3,0-0.5
		c0,0.1,0.1,0.2,0.1,0.3c0,0.1,0,0.1,0,0.2c0,0.1,0.1,0.1,0.1,0.2c0,0.1,0,0.1,0.1,0.2c0,0,0,0.1,0,0.1C7.6,51.8,7.5,51.9,7.5,51.9z
		 M8.2,51.7C8.1,51.9,7.9,52,7.6,52c0-0.1,0.1-0.2,0.1-0.2c0,0,0.1,0,0.1,0c0.1,0,0.1,0,0.1,0C8.1,51.7,8.2,51.7,8.2,51.7
		c0.1-0.1,0.1-0.1,0.1-0.1C8.3,51.7,8.3,51.7,8.2,51.7z M8.9,51.2c-0.1,0.1-0.1,0.1-0.2,0.2c-0.1,0-0.1,0-0.2,0c0,0-0.1,0-0.1,0
		c0,0-0.1,0.1-0.1,0.1c-0.1,0-0.2,0-0.3,0.1c0,0-0.1,0-0.1,0c0-0.1,0.1-0.2,0.1-0.2c0,0,0.1-0.1,0.1-0.1c0.1,0,0.2,0,0.2-0.1
		C8.4,51.1,8.5,51,8.6,51c0.1-0.1,0.3,0,0.4-0.1l0.1-0.1C9.1,50.9,9,51.1,8.9,51.2z M9.3,50.6c-0.1,0-0.2,0-0.4,0
		c-0.1,0-0.1,0-0.2,0.1c-0.1,0-0.1,0.1-0.2,0.1L8.1,51C8.1,51,8,51.1,8,51.1c0,0,0,0,0-0.1c0-0.1,0.1-0.2,0.2-0.3
		c0-0.1,0.1-0.2,0.1-0.2c0.1-0.1,0.2-0.1,0.3-0.1c0.1,0,0.1,0,0.2-0.1L9,50.2c0.1,0,0.1-0.1,0.2-0.1c0.1,0,0.1,0,0.2,0
		c0.1,0,0.2-0.1,0.2-0.1C9.5,50.2,9.4,50.4,9.3,50.6z M9.7,49.7C9.7,49.8,9.7,49.8,9.7,49.7c-0.2,0.1-0.3,0.1-0.4,0.1
		c-0.1,0-0.1,0.1-0.2,0.1C9.1,50,9,50,8.9,50l-0.2,0.1c-0.1,0-0.1,0-0.2,0.1c0,0-0.1,0.1-0.1,0.1c0.1-0.2,0.1-0.3,0.2-0.5
		c0.1,0,0.1-0.1,0.2-0.1c0.1,0,0.1-0.1,0.2-0.1c0.1,0,0.1,0,0.2-0.1l0.2-0.1c0.1,0,0.1-0.1,0.2-0.1c0.1,0,0.1,0,0.2-0.1
		c0.1,0,0.2-0.1,0.2-0.1C9.8,49.4,9.8,49.6,9.7,49.7z M9.9,49c-0.1,0-0.2,0-0.3,0.1c-0.1,0-0.1,0.1-0.2,0.1c-0.1,0-0.1,0.1-0.2,0.1
		L9,49.3c-0.1,0-0.1,0-0.2,0.1c0,0-0.1,0.1-0.1,0.1c0,0,0-0.1,0.1-0.1c0.1-0.1,0.2-0.2,0.2-0.3C9,49,9,49,9,49c0,0,0.1-0.1,0.1-0.1
		c0.1,0,0.1,0,0.2-0.1c0,0,0.1-0.1,0.1-0.1c0,0,0.1-0.1,0.2-0.1c0.1,0,0.1,0,0.2-0.1c0,0,0.1-0.1,0.1-0.1C9.9,48.7,9.9,48.8,9.9,49z
		 M10,48.1c0,0.1,0,0.1,0,0.2c-0.1,0-0.2,0-0.3,0.1c-0.1,0-0.1,0.1-0.1,0.1c-0.1,0-0.1,0.1-0.2,0.1l-0.2,0.1c0,0-0.1,0-0.1,0.1
		c0,0,0,0.1-0.1,0.1c0.1-0.1,0.1-0.2,0.2-0.4c0,0,0-0.1,0.1-0.1c0,0,0,0,0,0c0,0,0.1,0,0.1-0.1c0,0,0.1-0.1,0.1-0.1c0,0,0.1,0,0.1,0
		L9.8,48c0,0,0.1-0.1,0.1-0.1c0,0,0.1,0,0.1,0c0,0,0,0,0,0C10,48,10,48,10,48.1z M10,47.7c-0.1,0-0.1,0-0.2,0c0,0-0.1,0.1-0.1,0.1
		c0,0-0.1,0-0.1,0.1l-0.1,0c0-0.1,0.1-0.1,0.1-0.2c0,0,0,0,0,0c0,0,0-0.1,0.1-0.1c0,0,0,0,0.1,0c0,0,0,0,0-0.1c0,0,0,0,0.1,0
		c0,0,0,0,0,0C10,47.6,10,47.6,10,47.7z M10.1,46.6l0,0.2l0,0.4c0,0,0,0,0,0.1c0,0-0.1,0-0.1,0c0,0,0,0,0,0c0-0.1,0.1-0.1,0.1-0.2
		l0,0c0,0,0,0,0-0.1c0,0-0.1,0-0.1,0c-0.1,0.1-0.2,0.2-0.3,0.3c0,0,0,0,0,0c0,0,0-0.1,0-0.1c0,0,0,0,0,0c0,0,0.1-0.1,0.1-0.1
		c0.1-0.1,0.2-0.2,0.3-0.4C10,46.7,10.1,46.6,10.1,46.6L10.1,46.6L10.1,46.6z"/>
	<path class="st0" d="M7.2,37.5c-0.1,0.1,0.1,0.3,0.2,0.2C7.4,37.6,7.3,37.4,7.2,37.5z"/>
	<path class="st0" d="M7.4,36.9c-0.1,0.1,0,0.3,0.1,0.2C7.7,37.1,7.5,36.8,7.4,36.9z"/>
	<path class="st0" d="M7.6,37.7c0.1,0,0.2-0.1,0.1-0.2C7.6,37.3,7.5,37.6,7.6,37.7z"/>
	<path class="st0" d="M12.7,41.9c0-0.1-0.1-0.2-0.1-0.3c0-0.1,0-0.1,0-0.1l0-0.1c0-0.1,0-0.1,0-0.2c0-0.2-0.1-0.4-0.1-0.6
		c0-0.1-0.1-0.2-0.2-0.2c-0.1-0.1-0.2-0.1-0.2-0.2c-0.1-0.1-0.2-0.2-0.3-0.4c-0.1-0.1-0.1-0.3-0.2-0.5c-0.1-0.1-0.1-0.2-0.2-0.2
		C11.2,39.1,11.1,39,11,39c-0.2,0-0.3,0-0.5-0.1c-0.1,0-0.3,0-0.4-0.2c-0.1-0.1-0.1-0.2-0.2-0.2c-0.1-0.1-0.2-0.1-0.3-0.1
		c-0.2,0-0.4,0-0.6,0c-0.3,0.1-0.5,0.4-0.7,0.6c0,0-0.1,0-0.1,0c-0.1,0-0.2,0.1-0.3,0.2C8,39.4,8,39.4,7.9,39.5
		c0,0.1-0.1,0.2-0.1,0.2c0,0.1-0.1,0.1-0.1,0.2c0,0.1-0.1,0.1-0.1,0.2c-0.1,0.3-0.1,0.6-0.1,0.9c0,0.2-0.1,0.3-0.1,0.5
		c0,0.2,0,0.3,0,0.5c0,0.3,0.1,0.7,0.3,0.9c0,0,0,0.1,0,0.1c0,0,0,0.1,0,0.1c0,0,0,0.1,0.1,0.1c-0.5,0.4-1.1,0.8-1.7,1.2
		c-0.2,0.1-0.4,0.2-0.6,0.2c0,0,0,0,0-0.1c0.1-0.1,0.1-0.3,0.2-0.4c0.1-0.2,0.1-0.3,0.1-0.5C6,43.3,6,43,6,42.7c0-0.2,0-0.3,0-0.5
		c0-0.2,0-0.3,0-0.5l0-0.4c0,0,0.1-0.1,0.1-0.1c0,0,0.1,0,0.1,0c0.2,0,0.3-0.1,0.5-0.1c0.2-0.1,0.3-0.1,0.4-0.2
		c0.2-0.2,0.4-0.5,0.5-0.8l0.2-0.4c0.1-0.1,0.1-0.3,0.1-0.5c0-0.2,0-0.3,0-0.5c0-0.1,0-0.2,0-0.2c0,0,0-0.1,0-0.1
		c0-0.1,0-0.1-0.1-0.1c0,0-0.1,0-0.1,0l0,0l0,0l0,0l0,0l-0.1,0.1l-0.2,0.2c-0.1,0.1-0.2,0.2-0.3,0.3c-0.2,0.2-0.5,0.4-0.7,0.6
		c-0.1,0.1-0.2,0.2-0.3,0.4c-0.1,0.1-0.2,0.3-0.2,0.5c0,0.2,0,0.3,0,0.5c0,0.1,0,0.1,0,0.2c0,0,0,0,0,0c0-0.1,0-0.2-0.1-0.3
		c-0.1-0.3-0.3-0.6-0.4-0.9c-0.3-0.5-0.6-0.9-1-1.3c0.5,0,0.9-0.1,1.3-0.3C5.8,38.1,6,38,6.2,37.8c0.1-0.1,0.2-0.2,0.2-0.3
		c0-0.1,0.1-0.2,0.1-0.3c0.2-0.1,0.4-0.2,0.5-0.4c0.1-0.2,0.1-0.5,0.1-0.7c0-0.1,0-0.2,0-0.3c0-0.1-0.1-0.2-0.1-0.3c0,0,0,0,0,0
		c0-0.3,0-0.5-0.1-0.8c-0.1-0.1-0.1-0.3-0.3-0.4c-0.1-0.1-0.3-0.1-0.4-0.2c-0.3-0.1-0.6-0.1-0.8-0.2c0,0-0.1,0-0.1,0c0,0,0,0-0.1,0
		c0,0-0.1-0.1-0.2-0.1c-0.1-0.1-0.2-0.2-0.2-0.4c-0.2-0.3-0.5-0.4-0.8-0.4c-0.2,0-0.3,0-0.5,0.1c-0.1,0-0.1,0.1-0.2,0.1
		C3.1,33,3,33.1,3,33.1c-0.3,0.1-0.5,0.3-0.7,0.6C2.1,34,2,34.2,2,34.5c0,0,0,0-0.1,0c-0.1-0.1-0.3-0.1-0.4,0c-0.1,0-0.1,0-0.2,0.1
		c0,0.1,0,0.1,0,0.2c0,0.1,0.1,0.2,0.1,0.3c0,0.1,0,0.1,0,0.2c0,0.1,0,0.1,0,0.2c0,0.1,0,0.2,0,0.3c0,0.2,0.1,0.5,0.2,0.7
		c0.1,0.2,0.3,0.4,0.4,0.6c0.3,0.3,0.6,0.6,1,0.9c0.3,0.3,0.6,0.5,1,0.6c0.3,0.5,0.6,1,0.9,1.6l0.4,0.8c0.1,0.1,0.1,0.3,0.2,0.4
		c0,0.1,0,0.3,0.1,0.5c0.1,0.5,0,1-0.1,1.5c0-0.1,0-0.2-0.1-0.3C5.4,42.6,5.2,42.3,5,42c-0.1-0.1-0.2-0.2-0.3-0.3c0-0.1,0-0.1,0-0.2
		c0-0.1,0-0.1,0-0.2c0-0.1,0-0.1,0-0.2c0-0.1,0-0.1,0-0.2l0,0c0,0,0,0,0,0c0,0,0,0,0,0C4.6,40.9,4.5,41,4.5,41c0,0.1,0,0.2-0.1,0.2
		c0,0,0,0.1,0,0.1c-0.1-0.1-0.1-0.1-0.2-0.2c-0.1-0.1-0.1-0.1-0.2-0.2c0-0.1,0-0.2-0.1-0.3c0-0.2-0.1-0.3-0.1-0.5l0,0c0,0,0,0,0,0
		c0,0,0,0,0,0c-0.1,0.2,0,0.3,0,0.5c0,0,0,0.1,0,0.1c-0.2-0.1-0.3-0.2-0.5-0.3c0,0,0,0,0,0c0,0,0,0,0,0l0,0c0.2,0.2,0.4,0.4,0.6,0.6
		c-0.1,0-0.2,0-0.3,0c-0.1,0-0.2,0-0.2,0c-0.1,0-0.2,0-0.3,0l0,0c0,0,0,0,0,0c0,0,0,0,0,0c0.1,0.1,0.1,0.1,0.2,0.1
		c0.1,0,0.2,0.1,0.3,0.1c0.1,0,0.2,0,0.3,0c0.1,0,0.1,0,0.2,0c0.3,0.2,0.5,0.5,0.7,0.7C5,42.4,5.1,42.7,5.3,43
		c0.1,0.2,0.1,0.4,0.2,0.6c-0.1,0.3-0.1,0.5-0.2,0.8c0,0.1-0.1,0.2-0.1,0.2c0,0-0.1,0-0.1,0c-0.1,0-0.2,0.1-0.3,0.1
		c-0.1,0-0.2,0.1-0.2,0.1c-0.1,0-0.1,0.1-0.2,0.1c0,0,0-0.1,0-0.1c0-0.1,0-0.3-0.1-0.4c-0.1-0.3-0.2-0.6-0.4-0.8
		c-0.2-0.2-0.4-0.5-0.7-0.6C3.1,43,2.9,43,2.8,43c-0.1,0-0.2,0-0.2,0c-0.1,0-0.2,0-0.2,0.1c0,0,0,0.1,0,0.1c0,0,0,0,0,0.1
		c0,0,0,0.1,0,0.1c0,0.1,0,0.1,0,0.2c0,0.1,0.1,0.3,0.1,0.4c0.1,0.3,0.3,0.5,0.5,0.7c0.2,0.2,0.4,0.5,0.6,0.6c0.1,0,0.1,0.1,0.2,0.1
		c-0.2,0.1-0.5,0.2-0.7,0.4c-0.2,0.1-0.3,0.2-0.4,0.4c-0.1,0.2-0.2,0.3-0.3,0.5c-0.2,0.3-0.5,0.6-0.7,0.9c-0.2,0.3-0.4,0.6-0.6,1
		c0,0,0,0.1,0,0.1c0,0,0.1,0,0.1,0l0,0c0.2-0.3,0.4-0.6,0.6-0.9c0.2-0.3,0.4-0.6,0.6-0.9c0.1-0.1,0.3-0.2,0.4-0.3
		c0.1-0.1,0.3-0.2,0.4-0.4c0.2-0.2,0.6-0.3,0.9-0.5c0,0,0,0,0,0c0.1,0.3,0.2,0.5,0.3,0.8c0.1,0.2,0.1,0.5,0.2,0.7c0,0.1,0,0.2,0,0.3
		c0,0.2,0,0.3,0,0.5c0,0.1,0,0.2,0,0.2c0,0.1,0,0.2,0.1,0.2c0.1,0.3,0.2,0.6,0.3,0.9c0.2,0.6,0.5,1.2,0.8,1.7c0.4,0.5,0.8,1,1.3,1.4
		c0,0,0.1,0,0.1,0c0,0,0-0.1,0-0.1l0,0c-0.4-0.4-0.8-0.9-1.2-1.4c-0.3-0.5-0.7-1-0.8-1.6c-0.1-0.2-0.1-0.5-0.1-0.7
		c0-0.1,0-0.3,0-0.4c0,0,0-0.1,0-0.1c0.1-0.1,0.2-0.1,0.3-0.2c0.1-0.1,0.3-0.1,0.4-0.2C6,47.2,6.2,47,6.4,46.8
		c0.2-0.2,0.4-0.5,0.4-0.8c0-0.1,0-0.3,0-0.4c0-0.1,0-0.2-0.1-0.2c0-0.1-0.1-0.1-0.2-0.2c-0.1,0-0.2,0-0.2,0c-0.1,0-0.1,0.1-0.2,0.1
		c-0.1,0.1-0.2,0.2-0.3,0.3c-0.2,0.2-0.3,0.5-0.4,0.7c-0.1,0.1-0.1,0.2-0.2,0.4c-0.1,0.1-0.1,0.3-0.1,0.4L5,47.4c0,0,0-0.1,0-0.1
		c-0.1-0.6,0.1-1.2,0.2-1.8c0-0.1,0.1-0.3,0.1-0.4c0.3-0.1,0.6-0.3,0.9-0.4c0,0,0,0,0,0l0,0l0,0c0,0,0,0,0,0.1l0.1,0.1
		c0.1,0.1,0.1,0.1,0.2,0.2c0.1,0.1,0.3,0.2,0.5,0.3c0.3,0.2,0.7,0.3,1.1,0.4C8.6,45.9,9,46,9.4,46c0.2,0,0.4-0.1,0.6-0.2
		c0.2-0.1,0.4-0.1,0.6-0.2c0,0,0,0,0,0c0-0.1,0-0.1,0-0.2l0,0c-0.3-0.2-0.7-0.3-1-0.5c-0.2-0.1-0.3-0.2-0.5-0.2l-0.3-0.1
		c-0.1,0-0.2,0-0.3-0.1c-0.4-0.1-0.7-0.2-1.1-0.2c-0.2,0-0.3,0-0.5,0c0.1-0.1,0.2-0.2,0.3-0.2c0.3-0.2,0.5-0.5,0.7-0.7
		c0,0,0.1,0.1,0.1,0.1c0.2,0.1,0.4,0.2,0.5,0.3c0.2,0.1,0.4,0.1,0.6,0.1c0.2,0,0.4,0,0.6,0c0.4,0,0.8,0,1.2-0.1
		c0.1,0,0.2-0.1,0.3-0.2c0.1-0.1,0.2-0.2,0.2-0.2c0,0,0.1-0.1,0.1-0.2c0.4,0,0.7-0.3,0.9-0.6c0.1-0.2,0.2-0.3,0.2-0.6
		C12.8,42.1,12.7,42,12.7,41.9z M6.1,40.4c0-0.1,0.1-0.3,0.2-0.4c0.1-0.1,0.1-0.3,0.2-0.4c0.2-0.2,0.5-0.4,0.7-0.6
		c0.1-0.1,0.2-0.2,0.3-0.3l0.1-0.2l0.1-0.1c0,0,0,0,0,0c0,0,0,0,0,0.1c0,0.1,0,0.1,0,0.2c0,0.1,0,0.3,0,0.4
		c-0.1,0.3-0.1,0.6-0.2,0.9c-0.1,0.3-0.3,0.5-0.5,0.7C6.7,40.8,6.6,41,6.5,41c-0.1,0.1-0.3,0.1-0.4,0.1c0,0,0,0,0,0
		c0,0,0.1-0.1,0.1-0.1c0.1-0.2,0.2-0.4,0.3-0.5c0.1-0.2,0.3-0.3,0.4-0.5c0.1-0.2,0.2-0.3,0.4-0.5c0,0,0,0,0,0c0,0,0,0,0,0
		c-0.2,0.1-0.4,0.3-0.5,0.4c-0.2,0.2-0.3,0.3-0.4,0.5c-0.1,0.2-0.2,0.3-0.3,0.4C6,40.6,6.1,40.5,6.1,40.4z M4.5,38.3
		C4.4,38.3,4.4,38.3,4.5,38.3c0-0.1,0.1-0.2,0.1-0.3c0.1-0.2,0.1-0.3,0.1-0.5c0-0.2,0-0.3,0-0.5c0-0.1,0-0.3,0-0.4
		c0.2,0,0.4-0.1,0.6,0c0,0.3,0,0.6-0.2,0.9c-0.1,0.2-0.2,0.3-0.3,0.4C4.7,38.2,4.6,38.3,4.5,38.3z M3.3,34.7c0-0.1,0-0.1,0-0.2
		c0.1,0,0.2,0,0.4,0c0.1,0,0.2,0.1,0.2,0.2c0,0,0,0,0.1,0.1c-0.1,0.1-0.1,0.3-0.1,0.4c0,0.2,0,0.4,0,0.6c0,0.2,0.1,0.4,0.1,0.6
		c0,0.2,0.1,0.3,0.1,0.5c0,0,0,0,0,0c-0.1-0.2-0.1-0.4-0.2-0.6c-0.1-0.2-0.2-0.5-0.3-0.7c-0.1-0.1-0.1-0.2-0.2-0.3c0,0,0,0,0-0.1
		c0-0.1,0-0.2,0-0.2C3.3,34.9,3.3,34.8,3.3,34.7z M4,35.8c0-0.2,0-0.4,0-0.5c0-0.1,0-0.2,0-0.3c0,0,0,0,0,0c0.1,0.1,0.2,0.3,0.3,0.5
		l0,0c0,0,0.1,0,0.1,0c0.1,0,0.2,0,0.3,0c0,0,0.1,0,0.1,0c0,0.1-0.1,0.2-0.1,0.3c0,0.1-0.1,0.2-0.1,0.4c0,0.1-0.1,0.3-0.2,0.3
		c-0.1,0.1-0.1,0.1-0.2,0.2c-0.1,0-0.1,0.1-0.2,0.1c0-0.1-0.1-0.3-0.1-0.4C4,36.1,4,35.9,4,35.8z M4.1,34.6c0.2-0.1,0.3-0.1,0.5-0.1
		c0,0,0,0,0,0c0,0,0,0.1,0,0.1c0,0.1,0,0.2-0.1,0.3c0,0.1,0,0.2,0,0.3c0,0,0,0,0,0.1c-0.1-0.1-0.1-0.3-0.2-0.4
		C4.2,34.7,4.1,34.6,4.1,34.6z M5.6,35.5c-0.2-0.2-0.4-0.3-0.6-0.3c0,0-0.1,0-0.1,0c0,0,0-0.1,0-0.1C5,35,5,35,5.1,34.9
		c0.1-0.1,0.1-0.1,0.2-0.2c0,0,0.1-0.1,0.1-0.1c0,0,0,0,0.1,0.1c0.1,0.1,0.1,0.1,0.2,0.2c0,0.1,0,0.1,0.1,0.2
		c0.1,0.1,0.1,0.2,0.1,0.4c0,0.1,0,0.2,0,0.4C5.7,35.7,5.7,35.6,5.6,35.5z M5.7,36.6c-0.2-0.1-0.4-0.1-0.5-0.1c0,0,0,0-0.1,0
		c0.1-0.1,0.2-0.1,0.2-0.2c0.1-0.1,0.1-0.2,0.2-0.3c0,0,0-0.1,0-0.1c0,0,0,0,0,0c0,0.1,0.1,0.2,0.1,0.3C5.7,36.3,5.7,36.4,5.7,36.6z
		 M5,35.8c0-0.1,0-0.2,0-0.3c0,0,0,0,0,0c0.2,0,0.4,0.1,0.5,0.2c0,0.1-0.1,0.2-0.1,0.3c0,0.1-0.1,0.2-0.1,0.3
		c-0.1,0.1-0.1,0.2-0.2,0.2c-0.1,0-0.1,0-0.2,0.1c-0.1,0-0.2,0-0.2,0c0,0,0,0,0-0.1c0.1-0.1,0.1-0.2,0.2-0.4C4.9,36,4.9,35.9,5,35.8
		z M4.7,38.3c0,0,0.1-0.1,0.1-0.1C5,38,5,37.9,5.1,37.7c0.1-0.2,0.1-0.3,0.1-0.5c0-0.1,0-0.3,0-0.4c0.2,0,0.3,0.1,0.5,0.1
		c0,0.1-0.1,0.3-0.1,0.4c-0.1,0.2-0.2,0.3-0.3,0.5C5.3,37.9,5.1,38,5,38.1C4.9,38.2,4.8,38.2,4.7,38.3C4.7,38.3,4.7,38.3,4.7,38.3z
		 M6.1,37.7c-0.2,0.1-0.3,0.3-0.5,0.4c-0.2,0.1-0.4,0.2-0.6,0.2c0,0,0.1,0,0.1-0.1c0.1-0.1,0.3-0.2,0.4-0.4c0.1-0.1,0.2-0.3,0.3-0.5
		c0.1-0.1,0.1-0.3,0.1-0.4c0.1,0,0.1,0,0.2,0.1c0,0,0.1,0.1,0.1,0.1c0,0,0.1,0.1,0.1,0.1C6.4,37.4,6.2,37.6,6.1,37.7z M5.9,36.1
		C5.9,36.1,5.9,36.1,5.9,36.1c0-0.3,0.1-0.5,0-0.8L5.9,35c0,0,0,0,0,0C6,35.1,6,35.1,6.1,35.2l0,0c0,0.1,0,0.2,0.1,0.4
		c0,0.1,0,0.3,0.1,0.4c0,0.1,0,0.3-0.1,0.4c0,0.1-0.1,0.2-0.1,0.3c0,0-0.1-0.1-0.1-0.1c0,0,0,0,0,0C5.9,36.5,6,36.3,5.9,36.1z
		 M6.4,35.5c0-0.1,0-0.2-0.1-0.3c0.1,0,0.2,0.1,0.2,0.1c0,0,0.1,0.1,0.1,0.1c0,0.1,0,0.2,0,0.4c0,0.1,0,0.3,0,0.4
		c0,0.1-0.1,0.2-0.2,0.4c-0.1,0.1-0.1,0.2-0.2,0.3c0,0,0,0,0,0c0.1-0.1,0.1-0.2,0.2-0.4c0-0.2,0.1-0.3,0.1-0.5
		C6.4,35.8,6.4,35.6,6.4,35.5z M6.9,36.1c0,0.1,0,0.2-0.1,0.3c0,0.1-0.1,0.2-0.1,0.3c-0.1,0.2-0.2,0.3-0.3,0.4
		c0-0.1-0.1-0.1-0.1-0.2c0.1-0.1,0.2-0.2,0.3-0.3c0.1-0.1,0.1-0.3,0.1-0.4c0-0.1,0-0.3,0-0.4c0-0.1,0-0.1,0-0.2
		C6.9,35.8,6.9,35.9,6.9,36.1z M6.4,34.5c0,0.1,0.1,0.1,0.1,0.2c0.1,0.2,0.1,0.4,0.2,0.6c0,0-0.1,0-0.1-0.1L6.3,35
		c0,0-0.1-0.1-0.2-0.1c0,0,0,0,0,0c0,0,0.1,0,0.1-0.1c0-0.1,0.1-0.1,0.1-0.2C6.4,34.7,6.4,34.6,6.4,34.5z M5.8,34.6
		c0-0.1,0-0.1,0-0.1c0,0,0-0.1,0-0.1c0,0,0,0,0-0.1c0,0,0.1,0,0.1,0c0.1,0,0.2,0.1,0.3,0.2c0,0,0,0.1,0,0.1c0,0.1,0,0.1,0,0.2
		c0,0.1-0.1,0.1-0.1,0.2c0,0-0.1,0-0.1,0.1l-0.2-0.2C5.8,34.6,5.8,34.6,5.8,34.6C5.8,34.6,5.8,34.6,5.8,34.6z M5.1,34.3
		c0,0,0-0.1,0-0.1c0,0,0-0.1,0-0.1c0.2,0,0.4,0.1,0.6,0.1c0,0,0,0,0,0.1c0,0,0,0.1,0,0.1c0,0,0,0.1,0,0.1c0,0-0.1-0.1-0.1-0.1
		c-0.1,0-0.2-0.1-0.3-0.1C5.2,34.3,5.1,34.3,5.1,34.3C5.1,34.3,5.1,34.3,5.1,34.3z M5.2,34.5C5.2,34.5,5.2,34.5,5.2,34.5
		c0,0.1,0,0.1-0.1,0.1C5.1,34.7,5,34.7,5,34.8c0,0.1-0.1,0.2-0.1,0.2c0,0-0.1,0.1-0.1,0.2c0,0,0,0-0.1,0c-0.1,0-0.1,0-0.2,0
		c0-0.1,0-0.1,0-0.2c0-0.1,0-0.2,0.1-0.2c0-0.1,0-0.2,0.1-0.2c0-0.1,0-0.1,0.1-0.2C4.9,34.4,5.1,34.4,5.2,34.5z M4.9,33.9
		C4.9,34,4.9,34,5,34c0,0,0,0,0,0c0,0,0,0.1,0,0.1c0,0,0,0.1,0,0.1c0,0,0,0,0,0c-0.1,0-0.3,0-0.4,0c0,0,0,0,0,0c0-0.1,0-0.1,0.1-0.2
		c0-0.1,0.1-0.2,0.1-0.3C4.8,33.8,4.8,33.9,4.9,33.9z M4.5,33.4c0.1,0.1,0.1,0.2,0.2,0.2c-0.1,0.1-0.1,0.2-0.1,0.3
		c0,0.1-0.1,0.1-0.1,0.2c0,0,0,0.1,0,0.1c-0.2,0-0.4,0.1-0.5,0.2c0,0-0.1,0-0.1,0c0-0.1,0.1-0.2,0.1-0.2C4,34.1,4,34,4.1,33.9
		c0.1-0.1,0.1-0.2,0.2-0.3C4.4,33.5,4.5,33.5,4.5,33.4C4.5,33.4,4.5,33.4,4.5,33.4z M3.9,33.1c0.2,0,0.4,0.1,0.6,0.2
		c-0.1,0.1-0.1,0.1-0.2,0.2c-0.1,0.1-0.1,0.2-0.2,0.3c-0.1,0.1-0.1,0.2-0.2,0.3c0,0.1-0.1,0.2-0.1,0.2c0,0-0.1,0-0.1,0
		c-0.1,0-0.1,0-0.2,0L3.5,34c0-0.1,0.1-0.2,0.1-0.4C3.7,33.5,3.8,33.3,3.9,33.1z M3.3,33.2c0.1,0,0.1,0,0.2,0c0.1,0,0.2,0,0.3,0
		c-0.1,0.2-0.2,0.4-0.2,0.5c0,0.1-0.1,0.2-0.1,0.4c0,0.1,0,0.2-0.1,0.3c-0.1,0-0.2,0-0.4,0c-0.1,0-0.1,0.1-0.2,0.1
		c0-0.1,0-0.2,0-0.3c0-0.1,0-0.3,0.1-0.4C3,33.6,3.1,33.4,3.3,33.2z M3.1,34.7c0,0.1,0,0.2,0,0.3c0,0,0,0.1,0,0.1
		c0,0-0.1-0.1-0.1-0.1c-0.1-0.1-0.2-0.1-0.3-0.2c0.1-0.1,0.2-0.2,0.4-0.2c0,0,0,0,0,0C3.1,34.6,3.1,34.6,3.1,34.7z M2.1,34.6
		c0-0.3,0.2-0.5,0.3-0.8c0.1-0.2,0.3-0.4,0.6-0.6c0,0,0,0,0.1,0C3,33.3,3,33.3,3,33.4c-0.1,0.1-0.1,0.3-0.2,0.4
		c0,0.1-0.1,0.3-0.1,0.4c0,0.1,0,0.3,0,0.4c-0.1,0-0.1,0.1-0.1,0.2c-0.1,0-0.1,0-0.2,0C2.3,34.7,2.2,34.6,2.1,34.6L2.1,34.6z
		 M1.9,34.6c0.1,0.1,0.2,0.1,0.3,0.2c0,0.2,0,0.3,0,0.4c0,0.2,0.1,0.3,0.2,0.5c0,0.1,0,0.2,0.1,0.2c0,0.1,0.1,0.2,0.1,0.2
		c0.1,0.1,0.2,0.3,0.3,0.4C3,36.7,3,36.7,3.1,36.8c0,0.1,0,0.2,0.1,0.2c0.1,0.1,0.2,0.2,0.3,0.4c0,0.1,0.1,0.1,0.1,0.2c0,0,0,0,0,0
		c-0.1-0.1-0.1-0.1-0.2-0.2C3.2,37.3,3.1,37.2,3,37c-0.1-0.1-0.1-0.1-0.2-0.2c-0.1-0.1-0.1-0.1-0.2-0.2c-0.1-0.2-0.2-0.3-0.3-0.5
		c0-0.1-0.1-0.2-0.1-0.2c-0.1-0.1-0.1-0.2-0.1-0.2C2,35.5,2,35.3,2,35.1L1.9,34.6C1.9,34.6,1.9,34.6,1.9,34.6z M3.2,37.8
		c-0.2-0.1-0.4-0.3-0.5-0.4c-0.2-0.2-0.3-0.3-0.5-0.5c-0.1-0.2-0.3-0.3-0.4-0.5c-0.1-0.2-0.1-0.4-0.2-0.6c0-0.1,0-0.2,0-0.3
		c0,0,0-0.1,0-0.2c0-0.1,0-0.1-0.1-0.2c0-0.1-0.1-0.2-0.1-0.3c0-0.1,0-0.2,0.1-0.2c0.1,0,0.2,0,0.3,0c0,0.2,0,0.4,0,0.5
		c0,0.2,0.1,0.4,0.1,0.6c0,0.1,0,0.2,0,0.3c0,0.1,0.1,0.2,0.1,0.3c0.1,0.2,0.2,0.3,0.4,0.5c0.1,0.1,0.1,0.1,0.2,0.2
		c0.1,0.1,0.1,0.2,0.2,0.2c0.1,0.1,0.3,0.3,0.4,0.4c0.1,0.1,0.2,0.3,0.4,0.4c0,0,0,0,0,0C3.5,37.9,3.3,37.9,3.2,37.8z M4,38
		c0,0.1,0,0.1,0,0.2c0,0,0,0,0,0c0,0,0,0,0,0c0-0.2-0.1-0.3-0.1-0.5c0-0.1-0.1-0.2-0.1-0.2c-0.1-0.1-0.1-0.1-0.1-0.2l-0.2-0.4
		c0-0.1-0.1-0.1-0.2-0.2c-0.1-0.1-0.1-0.1-0.1-0.2c-0.1-0.1-0.2-0.3-0.2-0.4c0-0.1-0.1-0.1-0.1-0.2c-0.1-0.1-0.1-0.1-0.1-0.2
		c-0.1-0.1-0.1-0.3-0.1-0.4c0-0.1-0.1-0.2-0.1-0.4c0.2,0,0.4,0.1,0.5,0.2c0.2,0.1,0.3,0.3,0.4,0.5c0.1,0.2,0.2,0.4,0.3,0.6
		c0.1,0.2,0.2,0.4,0.2,0.7c0,0,0,0,0,0c0,0,0,0,0.1,0c0,0.1,0,0.2,0,0.3c0,0.1,0,0.2,0.1,0.3C4,37.8,4.1,37.9,4,38z M4.2,38.3
		c0-0.1,0-0.2,0-0.2c0-0.1,0-0.2,0-0.4c0-0.1,0-0.2,0-0.4c0-0.1,0-0.2-0.1-0.3c0.1-0.1,0.2-0.1,0.4-0.2c0,0.1,0,0.2,0,0.4
		c0,0.1,0,0.3,0,0.4C4.4,37.8,4.4,38.1,4.2,38.3C4.2,38.3,4.2,38.3,4.2,38.3z M3.7,44.2c-0.2-0.3-0.5-0.6-0.8-0.7c0,0,0,0,0,0
		c0,0,0,0,0,0l0,0c0.2,0.3,0.4,0.6,0.6,0.8c0.2,0.2,0.4,0.5,0.5,0.8c-0.1-0.1-0.3-0.1-0.4-0.2c-0.1-0.1-0.2-0.1-0.3-0.2
		c-0.1-0.1-0.2-0.1-0.3-0.2c-0.2-0.2-0.3-0.4-0.4-0.7c-0.1-0.1-0.1-0.2-0.1-0.4c0-0.1,0-0.1-0.1-0.2c0,0,0-0.1,0-0.1
		c0,0,0-0.1,0-0.1c0.1-0.1,0.2,0,0.3,0c0.1,0,0.2,0.1,0.4,0.2c0.2,0.2,0.5,0.3,0.7,0.5C3.9,44,4,44.3,4.1,44.6
		c0,0.1,0.1,0.3,0.1,0.4c0,0,0,0,0,0L3.7,44.2z M5.4,47.2c0.1-0.2,0.2-0.4,0.4-0.7c0.1-0.2,0.3-0.4,0.4-0.7l0,0c0,0,0,0,0,0
		c0,0,0,0,0,0c-0.2,0.2-0.4,0.3-0.6,0.6c0,0,0,0,0,0c0-0.1,0-0.1,0.1-0.2C5.7,46,5.8,45.8,6,45.6c0.1-0.1,0.2-0.2,0.3-0.3
		c0.1-0.1,0.2-0.2,0.3-0.1c0.1,0,0.1,0.2,0.1,0.3c0,0.1-0.1,0.3-0.1,0.4c-0.1,0.2-0.2,0.5-0.3,0.7c-0.2,0.2-0.4,0.4-0.6,0.6
		c-0.1,0.1-0.2,0.2-0.3,0.3c0,0-0.1,0.1-0.1,0.1C5.3,47.5,5.3,47.3,5.4,47.2z M5,45.4c-0.1,0.2-0.2,0.4-0.2,0.7
		c-0.1-0.3-0.2-0.5-0.3-0.7c0.1,0,0.2-0.1,0.3-0.1c0.1,0,0.2,0,0.3,0c0,0,0,0,0.1,0C5,45.2,5,45.3,5,45.4z M7,44.8
		c0.3,0.1,0.6,0.2,0.9,0.3c0.3,0.1,0.6,0.3,0.9,0.4c0.3,0.1,0.6,0.1,1,0c0,0,0,0,0,0c0,0,0,0,0-0.1l0,0c-0.3-0.1-0.6-0.2-0.9-0.3
		c-0.1,0-0.3-0.1-0.4-0.1C8.3,45,8.2,44.9,8,44.8c-0.1-0.1-0.3-0.2-0.4-0.2c0.3,0,0.5,0,0.8,0.1c0.2,0,0.3,0.1,0.5,0.2
		c0.1,0.1,0.3,0.2,0.5,0.2c0.3,0.1,0.5,0.2,0.7,0.3c-0.1,0-0.2,0.1-0.2,0.1c-0.2,0.1-0.4,0-0.5,0c-0.3,0-0.7,0-1-0.1
		c-0.4-0.1-0.6-0.4-1-0.5l-0.4-0.2C7,44.8,7,44.8,7,44.8z M12.1,40.7c0,0,0.1,0.1,0.1,0.1c0.1,0.1,0.1,0.2,0.1,0.4c0,0,0,0.1,0,0.1
		l0,0l0,0.1c0,0,0,0,0,0c-0.1,0-0.1,0-0.2,0c-0.1,0-0.2,0-0.3,0c-0.1,0-0.2,0.1-0.3,0.1c-0.1,0-0.1,0-0.2,0c0,0,0-0.1,0-0.2
		c0-0.1,0-0.2,0-0.3c0,0,0,0,0,0c0,0,0.1,0,0.1-0.1c0.1-0.1,0.2-0.1,0.3-0.1c0.1,0,0.2-0.1,0.3-0.1C12,40.7,12,40.7,12.1,40.7z
		 M10.4,42.4C10.4,42.4,10.4,42.4,10.4,42.4c-0.1,0-0.1-0.1-0.1-0.1c0,0-0.1-0.1-0.1-0.2C10.1,42.1,10,42,10,42c-0.2,0-0.3,0-0.4,0
		c0-0.1,0.1-0.1,0.1-0.2c0-0.2,0.1-0.3,0-0.5c0,0,0-0.1-0.1-0.1l0,0c0,0-0.1-0.1-0.1-0.1l-0.2-0.2c-0.1,0-0.1-0.1-0.2-0.1
		c0,0-0.1-0.1-0.1-0.1c0-0.1,0-0.3,0.1-0.4c0,0,0,0,0,0c0.1,0,0.2,0,0.3,0c0.1,0,0.3,0,0.4,0.2c0,0,0.1,0.1,0.1,0.1c0,0,0,0,0,0.1
		c0,0,0.1,0.1,0.1,0.1c0.1,0,0.2,0,0.2,0c0.2,0,0.3,0.1,0.4,0.1c0.1,0,0.1,0.1,0.2,0.1c0,0,0,0.1,0,0.1c0,0,0,0.1,0,0.1
		c0.1,0.1,0.1,0.3,0.1,0.5c0,0,0,0.1,0,0.1l0,0.1c0,0,0,0.1,0.1,0.1c0,0.1,0.1,0.1,0.1,0.2c0,0,0.1,0.1,0.1,0.1c-0.2,0-0.3,0-0.5,0
		c-0.1,0-0.2,0.1-0.3,0.1L10.4,42.4C10.4,42.4,10.4,42.4,10.4,42.4z M9.4,41.8c0,0.1-0.1,0.3-0.1,0.4c-0.2,0.1-0.3,0.2-0.5,0.3
		c-0.1,0.1-0.2,0.1-0.3,0.2c0-0.1,0.1-0.1,0.1-0.2c0-0.2,0.1-0.3,0.2-0.4c0.1-0.1,0.2-0.3,0.3-0.4c0.1-0.1,0.1-0.2,0.2-0.3l0,0
		l0.1,0.1l0,0c0,0,0,0,0,0C9.4,41.5,9.4,41.6,9.4,41.8z M11.3,39.6c0.1,0.1,0.1,0.2,0.2,0.4c0.1,0.2,0.3,0.3,0.4,0.4c0,0,0,0,0,0.1
		c0,0-0.1,0-0.1,0c-0.1,0-0.2,0.1-0.3,0.1c-0.1,0.1-0.2,0.1-0.3,0.1c-0.1,0-0.1,0-0.2,0.1c0,0,0,0,0,0c-0.1-0.1-0.1-0.2-0.2-0.2
		c0,0-0.1,0-0.1-0.1c0.1-0.1,0.2-0.3,0.3-0.5c0.1-0.1,0.1-0.2,0.2-0.3C11.2,39.7,11.3,39.6,11.3,39.6z M10.3,39.5
		c0,0,0.1-0.1,0.1-0.1c0,0,0,0,0,0c0.2,0.1,0.4,0.1,0.6,0.1c0.1,0,0.1,0,0.2,0c-0.1,0-0.1,0.1-0.1,0.1c-0.1,0.1-0.1,0.2-0.2,0.3
		c-0.1,0.1-0.2,0.2-0.2,0.3c0,0.1-0.1,0.1-0.1,0.2c-0.1,0-0.1,0-0.2-0.1c-0.1,0-0.2-0.1-0.2,0c0,0,0,0,0,0c0,0,0,0,0,0
		c0,0-0.1,0-0.1-0.1c0,0,0,0,0,0c0-0.1,0.1-0.1,0.1-0.2c0-0.1,0.1-0.2,0.2-0.3C10.2,39.6,10.2,39.5,10.3,39.5z M9.2,38.8
		c0.1-0.1,0.3-0.1,0.4-0.1c0.2,0,0.3,0.1,0.3,0.2c0,0.1,0.1,0.2,0.2,0.2c0,0,0,0,0,0c0,0-0.1,0.1-0.1,0.2c0,0.1-0.1,0.2-0.1,0.3
		c0,0.1-0.1,0.2-0.1,0.3c0,0-0.1,0.1-0.1,0.2c0,0,0,0,0,0C9.6,40,9.5,40,9.4,40c0,0-0.1,0-0.1,0c0-0.1,0-0.1,0-0.2
		c0-0.1,0-0.2,0.1-0.3c0.1-0.2,0.1-0.4,0.2-0.5l0,0c0,0,0,0,0-0.1c0,0-0.1,0-0.1,0c-0.1,0.2-0.2,0.4-0.2,0.5c0,0.1-0.1,0.2-0.1,0.3
		c0,0.1,0,0.1,0,0.2c-0.1,0-0.1,0-0.2,0c0-0.1,0-0.2-0.1-0.3c0,0,0-0.1,0-0.1l0,0l-0.1-0.1c0-0.1-0.1-0.2-0.2-0.2c0,0,0,0-0.1,0
		C8.8,39,9,38.8,9.2,38.8z M8.5,39.7C8.6,39.7,8.6,39.7,8.5,39.7l0.1,0.1c0,0,0,0,0,0c0,0.1,0,0.3,0,0.4c0,0.2,0.1,0.3,0.1,0.5
		c0,0.1,0.1,0.2,0.2,0.2l0.2,0.2c-0.1,0.1-0.2,0.2-0.2,0.3c-0.1,0.1-0.2,0.3-0.2,0.4c-0.1,0.1-0.1,0.3-0.2,0.4
		c-0.1,0.1-0.1,0.3-0.2,0.4c-0.1,0-0.1,0.1-0.2,0.1c0-0.3,0-0.5,0-0.8c0-0.3,0-0.6,0.1-0.9c0.1-0.3,0.1-0.6,0.2-0.9
		C8.4,40.1,8.5,39.9,8.5,39.7z M7.8,42.9L7.8,42.9c-0.1-0.3-0.1-0.5-0.1-0.8c0-0.1,0-0.3,0-0.4c0-0.1,0-0.3,0-0.5
		c0-0.3,0.1-0.6,0.2-0.9c0-0.1,0-0.1,0-0.2c0-0.1,0-0.2,0-0.2c0-0.1,0.1-0.2,0.1-0.2c0,0,0.1-0.1,0.1-0.1c0.1,0,0.1-0.1,0.1-0.1
		c0,0,0,0,0,0c-0.1,0.2-0.2,0.5-0.3,0.7c-0.1,0.3-0.1,0.6-0.2,0.9c0,0.3,0,0.6-0.1,0.9C7.8,42.3,7.8,42.6,7.8,42.9L7.8,42.9z
		 M11.4,43.3c-0.1,0.1-0.3,0.1-0.5,0.2c-0.3,0.1-0.7,0.2-1.1,0.2c0.1,0,0.2-0.1,0.2-0.1c0.2-0.1,0.4-0.2,0.6-0.3
		c0.2-0.1,0.4-0.2,0.4-0.5c0,0,0,0,0,0c0,0,0,0,0,0l0,0c-0.2,0.1-0.4,0.2-0.5,0.3c-0.1,0.1-0.2,0.1-0.3,0.2c-0.1,0-0.2,0.1-0.3,0.1
		c-0.2,0.1-0.4,0.1-0.6,0.1c-0.1,0-0.2,0-0.4,0c-0.1,0-0.2-0.1-0.4-0.1c0,0,0,0,0,0c0.1,0,0.3-0.1,0.4-0.2c0.1,0,0.1-0.1,0.2-0.1
		c0.1,0,0.1-0.1,0.2-0.1c0.1-0.1,0.3-0.2,0.3-0.4c0,0,0,0,0,0c0,0,0,0,0,0l0,0c-0.2,0.1-0.3,0.1-0.4,0.2C9.3,43,9.2,43,9.1,43.1
		l-0.4,0.1c-0.1,0-0.2,0-0.4,0.1c0,0,0,0,0,0c-0.1,0-0.2-0.1-0.2-0.1c0,0-0.1-0.1-0.1-0.1l0,0c0.1,0,0.1,0,0.2,0
		c0.1,0,0.2,0,0.3-0.1c0.2-0.1,0.4-0.1,0.6-0.3c0.2-0.1,0.3-0.2,0.5-0.3c0.2-0.1,0.3-0.2,0.5-0.1c0.1,0,0.1,0,0.1,0.1
		c0,0,0,0.1,0,0.2c0,0.1,0,0.1,0.1,0.2c0.1,0.1,0.2,0.1,0.3,0c0.1,0,0.1,0,0.2-0.1c0.1,0,0.2-0.1,0.3-0.1c0.2-0.1,0.3-0.1,0.5,0
		c0.1,0,0.2,0.1,0.2,0.3C11.6,43,11.6,43.2,11.4,43.3z M11.8,43c0-0.1,0-0.1,0-0.2c0-0.1,0-0.2-0.1-0.4c0.1,0,0.1,0,0.2,0
		c0.1,0,0.2,0,0.3,0C12.2,42.7,12,42.9,11.8,43z M12.4,42.1c0,0.1-0.1,0.2-0.1,0.2c-0.1,0-0.2,0-0.3,0c-0.1,0-0.2-0.1-0.2-0.1
		c-0.1,0-0.1,0-0.2,0c0-0.1,0-0.3-0.1-0.4c0-0.1-0.1-0.1-0.1-0.2c0,0,0,0,0.1,0c0.1-0.1,0.2,0,0.3,0c0.1,0,0.2,0,0.3,0
		c0.1,0,0.2,0,0.2,0c0,0,0,0.1,0.1,0.1c0.1,0.1,0.1,0.1,0.1,0.2C12.5,42,12.4,42.1,12.4,42.1z"/>
	<path class="st0" d="M0.1,24.7c0.3,0.1,0.5,0.1,0.8,0.1c0.3,0,0.5,0,0.8,0c0.1,0,0.3,0,0.4,0c0.1,0,0.3,0,0.4-0.1
		c0.3-0.1,0.5-0.2,0.7-0.4c0.1-0.1,0.2-0.2,0.3-0.2c0.1-0.1,0.3-0.1,0.4-0.2c0.2-0.2,0.4-0.3,0.6-0.4c0.5-0.2,0.9-0.3,1.4-0.5
		c0,0,0,0,0,0c0,0,0,0,0,0.1c0,0,0,0,0,0c0.1,0.2,0.2,0.4,0.4,0.6C6.6,23.8,6.8,23.9,7,24c0.2,0.1,0.4,0.2,0.6,0.3
		c0.1,0.1,0.2,0.1,0.3,0.1c0.1,0,0.1,0,0.2,0c0.1,0,0.1,0,0.2,0c0.1,0,0.1,0,0.2-0.1c0,0,0,0,0-0.1c0.2,0,0.5,0,0.7-0.1
		c0.1-0.1,0.2-0.2,0.3-0.3c0.1-0.1,0.1-0.3,0-0.4c0-0.1,0-0.2,0-0.3c0-0.1,0.1-0.2,0.2-0.3c0-0.1,0.1-0.1,0.1-0.2c0-0.1,0-0.2,0-0.2
		c0-0.1-0.1-0.3-0.2-0.3c-0.1-0.1-0.1-0.2-0.1-0.3c0-0.1,0-0.3-0.1-0.4c-0.1-0.1-0.1-0.3-0.3-0.3c0,0-0.1,0-0.1,0l-0.1,0
		c0,0-0.1,0-0.1-0.1c0-0.1-0.1-0.3-0.2-0.3c-0.1-0.1-0.3-0.1-0.4-0.1c-0.3,0-0.5,0.1-0.7,0.3c0,0-0.1,0-0.1,0c-0.2,0-0.3,0-0.4,0.1
		c-0.2,0.2-0.4,0.4-0.6,0.7C6.2,21.7,6,21.9,6,22.2c0,0.1-0.1,0.3-0.1,0.4c0,0,0,0.1,0,0.1c-0.2,0-0.5,0-0.7,0.1c0,0-0.1,0-0.1,0
		c0,0,0.1-0.1,0.1-0.1c0.2-0.2,0.2-0.5,0.3-0.7c0-0.1,0-0.1,0.1-0.2l0.1-0.2c0.1-0.1,0.1-0.2,0.1-0.4c0-0.3,0.1-0.5,0.1-0.8l0,0
		c0,0,0,0,0-0.1c0-0.1-0.1-0.1-0.2-0.1c-0.2,0.1-0.2,0.2-0.4,0.2c-0.1,0.1-0.3,0.1-0.4,0.2c-0.2,0.2-0.3,0.5-0.3,0.8
		c0,0.3-0.2,0.5-0.2,0.8c0,0.1,0,0.3,0,0.4c0,0.1,0,0.1,0,0.2l0,0.1c0,0,0,0,0,0.1l0,0c0,0,0,0,0,0c-0.2,0.1-0.5,0.2-0.7,0.4
		c-0.1,0-0.1,0.1-0.2,0.1c0,0.1-0.1,0.1-0.1,0.2C3.3,23.9,3.2,24,3.1,24c-0.2,0.1-0.4,0.3-0.7,0.3c-0.1,0-0.2,0-0.4,0.1
		c-0.1,0-0.2,0.1-0.4,0.1c-0.3,0-0.5,0-0.8,0c-0.3,0-0.5,0-0.8,0l0,0C0.1,24.5,0.1,24.5,0.1,24.7C0,24.6,0.1,24.7,0.1,24.7z
		 M8.4,24.2C8.3,24.2,8.3,24.2,8.4,24.2c-0.1,0.1-0.2,0.1-0.2,0.1c0,0-0.1,0-0.1,0c-0.1,0-0.2-0.1-0.3-0.1c-0.2-0.1-0.4-0.1-0.6-0.2
		c-0.2-0.1-0.3-0.3-0.5-0.4c-0.2-0.1-0.3-0.3-0.4-0.4l0,0l0,0c0.1,0.2,0.3,0.3,0.5,0.4c0.2,0.1,0.4,0.2,0.6,0.3
		c0.2,0.1,0.4,0.2,0.6,0.3C8,24.1,8.2,24.2,8.4,24.2C8.4,24.2,8.4,24.2,8.4,24.2z M7.5,21.9c0-0.1-0.1-0.1,0-0.1c0,0,0,0,0,0l0.1,0
		c0.1,0,0.1-0.1,0.2-0.1c0.1-0.1,0.2-0.2,0.2-0.3c0,0,0,0.1,0.1,0.2c0,0,0,0.1,0,0.2c0,0,0,0.1,0,0.1c0,0,0,0.1,0.1,0.1
		c0.1,0.1,0.2,0.2,0.2,0.3c0,0,0.1,0.1,0.1,0.1c0,0,0,0.1,0,0.1c0,0.1-0.1,0.2-0.1,0.3c0,0-0.1,0.1-0.1,0.2c0,0,0,0.1,0,0.1
		c0,0,0,0,0,0.1c0,0,0,0.1,0,0.1c0,0.1,0,0.2-0.1,0.3c0,0.1-0.1,0.1-0.1,0.2c0,0,0,0,0,0c-0.1-0.1-0.2-0.1-0.3-0.2
		c0-0.1-0.1-0.2-0.1-0.3l0-0.2c0-0.1,0-0.1,0-0.2c-0.1-0.1-0.2-0.2-0.3-0.2c-0.1,0-0.1,0-0.2,0c0.1-0.1,0.2-0.1,0.2-0.2
		c0,0,0-0.1,0-0.1C7.5,22,7.5,21.9,7.5,21.9z M7.4,22.6c0.1,0,0.2,0.1,0.2,0.2c0,0,0,0.1,0,0.1c-0.1,0-0.2-0.1-0.3,0
		c-0.1,0-0.2,0-0.3,0c-0.1,0-0.2,0-0.3,0c0,0-0.1,0-0.1,0c0.1,0,0.1-0.1,0.2-0.1c0.1,0,0.2-0.1,0.4-0.2C7.2,22.5,7.3,22.6,7.4,22.6z
		 M6.7,23c0.1,0,0.2,0,0.3,0.1c0.1,0,0.2,0,0.3,0.1c0.1,0,0.2,0,0.3,0l0,0.1c0,0.1,0,0.1,0.1,0.2L8,23.7c0.1,0.1,0.2,0.1,0.2,0.2
		c0,0,0,0,0,0l0,0c0,0,0,0,0,0c-0.1-0.1-0.3-0.1-0.4-0.2c-0.2-0.1-0.4-0.1-0.6-0.2c-0.2-0.1-0.4-0.2-0.6-0.3
		c-0.1-0.1-0.3-0.2-0.4-0.3c0,0,0.1,0,0.1-0.1C6.5,22.9,6.6,23,6.7,23z M9.3,23.8c-0.1,0.1-0.1,0.2-0.2,0.2
		c-0.2,0.1-0.3,0.1-0.5,0.2c0,0,0,0,0-0.1c0-0.1,0-0.1-0.1-0.2l0-0.1l0,0c0,0,0,0,0-0.1c0-0.1-0.1-0.1-0.1-0.2c0,0,0.1-0.1,0.1-0.1
		c0,0,0.1,0.1,0.1,0.1c0.1,0,0.1,0.1,0.2,0.1c0.1,0.1,0.3,0.1,0.4,0.1c0,0,0,0,0,0c0,0,0-0.1,0-0.1l0,0c-0.1-0.1-0.3-0.1-0.4-0.1
		c-0.1,0-0.1-0.1-0.2-0.1c0,0-0.1,0-0.1-0.1c0,0,0,0,0,0c0-0.1,0-0.1,0-0.2c0,0,0.1,0,0.1,0c0.1,0,0.2,0,0.2,0.1c0.1,0,0.2,0,0.2,0
		c0,0,0.1,0,0.2,0c0,0.1,0,0.1,0.1,0.2C9.4,23.6,9.4,23.7,9.3,23.8z M9.5,22.7c-0.1,0.1-0.2,0.2-0.2,0.3c0,0-0.1,0-0.1,0
		c-0.1,0-0.2,0-0.2,0c-0.1,0-0.2,0-0.2,0c-0.1,0-0.1,0-0.2,0c0,0,0-0.1,0-0.1c0,0,0,0,0,0c0,0,0,0,0,0c0,0,0.1-0.1,0.1-0.2
		c0,0,0-0.1,0-0.1c0.1,0,0.1,0,0.2,0c0.1,0,0.2,0,0.3,0C9.2,22.6,9.3,22.6,9.5,22.7c0-0.1,0-0.1,0.1-0.1C9.5,22.6,9.5,22.7,9.5,22.7
		z M9.2,21.8C9.3,21.8,9.3,21.7,9.2,21.8C9.3,21.7,9.3,21.7,9.2,21.8c0.1,0.1,0.1,0.2,0.2,0.3c0,0.1,0.1,0.2,0.1,0.3
		c0,0-0.1,0-0.1,0c-0.1,0-0.2,0-0.3,0c-0.1,0-0.3,0-0.4,0c0,0,0,0,0,0c0-0.1,0-0.1,0-0.2c0,0,0,0,0,0c0.1,0,0.1,0,0.1-0.1
		c0-0.1,0.1-0.1,0.2-0.1C9.1,21.9,9.2,21.8,9.2,21.8z M8.9,21.1L8.9,21.1c0.1,0,0.1,0,0.1,0.1c0.1,0.1,0.1,0.1,0.2,0.3
		c0,0,0,0.1,0,0.1c-0.1,0-0.1,0-0.1,0.1c0,0.1-0.1,0.1-0.2,0.2c-0.1,0.1-0.1,0.1-0.2,0.1c0,0-0.1,0-0.1,0.1c0,0,0,0,0,0
		c-0.1-0.1-0.2-0.1-0.3-0.2c0.1,0,0.1-0.1,0.1-0.1c0-0.1,0.1-0.1,0.2-0.2c0.1-0.1,0.1-0.1,0.2-0.2C8.9,21.2,8.9,21.2,8.9,21.1z
		 M8.4,20.6c0,0,0.1,0,0.1,0c0.1,0,0.2,0.1,0.2,0.2c0,0,0,0,0,0.1c-0.1,0-0.1,0.1-0.1,0.1c0,0.1-0.1,0.1-0.1,0.2
		c0,0.1-0.1,0.2-0.1,0.2c0,0,0,0-0.1,0c0,0,0-0.1,0-0.1c0-0.1-0.1-0.2-0.2-0.2c0,0,0.1-0.1,0.1-0.1c0,0,0-0.1,0.1-0.2
		C8.3,20.8,8.3,20.7,8.4,20.6z M8.2,20.6c0,0.1-0.1,0.1-0.1,0.2c0,0,0,0.1-0.1,0.1c0-0.1-0.1-0.1-0.1-0.2c0,0-0.1,0-0.1-0.1
		C7.9,20.6,8,20.6,8.2,20.6z M6.1,22.7C6.1,22.7,6.1,22.7,6.1,22.7L6.1,22.7c0.1-0.1,0.2-0.1,0.2-0.2c0.1-0.1,0.2-0.1,0.2-0.2
		c0.1-0.1,0.2-0.1,0.3-0.1c0.1,0,0.2-0.1,0.3-0.1l0,0c0,0,0,0,0,0c0,0,0,0,0,0c-0.1-0.1-0.3-0.1-0.4,0C6.7,22,6.7,22,6.6,22
		c-0.1,0-0.1,0-0.2,0.1c-0.1,0-0.2,0.1-0.3,0.2c0,0,0-0.1,0-0.1c0.1-0.1,0.2-0.2,0.3-0.3c0.1-0.1,0.2-0.2,0.3-0.3
		c0.1,0,0.1-0.1,0.2-0.1c0.1,0,0.1,0,0.2-0.1c0.1,0,0.3-0.1,0.4-0.2l0,0c0,0,0,0,0,0c0,0,0,0,0,0c-0.2-0.1-0.3,0-0.5,0
		c-0.1,0.1-0.3,0.2-0.4,0.2c0,0-0.1,0-0.1,0.1c0.1-0.2,0.3-0.4,0.5-0.5c0.1-0.1,0.2-0.2,0.3-0.2c0.1,0,0.3,0,0.3,0.1
		c0.2,0.1,0.1,0.4-0.1,0.5l-0.2,0.1c0,0-0.1,0-0.1,0.1c0,0-0.1,0.1-0.1,0.2c0,0.1,0,0.1,0.1,0.2c0,0,0.1,0.1,0.1,0.1
		c0,0.1,0.1,0.1,0,0.1c0,0.1-0.2,0.2-0.3,0.2c-0.1,0.1-0.2,0.1-0.4,0.1c-0.1,0.1-0.3,0.1-0.4,0.2c-0.1,0-0.1,0.1-0.2,0.1
		c0,0-0.1,0.1-0.1,0.1l0,0c0,0,0,0,0,0c0,0,0-0.1,0-0.1C6.1,22.8,6.1,22.7,6.1,22.7z M5.4,20.7C5.5,20.7,5.5,20.7,5.4,20.7
		C5.5,20.7,5.5,20.8,5.4,20.7C5.5,20.8,5.4,20.8,5.4,20.7c0,0.1-0.1,0.1-0.1,0.1C5.4,20.8,5.4,20.8,5.4,20.7z M5.1,22.1
		c0-0.1,0-0.2,0-0.3c0-0.1,0.1-0.2,0.1-0.3c0,0,0,0,0,0c0,0,0,0.1,0,0.1c0,0.1,0,0.3,0,0.4c0,0.1-0.1,0.2-0.1,0.3
		C5.1,22.2,5.1,22.1,5.1,22.1z M4.8,21.7c0-0.1,0.1-0.2,0.2-0.3c0,0,0,0,0,0c-0.1,0.2-0.1,0.5-0.2,0.7c0,0,0,0.1,0,0.1
		C4.8,22,4.8,21.8,4.8,21.7z"/>
	<path class="st0" d="M3.5,30.7c0.3-0.1,0.6-0.3,0.8-0.5c0.2-0.2,0.4-0.5,0.6-0.8C4.9,29.2,5,29.1,5,28.9c0-0.2-0.1-0.4-0.2-0.5
		c-0.2-0.2-0.4-0.2-0.6-0.2c0,0,0.1-0.1,0.1-0.1c0.1-0.1,0.2-0.2,0.3-0.4c0-0.1,0.1-0.3,0.2-0.4c0.1-0.1,0.1-0.3,0.1-0.4
		c0,0,0,0,0,0c0,0,0,0,0,0l0,0c-0.1,0.1-0.2,0.2-0.2,0.4c0,0.1-0.1,0.3-0.2,0.4c0,0-0.1,0.1-0.1,0.1c0,0,0-0.1,0-0.2
		c0-0.1,0-0.3,0-0.4c0-0.1-0.1-0.3-0.1-0.4c-0.1-0.1-0.2-0.2-0.3-0.3c-0.1-0.1-0.3-0.1-0.4-0.1c-0.1,0-0.3,0.1-0.4,0.1
		c0-0.1,0.1-0.2,0.2-0.3c0.1-0.1,0.1-0.2,0.2-0.3c0-0.1,0-0.3,0-0.4c0,0,0,0,0,0c0,0,0,0,0,0c-0.1,0.1-0.1,0.2-0.2,0.3
		C3,25.8,3,25.9,3,26c0,0.1-0.1,0.2-0.2,0.3c0,0,0,0.1-0.1,0.1c0-0.1,0-0.1,0-0.2c0-0.2-0.1-0.3-0.1-0.5c-0.1-0.2-0.1-0.3-0.3-0.4
		C2.2,25.2,2,25.1,1.8,25c-0.1,0-0.2,0-0.3,0l-0.1,0c-0.1,0-0.1,0-0.2,0.1C1,25.2,1,25.4,0.9,25.5c-0.2,0.3-0.3,0.6-0.3,0.9
		c-0.2,0.6-0.3,1.2-0.4,1.8C0,28.6,0,28.9,0,29.2c0,0.3,0,0.6,0.1,1c0.1,0.2,0.1,0.3,0.2,0.4c0.1,0.1,0.2,0.3,0.3,0.4
		c0.3,0.2,0.6,0.3,1,0.3C2.3,31.2,2.9,31,3.5,30.7z M1.3,30.9c0.1,0,0.1-0.1,0.2-0.1c0.1,0,0.1-0.1,0.2-0.1c0.3-0.2,0.6-0.3,0.8-0.5
		c0.3-0.2,0.5-0.3,0.8-0.5c0.3-0.2,0.5-0.4,0.7-0.6c0,0,0-0.1,0-0.1c0-0.1-0.1-0.1-0.1-0.1l0,0c-0.3,0.1-0.6,0.3-0.8,0.5
		c-0.2,0.2-0.5,0.4-0.7,0.6c-0.2,0.2-0.5,0.4-0.8,0.5c-0.2,0.1-0.4,0.2-0.6,0.3c0.2-0.2,0.4-0.4,0.5-0.6c0.2-0.3,0.5-0.6,0.7-0.9
		c0.2-0.3,0.4-0.6,0.6-0.9c0.2-0.3,0.4-0.6,0.5-1c0,0,0-0.1,0-0.1c0,0-0.1,0-0.2,0l0,0c-0.3,0.3-0.5,0.6-0.6,0.9
		c-0.2,0.3-0.4,0.6-0.6,1c-0.2,0.3-0.3,0.7-0.6,0.9c-0.2,0.2-0.4,0.4-0.5,0.6c0-0.3,0.1-0.5,0.1-0.8c0-0.4,0.1-0.8,0.3-1.1
		c0.1-0.4,0.2-0.7,0.3-1.1c0.1-0.4,0.2-0.7,0.2-1.1l0,0c0,0,0-0.1,0-0.1c-0.1,0-0.1,0-0.2,0C1.2,26.6,1.1,27,1,27.4
		c-0.1,0.4-0.2,0.8-0.3,1.1c-0.1,0.4-0.1,0.8-0.2,1.2c0,0.1-0.1,0.2-0.1,0.3c0,0.1,0,0.2,0,0.3c0,0,0,0.1,0,0.1c0-0.1,0-0.2,0-0.2
		c-0.1-1.1-0.1-2.4,0.4-3.5c0.1-0.3,0.3-0.5,0.4-0.8c0.1-0.1,0.2-0.2,0.2-0.3c0,0,0,0,0,0l0.1,0c0.1,0,0.1,0,0.2,0
		c0.1,0,0.2,0.1,0.3,0.2c0.1,0.1,0.2,0.2,0.2,0.3c0.1,0.1,0.1,0.3,0.2,0.4c0,0.1,0,0.1,0.1,0.2l0,0.1l0,0.1l0,0c0,0,0,0.1,0.1,0.1
		c0,0,0.1,0,0.1,0l0,0l0,0l0,0l0.1,0c0.1,0,0.1,0,0.2-0.1c0.1,0,0.2-0.1,0.4-0.1c0.2,0,0.4,0.1,0.5,0.3C4,27,4,27.3,4,27.5
		c-0.1,0.2-0.1,0.5-0.3,0.7l0,0c0,0,0,0,0,0.1c0,0.1,0.1,0.1,0.1,0.1c0.3,0,0.6,0,0.8,0.2c0.1,0.1,0.1,0.2,0.2,0.3
		c0,0.1-0.1,0.2-0.1,0.4c-0.2,0.2-0.4,0.4-0.6,0.6c-0.2,0.2-0.5,0.4-0.7,0.5c-0.5,0.3-1.1,0.5-1.7,0.6C1.5,30.9,1.4,30.9,1.3,30.9z"
		/>
	<path class="st0" d="M3.1,25c0,0.3,0.3,0.3,0.3,0.1C3.5,24.8,3.1,24.7,3.1,25z"/>
	<path class="st0" d="M4.7,26.6c0.2,0,0.2-0.4,0-0.4C4.6,26.3,4.6,26.6,4.7,26.6z"/>
	<path class="st0" d="M8.3,26.5C8.3,26.4,8.3,26.4,8.3,26.5c-0.1-0.1-0.2-0.1-0.2,0C8.1,26.5,8.2,26.5,8.3,26.5
		C8.2,26.6,8.3,26.5,8.3,26.5z"/>
	<path class="st0" d="M5.9,25.5C5.9,25.6,5.9,25.6,5.9,25.5c0.1,0.1,0.2,0.1,0.2,0C6.1,25.5,6.1,25.5,5.9,25.5
		C6,25.4,5.9,25.5,5.9,25.5z"/>
	<path class="st0" d="M6.5,25.2c0-0.1,0-0.1-0.1-0.2c-0.1,0-0.1,0-0.2,0.1c0,0.1,0,0.1,0.1,0.2C6.4,25.3,6.5,25.3,6.5,25.2z"/>
	<path class="st0" d="M6,25.1C6,25.1,5.9,25.1,6,25.1c-0.1,0.1-0.1,0.2,0,0.2C6,25.3,6,25.3,6,25.1C6.1,25.2,6,25.1,6,25.1z"/>
	<path class="st0" d="M8.7,26.6C8.7,26.5,8.7,26.5,8.7,26.6c-0.1-0.1-0.2-0.1-0.2,0C8.5,26.6,8.6,26.6,8.7,26.6
		C8.7,26.6,8.7,26.6,8.7,26.6z"/>
	<path class="st0" d="M7.5,25.7C7.4,25.7,7.4,25.7,7.5,25.7c-0.1,0-0.1,0-0.1,0C7.3,25.8,7.4,25.8,7.5,25.7
		C7.4,25.8,7.5,25.7,7.5,25.7z"/>
	<path class="st0" d="M8.4,27.9c0.1-0.1,0.2-0.3,0.2-0.4c0-0.1,0-0.2,0.1-0.3c0-0.1,0-0.2-0.1-0.3c-0.1-0.1-0.2-0.1-0.3-0.1
		c-0.1,0-0.2,0-0.2,0c-0.1,0-0.2,0-0.2,0.1c0,0,0-0.1,0.1-0.1C8,26.6,8,26.4,8.1,26.1l0-0.2c0,0,0-0.1,0-0.1c0-0.1-0.1-0.1-0.1-0.1
		c-0.1,0-0.1,0-0.2,0c-0.1,0-0.1,0-0.1,0c-0.1,0-0.1,0.1-0.2,0.1c-0.2,0.2-0.3,0.3-0.4,0.5c0,0,0-0.1,0-0.1c0-0.2,0.1-0.3,0-0.6
		c0-0.1-0.1-0.1-0.1-0.2c-0.1-0.1-0.2-0.1-0.2-0.1c-0.2,0-0.3,0.1-0.3,0.2c-0.1,0.2-0.2,0.3-0.3,0.5c0,0,0,0,0,0
		c0-0.1-0.1-0.2-0.1-0.3c0-0.1-0.1-0.2-0.2-0.2c-0.1-0.1-0.2-0.1-0.3-0.1c-0.1,0-0.2,0.1-0.2,0.2c0,0.1-0.1,0.2-0.1,0.2
		c-0.1,0.2-0.1,0.3-0.1,0.5c0,0.3,0,0.7,0,1c0,0.2,0,0.3,0,0.5c0,0.2,0,0.3,0.1,0.5c0.1,0.2,0.1,0.3,0.2,0.5
		c0.1,0.2,0.2,0.3,0.4,0.4c-0.2,0.5-0.5,0.9-0.9,1.2c-0.4,0.4-0.9,0.7-1.4,1c-0.2,0.1-0.5,0.3-0.7,0.5c-0.2,0.2-0.5,0.4-0.7,0.6
		c-0.4,0.4-0.8,0.9-0.9,1.5c0,0,0,0.1,0,0.1c0,0,0.1,0,0.1,0l0,0c0.1-0.2,0.3-0.5,0.4-0.7c0.2-0.2,0.4-0.4,0.6-0.6
		c0.4-0.4,0.9-0.6,1.4-0.9c0.2-0.1,0.4-0.3,0.6-0.4c0,0,0.1,0,0.1,0c0.2,0.1,0.4,0.1,0.6,0.1c0.3,0,0.5,0,0.8,0
		c0.3,0,0.5-0.1,0.8-0.2C6.9,31.1,7,31,7.1,30.9c0.1-0.1,0.2-0.2,0.2-0.4c0-0.1,0-0.1-0.1-0.2c0,0-0.1-0.1-0.1-0.1
		c-0.1,0-0.1-0.1-0.2-0.1c-0.1,0-0.3-0.1-0.4-0.1c-0.3,0-0.5,0-0.8,0.1c0,0-0.1,0-0.1,0.1c0-0.1,0.1-0.2,0.1-0.2
		c0.1-0.2,0.2-0.4,0.2-0.7c0.1,0,0.1,0,0.1,0c0,0,0,0,0.1,0c0,0,0.1,0,0.1,0c0.1,0,0.1-0.1,0.2-0.1c0.1,0,0.2,0,0.2,0
		c0.1,0,0.1-0.1,0.2-0.1c0.3-0.2,0.5-0.3,0.8-0.5c0.1-0.1,0.3-0.2,0.4-0.3C8.2,28.1,8.3,28,8.4,27.9z M5.9,30.5c0.1,0,0.2,0,0.3-0.1
		c0,0,0,0,0,0c-0.1,0.1-0.3,0.1-0.4,0.1C5.8,30.6,5.8,30.5,5.9,30.5z M6.2,30.8c0.1,0,0.2,0,0.4,0c0.1,0,0.2,0,0.3-0.1l0,0
		c0,0,0.1,0,0.1-0.1c0-0.1,0-0.1-0.1-0.1c-0.1,0-0.1,0-0.2,0c0.1,0,0.1,0,0.2,0c0.1,0,0.1,0,0.2,0c0,0,0.1,0,0.1,0
		c0,0.1-0.1,0.2-0.2,0.2c-0.1,0.1-0.2,0.1-0.3,0.2c-0.2,0.1-0.4,0.2-0.7,0.3c-0.2,0.1-0.5,0.1-0.7,0.1c-0.1,0-0.2,0-0.2-0.1
		C5.1,31,5.3,31,5.5,30.9C5.7,30.8,5.9,30.7,6.2,30.8z M5.8,29C5.8,29,5.8,29,5.8,29C5.8,29,5.8,29,5.8,29C5.8,29,5.8,29,5.8,29z
		 M5.9,28.5c0,0.1,0,0.2,0,0.2c0,0.1,0,0.2,0,0.2c0,0,0,0,0,0c-0.1-0.1-0.1-0.1-0.1-0.2c-0.1-0.1-0.1-0.3-0.1-0.4
		c0-0.2,0-0.3-0.1-0.4c-0.1-0.1-0.1-0.3-0.1-0.5c0-0.3,0-0.6,0-0.9l0-0.5c0-0.1,0-0.1,0-0.2c0-0.1,0.1-0.1,0.1-0.1
		c0.1,0,0.2,0.1,0.2,0.3c0,0.1,0,0.3,0.1,0.4c0,0.2,0,0.3,0.1,0.5C5.9,27,6,27.1,6,27.3c0,0.3,0,0.6-0.1,0.9
		C5.9,28.3,5.9,28.4,5.9,28.5z M7,27.1c0,0,0-0.1,0.1-0.2c0-0.1,0-0.1,0-0.2c0-0.1,0.1-0.2,0.2-0.3c0.1-0.2,0.2-0.3,0.4-0.4
		c0,0,0.1,0,0.1,0c0,0,0,0,0,0c0,0,0,0,0,0c0,0,0-0.1,0,0c0,0,0,0.1,0,0.1c0,0.2-0.1,0.4-0.2,0.6c-0.1,0.2-0.1,0.3-0.2,0.5
		c-0.2,0.1-0.3,0.3-0.5,0.4c-0.1,0.1-0.2,0.1-0.3,0.2c0-0.1,0-0.1,0.1-0.2C6.8,27.5,6.9,27.3,7,27.1z M6.2,27.1
		c0.1-0.3,0.2-0.6,0.3-0.9c0-0.2,0.1-0.3,0.2-0.4c0,0,0.1-0.1,0.1-0.1c0,0,0,0,0,0c0,0.1,0.1,0.3,0,0.4c0,0.2,0,0.3-0.1,0.5
		c-0.1,0.3-0.2,0.6-0.2,0.9c0,0,0,0,0,0.1c0,0.1-0.1,0.2-0.2,0.3c0,0,0,0,0,0.1c0-0.2,0-0.4,0-0.7C6.2,27.2,6.2,27.1,6.2,27.1z
		 M7.8,28c-0.1,0.1-0.2,0.2-0.3,0.3c-0.2,0.2-0.5,0.3-0.8,0.4c-0.1,0-0.1,0.1-0.2,0.1c-0.1,0-0.1,0.1-0.2,0.1c0,0-0.1,0-0.1,0.1
		c0,0,0-0.1,0.1-0.1c0.1-0.1,0.2-0.2,0.3-0.3c0.1-0.1,0.2-0.2,0.3-0.3C6.9,28,7,27.9,7.1,27.8c0.2-0.2,0.5-0.3,0.7-0.5l0.4-0.2
		C8.3,27,8.3,27,8.4,27c0.1,0,0.1,0,0.1,0c0,0.1,0,0.2-0.1,0.3c-0.1,0.1-0.2,0.2-0.3,0.3C8,27.8,7.9,27.8,7.8,28z"/>
	<path class="st0" d="M3.9,21.5c0,0.1,0,0.2,0.1,0.2c0.1,0,0.2,0,0.2-0.1c0-0.1,0-0.2-0.1-0.2C4,21.3,3.9,21.4,3.9,21.5z"/>
	<path class="st0" d="M2,14.3c0,0-0.1,0.1,0,0.1C2.1,14.5,2,14.3,2,14.3z"/>
	<path class="st0" d="M2.3,14.6c0.1,0,0.1-0.1,0-0.2C2.3,14.4,2.2,14.6,2.3,14.6z"/>
	<path class="st0" d="M2.6,15.2c0.1,0,0.1-0.2,0-0.2C2.6,15,2.5,15.2,2.6,15.2z"/>
	<path class="st0" d="M7.2,10.8C7.1,10.8,7.1,10.8,7.2,10.8C7.1,10.8,7.1,10.8,7.2,10.8c-0.1-0.2-0.1-0.3-0.1-0.5
		c0-0.1-0.1-0.3-0.2-0.4C6.7,9.9,6.6,9.8,6.4,9.7c-0.1,0-0.3,0-0.4,0C6,9.5,5.9,9.4,5.7,9.3C5.6,9.2,5.6,9.1,5.5,9.1
		C5.4,9,5.3,9,5.2,9C5,9,4.8,9,4.6,9.1c-0.2,0-0.3,0.1-0.5,0.2C4,9.2,4,9.1,3.9,9.1C3.7,9,3.6,8.9,3.5,8.9c-0.1,0-0.3,0-0.4,0
		C3,9,2.8,9,2.7,9.1C2.5,9.2,2.3,9.3,2.1,9.5C2,9.7,1.8,9.9,1.7,10.1c0,0-0.1,0-0.1,0.1c-0.1,0.1-0.1,0.2-0.1,0.2
		c-0.1,0.3-0.1,0.6,0,0.9c0,0.3,0.1,0.6,0.2,0.9c0.1,0.3,0.2,0.6,0.4,0.8c0.2,0.2,0.4,0.5,0.6,0.7C3,14.2,3.5,14.5,4,14.7
		c0.1,0.1,0.1,0.1,0.2,0.1c-0.1,0.4-0.1,0.8-0.1,1.1C4,16.3,4,16.8,4,17.2c0,0.2-0.1,0.4-0.1,0.7c-0.1-0.2-0.2-0.4-0.4-0.6
		c-0.1-0.2-0.2-0.4-0.4-0.5c-0.1-0.1-0.2-0.1-0.3-0.2c-0.1,0-0.1-0.1-0.2-0.1c0-0.2,0-0.4-0.1-0.5c0,0,0-0.1,0-0.1
		c0,0,0-0.1,0.1-0.1c0-0.1,0-0.1,0-0.2c0-0.1,0-0.1,0-0.2c0-0.1,0-0.1-0.1-0.2c0,0,0,0,0,0l0,0c-0.1,0.1-0.1,0.1-0.1,0.2
		c0,0.1,0,0.1,0,0.2c0,0,0,0.1,0,0.1c0-0.1-0.1-0.1-0.1-0.2l0-0.1c0-0.1,0-0.2,0-0.3c0-0.1,0-0.1,0-0.2c0-0.1,0-0.1,0-0.2
		c0,0,0,0,0,0c0,0,0,0,0,0c-0.1,0.1-0.1,0.1-0.1,0.2c0,0.1,0,0.1,0,0.2c0,0,0,0,0,0.1c0,0,0-0.1,0-0.1C2,14.8,2,14.7,2,14.5l0,0
		c0,0,0,0,0,0c0,0,0,0,0,0c-0.2,0.2-0.2,0.4-0.1,0.6c0,0.1,0.1,0.2,0.2,0.3c0.1,0.1,0.1,0.1,0.1,0.2c0.1,0.2,0.1,0.3,0.2,0.5
		c0.1,0.1,0.1,0.2,0.2,0.3c-0.2-0.1-0.4-0.2-0.5-0.3C2,16,1.9,16,1.8,15.9c-0.1,0-0.2-0.1-0.3-0.1c-0.2-0.1-0.3-0.3-0.4-0.4
		C1,15.2,0.9,15,0.8,14.8l0,0c0,0,0,0-0.1,0c0,0,0,0,0,0.1c0,0.2,0.1,0.4,0.3,0.6c0.1,0.2,0.3,0.3,0.5,0.4c0.1,0.1,0.2,0.2,0.2,0.2
		c0.1,0.1,0.2,0.1,0.3,0.2c0.2,0.1,0.4,0.2,0.6,0.3c0.1,0,0.2,0.1,0.3,0.2c0,0,0.1,0.1,0.1,0.1c0,0,0.1,0.1,0.1,0.1
		c0.2,0.1,0.3,0.3,0.4,0.4c0.1,0.2,0.2,0.4,0.3,0.5c0.1,0.1,0.1,0.3,0.1,0.4c0,0.1,0,0.1,0,0.2c-0.1,0.2-0.1,0.4-0.1,0.6
		c0,0.1,0,0.2-0.1,0.3l-0.1,0.3c-0.1,0.2-0.1,0.4-0.2,0.6c-0.1,0.2-0.1,0.4-0.2,0.6c-0.1,0.2-0.2,0.4-0.2,0.6c0,0.1,0,0.1-0.1,0.2
		c0,0,0-0.1,0-0.1c0-0.2,0.1-0.4,0-0.6c0-0.4-0.1-0.9-0.3-1.3c-0.2-0.4-0.3-0.8-0.6-1.2c-0.1-0.2-0.3-0.3-0.4-0.5
		c-0.1-0.1-0.2-0.2-0.2-0.2c0,0-0.1-0.1-0.1-0.1c0,0-0.1,0-0.1,0c0,0-0.1,0-0.1,0c0,0,0,0.1,0,0.1l0,0c0,0,0,0.1,0,0.1
		c0,0.1,0,0.1,0,0.2c0,0.1,0,0.2,0,0.3c0,0.2,0,0.4,0,0.6c0,0.4,0.2,0.8,0.3,1.2c0.1,0.2,0.1,0.4,0.2,0.6c0.1,0.2,0.2,0.4,0.3,0.6
		c0.2,0.3,0.5,0.6,0.9,0.9c-0.2,0.3-0.4,0.6-0.6,0.9c-0.3,0.3-0.5,0.7-0.8,0.9l0,0c0,0,0,0,0,0.1c0,0,0,0,0.1,0
		c0.4-0.2,0.7-0.6,0.9-0.9c0.2-0.3,0.4-0.6,0.6-1c0,0,0,0,0.1-0.1c0,0,0,0,0-0.1c0,0,0,0,0-0.1C2.8,22,3,21.8,3.1,21.6
		c0.1-0.1,0.1-0.3,0.2-0.5c0,0,0,0,0-0.1c0.2-0.1,0.4-0.2,0.6-0.2c0.2-0.1,0.5-0.2,0.7-0.3c0.4-0.3,0.7-0.7,1-1.1
		c0.3-0.4,0.6-0.8,0.8-1.2c0.1-0.2,0.2-0.5,0.3-0.7c0-0.1,0.1-0.2,0.1-0.4c0-0.1,0-0.3-0.1-0.4c0,0,0,0-0.1,0l0,0c0,0,0,0,0,0
		c0,0-0.1,0-0.1,0c-0.1,0-0.1,0.1-0.2,0.1C6.2,16.9,6.1,17,6,17.1c-0.2,0.1-0.4,0.3-0.6,0.4c-0.4,0.3-0.6,0.7-0.9,1
		c-0.1,0.2-0.3,0.4-0.4,0.6c-0.1,0.2-0.2,0.4-0.3,0.6l0.1-0.5c0.1-0.2,0.1-0.4,0.2-0.6l0.2-1.3c0-0.1,0-0.2,0-0.3
		c0-0.1,0.1-0.2,0.1-0.2c0.1,0,0.2-0.1,0.3-0.1c0.1,0,0.3,0,0.4-0.1c0.1-0.1,0.2-0.2,0.3-0.2c0.1-0.1,0.2-0.2,0.2-0.3
		c0.1-0.2,0.3-0.4,0.4-0.6C6,15.2,6,15.1,6,14.9c0-0.1,0.1-0.2,0-0.4c0,0-0.1,0-0.1,0l0,0l0,0l-0.1,0c-0.1,0-0.1,0-0.2,0
		c-0.1,0-0.2,0.1-0.3,0.1C5,14.8,4.8,15,4.7,15.2c-0.1,0.1-0.2,0.2-0.2,0.3c-0.1,0.1-0.1,0.2-0.1,0.3c0-0.3,0-0.7,0-1
		c0,0,0.1,0,0.1,0c0.1,0,0.3-0.1,0.4-0.1c0.3-0.1,0.4-0.3,0.7-0.5c0.2-0.2,0.4-0.3,0.6-0.5c0.2-0.2,0.3-0.4,0.5-0.6
		c0.1-0.2,0.3-0.5,0.4-0.7c0.1-0.2,0.1-0.5,0.2-0.8C7.2,11.4,7.2,11.1,7.2,10.8z M2.6,22c-0.1-0.2-0.1-0.4-0.2-0.5
		c-0.1-0.2-0.2-0.5-0.3-0.7c-0.1-0.3-0.1-0.5-0.2-0.8c-0.1-0.2-0.2-0.5-0.3-0.7c0,0,0,0,0,0c0,0,0,0,0,0c0,0.3,0.1,0.5,0.1,0.8
		c0.1,0.3,0.2,0.5,0.3,0.7C2,21,2.1,21.2,2.2,21.5c0.1,0.2,0.1,0.4,0.3,0.5c-0.2-0.2-0.4-0.4-0.6-0.7c-0.1-0.2-0.2-0.4-0.3-0.5
		c-0.1-0.2-0.2-0.4-0.3-0.5c-0.1-0.4-0.2-0.8-0.2-1.2L1,18.4c0-0.1,0-0.2,0-0.3C1,18,1,18,1,17.9c0,0,0-0.1,0-0.1l0,0c0,0,0,0,0,0
		c0,0,0.1,0,0.1,0c0,0,0.1,0.1,0.1,0.1c0.1,0.1,0.1,0.2,0.2,0.2c0.1,0.2,0.2,0.3,0.3,0.5c0.2,0.4,0.5,0.7,0.6,1.1
		c0.2,0.4,0.2,0.8,0.2,1.2c0,0.2,0.1,0.4,0,0.6C2.6,21.8,2.6,21.9,2.6,22z M6.2,17.5C6.2,17.5,6.2,17.5,6.2,17.5
		c-0.2,0.1-0.4,0.2-0.6,0.4c-0.2,0.1-0.3,0.3-0.4,0.5c-0.1,0.1-0.2,0.1-0.3,0.2c-0.1,0.1-0.2,0.1-0.2,0.2c-0.1,0.2-0.3,0.3-0.4,0.5
		c-0.1,0.1-0.1,0.2-0.2,0.3C4.1,19.6,4,19.7,4,19.8c-0.1,0.1-0.2,0.3-0.3,0.4c0.1-0.1,0.1-0.2,0.2-0.3c0.1-0.2,0.2-0.4,0.3-0.6
		c0.1-0.2,0.2-0.4,0.4-0.6c0.3-0.4,0.6-0.7,0.9-1c0.2-0.2,0.3-0.3,0.5-0.5C6.1,17.1,6.2,17,6.3,17c0,0,0.1-0.1,0.1-0.1
		c0,0,0.1,0,0.1,0c0,0,0,0,0,0l0,0c0,0.1,0,0.2,0,0.3c0,0.1-0.1,0.2-0.1,0.3c-0.1,0.2-0.2,0.4-0.3,0.6c-0.2,0.4-0.4,0.9-0.7,1.2
		c-0.3,0.4-0.6,0.7-1,1c-0.2,0.1-0.4,0.3-0.6,0.4c-0.1,0.1-0.2,0.1-0.4,0.1c0.1-0.1,0.2-0.3,0.3-0.5c0.1-0.2,0.3-0.3,0.4-0.5
		c0.1-0.1,0.1-0.2,0.2-0.3c0.1-0.1,0.1-0.2,0.2-0.2C4.7,19.3,4.8,19.1,5,19c0.1-0.1,0.2-0.1,0.2-0.2c0.1-0.1,0.1-0.2,0.2-0.3
		c0.1-0.2,0.3-0.3,0.5-0.4C6,17.9,6.1,17.8,6.2,17.5C6.2,17.6,6.3,17.6,6.2,17.5z M4.5,16.4c0.1-0.2,0.2-0.4,0.3-0.6
		c0.1-0.2,0.3-0.4,0.4-0.5c0.2-0.1,0.3-0.3,0.5-0.5l0,0c0,0,0,0,0,0c0,0,0,0,0,0c-0.2,0.1-0.4,0.2-0.6,0.4c-0.2,0.2-0.3,0.4-0.5,0.5
		c0,0,0,0,0,0c0-0.1,0-0.1,0.1-0.2c0-0.1,0.1-0.2,0.1-0.3c0.1-0.2,0.3-0.3,0.5-0.4l0.3-0.2c0.1,0,0.1,0,0.2-0.1c0,0,0.1,0,0.1,0l0,0
		c0,0.1,0,0.2-0.1,0.3c0,0.1-0.1,0.2-0.2,0.3c-0.1,0.2-0.2,0.4-0.3,0.6c-0.1,0.2-0.3,0.3-0.5,0.4C4.8,16.3,4.7,16.4,4.5,16.4
		C4.5,16.5,4.5,16.5,4.5,16.4C4.5,16.5,4.5,16.5,4.5,16.4z M6.5,10.1L6.5,10.1C6.5,10.1,6.5,10.1,6.5,10.1C6.5,10,6.5,10,6.5,10.1
		c0.1,0,0.1,0,0.2,0c0.1,0.1,0.2,0.2,0.2,0.3c0,0.1,0.1,0.2,0.1,0.3c0,0,0,0-0.1,0c-0.1,0-0.1,0.1-0.2,0.1c0,0,0,0,0,0
		c0-0.1-0.1-0.2-0.2-0.3c-0.1-0.1-0.1-0.1-0.2-0.1c0,0,0,0,0-0.1C6.4,10.2,6.4,10.2,6.5,10.1z M6.6,11c0,0-0.1,0.1-0.1,0.1
		C6.4,11,6.3,11,6.1,11c-0.1,0-0.3,0-0.4,0c-0.3,0.1-0.5,0.2-0.7,0.4c-0.2,0.2-0.4,0.4-0.6,0.6c0-0.1-0.1-0.2-0.1-0.3
		c-0.1-0.2-0.2-0.3-0.4-0.4c-0.2-0.1-0.3-0.2-0.5-0.2c-0.1,0-0.3,0-0.4,0C3,11,3.1,11,3.2,10.9c0.1-0.1,0.2-0.2,0.3-0.2
		c0.1-0.1,0.2-0.1,0.4-0.1c0.1,0,0.1,0.1,0.2,0.1c0.1,0,0.1,0,0.2,0l0.1,0c0,0,0.1,0,0.1,0c0-0.1,0.1-0.1,0.2-0.1
		c0.1,0,0.1-0.1,0.2-0.1c0.1,0,0.1,0,0.2,0C5,10.5,5,10.6,5,10.7l0,0l0,0c0.1,0.1,0.2,0.1,0.2,0c0.1-0.1,0.2-0.2,0.3-0.2
		c0.1,0,0.3-0.1,0.4,0c0.1,0.1,0.2,0.1,0.3,0.2C6.4,10.8,6.5,10.9,6.6,11z M4.2,9.5c0.1-0.1,0.3-0.2,0.5-0.2c0.2-0.1,0.4-0.1,0.5,0
		c0.1,0,0.1,0,0.2,0.1c0.1,0,0.2,0.1,0.2,0.1c0.1,0.1,0.3,0.2,0.3,0.4l0,0c0,0,0,0.1,0.1,0.1c0.1,0,0.3,0,0.4,0.1c0,0,0,0,0,0
		c-0.1,0-0.2,0.1-0.2,0.2c0,0-0.1,0.1-0.1,0.1c0,0-0.1,0-0.1,0c-0.2,0-0.3,0-0.5,0c-0.1,0-0.1,0-0.1,0c0-0.1,0-0.1,0.1-0.2
		C5.5,10,5.6,9.8,5.6,9.6c0,0,0-0.1,0-0.1c0,0-0.1,0-0.1,0C5.4,9.7,5.3,9.9,5.3,10c0,0.1-0.1,0.2-0.1,0.2c0,0,0,0.1,0,0.1
		c0,0-0.1,0-0.1-0.1c-0.1,0-0.1-0.1-0.2-0.1c0,0,0-0.1,0-0.1c0-0.1,0-0.2,0-0.2C4.9,9.7,5,9.5,5,9.4l0,0c0,0,0-0.1,0-0.1
		c0,0-0.1,0-0.1,0C4.8,9.5,4.7,9.6,4.7,9.8c0,0.1,0,0.2,0,0.3c0,0,0,0.1,0,0.1c-0.1,0-0.2,0-0.3,0.1c0,0-0.1,0-0.1,0c0,0,0,0,0,0
		c0-0.1-0.1-0.2-0.1-0.3C4.2,9.8,4.2,9.7,4.2,9.5C4.1,9.5,4.1,9.5,4.2,9.5C4.1,9.5,4.1,9.5,4.2,9.5z M2.2,9.6
		c0.2-0.2,0.3-0.4,0.5-0.5C2.9,9.1,3,9.1,3.1,9.1c0.1,0,0.2,0.1,0.3,0.1c0.1,0,0.2,0.1,0.3,0.1C3.9,9.3,4,9.4,4,9.5l0,0c0,0,0,0,0,0
		c0,0,0,0,0,0c0,0-0.1,0-0.1,0.1C4,9.7,4,9.9,4.1,10.1c0,0.1,0,0.2,0,0.3c0,0,0,0,0,0c0,0,0,0,0,0c-0.1,0-0.2,0-0.2,0
		c-0.1,0-0.2,0-0.2,0.1c0,0,0,0,0,0l-0.1-0.2c0-0.1-0.1-0.2-0.1-0.3c0-0.2-0.1-0.4-0.2-0.6c0,0,0,0-0.1,0c0,0-0.1,0-0.1,0.1
		c0,0.2,0.1,0.4,0.1,0.6c0,0.1,0,0.2,0.1,0.3c0,0.1,0.1,0.1,0.1,0.2c0,0,0,0,0,0c-0.1,0-0.2,0.1-0.3,0.2C3,10.6,3,10.5,3,10.5
		c-0.1-0.1-0.1-0.2-0.2-0.3C2.7,10,2.6,9.8,2.4,9.7c0,0-0.1,0-0.1,0C2.3,9.6,2.3,9.7,2.2,9.6c0.1,0.3,0.3,0.5,0.4,0.7
		c0.1,0.1,0.1,0.2,0.2,0.3c0,0.1,0.1,0.1,0.2,0.2c-0.1,0.1-0.1,0.2-0.1,0.2c-0.1-0.2-0.3-0.4-0.5-0.6c-0.1-0.1-0.2-0.2-0.4-0.3
		c0,0,0,0-0.1,0C2,9.9,2.1,9.8,2.2,9.6z M4,13.5c0-0.1,0-0.2,0-0.3c0-0.2,0-0.3,0-0.5c0-0.2,0-0.3-0.1-0.5c0,0,0,0,0,0
		c0,0-0.1,0-0.1,0c-0.1,0.2-0.1,0.3,0,0.5c0,0.2,0,0.3,0.1,0.5c0,0.2,0.1,0.3,0.1,0.5c0,0.1,0,0.2,0,0.3c0-0.1-0.1-0.1-0.1-0.2
		c-0.1-0.2-0.2-0.5-0.2-0.7c-0.1-0.2-0.1-0.5-0.2-0.7c0-0.2-0.1-0.5-0.2-0.7l0,0c0,0,0,0-0.1,0c0,0-0.1,0-0.1,0.1
		c0,0.3,0,0.5,0.1,0.8c0.1,0.2,0.1,0.5,0.2,0.7c0.1,0.2,0.2,0.5,0.3,0.7c0,0.1,0.1,0.2,0.1,0.2c0,0-0.1-0.1-0.1-0.1
		c-0.2-0.2-0.3-0.4-0.4-0.6C3,13.2,2.9,13,2.8,12.7c-0.1-0.2-0.2-0.5-0.3-0.7l0,0c0,0,0,0-0.1,0c0,0-0.1,0-0.1,0.1
		c0,0.3,0.1,0.5,0.2,0.8c0.1,0.2,0.2,0.5,0.4,0.7c0.2,0.2,0.3,0.4,0.5,0.6c0,0.1,0.1,0.1,0.2,0.2c-0.3-0.2-0.6-0.4-0.8-0.7
		c-0.1-0.1-0.2-0.2-0.3-0.3c-0.1-0.1-0.2-0.2-0.2-0.4c-0.1-0.3-0.2-0.5-0.4-0.8c-0.1-0.3-0.2-0.6-0.2-0.8c0-0.1-0.1-0.3-0.1-0.4
		c0-0.1,0-0.3,0.1-0.4c0-0.1,0.1-0.1,0.1-0.1c0,0,0,0,0.1,0c0.1,0,0.2,0.1,0.3,0.2c0.2,0.2,0.4,0.4,0.6,0.7c0,0,0,0,0.1,0l0,0
		c0.2,0,0.3,0,0.5,0.1c0.2,0,0.3,0.1,0.5,0.2c0.1,0.1,0.3,0.2,0.4,0.3c0.1,0.1,0.2,0.2,0.2,0.4c-0.1,0.2-0.2,0.4-0.3,0.7
		C4,13.1,4,13.3,4,13.5z M5.4,14.1c-0.1,0.1-0.2,0.1-0.3,0.2c0.2-0.2,0.4-0.3,0.6-0.5c0.2-0.2,0.4-0.4,0.5-0.6
		C6.1,13.5,5.8,13.9,5.4,14.1z M7,11.2c0,0.1,0,0.2-0.1,0.4c-0.1,0.2-0.2,0.5-0.3,0.7c0,0.1-0.1,0.2-0.1,0.3c0-0.1,0-0.1,0-0.2
		c0,0,0,0,0-0.1c0,0-0.1,0-0.1,0l0,0c-0.1,0.2-0.3,0.4-0.4,0.7c-0.1,0.2-0.3,0.4-0.5,0.6C5.4,13.8,5.3,14,5,14.2
		c-0.1,0-0.1,0.1-0.2,0.1c0,0,0.1-0.1,0.1-0.1c0.2-0.2,0.3-0.5,0.5-0.7c0.2-0.2,0.3-0.5,0.4-0.8c0.1-0.3,0.2-0.6,0.1-0.9
		c0,0,0,0,0-0.1c0,0-0.1,0-0.1,0l0,0c-0.1,0.3-0.2,0.5-0.2,0.8c-0.1,0.3-0.2,0.5-0.3,0.8C5.1,13.6,5,13.9,4.8,14
		c-0.1,0.1-0.2,0.2-0.3,0.3c0-0.1,0.1-0.1,0.1-0.2c0-0.2,0.2-0.4,0.2-0.5c0.1-0.2,0.1-0.4,0.2-0.6C5,12.9,5,12.7,5,12.5c0,0,0,0,0,0
		c0,0-0.1,0-0.1,0l0,0c-0.1,0.2-0.1,0.4-0.1,0.6c0,0.2-0.1,0.4-0.1,0.6c0,0.2-0.1,0.4-0.2,0.5c-0.1,0.1-0.2,0.2-0.2,0.4
		c0-0.2,0-0.5,0-0.7c0-0.3,0.1-0.6,0.2-0.8c0.1-0.3,0.2-0.5,0.3-0.8c0.1-0.2,0.3-0.5,0.5-0.7c0.1-0.1,0.2-0.1,0.3-0.2
		c0.1-0.1,0.2-0.1,0.3-0.1c0.1,0,0.2,0,0.4,0c0.1,0,0.2,0,0.3,0.1l0,0c0,0,0.1,0,0.1,0c0.1-0.1,0.2-0.2,0.2-0.3c0,0,0.1-0.1,0.1-0.1
		c0,0,0,0,0,0c0,0,0,0,0,0c0,0,0,0,0,0C7.1,11,7,11.1,7,11.2z"/>
</g>
</svg>
