<?xml version="1.0" encoding="utf-8"?>
<!-- Generator: Adobe Illustrator 22.1.0, SVG Export Plug-In . SVG Version: 6.00 Build 0)  -->
<svg version="1.1" id="レイヤー_1" xmlns="http://www.w3.org/2000/svg" xmlns:xlink="http://www.w3.org/1999/xlink" x="0px"
	 y="0px" viewBox="0 0 217.7 69.6" style="enable-background:new 0 0 217.7 69.6;" xml:space="preserve">
<style type="text/css">
	.st0{fill:#E2807E;}
</style>
<g>
	<g>
		<g>
			<path class="st0" d="M46.5,48.7c1.2,0,2.3,0.2,3.5,0.7l46.4,18.1c4.1,1.6,8.8-0.4,10.4-4.6c1.6-4.1-0.4-8.8-4.6-10.4l0.6-1.4
				c4.9,1.9,7.3,7.5,5.4,12.4c-1.9,4.9-7.5,7.3-12.4,5.4L49.4,50.8c-4.1-1.6-8.8,0.4-10.4,4.6c-1.6,4.1,0.4,8.8,4.6,10.4l-0.6,1.4
				c-2.4-0.9-4.2-2.7-5.3-5.1c-1-2.3-1.1-4.9-0.2-7.3C39.1,51.1,42.7,48.7,46.5,48.7z"/>
		</g>
		<g>
			<path class="st0" d="M100,53c-0.4,1,0.1,2.2,1.1,2.6c1,0.4,2.2-0.1,2.6-1.1c0.4-1-0.1-2.2-1.1-2.6C101.5,51.5,100.3,52,100,53z"
				/>
			<path class="st0" d="M101.8,51L101.8,51c0.3,0,0.7,0.1,1,0.2c0.7,0.3,1.2,0.8,1.5,1.4c0.3,0.7,0.3,1.4,0,2.1
				c-0.4,1.1-1.4,1.7-2.6,1.7c-0.3,0-0.7-0.1-1-0.2c-0.7-0.3-1.2-0.8-1.5-1.4c-0.3-0.7-0.3-1.4,0-2.1C99.7,51.6,100.7,51,101.8,51z
				 M101.8,54.9c0.5,0,0.9-0.3,1.1-0.8c0.1-0.3,0.1-0.6,0-0.9c-0.1-0.3-0.4-0.5-0.7-0.6c-0.6-0.2-1.3,0.1-1.6,0.7
				c-0.1,0.3-0.1,0.6,0,0.9c0.1,0.3,0.4,0.5,0.7,0.6C101.5,54.9,101.6,54.9,101.8,54.9z"/>
		</g>
		<g>
			<path class="st0" d="M42.2,63.9c0.4-1,1.5-1.5,2.6-1.1c1,0.4,1.5,1.5,1.1,2.5c-0.4,1-1.5,1.5-2.6,1.1
				C42.3,66.1,41.8,64.9,42.2,63.9z"/>
			<path class="st0" d="M44,61.9c0.3,0,0.7,0.1,1,0.2c1.4,0.6,2.1,2.1,1.6,3.5c-0.4,1.1-1.4,1.7-2.5,1.7c-0.3,0-0.7-0.1-1-0.2
				c-1.4-0.5-2.1-2.1-1.6-3.5C41.9,62.6,42.9,61.9,44,61.9z M44,65.8c0.5,0,0.9-0.3,1.1-0.8c0.2-0.6-0.1-1.3-0.7-1.6
				c-0.6-0.2-1.3,0.1-1.6,0.7c-0.2,0.6,0.1,1.3,0.7,1.6C43.8,65.8,43.9,65.8,44,65.8z"/>
		</g>
	</g>
	<g>
		<g>
			<path class="st0" d="M171.2,48.7c-1.2,0-2.3,0.2-3.5,0.7l-46.4,18.1c-4.1,1.6-8.8-0.4-10.4-4.6c-1.6-4.1,0.4-8.8,4.6-10.4
				l-0.6-1.4c-4.9,1.9-7.3,7.5-5.4,12.4c1.9,4.9,7.5,7.3,12.4,5.4l46.4-18.1c4.1-1.6,8.8,0.4,10.4,4.6c1.6,4.1-0.4,8.8-4.6,10.4
				l0.6,1.4c2.4-0.9,4.2-2.7,5.3-5.1c1-2.3,1.1-4.9,0.2-7.3C178.6,51.1,175,48.7,171.2,48.7z"/>
		</g>
		<g>
			<path class="st0" d="M117.8,53c0.4,1-0.1,2.2-1.1,2.6c-1,0.4-2.2-0.1-2.6-1.1c-0.4-1,0.1-2.2,1.1-2.6
				C116.2,51.5,117.4,52,117.8,53z"/>
			<path class="st0" d="M118.5,52.7c0.3,0.7,0.3,1.4,0,2.1c-0.3,0.7-0.8,1.2-1.5,1.4c-0.3,0.1-0.7,0.2-1,0.2c-1.1,0-2.1-0.7-2.6-1.7
				c-0.3-0.7-0.2-1.4,0-2.1c0.3-0.7,0.8-1.2,1.5-1.4c0.3-0.1,0.7-0.2,1-0.2l0,0C117.1,51,118.1,51.6,118.5,52.7z M116.4,54.8
				c0.3-0.1,0.5-0.3,0.7-0.6c0.1-0.3,0.1-0.6,0-0.9c-0.2-0.6-0.9-0.9-1.6-0.7c-0.3,0.1-0.5,0.3-0.7,0.6c-0.1,0.3-0.1,0.6,0,0.9
				c0.2,0.5,0.6,0.8,1.1,0.8C116.1,54.9,116.2,54.9,116.4,54.8z"/>
		</g>
		<g>
			<path class="st0" d="M175.5,63.9c-0.4-1-1.5-1.5-2.6-1.1c-1,0.4-1.5,1.5-1.1,2.5c0.4,1,1.5,1.5,2.6,1.1
				C175.4,66.1,175.9,64.9,175.5,63.9z"/>
			<path class="st0" d="M176.2,63.6c0.5,1.4-0.1,3-1.6,3.5c-0.3,0.1-0.7,0.2-1,0.2c-1.1,0-2.1-0.7-2.5-1.7c-0.5-1.4,0.1-3,1.6-3.5
				c0.3-0.1,0.7-0.2,1-0.2C174.8,61.9,175.8,62.6,176.2,63.6z M174.1,65.8c0.6-0.2,0.9-0.9,0.7-1.6c-0.2-0.6-1-0.9-1.6-0.7
				c-0.6,0.2-0.9,0.9-0.7,1.6c0.2,0.5,0.6,0.8,1.1,0.8C173.8,65.8,174,65.8,174.1,65.8z"/>
		</g>
	</g>
</g>
<g>
	<g>
		<g>
			<path class="st0" d="M171.2,20.8c-1.2,0-2.3-0.2-3.5-0.7L121.3,2.1c-4.1-1.6-8.8,0.4-10.4,4.6c-1.6,4.1,0.4,8.8,4.6,10.4
				l-0.6,1.4c-4.9-1.9-7.3-7.5-5.4-12.4c1.9-4.9,7.5-7.3,12.4-5.4l46.4,18.1c4.1,1.6,8.8-0.4,10.4-4.6c1.6-4.1-0.4-8.8-4.6-10.4
				l0.6-1.4c2.4,0.9,4.2,2.7,5.3,5.1c1,2.3,1.1,4.9,0.1,7.3C178.6,18.5,175,20.8,171.2,20.8z"/>
		</g>
		<g>
			<path class="st0" d="M117.8,16.6c0.4-1-0.1-2.2-1.1-2.6c-1-0.4-2.2,0.1-2.6,1.1c-0.4,1,0.1,2.2,1.1,2.5
				C116.2,18.1,117.4,17.6,117.8,16.6z"/>
			<path class="st0" d="M115.9,18.6L115.9,18.6c-0.3,0-0.7-0.1-1-0.2c-0.7-0.3-1.2-0.8-1.5-1.4c-0.3-0.7-0.3-1.4,0-2.1
				c0.4-1.1,1.4-1.7,2.5-1.7c0.3,0,0.7,0.1,1,0.2c0.7,0.3,1.2,0.8,1.5,1.4c0.3,0.7,0.3,1.4,0,2.1C118.1,17.9,117.1,18.6,115.9,18.6z
				 M115.9,14.7c-0.5,0-0.9,0.3-1.1,0.8c-0.1,0.3-0.1,0.6,0,0.9c0.1,0.3,0.4,0.5,0.7,0.6c0.6,0.2,1.3-0.1,1.6-0.7
				c0.1-0.3,0.1-0.6,0-0.9c-0.1-0.3-0.4-0.5-0.7-0.6C116.2,14.7,116.1,14.7,115.9,14.7z"/>
		</g>
		<g>
			<path class="st0" d="M175.5,5.7c-0.4,1-1.5,1.5-2.6,1.1c-1-0.4-1.5-1.5-1.1-2.6c0.4-1,1.5-1.5,2.6-1.1
				C175.4,3.5,175.9,4.6,175.5,5.7z"/>
			<path class="st0" d="M173.7,7.7c-0.3,0-0.7-0.1-1-0.2c-1.4-0.5-2.1-2.1-1.6-3.5c0.4-1.1,1.4-1.7,2.5-1.7c0.3,0,0.7,0.1,1,0.2
				c1.4,0.5,2.1,2.1,1.6,3.5C175.8,7,174.8,7.7,173.7,7.7z M173.7,3.7c-0.5,0-0.9,0.3-1.1,0.8c-0.2,0.6,0.1,1.3,0.7,1.6
				c0.6,0.2,1.3-0.1,1.6-0.7c0.2-0.6-0.1-1.3-0.7-1.6C174,3.8,173.8,3.7,173.7,3.7z"/>
		</g>
	</g>
	<g>
		<g>
			<path class="st0" d="M46.5,20.8c1.2,0,2.3-0.2,3.5-0.7L96.4,2.1c4.1-1.6,8.8,0.4,10.4,4.6c1.6,4.1-0.4,8.8-4.6,10.4l0.6,1.4
				c4.9-1.9,7.3-7.5,5.4-12.4c-1.9-4.9-7.5-7.3-12.4-5.4L49.4,18.8c-4.1,1.6-8.8-0.4-10.4-4.6c-1.6-4.1,0.4-8.8,4.6-10.4l-0.6-1.4
				c-2.4,0.9-4.2,2.7-5.3,5.1c-1,2.3-1.1,4.9-0.2,7.3C39.1,18.5,42.7,20.8,46.5,20.8z"/>
		</g>
		<g>
			<path class="st0" d="M100,16.6c-0.4-1,0.1-2.2,1.1-2.6c1-0.4,2.2,0.1,2.6,1.1c0.4,1-0.1,2.2-1.1,2.5
				C101.5,18.1,100.3,17.6,100,16.6z"/>
			<path class="st0" d="M99.2,16.9c-0.3-0.7-0.3-1.4,0-2.1c0.3-0.7,0.8-1.2,1.5-1.4c0.3-0.1,0.7-0.2,1-0.2c1.1,0,2.1,0.7,2.6,1.7
				c0.3,0.7,0.2,1.4,0,2.1c-0.3,0.7-0.8,1.2-1.5,1.4c-0.3,0.1-0.7,0.2-1,0.2l0,0C100.7,18.6,99.7,17.9,99.2,16.9z M101.3,14.8
				c-0.3,0.1-0.5,0.3-0.7,0.6c-0.1,0.3-0.1,0.6,0,0.9c0.2,0.6,0.9,0.9,1.6,0.7c0.3-0.1,0.5-0.3,0.7-0.6c0.1-0.3,0.1-0.6,0-0.9
				c-0.2-0.5-0.6-0.8-1.1-0.8C101.6,14.7,101.5,14.7,101.3,14.8z"/>
		</g>
		<g>
			<path class="st0" d="M42.2,5.7c0.4,1,1.5,1.5,2.6,1.1c1-0.4,1.5-1.5,1.1-2.6c-0.4-1-1.5-1.5-2.6-1.1C42.3,3.5,41.8,4.6,42.2,5.7z
				"/>
			<path class="st0" d="M41.5,5.9c-0.5-1.4,0.1-3,1.6-3.5c0.3-0.1,0.7-0.2,1-0.2c1.1,0,2.1,0.7,2.5,1.7c0.5,1.4-0.1,3-1.6,3.5
				c-0.3,0.1-0.7,0.2-1,0.2C42.9,7.7,41.9,7,41.5,5.9z M43.6,3.8c-0.6,0.2-0.9,0.9-0.7,1.6c0.2,0.6,1,0.9,1.6,0.7
				c0.6-0.2,0.9-0.9,0.7-1.6C45,4,44.5,3.7,44,3.7C43.9,3.7,43.8,3.8,43.6,3.8z"/>
		</g>
	</g>
</g>
<polygon class="st0" points="188.4,20.8 29.4,20.8 39.5,34.8 29.4,48.7 188.4,48.7 178.2,34.8 "/>
<g>
	<g>
		<g>
			<path class="st0" d="M18.3,22.8c0.4,0,0.7,0,1.1,0.1c2.5,0.2,5.3,2.5,5.6,6.8v1.4c-0.3,4.1-3.4,9.2-12.5,15.6
				C3.4,40.4,0.3,35.3,0,31.1v-1.4c0.3-4.3,3.2-6.6,5.6-6.8c0.4,0,0.8-0.1,1.1-0.1c2.8,0,4.2,1.2,5.8,3.1
				C14.1,24.1,15.5,22.8,18.3,22.8"/>
		</g>
	</g>
	<g>
		<g>
			<path class="st0" d="M210.9,22.8c0.4,0,0.7,0,1.1,0.1c2.5,0.2,5.3,2.5,5.6,6.8v1.4c-0.3,4.1-3.4,9.2-12.5,15.6
				c-9.1-6.4-12.2-11.5-12.5-15.6v-1.4c0.3-4.3,3.2-6.6,5.6-6.8c0.4,0,0.8-0.1,1.1-0.1c2.8,0,4.2,1.2,5.8,3.1
				C206.7,24.1,208.1,22.8,210.9,22.8"/>
		</g>
	</g>
</g>
</svg>
