<?xml version="1.0" encoding="utf-8"?>
<!-- Generator: Adobe Illustrator 22.1.0, SVG Export Plug-In . SVG Version: 6.00 Build 0)  -->
<svg version="1.1" id="レイヤー_1" xmlns="http://www.w3.org/2000/svg" xmlns:xlink="http://www.w3.org/1999/xlink" x="0px"
	 y="0px" viewBox="0 0 113.3 113.3" style="enable-background:new 0 0 113.3 113.3;" xml:space="preserve">
<style type="text/css">
	.st0{fill:#FFFFFF;}
</style>
<g>
	<g>
		<path class="st0" d="M58.3,109.8c0.3-0.2,0.7-0.3,1-0.4c0.4-0.1,0.7-0.2,1.1-0.3c0.4-0.1,0.7-0.2,1.1-0.2c0.2,0,0.4-0.1,0.6-0.1
			c0.2,0,0.4-0.1,0.6-0.1c-0.6-0.2-1.2-0.5-1.8-0.9c-0.5-0.3-1-0.7-1.4-1.2c-0.5-0.6-1-1.8-0.3-2.4c0.4-0.4,0.9-0.4,1.5-0.3
			c0.3,0.1,0.5,0.2,0.8,0.3c0.3,0.1,0.5,0.2,0.7,0.4c0.7,0.4,1.2,1,1.7,1.6c0.2,0.3,0.5,0.7,0.7,1c0.2,0.3,0.4,0.7,0.6,1
			c0,0.1,0,0.1,0,0.2l1.3-0.3c0.4-0.1,0.9-0.2,1.3-0.3l1.3-0.4l0.6-0.2c0.2-0.1,0.4-0.1,0.6-0.2c-0.2-0.1-0.5-0.2-0.7-0.3
			c-0.2-0.1-0.4-0.2-0.6-0.4c-0.4-0.3-0.8-0.6-1.1-0.9c-0.7-0.8-1.4-2.2-0.6-3.2c0.3-0.4,0.8-0.5,1.3-0.4c0.5,0.1,1,0.3,1.3,0.6
			c0.6,0.4,1.1,1,1.6,1.7c0.5,0.7,0.9,1.4,1.2,2l1.7-0.7c0.6-0.2,1.1-0.5,1.7-0.7l0.8-0.4l0.8-0.4l0.8-0.4c0.3-0.1,0.6-0.3,0.8-0.4
			l0.6-0.3c-0.3,0-0.6,0-0.9,0c-0.3,0-0.6-0.1-0.9-0.2c-0.6-0.1-1.2-0.4-1.7-0.8c-0.4-0.3-0.9-0.8-1.2-1.4c-0.3-0.6-0.4-1.2,0-1.7
			c0.4-0.5,1-0.5,1.7-0.4c0.7,0.1,1.4,0.4,1.8,0.7c0.6,0.3,1.2,0.7,1.7,1.2c0.5,0.5,0.9,1,1.2,1.6c1-0.6,2-1.2,2.9-1.9
			c1-0.6,1.9-1.4,2.8-2.1c-0.6,0.1-1.2,0.2-1.8,0.2c-0.3,0-0.6,0-0.9,0c-0.3,0-0.6-0.1-0.9-0.2c-1.1-0.3-1.8-1-1.7-2.2
			c0-0.3,0.1-0.5,0.2-0.7c0.1-0.2,0.3-0.3,0.5-0.5c0.4-0.2,0.9-0.3,1.3-0.3c0.4,0,0.8,0.2,1.2,0.3c0.4,0.2,0.8,0.4,1.2,0.6
			c0.8,0.5,1.6,1,2.3,1.4c0,0,0.1,0,0.1,0.1l0.7-0.6l0.7-0.6c0.4-0.4,0.9-0.8,1.3-1.2l1.2-1.3l0.3-0.3l0.3-0.3l0.6-0.7
			c-0.6,0.2-1.1,0.3-1.7,0.4c-0.6,0.1-1.2,0.1-1.7-0.1c-1-0.2-2.5-0.9-2.5-2.2c0-0.8,0.5-1.1,1.1-1.3c0.6-0.2,1.4-0.2,1.9-0.1
			c0.4,0,0.8,0.1,1.1,0.2c0.4,0.1,0.7,0.2,1.1,0.3c0.7,0.3,1.4,0.6,2,1c1.8-2.1,3.4-4.3,4.8-6.6c-0.7,0.4-1.4,0.8-2.1,1
			c-0.8,0.2-1.5,0.3-2.3,0.3c-1.2,0-2.9-0.9-2.4-2.3c0.1-0.4,0.4-0.6,0.7-0.8c0.3-0.2,0.7-0.3,1.2-0.3c0.9-0.1,1.8,0,2.5,0
			c0.3,0,0.9,0.1,1.6,0.2c0.6,0.1,1.3,0.3,1.4,0.7c0.1,0,0.1,0,0.2,0c1.9-3.4,3.5-6.9,4.8-10.6c-0.9,1.1-1.8,2.1-3.1,2.4
			c-1.2,0.3-2.7,0.1-3.6-0.8c-0.6-0.6-0.4-1.1,0-1.4c0.4-0.3,1.1-0.6,1.6-0.7c0.8-0.2,1.6-0.4,2.5-0.5c0.8-0.1,1.7-0.1,2.5,0
			c0,0,0.1-0.1,0.1-0.1c0.1-0.2,0.3-0.2,0.4-0.1c1-3.2,1.7-6.4,2.1-9.7c-0.5,0.4-0.9,0.8-1.5,1.1c-0.5,0.3-1.1,0.6-1.7,0.8
			c-0.4,0.1-1.1,0.4-1.8,0.4c-0.7,0.1-1.3-0.1-1.6-0.6c-0.3-0.5-0.1-0.9,0.3-1.3c0.4-0.3,0.9-0.6,1.3-0.7c1.6-0.6,3.3-0.9,5-0.8
			c0.1-0.5,0.1-1,0.1-1.5c0-0.1,0-0.1,0-0.2l0.1-1.2c0-0.4,0.7-0.4,0.7,0l-0.1,1.3c0.3,1.2,0.9,2.1,1.6,3c0.7,0.9,1.5,1.8,2.1,2.8
			c0.3,0.5,0.6,1.2,0.6,1.9c0,0.7-0.2,1.3-0.9,1.6c-1.4,0.7-2.3-0.1-2.8-1.4c-0.1-0.3-0.3-0.7-0.4-1c-0.1-0.2-0.1-0.4-0.1-0.6
			c-0.1-0.2-0.1-0.4-0.1-0.6c-0.2-0.8-0.3-1.6-0.4-2.3c-0.5,3.2-1.2,6.3-2.1,9.3c0.6,0.6,1.3,1.2,1.9,1.9c0.6,0.7,1.1,1.4,1.4,2.3
			c0.1,0.3,0.2,0.6,0.2,0.9c0,0.3,0,0.6,0,1c-0.1,0.6-0.4,1.2-1,1.5c-0.6,0.3-1.1,0.2-1.5-0.2c-0.2-0.2-0.3-0.4-0.5-0.6
			c-0.1-0.2-0.2-0.5-0.3-0.8c-0.1-0.5-0.2-1-0.2-1.5c0-0.3-0.1-0.5-0.1-0.8c0-0.3-0.1-0.5-0.1-0.7c-0.1-0.5-0.2-1-0.3-1.5l-0.2,0.5
			c-1.2,3.4-2.7,6.7-4.6,9.9c0,0,0.1,0,0.1,0.1c0.2,0.2,0.6,0.6,1,1.2c0.4,0.5,0.8,1.2,1.1,1.8c0.3,0.6,0.4,1.3,0.3,1.8
			c0,0.1-0.1,0.2-0.1,0.4c-0.1,0.1-0.2,0.2-0.3,0.3c-0.2,0.2-0.5,0.3-0.9,0.3c-1.3,0.2-1.7-0.5-1.9-1.4c-0.1-0.5-0.1-1,0-1.5
			c0-0.5,0.1-1.1,0.1-1.6L99.7,85l-0.3,0.4c-0.1,0.1-0.2,0.3-0.3,0.4L98,87.6l-1.2,1.6c-0.2,0.3-0.4,0.5-0.6,0.8l-0.7,0.8
			c0,0,0.1,0,0.1,0.1c0.2,0.2,0.5,0.6,0.7,1.2c0.3,0.5,0.6,1.2,0.7,1.8c0.2,0.6,0.2,1.2,0.1,1.7c-0.1,0.2-0.2,0.4-0.4,0.6
			c-0.2,0.2-0.4,0.3-0.8,0.3c-1.1,0.1-1.4-0.7-1.5-1.6c-0.1-1,0.1-2.2,0.2-3l-1.3,1.5c-0.5,0.5-0.9,0.9-1.4,1.4
			c-0.5,0.5-1,0.9-1.4,1.4l-0.7,0.7c-0.2,0.2-0.5,0.4-0.8,0.6l0,0c0.9,2.1,1.4,4.5,1.1,6.9c0,0.3-0.1,0.7-0.3,1
			c-0.1,0.2-0.1,0.3-0.2,0.5c-0.1,0.2-0.2,0.3-0.3,0.4c-0.5,0.5-1.2,0.8-2,0.5c-0.8-0.3-1.1-1-1.2-1.7c-0.1-0.8,0.1-1.6,0.3-2.3
			c0.1-0.4,0.3-0.7,0.5-1.1c0.2-0.4,0.3-0.8,0.5-1.1c0.2-0.4,0.3-0.7,0.4-1.1c0.1-0.2,0.1-0.4,0.2-0.6c0-0.2,0.1-0.4,0.1-0.6
			l-0.4,0.3l-0.4,0.3l-0.8,0.6l-0.8,0.6c-0.3,0.2-0.5,0.4-0.8,0.5c-0.5,0.4-1,0.7-1.6,1.1l-1.6,1c0.1,0.8,0.1,1.7-0.1,2.5
			c-0.2,0.8-0.5,1.6-0.9,2.4c-0.3,0.5-0.8,1.3-1.4,1.8c-0.1,0.1-0.3,0.3-0.5,0.4c-0.2,0.1-0.3,0.2-0.5,0.3c-0.4,0.1-0.7,0.2-1.1,0.2
			c-1.3-0.2-1.2-1.4-0.6-2.3c0.3-0.5,0.7-0.9,1.1-1.3c0.4-0.4,0.8-0.8,1.1-1.3c0.2-0.3,0.5-0.6,0.7-0.9l0.7-0.9
			c-2.4,1.3-4.9,2.5-7.5,3.5l0,0c0.1,0.8,0.1,1.6-0.1,2.4c-0.2,0.8-0.5,1.5-0.9,2.2c-0.2,0.2-0.3,0.5-0.6,0.7
			c-0.1,0.1-0.2,0.2-0.4,0.4c-0.1,0.1-0.3,0.2-0.4,0.3c-0.6,0.4-1.2,0.6-1.9,0.4c-0.7-0.2-1-0.7-1-1.2c0-0.5,0.2-1.2,0.6-1.6
			c0.4-0.6,0.9-1.1,1.5-1.6c0.5-0.5,1.1-0.9,1.7-1.3l-0.3-0.1c-2.2,0.8-4.5,1.3-6.8,1.8c-0.1,0.2-0.2,0.3-0.4,0.2c0,0,0,0-0.1,0.1
			c0,0.1-0.1,0.1-0.2,0.2c-0.1,0.2-0.3,0.4-0.6,0.7c-0.4,0.5-0.9,1-1,1.1c-0.7,0.6-1.4,1.1-2.2,1.5c-0.5,0.2-1.1,0.4-1.7,0.4
			c-0.6,0-1.1-0.2-1.5-0.7c-0.4-0.6-0.3-1.1,0-1.7C57.2,110.4,57.7,110,58.3,109.8z M107.3,60.4c-0.8,0-1.6,0.1-2.5,0.3
			c-0.6,0.1-1.1,0.3-1.7,0.5c-0.2,0.1-0.4,0.2-0.6,0.3c-0.7,1-0.6,1.3,0.3,1.1c0.8-0.1,1.6-0.3,2.4-0.7
			C106,61.5,106.7,61,107.3,60.4z M109.6,64.8c0.2,0.7,0.4,1.5,0.9,2c0.3,0.3,0.9,0.5,1.4,0.3c0.8-0.4,0.6-1.3,0.3-2
			c-0.4-1-1-1.8-1.6-2.6c-0.3-0.4-0.6-0.8-0.9-1.1c-0.3-0.4-0.6-0.8-0.8-1.2c0,0.4,0.1,0.8,0.1,1.2c0.1,0.4,0.1,0.8,0.2,1.2
			C109.2,63.3,109.4,64,109.6,64.8z M104.8,71.5c-1-0.1-2,0-2.9,0.1c-0.6,0.1-1.1,0.2-1.7,0.4c-0.2,0-0.6,0.1-0.7,0.2
			c-0.1,0.3-0.1,0.7-0.2,1l0.4,0.3c1,0.5,1.9,0.4,2.8-0.1C103.4,73,104.2,72.2,104.8,71.5z M106.3,72.1c0.2,0.8,0.4,1.6,0.5,2.4
			c0.1,0.6,0.2,1.2,0.2,1.8c0,0.3,0.1,0.6,0.2,0.9l0.4,0.7l1.1-0.1c0.3-0.2,0.4-0.7,0.4-1.1c0-0.4-0.1-0.9-0.2-1.2
			c-0.2-0.6-0.6-1-0.9-1.5C107.5,73.3,106.9,72.7,106.3,72.1z M99.8,82.9c0-0.1,0-0.2,0-0.2c0,0-0.7-0.1-1.5-0.2
			c-0.7-0.1-1.5-0.3-1.7-0.3c-0.4,0-1.5,0-2.2,0.2c-0.8,0.2-1.2,0.6-0.2,1.5c0.8,0.7,2.2,0.4,3.1,0.1C98.2,83.8,99,83.4,99.8,82.9z
			 M100.9,87.1c0,0.3,0.2,0.6,0.5,0.8c0.3,0.2,0.6,0.2,0.8,0.1c0.1-0.1,0.2-0.2,0.3-0.3c0.1-0.2,0.2-0.4,0.3-0.6
			c0-0.3-0.3-0.9-0.4-1.1c-0.4-0.7-0.8-1.4-1.4-2c0,0.5-0.1,1.1-0.2,1.6c0,0.3,0,0.5,0,0.8C100.8,86.6,100.8,86.9,100.9,87.1z
			 M95.4,91.8c0,0.5-0.1,0.9-0.1,1.4c-0.1,0.7-0.3,1.6,0.1,2.1c0.2,0.5,0.5,0.5,1-0.2l0-0.9c0-0.4-0.2-0.8-0.3-1.1
			C95.9,92.6,95.7,92.2,95.4,91.8z M94.7,90.8L94.7,90.8c-0.4-0.4-0.9-0.6-1.5-0.9c-0.5-0.2-1.1-0.4-1.6-0.5
			c-0.5-0.1-1.1-0.2-1.6-0.2c-0.2,0-0.5,0.1-0.7,0.1c-0.2,0.1-0.5,0.2-0.6,0.4c-0.3,0.4,0.2,1,0.5,1.3c0.8,0.6,1.7,0.7,2.7,0.6
			c0.5-0.1,1-0.2,1.5-0.3c0.2-0.1,0.5-0.2,0.7-0.2c0.1,0,0.2-0.1,0.3-0.1C94.4,90.9,94.6,90.8,94.7,90.8z M88.7,98.4
			c-0.2,0.9-0.6,1.7-0.9,2.6c-0.2,0.4-0.4,0.9-0.5,1.3c-0.2,0.4-0.3,0.9-0.4,1.3c-0.1,0.4-0.1,0.8,0,1.2c0.1,0.5,0.5,1,1,1.2
			c0.5,0.1,1.1-0.1,1.5-1c0.3-0.8,0.2-1.8,0.2-2.6c0-0.7-0.1-1.3-0.2-2C89.2,99.7,89,99,88.7,98.4z M87.9,97.1
			c-0.8-0.4-1.6-0.9-2.3-1.4c-0.4-0.2-0.8-0.5-1.2-0.6c-0.3-0.1-1-0.2-1.4,0c-0.1,0-0.2,0.1-0.3,0.2c-0.1,0.1-0.1,0.2-0.2,0.3
			c-0.1,0.2,0,0.5,0.2,0.9c0.2,0.4,0.5,0.6,0.9,0.8c0.4,0.2,0.9,0.3,1.4,0.3C86,97.6,87.1,97.4,87.9,97.1z M81.3,103.3l-1,1.3
			c-0.2,0.2-0.3,0.4-0.5,0.6l-0.5,0.6l-1.2,1.4c-0.2,0.2-0.4,0.4-0.5,0.6l-0.2,0.3c0.4,0.3,0.9,0.6,1.3,0.9c0.4-0.1,1.1-1.2,1.3-1.5
			c0.3-0.5,0.6-1,0.8-1.5C81.1,105.1,81.3,104.2,81.3,103.3z M80.8,102.1c-0.4-0.8-1-1.4-1.7-2c-0.4-0.3-0.9-0.6-1.4-0.8
			c-0.2-0.1-0.5-0.1-0.7-0.2c-0.6-0.2-0.5-0.2-1,0.4c-0.5,0.6-0.4,0.7,0,1.2c0.2,0.2,0.4,0.4,0.6,0.6c0.5,0.4,1.1,0.6,1.7,0.7
			C79.2,102.2,80,102.2,80.8,102.1z M72.4,107.7c-0.4,0.3-0.9,0.6-1.3,0.9c-0.2,0.2-0.4,0.3-0.6,0.5c-0.1,0.1-0.2,0.2-0.3,0.3
			c-0.1,0.1-0.2,0.2-0.3,0.3c-0.3,0.3-0.7,0.7-0.9,1.1c-0.3,0.4-0.5,0.8-0.4,1.3c0.4,0.6,1,0.7,1.5,0.3c0.8-0.4,1.4-1.2,1.7-2
			C72.2,109.5,72.4,108.5,72.4,107.7z M71.3,106.7l0.6-0.2c-0.4-0.8-1.2-2-1.9-2.9c-0.8-0.9-1.5-1.3-2.2-0.7c-0.5,0.5-0.3,1,0.1,1.6
			c0.3,0.5,0.8,1,1.4,1.3C69.9,106.2,70.6,106.5,71.3,106.7z M61.8,107.6c0.8,0.4,1.6,0.7,2.4,1c0,0,0,0,0,0l0.2,0l0,0
			c-0.5-0.9-1-1.8-1.7-2.6c-0.4-0.4-0.7-0.7-1.2-0.9c-0.3-0.1-0.5-0.3-0.8-0.3c-0.3-0.2-0.6,0-0.8,0.4c-0.5,0.2-0.6,0.6-0.2,0.9
			c0.2,0.2,0.4,0.5,0.6,0.7C60.8,107,61.3,107.3,61.8,107.6z M59.9,112.3c1.2-0.6,2.3-1.5,3.1-2.6c0.1-0.1,0.2-0.2,0.3-0.4
			c-0.3,0-0.6,0.1-1,0.1c-0.3,0.1-0.6,0.1-1,0.2c-0.6,0.1-1.3,0.3-1.9,0.5c-0.7,0.2-1.9,0.6-2,1.4c-0.1,0.8,0.3,1.1,0.9,1.1
			C58.9,112.7,59.6,112.5,59.9,112.3z"/>
	</g>
	<g>
		<path class="st0" d="M3.5,58.3c0.2,0.3,0.3,0.7,0.4,1C4,59.6,4.2,60,4.2,60.4c0.1,0.4,0.2,0.7,0.2,1.1c0,0.2,0.1,0.4,0.1,0.6
			c0,0.2,0.1,0.4,0.1,0.6c0.2-0.6,0.5-1.2,0.9-1.8c0.3-0.5,0.7-1,1.2-1.4c0.6-0.5,1.8-1,2.4-0.3c0.4,0.4,0.4,0.9,0.3,1.5
			c-0.1,0.3-0.2,0.5-0.3,0.8c-0.1,0.3-0.2,0.5-0.4,0.7c-0.4,0.7-1,1.2-1.6,1.7c-0.3,0.2-0.7,0.5-1,0.7c-0.3,0.2-0.7,0.4-1,0.6
			c-0.1,0-0.1,0-0.2,0l0.3,1.3c0.1,0.4,0.2,0.9,0.3,1.3l0.4,1.3l0.2,0.6c0.1,0.2,0.1,0.4,0.2,0.6c0.1-0.2,0.2-0.5,0.3-0.7
			c0.1-0.2,0.2-0.4,0.4-0.6c0.3-0.4,0.6-0.8,0.9-1.1c0.8-0.7,2.2-1.4,3.2-0.6c0.4,0.3,0.5,0.8,0.4,1.3c-0.1,0.5-0.3,1-0.6,1.3
			c-0.4,0.6-1,1.1-1.7,1.6c-0.7,0.5-1.4,0.9-2,1.2l0.7,1.7C8,74.9,8.3,75.4,8.5,76l0.4,0.8l0.4,0.8l0.4,0.8c0.1,0.3,0.3,0.6,0.4,0.8
			l0.3,0.6c0-0.3,0-0.6,0-0.9c0-0.3,0.1-0.6,0.2-0.9c0.1-0.6,0.4-1.2,0.8-1.7c0.3-0.4,0.8-0.9,1.4-1.2c0.6-0.3,1.2-0.4,1.7,0
			c0.5,0.4,0.5,1,0.4,1.7c-0.1,0.7-0.4,1.4-0.7,1.8c-0.3,0.6-0.7,1.2-1.2,1.7c-0.5,0.5-1,0.9-1.6,1.2c0.6,1,1.2,2,1.9,2.9
			c0.6,1,1.4,1.9,2.1,2.8c-0.1-0.6-0.2-1.2-0.2-1.8c0-0.3,0-0.6,0-0.9c0-0.3,0.1-0.6,0.2-0.9c0.3-1.1,1-1.8,2.2-1.7
			c0.3,0,0.5,0.1,0.7,0.2c0.2,0.1,0.3,0.3,0.5,0.5c0.2,0.4,0.3,0.9,0.3,1.3c0,0.4-0.2,0.8-0.3,1.2c-0.2,0.4-0.4,0.8-0.6,1.2
			c-0.5,0.8-1,1.6-1.4,2.3c0,0,0,0.1-0.1,0.1l0.6,0.7l0.6,0.7c0.4,0.4,0.8,0.9,1.2,1.3l1.3,1.2l0.3,0.3l0.3,0.3l0.7,0.6
			c-0.2-0.6-0.3-1.1-0.4-1.7c-0.1-0.6-0.1-1.2,0.1-1.7c0.2-1,0.9-2.5,2.2-2.5c0.8,0,1.1,0.5,1.3,1.1c0.2,0.6,0.2,1.4,0.1,1.9
			c0,0.4-0.1,0.8-0.2,1.1c-0.1,0.4-0.2,0.7-0.3,1.1c-0.3,0.7-0.6,1.4-1,2c2.1,1.8,4.3,3.4,6.6,4.8c-0.4-0.7-0.8-1.4-1-2.1
			c-0.2-0.8-0.3-1.5-0.3-2.3c0-1.2,0.9-2.9,2.3-2.4c0.4,0.1,0.6,0.4,0.8,0.7c0.2,0.3,0.3,0.7,0.3,1.2c0.1,0.9,0,1.8,0,2.5
			c0,0.3-0.1,0.9-0.2,1.6c-0.1,0.6-0.3,1.3-0.7,1.4c0,0.1,0,0.1,0,0.2c3.4,1.9,6.9,3.5,10.6,4.8c-1.1-0.9-2.1-1.8-2.4-3.1
			c-0.3-1.2-0.1-2.7,0.8-3.6c0.6-0.6,1.1-0.4,1.4,0c0.3,0.4,0.6,1.1,0.7,1.6c0.2,0.8,0.4,1.6,0.5,2.5c0.1,0.8,0.1,1.7,0,2.5
			c0,0,0.1,0.1,0.1,0.1c0.2,0.1,0.2,0.3,0.1,0.4c3.2,1,6.4,1.7,9.7,2.1c-0.4-0.5-0.8-0.9-1.1-1.5c-0.3-0.5-0.6-1.1-0.8-1.7
			c-0.1-0.4-0.4-1.1-0.4-1.8c-0.1-0.7,0.1-1.3,0.6-1.6c0.5-0.3,0.9-0.1,1.3,0.3c0.3,0.4,0.6,0.9,0.7,1.3c0.6,1.6,0.9,3.3,0.8,5
			c0.5,0.1,1,0.1,1.5,0.1c0.1,0,0.1,0,0.2,0l1.2,0.1c0.4,0,0.4,0.7,0,0.7l-1.3-0.1c-1.2,0.3-2.1,0.9-3,1.6c-0.9,0.7-1.8,1.5-2.8,2.1
			c-0.5,0.3-1.2,0.6-1.9,0.6c-0.7,0-1.3-0.2-1.6-0.9c-0.7-1.4,0.1-2.3,1.4-2.8c0.3-0.1,0.7-0.3,1-0.4c0.2-0.1,0.4-0.1,0.6-0.1
			c0.2-0.1,0.4-0.1,0.6-0.1c0.8-0.2,1.6-0.3,2.3-0.4c-3.2-0.5-6.3-1.2-9.3-2.1c-0.6,0.6-1.2,1.3-1.9,1.9c-0.7,0.6-1.4,1.1-2.3,1.4
			c-0.3,0.1-0.6,0.2-0.9,0.2c-0.3,0-0.6,0-1,0c-0.6-0.1-1.2-0.4-1.5-1c-0.3-0.6-0.2-1.1,0.2-1.5c0.2-0.2,0.4-0.3,0.6-0.5
			c0.2-0.1,0.5-0.2,0.8-0.3c0.5-0.1,1-0.2,1.5-0.2c0.3,0,0.5-0.1,0.8-0.1c0.3,0,0.5-0.1,0.7-0.1c0.5-0.1,1-0.2,1.5-0.3l-0.5-0.2
			c-3.4-1.2-6.7-2.7-9.9-4.6c0,0,0,0.1-0.1,0.1c-0.2,0.2-0.6,0.6-1.2,1c-0.5,0.4-1.2,0.8-1.8,1.1c-0.6,0.3-1.3,0.4-1.8,0.3
			c-0.1,0-0.2-0.1-0.4-0.1c-0.1-0.1-0.2-0.2-0.3-0.3c-0.2-0.2-0.3-0.5-0.3-0.9c-0.2-1.3,0.5-1.7,1.4-1.9c0.5-0.1,1-0.1,1.5,0
			c0.5,0,1.1,0.1,1.6,0.1l-0.9-0.5l-0.4-0.3c-0.1-0.1-0.3-0.2-0.4-0.3L25.7,98l-1.6-1.2c-0.3-0.2-0.5-0.4-0.8-0.6l-0.8-0.7
			c0,0,0,0.1-0.1,0.1c-0.2,0.2-0.6,0.5-1.2,0.7c-0.5,0.3-1.2,0.6-1.8,0.7c-0.6,0.2-1.2,0.2-1.7,0.1c-0.2-0.1-0.4-0.2-0.6-0.4
			c-0.2-0.2-0.3-0.4-0.3-0.8c-0.1-1.1,0.7-1.4,1.6-1.5c1-0.1,2.2,0.1,3,0.2l-1.5-1.3c-0.5-0.5-0.9-0.9-1.4-1.4
			c-0.5-0.5-0.9-1-1.4-1.4l-0.7-0.7c-0.2-0.2-0.4-0.5-0.6-0.8l0,0c-2.1,0.9-4.5,1.4-6.9,1.1c-0.3,0-0.7-0.1-1-0.3
			c-0.2-0.1-0.3-0.1-0.5-0.2c-0.2-0.1-0.3-0.2-0.4-0.3c-0.5-0.5-0.8-1.2-0.5-2c0.3-0.8,1-1.1,1.7-1.2c0.8-0.1,1.6,0.1,2.3,0.3
			c0.4,0.1,0.7,0.3,1.1,0.5c0.4,0.2,0.8,0.3,1.1,0.5c0.4,0.2,0.7,0.3,1.1,0.4c0.2,0.1,0.4,0.1,0.6,0.2c0.2,0,0.4,0.1,0.6,0.1
			L15,87.8l-0.3-0.4l-0.6-0.8l-0.6-0.8c-0.2-0.3-0.4-0.5-0.5-0.8c-0.4-0.5-0.7-1-1.1-1.6l-1-1.6C10.1,82,9.2,82,8.4,81.8
			c-0.8-0.2-1.6-0.5-2.4-0.9c-0.5-0.3-1.3-0.8-1.8-1.4c-0.1-0.1-0.3-0.3-0.4-0.5c-0.1-0.2-0.2-0.3-0.3-0.5c-0.1-0.4-0.2-0.7-0.2-1.1
			c0.2-1.3,1.4-1.2,2.3-0.6c0.5,0.3,0.9,0.7,1.3,1.1c0.4,0.4,0.8,0.8,1.3,1.1c0.3,0.2,0.6,0.5,0.9,0.7l0.9,0.7
			c-1.3-2.4-2.5-4.9-3.5-7.5l0,0c-0.8,0.1-1.6,0.1-2.4-0.1c-0.8-0.2-1.5-0.5-2.2-0.9c-0.2-0.2-0.5-0.3-0.7-0.6
			c-0.1-0.1-0.2-0.2-0.4-0.4c-0.1-0.1-0.2-0.3-0.3-0.4c-0.4-0.6-0.6-1.2-0.4-1.9c0.2-0.7,0.7-1,1.2-1c0.5,0,1.2,0.3,1.6,0.6
			c0.6,0.4,1.1,0.9,1.6,1.5C5,70.4,5.5,71,5.9,71.6l0.1-0.3c-0.8-2.2-1.3-4.5-1.8-6.8c-0.2-0.1-0.3-0.2-0.2-0.4c0,0,0,0-0.1-0.1
			c-0.1,0-0.1-0.1-0.2-0.2c-0.2-0.1-0.4-0.3-0.7-0.6c-0.5-0.4-1-0.9-1.1-1c-0.6-0.7-1.1-1.4-1.5-2.2C0.1,59.6,0,58.9,0,58.4
			c0-0.6,0.2-1.1,0.7-1.5c0.6-0.4,1.1-0.3,1.7,0C2.9,57.2,3.3,57.7,3.5,58.3z M52.9,107.3c0-0.8-0.1-1.6-0.3-2.5
			c-0.1-0.6-0.3-1.1-0.5-1.7c-0.1-0.2-0.2-0.4-0.3-0.6c-1-0.7-1.3-0.6-1.1,0.3c0.1,0.8,0.3,1.6,0.7,2.4
			C51.8,106,52.3,106.7,52.9,107.3z M48.5,109.6c-0.7,0.2-1.5,0.4-2,0.9c-0.3,0.3-0.5,0.9-0.3,1.4c0.4,0.8,1.3,0.6,2,0.3
			c1-0.4,1.8-1,2.6-1.6c0.4-0.3,0.8-0.6,1.1-0.9c0.4-0.3,0.8-0.6,1.2-0.8c-0.4,0-0.8,0.1-1.2,0.1c-0.4,0.1-0.8,0.1-1.2,0.2
			C50,109.2,49.3,109.4,48.5,109.6z M41.8,104.8c0.1-1,0-2-0.1-2.9c-0.1-0.6-0.2-1.1-0.4-1.7c0-0.2-0.1-0.6-0.2-0.7
			c-0.3-0.1-0.7-0.1-1-0.2l-0.3,0.4c-0.5,1-0.4,1.9,0.1,2.8C40.3,103.4,41.1,104.2,41.8,104.8z M41.2,106.3
			c-0.8,0.2-1.6,0.4-2.4,0.5c-0.6,0.1-1.2,0.2-1.8,0.2c-0.3,0-0.6,0.1-0.9,0.2l-0.7,0.4l0.1,1.1c0.2,0.3,0.7,0.4,1.1,0.4
			c0.4,0,0.9-0.1,1.2-0.2c0.6-0.2,1-0.6,1.5-0.9C40,107.5,40.6,106.9,41.2,106.3z M30.4,99.8c0.1,0,0.2,0,0.2,0c0,0,0.1-0.7,0.2-1.5
			c0.1-0.7,0.3-1.5,0.3-1.7c0-0.4,0-1.5-0.2-2.2c-0.2-0.8-0.6-1.2-1.5-0.2c-0.7,0.8-0.4,2.2-0.1,3.1C29.5,98.2,29.9,99,30.4,99.8z
			 M26.2,100.9c-0.3,0-0.6,0.2-0.8,0.5c-0.2,0.3-0.2,0.6-0.1,0.8c0.1,0.1,0.2,0.2,0.3,0.3c0.2,0.1,0.4,0.2,0.6,0.3
			c0.3,0,0.9-0.3,1.1-0.4c0.7-0.4,1.4-0.8,2-1.4c-0.5,0-1.1-0.1-1.6-0.2c-0.3,0-0.5,0-0.8,0C26.7,100.8,26.4,100.8,26.2,100.9z
			 M21.5,95.4c-0.5,0-0.9-0.1-1.4-0.1c-0.7-0.1-1.6-0.3-2.1,0.1c-0.5,0.2-0.5,0.5,0.2,1l0.9,0c0.4,0,0.8-0.2,1.1-0.3
			C20.7,95.9,21.1,95.7,21.5,95.4z M22.5,94.7L22.5,94.7c0.4-0.4,0.6-0.9,0.9-1.5c0.2-0.5,0.4-1.1,0.5-1.6c0.1-0.5,0.2-1.1,0.2-1.6
			c0-0.2-0.1-0.5-0.1-0.7c-0.1-0.2-0.2-0.5-0.4-0.6c-0.4-0.3-1,0.2-1.3,0.5c-0.6,0.8-0.7,1.7-0.6,2.7c0.1,0.5,0.2,1,0.3,1.5
			c0.1,0.2,0.2,0.5,0.2,0.7c0,0.1,0.1,0.2,0.1,0.3C22.5,94.4,22.5,94.6,22.5,94.7z M14.9,88.7c-0.9-0.2-1.7-0.6-2.6-0.9
			c-0.4-0.2-0.9-0.4-1.3-0.5c-0.4-0.2-0.9-0.3-1.3-0.4c-0.4-0.1-0.8-0.1-1.2,0c-0.5,0.1-1,0.5-1.2,1c-0.1,0.5,0.1,1.1,1,1.5
			c0.8,0.3,1.8,0.2,2.6,0.2c0.7,0,1.3-0.1,2-0.2C13.6,89.2,14.3,89,14.9,88.7z M16.2,87.9c0.4-0.8,0.9-1.6,1.4-2.3
			c0.2-0.4,0.5-0.8,0.6-1.2c0.1-0.3,0.2-1,0-1.4c0-0.1-0.1-0.2-0.2-0.3c-0.1-0.1-0.2-0.1-0.3-0.2c-0.2-0.1-0.5,0-0.9,0.2
			c-0.4,0.2-0.6,0.5-0.8,0.9c-0.2,0.4-0.3,0.9-0.3,1.4C15.7,86,15.9,87.1,16.2,87.9z M10,81.3l-1.3-1c-0.2-0.2-0.4-0.3-0.6-0.5
			l-0.6-0.5l-1.4-1.2c-0.2-0.2-0.4-0.4-0.6-0.5l-0.3-0.2c-0.3,0.4-0.6,0.9-0.9,1.3C4.4,79,5.5,79.8,5.8,80c0.5,0.3,1,0.6,1.5,0.8
			C8.2,81.1,9.1,81.3,10,81.3z M11.2,80.8c0.8-0.4,1.4-1,2-1.7c0.3-0.4,0.6-0.9,0.8-1.4c0.1-0.2,0.1-0.5,0.2-0.7
			c0.2-0.6,0.2-0.5-0.4-1c-0.6-0.5-0.7-0.4-1.2,0c-0.2,0.2-0.4,0.4-0.6,0.6c-0.4,0.5-0.6,1.1-0.7,1.7C11.1,79.2,11.1,80,11.2,80.8z
			 M5.6,72.4c-0.3-0.4-0.6-0.9-0.9-1.3c-0.2-0.2-0.3-0.4-0.5-0.6c-0.1-0.1-0.2-0.2-0.3-0.3c-0.1-0.1-0.2-0.2-0.3-0.3
			C3.3,69.6,3,69.3,2.6,69c-0.4-0.3-0.8-0.5-1.3-0.4c-0.6,0.4-0.7,1-0.3,1.5c0.4,0.8,1.2,1.4,2,1.7C3.8,72.2,4.8,72.4,5.6,72.4z
			 M6.6,71.3l0.2,0.6c0.8-0.4,2-1.2,2.9-1.9c0.9-0.8,1.3-1.5,0.7-2.2c-0.5-0.5-1-0.3-1.6,0.1c-0.5,0.3-1,0.8-1.3,1.4
			C7.1,69.9,6.8,70.6,6.6,71.3z M5.7,61.8c-0.4,0.8-0.7,1.6-1,2.4c0,0,0,0,0,0l0,0.2l0,0c0.9-0.5,1.8-1,2.6-1.7
			c0.4-0.4,0.7-0.7,0.9-1.2c0.1-0.3,0.3-0.5,0.3-0.8c0.2-0.3,0-0.6-0.4-0.8c-0.2-0.5-0.6-0.6-0.9-0.2c-0.2,0.2-0.5,0.4-0.7,0.6
			C6.3,60.8,6,61.3,5.7,61.8z M1,59.9c0.6,1.2,1.5,2.3,2.6,3.1c0.1,0.1,0.2,0.2,0.4,0.3c0-0.3-0.1-0.6-0.1-1c-0.1-0.3-0.1-0.6-0.2-1
			c-0.1-0.6-0.3-1.3-0.5-1.9c-0.2-0.7-0.6-1.9-1.4-2c-0.8-0.1-1.1,0.3-1.1,0.9C0.6,58.9,0.8,59.6,1,59.9z"/>
	</g>
	<g>
		<path class="st0" d="M55,3.5c-0.3,0.2-0.7,0.3-1,0.4c-0.4,0.1-0.7,0.2-1.1,0.3c-0.4,0.1-0.7,0.2-1.1,0.2c-0.2,0-0.4,0.1-0.6,0.1
			c-0.2,0-0.4,0.1-0.6,0.1c0.6,0.2,1.2,0.5,1.8,0.9c0.5,0.3,1,0.7,1.4,1.2c0.5,0.6,1,1.8,0.3,2.4c-0.4,0.4-0.9,0.4-1.5,0.3
			c-0.3-0.1-0.5-0.2-0.8-0.3c-0.3-0.1-0.5-0.2-0.7-0.4c-0.7-0.4-1.2-1-1.7-1.6c-0.2-0.3-0.5-0.7-0.7-1c-0.2-0.3-0.4-0.7-0.6-1
			c0-0.1,0-0.1,0-0.2l-1.3,0.3c-0.4,0.1-0.9,0.2-1.3,0.3l-1.3,0.4l-0.6,0.2c-0.2,0.1-0.4,0.1-0.6,0.2c0.2,0.1,0.5,0.2,0.7,0.3
			c0.2,0.1,0.4,0.2,0.6,0.4c0.4,0.3,0.8,0.6,1.1,0.9c0.7,0.8,1.4,2.2,0.6,3.2c-0.3,0.4-0.8,0.5-1.3,0.4c-0.5-0.1-1-0.3-1.3-0.6
			c-0.6-0.4-1.1-1-1.6-1.7c-0.5-0.7-0.9-1.4-1.2-2L39,7.8c-0.6,0.2-1.1,0.5-1.7,0.7l-0.8,0.4l-0.8,0.4l-0.8,0.4
			c-0.3,0.1-0.6,0.3-0.8,0.4l-0.6,0.3c0.3,0,0.6,0,0.9,0c0.3,0,0.6,0.1,0.9,0.2c0.6,0.1,1.2,0.4,1.7,0.8c0.4,0.3,0.9,0.8,1.2,1.4
			c0.3,0.6,0.4,1.2,0,1.7c-0.4,0.5-1,0.5-1.7,0.4c-0.7-0.1-1.4-0.4-1.8-0.7c-0.6-0.3-1.2-0.7-1.7-1.2c-0.5-0.5-0.9-1-1.2-1.6
			c-1,0.6-2,1.2-2.9,1.9c-1,0.6-1.9,1.4-2.8,2.1c0.6-0.1,1.2-0.2,1.8-0.2c0.3,0,0.6,0,0.9,0c0.3,0,0.6,0.1,0.9,0.2
			c1.1,0.3,1.8,1,1.7,2.2c0,0.3-0.1,0.5-0.2,0.7c-0.1,0.2-0.3,0.3-0.5,0.5c-0.4,0.2-0.9,0.3-1.3,0.3c-0.4,0-0.8-0.2-1.2-0.3
			c-0.4-0.2-0.8-0.4-1.2-0.6c-0.8-0.5-1.6-1-2.3-1.4c0,0-0.1,0-0.1-0.1L24,17.1l-0.7,0.6c-0.4,0.4-0.9,0.8-1.3,1.2l-1.2,1.3
			l-0.3,0.3l-0.3,0.3l-0.6,0.7c0.6-0.2,1.1-0.3,1.7-0.4c0.6-0.1,1.2-0.1,1.7,0.1c1,0.2,2.5,0.9,2.5,2.2c0,0.8-0.5,1.1-1.1,1.3
			c-0.6,0.2-1.4,0.2-1.9,0.1c-0.4,0-0.8-0.1-1.1-0.2c-0.4-0.1-0.7-0.2-1.1-0.3c-0.7-0.3-1.4-0.6-2-1c-1.8,2.1-3.4,4.3-4.8,6.6
			c0.7-0.4,1.4-0.8,2.1-1c0.8-0.2,1.5-0.3,2.3-0.3c1.2,0,2.9,0.9,2.4,2.3c-0.1,0.4-0.4,0.6-0.7,0.8c-0.3,0.2-0.7,0.3-1.2,0.3
			c-0.9,0.1-1.8,0-2.5,0c-0.3,0-0.9-0.1-1.6-0.2c-0.6-0.1-1.3-0.3-1.4-0.7c-0.1,0-0.1,0-0.2,0c-1.9,3.4-3.5,6.9-4.8,10.6
			c0.9-1.1,1.8-2.1,3.1-2.4c1.2-0.3,2.7-0.1,3.6,0.8c0.6,0.6,0.4,1.1,0,1.4c-0.4,0.3-1.1,0.6-1.6,0.7c-0.8,0.2-1.6,0.4-2.5,0.5
			c-0.8,0.1-1.7,0.1-2.5,0c0,0-0.1,0.1-0.1,0.1c-0.1,0.2-0.3,0.2-0.4,0.1c-1,3.2-1.7,6.4-2.1,9.7C6,52,6.4,51.6,7,51.3
			C7.5,51,8,50.7,8.6,50.5c0.4-0.1,1.1-0.4,1.8-0.4c0.7-0.1,1.3,0.1,1.6,0.6c0.3,0.5,0.1,0.9-0.3,1.3c-0.4,0.3-0.9,0.6-1.3,0.7
			c-1.6,0.6-3.3,0.9-5,0.8c-0.1,0.5-0.1,1-0.1,1.5c0,0.1,0,0.1,0,0.2l-0.1,1.2c0,0.4-0.7,0.4-0.7,0L4.6,55c-0.3-1.2-0.9-2.1-1.6-3
			c-0.7-0.9-1.5-1.8-2.1-2.8c-0.3-0.5-0.6-1.2-0.6-1.9c0-0.7,0.2-1.3,0.9-1.6c1.4-0.7,2.3,0.1,2.8,1.4c0.1,0.3,0.3,0.7,0.4,1
			c0.1,0.2,0.1,0.4,0.1,0.6c0.1,0.2,0.1,0.4,0.1,0.6c0.2,0.8,0.3,1.6,0.4,2.3c0.5-3.2,1.2-6.3,2.1-9.3c-0.6-0.6-1.3-1.2-1.9-1.9
			C4.5,39.7,4,38.9,3.7,38c-0.1-0.3-0.2-0.6-0.2-0.9c0-0.3,0-0.6,0-1c0.1-0.6,0.4-1.2,1-1.5c0.6-0.3,1.1-0.2,1.5,0.2
			c0.2,0.2,0.3,0.4,0.5,0.6c0.1,0.2,0.2,0.5,0.3,0.8c0.1,0.5,0.2,1,0.2,1.5C7,38,7,38.2,7.1,38.5c0,0.3,0.1,0.5,0.1,0.7
			c0.1,0.5,0.2,1,0.3,1.5l0.2-0.5c1.2-3.4,2.7-6.7,4.6-9.9c0,0-0.1,0-0.1-0.1c-0.2-0.2-0.6-0.6-1-1.2c-0.4-0.5-0.8-1.2-1.1-1.8
			c-0.3-0.6-0.4-1.3-0.3-1.8c0-0.1,0.1-0.2,0.1-0.4c0.1-0.1,0.2-0.2,0.3-0.3c0.2-0.2,0.5-0.3,0.9-0.3c1.3-0.2,1.7,0.5,1.9,1.4
			c0.1,0.5,0.1,1,0,1.5c0,0.5-0.1,1.1-0.1,1.6l0.5-0.9l0.3-0.4c0.1-0.1,0.2-0.3,0.3-0.4l1.2-1.7l1.2-1.6c0.2-0.3,0.4-0.5,0.6-0.8
			l0.7-0.8c0,0-0.1,0-0.1-0.1c-0.2-0.2-0.5-0.6-0.7-1.2c-0.3-0.5-0.6-1.2-0.7-1.8c-0.2-0.6-0.2-1.2-0.1-1.7c0.1-0.2,0.2-0.4,0.4-0.6
			c0.2-0.2,0.4-0.3,0.8-0.3c1.1-0.1,1.4,0.7,1.5,1.6c0.1,1-0.1,2.2-0.2,3l1.3-1.5c0.5-0.5,0.9-0.9,1.4-1.4c0.5-0.5,1-0.9,1.4-1.4
			l0.7-0.7c0.2-0.2,0.5-0.4,0.8-0.6l0,0c-0.9-2.1-1.4-4.5-1.1-6.9c0-0.3,0.1-0.7,0.3-1c0.1-0.2,0.1-0.3,0.2-0.5
			c0.1-0.2,0.2-0.3,0.3-0.4c0.5-0.5,1.2-0.8,2-0.5c0.8,0.3,1.1,1,1.2,1.7c0.1,0.8-0.1,1.6-0.3,2.3c-0.1,0.4-0.3,0.7-0.5,1.1
			c-0.2,0.4-0.3,0.8-0.5,1.1c-0.2,0.4-0.3,0.7-0.4,1.1c-0.1,0.2-0.1,0.4-0.2,0.6c0,0.2-0.1,0.4-0.1,0.6l0.4-0.3l0.4-0.3l0.8-0.6
			l0.8-0.6c0.3-0.2,0.5-0.4,0.8-0.5c0.5-0.4,1-0.7,1.6-1.1l1.6-1c-0.1-0.8-0.1-1.7,0.1-2.5c0.2-0.8,0.5-1.6,0.9-2.4
			c0.3-0.5,0.8-1.3,1.4-1.8c0.1-0.1,0.3-0.3,0.5-0.4c0.2-0.1,0.3-0.2,0.5-0.3c0.4-0.1,0.7-0.2,1.1-0.2c1.3,0.2,1.2,1.4,0.6,2.3
			c-0.3,0.5-0.7,0.9-1.1,1.3c-0.4,0.4-0.8,0.8-1.1,1.3c-0.2,0.3-0.5,0.6-0.7,0.9L32.8,10c2.4-1.3,4.9-2.5,7.5-3.5l0,0
			c-0.1-0.8-0.1-1.6,0.1-2.4c0.2-0.8,0.5-1.5,0.9-2.2c0.2-0.2,0.3-0.5,0.6-0.7c0.1-0.1,0.2-0.2,0.4-0.4c0.1-0.1,0.3-0.2,0.4-0.3
			c0.6-0.4,1.2-0.6,1.9-0.4c0.7,0.2,1,0.7,1,1.2c0,0.5-0.3,1.2-0.6,1.6c-0.4,0.6-0.9,1.1-1.5,1.6c-0.5,0.5-1.1,0.9-1.7,1.3L42,5.9
			c2.2-0.8,4.5-1.3,6.8-1.8C48.8,4,49,3.8,49.2,3.9c0,0,0,0,0.1-0.1c0-0.1,0.1-0.1,0.2-0.2C49.6,3.5,49.8,3.2,50,3
			c0.4-0.5,0.9-1,1-1.1c0.7-0.6,1.4-1.1,2.2-1.5C53.7,0.1,54.4,0,54.9,0c0.6,0,1.1,0.2,1.5,0.7c0.4,0.6,0.3,1.1,0,1.7
			C56.1,2.9,55.6,3.3,55,3.5z M6,52.9c0.8,0,1.6-0.1,2.5-0.3c0.6-0.1,1.1-0.3,1.7-0.5c0.2-0.1,0.4-0.2,0.6-0.3
			c0.7-1,0.6-1.3-0.3-1.1c-0.8,0.1-1.6,0.3-2.4,0.7C7.3,51.8,6.6,52.3,6,52.9z M3.7,48.5c-0.2-0.7-0.4-1.5-0.9-2
			c-0.3-0.3-0.9-0.5-1.4-0.3c-0.8,0.4-0.6,1.3-0.3,2c0.4,1,1,1.8,1.6,2.6c0.3,0.4,0.6,0.8,0.9,1.1c0.3,0.4,0.6,0.8,0.8,1.2
			c0-0.4-0.1-0.8-0.1-1.2c-0.1-0.4-0.1-0.8-0.2-1.2C4.1,50,3.9,49.3,3.7,48.5z M8.5,41.8c1,0.1,2,0,2.9-0.1c0.6-0.1,1.1-0.2,1.7-0.4
			c0.2,0,0.6-0.1,0.7-0.2c0.1-0.3,0.1-0.7,0.2-1l-0.4-0.3c-1-0.5-1.9-0.4-2.8,0.1C9.9,40.3,9.1,41.1,8.5,41.8z M7,41.2
			c-0.2-0.8-0.4-1.6-0.5-2.4c-0.1-0.6-0.2-1.2-0.2-1.8c0-0.3-0.1-0.6-0.2-0.9l-0.4-0.7l-1.1,0.1c-0.3,0.2-0.4,0.7-0.4,1.1
			c0,0.4,0.1,0.9,0.2,1.2c0.2,0.6,0.6,1,0.9,1.5C5.8,40,6.4,40.6,7,41.2z M13.5,30.4c0,0.1,0,0.2,0,0.2c0,0,0.7,0.1,1.5,0.2
			c0.7,0.1,1.5,0.3,1.7,0.3c0.4,0,1.5,0,2.2-0.2c0.8-0.2,1.2-0.6,0.2-1.5c-0.8-0.7-2.2-0.4-3.1-0.1C15.1,29.5,14.3,29.9,13.5,30.4z
			 M12.4,26.2c0-0.3-0.2-0.6-0.5-0.8c-0.3-0.2-0.6-0.2-0.8-0.1c-0.1,0.1-0.2,0.2-0.3,0.3c-0.1,0.2-0.2,0.4-0.3,0.6
			c0,0.3,0.3,0.9,0.4,1.1c0.4,0.7,0.8,1.4,1.4,2c0-0.5,0.1-1.1,0.2-1.6c0-0.3,0-0.5,0-0.8C12.5,26.7,12.5,26.4,12.4,26.2z
			 M17.9,21.5c0-0.5,0.1-0.9,0.1-1.4c0.1-0.7,0.3-1.6-0.1-2.1c-0.2-0.5-0.5-0.5-1,0.2l0,0.9c0,0.4,0.2,0.8,0.3,1.1
			C17.4,20.7,17.6,21.1,17.9,21.5z M18.6,22.5L18.6,22.5c0.4,0.4,0.9,0.6,1.5,0.9c0.5,0.2,1.1,0.4,1.6,0.5c0.5,0.1,1.1,0.2,1.6,0.2
			c0.2,0,0.5-0.1,0.7-0.1c0.2-0.1,0.5-0.2,0.6-0.4c0.3-0.4-0.2-1-0.5-1.3c-0.8-0.6-1.7-0.7-2.7-0.6c-0.5,0.1-1,0.2-1.5,0.3
			c-0.2,0.1-0.5,0.2-0.7,0.2c-0.1,0-0.2,0.1-0.3,0.1C18.9,22.4,18.7,22.5,18.6,22.5z M24.6,14.9c0.2-0.9,0.6-1.7,0.9-2.6
			c0.2-0.4,0.4-0.9,0.5-1.3c0.2-0.4,0.3-0.9,0.4-1.3c0.1-0.4,0.1-0.8,0-1.2c-0.1-0.5-0.5-1-1-1.2c-0.5-0.1-1.1,0.1-1.5,1
			c-0.3,0.8-0.2,1.8-0.2,2.6c0,0.7,0.1,1.3,0.2,2C24.2,13.6,24.3,14.3,24.6,14.9z M25.4,16.2c0.8,0.4,1.6,0.9,2.3,1.4
			c0.4,0.2,0.8,0.5,1.2,0.6c0.3,0.1,1,0.2,1.4,0c0.1,0,0.2-0.1,0.3-0.2c0.1-0.1,0.1-0.2,0.2-0.3c0.1-0.2,0-0.5-0.2-0.9
			c-0.2-0.4-0.5-0.6-0.9-0.8c-0.4-0.2-0.9-0.3-1.4-0.3C27.3,15.7,26.2,15.9,25.4,16.2z M32,10l1-1.3c0.2-0.2,0.3-0.4,0.5-0.6L34,7.5
			l1.2-1.4c0.2-0.2,0.4-0.4,0.5-0.6l0.2-0.3c-0.4-0.3-0.9-0.6-1.3-0.9c-0.4,0.1-1.1,1.2-1.3,1.5c-0.3,0.5-0.6,1-0.8,1.5
			C32.2,8.2,32,9.1,32,10z M32.5,11.2c0.4,0.8,1,1.4,1.7,2c0.4,0.3,0.9,0.6,1.4,0.8c0.2,0.1,0.5,0.1,0.7,0.2c0.6,0.2,0.5,0.2,1-0.4
			c0.5-0.6,0.4-0.7,0-1.2c-0.2-0.2-0.4-0.4-0.6-0.6c-0.5-0.4-1.1-0.6-1.7-0.7C34.1,11.1,33.3,11.1,32.5,11.2z M40.9,5.6
			c0.4-0.3,0.9-0.6,1.3-0.9c0.2-0.2,0.4-0.3,0.6-0.5C42.9,4.1,43,4,43.1,3.9c0.1-0.1,0.2-0.2,0.3-0.3C43.7,3.3,44,3,44.3,2.6
			c0.3-0.4,0.5-0.8,0.4-1.3c-0.4-0.6-1-0.7-1.5-0.3c-0.8,0.4-1.4,1.2-1.7,2C41.1,3.8,40.9,4.8,40.9,5.6z M42,6.6l-0.6,0.2
			c0.4,0.8,1.2,2,1.9,2.9c0.8,0.9,1.5,1.3,2.2,0.7c0.5-0.5,0.3-1-0.1-1.6c-0.3-0.5-0.8-1-1.4-1.3C43.4,7.1,42.7,6.8,42,6.6z
			 M51.5,5.7c-0.8-0.4-1.6-0.7-2.4-1c0,0,0,0,0,0l-0.2,0l0,0c0.5,0.9,1,1.8,1.7,2.6c0.4,0.4,0.7,0.7,1.2,0.9
			c0.3,0.1,0.5,0.3,0.8,0.3c0.3,0.2,0.6,0,0.8-0.4C53.9,8,54,7.7,53.6,7.3c-0.2-0.2-0.4-0.5-0.6-0.7C52.5,6.3,52,6,51.5,5.7z
			 M53.4,1c-1.2,0.6-2.3,1.5-3.1,2.6C50.2,3.8,50.1,3.9,50,4c0.3,0,0.6-0.1,1-0.1c0.3-0.1,0.6-0.1,1-0.2c0.6-0.1,1.3-0.3,1.9-0.5
			c0.7-0.2,1.9-0.6,2-1.4C56,1,55.6,0.7,55,0.7C54.4,0.6,53.7,0.8,53.4,1z"/>
	</g>
	<g>
		<path class="st0" d="M109.8,55c-0.2-0.3-0.3-0.7-0.4-1c-0.1-0.4-0.2-0.7-0.3-1.1c-0.1-0.4-0.2-0.7-0.2-1.1c0-0.2-0.1-0.4-0.1-0.6
			c0-0.2-0.1-0.4-0.1-0.6c-0.2,0.6-0.5,1.2-0.9,1.8c-0.3,0.5-0.7,1-1.2,1.4c-0.6,0.5-1.8,1-2.4,0.3c-0.4-0.4-0.4-0.9-0.3-1.5
			c0.1-0.3,0.2-0.5,0.3-0.8c0.1-0.3,0.2-0.5,0.4-0.7c0.4-0.7,1-1.2,1.6-1.7c0.3-0.2,0.7-0.5,1-0.7c0.3-0.2,0.7-0.4,1-0.6
			c0.1,0,0.1,0,0.2,0l-0.3-1.3c-0.1-0.4-0.2-0.9-0.3-1.3l-0.4-1.3l-0.2-0.6c-0.1-0.2-0.1-0.4-0.2-0.6c-0.1,0.2-0.2,0.5-0.3,0.7
			c-0.1,0.2-0.2,0.4-0.4,0.6c-0.3,0.4-0.6,0.8-0.9,1.1c-0.8,0.7-2.2,1.4-3.2,0.6c-0.4-0.3-0.5-0.8-0.4-1.3c0.1-0.5,0.3-1,0.6-1.3
			c0.4-0.6,1-1.1,1.7-1.6c0.7-0.5,1.4-0.9,2-1.2l-0.7-1.7c-0.2-0.6-0.5-1.1-0.7-1.7l-0.4-0.8l-0.4-0.8l-0.4-0.8
			c-0.1-0.3-0.3-0.6-0.4-0.8l-0.3-0.6c0,0.3,0,0.6,0,0.9c0,0.3-0.1,0.6-0.2,0.9c-0.1,0.6-0.4,1.2-0.8,1.7c-0.3,0.4-0.8,0.9-1.4,1.2
			c-0.6,0.3-1.2,0.4-1.7,0c-0.5-0.4-0.5-1-0.4-1.7c0.1-0.7,0.4-1.4,0.7-1.8c0.3-0.6,0.7-1.2,1.2-1.7c0.5-0.5,1-0.9,1.6-1.2
			c-0.6-1-1.2-2-1.9-2.9c-0.6-1-1.4-1.9-2.1-2.8c0.1,0.6,0.2,1.2,0.2,1.8c0,0.3,0,0.6,0,0.9c0,0.3-0.1,0.6-0.2,0.9
			c-0.3,1.1-1,1.8-2.2,1.7c-0.3,0-0.5-0.1-0.7-0.2c-0.2-0.1-0.3-0.3-0.5-0.5c-0.2-0.4-0.3-0.9-0.3-1.3c0-0.4,0.2-0.8,0.3-1.2
			c0.2-0.4,0.4-0.8,0.6-1.2c0.5-0.8,1-1.6,1.4-2.3c0,0,0-0.1,0.1-0.1L96.2,24l-0.6-0.7c-0.4-0.4-0.8-0.9-1.2-1.3l-1.3-1.2l-0.3-0.3
			l-0.3-0.3l-0.7-0.6c0.2,0.6,0.3,1.1,0.4,1.7c0.1,0.6,0.1,1.2-0.1,1.7c-0.2,1-0.9,2.5-2.2,2.5c-0.8,0-1.1-0.5-1.3-1.1
			c-0.2-0.6-0.2-1.4-0.1-1.9c0-0.4,0.1-0.8,0.2-1.1c0.1-0.4,0.2-0.7,0.3-1.1c0.3-0.7,0.6-1.4,1-2c-2.1-1.8-4.3-3.4-6.6-4.8
			c0.4,0.7,0.8,1.4,1,2.1c0.2,0.8,0.3,1.5,0.3,2.3c0,1.2-0.9,2.9-2.3,2.4c-0.4-0.1-0.6-0.4-0.8-0.7c-0.2-0.3-0.3-0.7-0.3-1.2
			c-0.1-0.9,0-1.8,0-2.5c0-0.3,0.1-0.9,0.2-1.6c0.1-0.6,0.3-1.3,0.7-1.4c0-0.1,0-0.1,0-0.2c-3.4-1.9-6.9-3.5-10.6-4.8
			c1.1,0.9,2.1,1.8,2.4,3.1c0.3,1.2,0.1,2.7-0.8,3.6c-0.6,0.6-1.1,0.4-1.4,0c-0.3-0.4-0.6-1.1-0.7-1.6c-0.2-0.8-0.4-1.6-0.5-2.5
			c-0.1-0.8-0.1-1.7,0-2.5c0,0-0.1-0.1-0.1-0.1c-0.2-0.1-0.2-0.3-0.1-0.4c-3.2-1-6.4-1.7-9.7-2.1C61.3,6,61.7,6.4,62,7
			c0.3,0.5,0.6,1.1,0.8,1.7c0.1,0.4,0.4,1.1,0.4,1.8c0.1,0.7-0.1,1.3-0.6,1.6c-0.5,0.3-0.9,0.1-1.3-0.3c-0.3-0.4-0.6-0.9-0.7-1.3
			c-0.6-1.6-0.9-3.3-0.8-5c-0.5-0.1-1-0.1-1.5-0.1c-0.1,0-0.1,0-0.2,0L57,5.1c-0.4,0-0.4-0.7,0-0.7l1.3,0.1c1.2-0.3,2.1-0.9,3-1.6
			c0.9-0.7,1.8-1.5,2.8-2.1c0.5-0.3,1.2-0.6,1.9-0.6c0.7,0,1.3,0.2,1.6,0.9c0.7,1.4-0.1,2.3-1.4,2.8c-0.3,0.1-0.7,0.3-1,0.4
			c-0.2,0.1-0.4,0.1-0.6,0.1c-0.2,0.1-0.4,0.1-0.6,0.1c-0.8,0.2-1.6,0.3-2.3,0.4C65,5.4,68.1,6.1,71.1,7c0.6-0.6,1.2-1.3,1.9-1.9
			c0.7-0.6,1.4-1.1,2.3-1.4c0.3-0.1,0.6-0.2,0.9-0.2c0.3,0,0.6,0,1,0c0.6,0.1,1.2,0.4,1.5,1C79,5.1,78.8,5.6,78.5,6
			c-0.2,0.2-0.4,0.3-0.6,0.5c-0.2,0.1-0.5,0.2-0.8,0.3c-0.5,0.1-1,0.2-1.5,0.2c-0.3,0-0.5,0.1-0.8,0.1c-0.3,0-0.5,0.1-0.7,0.1
			c-0.5,0.1-1,0.2-1.5,0.3l0.5,0.2c3.4,1.2,6.7,2.7,9.9,4.6c0,0,0-0.1,0.1-0.1c0.2-0.2,0.6-0.6,1.2-1c0.5-0.4,1.2-0.8,1.8-1.1
			c0.6-0.3,1.3-0.4,1.8-0.3c0.1,0,0.2,0.1,0.4,0.1c0.1,0.1,0.2,0.2,0.3,0.3c0.2,0.2,0.3,0.5,0.3,0.9c0.2,1.3-0.5,1.7-1.4,1.9
			c-0.5,0.1-1,0.1-1.5,0c-0.5,0-1.1-0.1-1.6-0.1l0.9,0.5l0.4,0.3c0.1,0.1,0.3,0.2,0.4,0.3l1.7,1.2l1.6,1.2c0.3,0.2,0.5,0.4,0.8,0.6
			l0.8,0.7c0,0,0-0.1,0.1-0.1c0.2-0.2,0.6-0.5,1.2-0.7c0.5-0.3,1.2-0.6,1.8-0.7c0.6-0.2,1.2-0.2,1.7-0.1c0.2,0.1,0.4,0.2,0.6,0.4
			c0.2,0.2,0.3,0.4,0.3,0.8c0.1,1.1-0.7,1.4-1.6,1.5c-1,0.1-2.2-0.1-3-0.2l1.5,1.3c0.5,0.5,0.9,0.9,1.4,1.4c0.5,0.5,0.9,1,1.4,1.4
			l0.7,0.7c0.2,0.2,0.4,0.5,0.6,0.8l0,0c2.1-0.9,4.5-1.4,6.9-1.1c0.3,0,0.7,0.1,1,0.3c0.2,0.1,0.3,0.1,0.5,0.2
			c0.2,0.1,0.3,0.2,0.4,0.3c0.5,0.5,0.8,1.2,0.5,2c-0.3,0.8-1,1.1-1.7,1.2c-0.8,0.1-1.6-0.1-2.3-0.3c-0.4-0.1-0.7-0.3-1.1-0.5
			c-0.4-0.2-0.8-0.3-1.1-0.5c-0.4-0.2-0.7-0.3-1.1-0.4c-0.2-0.1-0.4-0.1-0.6-0.2c-0.2,0-0.4-0.1-0.6-0.1l0.3,0.4l0.3,0.4l0.6,0.8
			l0.6,0.8c0.2,0.3,0.4,0.5,0.5,0.8c0.4,0.5,0.7,1,1.1,1.6l1,1.6c0.8-0.1,1.7-0.1,2.5,0.1c0.8,0.2,1.6,0.5,2.4,0.9
			c0.5,0.3,1.3,0.8,1.8,1.4c0.1,0.1,0.3,0.3,0.4,0.5c0.1,0.2,0.2,0.3,0.3,0.5c0.1,0.4,0.2,0.7,0.2,1.1c-0.2,1.3-1.4,1.2-2.3,0.6
			c-0.5-0.3-0.9-0.7-1.3-1.1c-0.4-0.4-0.8-0.8-1.3-1.1c-0.3-0.2-0.6-0.5-0.9-0.7l-0.9-0.7c1.3,2.4,2.5,4.9,3.5,7.5l0,0
			c0.8-0.1,1.6-0.1,2.4,0.1c0.8,0.2,1.5,0.5,2.2,0.9c0.2,0.2,0.5,0.3,0.7,0.6c0.1,0.1,0.2,0.2,0.4,0.4c0.1,0.1,0.2,0.3,0.3,0.4
			c0.4,0.6,0.6,1.2,0.4,1.9c-0.2,0.7-0.7,1-1.2,1c-0.5,0-1.2-0.3-1.6-0.6c-0.6-0.4-1.1-0.9-1.6-1.5c-0.5-0.5-0.9-1.1-1.3-1.7
			l-0.1,0.3c0.8,2.2,1.3,4.5,1.8,6.8c0.2,0.1,0.3,0.2,0.2,0.4c0,0,0,0,0.1,0.1c0.1,0,0.1,0.1,0.2,0.2c0.2,0.1,0.4,0.3,0.7,0.6
			c0.5,0.4,1,0.9,1.1,1c0.6,0.7,1.1,1.4,1.5,2.2c0.2,0.5,0.4,1.1,0.4,1.7c0,0.6-0.2,1.1-0.7,1.5c-0.6,0.4-1.1,0.3-1.7,0
			C110.4,56.1,110,55.6,109.8,55z M60.4,6c0,0.8,0.1,1.6,0.3,2.5c0.1,0.6,0.3,1.1,0.5,1.7c0.1,0.2,0.2,0.4,0.3,0.6
			c1,0.7,1.3,0.6,1.1-0.3c-0.1-0.8-0.3-1.6-0.7-2.4C61.5,7.3,61,6.6,60.4,6z M64.8,3.7c0.7-0.2,1.5-0.4,2-0.9
			c0.3-0.3,0.5-0.9,0.3-1.4c-0.4-0.8-1.3-0.6-2-0.3c-1,0.4-1.8,1-2.6,1.6c-0.4,0.3-0.8,0.6-1.1,0.9C61,4,60.6,4.2,60.2,4.5
			c0.4,0,0.8-0.1,1.2-0.1c0.4-0.1,0.8-0.1,1.2-0.2C63.3,4.1,64,3.9,64.8,3.7z M71.5,8.5c-0.1,1,0,2,0.1,2.9c0.1,0.6,0.2,1.1,0.4,1.7
			c0,0.2,0.1,0.6,0.2,0.7c0.3,0.1,0.7,0.1,1,0.2l0.3-0.4c0.5-1,0.4-1.9-0.1-2.8C73,9.9,72.2,9.1,71.5,8.5z M72.1,7
			c0.8-0.2,1.6-0.4,2.4-0.5c0.6-0.1,1.2-0.2,1.8-0.2c0.3,0,0.6-0.1,0.9-0.2l0.7-0.4l-0.1-1.1c-0.2-0.3-0.7-0.4-1.1-0.4
			c-0.4,0-0.9,0.1-1.2,0.2c-0.6,0.2-1,0.6-1.5,0.9C73.3,5.8,72.7,6.4,72.1,7z M82.9,13.5c-0.1,0-0.2,0-0.2,0c0,0-0.1,0.7-0.2,1.5
			c-0.1,0.7-0.3,1.5-0.3,1.7c0,0.4,0,1.5,0.2,2.2c0.2,0.8,0.6,1.2,1.5,0.2c0.7-0.8,0.4-2.2,0.1-3.1C83.8,15.1,83.4,14.3,82.9,13.5z
			 M87.1,12.4c0.3,0,0.6-0.2,0.8-0.5c0.2-0.3,0.2-0.6,0.1-0.8c-0.1-0.1-0.2-0.2-0.3-0.3c-0.2-0.1-0.4-0.2-0.6-0.3
			c-0.3,0-0.9,0.3-1.1,0.4c-0.7,0.4-1.4,0.8-2,1.4c0.5,0,1.1,0.1,1.6,0.2c0.3,0,0.5,0,0.8,0C86.6,12.5,86.9,12.5,87.1,12.4z
			 M91.8,17.9c0.5,0,0.9,0.1,1.4,0.1c0.7,0.1,1.6,0.3,2.1-0.1c0.5-0.2,0.5-0.5-0.2-1l-0.9,0c-0.4,0-0.8,0.2-1.1,0.3
			C92.6,17.4,92.2,17.6,91.8,17.9z M90.8,18.6L90.8,18.6c-0.4,0.4-0.6,0.9-0.9,1.5c-0.2,0.5-0.4,1.1-0.5,1.6
			c-0.1,0.5-0.2,1.1-0.2,1.6c0,0.2,0.1,0.5,0.1,0.7c0.1,0.2,0.2,0.5,0.4,0.6c0.4,0.3,1-0.2,1.3-0.5c0.6-0.8,0.7-1.7,0.6-2.7
			c-0.1-0.5-0.2-1-0.3-1.5c-0.1-0.2-0.2-0.5-0.2-0.7c0-0.1-0.1-0.2-0.1-0.3C90.9,18.9,90.8,18.7,90.8,18.6z M98.4,24.6
			c0.9,0.2,1.7,0.6,2.6,0.9c0.4,0.2,0.9,0.4,1.3,0.5c0.4,0.2,0.9,0.3,1.3,0.4c0.4,0.1,0.8,0.1,1.2,0c0.5-0.1,1-0.5,1.2-1
			c0.1-0.5-0.1-1.1-1-1.5c-0.8-0.3-1.8-0.2-2.6-0.2c-0.7,0-1.3,0.1-2,0.2C99.7,24.2,99,24.3,98.4,24.6z M97.1,25.4
			c-0.4,0.8-0.9,1.6-1.4,2.3c-0.2,0.4-0.5,0.8-0.6,1.2c-0.1,0.3-0.2,1,0,1.4c0,0.1,0.1,0.2,0.2,0.3c0.1,0.1,0.2,0.1,0.3,0.2
			c0.2,0.1,0.5,0,0.9-0.2c0.4-0.2,0.6-0.5,0.8-0.9c0.2-0.4,0.3-0.9,0.3-1.4C97.6,27.3,97.4,26.2,97.1,25.4z M103.3,32l1.3,1
			c0.2,0.2,0.4,0.3,0.6,0.5l0.6,0.5l1.4,1.2c0.2,0.2,0.4,0.4,0.6,0.5l0.3,0.2c0.3-0.4,0.6-0.9,0.9-1.3c-0.1-0.4-1.2-1.1-1.5-1.3
			c-0.5-0.3-1-0.6-1.5-0.8C105.1,32.2,104.2,32,103.3,32z M102.1,32.5c-0.8,0.4-1.4,1-2,1.7c-0.3,0.4-0.6,0.9-0.8,1.4
			c-0.1,0.2-0.1,0.5-0.2,0.7c-0.2,0.6-0.2,0.5,0.4,1c0.6,0.5,0.7,0.4,1.2,0c0.2-0.2,0.4-0.4,0.6-0.6c0.4-0.5,0.6-1.1,0.7-1.7
			C102.2,34.1,102.2,33.3,102.1,32.5z M107.7,40.9c0.3,0.4,0.6,0.9,0.9,1.3c0.2,0.2,0.3,0.4,0.5,0.6c0.1,0.1,0.2,0.2,0.3,0.3
			c0.1,0.1,0.2,0.2,0.3,0.3c0.3,0.3,0.7,0.7,1.1,0.9c0.4,0.3,0.8,0.5,1.3,0.4c0.6-0.4,0.7-1,0.3-1.5c-0.4-0.8-1.2-1.4-2-1.7
			C109.5,41.1,108.5,40.9,107.7,40.9z M106.7,42l-0.2-0.6c-0.8,0.4-2,1.2-2.9,1.9c-0.9,0.8-1.3,1.5-0.7,2.2c0.5,0.5,1,0.3,1.6-0.1
			c0.5-0.3,1-0.8,1.3-1.4C106.2,43.4,106.5,42.7,106.7,42z M107.6,51.5c0.4-0.8,0.7-1.6,1-2.4c0,0,0,0,0,0l0-0.2l0,0
			c-0.9,0.5-1.8,1-2.6,1.7c-0.4,0.4-0.7,0.7-0.9,1.2c-0.1,0.3-0.3,0.5-0.3,0.8c-0.2,0.3,0,0.6,0.4,0.8c0.2,0.5,0.6,0.6,0.9,0.2
			c0.2-0.2,0.5-0.4,0.7-0.6C107,52.5,107.3,52,107.6,51.5z M112.3,53.4c-0.6-1.2-1.5-2.3-2.6-3.1c-0.1-0.1-0.2-0.2-0.4-0.3
			c0,0.3,0.1,0.6,0.1,1c0.1,0.3,0.1,0.6,0.2,1c0.1,0.6,0.3,1.3,0.5,1.9c0.2,0.7,0.6,1.9,1.4,2c0.8,0.1,1.1-0.3,1.1-0.9
			C112.7,54.4,112.5,53.7,112.3,53.4z"/>
	</g>
</g>
</svg>
