<?xml version="1.0" encoding="utf-8"?>
<!-- Generator: Adobe Illustrator 22.1.0, SVG Export Plug-In . SVG Version: 6.00 Build 0)  -->
<svg version="1.1" id="レイヤー_1" xmlns="http://www.w3.org/2000/svg" xmlns:xlink="http://www.w3.org/1999/xlink" x="0px"
	 y="0px" viewBox="0 0 152.2 188.8" style="enable-background:new 0 0 152.2 188.8;" xml:space="preserve">
<style type="text/css">
	.st0{fill:#ECECEC;}
	.st1{fill:#69C9EC;}
	.st2{fill:#ED584F;}
	.st3{fill:#746F6B;}
	.st4{fill:#231F20;}
</style>
<g>
	<polygon class="st0" points="138.6,123.3 129.9,123.3 129.9,185.1 22.4,185.1 22.4,123.3 13.7,123.3 52,106.9 52,64.5 100.2,64.5 
		100.2,106.9 	"/>
	<rect x="66.8" y="79.3" class="st1" width="18.5" height="21.1"/>
	<polygon class="st2" points="45.5,64.5 76.1,30.8 106.7,64.5 	"/>
	<path class="st3" d="M76.1,129.5L76.1,129.5c-8.7,0-15.8,7.1-15.8,15.8v39.8h31.5v-39.8C91.9,136.6,84.8,129.5,76.1,129.5z"/>
	<g>
		<path class="st4" d="M85.4,75.6H66.8c-2,0-3.7,1.7-3.7,3.7v21.1c0,2,1.7,3.7,3.7,3.7h18.5c2,0,3.7-1.7,3.7-3.7V79.3
			C89.1,77.3,87.4,75.6,85.4,75.6z M81.7,96.7H70.5V83h11.1V96.7z"/>
		<path class="st4" d="M148.5,181.4h-14.9V127h5c1.8,0,3.3-1.2,3.6-3c0.4-1.7-0.6-3.5-2.2-4.2l-36.1-15.4V68.2h2.8
			c1.5,0,2.8-0.9,3.4-2.2s0.3-2.9-0.6-4L79.8,29.3v-11h6.7c2,0,3.7-1.7,3.7-3.7s-1.7-3.7-3.7-3.7h-6.7V3.7c0-2-1.7-3.7-3.7-3.7
			s-3.7,1.7-3.7,3.7v7.2h-6.7c-2,0-3.7,1.7-3.7,3.7s1.7,3.7,3.7,3.7h6.7v11L42.8,62c-1,1.1-1.2,2.7-0.6,4s1.9,2.2,3.4,2.2h2.8v36.2
			l-36.1,15.4c-1.6,0.7-2.5,2.4-2.2,4.2c0.4,1.7,1.9,3,3.6,3h5v54.5H3.7c-2,0-3.7,1.7-3.7,3.7s1.7,3.7,3.7,3.7h144.8
			c2,0,3.7-1.7,3.7-3.7S150.6,181.4,148.5,181.4z M76.1,36.3l22.2,24.5H53.9L76.1,36.3z M88.2,181.4H64.1v-36.1c0-6.6,5.4-12,12-12
			c6.6,0,12,5.4,12,12V181.4z M95.6,181.4v-36.1c0-10.7-8.7-19.5-19.5-19.5s-19.5,8.7-19.5,19.5v36.1H26.1V122l27.4-11.7
			c1.4-0.6,2.2-1.9,2.2-3.4V68.2h40.8v38.7c0,1.5,0.9,2.8,2.2,3.4l27.4,11.7v59.4H95.6z"/>
		<path class="st4" d="M110.4,135.8c-2,0-3.7,1.7-3.7,3.7v11.9c0,2,1.7,3.7,3.7,3.7s3.7-1.7,3.7-3.7v-11.9
			C114.1,137.4,112.4,135.8,110.4,135.8z"/>
		<path class="st4" d="M110.4,163.6c-2,0-3.7,1.7-3.7,3.7v1.5c0,2,1.7,3.7,3.7,3.7s3.7-1.7,3.7-3.7v-1.5
			C114.1,165.2,112.4,163.6,110.4,163.6z"/>
		<path class="st4" d="M41.8,135.8c-2,0-3.7,1.7-3.7,3.7v11.9c0,2,1.7,3.7,3.7,3.7s3.7-1.7,3.7-3.7v-11.9
			C45.5,137.4,43.9,135.8,41.8,135.8z"/>
	</g>
</g>
</svg>
