<?xml version="1.0" encoding="utf-8"?>
<!-- Generator: Adobe Illustrator 22.1.0, SVG Export Plug-In . SVG Version: 6.00 Build 0)  -->
<svg version="1.1" id="レイヤー_1" xmlns="http://www.w3.org/2000/svg" xmlns:xlink="http://www.w3.org/1999/xlink" x="0px"
	 y="0px" viewBox="0 0 88.4 17.2" style="enable-background:new 0 0 88.4 17.2;" xml:space="preserve">
<style type="text/css">
	.st0{fill:#FFFFFF;}
	.st1{fill:#FCCD58;}
	.st2{fill:#9CB06B;}
</style>
<g>
	<path class="st0" d="M32.4,9.5c-0.5,0-0.9-0.1-1.4-0.2C29.6,9,28.4,8.2,27.8,7c-0.4-0.8-0.6-1.8-0.5-2.8c-0.2-0.1-0.4-0.3-0.6-0.4
		c-1.3-0.8-2.5-1.6-4-2c-1.8-0.5-4-0.6-5,1.2c-0.5,1-0.4,2.2,0.2,3c0.5,0.7,1.3,1,2.2,0.8c0.5-0.1,0.9-0.4,1.2-0.8
		c0.3-0.4,0.4-0.9,0.3-1.3c-0.1-0.5-0.4-0.9-0.8-1c-0.4-0.2-0.9,0-1.1,0.3c-0.1,0.2-0.1,0.4,0,0.6C19.7,4.8,19.9,4.9,20,5
		c0.1,0,0.2,0.2,0.2,0.3c0,0.1-0.2,0.2-0.3,0.2c-0.3-0.1-0.6-0.3-0.7-0.6c-0.2-0.3-0.2-0.7,0-1.1c0.3-0.6,1.1-0.8,1.7-0.6
		c0.6,0.2,1,0.8,1.1,1.4c0.1,0.6,0,1.2-0.4,1.7c-0.4,0.5-0.9,0.9-1.5,1c-1,0.2-2-0.2-2.7-1c-0.7-1-0.8-2.4-0.2-3.5
		c0.9-1.7,2.8-2.2,5.6-1.5c1.5,0.4,2.8,1.2,4.1,2.1c0.2,0.1,0.3,0.2,0.5,0.3c0.4-1.7,1.6-3,3.1-3.5c1.7-0.6,3.7,0.1,4.6,1.5
		c1,1.5,0.6,3.7-0.8,4.7c-0.8,0.6-1.9,0.7-2.8,0.3c-0.4-0.2-0.8-0.5-1-0.9c-0.5-0.1-1-0.3-1.3-0.5c-0.5-0.2-0.9-0.5-1.4-0.8
		c-0.1,0.8,0.1,1.6,0.5,2.2c0.5,1,1.6,1.7,2.9,2c1.6,0.4,3.3,0,4.6-0.9c1.1-0.8,1.9-2,2.7-3.2c0.4-0.5,0.7-1.1,1.2-1.6
		C40,2.6,40.6,2,41.3,1.7c0.8-0.4,1.7-0.3,2.3,0.1c0.4,0.3,0.6,0.7,0.6,1.2c0,0.4-0.1,0.8-0.4,1c-0.3,0.3-0.9,0.4-1.3,0.2
		C42,4,41.8,3.7,41.8,3.3C41.8,3.1,41.9,3,42,3c0,0,0,0,0,0c0.1,0,0.3,0.1,0.3,0.3c0,0.3,0.3,0.4,0.4,0.5c0.2,0.1,0.6,0.1,0.8-0.1
		c0.2-0.2,0.2-0.4,0.2-0.6c0-0.3-0.2-0.6-0.4-0.8c-0.4-0.3-1.1-0.4-1.7-0.1C40.9,2.4,40.4,3,40,3.4c-0.4,0.5-0.8,1.1-1.1,1.6
		c-0.8,1.2-1.6,2.5-2.9,3.3C35,9.1,33.7,9.5,32.4,9.5z M31.3,5.9c0.2,0.1,0.3,0.3,0.5,0.4C32.5,6.5,33.4,6.4,34,6
		c1.2-0.8,1.5-2.7,0.7-4c-0.8-1.2-2.5-1.8-4-1.3c-1.4,0.5-2.5,1.8-2.8,3.3c0.5,0.3,1,0.6,1.5,0.8c0.3,0.1,0.5,0.2,0.8,0.3
		c-0.1-0.3-0.1-0.6-0.1-0.9c0.1-0.9,0.8-1.9,1.9-1.8c0.5,0,0.9,0.3,1.2,0.7c0.2,0.4,0.3,0.8,0.2,1.2c-0.2,0.8-1,1.4-2,1.4
		C31.4,5.9,31.3,5.9,31.3,5.9z M30.9,5.3c0.2,0,0.4,0,0.6,0C32,5.3,32.8,5,33,4.3C33,4,33,3.8,32.8,3.5C32.6,3.3,32.3,3.1,32,3
		c-0.8-0.1-1.2,0.6-1.3,1.3C30.6,4.7,30.7,5,30.9,5.3z"/>
	<path class="st0" d="M28.5,9.4c-0.1,0-0.1,0-0.2-0.1c-2.8-2.1-2.1-4.6-2-4.7c0-0.1,0.2-0.2,0.3-0.2c0.1,0,0.2,0.2,0.2,0.3l0,0
		c0,0.1-0.6,2.3,1.8,4.1c0.1,0.1,0.1,0.2,0.1,0.4C28.6,9.4,28.5,9.4,28.5,9.4z"/>
	<path class="st0" d="M14.4,5.7c-0.3,0-0.5,0-0.9-0.1c-0.7-0.2-1.2-1.1-1.1-1.8c0.1-0.4,0.3-0.8,0.7-1c0.4-0.2,0.9-0.2,1.2,0
		c0.4,0.2,0.6,0.5,0.6,0.9c0,0.4-0.3,0.9-0.7,0.9c-0.1,0-0.3-0.1-0.3-0.2C14,4.1,14.2,4,14.3,4c0.1,0,0.3-0.2,0.3-0.4
		c0-0.2-0.2-0.4-0.4-0.5C14,3,13.7,3,13.4,3.2c-0.3,0.1-0.4,0.4-0.5,0.6c-0.1,0.5,0.3,1.1,0.7,1.3c0.7,0.2,1.3,0.1,1.7-0.3
		C16,4.2,16.1,3.5,16.1,3c0-0.8-0.9-1.7-1.6-2c-0.7-0.3-1.6-0.1-2.4,0.4c-0.4,0.3-0.8,0.6-1.2,1c-0.3,0.3-0.6,0.6-1,0.8
		C9.2,3.8,8.6,4,8,3.9c-0.4,0-0.8-0.3-1.1-0.6C6.7,3.1,6.6,2.8,6.6,2.4c0-0.1,0.1-0.2,0.3-0.2c0.1,0,0.2,0.1,0.2,0.3
		c0,0.2,0.1,0.4,0.2,0.5C7.5,3.3,7.8,3.4,8,3.4c0.5,0,1-0.2,1.6-0.6c0.3-0.2,0.6-0.5,0.9-0.8c0.4-0.4,0.8-0.7,1.2-1
		c1-0.7,2.1-0.8,2.9-0.5c0.9,0.4,1.8,1.4,1.9,2.4c0.1,0.9-0.2,1.6-0.8,2.2C15.5,5.4,15,5.7,14.4,5.7z"/>
	<path class="st0" d="M14.6,11.9c-0.1,0-0.2,0-0.3,0c-0.2-0.1-0.4-0.2-0.5-0.4c-0.1-0.2-0.1-0.4-0.1-0.7c0.2-0.5,0.7-0.7,1.1-0.6
		c0.2,0.1,0.4,0.2,0.5,0.4c0.1,0.2,0.1,0.4,0.1,0.7l0,0c-0.1,0.2-0.2,0.4-0.4,0.5C14.8,11.9,14.7,11.9,14.6,11.9z M14.6,10.7
		c-0.2,0-0.3,0.1-0.4,0.3c0,0.1,0,0.2,0,0.3c0,0.1,0.1,0.2,0.2,0.2c0.1,0,0.2,0,0.3,0c0.1,0,0.2-0.1,0.2-0.2c0,0,0,0,0,0
		c0-0.1,0-0.2,0-0.3c0-0.1-0.1-0.2-0.2-0.2C14.6,10.7,14.6,10.7,14.6,10.7z"/>
	<path class="st1" d="M14.3,12.9c0-0.3-0.4-0.4-0.5-0.2c-0.8,0.9-2.1,2.7-0.7,3.2C14.3,16.3,14.3,14.1,14.3,12.9z"/>
	<path class="st0" d="M13.3,16.2c-0.1,0-0.2,0-0.4-0.1c-0.5-0.2-0.7-0.5-0.8-0.7c-0.2-0.8,0.6-2,1.4-2.9c0.2-0.2,0.4-0.2,0.6-0.2
		c0.2,0.1,0.4,0.3,0.4,0.5c0.1,1.1,0,2.6-0.6,3.1C13.7,16.1,13.5,16.2,13.3,16.2z M13.9,12.8C13.9,12.8,13.9,12.9,13.9,12.8
		c-1,1.1-1.4,1.9-1.3,2.4c0,0.1,0.1,0.3,0.4,0.4c0.3,0.1,0.4,0,0.5,0C13.9,15.3,14.1,14.3,13.9,12.8L13.9,12.8
		C14,12.9,14,12.9,13.9,12.8C14,12.9,13.9,12.8,13.9,12.8z"/>
	<path class="st1" d="M14.9,9.2c0,0.3,0.4,0.4,0.5,0.2c0.8-0.9,2.1-2.7,0.7-3.2C14.8,5.8,14.8,8,14.9,9.2z"/>
	<path class="st0" d="M15.2,9.7c-0.1,0-0.1,0-0.2,0c-0.2-0.1-0.4-0.3-0.4-0.5l0,0c-0.1-1.1,0-2.6,0.6-3.1c0.2-0.1,0.5-0.3,1-0.1
		c0.5,0.2,0.7,0.5,0.8,0.7c0.2,0.8-0.6,2-1.4,2.9C15.5,9.6,15.4,9.7,15.2,9.7z M15.8,6.4c-0.1,0-0.2,0-0.3,0.1
		c-0.4,0.3-0.5,1.3-0.5,2.7l0,0c0,0,0,0,0,0.1c0,0,0,0,0.1,0c0.9-1,1.4-1.9,1.3-2.4c0-0.1-0.1-0.3-0.4-0.4C16,6.4,15.9,6.4,15.8,6.4
		z"/>
	<path class="st1" d="M12.7,10.7c0.3,0,0.4-0.4,0.2-0.5C12,9.4,10.2,8,9.7,9.4C9.3,10.7,11.5,10.8,12.7,10.7z"/>
	<path class="st0" d="M12,11c-1,0-2-0.1-2.4-0.7c-0.1-0.2-0.3-0.5-0.1-1c0.2-0.5,0.5-0.7,0.7-0.8c0.8-0.2,2,0.6,2.9,1.4
		c0.2,0.2,0.2,0.4,0.2,0.6c-0.1,0.2-0.3,0.4-0.5,0.4C12.5,11,12.3,11,12,11z M10.5,9.1c-0.1,0-0.1,0-0.2,0c-0.1,0-0.3,0.1-0.4,0.4
		c-0.1,0.3,0,0.4,0,0.5c0.3,0.4,1.3,0.5,2.7,0.5l0,0c0,0,0,0,0.1,0c0,0,0,0,0-0.1C11.8,9.5,11,9.1,10.5,9.1z"/>
	<path class="st1" d="M16.4,11.3c-0.3,0-0.4,0.4-0.2,0.5c0.9,0.8,2.7,2.1,3.2,0.7C19.8,11.3,17.6,11.3,16.4,11.3z"/>
	<path class="st0" d="M18.6,13.5c-0.8,0-1.8-0.7-2.6-1.4c-0.2-0.2-0.2-0.4-0.2-0.6c0.1-0.2,0.3-0.4,0.5-0.4c1.1-0.1,2.6,0,3.1,0.6
		c0.1,0.2,0.3,0.5,0.1,1c-0.2,0.5-0.5,0.7-0.7,0.8C18.8,13.5,18.7,13.5,18.6,13.5z M16.5,11.6C16.4,11.6,16.4,11.6,16.5,11.6
		c-0.1,0.1-0.1,0.1,0,0.1c1,0.9,1.9,1.4,2.4,1.3c0.1,0,0.3-0.1,0.4-0.4c0.1-0.3,0-0.4,0-0.5C18.8,11.7,17.8,11.5,16.5,11.6
		L16.5,11.6z M16.4,11.3L16.4,11.3L16.4,11.3z"/>
	<path class="st1" d="M15.7,12.6c-0.2-0.2-0.5,0-0.5,0.3c0.1,1.2,0.4,3.4,1.7,2.7C18.1,14.9,16.6,13.4,15.7,12.6z"/>
	<path class="st0" d="M16.4,15.9c-0.2,0-0.4-0.1-0.5-0.1c-0.7-0.4-1-1.9-1.1-3c0-0.2,0.1-0.4,0.3-0.5c0.2-0.1,0.5-0.1,0.6,0.1l0,0
		c0.9,0.8,1.8,1.8,1.7,2.7c0,0.2-0.2,0.5-0.6,0.8C16.8,15.9,16.6,15.9,16.4,15.9z M15.5,12.7C15.4,12.7,15.4,12.7,15.5,12.7
		C15.4,12.8,15.4,12.8,15.5,12.7c0,1.4,0.3,2.4,0.7,2.6c0.1,0,0.2,0.1,0.6,0c0.3-0.1,0.3-0.3,0.3-0.4C17.1,14.5,16.5,13.7,15.5,12.7
		L15.5,12.7C15.5,12.7,15.5,12.7,15.5,12.7z"/>
	<path class="st1" d="M13.5,9.5c0.2,0.2,0.5,0,0.5-0.3c-0.1-1.2-0.4-3.4-1.7-2.7C11,7.1,12.6,8.7,13.5,9.5z"/>
	<path class="st0" d="M13.7,9.8c-0.1,0-0.3,0-0.4-0.1l0,0c-0.9-0.8-1.8-1.8-1.7-2.7c0-0.2,0.2-0.5,0.6-0.8c0.5-0.2,0.8-0.1,1,0
		c0.7,0.4,1,1.9,1.1,3c0,0.2-0.1,0.4-0.3,0.5C13.9,9.8,13.8,9.8,13.7,9.8z M12.7,6.6c-0.1,0-0.2,0-0.3,0.1c-0.3,0.1-0.3,0.3-0.3,0.4
		c-0.1,0.5,0.5,1.3,1.6,2.2l0,0c0,0,0,0,0.1,0c0,0,0,0,0-0.1c-0.1-1.4-0.4-2.3-0.8-2.6C12.9,6.6,12.8,6.6,12.7,6.6z"/>
	<path class="st1" d="M13,12.1c0.2-0.2,0-0.5-0.3-0.5c-1.2,0.1-3.4,0.4-2.7,1.7C10.6,14.6,12.2,13,13,12.1z"/>
	<path class="st0" d="M10.7,14c0,0-0.1,0-0.1,0c-0.2,0-0.5-0.2-0.8-0.6c-0.2-0.5-0.1-0.8,0-1c0.4-0.7,1.9-1,3-1.1
		c0.2,0,0.4,0.1,0.5,0.3c0.1,0.2,0.1,0.5-0.1,0.6l0,0C12.5,13.1,11.5,14,10.7,14z M12.8,11.9C12.8,11.9,12.8,11.9,12.8,11.9
		c-1.4,0.1-2.3,0.4-2.6,0.8c0,0.1-0.1,0.2,0,0.6c0.1,0.3,0.3,0.3,0.4,0.3C11.1,13.6,11.9,13,12.8,11.9L12.8,11.9
		C12.9,11.9,12.9,11.9,12.8,11.9C12.8,11.9,12.8,11.9,12.8,11.9z"/>
	<path class="st1" d="M16.1,9.9c-0.2,0.2,0,0.5,0.3,0.5c1.2-0.1,3.4-0.4,2.7-1.7C18.5,7.5,16.9,9,16.1,9.9z"/>
	<path class="st0" d="M16.3,10.7c-0.2,0-0.4-0.1-0.5-0.3c-0.1-0.2-0.1-0.5,0.1-0.6l0,0c0.8-0.9,1.8-1.8,2.7-1.7
		c0.2,0,0.5,0.2,0.8,0.6c0.2,0.5,0.1,0.8,0,1C18.9,10.4,17.5,10.6,16.3,10.7C16.4,10.7,16.4,10.7,16.3,10.7z M16.3,10.1
		C16.3,10.1,16.3,10.1,16.3,10.1C16.3,10.2,16.3,10.2,16.3,10.1c1.4,0,2.4-0.3,2.6-0.7c0-0.1,0.1-0.2,0-0.6
		c-0.1-0.3-0.3-0.3-0.4-0.3C18.1,8.5,17.2,9.1,16.3,10.1L16.3,10.1z"/>
	<g>
		<path class="st2" d="M11.9,5.4c0,0-2.3-2-4.4,0C7.5,5.4,9.4,7.6,11.9,5.4z"/>
		<path class="st0" d="M9.7,6.6c-1.4,0-2.4-1-2.4-1.1c-0.1-0.1-0.1-0.3,0-0.4c2.3-2.1,4.7,0,4.8,0c0.1,0,0.1,0.1,0.1,0.2
			c0,0.1,0,0.1-0.1,0.2C11.2,6.4,10.4,6.6,9.7,6.6z M7.8,5.4c0.5,0.4,1.9,1.3,3.6,0C10.9,5,9.4,4.2,7.8,5.4z"/>
	</g>
	<g>
		<path class="st2" d="M20.2,8.2c0,0,3-0.2,3.5,2.7C23.7,10.8,20.8,11.4,20.2,8.2z"/>
		<path class="st0" d="M23.2,11.1c-0.9,0-2.8-0.3-3.3-2.9c0-0.1,0-0.1,0-0.2c0-0.1,0.1-0.1,0.2-0.1c0,0,3.3-0.2,3.8,2.9
			c0,0.1-0.1,0.3-0.2,0.3C23.7,11.1,23.5,11.1,23.2,11.1z M20.5,8.4c0.6,2.1,2.2,2.2,2.9,2.2c-0.2-1-0.8-1.6-1.7-1.9
			C21.2,8.5,20.8,8.4,20.5,8.4z"/>
	</g>
	<path class="st0" d="M5,10c-0.1,0-0.2,0-0.3,0C3.3,9.9,2,9.2,1.3,8.2C0.6,7,0.7,5.3,1.6,4.4C2,4,2.5,3.7,3.1,3.6
		C4.2,3.4,5.4,4,5.8,5C6,5.5,6,6.2,5.7,6.7C5.5,7.3,5,7.6,4.5,7.8C3.9,8,3.1,7.8,2.8,7.1C2.7,6.8,2.8,6.3,3.1,6
		C3.3,5.7,3.7,5.6,4,5.8c0.1,0,0.2,0.2,0.1,0.3c0,0.1-0.2,0.2-0.3,0.1C3.6,6.2,3.5,6.3,3.4,6.4C3.3,6.5,3.2,6.7,3.3,6.9
		C3.5,7.3,4,7.4,4.4,7.3c0.4-0.1,0.7-0.4,0.9-0.8c0.2-0.4,0.2-0.9,0.1-1.3C5,4.4,4,3.9,3.2,4.1C2.7,4.2,2.3,4.4,2,4.7
		C1.2,5.5,1.1,6.9,1.8,7.9c0.6,0.9,1.7,1.5,3,1.6C5.9,9.5,7,9.2,8.2,8.5C9,8.1,9.7,7.5,10.4,7l0.1,0c0.1-0.1,0.3-0.1,0.4,0
		c0.1,0.1,0.1,0.3,0,0.4l-0.1,0C10,8,9.2,8.5,8.4,9C7.3,9.6,6.1,10,5,10z"/>
	<path class="st0" d="M7,14.2c-0.6,0-1.1-0.4-1.3-0.9c-0.1-0.3-0.1-0.7,0-1c0.2-0.8,0.7-1.4,1.2-1.8C7.4,10,8,9.6,8.6,9.4
		c0.1-0.1,0.3,0,0.3,0.1c0.1,0.1,0,0.3-0.1,0.3c-0.5,0.2-1.1,0.5-1.6,0.9c-0.4,0.3-0.8,0.8-1,1.5c-0.1,0.3-0.1,0.5,0,0.8
		c0.1,0.4,0.6,0.6,1,0.6c0.4-0.1,0.7-0.4,0.8-0.9c0-0.2-0.1-0.4-0.2-0.5c-0.1-0.1-0.3-0.1-0.5,0c-0.1,0.1-0.3,0.1-0.4,0
		c-0.1-0.1-0.1-0.3,0-0.4c0.3-0.3,0.8-0.3,1.1-0.1c0.3,0.2,0.4,0.6,0.4,1c0,0.7-0.6,1.2-1.2,1.3C7.1,14.2,7.1,14.2,7,14.2z"/>
	<path class="st0" d="M56,9.5c-1.3,0-2.6-0.4-3.6-1.1c-1.2-0.9-2.1-2.1-2.9-3.3c-0.4-0.5-0.7-1.1-1.1-1.6c-0.4-0.5-0.8-1-1.5-1.3
		c-0.6-0.3-1.3-0.2-1.7,0.1C45,2.4,44.8,2.7,44.8,3c0,0.3,0.1,0.5,0.2,0.6c0.2,0.2,0.5,0.2,0.8,0.1c0.1,0,0.4-0.2,0.4-0.5
		c0-0.1,0.1-0.3,0.3-0.3c0,0,0,0,0,0c0.1,0,0.3,0.1,0.3,0.3c0,0.4-0.3,0.8-0.7,0.9c-0.5,0.2-1,0.1-1.3-0.2c-0.3-0.3-0.4-0.6-0.4-1
		c0-0.5,0.2-0.9,0.6-1.2c0.6-0.5,1.5-0.5,2.3-0.1c0.7,0.3,1.3,1,1.7,1.4c0.4,0.5,0.8,1.1,1.2,1.6c0.8,1.2,1.6,2.4,2.7,3.2
		c1.3,0.9,3,1.3,4.6,0.9c1.3-0.3,2.4-1.1,2.9-2c0.4-0.7,0.5-1.4,0.5-2.2c-0.4,0.3-0.9,0.5-1.4,0.8c-0.4,0.2-0.8,0.4-1.3,0.5
		c-0.2,0.4-0.6,0.7-1,0.9C56,7.1,54.9,7,54.1,6.4c-1.4-1-1.8-3.2-0.8-4.7c0.9-1.4,2.9-2.1,4.6-1.5c1.5,0.5,2.7,1.9,3.1,3.5
		c0.2-0.1,0.3-0.2,0.5-0.3c1.3-0.8,2.6-1.7,4.1-2.1c2.7-0.7,4.7-0.2,5.6,1.5C71.8,4,71.7,5.4,71,6.4c-0.6,0.8-1.6,1.2-2.7,1
		c-0.6-0.1-1.1-0.5-1.5-1c-0.4-0.5-0.5-1.2-0.4-1.7C66.5,4,67,3.5,67.5,3.2c0.6-0.2,1.4,0,1.7,0.6c0.2,0.3,0.2,0.7,0,1.1
		c-0.2,0.3-0.4,0.5-0.7,0.6c-0.1,0-0.3-0.1-0.3-0.2c0-0.1,0.1-0.3,0.2-0.3c0.2,0,0.3-0.1,0.4-0.3c0.1-0.2,0.1-0.4,0-0.6
		c-0.2-0.3-0.7-0.5-1.1-0.3c-0.4,0.1-0.7,0.6-0.8,1c-0.1,0.4,0,0.9,0.3,1.3c0.3,0.4,0.7,0.7,1.2,0.8C69.2,7,70,6.7,70.5,6.1
		c0.6-0.8,0.7-2,0.2-3c-0.9-1.9-3.2-1.7-5-1.2c-1.4,0.4-2.7,1.2-4,2c-0.2,0.1-0.4,0.3-0.6,0.4c0.1,1,0,2-0.5,2.8
		c-0.6,1.1-1.8,2-3.2,2.3C56.9,9.4,56.5,9.5,56,9.5z M56.6,0.5c-1.2,0-2.3,0.5-2.9,1.5c-0.8,1.3-0.5,3.2,0.7,4
		c0.7,0.5,1.6,0.6,2.3,0.3C56.9,6.1,57,6,57.2,5.9c-0.1,0-0.2,0-0.2,0c-0.9-0.1-1.7-0.7-2-1.4c-0.1-0.4,0-0.8,0.2-1.2
		c0.3-0.4,0.7-0.7,1.2-0.7c1.1-0.1,1.8,0.8,1.9,1.8c0,0.3,0,0.6-0.1,0.9C58.5,5.1,58.8,5,59,4.8c0.5-0.2,1-0.5,1.5-0.8
		c-0.3-1.6-1.4-2.9-2.8-3.3C57.4,0.6,57,0.5,56.6,0.5z M56.5,3c0,0-0.1,0-0.1,0c-0.3,0-0.6,0.2-0.8,0.5c-0.2,0.2-0.2,0.5-0.1,0.7
		c0.2,0.7,0.9,1,1.5,1.1c0.2,0,0.4,0,0.6,0c0.2-0.3,0.2-0.7,0.2-1C57.7,3.7,57.3,3,56.5,3z"/>
	<path class="st0" d="M60,9.4c-0.1,0-0.2,0-0.2-0.1c-0.1-0.1-0.1-0.3,0.1-0.4c2.5-1.9,1.8-4.1,1.8-4.1c0-0.1,0-0.3,0.2-0.3
		c0.1,0,0.3,0,0.3,0.2c0,0.1,0.8,2.6-2,4.7C60.1,9.4,60,9.4,60,9.4z"/>
	<path class="st0" d="M74,5.7c-0.6,0-1.1-0.3-1.4-0.6c-0.6-0.5-0.8-1.3-0.8-2.2c0.1-1,1-2.1,1.9-2.4c0.8-0.4,1.9-0.2,2.9,0.5
		c0.5,0.3,0.9,0.7,1.2,1c0.3,0.3,0.6,0.6,0.9,0.8c0.6,0.4,1.1,0.6,1.6,0.6c0.3,0,0.6-0.2,0.8-0.4c0.1-0.1,0.2-0.3,0.2-0.5
		c0-0.1,0.1-0.3,0.2-0.3c0.1,0,0.3,0.1,0.3,0.2c0,0.3-0.1,0.6-0.3,0.9c-0.3,0.3-0.7,0.6-1.1,0.6c-0.6,0-1.2-0.2-1.9-0.7
		c-0.3-0.3-0.7-0.5-1-0.8c-0.4-0.4-0.8-0.7-1.2-1C75.6,0.9,74.7,0.7,74,1c-0.7,0.3-1.5,1.2-1.6,2c0,0.5,0.1,1.2,0.6,1.8
		c0.5,0.4,1,0.5,1.7,0.3c0.4-0.1,0.8-0.8,0.7-1.3c0-0.2-0.2-0.5-0.5-0.6c-0.3-0.1-0.6-0.2-0.8,0c-0.2,0.1-0.3,0.3-0.4,0.5
		C73.9,3.8,74,4,74.1,4c0.1,0,0.2,0.1,0.2,0.3c0,0.1-0.1,0.3-0.3,0.2c-0.4,0-0.8-0.4-0.7-0.9c0-0.4,0.3-0.7,0.6-0.9
		c0.4-0.2,0.8-0.2,1.2,0c0.4,0.2,0.7,0.6,0.7,1c0.1,0.7-0.4,1.6-1.1,1.8C74.6,5.6,74.3,5.7,74,5.7z"/>
	<path class="st0" d="M73.9,11.9c-0.1,0-0.3,0-0.4-0.1c-0.2-0.1-0.4-0.3-0.4-0.5c-0.1-0.2-0.1-0.5,0.1-0.7c0.1-0.2,0.3-0.4,0.5-0.4
		c0.2-0.1,0.5-0.1,0.7,0.1c0.2,0.1,0.4,0.3,0.4,0.5c0.2,0.5-0.1,1-0.6,1.1C74.1,11.9,74,11.9,73.9,11.9z M73.9,10.7c0,0-0.1,0-0.1,0
		c-0.1,0-0.2,0.1-0.2,0.2c0,0.1-0.1,0.2,0,0.3c0,0,0,0,0,0c0,0.1,0.1,0.2,0.2,0.2s0.2,0.1,0.3,0c0.1,0,0.2-0.1,0.2-0.2
		c0-0.1,0.1-0.2,0-0.3c0-0.1-0.1-0.2-0.2-0.2C74,10.7,73.9,10.7,73.9,10.7z"/>
	<path class="st1" d="M74.2,12.9c0-0.3,0.4-0.4,0.5-0.2c0.8,0.9,2.1,2.7,0.7,3.2C74.1,16.3,74.1,14.1,74.2,12.9z"/>
	<path class="st0" d="M75.1,16.2c-0.3,0-0.4-0.1-0.6-0.2c-0.7-0.5-0.7-2-0.6-3.1l0,0c0-0.2,0.2-0.4,0.4-0.5c0.2-0.1,0.5,0,0.6,0.2
		c0.7,0.9,1.6,2,1.4,2.9c-0.1,0.2-0.2,0.6-0.8,0.7C75.4,16.2,75.3,16.2,75.1,16.2z M74.5,12.8C74.5,12.8,74.5,12.9,74.5,12.8
		C74.5,12.9,74.4,12.9,74.5,12.8L74.5,12.8c-0.1,1.4,0,2.4,0.4,2.7c0.1,0.1,0.2,0.1,0.5,0c0.4-0.1,0.4-0.3,0.4-0.4
		C75.9,14.8,75.5,13.9,74.5,12.8C74.5,12.9,74.5,12.8,74.5,12.8z M74.2,12.9L74.2,12.9L74.2,12.9z"/>
	<path class="st1" d="M73.6,9.2c0,0.3-0.4,0.4-0.5,0.2c-0.8-0.9-2.1-2.7-0.7-3.2C73.6,5.8,73.6,8,73.6,9.2z"/>
	<path class="st0" d="M73.2,9.7c-0.2,0-0.3-0.1-0.4-0.2c-0.7-0.9-1.6-2-1.4-2.9c0.1-0.2,0.2-0.6,0.8-0.7c0.5-0.2,0.8,0,1,0.1
		c0.7,0.5,0.7,2,0.6,3.1c0,0,0,0,0,0c0,0.2-0.2,0.4-0.4,0.5C73.4,9.7,73.3,9.7,73.2,9.7z M72.6,6.4c-0.1,0-0.1,0-0.2,0
		C72,6.5,72,6.7,71.9,6.8c-0.1,0.5,0.3,1.3,1.3,2.4c0,0,0,0,0.1,0c0,0,0,0,0-0.1c0.1-1.4-0.1-2.4-0.5-2.7
		C72.8,6.4,72.7,6.4,72.6,6.4z M73.6,9.2L73.6,9.2L73.6,9.2z"/>
	<path class="st1" d="M75.7,10.7c-0.3,0-0.4-0.4-0.2-0.5c0.9-0.8,2.7-2.1,3.2-0.7C79.1,10.7,76.9,10.8,75.7,10.7z"/>
	<path class="st0" d="M76.4,11c-0.2,0-0.5,0-0.7,0l0,0c-0.2,0-0.4-0.2-0.5-0.4c-0.1-0.2,0-0.5,0.2-0.6c0.9-0.7,2-1.6,2.9-1.4
		c0.2,0.1,0.6,0.2,0.7,0.8c0.2,0.5,0,0.8-0.1,1C78.4,10.8,77.4,11,76.4,11z M77.9,9.1c-0.5,0-1.3,0.5-2.2,1.3c0,0,0,0,0,0.1
		c0,0,0,0,0.1,0l0,0c1.4,0.1,2.4-0.1,2.7-0.5c0.1-0.1,0.1-0.2,0-0.5c-0.1-0.4-0.3-0.4-0.4-0.4C78.1,9.1,78,9.1,77.9,9.1z"/>
	<path class="st1" d="M72,11.3c0.3,0,0.4,0.4,0.2,0.5c-0.9,0.8-2.7,2.1-3.2,0.7C68.6,11.3,70.8,11.3,72,11.3z"/>
	<path class="st0" d="M69.8,13.5c-0.1,0-0.2,0-0.3,0c-0.2-0.1-0.6-0.2-0.7-0.8c-0.2-0.5,0-0.8,0.1-1c0.5-0.7,2-0.7,3.1-0.6
		c0.2,0,0.4,0.2,0.5,0.4c0.1,0.2,0,0.5-0.2,0.6C71.6,12.7,70.6,13.5,69.8,13.5z M71.3,11.6c-1,0-1.8,0.2-2,0.5
		c-0.1,0.1-0.1,0.2,0,0.5c0.1,0.4,0.3,0.4,0.4,0.4c0.5,0.1,1.3-0.3,2.4-1.3c0,0,0,0,0-0.1c0,0,0,0-0.1,0l0,0
		C71.8,11.6,71.5,11.6,71.3,11.6z"/>
	<path class="st1" d="M72.8,12.6c0.2-0.2,0.5,0,0.5,0.3c-0.1,1.2-0.4,3.4-1.7,2.7C70.3,14.9,71.9,13.4,72.8,12.6z"/>
	<path class="st0" d="M72,15.9c-0.2,0-0.4,0-0.6-0.1c-0.4-0.2-0.6-0.5-0.6-0.8c-0.1-0.8,0.9-1.9,1.7-2.7l0,0
		c0.2-0.2,0.4-0.2,0.6-0.1c0.2,0.1,0.3,0.3,0.3,0.5c-0.1,1.1-0.3,2.6-1.1,3C72.4,15.9,72.2,15.9,72,15.9z M72.9,12.8
		c-1,0.9-1.6,1.8-1.6,2.2c0,0.1,0.1,0.2,0.3,0.4c0.3,0.2,0.5,0.1,0.6,0C72.7,15.1,73,14.2,72.9,12.8C73,12.8,73,12.8,72.9,12.8
		C73,12.7,73,12.7,72.9,12.8L72.9,12.8z"/>
	<path class="st1" d="M75,9.5c-0.2,0.2-0.5,0-0.5-0.3c0.1-1.2,0.4-3.4,1.7-2.7C77.4,7.1,75.9,8.7,75,9.5z"/>
	<path class="st0" d="M74.8,9.8c-0.1,0-0.2,0-0.3-0.1c-0.2-0.1-0.3-0.3-0.3-0.5c0.1-1.1,0.3-2.6,1.1-3c0.2-0.1,0.6-0.2,1,0
		c0.4,0.2,0.6,0.5,0.6,0.8C77,7.8,76,8.9,75.1,9.7l0,0C75,9.8,74.9,9.8,74.8,9.8z M75,9.5L75,9.5L75,9.5z M75.7,6.6
		c-0.1,0-0.2,0-0.2,0.1c-0.4,0.2-0.7,1.2-0.8,2.6c0,0,0,0,0,0.1c0,0,0,0,0.1,0c1-0.9,1.6-1.7,1.6-2.2c0-0.1-0.1-0.2-0.3-0.4
		C75.9,6.6,75.8,6.6,75.7,6.6z"/>
	<path class="st1" d="M75.4,12.1c-0.2-0.2,0-0.5,0.3-0.5c1.2,0.1,3.4,0.4,2.7,1.7C77.8,14.6,76.2,13,75.4,12.1z"/>
	<path class="st0" d="M77.8,14c-0.8,0-1.8-0.9-2.5-1.7c-0.2-0.2-0.2-0.4-0.1-0.6c0.1-0.2,0.3-0.3,0.5-0.3c1.1,0.1,2.6,0.3,3,1.1
		c0.1,0.2,0.2,0.6,0,1c-0.2,0.4-0.5,0.6-0.8,0.6C77.8,14,77.8,14,77.8,14z M75.6,11.9C75.6,11.9,75.6,11.9,75.6,11.9
		C75.6,11.9,75.6,11.9,75.6,11.9L75.6,11.9c0.9,1.1,1.7,1.7,2.2,1.7c0.1,0,0.2-0.1,0.4-0.3c0.2-0.3,0.1-0.5,0-0.6
		C78,12.2,77,11.9,75.6,11.9C75.7,11.9,75.6,11.9,75.6,11.9z"/>
	<g>
		<path class="st1" d="M72.3,9.9c0.2,0.2,0,0.5-0.3,0.5c-1.2-0.1-3.4-0.4-2.7-1.7C69.9,7.5,71.5,9,72.3,9.9z"/>
		<path class="st0" d="M72.1,10.7C72.1,10.7,72.1,10.7,72.1,10.7c-1.2-0.1-2.6-0.3-3-1.1c-0.1-0.2-0.2-0.6,0-1
			C69.3,8.2,69.6,8,69.9,8c0.8-0.1,1.9,0.9,2.7,1.7l0,0c0.2,0.2,0.2,0.4,0.1,0.6C72.5,10.6,72.3,10.7,72.1,10.7z M70,8.5
			C70,8.5,69.9,8.5,70,8.5c-0.2,0-0.3,0.1-0.4,0.3c-0.2,0.3-0.1,0.5,0,0.6c0.2,0.4,1.2,0.7,2.6,0.8c0,0,0,0,0.1,0c0,0,0,0,0-0.1
			C71.3,9.1,70.5,8.5,70,8.5z"/>
	</g>
	<g>
		<path class="st2" d="M76.6,5.4c0,0,2.3-2,4.4,0C81,5.4,79,7.6,76.6,5.4z"/>
		<path class="st0" d="M78.8,6.6c-0.7,0-1.5-0.3-2.4-1c-0.1,0-0.1-0.1-0.1-0.2c0-0.1,0-0.1,0.1-0.2c0,0,2.5-2.1,4.8,0
			c0.1,0.1,0.1,0.3,0,0.4C81.1,5.6,80.2,6.6,78.8,6.6z M77,5.4c1.7,1.4,3.1,0.4,3.6,0C79.1,4.2,77.6,5,77,5.4z"/>
	</g>
	<g>
		<path class="st2" d="M68.3,8.2c0,0-3-0.2-3.5,2.7C64.8,10.8,67.6,11.4,68.3,8.2z"/>
		<path class="st0" d="M65.2,11.1c-0.3,0-0.5,0-0.5,0c-0.1,0-0.2-0.2-0.2-0.3c0.5-3.1,3.8-2.9,3.8-2.9c0.1,0,0.1,0,0.2,0.1
			c0,0.1,0.1,0.1,0,0.2C68,10.8,66.1,11.1,65.2,11.1z M65.1,10.6c0.7,0,2.3-0.1,2.9-2.2C67.3,8.4,65.5,8.7,65.1,10.6z"/>
	</g>
	<path class="st0" d="M83.4,10c-1.1,0-2.3-0.3-3.5-1c-0.8-0.5-1.5-1-2.2-1.6l-0.1,0c-0.1-0.1-0.1-0.2,0-0.4c0.1-0.1,0.2-0.1,0.4,0
		l0.1,0c0.7,0.5,1.4,1.1,2.2,1.5c1.2,0.7,2.3,1,3.4,0.9c1.2-0.1,2.4-0.7,3-1.6c0.6-1,0.6-2.4-0.2-3.2c-0.3-0.3-0.7-0.6-1.2-0.7
		c-0.9-0.2-1.9,0.3-2.2,1.1c-0.2,0.4-0.1,0.9,0.1,1.3c0.2,0.4,0.5,0.7,0.9,0.8c0.4,0.1,0.9,0,1.1-0.4c0.1-0.2,0-0.4-0.1-0.6
		c-0.1-0.1-0.2-0.2-0.4-0.1c-0.1,0-0.3,0-0.3-0.1c0-0.1,0-0.3,0.1-0.3c0.3-0.1,0.6,0,0.9,0.2c0.3,0.3,0.4,0.8,0.2,1.1
		c-0.3,0.7-1.1,0.9-1.7,0.7c-0.5-0.1-0.9-0.5-1.2-1c-0.3-0.6-0.3-1.2-0.1-1.7c0.4-1,1.6-1.6,2.8-1.4c0.6,0.1,1.1,0.4,1.5,0.8
		c0.9,1,1,2.6,0.2,3.8c-0.7,1.1-2,1.7-3.4,1.8C83.6,10,83.5,10,83.4,10z"/>
	<path class="st0" d="M81.4,14.2c-0.1,0-0.1,0-0.2,0c-0.6-0.1-1.2-0.7-1.2-1.3c0-0.4,0.2-0.8,0.4-1c0.3-0.3,0.8-0.2,1.1,0.1
		c0.1,0.1,0.1,0.3,0,0.4c-0.1,0.1-0.3,0.1-0.4,0c-0.1-0.1-0.3-0.1-0.5,0c-0.1,0.1-0.2,0.3-0.2,0.5c0,0.4,0.4,0.8,0.8,0.9
		c0.4,0.1,0.8-0.2,1-0.6c0.1-0.2,0.1-0.5,0-0.8c-0.2-0.7-0.6-1.2-1-1.5c-0.5-0.4-1.1-0.7-1.6-0.9c-0.1-0.1-0.2-0.2-0.1-0.3
		c0.1-0.1,0.2-0.2,0.3-0.1c0.6,0.2,1.2,0.6,1.8,1c0.4,0.4,1,0.9,1.2,1.8c0.1,0.4,0.1,0.7,0,1C82.6,13.8,82,14.2,81.4,14.2z"/>
	<g>
		<g>
			<path class="st2" d="M4.6,11c0,0-2.5-1.7-4.4,0.5C0.3,11.5,2.4,13.5,4.6,11z"/>
			<path class="st0" d="M2.3,12.5c-1.2,0-2.2-0.8-2.2-0.8c-0.1-0.1-0.1-0.3,0-0.4c2-2.3,4.7-0.5,4.7-0.5c0.1,0,0.1,0.1,0.1,0.2
				c0,0.1,0,0.1-0.1,0.2C3.9,12.2,3,12.5,2.3,12.5z M0.6,11.5c0.5,0.4,2,1.1,3.6-0.4C3.6,10.8,2,10.1,0.6,11.5z"/>
		</g>
		<g>
			<path class="st2" d="M4.4,12.6c0,0-2.4,1.8-0.9,4.3C3.4,16.9,6,15.4,4.4,12.6z"/>
			<path class="st0" d="M3.4,17.2c-0.1,0-0.2,0-0.2-0.1c-1.6-2.7,1-4.6,1-4.7c0.1,0,0.1-0.1,0.2,0c0.1,0,0.1,0.1,0.2,0.1
				c1.7,3-1,4.7-1,4.7C3.5,17.2,3.5,17.2,3.4,17.2z M4.3,13c-0.5,0.5-1.6,1.8-0.8,3.5C4,16.1,5.2,15,4.3,13z"/>
		</g>
	</g>
	<g>
		<g>
			<path class="st2" d="M83.8,11c0,0,2.5-1.7,4.4,0.5C88.2,11.5,86,13.5,83.8,11z"/>
			<path class="st0" d="M86.2,12.5c-0.8,0-1.7-0.3-2.6-1.3c0-0.1-0.1-0.1-0.1-0.2c0-0.1,0-0.1,0.1-0.2c0,0,2.7-1.8,4.7,0.5
				c0.1,0.1,0.1,0.3,0,0.4C88.3,11.7,87.4,12.5,86.2,12.5z M84.2,11.1c1.6,1.5,3.1,0.8,3.6,0.4C86.4,10.1,84.8,10.8,84.2,11.1z"/>
		</g>
		<g>
			<path class="st2" d="M84.1,12.6c0,0,2.4,1.8,0.9,4.3C85,16.9,82.5,15.4,84.1,12.6z"/>
			<path class="st0" d="M85,17.2c0,0-0.1,0-0.1,0c0,0-2.7-1.6-1-4.7c0-0.1,0.1-0.1,0.2-0.1c0.1,0,0.1,0,0.2,0c0,0,2.6,2,1,4.7
				C85.2,17.1,85.1,17.2,85,17.2z M84.2,13c-1,2,0.2,3.2,0.8,3.5C85.8,14.8,84.7,13.5,84.2,13z"/>
		</g>
	</g>
	<path class="st0" d="M33.8,13.7c-0.1,0-0.1,0-0.2,0c-0.1,0-0.2-0.2-0.2-0.3c0-0.1,0.2-0.2,0.3-0.2c0.2,0,0.4-0.1,0.5-0.2
		c0.2-0.2,0.2-0.6,0.1-0.8c-0.3-0.5-0.9-0.7-1.5-0.6c-0.4,0-0.8,0.1-1.2,0.2c-0.2,0.1-0.5,0.1-0.8,0.2c-1.9,0.4-3.9-0.3-5.3-1.8
		c-1.3-1.4-1.8-3.4-1.5-5.4c0-0.1,0.2-0.2,0.3-0.2c0.1,0,0.2,0.2,0.2,0.3c-0.3,1.8,0.2,3.7,1.4,5c1.2,1.3,3.1,2,4.8,1.7
		c0.2,0,0.5-0.1,0.7-0.2c0.4-0.1,0.8-0.2,1.3-0.3c0.7-0.1,1.6,0.2,2,0.9c0.2,0.4,0.1,0.9-0.1,1.3C34.4,13.5,34.1,13.7,33.8,13.7z"/>
	<path class="st0" d="M24.8,16c-0.2,0-0.4,0-0.6-0.1c-0.7-0.2-1.1-0.9-1-1.6c0.1-0.4,0.4-0.7,0.8-0.8c0.4-0.1,0.7,0,0.9,0.2
		c0.1,0.1,0.1,0.3,0,0.4c-0.1,0.1-0.3,0.1-0.4,0c-0.1-0.1-0.3-0.1-0.4-0.1c-0.2,0.1-0.4,0.2-0.4,0.4c-0.1,0.4,0.2,0.8,0.6,0.9
		c0.4,0.1,0.9,0.1,1.4-0.2c0.3-0.3,0.4-0.8,0.4-1.2c0-1.4-0.6-2.8-1.6-3.7c-0.1-0.1-0.1-0.3,0-0.4c0.1-0.1,0.3-0.1,0.4,0
		c1.1,1,1.8,2.5,1.8,4.1c0,0.5-0.2,1.2-0.6,1.6C25.6,15.8,25.2,16,24.8,16z"/>
	<path class="st0" d="M54.6,13.7c-0.3,0-0.6-0.2-0.8-0.4c-0.3-0.4-0.4-0.9-0.1-1.3c0.4-0.8,1.3-1,2-0.9c0.4,0,0.9,0.2,1.3,0.3
		c0.2,0.1,0.5,0.1,0.7,0.2c1.7,0.3,3.6-0.3,4.8-1.7c1.2-1.3,1.7-3.2,1.4-5c0-0.1,0.1-0.3,0.2-0.3c0.1,0,0.3,0.1,0.3,0.2
		c0.3,2-0.2,4-1.5,5.4c-1.3,1.5-3.4,2.2-5.3,1.8c-0.3-0.1-0.5-0.1-0.8-0.2c-0.4-0.1-0.8-0.2-1.2-0.2c-0.5,0-1.2,0.1-1.5,0.6
		C54,12.4,54,12.7,54.2,13c0.1,0.1,0.2,0.3,0.5,0.2c0.1,0,0.3,0.1,0.3,0.2c0,0.1-0.1,0.3-0.2,0.3C54.7,13.7,54.7,13.7,54.6,13.7z"/>
	<path class="st0" d="M63.7,16c-0.4,0-0.8-0.1-1.2-0.4c-0.5-0.4-0.6-1-0.6-1.6c0-1.6,0.7-3.1,1.8-4.1c0.1-0.1,0.3-0.1,0.4,0
		c0.1,0.1,0.1,0.3,0,0.4c-1,0.9-1.6,2.3-1.6,3.7c0,0.4,0.1,0.9,0.4,1.2c0.5,0.4,1,0.3,1.4,0.2c0.4-0.1,0.7-0.5,0.6-0.9
		c0-0.2-0.2-0.3-0.4-0.4c-0.1,0-0.3-0.1-0.4,0.1c-0.1,0.1-0.3,0.1-0.4,0c-0.1-0.1-0.1-0.3,0-0.4c0.2-0.2,0.6-0.3,0.9-0.2
		c0.4,0.1,0.7,0.4,0.8,0.8c0.2,0.6-0.3,1.4-1,1.6C64.1,15.9,63.9,16,63.7,16z"/>
</g>
</svg>
