<?xml version="1.0" encoding="utf-8"?>
<!-- Generator: Adobe Illustrator 22.1.0, SVG Export Plug-In . SVG Version: 6.00 Build 0)  -->
<svg version="1.1" id="レイヤー_1" xmlns="http://www.w3.org/2000/svg" xmlns:xlink="http://www.w3.org/1999/xlink" x="0px"
	 y="0px" viewBox="0 0 87.9 14.8" style="enable-background:new 0 0 87.9 14.8;" xml:space="preserve">
<style type="text/css">
	.st0{fill:#2F292B;}
	.st1{fill:#FCCD58;}
	.st2{fill:#9CB06B;}
</style>
<g>
	<path class="st0" d="M43.9,9.4c-0.6,0-1.1-0.5-1.1-1.1s0.5-1.1,1.1-1.1S45,7.8,45,8.3S44.5,9.4,43.9,9.4z M43.9,7.9
		c-0.2,0-0.4,0.2-0.4,0.4s0.2,0.4,0.4,0.4c0.2,0,0.4-0.2,0.4-0.4S44.2,7.9,43.9,7.9z"/>
	<path class="st1" d="M44.3,6.1c-0.1,0.3-0.6,0.3-0.7,0c-0.6-1.3-1.4-3.9,0.4-3.9C45.6,2.3,44.8,4.8,44.3,6.1z"/>
	<path class="st0" d="M43.9,6.6c-0.3,0-0.5-0.2-0.6-0.4c-0.5-1.2-1-2.9-0.5-3.7C43,2.2,43.3,2,43.9,2c0,0,0,0,0,0
		c0.6,0,0.9,0.3,1,0.5c0.6,0.8,0.1,2.5-0.4,3.8c0,0,0,0,0,0C44.5,6.5,44.2,6.6,43.9,6.6C43.9,6.6,43.9,6.6,43.9,6.6z M44.3,6.1
		L44.3,6.1L44.3,6.1z M43.9,2.6c-0.4,0-0.6,0.2-0.6,0.3C43,3.3,43.2,4.5,43.9,6c0,0,0,0,0.1,0C44,6,44,6,44,6l0,0
		c0.6-1.5,0.8-2.7,0.5-3.2C44.4,2.7,44.3,2.6,43.9,2.6L43.9,2.6z"/>
	<path class="st1" d="M43.6,10.6c0.1-0.3,0.6-0.3,0.7,0c0.6,1.3,1.4,3.9-0.4,3.9C42.3,14.4,43.1,11.9,43.6,10.6z"/>
	<path class="st0" d="M43.9,14.7c-0.6,0-0.9-0.3-1-0.5c-0.6-0.8-0.1-2.5,0.4-3.8l0,0c0.1-0.3,0.3-0.4,0.6-0.4c0,0,0,0,0,0
		c0.3,0,0.5,0.2,0.6,0.4c0.5,1.2,1,2.9,0.5,3.7C44.9,14.4,44.6,14.7,43.9,14.7z M43.9,10.7c-0.6,1.5-0.8,2.7-0.5,3.2
		c0.1,0.1,0.2,0.2,0.5,0.2c0.4,0,0.6-0.2,0.6-0.3c0.3-0.5,0.1-1.7-0.5-3.2C44,10.7,44,10.6,43.9,10.7C43.9,10.6,43.9,10.7,43.9,10.7
		L43.9,10.7z"/>
	<path class="st1" d="M41.7,8c0.3,0.1,0.3,0.6,0,0.7c-1.3,0.6-3.9,1.4-3.9-0.4C37.9,6.7,40.4,7.5,41.7,8z"/>
	<path class="st0" d="M39.1,9.7c-0.4,0-0.7-0.1-1-0.2c-0.2-0.2-0.5-0.5-0.5-1.1c0-0.6,0.3-0.9,0.5-1c0.8-0.6,2.5-0.1,3.8,0.4l0,0
		c0.3,0.1,0.4,0.3,0.4,0.6c0,0.3-0.2,0.5-0.4,0.6C41,9.3,39.9,9.7,39.1,9.7z M39.1,7.7c-0.3,0-0.5,0-0.7,0.1
		c-0.1,0.1-0.2,0.2-0.2,0.5c0,0.4,0.2,0.6,0.3,0.6c0.5,0.3,1.7,0.1,3.2-0.5c0,0,0,0,0-0.1c0,0,0-0.1,0-0.1
		C40.6,7.9,39.7,7.7,39.1,7.7z"/>
	<path class="st1" d="M46.2,8.7c-0.3-0.1-0.3-0.6,0-0.7C47.5,7.4,50,6.6,50,8.3C50,10,47.5,9.2,46.2,8.7z"/>
	<path class="st0" d="M48.8,9.6c-0.8,0-1.9-0.3-2.8-0.7l0,0c-0.3-0.1-0.4-0.3-0.4-0.6c0-0.3,0.2-0.5,0.4-0.6c1.2-0.5,2.9-1,3.7-0.5
		c0.2,0.2,0.5,0.5,0.5,1.1c0,0.6-0.3,0.9-0.5,1C49.6,9.6,49.2,9.6,48.8,9.6z M46.3,8.4C47.8,9,49,9.2,49.5,8.9
		c0.1-0.1,0.2-0.2,0.2-0.5c0-0.4-0.2-0.6-0.3-0.6c-0.5-0.3-1.7-0.1-3.2,0.5C46.3,8.3,46.2,8.3,46.3,8.4C46.2,8.4,46.3,8.4,46.3,8.4
		L46.3,8.4z"/>
	<path class="st1" d="M45.8,7c-0.3,0.1-0.6-0.2-0.5-0.5c0.5-1.3,1.7-3.7,3-2.5C49.4,5.2,47.1,6.4,45.8,7z"/>
	<path class="st0" d="M45.6,7.3c-0.2,0-0.3-0.1-0.5-0.2c-0.2-0.2-0.3-0.5-0.2-0.7c0.5-1.3,1.3-2.8,2.3-3c0.3-0.1,0.7,0,1.2,0.4
		c0.4,0.4,0.4,0.8,0.4,1.1c-0.2,1-1.7,1.8-3,2.4h0C45.8,7.3,45.7,7.3,45.6,7.3z M45.8,7L45.8,7L45.8,7z M47.5,4c0,0-0.1,0-0.1,0
		c-0.6,0.1-1.2,1.1-1.9,2.6c0,0,0,0.1,0,0.1c0,0,0,0,0.1,0c1.5-0.7,2.5-1.4,2.6-1.9c0-0.1,0-0.3-0.2-0.5C47.8,4,47.6,4,47.5,4z"/>
	<path class="st1" d="M42.1,9.7c0.3-0.1,0.6,0.2,0.5,0.5c-0.5,1.3-1.7,3.7-3,2.5C38.5,11.5,40.8,10.2,42.1,9.7z"/>
	<path class="st0" d="M40.4,13.3c-0.3,0-0.6-0.1-0.9-0.4C39,12.4,39,12,39.1,11.8c0.2-1,1.7-1.8,3-2.4h0c0.3-0.1,0.5-0.1,0.7,0.1
		C43,9.7,43,10,42.9,10.3c-0.5,1.3-1.3,2.8-2.3,3C40.5,13.3,40.5,13.3,40.4,13.3z M42.3,10c-1.5,0.7-2.5,1.4-2.6,1.9
		c0,0.1,0,0.3,0.2,0.5c0.3,0.3,0.5,0.3,0.6,0.3C41,12.6,41.7,11.6,42.3,10C42.4,10,42.4,10,42.3,10C42.3,10,42.3,9.9,42.3,10
		L42.3,10z"/>
	<path class="st1" d="M42.6,6.5c0.1,0.3-0.2,0.6-0.5,0.5c-1.3-0.5-3.7-1.7-2.5-3C40.8,2.9,42,5.2,42.6,6.5z"/>
	<path class="st0" d="M42.3,7.3c-0.1,0-0.2,0-0.3,0C40.8,6.8,39.2,6,39,5c-0.1-0.3,0-0.7,0.4-1.2c0.4-0.4,0.8-0.4,1.1-0.4
		c1,0.2,1.8,1.7,2.4,3c0.1,0.3,0.1,0.5-0.1,0.7C42.6,7.3,42.4,7.3,42.3,7.3z M40.3,4c-0.1,0-0.3,0-0.4,0.2c-0.3,0.3-0.3,0.5-0.3,0.6
		c0.1,0.6,1.1,1.2,2.6,1.9c0,0,0.1,0,0.1,0c0,0,0,0,0-0.1c0,0,0,0,0,0C41.7,5.1,41,4.1,40.3,4C40.4,4,40.3,4,40.3,4z"/>
	<path class="st1" d="M45.3,10.2c-0.1-0.3,0.2-0.6,0.5-0.5c1.3,0.5,3.7,1.7,2.5,3C47.1,13.8,45.9,11.5,45.3,10.2z"/>
	<path class="st0" d="M47.6,13.3c-0.1,0-0.1,0-0.2,0c-1-0.2-1.8-1.7-2.4-3v0C44.9,10,45,9.7,45.1,9.5c0.2-0.2,0.5-0.3,0.7-0.2
		c1.3,0.5,2.8,1.3,3,2.3c0.1,0.3,0,0.7-0.4,1.2C48.1,13.2,47.8,13.3,47.6,13.3z M45.6,10c0.7,1.5,1.4,2.5,1.9,2.6
		c0.1,0,0.3,0,0.5-0.2c0.3-0.3,0.3-0.5,0.3-0.6C48.2,11.2,47.2,10.6,45.6,10C45.6,9.9,45.6,9.9,45.6,10C45.6,10,45.6,10,45.6,10
		L45.6,10z"/>
	<path class="st0" d="M31,14.7c-0.9,0-1.8-0.2-2.6-0.6c-1.3-0.7-2.2-1.8-2.5-3.1c0-0.1-0.1-0.2-0.1-0.4c-0.2-0.1-0.3-0.2-0.5-0.2
		c-1.2-0.7-2.3-1.5-3.4-2.2C21.5,7.8,21,7.4,20.4,7c-0.2,0.2-0.4,0.4-0.6,0.6c-0.7,0.6-1.4,1.2-2.1,1.8c-2.8,2.2-5.3,3.3-7.7,3.4
		c-1,0-2.3-0.1-3.4-0.9C5.5,11,5,9.6,5.4,8.5C5.6,7.8,6.1,7.3,6.8,7C7.4,6.8,8,6.9,8.5,7.1C9.1,7.5,9.4,8.2,9.3,9
		c-0.1,0.7-0.5,1.2-1.1,1.4c-0.2,0-0.3,0-0.4-0.2c0-0.2,0-0.3,0.2-0.4c0.3-0.1,0.6-0.4,0.6-0.9c0.1-0.4-0.1-1-0.5-1.2
		C7.9,7.5,7.5,7.5,7,7.6C6.5,7.8,6.1,8.2,6,8.7c-0.3,0.9,0.1,2,1,2.6c0.9,0.7,2.1,0.8,3,0.8c2.3-0.1,4.7-1.1,7.4-3.2
		c0.7-0.6,1.4-1.2,2.1-1.8c0.2-0.1,0.3-0.3,0.5-0.4c-0.4-0.3-0.9-0.6-1.4-0.8c-1.1-0.6-2.6-1.1-3.7-0.5C14.4,5.6,14,6,14,6.4
		c0,0.2,0.1,0.4,0.3,0.6c0.1,0.1,0.2,0.2,0.4,0.2c0.2,0,0.3-0.2,0.4-0.3c0-0.1,0.1-0.2-0.1-0.4c-0.1-0.1-0.1-0.3,0-0.4
		c0.1-0.1,0.3-0.1,0.4,0c0.3,0.2,0.4,0.6,0.2,1c-0.1,0.4-0.5,0.7-0.9,0.8c-0.3,0-0.6-0.1-0.9-0.3c-0.3-0.3-0.5-0.7-0.4-1.1
		c0-0.6,0.4-1.2,1.1-1.6c1.1-0.6,2.6-0.5,4.3,0.5c0.5,0.3,1,0.6,1.5,0.9c1.1-0.9,2.3-1.8,3.5-2.6c2.9-1.7,5.9-2.2,8.3-1.2
		c2.1,0.8,3.7,2.7,4.2,4.9c0.6,2.9-1,6-3.6,7C32.2,14.6,31.6,14.7,31,14.7z M26.5,11c0.3,1,1.1,2,2.2,2.5c1.2,0.6,2.7,0.8,3.9,0.3
		c2.3-0.9,3.8-3.7,3.2-6.3c-0.4-2-1.9-3.7-3.8-4.5c-2.2-0.9-5-0.4-7.7,1.2c-1.2,0.7-2.3,1.5-3.3,2.4c0.5,0.3,1,0.7,1.5,1
		c1.1,0.8,2.2,1.6,3.3,2.2c0,0,0.1,0,0.1,0.1c0-1.2,0.6-2.4,1.5-3.1c1.3-1,3.3-0.8,4.3,0.4c0.5,0.7,0.7,1.5,0.5,2.3
		c-0.3,0.9-1,1.7-2,2C28.9,11.9,27.6,11.5,26.5,11z M26.4,10.3c1.1,0.5,2.4,1.1,3.5,0.7c0.7-0.2,1.3-0.8,1.6-1.6
		c0.2-0.6,0.1-1.3-0.4-1.8c-0.8-0.9-2.4-1.1-3.5-0.3C26.8,7.9,26.3,9.1,26.4,10.3z"/>
	<path class="st0" d="M34.7,10.1C34.7,10.1,34.7,10.1,34.7,10.1c-0.2,0-0.3-0.2-0.3-0.4c0.3-1.4,0.1-2.3-0.5-3.3
		c-0.6-1.1-1.7-1.8-2.7-1.9c-0.2,0-0.3-0.2-0.3-0.3c0-0.2,0.2-0.3,0.3-0.3c1.3,0.1,2.5,1,3.2,2.2c0.7,1.1,0.8,2.3,0.5,3.8
		C35,10,34.8,10.1,34.7,10.1z"/>
	<path class="st0" d="M56.9,14.7c-0.6,0-1.2-0.1-1.8-0.3c-2.6-1-4.2-4.2-3.6-7c0.5-2.2,2.1-4.1,4.2-4.9C58.1,1.5,61.1,2,64,3.7
		c1.3,0.7,2.4,1.7,3.5,2.6c0.5-0.3,1-0.7,1.5-0.9c1.7-0.9,3.2-1.1,4.3-0.5c0.6,0.4,1.1,1,1.1,1.6c0,0.4-0.1,0.8-0.4,1.1
		c-0.3,0.2-0.6,0.4-0.9,0.3c-0.4,0-0.8-0.3-0.9-0.8c-0.1-0.4,0-0.8,0.2-1c0.1-0.1,0.3-0.1,0.4,0c0.1,0.1,0.1,0.3,0,0.4
		c-0.1,0.1-0.1,0.3-0.1,0.4C72.9,7,73,7.2,73.2,7.2c0.2,0,0.4-0.1,0.4-0.2c0.2-0.2,0.3-0.4,0.3-0.6c0-0.5-0.4-0.9-0.8-1.1
		c-1.2-0.6-2.7-0.1-3.7,0.5c-0.5,0.2-0.9,0.5-1.4,0.8c0.2,0.1,0.3,0.3,0.5,0.4c0.7,0.6,1.4,1.2,2.1,1.8c2.7,2.1,5.1,3.2,7.4,3.2
		c0.9,0,2.1-0.1,3-0.8c0.8-0.7,1.2-1.8,1-2.6c-0.2-0.5-0.6-0.9-1.1-1.1c-0.4-0.2-0.9-0.1-1.2,0.1c-0.4,0.3-0.6,0.8-0.5,1.2
		c0.1,0.4,0.3,0.8,0.6,0.9c0.2,0,0.3,0.2,0.2,0.4c0,0.2-0.2,0.3-0.4,0.2c-0.6-0.2-1-0.7-1.1-1.4c-0.1-0.8,0.2-1.5,0.8-1.8
		c0.5-0.3,1.1-0.3,1.7-0.1c0.7,0.3,1.2,0.8,1.4,1.4c0.4,1.1-0.1,2.5-1.2,3.3c-1.1,0.8-2.4,1-3.4,0.9c-2.4-0.1-4.9-1.2-7.7-3.4
		c-0.7-0.6-1.4-1.2-2.1-1.8c-0.2-0.2-0.4-0.4-0.6-0.6c-0.5,0.4-1.1,0.8-1.6,1.1c-1.1,0.8-2.2,1.6-3.4,2.2c-0.1,0.1-0.3,0.2-0.5,0.2
		c0,0.1,0,0.2-0.1,0.4c-0.3,1.3-1.2,2.4-2.5,3.1C58.7,14.5,57.8,14.7,56.9,14.7z M58.4,2.6c-0.9,0-1.7,0.1-2.4,0.4
		c-1.9,0.7-3.4,2.5-3.8,4.5c-0.5,2.6,0.9,5.4,3.2,6.3c1.2,0.5,2.6,0.3,3.9-0.3c1.1-0.6,1.9-1.5,2.2-2.5c-1.1,0.5-2.4,0.9-3.6,0.5
		c-0.9-0.3-1.7-1.1-2-2c-0.2-0.8-0.1-1.7,0.5-2.3c1-1.2,3-1.4,4.3-0.4c0.9,0.7,1.5,1.9,1.5,3.1c0,0,0.1,0,0.1-0.1
		c1.2-0.6,2.2-1.4,3.3-2.2c0.5-0.3,1-0.7,1.5-1c-1-0.9-2.1-1.7-3.3-2.4C61.9,3.1,60.1,2.6,58.4,2.6z M58.6,6.8
		c-0.7,0-1.4,0.3-1.9,0.8c-0.4,0.5-0.6,1.1-0.4,1.8c0.2,0.7,0.8,1.3,1.6,1.6c1.2,0.4,2.5-0.2,3.5-0.7c0.1-1.2-0.4-2.3-1.2-2.9
		C59.8,7,59.2,6.8,58.6,6.8z"/>
	<path class="st0" d="M53.2,10.1c-0.1,0-0.3-0.1-0.3-0.2c-0.3-1.5-0.1-2.6,0.5-3.8c0.7-1.3,1.9-2.1,3.2-2.2c0.2,0,0.3,0.1,0.3,0.3
		c0,0.2-0.1,0.3-0.3,0.3c-1.1,0.1-2.1,0.9-2.7,1.9c-0.6,1-0.7,2-0.5,3.3C53.5,9.9,53.4,10.1,53.2,10.1
		C53.2,10.1,53.2,10.1,53.2,10.1z"/>
	<path class="st2" d="M20.5,5c0,0-3.3-1.4-2.3-4.7C18.2,0.3,21.5,1.2,20.5,5z"/>
	<path class="st0" d="M20.5,5.3c0,0-0.1,0-0.1,0c0,0-3.6-1.5-2.5-5.1c0-0.2,0.2-0.3,0.4-0.2c0,0,3.7,1.1,2.6,5.1
		c0,0.1-0.1,0.2-0.2,0.2C20.6,5.3,20.6,5.3,20.5,5.3z M18.4,0.7c-0.3,1.1,0,2.1,0.8,3c0.4,0.4,0.8,0.7,1.1,0.9
		C20.8,2,19.1,1,18.4,0.7z"/>
	<path class="st2" d="M5,11.6c0,0-3.5,0.9-4.7-2.4C0.3,9.2,3.6,7.9,5,11.6z"/>
	<path class="st0" d="M4,12c-1.2,0-3.2-0.4-4-2.7C0,9.1,0,8.9,0.2,8.9c0,0,3.6-1.3,5.1,2.6c0,0.1,0,0.2,0,0.3c0,0.1-0.1,0.1-0.2,0.2
		C5,11.9,4.6,12,4,12z M0.7,9.4c0.9,2.1,3,2.1,3.8,2C3.5,9,1.5,9.2,0.7,9.4z"/>
	<path class="st2" d="M67.4,5c0,0,3.3-1.4,2.3-4.7C69.7,0.3,66.4,1.2,67.4,5z"/>
	<path class="st0" d="M67.4,5.3c0,0-0.1,0-0.1,0c-0.1,0-0.1-0.1-0.2-0.2C66,1.1,69.6,0,69.6,0c0.2,0,0.3,0,0.4,0.2
		c1.1,3.6-2.5,5.1-2.5,5.1C67.5,5.3,67.4,5.3,67.4,5.3z M69.5,0.7C68.8,1,67.1,2,67.6,4.6C68.3,4.2,70,3,69.5,0.7z"/>
	<path class="st2" d="M82.9,11.6c0,0,3.5,0.9,4.7-2.4C87.6,9.2,84.3,7.9,82.9,11.6z"/>
	<path class="st0" d="M83.9,12c-0.6,0-1-0.1-1.1-0.1c-0.1,0-0.2-0.1-0.2-0.2c0-0.1,0-0.2,0-0.3c1.5-3.9,5-2.6,5.1-2.6
		c0.2,0.1,0.2,0.2,0.2,0.4C87.1,11.6,85.1,12,83.9,12z M83.3,11.4c0.8,0.1,2.9,0.1,3.8-2C86.4,9.2,84.4,9,83.3,11.4z"/>
</g>
</svg>
