<?xml version="1.0" encoding="utf-8"?>
<!-- Generator: Adobe Illustrator 22.1.0, SVG Export Plug-In . SVG Version: 6.00 Build 0)  -->
<svg version="1.1" id="レイヤー_1" xmlns="http://www.w3.org/2000/svg" xmlns:xlink="http://www.w3.org/1999/xlink" x="0px"
	 y="0px" viewBox="0 0 120.2 1.9" style="enable-background:new 0 0 120.2 1.9;" xml:space="preserve">
<style type="text/css">
	.st0{fill:#7FAA8C;}
</style>
<path class="st0" d="M0,1c0.1,0.1,0.4,0.3,0.7,0.4l0,0C1,1.5,1.2,1.5,1.4,1.5c0.2,0.2,0.4,0.4,0.8,0.4c0.3,0,0.4-0.1,0.7-0.3
	c0,0,0,0,0,0c0,0,0.1,0,0.2,0c0.5,0,0.8-0.2,1.1-0.3c0.1-0.1,0.2-0.1,0.3-0.2v0.2c0,0.2,0.2,0.3,0.5,0.3h0.8c0.3,0,0.5-0.2,0.5-0.3
	V1.1H114v0.2c0,0.2,0.2,0.3,0.5,0.3h0.8c0.3,0,0.5-0.2,0.5-0.3V1.2c0.1,0,0.2,0.1,0.3,0.2c0.3,0.2,0.6,0.3,1.1,0.3
	c0.1,0,0.1,0,0.2,0c0,0,0,0,0,0c0.2,0.2,0.4,0.3,0.7,0.3c0.4,0,0.6-0.2,0.8-0.4c0.2,0,0.5,0,0.7-0.1l0,0c0.3-0.1,0.6-0.3,0.7-0.4
	c0,0,0,0,0,0c0,0,0,0,0,0c-0.1-0.1-0.4-0.3-0.7-0.4c-0.2-0.1-0.4-0.1-0.7-0.1C118.6,0.2,118.4,0,118,0c-0.3,0-0.4,0.1-0.7,0.3
	c0,0,0,0,0,0c0,0-0.1,0-0.2,0c-0.5,0-0.8,0.2-1.1,0.3c-0.1,0.1-0.2,0.1-0.3,0.2V0.5c0-0.2-0.2-0.3-0.5-0.3h-0.8
	c-0.3,0-0.5,0.2-0.5,0.3v0.2H6.2V0.5c0-0.2-0.2-0.3-0.5-0.3H4.9c-0.3,0-0.5,0.2-0.5,0.3v0.2c-0.1,0-0.2-0.1-0.3-0.2
	C3.8,0.4,3.6,0.3,3.1,0.3c-0.1,0-0.1,0-0.2,0c0,0,0,0,0,0C2.7,0.1,2.5,0,2.2,0C1.8,0,1.6,0.2,1.4,0.4c-0.2,0-0.4,0-0.7,0.1
	C0.4,0.6,0.1,0.8,0,1C0,0.9,0,0.9,0,1C0,1,0,1,0,1z M118,1.7c-0.1,0-0.2-0.1-0.4-0.1c0.2-0.1,0.3-0.2,0.4-0.4
	c0.1,0.1,0.2,0.2,0.4,0.3C118.4,1.6,118.2,1.7,118,1.7z M119.4,1.2L119.4,1.2L119.4,1.2c-0.1,0-0.2,0.1-0.3,0.1
	c0.1-0.1,0.3-0.2,0.7-0.2C119.6,1.1,119.5,1.2,119.4,1.2z M119.4,0.7c0.1,0,0.2,0.1,0.3,0.1c-0.2,0-0.4-0.1-0.5-0.2
	C119.2,0.6,119.3,0.7,119.4,0.7z M118.7,0.6c0.1,0.1,0.3,0.3,0.6,0.4c-0.3,0.1-0.5,0.2-0.6,0.4c-0.2-0.1-0.3-0.2-0.4-0.3
	C118.3,0.8,118.5,0.6,118.7,0.6C118.7,0.6,118.7,0.6,118.7,0.6z M118,0.2c0.2,0,0.4,0.1,0.5,0.2c-0.2,0.1-0.3,0.2-0.4,0.3
	c-0.1-0.1-0.2-0.3-0.4-0.4C117.8,0.3,117.9,0.2,118,0.2z M117.4,0.5c0.2,0.1,0.4,0.2,0.5,0.4c-0.1,0.2-0.3,0.4-0.5,0.4
	c-0.2-0.2-0.5-0.3-1-0.4C116.9,0.8,117.2,0.7,117.4,0.5z M117,0.5c-0.2,0.1-0.4,0.2-0.7,0.2C116.5,0.6,116.7,0.5,117,0.5z M117,1.4
	c-0.3,0-0.5-0.1-0.7-0.2C116.6,1.2,116.8,1.3,117,1.4z M2.2,1.7C2,1.7,1.9,1.6,1.8,1.5c0.2-0.1,0.3-0.2,0.4-0.3
	c0.1,0.1,0.2,0.3,0.4,0.4C2.5,1.6,2.4,1.7,2.2,1.7z M3.2,1.4c0.2-0.1,0.4-0.2,0.7-0.2C3.7,1.3,3.5,1.4,3.2,1.4z M3.9,0.7
	C3.6,0.7,3.4,0.6,3.2,0.5C3.5,0.5,3.7,0.6,3.9,0.7z M3.8,0.9C3.3,1.1,3,1.2,2.8,1.4C2.6,1.3,2.5,1.1,2.3,0.9
	c0.1-0.2,0.3-0.4,0.5-0.4C3,0.7,3.3,0.8,3.8,0.9z M2.2,0.2c0.1,0,0.2,0.1,0.4,0.1C2.4,0.4,2.3,0.6,2.2,0.7C2.1,0.6,1.9,0.5,1.7,0.4
	C1.9,0.3,2,0.2,2.2,0.2z M1.5,0.6C1.5,0.6,1.5,0.6,1.5,0.6c0.2,0,0.4,0.2,0.5,0.4C1.9,1.1,1.8,1.2,1.6,1.3C1.4,1.2,1.3,1,1,0.9
	C1.2,0.8,1.4,0.7,1.5,0.6z M0.9,0.7c0.1,0,0.1,0,0.2-0.1C0.9,0.7,0.8,0.8,0.5,0.8C0.6,0.8,0.7,0.7,0.9,0.7z M1.2,1.3
	c-0.1,0-0.2,0-0.3-0.1l0,0l0,0c-0.1,0-0.3-0.1-0.4-0.1C0.8,1.1,1,1.2,1.2,1.3z"/>
</svg>
