<?xml version="1.0" encoding="utf-8"?>
<!-- Generator: Adobe Illustrator 22.1.0, SVG Export Plug-In . SVG Version: 6.00 Build 0)  -->
<svg version="1.1" id="レイヤー_1" xmlns="http://www.w3.org/2000/svg" xmlns:xlink="http://www.w3.org/1999/xlink" x="0px"
	 y="0px" viewBox="0 0 300 300" style="enable-background:new 0 0 300 300;" xml:space="preserve">
<style type="text/css">
	.st0{clip-path:url(#SVGID_2_);}
	.st1{clip-path:url(#SVGID_4_);}
	.st2{fill:none;}
	.st3{fill-rule:evenodd;clip-rule:evenodd;}
</style>
<path d="M257.7,104.8c-4.5-16.7-13.4-31-25.2-42l30.4-7l-4.8-23L210.4,5.2l-22.3,7.4l9.1,29.8c-15.4-4.7-32.3-5.3-49-0.8
	c-39.9,10.7-66.3,46.9-66.3,86.4c-34.2,19.7-52.4,60.6-41.7,100.6c12.8,47.7,61.8,76,109.5,63.2c39.9-10.7,66.3-46.9,66.3-86.4
	C250.2,185.7,268.4,144.8,257.7,104.8z M154.1,63.7c35.2-9.4,72,11.8,81.5,47c7,26.3-3,53.5-23.2,69.5
	c-13.4-45.8-60.5-73-106.9-61.7C109.3,93,127.8,70.7,154.1,63.7z M191.6,191.3c-1,0.3-2,0.6-3.1,0.9c-35.2,9.4-72-11.8-81.5-47
	c-0.3-1-0.5-2.1-0.8-3.1c1-0.3,2-0.6,3.1-0.9c35.2-9.4,72,11.8,81.5,47C191.1,189.2,191.4,190.3,191.6,191.3z M143.8,269.6
	c-35.2,9.4-72-11.8-81.5-47c-7-26.3,3-53.5,23.2-69.5c13.4,45.8,60.5,73,106.9,61.7C188.6,240.3,170.1,262.6,143.8,269.6z"/>
</svg>
